<svg xmlns="http://www.w3.org/2000/svg" viewBox="0 0 553.2 336.3809523809524" width="553.2" height="336.3809523809524">
  <defs>
    <marker id="triton-arrow" markerWidth="8" markerHeight="5.6" refX="7" refY="2.8" orient="auto"><polygon points="0 0, 8 2.8, 0 5.6" fill="#4A90D9" /></marker>
    <marker id="triton-crosslink-arrow" markerWidth="8" markerHeight="5.6" refX="7" refY="2.8" orient="auto"><polygon points="0 0, 8 2.8, 0 5.6" fill="currentColor" /></marker>
  </defs>
  <rect width="100%" height="100%" fill="#FFFFFF" />
  <text x="24" y="42" font-size="20" font-family="Inter, system-ui, -apple-system, sans-serif" fill="#1E293B" font-weight="bold">Cross-Link Basic Demo</text>
  <rect x="24" y="58" width="160" height="254.3809523809524" fill="#F8FAFC" stroke="#CBD5E1" stroke-width="1" rx="6" />
  <text x="32" y="76" font-size="14" font-family="Inter, system-ui, -apple-system, sans-serif" fill="#1E293B" font-weight="bold">Frontend Services</text>
  <g transform="translate(28, 84.00000000000001) scale(0.9047619047619048)">
    <g id="ui">
      <rect x="24" y="24" width="120" height="40" fill="#F8FAFC" stroke="#CBD5E1" stroke-width="1.5" rx="2" />
      <text x="84" y="48.9" font-size="14" font-family="Inter, system-ui, -apple-system, sans-serif" fill="#1E293B" text-anchor="middle">Web UI</text>
    </g>
    <g id="gateway">
      <rect x="24" y="104" width="120" height="40" fill="#F8FAFC" stroke="#CBD5E1" stroke-width="1.5" rx="2" />
      <text x="84" y="128.9" font-size="14" font-family="Inter, system-ui, -apple-system, sans-serif" fill="#1E293B" text-anchor="middle">API Gateway</text>
    </g>
    <g id="auth">
      <rect x="24" y="184" width="120" height="40" fill="#F8FAFC" stroke="#CBD5E1" stroke-width="1.5" rx="2" />
      <text x="84" y="208.9" font-size="14" font-family="Inter, system-ui, -apple-system, sans-serif" fill="#1E293B" text-anchor="middle">Auth Service</text>
    </g>
  </g>
  <rect x="204" y="58" width="325.2" height="254.3809523809524" fill="#F8FAFC" stroke="#CBD5E1" stroke-width="1" rx="6" />
  <text x="212" y="76" font-size="14" font-family="Inter, system-ui, -apple-system, sans-serif" fill="#1E293B" font-weight="bold">Backend Services</text>
  <g transform="translate(208, 141.5904761904762) scale(0.65)">
    <path d="M 144 84 L 184 84" stroke="#4A90D9" stroke-width="1.5" fill="none" marker-end="url(#triton-arrow)" />
    <path d="M 304 84 L 324 84 L 324 44 L 344 44" stroke="#4A90D9" stroke-width="1.5" fill="none" marker-end="url(#triton-arrow)" />
    <path d="M 304 84 L 324 84 L 324 124 L 344 124" stroke="#4A90D9" stroke-width="1.5" fill="none" marker-end="url(#triton-arrow)" />
    <g id="gateway">
      <rect x="24" y="64" width="120" height="40" fill="#F8FAFC" stroke="#CBD5E1" stroke-width="1.5" rx="2" />
      <text x="84" y="88.9" font-size="14" font-family="Inter, system-ui, -apple-system, sans-serif" fill="#1E293B" text-anchor="middle">Gateway</text>
    </g>
    <g id="orders">
      <rect x="184" y="64" width="120" height="40" fill="#F8FAFC" stroke="#CBD5E1" stroke-width="1.5" rx="2" />
      <text x="244" y="88.9" font-size="14" font-family="Inter, system-ui, -apple-system, sans-serif" fill="#1E293B" text-anchor="middle">Order Service</text>
    </g>
    <g id="db">
      <rect x="344" y="24" width="120" height="40" fill="#F8FAFC" stroke="#CBD5E1" stroke-width="1.5" rx="2" />
      <text x="404" y="48.9" font-size="14" font-family="Inter, system-ui, -apple-system, sans-serif" fill="#1E293B" text-anchor="middle">Database</text>
    </g>
    <g id="queue">
      <rect x="344" y="104" width="120" height="40" fill="#F8FAFC" stroke="#CBD5E1" stroke-width="1.5" rx="2" />
      <text x="404" y="128.9" font-size="14" font-family="Inter, system-ui, -apple-system, sans-serif" fill="#1E293B" text-anchor="middle">Message Queue</text>
    </g>
  </g>
  <path d="M 158.28571428571428 196.1904761904762 L 223.6 196.1904761904762" stroke="#E11D48" stroke-width="2" fill="none" marker-end="url(#triton-crosslink-arrow)" />
  <path d="M 158.28571428571428 268.5714285714286 L 366.6 268.5714285714286 L 366.6 209.1904761904762" stroke="#16A34A" stroke-width="2" fill="none" stroke-dasharray="8 4" marker-end="url(#triton-crosslink-arrow)" />
  <text x="190.94285714285712" y="172.09523809523813" font-size="12" font-family="Inter, system-ui, -apple-system, sans-serif" fill="#E11D48" text-anchor="middle" font-weight="bold">routes to</text>
  <text x="262.4428571428572" y="262.5714285714286" font-size="12" font-family="Inter, system-ui, -apple-system, sans-serif" fill="#16A34A" text-anchor="middle" font-weight="bold">validates</text>
</svg>