<svg xmlns="http://www.w3.org/2000/svg" viewBox="0 0 494.79999999999995 240.70000000000005" width="494.79999999999995" height="240.70000000000005">
  <defs>
    <marker id="struct-arrow" markerWidth="8" markerHeight="8" refX="7" refY="4" orient="auto"><path d="M0 0 L8 4 L0 8 z" fill="#64748B" /></marker>
    <marker id="triton-crosslink-arrow" markerWidth="8" markerHeight="5.6" refX="7" refY="2.8" orient="auto"><polygon points="0 0, 8 2.8, 0 5.6" fill="currentColor" /></marker>
  </defs>
  <rect x="0" y="0" width="494.79999999999995" height="240.70000000000005" fill="#FFFFFF" />
  <text x="24" y="42" font-size="20" font-family="Inter, system-ui, -apple-system, sans-serif" fill="#1E293B" font-weight="bold">Wall test EW / WE</text>
  <rect x="24" y="58" width="213.4" height="158.70000000000002" fill="#FFFFFF" stroke="#CBD5E1" stroke-width="1" rx="6" />
  <rect x="257.4" y="58" width="213.4" height="158.70000000000002" fill="#FFFFFF" stroke="#CBD5E1" stroke-width="1" rx="6" />
  <path d="M 381.65 123.06666666666669 L 405.65 123.06666666666669 L 405.65 112.30000000000001 L 89.15 112.30000000000001 L 89.15 123.06666666666669 L 113.15 123.06666666666669" stroke="#16A34A" stroke-width="2" fill="none" marker-end="url(#triton-crosslink-arrow)" />
  <path d="M 113.15 139.83333333333334 L 89.15 139.83333333333334 L 89.15 150.60000000000002 L 405.65 150.60000000000002 L 405.65 139.83333333333334 L 381.65 139.83333333333334" stroke="#E11D48" stroke-width="2" fill="none" marker-end="url(#triton-crosslink-arrow)" />
  <text x="32" y="73.2" font-size="14" font-family="Inter, system-ui, -apple-system, sans-serif" fill="#1E293B" text-anchor="start" font-weight="bold">A</text>
  <g transform="translate(28, 84) scale(0.65)">
    <rect x="24" y="24" width="268" height="150" fill="#F8FAFC" stroke="#CBD5E1" stroke-width="1.5" rx="6" />
    <rect x="24" y="24" width="268" height="26" fill="#4A90D9" stroke="#4A90D9" stroke-width="0" rx="0" />
    <text x="36" y="41" font-size="11" font-family="Inter, system-ui, -apple-system, sans-serif" fill="#ffffff" font-weight="bold">PageHeader    freeStart →        ← freeEnd</text>
    <rect x="131" y="62" width="54" height="22" fill="#4A90D9" fill-opacity="0.14" stroke="#4A90D9" stroke-width="1.5" rx="3" />
    <text x="158" y="77" font-size="11" font-family="Inter, system-ui, -apple-system, sans-serif" fill="#4A90D9" text-anchor="middle" font-weight="bold">slot0</text>
    <text x="158" y="112.9" font-size="14" font-family="Inter, system-ui, -apple-system, sans-serif" fill="#64748B" text-anchor="middle">free space</text>
    <rect x="103" y="132" width="110" height="28" fill="#F8FAFC" stroke="#CBD5E1" stroke-width="1.5" rx="3" />
    <text x="158" y="150.9" font-size="14" font-family="Inter, system-ui, -apple-system, sans-serif" fill="#1E293B" text-anchor="middle" font-weight="bold">(1,x)</text>
    <path d="M 158 84 L 158 95.9 M 158 117.9 L 158 132" stroke="#64748B" stroke-width="1.5" fill="none" marker-end="url(#struct-arrow)" />
  </g>
  <text x="265.4" y="73.2" font-size="14" font-family="Inter, system-ui, -apple-system, sans-serif" fill="#1E293B" text-anchor="start" font-weight="bold">B</text>
  <g transform="translate(261.4, 84) scale(0.65)">
    <rect x="24" y="24" width="268" height="150" fill="#F8FAFC" stroke="#CBD5E1" stroke-width="1.5" rx="6" />
    <rect x="24" y="24" width="268" height="26" fill="#4A90D9" stroke="#4A90D9" stroke-width="0" rx="0" />
    <text x="36" y="41" font-size="11" font-family="Inter, system-ui, -apple-system, sans-serif" fill="#ffffff" font-weight="bold">PageHeader    freeStart →        ← freeEnd</text>
    <rect x="131" y="62" width="54" height="22" fill="#4A90D9" fill-opacity="0.14" stroke="#4A90D9" stroke-width="1.5" rx="3" />
    <text x="158" y="77" font-size="11" font-family="Inter, system-ui, -apple-system, sans-serif" fill="#4A90D9" text-anchor="middle" font-weight="bold">slot0</text>
    <text x="158" y="112.9" font-size="14" font-family="Inter, system-ui, -apple-system, sans-serif" fill="#64748B" text-anchor="middle">free space</text>
    <rect x="103" y="132" width="110" height="28" fill="#F8FAFC" stroke="#CBD5E1" stroke-width="1.5" rx="3" />
    <text x="158" y="150.9" font-size="14" font-family="Inter, system-ui, -apple-system, sans-serif" fill="#1E293B" text-anchor="middle" font-weight="bold">(2,y)</text>
    <path d="M 158 84 L 158 95.9 M 158 117.9 L 158 132" stroke="#64748B" stroke-width="1.5" fill="none" marker-end="url(#struct-arrow)" />
  </g>
  <text x="247.39999999999998" y="110.30000000000001" font-size="12" font-family="Inter, system-ui, -apple-system, sans-serif" fill="#16A34A" text-anchor="middle" font-weight="bold">EW</text>
  <text x="247.39999999999998" y="148.60000000000002" font-size="12" font-family="Inter, system-ui, -apple-system, sans-serif" fill="#E11D48" text-anchor="middle" font-weight="bold">WE</text>
</svg>