<svg xmlns="http://www.w3.org/2000/svg" viewBox="0 0 261.4 419.40000000000003" width="261.4" height="419.40000000000003">
  <defs>
    <marker id="struct-arrow" markerWidth="8" markerHeight="8" refX="7" refY="4" orient="auto"><path d="M0 0 L8 4 L0 8 z" fill="#64748B" /></marker>
    <marker id="triton-crosslink-arrow" markerWidth="8" markerHeight="5.6" refX="7" refY="2.8" orient="auto"><polygon points="0 0, 8 2.8, 0 5.6" fill="currentColor" /></marker>
  </defs>
  <rect x="0" y="0" width="261.4" height="419.40000000000003" fill="#FFFFFF" />
  <text x="24" y="42" font-size="20" font-family="Inter, system-ui, -apple-system, sans-serif" fill="#1E293B" font-weight="bold">Wall test SS</text>
  <rect x="24" y="58" width="213.4" height="158.70000000000002" fill="#FFFFFF" stroke="#CBD5E1" stroke-width="1" rx="6" />
  <rect x="24" y="236.70000000000002" width="213.4" height="158.70000000000002" fill="#FFFFFF" stroke="#CBD5E1" stroke-width="1" rx="6" />
  <path d="M 130.70000000000002 317.30000000000007 L 130.70000000000002 337.30000000000007 L 160.25 337.30000000000007 L 160.25 158.60000000000002 L 130.70000000000002 158.60000000000002 L 130.70000000000002 138.60000000000002" stroke="#E11D48" stroke-width="2" fill="none" marker-end="url(#triton-crosslink-arrow)" />
  <text x="32" y="73.2" font-size="14" font-family="Inter, system-ui, -apple-system, sans-serif" fill="#1E293B" text-anchor="start" font-weight="bold">A</text>
  <g transform="translate(28, 84) scale(0.65)">
    <rect x="24" y="24" width="268" height="150" fill="#F8FAFC" stroke="#CBD5E1" stroke-width="1.5" rx="6" />
    <rect x="24" y="24" width="268" height="26" fill="#4A90D9" stroke="#4A90D9" stroke-width="0" rx="0" />
    <text x="36" y="41" font-size="11" font-family="Inter, system-ui, -apple-system, sans-serif" fill="#ffffff" font-weight="bold">PageHeader    freeStart →        ← freeEnd</text>
    <rect x="131" y="62" width="54" height="22" fill="#4A90D9" fill-opacity="0.14" stroke="#4A90D9" stroke-width="1.5" rx="3" />
    <text x="158" y="77" font-size="11" font-family="Inter, system-ui, -apple-system, sans-serif" fill="#4A90D9" text-anchor="middle" font-weight="bold">slot0</text>
    <text x="158" y="112.9" font-size="14" font-family="Inter, system-ui, -apple-system, sans-serif" fill="#64748B" text-anchor="middle">free space</text>
    <rect x="103" y="132" width="110" height="28" fill="#F8FAFC" stroke="#CBD5E1" stroke-width="1.5" rx="3" />
    <text x="158" y="150.9" font-size="14" font-family="Inter, system-ui, -apple-system, sans-serif" fill="#1E293B" text-anchor="middle" font-weight="bold">(1,x)</text>
    <path d="M 158 84 L 158 95.9 M 158 117.9 L 158 132" stroke="#64748B" stroke-width="1.5" fill="none" marker-end="url(#struct-arrow)" />
  </g>
  <text x="32" y="251.9" font-size="14" font-family="Inter, system-ui, -apple-system, sans-serif" fill="#1E293B" text-anchor="start" font-weight="bold">B</text>
  <g transform="translate(28, 262.70000000000005) scale(0.65)">
    <rect x="24" y="24" width="268" height="150" fill="#F8FAFC" stroke="#CBD5E1" stroke-width="1.5" rx="6" />
    <rect x="24" y="24" width="268" height="26" fill="#4A90D9" stroke="#4A90D9" stroke-width="0" rx="0" />
    <text x="36" y="41" font-size="11" font-family="Inter, system-ui, -apple-system, sans-serif" fill="#ffffff" font-weight="bold">PageHeader    freeStart →        ← freeEnd</text>
    <rect x="131" y="62" width="54" height="22" fill="#4A90D9" fill-opacity="0.14" stroke="#4A90D9" stroke-width="1.5" rx="3" />
    <text x="158" y="77" font-size="11" font-family="Inter, system-ui, -apple-system, sans-serif" fill="#4A90D9" text-anchor="middle" font-weight="bold">slot0</text>
    <text x="158" y="112.9" font-size="14" font-family="Inter, system-ui, -apple-system, sans-serif" fill="#64748B" text-anchor="middle">free space</text>
    <rect x="103" y="132" width="110" height="28" fill="#F8FAFC" stroke="#CBD5E1" stroke-width="1.5" rx="3" />
    <text x="158" y="150.9" font-size="14" font-family="Inter, system-ui, -apple-system, sans-serif" fill="#1E293B" text-anchor="middle" font-weight="bold">(2,y)</text>
    <path d="M 158 84 L 158 95.9 M 158 117.9 L 158 132" stroke="#64748B" stroke-width="1.5" fill="none" marker-end="url(#struct-arrow)" />
  </g>
  <text x="145.47500000000002" y="335.30000000000007" font-size="12" font-family="Inter, system-ui, -apple-system, sans-serif" fill="#E11D48" text-anchor="middle" font-weight="bold">SS south</text>
</svg>