<svg xmlns="http://www.w3.org/2000/svg" viewBox="0 0 459.47 207.5" width="459.47" height="207.5">
  <defs>
    <marker id="struct-arrow" markerWidth="12" markerHeight="12" refX="10" refY="6" orient="auto" markerUnits="userSpaceOnUse"><path d="M0 0 L12 6 L0 12 z" fill="#4A90D9" /></marker>
  </defs>
  <rect x="0" y="0" width="459.47" height="207.5" fill="#FFFFFF" />
  <rect x="24" y="88" width="68.57759999999999" height="38" fill="#FFFFFF" stroke="#CBD5E1" stroke-width="1.5" rx="3" />
  <rect x="92.58" y="88" width="68.57759999999999" height="38" fill="#FFFFFF" stroke="#CBD5E1" stroke-width="1.5" rx="3" />
  <rect x="161.16" y="88" width="68.57759999999999" height="38" fill="#F8FAFC" stroke="#CBD5E1" stroke-width="1.5" rx="3" />
  <text x="195.44" y="112" font-size="14" font-family="Inter, system-ui, -apple-system, sans-serif" fill="#1E293B" text-anchor="middle" font-weight="bold">render</text>
  <rect x="229.73" y="88" width="68.57759999999999" height="38" fill="#F8FAFC" stroke="#CBD5E1" stroke-width="1.5" rx="3" />
  <text x="264.02" y="112" font-size="14" font-family="Inter, system-ui, -apple-system, sans-serif" fill="#1E293B" text-anchor="middle" font-weight="bold">layout</text>
  <rect x="298.31" y="88" width="68.57759999999999" height="38" fill="#F8FAFC" stroke="#CBD5E1" stroke-width="1.5" rx="3" />
  <text x="332.6" y="112" font-size="14" font-family="Inter, system-ui, -apple-system, sans-serif" fill="#1E293B" text-anchor="middle" font-weight="bold">parse</text>
  <rect x="366.89" y="88" width="68.57759999999999" height="38" fill="#F8FAFC" stroke="#CBD5E1" stroke-width="1.5" rx="3" />
  <text x="401.18" y="112" font-size="14" font-family="Inter, system-ui, -apple-system, sans-serif" fill="#1E293B" text-anchor="middle" font-weight="bold">main</text>
  <text x="24" y="42" font-size="18" font-family="Inter, system-ui, -apple-system, sans-serif" fill="#1E293B" font-weight="bold">horizontal call stack</text>
  <text x="195.44" y="79" font-size="14" font-family="Inter, system-ui, -apple-system, sans-serif" fill="#4A90D9" text-anchor="middle" font-weight="bold">push / pop</text>
  <path d="M 195.44 64 L 195.44 88" stroke="#4A90D9" stroke-width="1.5" fill="none" marker-end="url(#struct-arrow)" />
  <path d="M 195.44 160 L 195.44 130" stroke="#7C3AED" stroke-width="1.5" fill="none" marker-end="url(#queue-arrow-fwd)" />
  <text x="195.44" y="180" font-size="14" font-family="Inter, system-ui, -apple-system, sans-serif" fill="#7C3AED" text-anchor="middle" font-weight="bold">top</text>
</svg>