<svg xmlns="http://www.w3.org/2000/svg" viewBox="0 0 180.58 340" width="180.58" height="340">
  <defs>
    <marker id="struct-arrow" markerWidth="12" markerHeight="12" refX="10" refY="6" orient="auto" markerUnits="userSpaceOnUse"><path d="M0 0 L12 6 L0 12 z" fill="#4A90D9" /></marker>
  </defs>
  <rect x="0" y="0" width="180.58" height="340" fill="#FFFFFF" />
  <rect x="88" y="88" width="68.57759999999999" height="38" fill="#FFFFFF" stroke="#CBD5E1" stroke-width="1.5" rx="3" />
  <rect x="88" y="126" width="68.57759999999999" height="38" fill="#FFFFFF" stroke="#CBD5E1" stroke-width="1.5" rx="3" />
  <rect x="88" y="164" width="68.57759999999999" height="38" fill="#F8FAFC" stroke="#CBD5E1" stroke-width="1.5" rx="3" />
  <text x="122.29" y="188" font-size="14" font-family="Inter, system-ui, -apple-system, sans-serif" fill="#1E293B" text-anchor="middle" font-weight="bold">render</text>
  <rect x="88" y="202" width="68.57759999999999" height="38" fill="#F8FAFC" stroke="#CBD5E1" stroke-width="1.5" rx="3" />
  <text x="122.29" y="226" font-size="14" font-family="Inter, system-ui, -apple-system, sans-serif" fill="#1E293B" text-anchor="middle" font-weight="bold">layout</text>
  <rect x="88" y="240" width="68.57759999999999" height="38" fill="#F8FAFC" stroke="#CBD5E1" stroke-width="1.5" rx="3" />
  <text x="122.29" y="264" font-size="14" font-family="Inter, system-ui, -apple-system, sans-serif" fill="#1E293B" text-anchor="middle" font-weight="bold">parse</text>
  <rect x="88" y="278" width="68.57759999999999" height="38" fill="#F8FAFC" stroke="#CBD5E1" stroke-width="1.5" rx="3" />
  <text x="122.29" y="302" font-size="14" font-family="Inter, system-ui, -apple-system, sans-serif" fill="#1E293B" text-anchor="middle" font-weight="bold">main</text>
  <text x="24" y="42" font-size="18" font-family="Inter, system-ui, -apple-system, sans-serif" fill="#1E293B" font-weight="bold">call stack</text>
  <text x="122.29" y="79" font-size="14" font-family="Inter, system-ui, -apple-system, sans-serif" fill="#4A90D9" text-anchor="middle" font-weight="bold">push / pop</text>
  <path d="M 122.29 64 L 122.29 88" stroke="#4A90D9" stroke-width="1.5" fill="none" marker-end="url(#struct-arrow)" />
  <path d="M 32 183 L 88 183" stroke="#7C3AED" stroke-width="1.5" fill="none" marker-end="url(#struct-arrow)" />
  <text x="30" y="177" font-size="14" font-family="Inter, system-ui, -apple-system, sans-serif" fill="#7C3AED" text-anchor="start" font-weight="bold">top</text>
</svg>