<svg xmlns="http://www.w3.org/2000/svg" viewBox="0 0 897 256" width="897" height="256">
  <rect x="0" y="0" width="897" height="256" fill="#FFFFFF" />
  <text x="24" y="42" font-size="18" font-family="Inter, system-ui, -apple-system, sans-serif" fill="#1E293B" font-weight="bold">NUMA node detail</text>
  <rect x="24" y="56" width="259.5" height="176" fill="#fbfbfd" stroke="#4A90D9" stroke-width="2" rx="10" />
  <text x="36" y="73" font-size="11" font-family="Inter, system-ui, -apple-system, sans-serif" fill="#4A90D9" font-weight="bold">NUMA Node 0</text>
  <rect x="353.5" y="56" width="259.5" height="176" fill="#fbfbfd" stroke="#4A90D9" stroke-width="2" rx="10" />
  <text x="365.5" y="73" font-size="11" font-family="Inter, system-ui, -apple-system, sans-serif" fill="#4A90D9" font-weight="bold">NUMA Node 1</text>
  <path d="M 144.75 192 L 162.75 192" stroke="#27ae60" stroke-width="2" fill="none" />
  <rect x="136.26345" y="183" width="34.973099999999995" height="16" fill="#FFFFFF" stroke="#FFFFFF" stroke-width="0" rx="3" />
  <text x="153.75" y="195" font-size="11" font-family="Inter, system-ui, -apple-system, sans-serif" fill="#27ae60" text-anchor="middle" font-weight="bold">90 ns</text>
  <path d="M 474.25 192 L 492.25 192" stroke="#27ae60" stroke-width="2" fill="none" />
  <rect x="465.76345" y="183" width="34.973099999999995" height="16" fill="#FFFFFF" stroke="#FFFFFF" stroke-width="0" rx="3" />
  <text x="483.25" y="195" font-size="11" font-family="Inter, system-ui, -apple-system, sans-serif" fill="#27ae60" text-anchor="middle" font-weight="bold">90 ns</text>
  <path d="M 283.5 144 L 353.5 144" stroke="#e2574c" stroke-width="2" fill="none" stroke-dasharray="5 4" />
  <rect x="297.94665" y="135" width="41.106700000000004" height="16" fill="#FFFFFF" stroke="#FFFFFF" stroke-width="0" rx="3" />
  <text x="318.5" y="147" font-size="11" font-family="Inter, system-ui, -apple-system, sans-serif" fill="#e2574c" text-anchor="middle" font-weight="bold">140 ns</text>
  <path d="M 144.75 192 L 492.25 192" stroke="#e2574c" stroke-width="2" fill="none" stroke-dasharray="5 4" />
  <rect x="297.94665" y="183" width="41.106700000000004" height="16" fill="#FFFFFF" stroke="#FFFFFF" stroke-width="0" rx="3" />
  <text x="318.5" y="195" font-size="11" font-family="Inter, system-ui, -apple-system, sans-serif" fill="#e2574c" text-anchor="middle" font-weight="bold">200 ns</text>
  <rect x="38" y="96" width="106.75" height="52" fill="#F8FAFC" stroke="#4A90D9" stroke-width="2" rx="8" />
  <text x="91.375" y="126.9" font-size="14" font-family="Inter, system-ui, -apple-system, sans-serif" fill="#1E293B" text-anchor="middle" font-weight="bold">Core 0</text>
  <rect x="162.75" y="96" width="106.75" height="52" fill="#F8FAFC" stroke="#4A90D9" stroke-width="2" rx="8" />
  <text x="216.125" y="126.9" font-size="14" font-family="Inter, system-ui, -apple-system, sans-serif" fill="#1E293B" text-anchor="middle" font-weight="bold">Core 1</text>
  <rect x="38" y="166" width="106.75" height="52" fill="#F8FAFC" stroke="#4A90D9" stroke-width="2" rx="8" />
  <text x="91.375" y="196.9" font-size="14" font-family="Inter, system-ui, -apple-system, sans-serif" fill="#1E293B" text-anchor="middle" font-weight="bold">Mem Ctrl</text>
  <rect x="162.75" y="166" width="106.75" height="52" fill="#F8FAFC" stroke="#4A90D9" stroke-width="2" rx="8" />
  <text x="216.125" y="186" font-size="14" font-family="Inter, system-ui, -apple-system, sans-serif" fill="#1E293B" text-anchor="middle" font-weight="bold">Local DRAM</text>
  <text x="216.125" y="204" font-size="11" font-family="Inter, system-ui, -apple-system, sans-serif" fill="#64748B" text-anchor="middle">64 GB</text>
  <rect x="367.5" y="96" width="106.75" height="52" fill="#F8FAFC" stroke="#4A90D9" stroke-width="2" rx="8" />
  <text x="420.875" y="126.9" font-size="14" font-family="Inter, system-ui, -apple-system, sans-serif" fill="#1E293B" text-anchor="middle" font-weight="bold">Core 2</text>
  <rect x="492.25" y="96" width="106.75" height="52" fill="#F8FAFC" stroke="#4A90D9" stroke-width="2" rx="8" />
  <text x="545.625" y="126.9" font-size="14" font-family="Inter, system-ui, -apple-system, sans-serif" fill="#1E293B" text-anchor="middle" font-weight="bold">Core 3</text>
  <rect x="367.5" y="166" width="106.75" height="52" fill="#F8FAFC" stroke="#4A90D9" stroke-width="2" rx="8" />
  <text x="420.875" y="196.9" font-size="14" font-family="Inter, system-ui, -apple-system, sans-serif" fill="#1E293B" text-anchor="middle" font-weight="bold">Mem Ctrl</text>
  <rect x="492.25" y="166" width="106.75" height="52" fill="#F8FAFC" stroke="#4A90D9" stroke-width="2" rx="8" />
  <text x="545.625" y="186" font-size="14" font-family="Inter, system-ui, -apple-system, sans-serif" fill="#1E293B" text-anchor="middle" font-weight="bold">Local DRAM</text>
  <text x="545.625" y="204" font-size="11" font-family="Inter, system-ui, -apple-system, sans-serif" fill="#64748B" text-anchor="middle">64 GB</text>
  <rect x="653" y="56" width="220" height="80" fill="#FFFFFF" stroke="#CBD5E1" stroke-width="1.5" rx="8" />
  <text x="667" y="78" font-size="14" font-family="Inter, system-ui, -apple-system, sans-serif" fill="#1E293B" font-weight="bold">Cost (ns)</text>
  <rect x="667" y="80" width="16" height="12" fill="#27ae60" stroke="#27ae60" stroke-width="1" rx="2" />
  <text x="691" y="92" font-size="11" font-family="Inter, system-ui, -apple-system, sans-serif" fill="#1E293B">local</text>
  <text x="859" y="92" font-size="11" font-family="Inter, system-ui, -apple-system, sans-serif" fill="#64748B" text-anchor="end" font-weight="bold">≤ 90</text>
  <rect x="667" y="102" width="16" height="12" fill="#e2574c" stroke="#e2574c" stroke-width="1" rx="2" />
  <text x="691" y="114" font-size="11" font-family="Inter, system-ui, -apple-system, sans-serif" fill="#1E293B">remote</text>
  <text x="859" y="114" font-size="11" font-family="Inter, system-ui, -apple-system, sans-serif" fill="#64748B" text-anchor="end" font-weight="bold">≤ 200</text>
</svg>