<?xml version="1.0" encoding="UTF-8"?>
<svg height="768.13" version="1.1" viewBox="0 0 1200 768.13" width="1200" xmlns="http://www.w3.org/2000/svg">
  <rect fill="#FFFFFF" height="768.13" width="1200" x="0" y="0"/>
  <text dominant-baseline="alphabetic" fill="#111111" font-family="DejaVu Sans, Courier New, Courier, monospace" font-size="26.67" font-weight="700" text-anchor="middle" x="600" y="86.67">Architecture Evolution 2022–2028</text>
  <text dominant-baseline="alphabetic" fill="#111111" font-family="DejaVu Sans, Courier New, Courier, monospace" font-size="17.33" font-weight="400" opacity="0.75" text-anchor="middle" x="600" y="118.33">Platform transformation: Monolith → Services → Platform</text>
  <line opacity="0.35" stroke="#374151" stroke-width="0.5" x1="140" x2="1160" y1="130" y2="130"/>
  <line stroke="#374151" stroke-width="1" x1="140" x2="1160" y1="168" y2="168"/>
  <line stroke="#374151" stroke-width="1" x1="140" x2="140" y1="162" y2="168"/>
  <line opacity="0.7" stroke="#E5E7EB" stroke-width="1" x1="140" x2="140" y1="168" y2="583.86"/>
  <text dominant-baseline="alphabetic" fill="#374151" font-family="DejaVu Sans, Courier New, Courier, monospace" font-size="13.33" font-weight="400" text-anchor="middle" x="140" y="154">2022</text>
  <line stroke="#374151" stroke-width="1" x1="286" x2="286" y1="162" y2="168"/>
  <line opacity="0.7" stroke="#E5E7EB" stroke-width="1" x1="286" x2="286" y1="168" y2="583.86"/>
  <text dominant-baseline="alphabetic" fill="#374151" font-family="DejaVu Sans, Courier New, Courier, monospace" font-size="13.33" font-weight="400" text-anchor="middle" x="286" y="154">2023</text>
  <line stroke="#374151" stroke-width="1" x1="431" x2="431" y1="162" y2="168"/>
  <line opacity="0.7" stroke="#E5E7EB" stroke-width="1" x1="431" x2="431" y1="168" y2="583.86"/>
  <text dominant-baseline="alphabetic" fill="#374151" font-family="DejaVu Sans, Courier New, Courier, monospace" font-size="13.33" font-weight="400" text-anchor="middle" x="431" y="154">2024</text>
  <line stroke="#374151" stroke-width="1" x1="577" x2="577" y1="162" y2="168"/>
  <line opacity="0.7" stroke="#E5E7EB" stroke-width="1" x1="577" x2="577" y1="168" y2="583.86"/>
  <text dominant-baseline="alphabetic" fill="#374151" font-family="DejaVu Sans, Courier New, Courier, monospace" font-size="13.33" font-weight="400" text-anchor="middle" x="577" y="154">2025</text>
  <line stroke="#374151" stroke-width="1" x1="723" x2="723" y1="162" y2="168"/>
  <line opacity="0.7" stroke="#E5E7EB" stroke-width="1" x1="723" x2="723" y1="168" y2="583.86"/>
  <text dominant-baseline="alphabetic" fill="#374151" font-family="DejaVu Sans, Courier New, Courier, monospace" font-size="13.33" font-weight="400" text-anchor="middle" x="723" y="154">2026</text>
  <line stroke="#374151" stroke-width="1" x1="869" x2="869" y1="162" y2="168"/>
  <line opacity="0.7" stroke="#E5E7EB" stroke-width="1" x1="869" x2="869" y1="168" y2="583.86"/>
  <text dominant-baseline="alphabetic" fill="#374151" font-family="DejaVu Sans, Courier New, Courier, monospace" font-size="13.33" font-weight="400" text-anchor="middle" x="869" y="154">2027</text>
  <line stroke="#374151" stroke-width="1" x1="1014" x2="1014" y1="162" y2="168"/>
  <line opacity="0.7" stroke="#E5E7EB" stroke-width="1" x1="1014" x2="1014" y1="168" y2="583.86"/>
  <text dominant-baseline="alphabetic" fill="#374151" font-family="DejaVu Sans, Courier New, Courier, monospace" font-size="13.33" font-weight="400" text-anchor="middle" x="1014" y="154">2028</text>
  <line opacity="0.3" stroke="#D1D5DB" stroke-width="1" x1="140" x2="1160" y1="373.86" y2="373.86"/>
  <text dominant-baseline="middle" fill="#111111" font-family="DejaVu Sans, Courier New, Courier, monospace" font-size="14.67" font-weight="700" text-anchor="start" x="8" y="320.86">Backend</text>
  <line opacity="0.3" stroke="#D1D5DB" stroke-width="1" x1="140" x2="1160" y1="463.86" y2="463.86"/>
  <text dominant-baseline="middle" fill="#111111" font-family="DejaVu Sans, Courier New, Courier, monospace" font-size="14.67" font-weight="700" text-anchor="start" x="8" y="425.86">Frontend</text>
  <line opacity="0.3" stroke="#D1D5DB" stroke-width="1" x1="140" x2="1160" y1="583.86" y2="583.86"/>
  <text dominant-baseline="middle" fill="#111111" font-family="DejaVu Sans, Courier New, Courier, monospace" font-size="14.67" font-weight="700" text-anchor="start" x="8" y="530.86">Infrastructure</text>
  <rect fill="#16A34A" height="24" opacity="1" rx="3" stroke="#15803D" stroke-width="0.5" width="217" x="140" y="279.86"/>
  <rect fill="#FFFFFF" height="4" opacity="0.4" rx="3" width="217" x="140" y="299.86"/>
  <text dominant-baseline="middle" fill="#111111" font-family="DejaVu Sans, Courier New, Courier, monospace" font-size="13.33" font-weight="600" text-anchor="start" x="144" y="291.86">Monolithic Application</text>
  <rect fill="#16A34A" height="24" opacity="1" rx="3" stroke="#15803D" stroke-width="0.5" width="511" x="212" y="309.86"/>
  <rect fill="#FFFFFF" height="4" opacity="0.4" rx="3" width="511" x="212" y="329.86"/>
  <text dominant-baseline="middle" fill="#111111" font-family="DejaVu Sans, Courier New, Courier, monospace" font-size="13.33" font-weight="600" text-anchor="start" x="216" y="321.86">Service Decomposition</text>
  <rect fill="#2563EB" height="24" opacity="1" rx="3" stroke="#1D4ED8" stroke-width="0.5" width="291" x="577" y="279.86"/>
  <rect fill="#FFFFFF" height="4" opacity="0.4" rx="3" width="146" x="577" y="299.86"/>
  <text dominant-baseline="middle" fill="#FFFFFF" font-family="DejaVu Sans, Courier New, Courier, monospace" font-size="13.33" font-weight="600" text-anchor="start" x="581" y="291.86">Event Mesh</text>
  <rect fill="#6B7280" height="24" opacity="0.85" rx="3" stroke="#4B5563" stroke-width="0.5" width="377" x="783" y="309.86"/>
  <text dominant-baseline="middle" fill="#FFFFFF" font-family="DejaVu Sans, Courier New, Courier, monospace" font-size="13.33" font-weight="600" text-anchor="start" x="787" y="321.86">Platform API Layer</text>
  <rect fill="#16A34A" height="24" opacity="1" rx="3" stroke="#15803D" stroke-width="0.5" width="217" x="140" y="399.86"/>
  <rect fill="#FFFFFF" height="4" opacity="0.4" rx="3" width="217" x="140" y="419.86"/>
  <text dominant-baseline="middle" fill="#111111" font-family="DejaVu Sans, Courier New, Courier, monospace" font-size="13.33" font-weight="600" text-anchor="start" x="144" y="411.86">SPA Migration</text>
  <rect fill="#16A34A" height="24" opacity="1" rx="3" stroke="#15803D" stroke-width="0.5" width="219" x="358" y="399.86"/>
  <rect fill="#FFFFFF" height="4" opacity="0.4" rx="3" width="219" x="358" y="419.86"/>
  <text dominant-baseline="middle" fill="#111111" font-family="DejaVu Sans, Courier New, Courier, monospace" font-size="13.33" font-weight="600" text-anchor="start" x="362" y="411.86">Design System</text>
  <rect fill="#2563EB" height="24" opacity="1" rx="3" stroke="#1D4ED8" stroke-width="0.5" width="364" x="577" y="399.86"/>
  <rect fill="#FFFFFF" height="4" opacity="0.4" rx="3" width="109" x="577" y="419.86"/>
  <text dominant-baseline="middle" fill="#FFFFFF" font-family="DejaVu Sans, Courier New, Courier, monospace" font-size="13.33" font-weight="600" text-anchor="start" x="581" y="411.86">Micro-Frontends</text>
  <rect fill="#16A34A" height="24" opacity="1" rx="3" stroke="#15803D" stroke-width="0.5" width="145" x="140" y="489.86"/>
  <rect fill="#FFFFFF" height="4" opacity="0.4" rx="3" width="145" x="140" y="509.86"/>
  <text dominant-baseline="middle" fill="#111111" font-family="DejaVu Sans, Courier New, Courier, monospace" font-size="13.33" font-weight="600" text-anchor="start" x="144" y="501.86">Bare Metal</text>
  <rect fill="#16A34A" height="24" opacity="1" rx="3" stroke="#15803D" stroke-width="0.5" width="304" x="200" y="519.86"/>
  <rect fill="#FFFFFF" height="4" opacity="0.4" rx="3" width="304" x="200" y="539.86"/>
  <text dominant-baseline="middle" fill="#111111" font-family="DejaVu Sans, Courier New, Courier, monospace" font-size="13.33" font-weight="600" text-anchor="start" x="204" y="531.86">Containerisation</text>
  <rect fill="#16A34A" height="24" opacity="1" rx="3" stroke="#15803D" stroke-width="0.5" width="365" x="358" y="489.86"/>
  <rect fill="#FFFFFF" height="4" opacity="0.4" rx="3" width="365" x="358" y="509.86"/>
  <text dominant-baseline="middle" fill="#111111" font-family="DejaVu Sans, Courier New, Courier, monospace" font-size="13.33" font-weight="600" text-anchor="start" x="362" y="501.86">Kubernetes</text>
  <rect fill="#2563EB" height="24" opacity="1" rx="3" stroke="#1D4ED8" stroke-width="0.5" width="437" x="577" y="519.86"/>
  <rect fill="#FFFFFF" height="4" opacity="0.4" rx="3" width="87" x="577" y="539.86"/>
  <text dominant-baseline="middle" fill="#FFFFFF" font-family="DejaVu Sans, Courier New, Courier, monospace" font-size="13.33" font-weight="600" text-anchor="start" x="581" y="531.86">Multi-Cloud</text>
  <rect fill="#6B7280" height="24" opacity="0.85" rx="3" stroke="#4B5563" stroke-width="0.5" width="291" x="869" y="489.86"/>
  <text dominant-baseline="middle" fill="#FFFFFF" font-family="DejaVu Sans, Courier New, Courier, monospace" font-size="13.33" font-weight="600" text-anchor="start" x="873" y="501.86">Edge Compute</text>
  <line opacity="0.45" stroke="#555555" stroke-width="0.75" x1="346" x2="346" y1="261.86" y2="411.86"/>
  <path d="M 332 411.86 L 360 411.86 L 346 439.86 Z" fill="#6B7280" stroke="#FFFFFF" stroke-width="1.5"/>
  <text dominant-baseline="alphabetic" fill="#111111" font-family="DejaVu Sans, Courier New, Courier, monospace" font-size="13.33" font-weight="600" text-anchor="middle" x="346" y="239.66">First Microservice</text>
  <text dominant-baseline="alphabetic" fill="#555555" font-family="DejaVu Sans, Courier New, Courier, monospace" font-size="12" font-weight="400" text-anchor="middle" x="346" y="256.46">June 2023</text>
  <line opacity="0.45" stroke="#555555" stroke-width="0.75" x1="455" x2="455" y1="218.93" y2="411.86"/>
  <path d="M 441 411.86 L 469 411.86 L 455 439.86 Z" fill="#6B7280" stroke="#FFFFFF" stroke-width="1.5"/>
  <text dominant-baseline="alphabetic" fill="#111111" font-family="DejaVu Sans, Courier New, Courier, monospace" font-size="13.33" font-weight="600" text-anchor="middle" x="455" y="196.73">Kubernetes in Prod</text>
  <text dominant-baseline="alphabetic" fill="#555555" font-family="DejaVu Sans, Courier New, Courier, monospace" font-size="12" font-weight="400" text-anchor="middle" x="455" y="213.53">March 2024</text>
  <line opacity="0.45" stroke="#555555" stroke-width="0.75" x1="869" x2="869" y1="261.86" y2="411.86"/>
  <path d="M 855 411.86 L 883 411.86 L 869 439.86 Z" fill="#6B7280" stroke="#FFFFFF" stroke-width="1.5"/>
  <text dominant-baseline="alphabetic" fill="#111111" font-family="DejaVu Sans, Courier New, Courier, monospace" font-size="13.33" font-weight="600" text-anchor="middle" x="869" y="239.66">Platform v1 GA</text>
  <text dominant-baseline="alphabetic" fill="#555555" font-family="DejaVu Sans, Courier New, Courier, monospace" font-size="12" font-weight="400" text-anchor="middle" x="869" y="256.46">January 2027</text>
  <rect fill="#FFFFFF" height="120.27" opacity="0.95" rx="4" stroke="#D1D5DB" stroke-width="1" width="160" x="984" y="599.86"/>
  <text dominant-baseline="alphabetic" fill="#111111" font-family="DejaVu Sans, Courier New, Courier, monospace" font-size="13.33" font-weight="700" text-anchor="start" x="994" y="623.19">Legend</text>
  <rect fill="#16A34A" height="12" rx="2" width="12" x="994" y="635.73"/>
  <text dominant-baseline="middle" fill="#374151" font-family="DejaVu Sans, Courier New, Courier, monospace" font-size="12" font-weight="400" text-anchor="start" x="1014" y="641.73">done</text>
  <rect fill="#2563EB" height="12" rx="2" width="12" x="994" y="656.13"/>
  <text dominant-baseline="middle" fill="#374151" font-family="DejaVu Sans, Courier New, Courier, monospace" font-size="12" font-weight="400" text-anchor="start" x="1014" y="662.13">in-progress</text>
  <rect fill="#6B7280" height="12" rx="2" width="12" x="994" y="676.53"/>
  <text dominant-baseline="middle" fill="#374151" font-family="DejaVu Sans, Courier New, Courier, monospace" font-size="12" font-weight="400" text-anchor="start" x="1014" y="682.53">planned</text>
  <rect fill="#6B7280" height="12" rx="2" width="12" x="994" y="696.93"/>
  <text dominant-baseline="middle" fill="#374151" font-family="DejaVu Sans, Courier New, Courier, monospace" font-size="12" font-weight="400" text-anchor="start" x="1014" y="702.93">standard-node</text>
</svg>