<?xml version="1.0" encoding="UTF-8"?>
<svg height="618.93" version="1.1" viewBox="0 0 1200 618.93" width="1200" xmlns="http://www.w3.org/2000/svg">
  <rect fill="#FFFFFF" height="618.93" width="1200" x="0" y="0"/>
  <text dominant-baseline="alphabetic" fill="#111111" font-family="DejaVu Sans, Courier New, Courier, monospace" font-size="26.67" font-weight="700" text-anchor="middle" x="600" y="86.67">H1 2026 — Dense Engineering Roadmap</text>
  <text dominant-baseline="alphabetic" fill="#111111" font-family="DejaVu Sans, Courier New, Courier, monospace" font-size="17.33" font-weight="400" opacity="0.75" text-anchor="middle" x="600" y="118.33">All engineering tracks, January–June 2026</text>
  <line opacity="0.35" stroke="#374151" stroke-width="0.5" x1="140" x2="1160" y1="130" y2="130"/>
  <line stroke="#374151" stroke-width="1" x1="140" x2="1160" y1="168" y2="168"/>
  <line stroke="#374151" stroke-width="1" x1="140" x2="140" y1="162" y2="168"/>
  <line opacity="0.7" stroke="#E5E7EB" stroke-width="1" x1="140" x2="140" y1="168" y2="570.93"/>
  <text dominant-baseline="alphabetic" fill="#374151" font-family="DejaVu Sans, Courier New, Courier, monospace" font-size="13.33" font-weight="400" text-anchor="middle" x="140" y="154">2026</text>
  <line stroke="#374151" stroke-width="1" x1="316" x2="316" y1="162" y2="168"/>
  <line opacity="0.7" stroke="#E5E7EB" stroke-width="1" x1="316" x2="316" y1="168" y2="570.93"/>
  <text dominant-baseline="alphabetic" fill="#374151" font-family="DejaVu Sans, Courier New, Courier, monospace" font-size="13.33" font-weight="400" text-anchor="middle" x="316" y="154">Feb</text>
  <line stroke="#374151" stroke-width="1" x1="474" x2="474" y1="162" y2="168"/>
  <line opacity="0.7" stroke="#E5E7EB" stroke-width="1" x1="474" x2="474" y1="168" y2="570.93"/>
  <text dominant-baseline="alphabetic" fill="#374151" font-family="DejaVu Sans, Courier New, Courier, monospace" font-size="13.33" font-weight="400" text-anchor="middle" x="474" y="154">Mar</text>
  <line stroke="#374151" stroke-width="1" x1="650" x2="650" y1="162" y2="168"/>
  <line opacity="0.7" stroke="#E5E7EB" stroke-width="1" x1="650" x2="650" y1="168" y2="570.93"/>
  <text dominant-baseline="alphabetic" fill="#374151" font-family="DejaVu Sans, Courier New, Courier, monospace" font-size="13.33" font-weight="400" text-anchor="middle" x="650" y="154">Apr</text>
  <line stroke="#374151" stroke-width="1" x1="820" x2="820" y1="162" y2="168"/>
  <line opacity="0.7" stroke="#E5E7EB" stroke-width="1" x1="820" x2="820" y1="168" y2="570.93"/>
  <text dominant-baseline="alphabetic" fill="#374151" font-family="DejaVu Sans, Courier New, Courier, monospace" font-size="13.33" font-weight="400" text-anchor="middle" x="820" y="154">May</text>
  <line stroke="#374151" stroke-width="1" x1="996" x2="996" y1="162" y2="168"/>
  <line opacity="0.7" stroke="#E5E7EB" stroke-width="1" x1="996" x2="996" y1="168" y2="570.93"/>
  <text dominant-baseline="alphabetic" fill="#374151" font-family="DejaVu Sans, Courier New, Courier, monospace" font-size="13.33" font-weight="400" text-anchor="middle" x="996" y="154">Jun</text>
  <line opacity="0.3" stroke="#D1D5DB" stroke-width="1" x1="140" x2="1160" y1="330.93" y2="330.93"/>
  <text dominant-baseline="middle" fill="#111111" font-family="DejaVu Sans, Courier New, Courier, monospace" font-size="14.67" font-weight="700" text-anchor="start" x="8" y="277.93">Infrastructure</text>
  <line opacity="0.3" stroke="#D1D5DB" stroke-width="1" x1="140" x2="1160" y1="450.93" y2="450.93"/>
  <text dominant-baseline="middle" fill="#111111" font-family="DejaVu Sans, Courier New, Courier, monospace" font-size="14.67" font-weight="700" text-anchor="start" x="8" y="397.93">Backend</text>
  <line opacity="0.3" stroke="#D1D5DB" stroke-width="1" x1="140" x2="1160" y1="570.93" y2="570.93"/>
  <text dominant-baseline="middle" fill="#111111" font-family="DejaVu Sans, Courier New, Courier, monospace" font-size="14.67" font-weight="700" text-anchor="start" x="8" y="517.93">Frontend</text>
  <rect fill="#16A34A" height="24" opacity="1" rx="3" stroke="#15803D" stroke-width="0.5" width="159" x="151" y="236.93"/>
  <rect fill="#FFFFFF" height="4" opacity="0.4" rx="3" width="159" x="151" y="256.93"/>
  <text dominant-baseline="middle" fill="#111111" font-family="DejaVu Sans, Courier New, Courier, monospace" font-size="13.33" font-weight="600" text-anchor="start" x="155" y="248.93">K8s Upgrade</text>
  <rect fill="#16A34A" height="24" opacity="1" rx="3" stroke="#15803D" stroke-width="0.5" width="238" x="316" y="236.93"/>
  <rect fill="#FFFFFF" height="4" opacity="0.4" rx="3" width="238" x="316" y="256.93"/>
  <text dominant-baseline="middle" fill="#111111" font-family="DejaVu Sans, Courier New, Courier, monospace" font-size="13.33" font-weight="600" text-anchor="start" x="320" y="248.93">Monitoring Stack</text>
  <rect fill="#2563EB" height="24" opacity="1" rx="3" stroke="#1D4ED8" stroke-width="0.5" width="419" x="395" y="266.93"/>
  <rect fill="#FFFFFF" height="4" opacity="0.4" rx="3" width="314" x="395" y="286.93"/>
  <text dominant-baseline="middle" fill="#FFFFFF" font-family="DejaVu Sans, Courier New, Courier, monospace" font-size="13.33" font-weight="600" text-anchor="start" x="399" y="278.93">CI/CD Overhaul</text>
  <rect fill="#D97706" height="24" opacity="1" rx="3" stroke="#B45309" stroke-width="0.5" width="249" x="650" y="236.93"/>
  <rect fill="#FFFFFF" height="4" opacity="0.4" rx="3" width="50" x="650" y="256.93"/>
  <text dominant-baseline="middle" fill="#111111" font-family="DejaVu Sans, Courier New, Courier, monospace" font-size="13.33" font-weight="600" text-anchor="start" x="654" y="248.93">DB Migration</text>
  <rect fill="#6B7280" height="24" opacity="0.85" rx="3" stroke="#4B5563" stroke-width="0.5" width="340" x="820" y="266.93"/>
  <text dominant-baseline="middle" fill="#FFFFFF" font-family="DejaVu Sans, Courier New, Courier, monospace" font-size="13.33" font-weight="600" text-anchor="start" x="824" y="278.93">DR Runbooks</text>
  <rect fill="#16A34A" height="24" opacity="1" rx="3" stroke="#15803D" stroke-width="0.5" width="306" x="163" y="356.93"/>
  <rect fill="#FFFFFF" height="4" opacity="0.4" rx="3" width="306" x="163" y="376.93"/>
  <text dominant-baseline="middle" fill="#111111" font-family="DejaVu Sans, Courier New, Courier, monospace" font-size="13.33" font-weight="600" text-anchor="start" x="167" y="368.93">User Service</text>
  <rect fill="#16A34A" height="24" opacity="1" rx="3" stroke="#15803D" stroke-width="0.5" width="328" x="316" y="386.93"/>
  <rect fill="#FFFFFF" height="4" opacity="0.4" rx="3" width="328" x="316" y="406.93"/>
  <text dominant-baseline="middle" fill="#111111" font-family="DejaVu Sans, Courier New, Courier, monospace" font-size="13.33" font-weight="600" text-anchor="start" x="320" y="398.93">Billing Service</text>
  <rect fill="#2563EB" height="24" opacity="1" rx="3" stroke="#1D4ED8" stroke-width="0.5" width="340" x="474" y="356.93"/>
  <rect fill="#FFFFFF" height="4" opacity="0.4" rx="3" width="204" x="474" y="376.93"/>
  <text dominant-baseline="middle" fill="#FFFFFF" font-family="DejaVu Sans, Courier New, Courier, monospace" font-size="13.33" font-weight="600" text-anchor="start" x="478" y="368.93">Inventory API</text>
  <rect fill="#2563EB" height="24" opacity="1" rx="3" stroke="#1D4ED8" stroke-width="0.5" width="340" x="650" y="386.93"/>
  <rect fill="#FFFFFF" height="4" opacity="0.4" rx="3" width="102" x="650" y="406.93"/>
  <text dominant-baseline="middle" fill="#FFFFFF" font-family="DejaVu Sans, Courier New, Courier, monospace" font-size="13.33" font-weight="600" text-anchor="start" x="654" y="398.93">Notifications</text>
  <rect fill="#6B7280" height="24" opacity="0.85" rx="3" stroke="#4B5563" stroke-width="0.5" width="340" x="820" y="356.93"/>
  <text dominant-baseline="middle" fill="#FFFFFF" font-family="DejaVu Sans, Courier New, Courier, monospace" font-size="13.33" font-weight="600" text-anchor="start" x="824" y="368.93">Reporting API</text>
  <rect fill="#16A34A" height="24" opacity="1" rx="3" stroke="#15803D" stroke-width="0.5" width="278" x="191" y="476.93"/>
  <rect fill="#FFFFFF" height="4" opacity="0.4" rx="3" width="278" x="191" y="496.93"/>
  <text dominant-baseline="middle" fill="#111111" font-family="DejaVu Sans, Courier New, Courier, monospace" font-size="13.33" font-weight="600" text-anchor="start" x="195" y="488.93">Component Library</text>
  <rect fill="#16A34A" height="24" opacity="1" rx="3" stroke="#15803D" stroke-width="0.5" width="238" x="316" y="506.93"/>
  <rect fill="#FFFFFF" height="4" opacity="0.4" rx="3" width="238" x="316" y="526.93"/>
  <text dominant-baseline="middle" fill="#111111" font-family="DejaVu Sans, Courier New, Courier, monospace" font-size="13.33" font-weight="600" text-anchor="start" x="320" y="518.93">Routing v2</text>
  <rect fill="#2563EB" height="24" opacity="1" rx="3" stroke="#1D4ED8" stroke-width="0.5" width="340" x="474" y="476.93"/>
  <rect fill="#FFFFFF" height="4" opacity="0.4" rx="3" width="170" x="474" y="496.93"/>
  <text dominant-baseline="middle" fill="#FFFFFF" font-family="DejaVu Sans, Courier New, Courier, monospace" font-size="13.33" font-weight="600" text-anchor="start" x="478" y="488.93">Dashboard UI</text>
  <rect fill="#2563EB" height="24" opacity="1" rx="3" stroke="#1D4ED8" stroke-width="0.5" width="340" x="650" y="506.93"/>
  <rect fill="#FFFFFF" height="4" opacity="0.4" rx="3" width="85" x="650" y="526.93"/>
  <text dominant-baseline="middle" fill="#FFFFFF" font-family="DejaVu Sans, Courier New, Courier, monospace" font-size="13.33" font-weight="600" text-anchor="start" x="654" y="518.93">Accessibility</text>
  <rect fill="#6B7280" height="24" opacity="0.85" rx="3" stroke="#4B5563" stroke-width="0.5" width="261" x="899" y="476.93"/>
  <text dominant-baseline="middle" fill="#FFFFFF" font-family="DejaVu Sans, Courier New, Courier, monospace" font-size="13.33" font-weight="600" text-anchor="start" x="903" y="488.93">Perf Audit</text>
  <line opacity="0.45" stroke="#555555" stroke-width="0.75" x1="644" x2="644" y1="411.93" y2="419.93"/>
  <path d="M 630 383.93 L 658 383.93 L 644 411.93 Z" fill="#6B7280" stroke="#FFFFFF" stroke-width="1.5"/>
  <text dominant-baseline="alphabetic" fill="#111111" font-family="DejaVu Sans, Courier New, Courier, monospace" font-size="13.33" font-weight="600" text-anchor="middle" x="644" y="434.66">Infra Stable</text>
  <text dominant-baseline="alphabetic" fill="#555555" font-family="DejaVu Sans, Courier New, Courier, monospace" font-size="12" font-weight="400" text-anchor="middle" x="644" y="451.46">March 2026</text>
  <line opacity="0.45" stroke="#555555" stroke-width="0.75" x1="814" x2="814" y1="218.93" y2="383.93"/>
  <path d="M 800 383.93 L 828 383.93 L 814 411.93 Z" fill="#6B7280" stroke="#FFFFFF" stroke-width="1.5"/>
  <text dominant-baseline="alphabetic" fill="#111111" font-family="DejaVu Sans, Courier New, Courier, monospace" font-size="13.33" font-weight="600" text-anchor="middle" x="814" y="196.73">APIs Complete</text>
  <text dominant-baseline="alphabetic" fill="#555555" font-family="DejaVu Sans, Courier New, Courier, monospace" font-size="12" font-weight="400" text-anchor="middle" x="814" y="213.53">April 2026</text>
  <line opacity="0.45" stroke="#555555" stroke-width="0.75" x1="990" x2="990" y1="411.93" y2="419.93"/>
  <path d="M 976 383.93 L 1004 383.93 L 990 411.93 Z" fill="#6B7280" stroke="#FFFFFF" stroke-width="1.5"/>
  <text dominant-baseline="alphabetic" fill="#111111" font-family="DejaVu Sans, Courier New, Courier, monospace" font-size="13.33" font-weight="600" text-anchor="middle" x="990" y="434.66">UI Beta</text>
  <text dominant-baseline="alphabetic" fill="#555555" font-family="DejaVu Sans, Courier New, Courier, monospace" font-size="12" font-weight="400" text-anchor="middle" x="990" y="451.46">May 2026</text>
  <line opacity="0.45" stroke="#555555" stroke-width="0.75" x1="1160" x2="1160" y1="162" y2="172"/>
  <line opacity="0.25" stroke="#555555" stroke-dasharray="2,3" stroke-width="0.75" x1="1160" x2="1146" y1="168" y2="168"/>
  <line opacity="0.45" stroke="#555555" stroke-width="0.75" x1="1146" x2="1146" y1="218.93" y2="383.93"/>
  <path d="M 1132 383.93 L 1160 383.93 L 1146 411.93 Z" fill="#6B7280" stroke="#FFFFFF" stroke-width="1.5"/>
  <text dominant-baseline="alphabetic" fill="#111111" font-family="DejaVu Sans, Courier New, Courier, monospace" font-size="13.33" font-weight="600" text-anchor="middle" x="1146" y="196.73">H1 Release</text>
  <text dominant-baseline="alphabetic" fill="#555555" font-family="DejaVu Sans, Courier New, Courier, monospace" font-size="12" font-weight="400" text-anchor="middle" x="1146" y="213.53">June 2026</text>
  <rect fill="#FFFFFF" height="140.67" opacity="0.95" rx="4" stroke="#D1D5DB" stroke-width="1" width="160" x="984" y="414.26"/>
  <text dominant-baseline="alphabetic" fill="#111111" font-family="DejaVu Sans, Courier New, Courier, monospace" font-size="13.33" font-weight="700" text-anchor="start" x="994" y="437.6">Legend</text>
  <rect fill="#16A34A" height="12" rx="2" width="12" x="994" y="450.13"/>
  <text dominant-baseline="middle" fill="#374151" font-family="DejaVu Sans, Courier New, Courier, monospace" font-size="12" font-weight="400" text-anchor="start" x="1014" y="456.13">done</text>
  <rect fill="#2563EB" height="12" rx="2" width="12" x="994" y="470.53"/>
  <text dominant-baseline="middle" fill="#374151" font-family="DejaVu Sans, Courier New, Courier, monospace" font-size="12" font-weight="400" text-anchor="start" x="1014" y="476.53">in-progress</text>
  <rect fill="#D97706" height="12" rx="2" width="12" x="994" y="490.93"/>
  <text dominant-baseline="middle" fill="#374151" font-family="DejaVu Sans, Courier New, Courier, monospace" font-size="12" font-weight="400" text-anchor="start" x="1014" y="496.93">at-risk</text>
  <rect fill="#6B7280" height="12" rx="2" width="12" x="994" y="511.33"/>
  <text dominant-baseline="middle" fill="#374151" font-family="DejaVu Sans, Courier New, Courier, monospace" font-size="12" font-weight="400" text-anchor="start" x="1014" y="517.33">planned</text>
  <rect fill="#6B7280" height="12" rx="2" width="12" x="994" y="531.73"/>
  <text dominant-baseline="middle" fill="#374151" font-family="DejaVu Sans, Courier New, Courier, monospace" font-size="12" font-weight="400" text-anchor="start" x="1014" y="537.73">standard-node</text>
</svg>