<?xml version="1.0" encoding="UTF-8"?>
<svg height="456" version="1.1" viewBox="0 0 1200 456" width="1200" xmlns="http://www.w3.org/2000/svg">
  <rect fill="#FFFFFF" height="456" width="1200" x="0" y="0"/>
  <text dominant-baseline="middle" fill="#111111" font-family="DejaVu Sans, Courier New, Courier, monospace" font-size="26.67" font-weight="700" text-anchor="middle" x="600" y="37.33">H1 2026 — Dense Engineering Roadmap</text>
  <line stroke="#374151" stroke-width="1" x1="140" x2="1160" y1="80" y2="80"/>
  <line stroke="#374151" stroke-width="1" x1="140" x2="140" y1="74" y2="80"/>
  <line opacity="0.7" stroke="#E5E7EB" stroke-width="1" x1="140" x2="140" y1="80" y2="408"/>
  <text dominant-baseline="alphabetic" fill="#374151" font-family="DejaVu Sans, Courier New, Courier, monospace" font-size="13.33" font-weight="400" text-anchor="middle" x="140" y="66">2026</text>
  <line stroke="#374151" stroke-width="1" x1="316" x2="316" y1="74" y2="80"/>
  <line opacity="0.7" stroke="#E5E7EB" stroke-width="1" x1="316" x2="316" y1="80" y2="408"/>
  <text dominant-baseline="alphabetic" fill="#374151" font-family="DejaVu Sans, Courier New, Courier, monospace" font-size="13.33" font-weight="400" text-anchor="middle" x="316" y="66">Feb</text>
  <line stroke="#374151" stroke-width="1" x1="474" x2="474" y1="74" y2="80"/>
  <line opacity="0.7" stroke="#E5E7EB" stroke-width="1" x1="474" x2="474" y1="80" y2="408"/>
  <text dominant-baseline="alphabetic" fill="#374151" font-family="DejaVu Sans, Courier New, Courier, monospace" font-size="13.33" font-weight="400" text-anchor="middle" x="474" y="66">Mar</text>
  <line stroke="#374151" stroke-width="1" x1="650" x2="650" y1="74" y2="80"/>
  <line opacity="0.7" stroke="#E5E7EB" stroke-width="1" x1="650" x2="650" y1="80" y2="408"/>
  <text dominant-baseline="alphabetic" fill="#374151" font-family="DejaVu Sans, Courier New, Courier, monospace" font-size="13.33" font-weight="400" text-anchor="middle" x="650" y="66">Apr</text>
  <line stroke="#374151" stroke-width="1" x1="820" x2="820" y1="74" y2="80"/>
  <line opacity="0.7" stroke="#E5E7EB" stroke-width="1" x1="820" x2="820" y1="80" y2="408"/>
  <text dominant-baseline="alphabetic" fill="#374151" font-family="DejaVu Sans, Courier New, Courier, monospace" font-size="13.33" font-weight="400" text-anchor="middle" x="820" y="66">May</text>
  <line stroke="#374151" stroke-width="1" x1="996" x2="996" y1="74" y2="80"/>
  <line opacity="0.7" stroke="#E5E7EB" stroke-width="1" x1="996" x2="996" y1="80" y2="408"/>
  <text dominant-baseline="alphabetic" fill="#374151" font-family="DejaVu Sans, Courier New, Courier, monospace" font-size="13.33" font-weight="400" text-anchor="middle" x="996" y="66">Jun</text>
  <line opacity="0.3" stroke="#D1D5DB" stroke-width="1" x1="140" x2="1160" y1="180" y2="180"/>
  <text dominant-baseline="middle" fill="#111111" font-family="DejaVu Sans, Courier New, Courier, monospace" font-size="14.67" font-weight="700" text-anchor="start" x="8" y="130">Infrastructure</text>
  <line opacity="0.3" stroke="#D1D5DB" stroke-width="1" x1="140" x2="1160" y1="294" y2="294"/>
  <text dominant-baseline="middle" fill="#111111" font-family="DejaVu Sans, Courier New, Courier, monospace" font-size="14.67" font-weight="700" text-anchor="start" x="8" y="244">Backend</text>
  <line opacity="0.3" stroke="#D1D5DB" stroke-width="1" x1="140" x2="1160" y1="408" y2="408"/>
  <text dominant-baseline="middle" fill="#111111" font-family="DejaVu Sans, Courier New, Courier, monospace" font-size="14.67" font-weight="700" text-anchor="start" x="8" y="358">Frontend</text>
  <rect fill="#16A34A" height="24" opacity="1" rx="3" stroke="#15803D" stroke-width="0.5" width="159" x="151" y="92"/>
  <rect fill="#FFFFFF" height="4" opacity="0.4" rx="3" width="159" x="151" y="112"/>
  <text dominant-baseline="middle" fill="#FFFFFF" font-family="DejaVu Sans, Courier New, Courier, monospace" font-size="13.33" font-weight="600" text-anchor="middle" x="230.5" y="104">K8s Upgrade</text>
  <rect fill="#16A34A" height="24" opacity="1" rx="3" stroke="#15803D" stroke-width="0.5" width="238" x="316" y="92"/>
  <rect fill="#FFFFFF" height="4" opacity="0.4" rx="3" width="238" x="316" y="112"/>
  <text dominant-baseline="middle" fill="#FFFFFF" font-family="DejaVu Sans, Courier New, Courier, monospace" font-size="13.33" font-weight="600" text-anchor="middle" x="435" y="104">Monitoring Stack</text>
  <rect fill="#2563EB" height="24" opacity="1" rx="3" stroke="#1D4ED8" stroke-width="0.5" width="419" x="395" y="116"/>
  <rect fill="#FFFFFF" height="4" opacity="0.4" rx="3" width="314" x="395" y="136"/>
  <text dominant-baseline="middle" fill="#FFFFFF" font-family="DejaVu Sans, Courier New, Courier, monospace" font-size="13.33" font-weight="600" text-anchor="middle" x="604.5" y="128">CI/CD Overhaul</text>
  <rect fill="#D97706" height="24" opacity="1" rx="3" stroke="#B45309" stroke-width="0.5" width="249" x="650" y="92"/>
  <rect fill="#FFFFFF" height="4" opacity="0.4" rx="3" width="50" x="650" y="112"/>
  <text dominant-baseline="middle" fill="#FFFFFF" font-family="DejaVu Sans, Courier New, Courier, monospace" font-size="13.33" font-weight="600" text-anchor="middle" x="774.5" y="104">DB Migration</text>
  <rect fill="#6B7280" height="24" opacity="0.85" rx="3" stroke="#4B5563" stroke-width="0.5" width="340" x="820" y="116"/>
  <text dominant-baseline="middle" fill="#FFFFFF" font-family="DejaVu Sans, Courier New, Courier, monospace" font-size="13.33" font-weight="600" text-anchor="middle" x="990" y="128">DR Runbooks</text>
  <rect fill="#16A34A" height="24" opacity="1" rx="3" stroke="#15803D" stroke-width="0.5" width="306" x="163" y="206"/>
  <rect fill="#FFFFFF" height="4" opacity="0.4" rx="3" width="306" x="163" y="226"/>
  <text dominant-baseline="middle" fill="#FFFFFF" font-family="DejaVu Sans, Courier New, Courier, monospace" font-size="13.33" font-weight="600" text-anchor="middle" x="316" y="218">User Service</text>
  <rect fill="#16A34A" height="24" opacity="1" rx="3" stroke="#15803D" stroke-width="0.5" width="328" x="316" y="230"/>
  <rect fill="#FFFFFF" height="4" opacity="0.4" rx="3" width="328" x="316" y="250"/>
  <text dominant-baseline="middle" fill="#FFFFFF" font-family="DejaVu Sans, Courier New, Courier, monospace" font-size="13.33" font-weight="600" text-anchor="middle" x="480" y="242">Billing Service</text>
  <rect fill="#2563EB" height="24" opacity="1" rx="3" stroke="#1D4ED8" stroke-width="0.5" width="340" x="474" y="206"/>
  <rect fill="#FFFFFF" height="4" opacity="0.4" rx="3" width="204" x="474" y="226"/>
  <text dominant-baseline="middle" fill="#FFFFFF" font-family="DejaVu Sans, Courier New, Courier, monospace" font-size="13.33" font-weight="600" text-anchor="middle" x="644" y="218">Inventory API</text>
  <rect fill="#2563EB" height="24" opacity="1" rx="3" stroke="#1D4ED8" stroke-width="0.5" width="340" x="650" y="230"/>
  <rect fill="#FFFFFF" height="4" opacity="0.4" rx="3" width="102" x="650" y="250"/>
  <text dominant-baseline="middle" fill="#FFFFFF" font-family="DejaVu Sans, Courier New, Courier, monospace" font-size="13.33" font-weight="600" text-anchor="middle" x="820" y="242">Notifications</text>
  <rect fill="#6B7280" height="24" opacity="0.85" rx="3" stroke="#4B5563" stroke-width="0.5" width="340" x="820" y="206"/>
  <text dominant-baseline="middle" fill="#FFFFFF" font-family="DejaVu Sans, Courier New, Courier, monospace" font-size="13.33" font-weight="600" text-anchor="middle" x="990" y="218">Reporting API</text>
  <rect fill="#16A34A" height="24" opacity="1" rx="3" stroke="#15803D" stroke-width="0.5" width="278" x="191" y="320"/>
  <rect fill="#FFFFFF" height="4" opacity="0.4" rx="3" width="278" x="191" y="340"/>
  <text dominant-baseline="middle" fill="#FFFFFF" font-family="DejaVu Sans, Courier New, Courier, monospace" font-size="13.33" font-weight="600" text-anchor="middle" x="330" y="332">Component Library</text>
  <rect fill="#16A34A" height="24" opacity="1" rx="3" stroke="#15803D" stroke-width="0.5" width="238" x="316" y="344"/>
  <rect fill="#FFFFFF" height="4" opacity="0.4" rx="3" width="238" x="316" y="364"/>
  <text dominant-baseline="middle" fill="#FFFFFF" font-family="DejaVu Sans, Courier New, Courier, monospace" font-size="13.33" font-weight="600" text-anchor="middle" x="435" y="356">Routing v2</text>
  <rect fill="#2563EB" height="24" opacity="1" rx="3" stroke="#1D4ED8" stroke-width="0.5" width="340" x="474" y="320"/>
  <rect fill="#FFFFFF" height="4" opacity="0.4" rx="3" width="170" x="474" y="340"/>
  <text dominant-baseline="middle" fill="#FFFFFF" font-family="DejaVu Sans, Courier New, Courier, monospace" font-size="13.33" font-weight="600" text-anchor="middle" x="644" y="332">Dashboard UI</text>
  <rect fill="#2563EB" height="24" opacity="1" rx="3" stroke="#1D4ED8" stroke-width="0.5" width="340" x="650" y="344"/>
  <rect fill="#FFFFFF" height="4" opacity="0.4" rx="3" width="85" x="650" y="364"/>
  <text dominant-baseline="middle" fill="#FFFFFF" font-family="DejaVu Sans, Courier New, Courier, monospace" font-size="13.33" font-weight="600" text-anchor="middle" x="820" y="356">Accessibility</text>
  <rect fill="#6B7280" height="24" opacity="0.85" rx="3" stroke="#4B5563" stroke-width="0.5" width="261" x="899" y="320"/>
  <text dominant-baseline="middle" fill="#FFFFFF" font-family="DejaVu Sans, Courier New, Courier, monospace" font-size="13.33" font-weight="600" text-anchor="middle" x="1029.5" y="332">Perf Audit</text>
  <path d="M 630 230 L 658 230 L 644 258 Z" fill="#6B7280" stroke="#FFFFFF" stroke-width="1.5"/>
  <text dominant-baseline="alphabetic" fill="#555555" font-family="DejaVu Sans, Courier New, Courier, monospace" font-size="12" font-weight="400" text-anchor="middle" x="644" y="222.24">31st March 2026</text>
  <text dominant-baseline="alphabetic" fill="#111111" font-family="DejaVu Sans, Courier New, Courier, monospace" font-size="13.33" font-weight="600" text-anchor="middle" x="643.99" y="279.33">Infra Stable</text>
  <path d="M 800 230 L 828 230 L 814 258 Z" fill="#6B7280" stroke="#FFFFFF" stroke-width="1.5"/>
  <text dominant-baseline="alphabetic" fill="#555555" font-family="DejaVu Sans, Courier New, Courier, monospace" font-size="12" font-weight="400" text-anchor="middle" x="814.01" y="222.24">30th April 2026</text>
  <text dominant-baseline="alphabetic" fill="#111111" font-family="DejaVu Sans, Courier New, Courier, monospace" font-size="13.33" font-weight="600" text-anchor="middle" x="814" y="279.33">APIs Complete</text>
  <path d="M 976 230 L 1004 230 L 990 258 Z" fill="#6B7280" stroke="#FFFFFF" stroke-width="1.5"/>
  <text dominant-baseline="alphabetic" fill="#555555" font-family="DejaVu Sans, Courier New, Courier, monospace" font-size="12" font-weight="400" text-anchor="middle" x="990" y="222.24">31st May 2026</text>
  <text dominant-baseline="alphabetic" fill="#111111" font-family="DejaVu Sans, Courier New, Courier, monospace" font-size="13.33" font-weight="600" text-anchor="middle" x="990.01" y="279.33">UI Beta</text>
  <path d="M 1146 230 L 1174 230 L 1160 258 Z" fill="#6B7280" stroke="#FFFFFF" stroke-width="1.5"/>
  <text dominant-baseline="alphabetic" fill="#555555" font-family="DejaVu Sans, Courier New, Courier, monospace" font-size="12" font-weight="400" text-anchor="middle" x="1160" y="222.24">30th June 2026</text>
  <text dominant-baseline="alphabetic" fill="#111111" font-family="DejaVu Sans, Courier New, Courier, monospace" font-size="13.33" font-weight="600" text-anchor="middle" x="1159.99" y="279.33">H1 Release</text>
  <rect fill="#FFFFFF" height="140.67" opacity="0.95" rx="4" stroke="#D1D5DB" stroke-width="1" width="160" x="984" y="251.33"/>
  <text dominant-baseline="alphabetic" fill="#111111" font-family="DejaVu Sans, Courier New, Courier, monospace" font-size="13.33" font-weight="700" text-anchor="start" x="994" y="274.67">Legend</text>
  <rect fill="#16A34A" height="12" rx="2" width="12" x="994" y="287.2"/>
  <text dominant-baseline="middle" fill="#374151" font-family="DejaVu Sans, Courier New, Courier, monospace" font-size="12" font-weight="400" text-anchor="start" x="1014" y="293.2">done</text>
  <rect fill="#2563EB" height="12" rx="2" width="12" x="994" y="307.6"/>
  <text dominant-baseline="middle" fill="#374151" font-family="DejaVu Sans, Courier New, Courier, monospace" font-size="12" font-weight="400" text-anchor="start" x="1014" y="313.6">in-progress</text>
  <rect fill="#D97706" height="12" rx="2" width="12" x="994" y="328"/>
  <text dominant-baseline="middle" fill="#374151" font-family="DejaVu Sans, Courier New, Courier, monospace" font-size="12" font-weight="400" text-anchor="start" x="1014" y="334">at-risk</text>
  <rect fill="#6B7280" height="12" rx="2" width="12" x="994" y="348.4"/>
  <text dominant-baseline="middle" fill="#374151" font-family="DejaVu Sans, Courier New, Courier, monospace" font-size="12" font-weight="400" text-anchor="start" x="1014" y="354.4">planned</text>
  <rect fill="#6B7280" height="12" rx="2" width="12" x="994" y="368.8"/>
  <text dominant-baseline="middle" fill="#374151" font-family="DejaVu Sans, Courier New, Courier, monospace" font-size="12" font-weight="400" text-anchor="start" x="1014" y="374.8">standard-node</text>
</svg>