<?xml version="1.0" encoding="UTF-8"?>
<svg height="888.13" version="1.1" viewBox="0 0 1200 888.13" width="1200" xmlns="http://www.w3.org/2000/svg">
  <rect fill="#FFFFFF" height="888.13" width="1200" x="0" y="0"/>
  <rect fill="#2563EB" height="436" opacity="0.04" width="249" x="140" y="267.86"/>
  <text dominant-baseline="alphabetic" fill="#374151" font-family="DejaVu Sans, Courier New, Courier, monospace" font-size="12" font-weight="700" opacity="0.65" text-anchor="start" x="144" y="283.86">Foundation Phase</text>
  <text dominant-baseline="alphabetic" fill="#374151" font-family="DejaVu Sans, Courier New, Courier, monospace" font-size="12" font-weight="700" opacity="0.65" text-anchor="start" x="396" y="283.86">Build Phase</text>
  <rect fill="#2563EB" height="436" opacity="0.04" width="513" x="647" y="267.86"/>
  <text dominant-baseline="alphabetic" fill="#374151" font-family="DejaVu Sans, Courier New, Courier, monospace" font-size="12" font-weight="700" opacity="0.65" text-anchor="start" x="651" y="283.86">Scale Phase</text>
  <text dominant-baseline="alphabetic" fill="#111111" font-family="DejaVu Sans, Courier New, Courier, monospace" font-size="26.67" font-weight="700" text-anchor="middle" x="600" y="86.67">Enterprise Transformation Programme</text>
  <text dominant-baseline="alphabetic" fill="#111111" font-family="DejaVu Sans, Courier New, Courier, monospace" font-size="17.33" font-weight="400" opacity="0.75" text-anchor="middle" x="600" y="118.33">2026 Execution Roadmap</text>
  <line opacity="0.35" stroke="#374151" stroke-width="0.5" x1="140" x2="1160" y1="130" y2="130"/>
  <line stroke="#374151" stroke-width="1" x1="140" x2="1160" y1="168" y2="168"/>
  <line stroke="#374151" stroke-width="1" x1="140" x2="140" y1="162" y2="168"/>
  <line opacity="0.7" stroke="#E5E7EB" stroke-width="1" x1="140" x2="140" y1="168" y2="703.86"/>
  <text dominant-baseline="alphabetic" fill="#374151" font-family="DejaVu Sans, Courier New, Courier, monospace" font-size="13.33" font-weight="400" text-anchor="middle" x="140" y="154">Q1 2026</text>
  <line stroke="#374151" stroke-width="1" x1="392" x2="392" y1="162" y2="168"/>
  <line opacity="0.7" stroke="#E5E7EB" stroke-width="1" x1="392" x2="392" y1="168" y2="703.86"/>
  <text dominant-baseline="alphabetic" fill="#374151" font-family="DejaVu Sans, Courier New, Courier, monospace" font-size="13.33" font-weight="400" text-anchor="middle" x="392" y="154">Q2</text>
  <line stroke="#374151" stroke-width="1" x1="647" x2="647" y1="162" y2="168"/>
  <line opacity="0.7" stroke="#E5E7EB" stroke-width="1" x1="647" x2="647" y1="168" y2="703.86"/>
  <text dominant-baseline="alphabetic" fill="#374151" font-family="DejaVu Sans, Courier New, Courier, monospace" font-size="13.33" font-weight="400" text-anchor="middle" x="647" y="154">Q3</text>
  <line stroke="#374151" stroke-width="1" x1="905" x2="905" y1="162" y2="168"/>
  <line opacity="0.7" stroke="#E5E7EB" stroke-width="1" x1="905" x2="905" y1="168" y2="703.86"/>
  <text dominant-baseline="alphabetic" fill="#374151" font-family="DejaVu Sans, Courier New, Courier, monospace" font-size="13.33" font-weight="400" text-anchor="middle" x="905" y="154">Q4</text>
  <line opacity="0.85" stroke="#2563EB" stroke-width="1.5" x1="588" x2="588" y1="267.86" y2="703.86"/>
  <text dominant-baseline="alphabetic" fill="#2563EB" font-family="DejaVu Sans, Courier New, Courier, monospace" font-size="12" font-weight="600" opacity="0.9" text-anchor="start" x="591" y="283.86">Today</text>
  <line opacity="0.7" stroke="#2563EB" stroke-width="1.5" x1="140" x2="644" y1="715.86" y2="715.86"/>
  <line opacity="0.7" stroke="#2563EB" stroke-width="1.5" x1="140" x2="140" y1="711.86" y2="719.86"/>
  <line opacity="0.7" stroke="#2563EB" stroke-width="1.5" x1="644" x2="644" y1="711.86" y2="719.86"/>
  <text dominant-baseline="alphabetic" fill="#2563EB" font-family="DejaVu Sans, Courier New, Courier, monospace" font-size="12" font-weight="400" opacity="0.75" text-anchor="middle" x="392" y="731.86">H1 Focus</text>
  <line opacity="0.3" stroke="#D1D5DB" stroke-width="1" x1="140" x2="1160" y1="343.86" y2="343.86"/>
  <text dominant-baseline="middle" fill="#111111" font-family="DejaVu Sans, Courier New, Courier, monospace" font-size="14.67" font-weight="700" text-anchor="start" x="8" y="305.86">Strategy</text>
  <line opacity="0.3" stroke="#D1D5DB" stroke-width="1" x1="140" x2="1160" y1="493.86" y2="493.86"/>
  <text dominant-baseline="middle" fill="#111111" font-family="DejaVu Sans, Courier New, Courier, monospace" font-size="14.67" font-weight="700" text-anchor="start" x="8" y="425.86">Technology</text>
  <line opacity="0.3" stroke="#D1D5DB" stroke-width="1" x1="140" x2="1160" y1="613.86" y2="613.86"/>
  <text dominant-baseline="middle" fill="#111111" font-family="DejaVu Sans, Courier New, Courier, monospace" font-size="14.67" font-weight="700" text-anchor="start" x="8" y="560.86">People &amp; Change</text>
  <line opacity="0.3" stroke="#D1D5DB" stroke-width="1" x1="140" x2="1160" y1="703.86" y2="703.86"/>
  <text dominant-baseline="middle" fill="#111111" font-family="DejaVu Sans, Courier New, Courier, monospace" font-size="14.67" font-weight="700" text-anchor="start" x="8" y="665.86">Operations</text>
  <rect fill="#16A34A" height="24" opacity="1" rx="3" stroke="#15803D" stroke-width="0.5" width="138" x="165" y="279.86"/>
  <rect fill="#FFFFFF" height="4" opacity="0.4" rx="3" width="138" x="165" y="299.86"/>
  <text dominant-baseline="middle" fill="#111111" font-family="DejaVu Sans, Courier New, Courier, monospace" font-size="13.33" font-weight="600" text-anchor="start" x="169" y="291.86">Vision &amp; Alignment …</text>
  <rect fill="#2563EB" height="24" opacity="1" rx="3" stroke="#1D4ED8" stroke-width="0.5" width="339" x="305" y="279.86"/>
  <rect fill="#FFFFFF" height="4" opacity="0.4" rx="3" width="203" x="305" y="299.86"/>
  <text dominant-baseline="middle" fill="#FFFFFF" font-family="DejaVu Sans, Courier New, Courier, monospace" font-size="13.33" font-weight="600" text-anchor="start" x="309" y="291.86">Operating Model Design</text>
  <rect fill="#6B7280" height="24" opacity="0.85" rx="3" stroke="#4B5563" stroke-width="0.5" width="255" x="647" y="279.86"/>
  <text dominant-baseline="middle" fill="#FFFFFF" font-family="DejaVu Sans, Courier New, Courier, monospace" font-size="13.33" font-weight="600" text-anchor="start" x="651" y="291.86">Market Analysis</text>
  <rect fill="#6B7280" height="24" opacity="0.85" rx="3" stroke="#4B5563" stroke-width="0.5" width="255" x="905" y="279.86"/>
  <text dominant-baseline="middle" fill="#FFFFFF" font-family="DejaVu Sans, Courier New, Courier, monospace" font-size="13.33" font-weight="600" text-anchor="start" x="909" y="291.86">Go-to-Market Strategy</text>
  <rect fill="#16A34A" height="24" opacity="1" rx="3" stroke="#15803D" stroke-width="0.5" width="381" x="179" y="369.86"/>
  <rect fill="#FFFFFF" height="4" opacity="0.4" rx="3" width="381" x="179" y="389.86"/>
  <text dominant-baseline="middle" fill="#111111" font-family="DejaVu Sans, Courier New, Courier, monospace" font-size="13.33" font-weight="600" text-anchor="start" x="183" y="381.86">Cloud Migration</text>
  <rect fill="#D97706" height="24" opacity="1" rx="3" stroke="#B45309" stroke-width="0.5" width="168" x="305" y="399.86"/>
  <rect fill="#FFFFFF" height="4" opacity="0.4" rx="3" width="50" x="305" y="419.86"/>
  <text dominant-baseline="middle" fill="#111111" font-family="DejaVu Sans, Courier New, Courier, monospace" font-size="13.33" font-weight="600" text-anchor="start" x="309" y="411.86">Security Hardening</text>
  <rect fill="#2563EB" height="24" opacity="1" rx="3" stroke="#1D4ED8" stroke-width="0.5" width="339" x="392" y="429.86"/>
  <rect fill="#FFFFFF" height="4" opacity="0.4" rx="3" width="153" x="392" y="449.86"/>
  <text dominant-baseline="middle" fill="#FFFFFF" font-family="DejaVu Sans, Courier New, Courier, monospace" font-size="13.33" font-weight="600" text-anchor="start" x="396" y="441.86">API Modernization</text>
  <rect fill="#6B7280" height="24" opacity="0.85" rx="3" stroke="#4B5563" stroke-width="0.5" width="426" x="734" y="369.86"/>
  <text dominant-baseline="middle" fill="#FFFFFF" font-family="DejaVu Sans, Courier New, Courier, monospace" font-size="13.33" font-weight="600" text-anchor="start" x="738" y="381.86">Data Platform v2</text>
  <rect fill="#2563EB" height="24" opacity="1" rx="3" stroke="#1D4ED8" stroke-width="0.5" width="591" x="227" y="519.86"/>
  <rect fill="#FFFFFF" height="4" opacity="0.4" rx="3" width="296" x="227" y="539.86"/>
  <text dominant-baseline="middle" fill="#FFFFFF" font-family="DejaVu Sans, Courier New, Courier, monospace" font-size="13.33" font-weight="600" text-anchor="start" x="231" y="531.86">Change Management Programme</text>
  <rect fill="#6B7280" height="24" opacity="0.85" rx="3" stroke="#4B5563" stroke-width="0.5" width="339" x="563" y="549.86"/>
  <text dominant-baseline="middle" fill="#FFFFFF" font-family="DejaVu Sans, Courier New, Courier, monospace" font-size="13.33" font-weight="600" text-anchor="start" x="567" y="561.86">Training Rollout</text>
  <rect fill="#6B7280" height="24" opacity="0.85" rx="3" stroke="#4B5563" stroke-width="0.5" width="339" x="821" y="519.86"/>
  <text dominant-baseline="middle" fill="#FFFFFF" font-family="DejaVu Sans, Courier New, Courier, monospace" font-size="13.33" font-weight="600" text-anchor="start" x="825" y="531.86">Leadership Development</text>
  <rect fill="#16A34A" height="24" opacity="1" rx="3" stroke="#15803D" stroke-width="0.5" width="196" x="193" y="639.86"/>
  <rect fill="#FFFFFF" height="4" opacity="0.4" rx="3" width="196" x="193" y="659.86"/>
  <text dominant-baseline="middle" fill="#111111" font-family="DejaVu Sans, Courier New, Courier, monospace" font-size="13.33" font-weight="600" text-anchor="start" x="197" y="651.86">Process Mapping</text>
  <rect fill="#2563EB" height="24" opacity="1" rx="3" stroke="#1D4ED8" stroke-width="0.5" width="339" x="392" y="639.86"/>
  <rect fill="#FFFFFF" height="4" opacity="0.4" rx="3" width="119" x="392" y="659.86"/>
  <text dominant-baseline="middle" fill="#FFFFFF" font-family="DejaVu Sans, Courier New, Courier, monospace" font-size="13.33" font-weight="600" text-anchor="start" x="396" y="651.86">Automation Wave 1</text>
  <rect fill="#6B7280" height="24" opacity="0.85" rx="3" stroke="#4B5563" stroke-width="0.5" width="426" x="734" y="639.86"/>
  <text dominant-baseline="middle" fill="#FFFFFF" font-family="DejaVu Sans, Courier New, Courier, monospace" font-size="13.33" font-weight="600" text-anchor="start" x="738" y="651.86">Automation Wave 2</text>
  <line opacity="0.45" stroke="#555555" stroke-width="0.75" x1="179" x2="179" y1="261.86" y2="471.86"/>
  <path d="M 165 471.86 L 193 471.86 L 179 499.86 Z" fill="#6B7280" stroke="#FFFFFF" stroke-width="1.5"/>
  <path d="M 12 3 L 14.4 8.8 L 20.6 9.2 L 15.8 13.2 L 17.3 19.3 L 12 16 L 6.7 19.3 L 8.2 13.2 L 3.4 9.2 L 9.6 8.8 Z" fill="#FFFFFF" transform="translate(179,485.86) scale(0.7583) translate(-12,-12)"/>
  <text dominant-baseline="alphabetic" fill="#111111" font-family="DejaVu Sans, Courier New, Courier, monospace" font-size="13.33" font-weight="600" text-anchor="middle" x="179" y="239.66">Programme Kickoff</text>
  <text dominant-baseline="alphabetic" fill="#555555" font-family="DejaVu Sans, Courier New, Courier, monospace" font-size="12" font-weight="400" text-anchor="middle" x="179" y="256.46">January 2026</text>
  <line opacity="0.45" stroke="#555555" stroke-width="0.75" x1="389" x2="389" y1="261.86" y2="471.86"/>
  <path d="M 375 471.86 L 403 471.86 L 389 499.86 Z" fill="#6B7280" stroke="#FFFFFF" stroke-width="1.5"/>
  <path d="M 4 12 L 9.5 17.5 L 20 7" fill="none" stroke="#FFFFFF" stroke-linecap="round" stroke-width="2" transform="translate(389,485.86) scale(0.7583) translate(-12,-12)"/>
  <text dominant-baseline="alphabetic" fill="#111111" font-family="DejaVu Sans, Courier New, Courier, monospace" font-size="13.33" font-weight="600" text-anchor="middle" x="389" y="239.66">Q1 Gate Review</text>
  <text dominant-baseline="alphabetic" fill="#555555" font-family="DejaVu Sans, Courier New, Courier, monospace" font-size="12" font-weight="400" text-anchor="middle" x="389" y="256.46">March 2026</text>
  <line opacity="0.45" stroke="#555555" stroke-width="0.75" x1="560" x2="560" y1="261.86" y2="471.86"/>
  <path d="M 546 471.86 L 574 471.86 L 560 499.86 Z" fill="#16A34A" stroke="#FFFFFF" stroke-width="1.5"/>
  <path d="M 6 19 L 18 19 A 4 4 0 0 0 18 12 A 5 5 0 0 0 11 8 A 4 4 0 0 0 4 12 A 4 4 0 0 0 6 19 Z" fill="none" stroke="#FFFFFF" stroke-linecap="round" stroke-width="2" transform="translate(560,485.86) scale(0.7583) translate(-12,-12)"/>
  <text dominant-baseline="alphabetic" fill="#111111" font-family="DejaVu Sans, Courier New, Courier, monospace" font-size="13.33" font-weight="600" text-anchor="middle" x="560" y="239.66">Cloud Migration C…</text>
  <text dominant-baseline="alphabetic" fill="#555555" font-family="DejaVu Sans, Courier New, Courier, monospace" font-size="12" font-weight="400" text-anchor="middle" x="560" y="256.46">May 2026</text>
  <line opacity="0.45" stroke="#555555" stroke-width="0.75" x1="644" x2="644" y1="218.93" y2="471.86"/>
  <path d="M 630 471.86 L 658 471.86 L 644 499.86 Z" fill="#6B7280" stroke="#FFFFFF" stroke-width="1.5"/>
  <path d="M 2 5 L 2 22 L 22 22 L 22 5 Z M 2 10 L 22 10 M 8 2 L 8 7 M 16 2 L 16 7 M 6 14 L 9 14 M 13 14 L 16 14 M 6 18 L 9 18 M 13 18 L 16 18" fill="none" stroke="#FFFFFF" stroke-linecap="round" stroke-width="2" transform="translate(644,485.86) scale(0.7583) translate(-12,-12)"/>
  <text dominant-baseline="alphabetic" fill="#111111" font-family="DejaVu Sans, Courier New, Courier, monospace" font-size="13.33" font-weight="600" text-anchor="middle" x="644" y="196.73">Mid-Year Executiv…</text>
  <text dominant-baseline="alphabetic" fill="#555555" font-family="DejaVu Sans, Courier New, Courier, monospace" font-size="12" font-weight="400" text-anchor="middle" x="644" y="213.53">June 2026</text>
  <line opacity="0.45" stroke="#555555" stroke-width="0.75" x1="902" x2="902" y1="261.86" y2="471.86"/>
  <path d="M 888 471.86 L 916 471.86 L 902 499.86 Z" fill="#6B7280" stroke="#FFFFFF" stroke-width="1.5"/>
  <path d="M 4 12 L 9.5 17.5 L 20 7" fill="none" stroke="#FFFFFF" stroke-linecap="round" stroke-width="2" transform="translate(902,485.86) scale(0.7583) translate(-12,-12)"/>
  <text dominant-baseline="alphabetic" fill="#111111" font-family="DejaVu Sans, Courier New, Courier, monospace" font-size="13.33" font-weight="600" text-anchor="middle" x="902" y="239.66">Q3 Gate Review</text>
  <text dominant-baseline="alphabetic" fill="#555555" font-family="DejaVu Sans, Courier New, Courier, monospace" font-size="12" font-weight="400" text-anchor="middle" x="902" y="256.46">September 2026</text>
  <line opacity="0.45" stroke="#555555" stroke-width="0.75" x1="1115" x2="1115" y1="162" y2="172"/>
  <line opacity="0.25" stroke="#555555" stroke-dasharray="2,3" stroke-width="0.75" x1="1115" x2="1098" y1="168" y2="168"/>
  <line opacity="0.45" stroke="#555555" stroke-width="0.75" x1="1098" x2="1098" y1="261.86" y2="471.86"/>
  <path d="M 1084 471.86 L 1112 471.86 L 1098 499.86 Z" fill="#6B7280" stroke="#FFFFFF" stroke-width="1.5"/>
  <path d="M 4 2 L 4 21 L 6 21 L 6 17 L 18 11 L 6 5 Z" fill="#FFFFFF" transform="translate(1098,485.86) scale(0.7583) translate(-12,-12)"/>
  <text dominant-baseline="alphabetic" fill="#111111" font-family="DejaVu Sans, Courier New, Courier, monospace" font-size="13.33" font-weight="600" text-anchor="middle" x="1098" y="239.66">Year-End Delivery</text>
  <text dominant-baseline="alphabetic" fill="#555555" font-family="DejaVu Sans, Courier New, Courier, monospace" font-size="12" font-weight="400" text-anchor="middle" x="1098" y="256.46">December 2026</text>
  <line opacity="0.5" stroke="#374151" stroke-dasharray="3,3" stroke-width="1" x1="644" x2="644" y1="475.86" y2="485.86"/>
  <rect fill="#FFFFFF" height="28" opacity="0.92" rx="3" stroke="#2563EB" stroke-width="1" width="120" x="584" y="447.86"/>
  <text dominant-baseline="middle" fill="#374151" font-family="DejaVu Sans, Courier New, Courier, monospace" font-size="12" font-weight="400" text-anchor="middle" x="644" y="461.86">Review Gate</text>
  <rect fill="#FFFFFF" height="120.27" opacity="0.95" rx="4" stroke="#D1D5DB" stroke-width="1" width="160" x="984" y="719.86"/>
  <text dominant-baseline="alphabetic" fill="#111111" font-family="DejaVu Sans, Courier New, Courier, monospace" font-size="13.33" font-weight="700" text-anchor="start" x="994" y="743.19">Status Legend</text>
  <rect fill="#16A34A" height="12" rx="2" width="12" x="994" y="755.73"/>
  <text dominant-baseline="middle" fill="#374151" font-family="DejaVu Sans, Courier New, Courier, monospace" font-size="12" font-weight="400" text-anchor="start" x="1014" y="761.73">Done</text>
  <rect fill="#2563EB" height="12" rx="2" width="12" x="994" y="776.13"/>
  <text dominant-baseline="middle" fill="#374151" font-family="DejaVu Sans, Courier New, Courier, monospace" font-size="12" font-weight="400" text-anchor="start" x="1014" y="782.13">In Progress</text>
  <rect fill="#D97706" height="12" rx="2" width="12" x="994" y="796.53"/>
  <text dominant-baseline="middle" fill="#374151" font-family="DejaVu Sans, Courier New, Courier, monospace" font-size="12" font-weight="400" text-anchor="start" x="1014" y="802.53">At Risk</text>
  <rect fill="#6B7280" height="12" rx="2" width="12" x="994" y="816.93"/>
  <text dominant-baseline="middle" fill="#374151" font-family="DejaVu Sans, Courier New, Courier, monospace" font-size="12" font-weight="400" text-anchor="start" x="1014" y="822.93">Planned</text>
</svg>