<?xml version="1.0" encoding="UTF-8"?>
<svg height="528.93" version="1.1" viewBox="0 0 1200 528.93" width="1200" xmlns="http://www.w3.org/2000/svg">
  <rect fill="#FFFFFF" height="528.93" width="1200" x="0" y="0"/>
  <text dominant-baseline="alphabetic" fill="#111111" font-family="DejaVu Sans, Courier New, Courier, monospace" font-size="26.67" font-weight="700" text-anchor="middle" x="600" y="86.67">Open-Ended &amp; Span Activity Behaviours</text>
  <text dominant-baseline="alphabetic" fill="#111111" font-family="DejaVu Sans, Courier New, Courier, monospace" font-size="17.33" font-weight="400" opacity="0.75" text-anchor="middle" x="600" y="118.33">Ongoing services, TBD items, and span shorthand — all on one canvas</text>
  <line opacity="0.35" stroke="#374151" stroke-width="0.5" x1="140" x2="1160" y1="130" y2="130"/>
  <line stroke="#374151" stroke-width="1" x1="140" x2="1160" y1="168" y2="168"/>
  <line stroke="#374151" stroke-width="1" x1="140" x2="140" y1="162" y2="168"/>
  <line opacity="0.7" stroke="#E5E7EB" stroke-width="1" x1="140" x2="140" y1="168" y2="480.93"/>
  <text dominant-baseline="alphabetic" fill="#374151" font-family="DejaVu Sans, Courier New, Courier, monospace" font-size="13.33" font-weight="400" text-anchor="middle" x="140" y="154">2026</text>
  <line stroke="#374151" stroke-width="1" x1="227" x2="227" y1="162" y2="168"/>
  <line opacity="0.7" stroke="#E5E7EB" stroke-width="1" x1="227" x2="227" y1="168" y2="480.93"/>
  <text dominant-baseline="alphabetic" fill="#374151" font-family="DejaVu Sans, Courier New, Courier, monospace" font-size="13.33" font-weight="400" text-anchor="middle" x="227" y="154">Feb</text>
  <line stroke="#374151" stroke-width="1" x1="305" x2="305" y1="162" y2="168"/>
  <line opacity="0.7" stroke="#E5E7EB" stroke-width="1" x1="305" x2="305" y1="168" y2="480.93"/>
  <text dominant-baseline="alphabetic" fill="#374151" font-family="DejaVu Sans, Courier New, Courier, monospace" font-size="13.33" font-weight="400" text-anchor="middle" x="305" y="154">Mar</text>
  <line stroke="#374151" stroke-width="1" x1="392" x2="392" y1="162" y2="168"/>
  <line opacity="0.7" stroke="#E5E7EB" stroke-width="1" x1="392" x2="392" y1="168" y2="480.93"/>
  <text dominant-baseline="alphabetic" fill="#374151" font-family="DejaVu Sans, Courier New, Courier, monospace" font-size="13.33" font-weight="400" text-anchor="middle" x="392" y="154">Apr</text>
  <line stroke="#374151" stroke-width="1" x1="476" x2="476" y1="162" y2="168"/>
  <line opacity="0.7" stroke="#E5E7EB" stroke-width="1" x1="476" x2="476" y1="168" y2="480.93"/>
  <text dominant-baseline="alphabetic" fill="#374151" font-family="DejaVu Sans, Courier New, Courier, monospace" font-size="13.33" font-weight="400" text-anchor="middle" x="476" y="154">May</text>
  <line stroke="#374151" stroke-width="1" x1="563" x2="563" y1="162" y2="168"/>
  <line opacity="0.7" stroke="#E5E7EB" stroke-width="1" x1="563" x2="563" y1="168" y2="480.93"/>
  <text dominant-baseline="alphabetic" fill="#374151" font-family="DejaVu Sans, Courier New, Courier, monospace" font-size="13.33" font-weight="400" text-anchor="middle" x="563" y="154">Jun</text>
  <line stroke="#374151" stroke-width="1" x1="647" x2="647" y1="162" y2="168"/>
  <line opacity="0.7" stroke="#E5E7EB" stroke-width="1" x1="647" x2="647" y1="168" y2="480.93"/>
  <text dominant-baseline="alphabetic" fill="#374151" font-family="DejaVu Sans, Courier New, Courier, monospace" font-size="13.33" font-weight="400" text-anchor="middle" x="647" y="154">Jul</text>
  <line stroke="#374151" stroke-width="1" x1="734" x2="734" y1="162" y2="168"/>
  <line opacity="0.7" stroke="#E5E7EB" stroke-width="1" x1="734" x2="734" y1="168" y2="480.93"/>
  <text dominant-baseline="alphabetic" fill="#374151" font-family="DejaVu Sans, Courier New, Courier, monospace" font-size="13.33" font-weight="400" text-anchor="middle" x="734" y="154">Aug</text>
  <line stroke="#374151" stroke-width="1" x1="821" x2="821" y1="162" y2="168"/>
  <line opacity="0.7" stroke="#E5E7EB" stroke-width="1" x1="821" x2="821" y1="168" y2="480.93"/>
  <text dominant-baseline="alphabetic" fill="#374151" font-family="DejaVu Sans, Courier New, Courier, monospace" font-size="13.33" font-weight="400" text-anchor="middle" x="821" y="154">Sep</text>
  <line stroke="#374151" stroke-width="1" x1="905" x2="905" y1="162" y2="168"/>
  <line opacity="0.7" stroke="#E5E7EB" stroke-width="1" x1="905" x2="905" y1="168" y2="480.93"/>
  <text dominant-baseline="alphabetic" fill="#374151" font-family="DejaVu Sans, Courier New, Courier, monospace" font-size="13.33" font-weight="400" text-anchor="middle" x="905" y="154">Oct</text>
  <line stroke="#374151" stroke-width="1" x1="992" x2="992" y1="162" y2="168"/>
  <line opacity="0.7" stroke="#E5E7EB" stroke-width="1" x1="992" x2="992" y1="168" y2="480.93"/>
  <text dominant-baseline="alphabetic" fill="#374151" font-family="DejaVu Sans, Courier New, Courier, monospace" font-size="13.33" font-weight="400" text-anchor="middle" x="992" y="154">Nov</text>
  <line stroke="#374151" stroke-width="1" x1="1076" x2="1076" y1="162" y2="168"/>
  <line opacity="0.7" stroke="#E5E7EB" stroke-width="1" x1="1076" x2="1076" y1="168" y2="480.93"/>
  <text dominant-baseline="alphabetic" fill="#374151" font-family="DejaVu Sans, Courier New, Courier, monospace" font-size="13.33" font-weight="400" text-anchor="middle" x="1076" y="154">Dec</text>
  <line opacity="0.3" stroke="#D1D5DB" stroke-width="1" x1="140" x2="1160" y1="360.93" y2="360.93"/>
  <text dominant-baseline="middle" fill="#111111" font-family="DejaVu Sans, Courier New, Courier, monospace" font-size="14.67" font-weight="700" text-anchor="start" x="8" y="292.93">Live Services</text>
  <line opacity="0.3" stroke="#D1D5DB" stroke-width="1" x1="140" x2="1160" y1="480.93" y2="480.93"/>
  <text dominant-baseline="middle" fill="#111111" font-family="DejaVu Sans, Courier New, Courier, monospace" font-size="14.67" font-weight="700" text-anchor="start" x="8" y="427.93">Projects</text>
  <rect fill="#2563EB" height="24" opacity="1" rx="3" stroke="#1D4ED8" stroke-width="0.5" width="1020" x="140" y="236.93"/>
  <text dominant-baseline="middle" fill="#FFFFFF" font-family="DejaVu Sans, Courier New, Courier, monospace" font-size="13.33" font-weight="600" text-anchor="start" x="144" y="248.93">Production Monitoring</text>
  <path d="M 1160 236.93 L 1170 248.93 L 1160 260.93 Z" fill="#2563EB" opacity="1"/>
  <rect fill="#2563EB" height="24" opacity="1" rx="3" stroke="#1D4ED8" stroke-width="0.5" width="855" x="305" y="266.93"/>
  <text dominant-baseline="middle" fill="#FFFFFF" font-family="DejaVu Sans, Courier New, Courier, monospace" font-size="13.33" font-weight="600" text-anchor="start" x="309" y="278.93">On-Call Rotation</text>
  <path d="M 1160 266.93 L 1170 278.93 L 1160 290.93 Z" fill="#2563EB" opacity="1"/>
  <rect fill="#6B7280" height="24" opacity="0.85" rx="3" stroke="#4B5563" stroke-width="0.5" width="597" x="563" y="296.93"/>
  <text dominant-baseline="middle" fill="#FFFFFF" font-family="DejaVu Sans, Courier New, Courier, monospace" font-size="13.33" font-weight="600" text-anchor="start" x="567" y="308.93">SLA Management</text>
  <path d="M 1160 296.93 L 1170 308.93 L 1160 320.93 Z" fill="#6B7280" opacity="0.85"/>
  <rect fill="#16A34A" height="24" opacity="1" rx="3" stroke="#15803D" stroke-width="0.5" width="249" x="140" y="386.93"/>
  <rect fill="#FFFFFF" height="4" opacity="0.4" rx="3" width="249" x="140" y="406.93"/>
  <text dominant-baseline="middle" fill="#111111" font-family="DejaVu Sans, Courier New, Courier, monospace" font-size="13.33" font-weight="600" text-anchor="start" x="144" y="398.93">Q1 Sprint</text>
  <rect fill="#2563EB" height="24" opacity="1" rx="3" stroke="#1D4ED8" stroke-width="0.5" width="252" x="392" y="386.93"/>
  <rect fill="#FFFFFF" height="4" opacity="0.4" rx="3" width="151" x="392" y="406.93"/>
  <text dominant-baseline="middle" fill="#FFFFFF" font-family="DejaVu Sans, Courier New, Courier, monospace" font-size="13.33" font-weight="600" text-anchor="start" x="396" y="398.93">Q2 Sprint</text>
  <rect fill="#6B7280" height="24" opacity="0.85" rx="3" stroke="#4B5563" stroke-width="0.5" width="255" x="647" y="386.93"/>
  <text dominant-baseline="middle" fill="#FFFFFF" font-family="DejaVu Sans, Courier New, Courier, monospace" font-size="13.33" font-weight="600" text-anchor="start" x="651" y="398.93">Q3 Sprint</text>
  <rect fill="#94A3B8" height="24" opacity="0.65" rx="3" stroke="#64748B" stroke-width="0.5" width="255" x="905" y="386.93"/>
  <text dominant-baseline="middle" fill="#111111" font-family="DejaVu Sans, Courier New, Courier, monospace" font-size="13.33" font-weight="600" text-anchor="start" x="909" y="398.93">Future Project (TBD)</text>
  <line opacity="0.5" stroke="#64748B" stroke-dasharray="3,3" stroke-width="2" x1="1160" x2="1160" y1="386.93" y2="410.93"/>
  <rect fill="#6B7280" height="24" opacity="0.85" rx="3" stroke="#4B5563" stroke-width="0.5" width="255" x="905" y="416.93"/>
  <text dominant-baseline="middle" fill="#FFFFFF" font-family="DejaVu Sans, Courier New, Courier, monospace" font-size="13.33" font-weight="600" text-anchor="start" x="909" y="428.93">Q4 Sprint</text>
  <line opacity="0.45" stroke="#555555" stroke-width="0.75" x1="392" x2="392" y1="306.93" y2="314.93"/>
  <path d="M 378 278.93 L 406 278.93 L 392 306.93 Z" fill="#6B7280" stroke="#FFFFFF" stroke-width="1.5"/>
  <text dominant-baseline="alphabetic" fill="#111111" font-family="DejaVu Sans, Courier New, Courier, monospace" font-size="13.33" font-weight="600" text-anchor="middle" x="392" y="329.66">Service v2 GA</text>
  <text dominant-baseline="alphabetic" fill="#555555" font-family="DejaVu Sans, Courier New, Courier, monospace" font-size="12" font-weight="400" text-anchor="middle" x="392" y="346.46">April 2026</text>
  <line opacity="0.45" stroke="#555555" stroke-width="0.75" x1="821" x2="821" y1="218.93" y2="413.93"/>
  <path d="M 807 413.93 L 835 413.93 L 821 441.93 Z" fill="#6B7280" stroke="#FFFFFF" stroke-width="1.5"/>
  <text dominant-baseline="alphabetic" fill="#111111" font-family="DejaVu Sans, Courier New, Courier, monospace" font-size="13.33" font-weight="600" text-anchor="middle" x="821" y="196.73">Roadmap Review</text>
  <text dominant-baseline="alphabetic" fill="#555555" font-family="DejaVu Sans, Courier New, Courier, monospace" font-size="12" font-weight="400" text-anchor="middle" x="821" y="213.53">September 2026</text>
  <rect fill="#FFFFFF" height="140.67" opacity="0.95" rx="4" stroke="#D1D5DB" stroke-width="1" width="160" x="984" y="324.26"/>
  <text dominant-baseline="alphabetic" fill="#111111" font-family="DejaVu Sans, Courier New, Courier, monospace" font-size="13.33" font-weight="700" text-anchor="start" x="994" y="347.6">Legend</text>
  <rect fill="#2563EB" height="12" rx="2" width="12" x="994" y="360.13"/>
  <text dominant-baseline="middle" fill="#374151" font-family="DejaVu Sans, Courier New, Courier, monospace" font-size="12" font-weight="400" text-anchor="start" x="1014" y="366.13">in-progress</text>
  <rect fill="#6B7280" height="12" rx="2" width="12" x="994" y="380.53"/>
  <text dominant-baseline="middle" fill="#374151" font-family="DejaVu Sans, Courier New, Courier, monospace" font-size="12" font-weight="400" text-anchor="start" x="1014" y="386.53">planned</text>
  <rect fill="#16A34A" height="12" rx="2" width="12" x="994" y="400.93"/>
  <text dominant-baseline="middle" fill="#374151" font-family="DejaVu Sans, Courier New, Courier, monospace" font-size="12" font-weight="400" text-anchor="start" x="1014" y="406.93">done</text>
  <rect fill="#94A3B8" height="12" rx="2" width="12" x="994" y="421.33"/>
  <text dominant-baseline="middle" fill="#374151" font-family="DejaVu Sans, Courier New, Courier, monospace" font-size="12" font-weight="400" text-anchor="start" x="1014" y="427.33">tentative</text>
  <rect fill="#6B7280" height="12" rx="2" width="12" x="994" y="441.73"/>
  <text dominant-baseline="middle" fill="#374151" font-family="DejaVu Sans, Courier New, Courier, monospace" font-size="12" font-weight="400" text-anchor="start" x="1014" y="447.73">standard-node</text>
</svg>