<?xml version="1.0" encoding="UTF-8"?>
<svg height="366" version="1.1" viewBox="0 0 1200 366" width="1200" xmlns="http://www.w3.org/2000/svg">
  <rect fill="#FFFFFF" height="366" width="1200" x="0" y="0"/>
  <text dominant-baseline="middle" fill="#111111" font-family="DejaVu Sans, Courier New, Courier, monospace" font-size="26.67" font-weight="700" text-anchor="middle" x="600" y="37.33">Open-Ended &amp; Span Activity Behaviours</text>
  <line stroke="#374151" stroke-width="1" x1="140" x2="1160" y1="80" y2="80"/>
  <line stroke="#374151" stroke-width="1" x1="140" x2="140" y1="74" y2="80"/>
  <line opacity="0.7" stroke="#E5E7EB" stroke-width="1" x1="140" x2="140" y1="80" y2="318"/>
  <text dominant-baseline="alphabetic" fill="#374151" font-family="DejaVu Sans, Courier New, Courier, monospace" font-size="13.33" font-weight="400" text-anchor="middle" x="140" y="66">2026</text>
  <line stroke="#374151" stroke-width="1" x1="227" x2="227" y1="74" y2="80"/>
  <line opacity="0.7" stroke="#E5E7EB" stroke-width="1" x1="227" x2="227" y1="80" y2="318"/>
  <text dominant-baseline="alphabetic" fill="#374151" font-family="DejaVu Sans, Courier New, Courier, monospace" font-size="13.33" font-weight="400" text-anchor="middle" x="227" y="66">Feb</text>
  <line stroke="#374151" stroke-width="1" x1="305" x2="305" y1="74" y2="80"/>
  <line opacity="0.7" stroke="#E5E7EB" stroke-width="1" x1="305" x2="305" y1="80" y2="318"/>
  <text dominant-baseline="alphabetic" fill="#374151" font-family="DejaVu Sans, Courier New, Courier, monospace" font-size="13.33" font-weight="400" text-anchor="middle" x="305" y="66">Mar</text>
  <line stroke="#374151" stroke-width="1" x1="392" x2="392" y1="74" y2="80"/>
  <line opacity="0.7" stroke="#E5E7EB" stroke-width="1" x1="392" x2="392" y1="80" y2="318"/>
  <text dominant-baseline="alphabetic" fill="#374151" font-family="DejaVu Sans, Courier New, Courier, monospace" font-size="13.33" font-weight="400" text-anchor="middle" x="392" y="66">Apr</text>
  <line stroke="#374151" stroke-width="1" x1="476" x2="476" y1="74" y2="80"/>
  <line opacity="0.7" stroke="#E5E7EB" stroke-width="1" x1="476" x2="476" y1="80" y2="318"/>
  <text dominant-baseline="alphabetic" fill="#374151" font-family="DejaVu Sans, Courier New, Courier, monospace" font-size="13.33" font-weight="400" text-anchor="middle" x="476" y="66">May</text>
  <line stroke="#374151" stroke-width="1" x1="563" x2="563" y1="74" y2="80"/>
  <line opacity="0.7" stroke="#E5E7EB" stroke-width="1" x1="563" x2="563" y1="80" y2="318"/>
  <text dominant-baseline="alphabetic" fill="#374151" font-family="DejaVu Sans, Courier New, Courier, monospace" font-size="13.33" font-weight="400" text-anchor="middle" x="563" y="66">Jun</text>
  <line stroke="#374151" stroke-width="1" x1="647" x2="647" y1="74" y2="80"/>
  <line opacity="0.7" stroke="#E5E7EB" stroke-width="1" x1="647" x2="647" y1="80" y2="318"/>
  <text dominant-baseline="alphabetic" fill="#374151" font-family="DejaVu Sans, Courier New, Courier, monospace" font-size="13.33" font-weight="400" text-anchor="middle" x="647" y="66">Jul</text>
  <line stroke="#374151" stroke-width="1" x1="734" x2="734" y1="74" y2="80"/>
  <line opacity="0.7" stroke="#E5E7EB" stroke-width="1" x1="734" x2="734" y1="80" y2="318"/>
  <text dominant-baseline="alphabetic" fill="#374151" font-family="DejaVu Sans, Courier New, Courier, monospace" font-size="13.33" font-weight="400" text-anchor="middle" x="734" y="66">Aug</text>
  <line stroke="#374151" stroke-width="1" x1="821" x2="821" y1="74" y2="80"/>
  <line opacity="0.7" stroke="#E5E7EB" stroke-width="1" x1="821" x2="821" y1="80" y2="318"/>
  <text dominant-baseline="alphabetic" fill="#374151" font-family="DejaVu Sans, Courier New, Courier, monospace" font-size="13.33" font-weight="400" text-anchor="middle" x="821" y="66">Sep</text>
  <line stroke="#374151" stroke-width="1" x1="905" x2="905" y1="74" y2="80"/>
  <line opacity="0.7" stroke="#E5E7EB" stroke-width="1" x1="905" x2="905" y1="80" y2="318"/>
  <text dominant-baseline="alphabetic" fill="#374151" font-family="DejaVu Sans, Courier New, Courier, monospace" font-size="13.33" font-weight="400" text-anchor="middle" x="905" y="66">Oct</text>
  <line stroke="#374151" stroke-width="1" x1="992" x2="992" y1="74" y2="80"/>
  <line opacity="0.7" stroke="#E5E7EB" stroke-width="1" x1="992" x2="992" y1="80" y2="318"/>
  <text dominant-baseline="alphabetic" fill="#374151" font-family="DejaVu Sans, Courier New, Courier, monospace" font-size="13.33" font-weight="400" text-anchor="middle" x="992" y="66">Nov</text>
  <line stroke="#374151" stroke-width="1" x1="1076" x2="1076" y1="74" y2="80"/>
  <line opacity="0.7" stroke="#E5E7EB" stroke-width="1" x1="1076" x2="1076" y1="80" y2="318"/>
  <text dominant-baseline="alphabetic" fill="#374151" font-family="DejaVu Sans, Courier New, Courier, monospace" font-size="13.33" font-weight="400" text-anchor="middle" x="1076" y="66">Dec</text>
  <line opacity="0.3" stroke="#D1D5DB" stroke-width="1" x1="140" x2="1160" y1="204" y2="204"/>
  <text dominant-baseline="middle" fill="#111111" font-family="DejaVu Sans, Courier New, Courier, monospace" font-size="14.67" font-weight="700" text-anchor="start" x="8" y="142">Live Services</text>
  <line opacity="0.3" stroke="#D1D5DB" stroke-width="1" x1="140" x2="1160" y1="318" y2="318"/>
  <text dominant-baseline="middle" fill="#111111" font-family="DejaVu Sans, Courier New, Courier, monospace" font-size="14.67" font-weight="700" text-anchor="start" x="8" y="268">Projects</text>
  <rect fill="#2563EB" height="24" opacity="1" rx="3" stroke="#1D4ED8" stroke-width="0.5" width="1020" x="140" y="92"/>
  <text dominant-baseline="middle" fill="#FFFFFF" font-family="DejaVu Sans, Courier New, Courier, monospace" font-size="13.33" font-weight="600" text-anchor="middle" x="650" y="104">Production Monitoring</text>
  <path d="M 1160 92 L 1170 104 L 1160 116 Z" fill="#2563EB" opacity="1"/>
  <rect fill="#2563EB" height="24" opacity="1" rx="3" stroke="#1D4ED8" stroke-width="0.5" width="855" x="305" y="116"/>
  <text dominant-baseline="middle" fill="#FFFFFF" font-family="DejaVu Sans, Courier New, Courier, monospace" font-size="13.33" font-weight="600" text-anchor="middle" x="732.5" y="128">On-Call Rotation</text>
  <path d="M 1160 116 L 1170 128 L 1160 140 Z" fill="#2563EB" opacity="1"/>
  <rect fill="#6B7280" height="24" opacity="0.85" rx="3" stroke="#4B5563" stroke-width="0.5" width="597" x="563" y="140"/>
  <text dominant-baseline="middle" fill="#FFFFFF" font-family="DejaVu Sans, Courier New, Courier, monospace" font-size="13.33" font-weight="600" text-anchor="middle" x="861.5" y="152">SLA Management</text>
  <path d="M 1160 140 L 1170 152 L 1160 164 Z" fill="#6B7280" opacity="0.85"/>
  <rect fill="#16A34A" height="24" opacity="1" rx="3" stroke="#15803D" stroke-width="0.5" width="249" x="140" y="230"/>
  <rect fill="#FFFFFF" height="4" opacity="0.4" rx="3" width="249" x="140" y="250"/>
  <text dominant-baseline="middle" fill="#FFFFFF" font-family="DejaVu Sans, Courier New, Courier, monospace" font-size="13.33" font-weight="600" text-anchor="middle" x="264.5" y="242">Q1 Sprint</text>
  <rect fill="#2563EB" height="24" opacity="1" rx="3" stroke="#1D4ED8" stroke-width="0.5" width="252" x="392" y="230"/>
  <rect fill="#FFFFFF" height="4" opacity="0.4" rx="3" width="151" x="392" y="250"/>
  <text dominant-baseline="middle" fill="#FFFFFF" font-family="DejaVu Sans, Courier New, Courier, monospace" font-size="13.33" font-weight="600" text-anchor="middle" x="518" y="242">Q2 Sprint</text>
  <rect fill="#6B7280" height="24" opacity="0.85" rx="3" stroke="#4B5563" stroke-width="0.5" width="255" x="647" y="230"/>
  <text dominant-baseline="middle" fill="#FFFFFF" font-family="DejaVu Sans, Courier New, Courier, monospace" font-size="13.33" font-weight="600" text-anchor="middle" x="774.5" y="242">Q3 Sprint</text>
  <rect fill="#94A3B8" height="24" opacity="0.65" rx="3" stroke="#64748B" stroke-width="0.5" width="255" x="905" y="230"/>
  <text dominant-baseline="middle" fill="#FFFFFF" font-family="DejaVu Sans, Courier New, Courier, monospace" font-size="13.33" font-weight="600" text-anchor="middle" x="1032.5" y="242">Future Project (TBD)</text>
  <line opacity="0.5" stroke="#64748B" stroke-dasharray="3,3" stroke-width="2" x1="1160" x2="1160" y1="230" y2="254"/>
  <rect fill="#6B7280" height="24" opacity="0.85" rx="3" stroke="#4B5563" stroke-width="0.5" width="255" x="905" y="254"/>
  <text dominant-baseline="middle" fill="#FFFFFF" font-family="DejaVu Sans, Courier New, Courier, monospace" font-size="13.33" font-weight="600" text-anchor="middle" x="1032.5" y="266">Q4 Sprint</text>
  <path d="M 378 128 L 406 128 L 392 156 Z" fill="#6B7280" stroke="#FFFFFF" stroke-width="1.5"/>
  <text dominant-baseline="alphabetic" fill="#555555" font-family="DejaVu Sans, Courier New, Courier, monospace" font-size="12" font-weight="400" text-anchor="middle" x="392.01" y="120.24">1st April 2026</text>
  <text dominant-baseline="alphabetic" fill="#111111" font-family="DejaVu Sans, Courier New, Courier, monospace" font-size="13.33" font-weight="600" text-anchor="middle" x="392" y="177.33">Service v2 GA</text>
  <path d="M 807 254 L 835 254 L 821 282 Z" fill="#6B7280" stroke="#FFFFFF" stroke-width="1.5"/>
  <text dominant-baseline="alphabetic" fill="#555555" font-family="DejaVu Sans, Courier New, Courier, monospace" font-size="12" font-weight="400" text-anchor="middle" x="821.01" y="246.24">1st September 2026</text>
  <text dominant-baseline="alphabetic" fill="#111111" font-family="DejaVu Sans, Courier New, Courier, monospace" font-size="13.33" font-weight="600" text-anchor="middle" x="821" y="303.33">Roadmap Review</text>
  <rect fill="#FFFFFF" height="140.67" opacity="0.95" rx="4" stroke="#D1D5DB" stroke-width="1" width="160" x="984" y="161.33"/>
  <text dominant-baseline="alphabetic" fill="#111111" font-family="DejaVu Sans, Courier New, Courier, monospace" font-size="13.33" font-weight="700" text-anchor="start" x="994" y="184.67">Legend</text>
  <rect fill="#2563EB" height="12" rx="2" width="12" x="994" y="197.2"/>
  <text dominant-baseline="middle" fill="#374151" font-family="DejaVu Sans, Courier New, Courier, monospace" font-size="12" font-weight="400" text-anchor="start" x="1014" y="203.2">in-progress</text>
  <rect fill="#6B7280" height="12" rx="2" width="12" x="994" y="217.6"/>
  <text dominant-baseline="middle" fill="#374151" font-family="DejaVu Sans, Courier New, Courier, monospace" font-size="12" font-weight="400" text-anchor="start" x="1014" y="223.6">planned</text>
  <rect fill="#16A34A" height="12" rx="2" width="12" x="994" y="238"/>
  <text dominant-baseline="middle" fill="#374151" font-family="DejaVu Sans, Courier New, Courier, monospace" font-size="12" font-weight="400" text-anchor="start" x="1014" y="244">done</text>
  <rect fill="#94A3B8" height="12" rx="2" width="12" x="994" y="258.4"/>
  <text dominant-baseline="middle" fill="#374151" font-family="DejaVu Sans, Courier New, Courier, monospace" font-size="12" font-weight="400" text-anchor="start" x="1014" y="264.4">tentative</text>
  <rect fill="#6B7280" height="12" rx="2" width="12" x="994" y="278.8"/>
  <text dominant-baseline="middle" fill="#374151" font-family="DejaVu Sans, Courier New, Courier, monospace" font-size="12" font-weight="400" text-anchor="start" x="1014" y="284.8">standard-node</text>
</svg>