<?xml version="1.0" encoding="UTF-8"?>
<svg height="625.6" version="1.1" viewBox="0 0 1200 625.6" width="1200" xmlns="http://www.w3.org/2000/svg">
  <rect fill="#FFFFFF" height="625.6" width="1200" x="0" y="0"/>
  <text dominant-baseline="alphabetic" fill="#111111" font-family="DejaVu Sans, Courier New, Courier, monospace" font-size="26.67" font-weight="700" text-anchor="middle" x="600" y="86.67">v3 Release Train — H1 2026</text>
  <text dominant-baseline="alphabetic" fill="#111111" font-family="DejaVu Sans, Courier New, Courier, monospace" font-size="17.33" font-weight="400" opacity="0.75" text-anchor="middle" x="600" y="118.33">Feature delivery, release milestones, and an at-risk item</text>
  <line opacity="0.35" stroke="#374151" stroke-width="0.5" x1="140" x2="1160" y1="130" y2="130"/>
  <line stroke="#374151" stroke-width="1" x1="140" x2="1160" y1="168" y2="168"/>
  <line stroke="#374151" stroke-width="1" x1="140" x2="140" y1="162" y2="168"/>
  <line opacity="0.7" stroke="#E5E7EB" stroke-width="1" x1="140" x2="140" y1="168" y2="420.93"/>
  <text dominant-baseline="alphabetic" fill="#374151" font-family="DejaVu Sans, Courier New, Courier, monospace" font-size="13.33" font-weight="400" text-anchor="middle" x="140" y="154">2026</text>
  <line stroke="#374151" stroke-width="1" x1="316" x2="316" y1="162" y2="168"/>
  <line opacity="0.7" stroke="#E5E7EB" stroke-width="1" x1="316" x2="316" y1="168" y2="420.93"/>
  <text dominant-baseline="alphabetic" fill="#374151" font-family="DejaVu Sans, Courier New, Courier, monospace" font-size="13.33" font-weight="400" text-anchor="middle" x="316" y="154">Feb</text>
  <line stroke="#374151" stroke-width="1" x1="474" x2="474" y1="162" y2="168"/>
  <line opacity="0.7" stroke="#E5E7EB" stroke-width="1" x1="474" x2="474" y1="168" y2="420.93"/>
  <text dominant-baseline="alphabetic" fill="#374151" font-family="DejaVu Sans, Courier New, Courier, monospace" font-size="13.33" font-weight="400" text-anchor="middle" x="474" y="154">Mar</text>
  <line stroke="#374151" stroke-width="1" x1="650" x2="650" y1="162" y2="168"/>
  <line opacity="0.7" stroke="#E5E7EB" stroke-width="1" x1="650" x2="650" y1="168" y2="420.93"/>
  <text dominant-baseline="alphabetic" fill="#374151" font-family="DejaVu Sans, Courier New, Courier, monospace" font-size="13.33" font-weight="400" text-anchor="middle" x="650" y="154">Apr</text>
  <line stroke="#374151" stroke-width="1" x1="820" x2="820" y1="162" y2="168"/>
  <line opacity="0.7" stroke="#E5E7EB" stroke-width="1" x1="820" x2="820" y1="168" y2="420.93"/>
  <text dominant-baseline="alphabetic" fill="#374151" font-family="DejaVu Sans, Courier New, Courier, monospace" font-size="13.33" font-weight="400" text-anchor="middle" x="820" y="154">May</text>
  <line stroke="#374151" stroke-width="1" x1="996" x2="996" y1="162" y2="168"/>
  <line opacity="0.7" stroke="#E5E7EB" stroke-width="1" x1="996" x2="996" y1="168" y2="420.93"/>
  <text dominant-baseline="alphabetic" fill="#374151" font-family="DejaVu Sans, Courier New, Courier, monospace" font-size="13.33" font-weight="400" text-anchor="middle" x="996" y="154">Jun</text>
  <line opacity="0.3" stroke="#D1D5DB" stroke-width="1" x1="140" x2="1160" y1="300.93" y2="300.93"/>
  <text dominant-baseline="middle" fill="#111111" font-family="DejaVu Sans, Courier New, Courier, monospace" font-size="14.67" font-weight="700" text-anchor="start" x="8" y="262.93">Backend</text>
  <line opacity="0.3" stroke="#D1D5DB" stroke-width="1" x1="140" x2="1160" y1="420.93" y2="420.93"/>
  <text dominant-baseline="middle" fill="#111111" font-family="DejaVu Sans, Courier New, Courier, monospace" font-size="14.67" font-weight="700" text-anchor="start" x="8" y="367.93">Frontend</text>
  <rect fill="#16A34A" height="24" opacity="1" rx="3" stroke="#15803D" stroke-width="0.5" width="147" x="163" y="236.93"/>
  <rect fill="#FFFFFF" height="4" opacity="0.4" rx="3" width="147" x="163" y="256.93"/>
  <text dominant-baseline="middle" fill="#111111" font-family="DejaVu Sans, Courier New, Courier, monospace" font-size="13.33" font-weight="600" text-anchor="start" x="167" y="248.93">API Contracts</text>
  <rect fill="#16A34A" height="24" opacity="1" rx="3" stroke="#15803D" stroke-width="0.5" width="153" x="316" y="236.93"/>
  <rect fill="#FFFFFF" height="4" opacity="0.4" rx="3" width="153" x="316" y="256.93"/>
  <text dominant-baseline="middle" fill="#111111" font-family="DejaVu Sans, Courier New, Courier, monospace" font-size="13.33" font-weight="600" text-anchor="start" x="320" y="248.93">Auth Service</text>
  <rect fill="#16A34A" height="24" opacity="1" rx="3" stroke="#15803D" stroke-width="0.5" width="255" x="474" y="236.93"/>
  <rect fill="#FFFFFF" height="4" opacity="0.4" rx="3" width="255" x="474" y="256.93"/>
  <text dominant-baseline="middle" fill="#111111" font-family="DejaVu Sans, Courier New, Courier, monospace" font-size="13.33" font-weight="600" text-anchor="start" x="478" y="248.93">Payment API</text>
  <rect fill="#D97706" height="24" opacity="1" rx="3" stroke="#B45309" stroke-width="0.5" width="255" x="735" y="236.93"/>
  <rect fill="#FFFFFF" height="4" opacity="0.4" rx="3" width="128" x="735" y="256.93"/>
  <text dominant-baseline="middle" fill="#111111" font-family="DejaVu Sans, Courier New, Courier, monospace" font-size="13.33" font-weight="600" text-anchor="start" x="739" y="248.93">Search API</text>
  <rect fill="#6B7280" height="24" opacity="0.85" rx="3" stroke="#4B5563" stroke-width="0.5" width="164" x="996" y="236.93"/>
  <text dominant-baseline="middle" fill="#FFFFFF" font-family="DejaVu Sans, Courier New, Courier, monospace" font-size="13.33" font-weight="600" text-anchor="start" x="1000" y="248.93">Notification Service</text>
  <rect fill="#16A34A" height="24" opacity="1" rx="3" stroke="#15803D" stroke-width="0.5" width="278" x="191" y="326.93"/>
  <rect fill="#FFFFFF" height="4" opacity="0.4" rx="3" width="278" x="191" y="346.93"/>
  <text dominant-baseline="middle" fill="#111111" font-family="DejaVu Sans, Courier New, Courier, monospace" font-size="13.33" font-weight="600" text-anchor="start" x="195" y="338.93">Homepage v3</text>
  <rect fill="#2563EB" height="24" opacity="1" rx="3" stroke="#1D4ED8" stroke-width="0.5" width="340" x="474" y="326.93"/>
  <rect fill="#FFFFFF" height="4" opacity="0.4" rx="3" width="289" x="474" y="346.93"/>
  <text dominant-baseline="middle" fill="#FFFFFF" font-family="DejaVu Sans, Courier New, Courier, monospace" font-size="13.33" font-weight="600" text-anchor="start" x="478" y="338.93">Checkout Flow</text>
  <rect fill="#2563EB" height="24" opacity="1" rx="3" stroke="#1D4ED8" stroke-width="0.5" width="340" x="650" y="356.93"/>
  <rect fill="#FFFFFF" height="4" opacity="0.4" rx="3" width="136" x="650" y="376.93"/>
  <text dominant-baseline="middle" fill="#FFFFFF" font-family="DejaVu Sans, Courier New, Courier, monospace" font-size="13.33" font-weight="600" text-anchor="start" x="654" y="368.93">Search UI</text>
  <rect fill="#6B7280" height="24" opacity="0.85" rx="3" stroke="#4B5563" stroke-width="0.5" width="340" x="820" y="326.93"/>
  <text dominant-baseline="middle" fill="#FFFFFF" font-family="DejaVu Sans, Courier New, Courier, monospace" font-size="13.33" font-weight="600" text-anchor="start" x="824" y="338.93">Mobile Responsive</text>
  <line opacity="0.45" stroke="#555555" stroke-width="0.75" x1="395" x2="395" y1="218.93" y2="308.93"/>
  <path d="M 381 308.93 L 409 308.93 L 395 336.93 Z" fill="#6B7280" stroke="#FFFFFF" stroke-width="1.5"/>
  <text dominant-baseline="alphabetic" fill="#111111" font-family="DejaVu Sans, Courier New, Courier, monospace" font-size="13.33" font-weight="600" text-anchor="middle" x="395" y="196.73">Alpha Release</text>
  <text dominant-baseline="alphabetic" fill="#555555" font-family="DejaVu Sans, Courier New, Courier, monospace" font-size="12" font-weight="400" text-anchor="middle" x="395" y="213.53">February 2026</text>
  <line opacity="0.45" stroke="#555555" stroke-width="0.75" x1="650" x2="650" y1="218.93" y2="308.93"/>
  <path d="M 636 308.93 L 664 308.93 L 650 336.93 Z" fill="#6B7280" stroke="#FFFFFF" stroke-width="1.5"/>
  <text dominant-baseline="alphabetic" fill="#111111" font-family="DejaVu Sans, Courier New, Courier, monospace" font-size="13.33" font-weight="600" text-anchor="middle" x="650" y="196.73">Beta Release</text>
  <text dominant-baseline="alphabetic" fill="#555555" font-family="DejaVu Sans, Courier New, Courier, monospace" font-size="12" font-weight="400" text-anchor="middle" x="650" y="213.53">April 2026</text>
  <line opacity="0.45" stroke="#555555" stroke-width="0.75" x1="899" x2="899" y1="218.93" y2="308.93"/>
  <path d="M 885 308.93 L 913 308.93 L 899 336.93 Z" fill="#6B7280" stroke="#FFFFFF" stroke-width="1.5"/>
  <text dominant-baseline="alphabetic" fill="#111111" font-family="DejaVu Sans, Courier New, Courier, monospace" font-size="13.33" font-weight="600" text-anchor="middle" x="899" y="196.73">Release Candidat…</text>
  <text dominant-baseline="alphabetic" fill="#555555" font-family="DejaVu Sans, Courier New, Courier, monospace" font-size="12" font-weight="400" text-anchor="middle" x="899" y="213.53">May 2026</text>
  <line opacity="0.45" stroke="#555555" stroke-width="0.75" x1="1160" x2="1160" y1="162" y2="172"/>
  <line opacity="0.25" stroke="#555555" stroke-dasharray="2,3" stroke-width="0.75" x1="1160" x2="1098" y1="168" y2="168"/>
  <line opacity="0.45" stroke="#555555" stroke-width="0.75" x1="1098" x2="1098" y1="218.93" y2="308.93"/>
  <path d="M 1084 308.93 L 1112 308.93 L 1098 336.93 Z" fill="#6B7280" stroke="#FFFFFF" stroke-width="1.5"/>
  <text dominant-baseline="alphabetic" fill="#111111" font-family="DejaVu Sans, Courier New, Courier, monospace" font-size="13.33" font-weight="600" text-anchor="middle" x="1098" y="196.73">v3 General Availa…</text>
  <text dominant-baseline="alphabetic" fill="#555555" font-family="DejaVu Sans, Courier New, Courier, monospace" font-size="12" font-weight="400" text-anchor="middle" x="1098" y="213.53">June 2026</text>
  <rect fill="#FFFFFF" height="140.67" opacity="0.95" rx="4" stroke="#D1D5DB" stroke-width="1" width="160" x="984" y="436.93"/>
  <text dominant-baseline="alphabetic" fill="#111111" font-family="DejaVu Sans, Courier New, Courier, monospace" font-size="13.33" font-weight="700" text-anchor="start" x="994" y="460.26">Legend</text>
  <rect fill="#16A34A" height="12" rx="2" width="12" x="994" y="472.8"/>
  <text dominant-baseline="middle" fill="#374151" font-family="DejaVu Sans, Courier New, Courier, monospace" font-size="12" font-weight="400" text-anchor="start" x="1014" y="478.8">done</text>
  <rect fill="#D97706" height="12" rx="2" width="12" x="994" y="493.2"/>
  <text dominant-baseline="middle" fill="#374151" font-family="DejaVu Sans, Courier New, Courier, monospace" font-size="12" font-weight="400" text-anchor="start" x="1014" y="499.2">at-risk</text>
  <rect fill="#6B7280" height="12" rx="2" width="12" x="994" y="513.6"/>
  <text dominant-baseline="middle" fill="#374151" font-family="DejaVu Sans, Courier New, Courier, monospace" font-size="12" font-weight="400" text-anchor="start" x="1014" y="519.6">planned</text>
  <rect fill="#2563EB" height="12" rx="2" width="12" x="994" y="534"/>
  <text dominant-baseline="middle" fill="#374151" font-family="DejaVu Sans, Courier New, Courier, monospace" font-size="12" font-weight="400" text-anchor="start" x="1014" y="540">in-progress</text>
  <rect fill="#6B7280" height="12" rx="2" width="12" x="994" y="554.4"/>
  <text dominant-baseline="middle" fill="#374151" font-family="DejaVu Sans, Courier New, Courier, monospace" font-size="12" font-weight="400" text-anchor="start" x="1014" y="560.4">standard-node</text>
</svg>