<?xml version="1.0" encoding="UTF-8"?>
<svg height="552" version="1.1" viewBox="0 0 1200 552" width="1200" xmlns="http://www.w3.org/2000/svg">
<defs>
  <linearGradient gradientUnits="userSpaceOnUse" id="sg-90-160-1110-480-719af2-1f54c8" x1="90" x2="1110" y1="160" y2="480">
    <stop offset="0%" stop-color="#719af2"/>
    <stop offset="100%" stop-color="#1f54c8"/>
  </linearGradient>
</defs>

  <rect fill="#FFFFFF" height="552" width="1200" x="0" y="0"/>
  <text dominant-baseline="hanging" fill="#111111" font-family="DejaVu Sans, Courier New, Courier, monospace" font-size="26.67" font-weight="700" text-anchor="middle" x="600" y="33.33">Project Journey</text>
  <text dominant-baseline="hanging" fill="#555555" font-family="DejaVu Sans, Courier New, Courier, monospace" font-size="17.33" font-weight="400" text-anchor="middle" x="600" y="74.33">A winding path of milestones — 2020 to 2024</text>
  <path d="M 90 160 L 1110 160 A 80 80 0 1 1 1110 320 L 90 320 A 80 80 0 1 0 90 480 L 1110 480" fill="none" opacity="0.6" stroke="#719af2" stroke-linecap="round" stroke-width="18" transform="translate(0,0)"/>
  <path d="M 90 160 L 1110 160 A 80 80 0 1 1 1110 320 L 90 320 A 80 80 0 1 0 90 480 L 1110 480" fill="none" stroke="url(#sg-90-160-1110-480-719af2-1f54c8)" stroke-linecap="round" stroke-width="14"/>
  <circle cx="287.93" cy="160" fill="#FFFFFF" r="10" stroke="#2563EB" stroke-width="3"/>
  <text dominant-baseline="hanging" fill="#111111" font-family="DejaVu Sans, Courier New, Courier, monospace" font-size="12" font-weight="600" text-anchor="middle" x="287.93" y="183.6">Kickoff</text>
  <circle cx="683.78" cy="160" fill="#FFFFFF" r="10" stroke="#2563EB" stroke-width="3"/>
  <text dominant-baseline="hanging" fill="#111111" font-family="DejaVu Sans, Courier New, Courier, monospace" font-size="12" font-weight="600" text-anchor="middle" x="683.78" y="183.6">Alpha</text>
  <circle cx="1079.63" cy="160" fill="#FFFFFF" r="10" stroke="#2563EB" stroke-width="3"/>
  <text dominant-baseline="hanging" fill="#111111" font-family="DejaVu Sans, Courier New, Courier, monospace" font-size="12" font-weight="600" text-anchor="middle" x="1079.63" y="183.6">Beta Launch</text>
  <circle cx="995.85" cy="320" fill="#FFFFFF" r="10" stroke="#2563EB" stroke-width="3"/>
  <text dominant-baseline="alphabetic" fill="#111111" font-family="DejaVu Sans, Courier New, Courier, monospace" font-size="12" font-weight="600" text-anchor="middle" x="995.85" y="306">V1.0 Release</text>
  <circle cx="600" cy="320" fill="#FFFFFF" r="10" stroke="#2563EB" stroke-width="3"/>
  <text dominant-baseline="alphabetic" fill="#111111" font-family="DejaVu Sans, Courier New, Courier, monospace" font-size="12" font-weight="600" text-anchor="middle" x="600" y="306">Open Source</text>
  <circle cx="204.15" cy="320" fill="#FFFFFF" r="10" stroke="#2563EB" stroke-width="3"/>
  <text dominant-baseline="alphabetic" fill="#111111" font-family="DejaVu Sans, Courier New, Courier, monospace" font-size="12" font-weight="600" text-anchor="middle" x="204.15" y="306">Cloud Platform</text>
  <circle cx="120.38" cy="480" fill="#FFFFFF" r="10" stroke="#2563EB" stroke-width="3"/>
  <text dominant-baseline="hanging" fill="#111111" font-family="DejaVu Sans, Courier New, Courier, monospace" font-size="12" font-weight="600" text-anchor="middle" x="120.38" y="503.6">Enterprise V2</text>
  <circle cx="516.23" cy="480" fill="#FFFFFF" r="10" stroke="#2563EB" stroke-width="3"/>
  <text dominant-baseline="hanging" fill="#111111" font-family="DejaVu Sans, Courier New, Courier, monospace" font-size="12" font-weight="600" text-anchor="middle" x="516.23" y="503.6">API v3</text>
  <circle cx="912.08" cy="480" fill="#FFFFFF" r="10" stroke="#2563EB" stroke-width="3"/>
  <text dominant-baseline="hanging" fill="#111111" font-family="DejaVu Sans, Courier New, Courier, monospace" font-size="12" font-weight="600" text-anchor="middle" x="912.08" y="503.6">V4 Milestone</text>
  <circle cx="90" cy="160" fill="#1e4fbc" r="22" stroke="#1e4fbc" stroke-width="2"/>
  <path d="M 5 3 L 21 12 L 5 21 Z" fill="#FFFFFF" stroke-linecap="round" transform="translate(75.72,145.72) scale(1.19)"/>
  <circle cx="1110" cy="480" fill="#1e4fbc" r="22" stroke="#1e4fbc" stroke-width="2"/>
  <path d="M 3 12 A 9 9 0 1 0 21 12 A 9 9 0 1 0 3 12 M 7 12 A 5 5 0 1 0 17 12 A 5 5 0 1 0 7 12 M 10 12 A 2 2 0 1 0 14 12 A 2 2 0 1 0 10 12" fill="none" stroke="#FFFFFF" stroke-linecap="round" stroke-width="1.26" transform="translate(1095.72,465.72) scale(1.19)"/>
</svg>