<svg xmlns="http://www.w3.org/2000/svg" viewBox="0 0 233.54 320" width="233.54" height="320">
  <defs>
    <marker id="queue-arrow-fwd" markerWidth="9" markerHeight="9" refX="7" refY="4" orient="auto"><path d="M0 0 L8 4 L0 8 z" fill="#4A90D9" /></marker><marker id="queue-arrow-rev" markerWidth="9" markerHeight="9" refX="2" refY="4" orient="auto"><path d="M8 0 L0 4 L8 8 z" fill="#4A90D9" /></marker>
  </defs>
  <rect x="0" y="0" width="233.54" height="320" fill="#FFFFFF" />
  <rect x="94.67" y="56" width="46" height="40" fill="#FFFFFF" stroke="#CBD5E1" stroke-width="1.5" rx="3" />
  <text x="88.67" y="80" font-size="11" font-family="Inter, system-ui, -apple-system, sans-serif" fill="#64748B" text-anchor="end">0</text>
  <rect x="94.67" y="96" width="46" height="40" fill="#F8FAFC" stroke="#CBD5E1" stroke-width="1.5" rx="3" />
  <text x="117.67" y="121" font-size="14" font-family="Inter, system-ui, -apple-system, sans-serif" fill="#1E293B" text-anchor="middle" font-weight="bold">B</text>
  <text x="88.67" y="120" font-size="11" font-family="Inter, system-ui, -apple-system, sans-serif" fill="#64748B" text-anchor="end">1</text>
  <rect x="94.67" y="136" width="46" height="40" fill="#F8FAFC" stroke="#CBD5E1" stroke-width="1.5" rx="3" />
  <text x="117.67" y="161" font-size="14" font-family="Inter, system-ui, -apple-system, sans-serif" fill="#1E293B" text-anchor="middle" font-weight="bold">C</text>
  <text x="88.67" y="160" font-size="11" font-family="Inter, system-ui, -apple-system, sans-serif" fill="#64748B" text-anchor="end">2</text>
  <rect x="94.67" y="176" width="46" height="40" fill="#F8FAFC" stroke="#CBD5E1" stroke-width="1.5" rx="3" />
  <text x="117.67" y="201" font-size="14" font-family="Inter, system-ui, -apple-system, sans-serif" fill="#1E293B" text-anchor="middle" font-weight="bold">D</text>
  <text x="88.67" y="200" font-size="11" font-family="Inter, system-ui, -apple-system, sans-serif" fill="#64748B" text-anchor="end">3</text>
  <rect x="94.67" y="216" width="46" height="40" fill="#FFFFFF" stroke="#CBD5E1" stroke-width="1.5" rx="3" />
  <text x="88.67" y="240" font-size="11" font-family="Inter, system-ui, -apple-system, sans-serif" fill="#64748B" text-anchor="end">4</text>
  <rect x="94.67" y="256" width="46" height="40" fill="#F8FAFC" stroke="#CBD5E1" stroke-width="1.5" rx="3" />
  <text x="117.67" y="281" font-size="14" font-family="Inter, system-ui, -apple-system, sans-serif" fill="#1E293B" text-anchor="middle" font-weight="bold">F</text>
  <text x="88.67" y="280" font-size="11" font-family="Inter, system-ui, -apple-system, sans-serif" fill="#64748B" text-anchor="end">5</text>
  <text x="50.67" y="42" font-size="18" font-family="Inter, system-ui, -apple-system, sans-serif" fill="#1E293B" font-weight="bold">vertical ring buffer</text>
  <path d="M 94.67 276 C 58.67 276, 58.67 116, 94.67 116" stroke="#4A90D9" stroke-width="1.5" fill="none" marker-end="url(#queue-arrow-fwd)" />
  <text x="54.67" y="200" font-size="11" font-family="Inter, system-ui, -apple-system, sans-serif" fill="#64748B" text-anchor="end">mod 6</text>
  <path d="M 174.67 116 L 144.67 116" stroke="#7C3AED" stroke-width="1.5" fill="none" marker-end="url(#queue-arrow-fwd)" />
  <text x="180.67" y="120" font-size="14" font-family="Inter, system-ui, -apple-system, sans-serif" fill="#7C3AED" text-anchor="start" font-weight="bold">front</text>
  <path d="M 174.67 276 L 144.67 276" stroke="#4A90D9" stroke-width="1.5" fill="none" marker-end="url(#queue-arrow-fwd)" />
  <text x="180.67" y="280" font-size="14" font-family="Inter, system-ui, -apple-system, sans-serif" fill="#4A90D9" text-anchor="start" font-weight="bold">rear</text>
</svg>