<svg xmlns="http://www.w3.org/2000/svg" viewBox="0 0 424 196" width="424" height="196">
  <defs>
    <marker id="queue-arrow-fwd" markerWidth="9" markerHeight="9" refX="7" refY="4" orient="auto"><path d="M0 0 L8 4 L0 8 z" fill="#4A90D9" /></marker><marker id="queue-arrow-rev" markerWidth="9" markerHeight="9" refX="2" refY="4" orient="auto"><path d="M8 0 L0 4 L8 8 z" fill="#4A90D9" /></marker>
  </defs>
  <rect width="100%" height="100%" fill="#FFFFFF" />
  <rect x="74" y="84" width="46" height="40" fill="#F8FAFC" stroke="#CBD5E1" stroke-width="1.5" rx="3" />
  <text x="97" y="109" font-size="14" font-family="Inter, system-ui, -apple-system, sans-serif" fill="#1E293B" text-anchor="middle" font-weight="bold">A</text>
  <rect x="120" y="84" width="46" height="40" fill="#F8FAFC" stroke="#CBD5E1" stroke-width="1.5" rx="3" />
  <text x="143" y="109" font-size="14" font-family="Inter, system-ui, -apple-system, sans-serif" fill="#1E293B" text-anchor="middle" font-weight="bold">B</text>
  <rect x="166" y="84" width="46" height="40" fill="#F8FAFC" stroke="#CBD5E1" stroke-width="1.5" rx="3" />
  <text x="189" y="109" font-size="14" font-family="Inter, system-ui, -apple-system, sans-serif" fill="#1E293B" text-anchor="middle" font-weight="bold">C</text>
  <rect x="212" y="84" width="46" height="40" fill="#FFFFFF" stroke="#CBD5E1" stroke-width="1.5" rx="3" />
  <rect x="258" y="84" width="46" height="40" fill="#FFFFFF" stroke="#CBD5E1" stroke-width="1.5" rx="3" />
  <rect x="304" y="84" width="46" height="40" fill="#FFFFFF" stroke="#CBD5E1" stroke-width="1.5" rx="3" />
  <text x="24" y="42" font-size="18" font-family="Inter, system-ui, -apple-system, sans-serif" fill="#1E293B" font-weight="bold">task queue</text>
  <path d="M 74 104 L 24 104" stroke="#4A90D9" stroke-width="1.5" fill="none" marker-end="url(#queue-arrow-fwd)" />
  <text x="49" y="76" font-size="14" font-family="Inter, system-ui, -apple-system, sans-serif" fill="#4A90D9" text-anchor="middle" font-weight="bold">dequeue</text>
  <path d="M 400 104 L 350 104" stroke="#4A90D9" stroke-width="1.5" fill="none" marker-end="url(#queue-arrow-fwd)" />
  <text x="375" y="76" font-size="14" font-family="Inter, system-ui, -apple-system, sans-serif" fill="#4A90D9" text-anchor="middle" font-weight="bold">enqueue</text>
  <path d="M 97 154 L 97 128" stroke="#7C3AED" stroke-width="1.5" fill="none" marker-end="url(#queue-arrow-fwd)" />
  <text x="97" y="168" font-size="14" font-family="Inter, system-ui, -apple-system, sans-serif" fill="#7C3AED" text-anchor="middle" font-weight="bold">front</text>
  <path d="M 189 154 L 189 128" stroke="#4A90D9" stroke-width="1.5" fill="none" marker-end="url(#queue-arrow-fwd)" />
  <text x="189" y="168" font-size="14" font-family="Inter, system-ui, -apple-system, sans-serif" fill="#4A90D9" text-anchor="middle" font-weight="bold">rear</text>
</svg>