<svg xmlns="http://www.w3.org/2000/svg" viewBox="0 0 428.64 205.5" width="428.64" height="205.5">
  <defs>
    <marker id="queue-arrow-fwd" markerWidth="9" markerHeight="9" refX="7" refY="4" orient="auto"><path d="M0 0 L8 4 L0 8 z" fill="#4A90D9" /></marker><marker id="queue-arrow-rev" markerWidth="9" markerHeight="9" refX="2" refY="4" orient="auto"><path d="M8 0 L0 4 L8 8 z" fill="#4A90D9" /></marker>
  </defs>
  <rect x="0" y="0" width="428.64" height="205.5" fill="#FFFFFF" />
  <rect x="76.32" y="84" width="46" height="40" fill="#F8FAFC" stroke="#CBD5E1" stroke-width="1.5" rx="3" />
  <text x="99.32" y="109" font-size="14" font-family="Inter, system-ui, -apple-system, sans-serif" fill="#1E293B" text-anchor="middle" font-weight="bold">A</text>
  <rect x="122.32" y="84" width="46" height="40" fill="#F8FAFC" stroke="#CBD5E1" stroke-width="1.5" rx="3" />
  <text x="145.32" y="109" font-size="14" font-family="Inter, system-ui, -apple-system, sans-serif" fill="#1E293B" text-anchor="middle" font-weight="bold">B</text>
  <rect x="168.32" y="84" width="46" height="40" fill="#F8FAFC" stroke="#CBD5E1" stroke-width="1.5" rx="3" />
  <text x="191.32" y="109" font-size="14" font-family="Inter, system-ui, -apple-system, sans-serif" fill="#1E293B" text-anchor="middle" font-weight="bold">C</text>
  <rect x="214.32" y="84" width="46" height="40" fill="#FFFFFF" stroke="#CBD5E1" stroke-width="1.5" rx="3" />
  <rect x="260.32" y="84" width="46" height="40" fill="#FFFFFF" stroke="#CBD5E1" stroke-width="1.5" rx="3" />
  <rect x="306.32" y="84" width="46" height="40" fill="#FFFFFF" stroke="#CBD5E1" stroke-width="1.5" rx="3" />
  <text x="26.32" y="42" font-size="18" font-family="Inter, system-ui, -apple-system, sans-serif" fill="#1E293B" font-weight="bold">task queue</text>
  <path d="M 76.32 104 L 26.32 104" stroke="#4A90D9" stroke-width="1.5" fill="none" marker-end="url(#queue-arrow-fwd)" />
  <text x="51.32" y="76" font-size="14" font-family="Inter, system-ui, -apple-system, sans-serif" fill="#4A90D9" text-anchor="middle" font-weight="bold">dequeue</text>
  <path d="M 402.32 104 L 352.32 104" stroke="#4A90D9" stroke-width="1.5" fill="none" marker-end="url(#queue-arrow-fwd)" />
  <text x="377.32" y="76" font-size="14" font-family="Inter, system-ui, -apple-system, sans-serif" fill="#4A90D9" text-anchor="middle" font-weight="bold">enqueue</text>
  <path d="M 99.32 158 L 99.32 128" stroke="#7C3AED" stroke-width="1.5" fill="none" marker-end="url(#queue-arrow-fwd)" />
  <text x="99.32" y="178" font-size="14" font-family="Inter, system-ui, -apple-system, sans-serif" fill="#7C3AED" text-anchor="middle" font-weight="bold">front</text>
  <path d="M 191.32 158 L 191.32 128" stroke="#4A90D9" stroke-width="1.5" fill="none" marker-end="url(#queue-arrow-fwd)" />
  <text x="191.32" y="178" font-size="14" font-family="Inter, system-ui, -apple-system, sans-serif" fill="#4A90D9" text-anchor="middle" font-weight="bold">rear</text>
</svg>