<svg xmlns="http://www.w3.org/2000/svg" viewBox="0 0 200.37 380.75" width="200.37" height="380.75">
  <defs>
    <marker id="queue-arrow-fwd" markerWidth="9" markerHeight="9" refX="7" refY="4" orient="auto"><path d="M0 0 L8 4 L0 8 z" fill="#4A90D9" /></marker><marker id="queue-arrow-rev" markerWidth="9" markerHeight="9" refX="2" refY="4" orient="auto"><path d="M8 0 L0 4 L8 8 z" fill="#4A90D9" /></marker>
  </defs>
  <rect x="0" y="0" width="200.37" height="380.75" fill="#FFFFFF" />
  <rect x="24" y="106" width="64.57759999999999" height="40" fill="#F8FAFC" stroke="#CBD5E1" stroke-width="1.5" rx="3" />
  <text x="56.29" y="131" font-size="14" font-family="Inter, system-ui, -apple-system, sans-serif" fill="#1E293B" text-anchor="middle" font-weight="bold">parse</text>
  <rect x="24" y="146" width="64.57759999999999" height="40" fill="#F8FAFC" stroke="#CBD5E1" stroke-width="1.5" rx="3" />
  <text x="56.29" y="171" font-size="14" font-family="Inter, system-ui, -apple-system, sans-serif" fill="#1E293B" text-anchor="middle" font-weight="bold">plan</text>
  <rect x="24" y="186" width="64.57759999999999" height="40" fill="#F8FAFC" stroke="#CBD5E1" stroke-width="1.5" rx="3" />
  <text x="56.29" y="211" font-size="14" font-family="Inter, system-ui, -apple-system, sans-serif" fill="#1E293B" text-anchor="middle" font-weight="bold">render</text>
  <rect x="24" y="226" width="64.57759999999999" height="40" fill="#FFFFFF" stroke="#CBD5E1" stroke-width="1.5" rx="3" />
  <rect x="24" y="266" width="64.57759999999999" height="40" fill="#FFFFFF" stroke="#CBD5E1" stroke-width="1.5" rx="3" />
  <text x="24" y="42" font-size="18" font-family="Inter, system-ui, -apple-system, sans-serif" fill="#1E293B" font-weight="bold">vertical task queue</text>
  <path d="M 56.29 106 L 56.29 56" stroke="#4A90D9" stroke-width="1.5" fill="none" marker-end="url(#queue-arrow-fwd)" />
  <text x="56.29" y="75" font-size="14" font-family="Inter, system-ui, -apple-system, sans-serif" fill="#4A90D9" text-anchor="middle" font-weight="bold">dequeue</text>
  <path d="M 56.29 356 L 56.29 306" stroke="#4A90D9" stroke-width="1.5" fill="none" marker-end="url(#queue-arrow-fwd)" />
  <text x="56.29" y="345" font-size="14" font-family="Inter, system-ui, -apple-system, sans-serif" fill="#4A90D9" text-anchor="middle" font-weight="bold">enqueue</text>
  <path d="M 122.58 126 L 92.58 126" stroke="#7C3AED" stroke-width="1.5" fill="none" marker-end="url(#queue-arrow-fwd)" />
  <text x="128.58" y="130" font-size="14" font-family="Inter, system-ui, -apple-system, sans-serif" fill="#7C3AED" text-anchor="start" font-weight="bold">front</text>
  <path d="M 122.58 206 L 92.58 206" stroke="#4A90D9" stroke-width="1.5" fill="none" marker-end="url(#queue-arrow-fwd)" />
  <text x="128.58" y="210" font-size="14" font-family="Inter, system-ui, -apple-system, sans-serif" fill="#4A90D9" text-anchor="start" font-weight="bold">rear</text>
</svg>