<svg xmlns="http://www.w3.org/2000/svg" viewBox="-24 -24 448 274" width="448" height="274">
  <defs>
    <marker id="arch-arrow-end" markerUnits="userSpaceOnUse" markerWidth="16" markerHeight="13" refX="14.4" refY="6.5" orient="auto"><polygon points="0 0, 16 6.5, 0 13" fill="#4A90D9" /></marker>
    <marker id="arch-arrow-start" markerUnits="userSpaceOnUse" markerWidth="16" markerHeight="13" refX="1.6" refY="6.5" orient="auto-start-reverse"><polygon points="0 0, 16 6.5, 0 13" fill="#4A90D9" /></marker>
  </defs>
  <rect x="-24" y="-24" width="448" height="274" fill="#FFFFFF" />
  <path d="M 154 52 L 244 52" stroke="#4A90D9" stroke-width="1.6" fill="none" marker-end="url(#arch-arrow-end)" />
  <path d="M 89 80 L 89 144" stroke="#4A90D9" stroke-width="1.6" fill="none" marker-end="url(#arch-arrow-end)" />
  <path d="M 309 80 L 309 144" stroke="#4A90D9" stroke-width="1.6" fill="none" marker-end="url(#arch-arrow-end)" />
  <path d="M 154 172 L 244 172" stroke="#4A90D9" stroke-width="1.6" fill="none" marker-end="url(#arch-arrow-end)" />
  <rect x="24" y="24" width="130" height="56" fill="#F8FAFC" stroke="#CBD5E1" stroke-width="1.4" rx="8" />
  <rect x="24" y="24" width="130" height="8" fill="#7C3AED" stroke="#7C3AED" stroke-width="0" rx="4" />
  <rect x="79" y="35" width="20" height="5" fill="#F8FAFC" stroke="#7C3AED" stroke-width="1.3" rx="1" />
  <rect x="79" y="42" width="20" height="5" fill="#F8FAFC" stroke="#7C3AED" stroke-width="1.3" rx="1" />
  <rect x="79" y="49" width="20" height="5" fill="#F8FAFC" stroke="#7C3AED" stroke-width="1.3" rx="1" />
  <text x="89" y="75.9" font-size="14" font-family="Inter, system-ui, -apple-system, sans-serif" fill="#1E293B" text-anchor="middle" font-weight="bold">A</text>
  <rect x="244" y="24" width="130" height="56" fill="#F8FAFC" stroke="#CBD5E1" stroke-width="1.4" rx="8" />
  <rect x="244" y="24" width="130" height="8" fill="#0EA5A8" stroke="#0EA5A8" stroke-width="0" rx="4" />
  <rect x="299" y="35" width="20" height="5" fill="#F8FAFC" stroke="#0EA5A8" stroke-width="1.3" rx="1" />
  <rect x="299" y="42" width="20" height="5" fill="#F8FAFC" stroke="#0EA5A8" stroke-width="1.3" rx="1" />
  <rect x="299" y="49" width="20" height="5" fill="#F8FAFC" stroke="#0EA5A8" stroke-width="1.3" rx="1" />
  <text x="309" y="75.9" font-size="14" font-family="Inter, system-ui, -apple-system, sans-serif" fill="#1E293B" text-anchor="middle" font-weight="bold">B</text>
  <rect x="24" y="144" width="130" height="56" fill="#F8FAFC" stroke="#CBD5E1" stroke-width="1.4" rx="8" />
  <rect x="24" y="144" width="130" height="8" fill="#D97706" stroke="#D97706" stroke-width="0" rx="4" />
  <rect x="80" y="155" width="18" height="18" fill="#F8FAFC" stroke="#D97706" stroke-width="1.3" rx="5" />
  <path d="M 80 161 Q 89 165, 98 161" stroke="#D97706" stroke-width="1.3" fill="none" />
  <text x="89" y="195.9" font-size="14" font-family="Inter, system-ui, -apple-system, sans-serif" fill="#1E293B" text-anchor="middle" font-weight="bold">C</text>
  <rect x="244" y="144" width="130" height="56" fill="#F8FAFC" stroke="#CBD5E1" stroke-width="1.4" rx="8" />
  <rect x="244" y="144" width="130" height="8" fill="#5B4FCF" stroke="#5B4FCF" stroke-width="0" rx="4" />
  <rect x="300" y="155" width="18" height="18" fill="#F8FAFC" stroke="#5B4FCF" stroke-width="1.3" rx="5" />
  <path d="M 300 161 Q 309 165, 318 161" stroke="#5B4FCF" stroke-width="1.3" fill="none" />
  <text x="309" y="195.9" font-size="14" font-family="Inter, system-ui, -apple-system, sans-serif" fill="#1E293B" text-anchor="middle" font-weight="bold">D</text>
</svg>