<svg xmlns="http://www.w3.org/2000/svg" viewBox="-24 -24 1134 180" width="1134" height="180">
  <defs>
    <marker id="arch-arrow-end" markerWidth="10" markerHeight="8" refX="9" refY="4" orient="auto"><polygon points="0 0, 10 4, 0 8" fill="#4A90D9" /></marker>
    <marker id="arch-arrow-start" markerWidth="10" markerHeight="8" refX="1" refY="4" orient="auto-start-reverse"><polygon points="0 0, 10 4, 0 8" fill="#4A90D9" /></marker>
  </defs>
  <rect x="-24" y="-24" width="1134" height="180" fill="#FFFFFF" />
  <path d="M 180 78 L 270 78" stroke="#4A90D9" stroke-width="1.6" fill="none" />
  <path d="M 400 78 L 490 78" stroke="#4A90D9" stroke-width="1.6" fill="none" marker-end="url(#arch-arrow-end)" />
  <path d="M 620 78 L 710 78" stroke="#4A90D9" stroke-width="1.6" fill="none" marker-start="url(#arch-arrow-start)" />
  <path d="M 840 78 L 930 78" stroke="#4A90D9" stroke-width="1.6" fill="none" marker-end="url(#arch-arrow-end)" marker-start="url(#arch-arrow-start)" />
  <rect x="50" y="50" width="130" height="56" fill="#F8FAFC" stroke="#CBD5E1" stroke-width="1.4" rx="8" />
  <rect x="50" y="50" width="130" height="8" fill="#7C3AED" stroke="#7C3AED" stroke-width="0" rx="4" />
  <rect x="105" y="65" width="20" height="5" fill="#F8FAFC" stroke="#7C3AED" stroke-width="1.3" rx="1" />
  <rect x="105" y="72" width="20" height="5" fill="#F8FAFC" stroke="#7C3AED" stroke-width="1.3" rx="1" />
  <rect x="105" y="79" width="20" height="5" fill="#F8FAFC" stroke="#7C3AED" stroke-width="1.3" rx="1" />
  <text x="115" y="97" font-size="14" font-family="Inter, system-ui, -apple-system, sans-serif" fill="#1E293B" text-anchor="middle" font-weight="bold">Alpha</text>
  <rect x="270" y="50" width="130" height="56" fill="#F8FAFC" stroke="#CBD5E1" stroke-width="1.4" rx="8" />
  <rect x="270" y="50" width="130" height="8" fill="#0EA5A8" stroke="#0EA5A8" stroke-width="0" rx="4" />
  <rect x="325" y="65" width="20" height="5" fill="#F8FAFC" stroke="#0EA5A8" stroke-width="1.3" rx="1" />
  <rect x="325" y="72" width="20" height="5" fill="#F8FAFC" stroke="#0EA5A8" stroke-width="1.3" rx="1" />
  <rect x="325" y="79" width="20" height="5" fill="#F8FAFC" stroke="#0EA5A8" stroke-width="1.3" rx="1" />
  <text x="335" y="97" font-size="14" font-family="Inter, system-ui, -apple-system, sans-serif" fill="#1E293B" text-anchor="middle" font-weight="bold">Beta</text>
  <rect x="490" y="50" width="130" height="56" fill="#F8FAFC" stroke="#CBD5E1" stroke-width="1.4" rx="8" />
  <rect x="490" y="50" width="130" height="8" fill="#D97706" stroke="#D97706" stroke-width="0" rx="4" />
  <rect x="545" y="65" width="20" height="5" fill="#F8FAFC" stroke="#D97706" stroke-width="1.3" rx="1" />
  <rect x="545" y="72" width="20" height="5" fill="#F8FAFC" stroke="#D97706" stroke-width="1.3" rx="1" />
  <rect x="545" y="79" width="20" height="5" fill="#F8FAFC" stroke="#D97706" stroke-width="1.3" rx="1" />
  <text x="555" y="97" font-size="14" font-family="Inter, system-ui, -apple-system, sans-serif" fill="#1E293B" text-anchor="middle" font-weight="bold">Gamma</text>
  <rect x="710" y="50" width="130" height="56" fill="#F8FAFC" stroke="#CBD5E1" stroke-width="1.4" rx="8" />
  <rect x="710" y="50" width="130" height="8" fill="#5B4FCF" stroke="#5B4FCF" stroke-width="0" rx="4" />
  <rect x="765" y="65" width="20" height="5" fill="#F8FAFC" stroke="#5B4FCF" stroke-width="1.3" rx="1" />
  <rect x="765" y="72" width="20" height="5" fill="#F8FAFC" stroke="#5B4FCF" stroke-width="1.3" rx="1" />
  <rect x="765" y="79" width="20" height="5" fill="#F8FAFC" stroke="#5B4FCF" stroke-width="1.3" rx="1" />
  <text x="775" y="97" font-size="14" font-family="Inter, system-ui, -apple-system, sans-serif" fill="#1E293B" text-anchor="middle" font-weight="bold">Delta</text>
  <rect x="930" y="50" width="130" height="56" fill="#F8FAFC" stroke="#CBD5E1" stroke-width="1.4" rx="8" />
  <rect x="930" y="50" width="130" height="8" fill="#DB2777" stroke="#DB2777" stroke-width="0" rx="4" />
  <rect x="985" y="65" width="20" height="5" fill="#F8FAFC" stroke="#DB2777" stroke-width="1.3" rx="1" />
  <rect x="985" y="72" width="20" height="5" fill="#F8FAFC" stroke="#DB2777" stroke-width="1.3" rx="1" />
  <rect x="985" y="79" width="20" height="5" fill="#F8FAFC" stroke="#DB2777" stroke-width="1.3" rx="1" />
  <text x="995" y="97" font-size="14" font-family="Inter, system-ui, -apple-system, sans-serif" fill="#1E293B" text-anchor="middle" font-weight="bold">Epsilon</text>
</svg>