<svg xmlns="http://www.w3.org/2000/svg" viewBox="-24 -24 494 300" width="494" height="300">
  <defs>
    <marker id="arch-arrow-end" markerWidth="10" markerHeight="8" refX="9" refY="4" orient="auto"><polygon points="0 0, 10 4, 0 8" fill="#4A90D9" /></marker>
    <marker id="arch-arrow-start" markerWidth="10" markerHeight="8" refX="1" refY="4" orient="auto-start-reverse"><polygon points="0 0, 10 4, 0 8" fill="#4A90D9" /></marker>
  </defs>
  <rect x="-24" y="-24" width="494" height="300" fill="#FFFFFF" />
  <rect x="30" y="16" width="170" height="210" fill="#7C3AED14" stroke="#7C3AED" stroke-width="1.4" rx="10" />
  <text x="42" y="32" font-size="11" font-family="Inter, system-ui, -apple-system, sans-serif" fill="#7C3AED" font-weight="bold">Group A</text>
  <rect x="250" y="66" width="170" height="110" fill="#0EA5A814" stroke="#0EA5A8" stroke-width="1.4" rx="10" />
  <text x="262" y="82" font-size="11" font-family="Inter, system-ui, -apple-system, sans-serif" fill="#0EA5A8" font-weight="bold">Group B</text>
  <path d="M 200 121 L 250 121" stroke="#4A90D9" stroke-width="1.6" fill="none" marker-end="url(#arch-arrow-end)" />
  <path d="M 180 78 L 225 78 L 225 128 L 270 128" stroke="#4A90D9" stroke-width="1.6" fill="none" marker-end="url(#arch-arrow-end)" />
  <rect x="50" y="150" width="130" height="56" fill="#F8FAFC" stroke="#CBD5E1" stroke-width="1.4" rx="8" />
  <rect x="50" y="150" width="130" height="8" fill="#7C3AED" stroke="#7C3AED" stroke-width="0" rx="4" />
  <rect x="105" y="165" width="20" height="5" fill="#F8FAFC" stroke="#7C3AED" stroke-width="1.3" rx="1" />
  <rect x="105" y="172" width="20" height="5" fill="#F8FAFC" stroke="#7C3AED" stroke-width="1.3" rx="1" />
  <rect x="105" y="179" width="20" height="5" fill="#F8FAFC" stroke="#7C3AED" stroke-width="1.3" rx="1" />
  <text x="115" y="197" font-size="14" font-family="Inter, system-ui, -apple-system, sans-serif" fill="#1E293B" text-anchor="middle" font-weight="bold">Service A1</text>
  <rect x="50" y="50" width="130" height="56" fill="#F8FAFC" stroke="#CBD5E1" stroke-width="1.4" rx="8" />
  <rect x="50" y="50" width="130" height="8" fill="#0EA5A8" stroke="#0EA5A8" stroke-width="0" rx="4" />
  <rect x="105" y="65" width="20" height="5" fill="#F8FAFC" stroke="#0EA5A8" stroke-width="1.3" rx="1" />
  <rect x="105" y="72" width="20" height="5" fill="#F8FAFC" stroke="#0EA5A8" stroke-width="1.3" rx="1" />
  <rect x="105" y="79" width="20" height="5" fill="#F8FAFC" stroke="#0EA5A8" stroke-width="1.3" rx="1" />
  <text x="115" y="97" font-size="14" font-family="Inter, system-ui, -apple-system, sans-serif" fill="#1E293B" text-anchor="middle" font-weight="bold">Service A2</text>
  <rect x="270" y="100" width="130" height="56" fill="#F8FAFC" stroke="#CBD5E1" stroke-width="1.4" rx="8" />
  <rect x="270" y="100" width="130" height="8" fill="#D97706" stroke="#D97706" stroke-width="0" rx="4" />
  <rect x="326" y="115" width="18" height="18" fill="#F8FAFC" stroke="#D97706" stroke-width="1.3" rx="5" />
  <path d="M 326 121 Q 335 125, 344 121" stroke="#D97706" stroke-width="1.3" fill="none" />
  <text x="335" y="147" font-size="14" font-family="Inter, system-ui, -apple-system, sans-serif" fill="#1E293B" text-anchor="middle" font-weight="bold">Service B1</text>
</svg>