<svg xmlns="http://www.w3.org/2000/svg" viewBox="-24 -34 908 184" width="908" height="184">
  <defs>
    <marker id="arch-arrow-end" markerWidth="10" markerHeight="8" refX="9" refY="4" orient="auto"><polygon points="0 0, 10 4, 0 8" fill="#4A90D9" /></marker>
    <marker id="arch-arrow-start" markerWidth="10" markerHeight="8" refX="1" refY="4" orient="auto-start-reverse"><polygon points="0 0, 10 4, 0 8" fill="#4A90D9" /></marker>
  </defs>
  <rect x="-24" y="-34" width="908" height="184" fill="#FFFFFF" />
  <rect x="4" y="-10" width="830" height="110" fill="#7C3AED14" stroke="#7C3AED" stroke-width="1.4" rx="10" />
  <text x="16" y="6" font-size="11" font-family="Inter, system-ui, -apple-system, sans-serif" fill="#7C3AED" font-weight="bold">Group A</text>
  <rect x="224" y="-10" width="170" height="110" fill="#0EA5A814" stroke="#0EA5A8" stroke-width="1.4" rx="10" />
  <text x="236" y="6" font-size="11" font-family="Inter, system-ui, -apple-system, sans-serif" fill="#0EA5A8" font-weight="bold">Group B</text>
  <path d="M 834 45 L 858 45 L 858 14 L 200 14 L 200 45 L 224 45" stroke="#4A90D9" stroke-width="1.6" fill="none" marker-end="url(#arch-arrow-end)" />
  <path d="M 814 52 L 529 52 L 529 52 L 244 52" stroke="#4A90D9" stroke-width="1.6" fill="none" marker-end="url(#arch-arrow-end)" />
  <rect x="24" y="24" width="130" height="56" fill="#F8FAFC" stroke="#CBD5E1" stroke-width="1.4" rx="8" />
  <rect x="24" y="24" width="130" height="8" fill="#7C3AED" stroke="#7C3AED" stroke-width="0" rx="4" />
  <rect x="79" y="39" width="20" height="5" fill="#F8FAFC" stroke="#7C3AED" stroke-width="1.3" rx="1" />
  <rect x="79" y="46" width="20" height="5" fill="#F8FAFC" stroke="#7C3AED" stroke-width="1.3" rx="1" />
  <rect x="79" y="53" width="20" height="5" fill="#F8FAFC" stroke="#7C3AED" stroke-width="1.3" rx="1" />
  <text x="89" y="71" font-size="14" font-family="Inter, system-ui, -apple-system, sans-serif" fill="#1E293B" text-anchor="middle" font-weight="bold">Service A1</text>
  <rect x="684" y="24" width="130" height="56" fill="#F8FAFC" stroke="#CBD5E1" stroke-width="1.4" rx="8" />
  <rect x="684" y="24" width="130" height="8" fill="#0EA5A8" stroke="#0EA5A8" stroke-width="0" rx="4" />
  <rect x="739" y="39" width="20" height="5" fill="#F8FAFC" stroke="#0EA5A8" stroke-width="1.3" rx="1" />
  <rect x="739" y="46" width="20" height="5" fill="#F8FAFC" stroke="#0EA5A8" stroke-width="1.3" rx="1" />
  <rect x="739" y="53" width="20" height="5" fill="#F8FAFC" stroke="#0EA5A8" stroke-width="1.3" rx="1" />
  <text x="749" y="71" font-size="14" font-family="Inter, system-ui, -apple-system, sans-serif" fill="#1E293B" text-anchor="middle" font-weight="bold">Service A2</text>
  <rect x="244" y="24" width="130" height="56" fill="#F8FAFC" stroke="#CBD5E1" stroke-width="1.4" rx="8" />
  <rect x="244" y="24" width="130" height="8" fill="#D97706" stroke="#D97706" stroke-width="0" rx="4" />
  <rect x="300" y="39" width="18" height="18" fill="#F8FAFC" stroke="#D97706" stroke-width="1.3" rx="5" />
  <path d="M 300 45 Q 309 49, 318 45" stroke="#D97706" stroke-width="1.3" fill="none" />
  <text x="309" y="71" font-size="14" font-family="Inter, system-ui, -apple-system, sans-serif" fill="#1E293B" text-anchor="middle" font-weight="bold">Service B1</text>
</svg>