<svg xmlns="http://www.w3.org/2000/svg" viewBox="-24 -24 580 380" width="580" height="380">
  <defs>
    <marker id="arch-arrow-end" markerWidth="10" markerHeight="8" refX="9" refY="4" orient="auto"><polygon points="0 0, 10 4, 0 8" fill="#4A90D9" /></marker>
    <marker id="arch-arrow-start" markerWidth="10" markerHeight="8" refX="1" refY="4" orient="auto-start-reverse"><polygon points="0 0, 10 4, 0 8" fill="#4A90D9" /></marker>
  </defs>
  <rect x="-24" y="-24" width="580" height="380" fill="#FFFFFF" />
  <path d="M 180 178 L 270 178" stroke="#4A90D9" stroke-width="1.6" fill="none" marker-end="url(#arch-arrow-end)" />
  <path d="M 286 178 L 331 178 L 331 278 L 376 278" stroke="#4A90D9" stroke-width="1.6" fill="none" marker-end="url(#arch-arrow-end)" />
  <path d="M 278 170 L 278 188 L 441 188 L 441 206" stroke="#4A90D9" stroke-width="1.6" fill="none" marker-end="url(#arch-arrow-end)" />
  <path d="M 278 186 L 278 118 L 441 118 L 441 50" stroke="#4A90D9" stroke-width="1.6" fill="none" marker-end="url(#arch-arrow-end)" />
  <rect x="50" y="150" width="130" height="56" fill="#F8FAFC" stroke="#CBD5E1" stroke-width="1.4" rx="8" />
  <rect x="50" y="150" width="130" height="8" fill="#7C3AED" stroke="#7C3AED" stroke-width="0" rx="4" />
  <rect x="105" y="165" width="20" height="5" fill="#F8FAFC" stroke="#7C3AED" stroke-width="1.3" rx="1" />
  <rect x="105" y="172" width="20" height="5" fill="#F8FAFC" stroke="#7C3AED" stroke-width="1.3" rx="1" />
  <rect x="105" y="179" width="20" height="5" fill="#F8FAFC" stroke="#7C3AED" stroke-width="1.3" rx="1" />
  <text x="115" y="197" font-size="14" font-family="Inter, system-ui, -apple-system, sans-serif" fill="#1E293B" text-anchor="middle" font-weight="bold">Left</text>
  <rect x="376" y="250" width="130" height="56" fill="#F8FAFC" stroke="#CBD5E1" stroke-width="1.4" rx="8" />
  <rect x="376" y="250" width="130" height="8" fill="#0EA5A8" stroke="#0EA5A8" stroke-width="0" rx="4" />
  <rect x="431" y="265" width="20" height="5" fill="#F8FAFC" stroke="#0EA5A8" stroke-width="1.3" rx="1" />
  <rect x="431" y="272" width="20" height="5" fill="#F8FAFC" stroke="#0EA5A8" stroke-width="1.3" rx="1" />
  <rect x="431" y="279" width="20" height="5" fill="#F8FAFC" stroke="#0EA5A8" stroke-width="1.3" rx="1" />
  <text x="441" y="297" font-size="14" font-family="Inter, system-ui, -apple-system, sans-serif" fill="#1E293B" text-anchor="middle" font-weight="bold">Right</text>
  <rect x="376" y="150" width="130" height="56" fill="#F8FAFC" stroke="#CBD5E1" stroke-width="1.4" rx="8" />
  <rect x="376" y="150" width="130" height="8" fill="#D97706" stroke="#D97706" stroke-width="0" rx="4" />
  <circle cx="435" cy="176" r="6" fill="#F8FAFC" stroke="#D97706" stroke-width="1.3" />
  <circle cx="447" cy="176" r="6" fill="#F8FAFC" stroke="#D97706" stroke-width="1.3" />
  <circle cx="441" cy="171" r="7" fill="#F8FAFC" stroke="#D97706" stroke-width="1.3" />
  <rect x="431" y="176" width="20" height="6" fill="#F8FAFC" stroke="#F8FAFC" stroke-width="0" />
  <text x="441" y="197" font-size="14" font-family="Inter, system-ui, -apple-system, sans-serif" fill="#1E293B" text-anchor="middle" font-weight="bold">Top</text>
  <rect x="376" y="50" width="130" height="56" fill="#F8FAFC" stroke="#CBD5E1" stroke-width="1.4" rx="8" />
  <rect x="376" y="50" width="130" height="8" fill="#5B4FCF" stroke="#5B4FCF" stroke-width="0" rx="4" />
  <rect x="432" y="65" width="18" height="18" fill="#F8FAFC" stroke="#5B4FCF" stroke-width="1.3" rx="5" />
  <path d="M 432 71 Q 441 75, 450 71" stroke="#5B4FCF" stroke-width="1.3" fill="none" />
  <text x="441" y="97" font-size="14" font-family="Inter, system-ui, -apple-system, sans-serif" fill="#1E293B" text-anchor="middle" font-weight="bold">Bottom</text>
  <circle cx="278" cy="178" r="4" fill="#4A90D9" stroke="#4A90D9" stroke-width="0" />
  <path d="M 274 178 L 282 178 M 278 174 L 278 182" stroke="#4A90D9" stroke-width="1.6" fill="none" />
</svg>