<svg xmlns="http://www.w3.org/2000/svg" viewBox="-24 -34 1371 777" width="1371" height="777">
  <defs>
    <marker id="arch-arrow-end" markerUnits="userSpaceOnUse" markerWidth="16" markerHeight="13" refX="14.4" refY="6.5" orient="auto"><polygon points="0 0, 16 6.5, 0 13" fill="#4A90D9" /></marker>
    <marker id="arch-arrow-start" markerUnits="userSpaceOnUse" markerWidth="16" markerHeight="13" refX="1.6" refY="6.5" orient="auto-start-reverse"><polygon points="0 0, 16 6.5, 0 13" fill="#4A90D9" /></marker>
  </defs>
  <rect x="-24" y="-34" width="1371" height="777" fill="#FFFFFF" />
  <rect x="457" y="243" width="180" height="230" fill="#7C3AED14" stroke="#7C3AED" stroke-width="1.4" rx="10" />
  <circle cx="469" cy="261" r="6" fill="#F8FAFC" stroke="#7C3AED" stroke-width="1.3" />
  <circle cx="481" cy="261" r="6" fill="#F8FAFC" stroke="#7C3AED" stroke-width="1.3" />
  <circle cx="475" cy="256" r="7" fill="#F8FAFC" stroke="#7C3AED" stroke-width="1.3" />
  <rect x="465" y="261" width="20" height="6" fill="#F8FAFC" stroke="#F8FAFC" stroke-width="0" />
  <text x="491" y="259" font-size="11" font-family="Inter, system-ui, -apple-system, sans-serif" fill="#7C3AED" text-anchor="start" font-weight="bold">Edge Landing Zone</text>
  <rect x="907" y="243" width="390" height="230" fill="#0EA5A814" stroke="#0EA5A8" stroke-width="1.4" rx="10" />
  <circle cx="1273" cy="261" r="6" fill="#F8FAFC" stroke="#0EA5A8" stroke-width="1.3" />
  <circle cx="1285" cy="261" r="6" fill="#F8FAFC" stroke="#0EA5A8" stroke-width="1.3" />
  <circle cx="1279" cy="256" r="7" fill="#F8FAFC" stroke="#0EA5A8" stroke-width="1.3" />
  <rect x="1269" y="261" width="20" height="6" fill="#F8FAFC" stroke="#F8FAFC" stroke-width="0" />
  <text x="1263" y="259" font-size="11" font-family="Inter, system-ui, -apple-system, sans-serif" fill="#0EA5A8" text-anchor="end" font-weight="bold">Core Data Platform</text>
  <rect x="687" y="-10" width="170" height="123" fill="#D9770614" stroke="#D97706" stroke-width="1.4" rx="10" />
  <rect x="829" y="-3" width="20" height="5" fill="#F8FAFC" stroke="#D97706" stroke-width="1.3" rx="1" />
  <rect x="829" y="4" width="20" height="5" fill="#F8FAFC" stroke="#D97706" stroke-width="1.3" rx="1" />
  <rect x="829" y="11" width="20" height="5" fill="#F8FAFC" stroke="#D97706" stroke-width="1.3" rx="1" />
  <text x="823" y="6" font-size="11" font-family="Inter, system-ui, -apple-system, sans-serif" fill="#D97706" text-anchor="end" font-weight="bold">Operations Console</text>
  <defs>
    <linearGradient id="triton-flow-1jm8wjz" gradientUnits="userSpaceOnUse" x1="167" y1="305" x2="477" y2="314.3333333333333">
      <stop offset="0%" stop-color="#4A90D9" stop-opacity="0.75"/>
      <stop offset="20%" stop-color="#4A90D9" stop-opacity="0.85">
        <animate attributeName="offset" values="0%;60%;100%" dur="1.6s" repeatCount="indefinite"/>
      </stop>
      <stop offset="35%" stop-color="#FFFFFF" stop-opacity="1">
        <animate attributeName="offset" values="10%;70%;100%" dur="1.6s" repeatCount="indefinite"/>
      </stop>
      <stop offset="50%" stop-color="#4A90D9" stop-opacity="0.85">
        <animate attributeName="offset" values="20%;80%;100%" dur="1.6s" repeatCount="indefinite"/>
      </stop>
      <stop offset="100%" stop-color="#4A90D9" stop-opacity="0.75"/>
    </linearGradient>
  </defs>
  <path d="M 167 305 L 477 314.3333333333333" stroke="url(#triton-flow-1jm8wjz)" stroke-width="1.6" fill="none" stroke-dasharray="8 4" marker-end="url(#arch-arrow-end)" />
  <path d="M 547 333 C 547 333.49 547.01 334.97 547 335.95 C 546.99 336.94 546.63 337.92 546.95 338.9 C 547.28 339.89 548.89 340.87 548.95 341.86 C 549 342.84 548.11 343.83 547.29 344.81 C 546.47 345.79 544.15 346.78 544.02 347.76 C 543.9 348.75 545.56 349.73 546.55 350.71 C 547.54 351.7 549.78 352.68 549.95 353.67 C 550.13 354.65 548.59 355.82 547.59 356.62 C 546.59 357.41 544.4 357.54 543.95 358.43 C 543.5 359.33 544.36 360.71 544.9 361.98 C 545.44 363.25 547.3 365.05 547.19 366.06 C 547.08 367.08 545.49 367.51 544.24 368.07 C 542.99 368.63 540.23 368.56 539.68 369.45 C 539.14 370.33 540.12 372.23 540.97 373.38 C 541.83 374.53 544.43 375.35 544.79 376.33 C 545.16 377.32 544.09 378.3 543.16 379.29 C 542.24 380.27 539.67 381.25 539.27 382.24 C 538.86 383.22 539.98 384.21 540.73 385.19 C 541.47 386.17 543.45 387.16 543.74 388.14 C 544.03 389.13 542.75 390.11 542.46 391.1 C 542.17 392.08 542.08 393.06 542 394.05 C 541.92 395.03 542 396.51 542 397" stroke="#4A90D9" stroke-width="1.6" fill="none" marker-end="url(#arch-arrow-end)" />
  <circle r="3.2" fill="#4A90D9" opacity="0.9">
    <animateMotion dur="2s" begin="0s" repeatCount="indefinite" rotate="auto" path="M 547 333 L 547 333.49 L 547.01 334.97 L 547 335.95 L 546.99 336.94 L 546.63 337.92 L 546.95 338.9 L 547.28 339.89 L 548.89 340.87 L 548.95 341.86 L 549 342.84 L 548.11 343.83 L 547.29 344.81 L 546.47 345.79 L 544.15 346.78 L 544.02 347.76 L 543.9 348.75 L 545.56 349.73 L 546.55 350.71 L 547.54 351.7 L 549.78 352.68 L 549.95 353.67 L 550.13 354.65 L 548.59 355.82 L 547.59 356.62 L 546.59 357.41 L 544.4 357.54 L 543.95 358.43 L 543.5 359.33 L 544.36 360.71 L 544.9 361.98 L 545.44 363.25 L 547.3 365.05 L 547.19 366.06 L 547.08 367.08 L 545.49 367.51 L 544.24 368.07 L 542.99 368.63 L 540.23 368.56 L 539.68 369.45 L 539.14 370.33 L 540.12 372.23 L 540.97 373.38 L 541.83 374.53 L 544.43 375.35 L 544.79 376.33 L 545.16 377.32 L 544.09 378.3 L 543.16 379.29 L 543.028 379.43"/>
  </circle>
  <circle r="3.2" fill="#4A90D9" opacity="0.9">
    <animateMotion dur="2s" begin="-0.5s" repeatCount="indefinite" rotate="auto" path="M 547 333 L 547 333.49 L 547.01 334.97 L 547 335.95 L 546.99 336.94 L 546.63 337.92 L 546.95 338.9 L 547.28 339.89 L 548.89 340.87 L 548.95 341.86 L 549 342.84 L 548.11 343.83 L 547.29 344.81 L 546.47 345.79 L 544.15 346.78 L 544.02 347.76 L 543.9 348.75 L 545.56 349.73 L 546.55 350.71 L 547.54 351.7 L 549.78 352.68 L 549.95 353.67 L 550.13 354.65 L 548.59 355.82 L 547.59 356.62 L 546.59 357.41 L 544.4 357.54 L 543.95 358.43 L 543.5 359.33 L 544.36 360.71 L 544.9 361.98 L 545.44 363.25 L 547.3 365.05 L 547.19 366.06 L 547.08 367.08 L 545.49 367.51 L 544.24 368.07 L 542.99 368.63 L 540.23 368.56 L 539.68 369.45 L 539.14 370.33 L 540.12 372.23 L 540.97 373.38 L 541.83 374.53 L 544.43 375.35 L 544.79 376.33 L 545.16 377.32 L 544.09 378.3 L 543.16 379.29 L 543.028 379.43"/>
  </circle>
  <circle r="3.2" fill="#4A90D9" opacity="0.9">
    <animateMotion dur="2s" begin="-1s" repeatCount="indefinite" rotate="auto" path="M 547 333 L 547 333.49 L 547.01 334.97 L 547 335.95 L 546.99 336.94 L 546.63 337.92 L 546.95 338.9 L 547.28 339.89 L 548.89 340.87 L 548.95 341.86 L 549 342.84 L 548.11 343.83 L 547.29 344.81 L 546.47 345.79 L 544.15 346.78 L 544.02 347.76 L 543.9 348.75 L 545.56 349.73 L 546.55 350.71 L 547.54 351.7 L 549.78 352.68 L 549.95 353.67 L 550.13 354.65 L 548.59 355.82 L 547.59 356.62 L 546.59 357.41 L 544.4 357.54 L 543.95 358.43 L 543.5 359.33 L 544.36 360.71 L 544.9 361.98 L 545.44 363.25 L 547.3 365.05 L 547.19 366.06 L 547.08 367.08 L 545.49 367.51 L 544.24 368.07 L 542.99 368.63 L 540.23 368.56 L 539.68 369.45 L 539.14 370.33 L 540.12 372.23 L 540.97 373.38 L 541.83 374.53 L 544.43 375.35 L 544.79 376.33 L 545.16 377.32 L 544.09 378.3 L 543.16 379.29 L 543.028 379.43"/>
  </circle>
  <circle r="3.2" fill="#4A90D9" opacity="0.9">
    <animateMotion dur="2s" begin="-1.5s" repeatCount="indefinite" rotate="auto" path="M 547 333 L 547 333.49 L 547.01 334.97 L 547 335.95 L 546.99 336.94 L 546.63 337.92 L 546.95 338.9 L 547.28 339.89 L 548.89 340.87 L 548.95 341.86 L 549 342.84 L 548.11 343.83 L 547.29 344.81 L 546.47 345.79 L 544.15 346.78 L 544.02 347.76 L 543.9 348.75 L 545.56 349.73 L 546.55 350.71 L 547.54 351.7 L 549.78 352.68 L 549.95 353.67 L 550.13 354.65 L 548.59 355.82 L 547.59 356.62 L 546.59 357.41 L 544.4 357.54 L 543.95 358.43 L 543.5 359.33 L 544.36 360.71 L 544.9 361.98 L 545.44 363.25 L 547.3 365.05 L 547.19 366.06 L 547.08 367.08 L 545.49 367.51 L 544.24 368.07 L 542.99 368.63 L 540.23 368.56 L 539.68 369.45 L 539.14 370.33 L 540.12 372.23 L 540.97 373.38 L 541.83 374.53 L 544.43 375.35 L 544.79 376.33 L 545.16 377.32 L 544.09 378.3 L 543.16 379.29 L 543.028 379.43"/>
  </circle>
  <path d="M 607 425 L 927 305" stroke="#4A90D9" stroke-width="1.6" fill="none" stroke-dasharray="8 4" marker-end="url(#arch-arrow-end)" marker-start="url(#arch-arrow-start)">
    <animate attributeName="stroke-dashoffset" from="0" to="-12" dur="0.8s" repeatCount="indefinite"/>
  </path>
  <path d="M 992 333 C 992 333.48 992.01 334.94 992 335.91 C 991.99 336.88 991.6 337.85 991.91 338.82 C 992.23 339.79 993.78 340.76 993.89 341.73 C 994 342.7 993.35 343.67 992.54 344.64 C 991.74 345.61 989.32 346.58 989.08 347.55 C 988.85 348.52 990.2 349.48 991.15 350.45 C 992.11 351.42 994.51 352.39 994.84 353.36 C 995.16 354.33 994.04 355.3 993.11 356.27 C 992.19 357.24 989.69 358.21 989.27 359.18 C 988.86 360.15 989.74 361.12 990.63 362.09 C 991.51 363.06 994.1 364.03 994.6 365 C 995.1 365.97 994.46 366.94 993.62 367.91 C 992.78 368.88 990.14 369.85 989.56 370.82 C 988.98 371.79 989.36 372.76 990.15 373.73 C 990.93 374.7 993.61 375.67 994.27 376.64 C 994.92 377.61 994.79 378.58 994.07 379.55 C 993.35 380.52 990.64 381.48 989.93 382.45 C 989.22 383.42 989.28 384.39 989.82 385.36 C 990.37 386.33 992.69 387.3 993.18 388.27 C 993.67 389.24 992.96 390.21 992.77 391.18 C 992.57 392.15 992.13 393.12 992 394.09 C 991.87 395.06 992 396.52 992 397" stroke="#4A90D9" stroke-width="1.6" fill="none" />
  <circle r="4" fill="#4A90D9">
    <animateMotion dur="1.5s" begin="0s" repeatCount="indefinite" rotate="auto" path="M 992 333 C 992 333.48 992.01 334.94 992 335.91 C 991.99 336.88 991.6 337.85 991.91 338.82 C 992.23 339.79 993.78 340.76 993.89 341.73 C 994 342.7 993.35 343.67 992.54 344.64 C 991.74 345.61 989.32 346.58 989.08 347.55 C 988.85 348.52 990.2 349.48 991.15 350.45 C 992.11 351.42 994.51 352.39 994.84 353.36 C 995.16 354.33 994.04 355.3 993.11 356.27 C 992.19 357.24 989.69 358.21 989.27 359.18 C 988.86 360.15 989.74 361.12 990.63 362.09 C 991.51 363.06 994.1 364.03 994.6 365 C 995.1 365.97 994.46 366.94 993.62 367.91 C 992.78 368.88 990.14 369.85 989.56 370.82 C 988.98 371.79 989.36 372.76 990.15 373.73 C 990.93 374.7 993.61 375.67 994.27 376.64 C 994.92 377.61 994.79 378.58 994.07 379.55 C 993.35 380.52 990.64 381.48 989.93 382.45 C 989.22 383.42 989.28 384.39 989.82 385.36 C 990.37 386.33 992.69 387.3 993.18 388.27 C 993.67 389.24 992.96 390.21 992.77 391.18 C 992.57 392.15 992.13 393.12 992 394.09 C 991.87 395.06 992 396.52 992 397"/>
  </circle>
  <path d="M 1057 425 L 1147 425" stroke="#4A90D9" stroke-width="3.2" fill="none" stroke-dasharray="90 90" marker-end="url(#arch-arrow-end)">
    <animate attributeName="stroke-dashoffset" values="0;90;0" dur="2s" repeatCount="indefinite"/>
  </path>
  <path d="M 1212 397 C 1212 247 987 58.5 837 58.5" stroke="#4A90D9" stroke-width="1.6" fill="none" stroke-dasharray="6 3" marker-end="url(#arch-arrow-end)">
    <animate attributeName="stroke-opacity" values="1;0.3;1" dur="1.6s" repeatCount="indefinite"/>
  </path>
  <path d="M 772 93 C 771.59 93.28 770.36 94.13 769.54 94.69 C 768.72 95.25 767.71 95.53 767.07 96.36 C 766.44 97.2 766.55 99.12 765.75 99.7 C 764.94 100.28 763.52 99.97 762.23 99.85 C 760.94 99.72 758.86 98.45 758.01 98.97 C 757.17 99.5 757.41 101.61 757.16 103 C 756.9 104.38 757.27 106.67 756.49 107.29 C 755.7 107.91 753.84 106.95 752.46 106.69 C 751.07 106.43 749.05 105.24 748.18 105.74 C 747.32 106.23 747.52 108.28 747.26 109.66 C 747.01 111.05 747.41 113.39 746.65 114.04 C 745.89 114.68 744.07 113.79 742.69 113.54 C 741.3 113.28 739.24 112.03 738.35 112.5 C 737.47 112.97 737.62 114.95 737.37 116.33 C 737.11 117.71 737.55 120.11 736.81 120.78 C 736.07 121.46 734.29 120.63 732.91 120.38 C 731.53 120.13 729.44 118.83 728.53 119.27 C 727.62 119.7 727.73 121.62 727.47 123 C 727.21 124.37 727.69 126.82 726.96 127.52 C 726.24 128.23 724.52 127.47 723.14 127.23 C 721.77 126.98 719.63 125.63 718.71 126.04 C 717.78 126.45 717.84 128.29 717.58 129.66 C 717.31 131.03 717.82 133.53 717.12 134.26 C 716.42 135 714.74 134.31 713.37 134.07 C 712 133.83 709.83 132.44 708.89 132.81 C 707.94 133.19 707.95 134.97 707.68 136.33 C 707.42 137.69 707.95 140.23 707.27 141 C 706.59 141.76 704.96 141.15 703.6 140.91 C 702.23 140.68 700.04 139.24 699.07 139.59 C 698.1 139.94 698.07 141.64 697.79 143 C 697.52 144.35 698.08 146.94 697.42 147.73 C 696.76 148.52 695.18 147.98 693.82 147.76 C 692.46 147.53 690.24 146.05 689.25 146.37 C 688.27 146.69 688.18 148.32 687.9 149.67 C 687.62 151.02 688.21 153.64 687.57 154.46 C 686.93 155.28 685.4 154.81 684.05 154.6 C 682.69 154.38 680.45 152.87 679.44 153.16 C 678.43 153.45 678.29 155 678.01 156.34 C 677.72 157.68 678.34 160.33 677.72 161.18 C 677.1 162.03 675.62 161.65 674.27 161.44 C 672.92 161.23 670.65 159.68 669.63 159.94 C 668.6 160.2 668.41 161.68 668.11 163.01 C 667.82 164.34 668.46 167.03 667.86 167.91 C 667.26 168.79 665.84 168.47 664.5 168.28 C 663.16 168.08 660.86 166.5 659.82 166.73 C 658.77 166.97 658.53 168.37 658.22 169.68 C 657.92 171 658.59 173.72 658 174.63 C 657.42 175.53 656.05 175.3 654.72 175.12 C 653.39 174.93 651.07 173.32 650.01 173.53 C 648.95 173.73 648.65 175.05 648.33 176.36 C 648.02 177.66 648.71 180.41 648.14 181.34 C 647.58 182.28 646.27 182.12 644.94 181.95 C 643.62 181.78 641.29 180.14 640.2 180.32 C 639.12 180.5 638.77 181.74 638.45 183.03 C 638.13 184.32 638.83 187.1 638.28 188.06 C 637.73 189.02 636.48 188.94 635.16 188.79 C 633.85 188.63 631.5 186.97 630.4 187.12 C 629.3 187.27 628.89 188.43 628.56 189.71 C 628.23 190.98 628.95 193.78 628.42 194.77 C 627.89 195.75 626.69 195.76 625.38 195.62 C 624.08 195.48 621.72 193.8 620.6 193.92 C 619.48 194.05 619.01 195.13 618.67 196.39 C 618.33 197.64 619.06 200.46 618.55 201.48 C 618.04 202.49 616.9 202.58 615.6 202.45 C 614.31 202.33 611.94 200.63 610.8 200.73 C 609.66 200.83 609.14 201.82 608.79 203.07 C 608.43 204.31 609.18 207.14 608.68 208.18 C 608.19 209.22 607.1 209.39 605.82 209.28 C 604.54 209.17 602.15 207.46 601 207.53 C 599.85 207.61 599.27 208.52 598.9 209.75 C 598.54 210.97 599.29 213.82 598.81 214.88 C 598.34 215.94 597.31 216.2 596.04 216.11 C 594.77 216.02 592.38 214.29 591.21 214.34 C 590.04 214.4 589.4 215.23 589.02 216.43 C 588.64 217.64 589.4 220.5 588.94 221.58 C 588.48 222.67 587.51 223.01 586.25 222.94 C 585 222.87 582.6 221.13 581.41 221.16 C 580.23 221.19 579.53 221.93 579.14 223.12 C 578.75 224.31 579.51 227.17 579.07 228.28 C 578.62 229.39 577.71 229.81 576.47 229.76 C 575.22 229.71 572.82 227.96 571.62 227.97 C 570.42 227.98 569.67 228.64 569.26 229.81 C 568.86 230.97 569.62 233.85 569.19 234.97 C 568.76 236.1 567.91 236.61 566.68 236.58 C 565.45 236.55 563.04 234.8 561.83 234.79 C 560.61 234.78 559.8 235.35 559.38 236.5 C 558.96 237.64 559.73 240.52 559.32 241.67 C 558.9 242.82 558.1 243.41 556.89 243.4 C 555.68 243.39 553.27 241.65 552.04 241.61 C 550.81 241.57 549.94 242.07 549.51 243.19 C 549.07 244.31 549.84 247.19 549.44 248.36 C 549.04 249.53 548.3 250.21 547.1 250.22 C 545.9 250.23 543.5 248.49 542.25 248.43 C 541.01 248.38 540.08 248.78 539.63 249.89 C 539.18 250.99 539.95 253.85 539.56 255.04 C 539.17 256.24 538.49 257 537.3 257.03 C 536.12 257.07 533.72 255.33 532.47 255.26 C 531.21 255.18 530.22 255.5 529.76 256.58 C 529.29 257.66 530.05 260.52 529.68 261.73 C 529.3 262.94 528.68 263.79 527.51 263.84 C 526.34 263.9 523.95 262.18 522.68 262.08 C 521.41 261.99 520.37 262.23 519.89 263.28 C 519.41 264.34 520.16 267.19 519.79 268.41 C 519.43 269.64 518.86 270.57 517.71 270.65 C 516.56 270.74 514.18 269.02 512.9 268.91 C 511.62 268.8 510.52 268.96 510.02 269.99 C 509.52 271.02 510.26 273.85 509.91 275.1 C 509.56 276.34 509.05 277.35 507.92 277.46 C 506.78 277.57 504.41 275.87 503.12 275.74 C 501.82 275.61 500.67 275.69 500.15 276.69 C 499.64 277.7 500.36 280.51 500.02 281.78 C 499.69 283.04 499.23 284.13 498.12 284.27 C 497 284.4 494.64 282.72 493.34 282.57 C 492.03 282.43 490.82 282.42 490.28 283.4 C 489.75 284.38 490.47 287.18 490.14 288.45 C 489.81 289.73 489.35 290.82 488.3 291.05 C 487.25 291.28 484.98 289.72 483.83 289.81 C 482.69 289.9 482.15 290.88 481.42 291.57 C 480.69 292.27 480.2 293.3 479.46 293.98 C 478.72 294.66 477.41 295.39 477 295.67" stroke="#4A90D9" stroke-width="1.6" fill="none" marker-end="url(#arch-arrow-end)" marker-start="url(#arch-arrow-start)" />
  <circle r="4.2" fill="#4A90D9" opacity="0.95">
    <animateMotion dur="1.8s" begin="0s" repeatCount="indefinite" rotate="auto" path="M 772 93 L 771.59 93.28 L 770.36 94.13 L 769.54 94.69 L 768.72 95.25 L 767.71 95.53 L 767.07 96.36 L 766.44 97.2 L 766.55 99.12 L 765.75 99.7 L 764.94 100.28 L 763.52 99.97 L 762.23 99.85 L 760.94 99.72 L 758.86 98.45 L 758.01 98.97 L 757.17 99.5 L 757.41 101.61 L 757.16 103 L 756.9 104.38 L 757.27 106.67 L 756.49 107.29 L 755.7 107.91 L 753.84 106.95 L 752.46 106.69 L 751.07 106.43 L 749.05 105.24 L 748.18 105.74 L 747.32 106.23 L 747.52 108.28 L 747.26 109.66 L 747.01 111.05 L 747.41 113.39 L 746.65 114.04 L 745.89 114.68 L 744.07 113.79 L 742.69 113.54 L 741.3 113.28 L 739.24 112.03 L 738.35 112.5 L 737.47 112.97 L 737.62 114.95 L 737.37 116.33 L 737.11 117.71 L 737.55 120.11 L 736.81 120.78 L 736.07 121.46 L 734.29 120.63 L 732.91 120.38 L 731.53 120.13 L 729.44 118.83 L 728.53 119.27 L 727.62 119.7 L 727.73 121.62 L 727.47 123 L 727.21 124.37 L 727.69 126.82 L 726.96 127.52 L 726.24 128.23 L 724.52 127.47 L 723.14 127.23 L 721.77 126.98 L 719.63 125.63 L 718.71 126.04 L 717.78 126.45 L 717.84 128.29 L 717.58 129.66 L 717.31 131.03 L 717.82 133.53 L 717.12 134.26 L 716.42 135 L 714.74 134.31 L 713.37 134.07 L 712 133.83 L 709.83 132.44 L 708.89 132.81 L 707.94 133.19 L 707.95 134.97 L 707.68 136.33 L 707.42 137.69 L 707.95 140.23 L 707.27 141 L 706.59 141.76 L 704.96 141.15 L 703.6 140.91 L 702.23 140.68 L 700.04 139.24 L 699.07 139.59 L 698.1 139.94 L 698.07 141.64 L 697.79 143 L 697.52 144.35 L 698.08 146.94 L 697.42 147.73 L 696.76 148.52 L 695.18 147.98 L 693.82 147.76 L 692.46 147.53 L 690.24 146.05 L 689.25 146.37 L 688.27 146.69 L 688.18 148.32 L 687.9 149.67 L 687.62 151.02 L 688.21 153.64 L 687.57 154.46 L 686.93 155.28 L 685.4 154.81 L 684.05 154.6 L 682.69 154.38 L 680.45 152.87 L 679.44 153.16 L 678.43 153.45 L 678.29 155 L 678.01 156.34 L 677.72 157.68 L 678.34 160.33 L 677.72 161.18 L 677.1 162.03 L 675.62 161.65 L 674.27 161.44 L 672.92 161.23 L 670.65 159.68 L 669.63 159.94 L 668.6 160.2 L 668.41 161.68 L 668.11 163.01 L 667.82 164.34 L 668.46 167.03 L 667.86 167.91 L 667.26 168.79 L 665.84 168.47 L 664.5 168.28 L 663.16 168.08 L 660.86 166.5 L 659.82 166.73 L 658.77 166.97 L 658.53 168.37 L 658.22 169.68 L 657.92 171 L 658.59 173.72 L 658 174.63 L 657.42 175.53 L 656.05 175.3 L 654.72 175.12 L 653.39 174.93 L 651.07 173.32 L 650.01 173.53 L 648.95 173.73 L 648.65 175.05 L 648.33 176.36 L 648.02 177.66 L 648.71 180.41 L 648.14 181.34 L 647.58 182.28 L 646.27 182.12 L 644.94 181.95 L 643.62 181.78 L 641.29 180.14 L 640.2 180.32 L 639.12 180.5 L 638.77 181.74 L 638.45 183.03 L 638.13 184.32 L 638.83 187.1 L 638.28 188.06 L 637.73 189.02 L 636.48 188.94 L 635.16 188.79 L 633.85 188.63 L 631.5 186.97 L 630.4 187.12 L 629.3 187.27 L 628.89 188.43 L 628.56 189.71 L 628.23 190.98 L 628.95 193.78 L 628.42 194.77 L 627.89 195.75 L 626.69 195.76 L 625.38 195.62 L 624.08 195.48 L 621.72 193.8 L 620.6 193.92 L 619.48 194.05 L 619.01 195.13 L 618.67 196.39 L 618.33 197.64 L 619.06 200.46 L 618.55 201.48 L 618.04 202.49 L 616.9 202.58 L 615.6 202.45 L 614.31 202.33 L 611.94 200.63 L 610.8 200.73 L 609.66 200.83 L 609.14 201.82 L 608.79 203.07 L 608.43 204.31 L 609.18 207.14 L 608.68 208.18 L 608.19 209.22 L 607.1 209.39 L 605.82 209.28 L 604.54 209.17 L 602.15 207.46 L 601 207.53 L 599.85 207.61 L 599.27 208.52 L 598.9 209.75 L 598.54 210.97 L 599.29 213.82 L 598.81 214.88 L 598.34 215.94 L 597.31 216.2 L 596.04 216.11 L 594.77 216.02 L 592.38 214.29 L 591.21 214.34 L 590.04 214.4 L 589.4 215.23 L 589.02 216.43 L 588.64 217.64 L 589.4 220.5 L 588.94 221.58 L 588.48 222.67 L 587.51 223.01 L 586.25 222.94 L 585 222.87 L 582.6 221.13 L 581.41 221.16 L 580.23 221.19 L 579.53 221.93 L 579.14 223.12 L 578.75 224.31 L 579.51 227.17 L 579.07 228.28 L 578.62 229.39 L 577.71 229.81 L 576.47 229.76 L 575.22 229.71 L 572.82 227.96 L 571.62 227.97 L 570.42 227.98 L 569.67 228.64 L 569.26 229.81 L 568.86 230.97 L 569.62 233.85 L 569.19 234.97 L 568.76 236.1 L 567.91 236.61 L 566.68 236.58 L 565.45 236.55 L 563.04 234.8 L 561.83 234.79 L 560.61 234.78 L 559.8 235.35 L 559.38 236.5 L 558.96 237.64 L 559.73 240.52 L 559.32 241.67 L 558.9 242.82 L 558.1 243.41 L 556.89 243.4 L 555.68 243.39 L 553.27 241.65 L 552.04 241.61 L 550.81 241.57 L 549.94 242.07 L 549.51 243.19 L 549.07 244.31 L 549.84 247.19 L 549.44 248.36 L 549.04 249.53 L 548.3 250.21 L 547.1 250.22 L 545.9 250.23 L 543.5 248.49 L 542.25 248.43 L 541.01 248.38 L 540.08 248.78 L 539.63 249.89 L 539.18 250.99 L 539.95 253.85 L 539.56 255.04 L 539.17 256.24 L 538.49 257 L 537.3 257.03 L 536.12 257.07 L 533.72 255.33 L 532.47 255.26 L 531.21 255.18 L 530.22 255.5 L 529.76 256.58 L 529.29 257.66 L 530.05 260.52 L 529.68 261.73 L 529.3 262.94 L 528.68 263.79 L 527.51 263.84 L 526.34 263.9 L 523.95 262.18 L 522.68 262.08 L 521.41 261.99 L 520.37 262.23 L 519.89 263.28 L 519.41 264.34 L 520.16 267.19 L 519.79 268.41 L 519.43 269.64 L 518.86 270.57 L 517.71 270.65 L 516.56 270.74 L 514.18 269.02 L 512.9 268.91 L 511.62 268.8 L 510.52 268.96 L 510.02 269.99 L 509.52 271.02 L 510.26 273.85 L 509.91 275.1 L 509.56 276.34 L 509.05 277.35 L 507.92 277.46 L 506.78 277.57 L 504.41 275.87 L 503.12 275.74 L 501.82 275.61 L 500.67 275.69 L 500.15 276.69 L 499.64 277.7 L 500.36 280.51 L 500.02 281.78 L 499.69 283.04 L 499.23 284.13 L 498.12 284.27 L 497 284.4 L 494.64 282.72 L 493.34 282.57 L 492.03 282.43 L 490.82 282.42 L 490.544 282.921"/>
  </circle>
  <circle r="3.1" fill="#4A90D9" opacity="0.45">
    <animateMotion dur="1.8s" begin="-0.18s" repeatCount="indefinite" rotate="auto" path="M 772 93 L 771.59 93.28 L 770.36 94.13 L 769.54 94.69 L 768.72 95.25 L 767.71 95.53 L 767.07 96.36 L 766.44 97.2 L 766.55 99.12 L 765.75 99.7 L 764.94 100.28 L 763.52 99.97 L 762.23 99.85 L 760.94 99.72 L 758.86 98.45 L 758.01 98.97 L 757.17 99.5 L 757.41 101.61 L 757.16 103 L 756.9 104.38 L 757.27 106.67 L 756.49 107.29 L 755.7 107.91 L 753.84 106.95 L 752.46 106.69 L 751.07 106.43 L 749.05 105.24 L 748.18 105.74 L 747.32 106.23 L 747.52 108.28 L 747.26 109.66 L 747.01 111.05 L 747.41 113.39 L 746.65 114.04 L 745.89 114.68 L 744.07 113.79 L 742.69 113.54 L 741.3 113.28 L 739.24 112.03 L 738.35 112.5 L 737.47 112.97 L 737.62 114.95 L 737.37 116.33 L 737.11 117.71 L 737.55 120.11 L 736.81 120.78 L 736.07 121.46 L 734.29 120.63 L 732.91 120.38 L 731.53 120.13 L 729.44 118.83 L 728.53 119.27 L 727.62 119.7 L 727.73 121.62 L 727.47 123 L 727.21 124.37 L 727.69 126.82 L 726.96 127.52 L 726.24 128.23 L 724.52 127.47 L 723.14 127.23 L 721.77 126.98 L 719.63 125.63 L 718.71 126.04 L 717.78 126.45 L 717.84 128.29 L 717.58 129.66 L 717.31 131.03 L 717.82 133.53 L 717.12 134.26 L 716.42 135 L 714.74 134.31 L 713.37 134.07 L 712 133.83 L 709.83 132.44 L 708.89 132.81 L 707.94 133.19 L 707.95 134.97 L 707.68 136.33 L 707.42 137.69 L 707.95 140.23 L 707.27 141 L 706.59 141.76 L 704.96 141.15 L 703.6 140.91 L 702.23 140.68 L 700.04 139.24 L 699.07 139.59 L 698.1 139.94 L 698.07 141.64 L 697.79 143 L 697.52 144.35 L 698.08 146.94 L 697.42 147.73 L 696.76 148.52 L 695.18 147.98 L 693.82 147.76 L 692.46 147.53 L 690.24 146.05 L 689.25 146.37 L 688.27 146.69 L 688.18 148.32 L 687.9 149.67 L 687.62 151.02 L 688.21 153.64 L 687.57 154.46 L 686.93 155.28 L 685.4 154.81 L 684.05 154.6 L 682.69 154.38 L 680.45 152.87 L 679.44 153.16 L 678.43 153.45 L 678.29 155 L 678.01 156.34 L 677.72 157.68 L 678.34 160.33 L 677.72 161.18 L 677.1 162.03 L 675.62 161.65 L 674.27 161.44 L 672.92 161.23 L 670.65 159.68 L 669.63 159.94 L 668.6 160.2 L 668.41 161.68 L 668.11 163.01 L 667.82 164.34 L 668.46 167.03 L 667.86 167.91 L 667.26 168.79 L 665.84 168.47 L 664.5 168.28 L 663.16 168.08 L 660.86 166.5 L 659.82 166.73 L 658.77 166.97 L 658.53 168.37 L 658.22 169.68 L 657.92 171 L 658.59 173.72 L 658 174.63 L 657.42 175.53 L 656.05 175.3 L 654.72 175.12 L 653.39 174.93 L 651.07 173.32 L 650.01 173.53 L 648.95 173.73 L 648.65 175.05 L 648.33 176.36 L 648.02 177.66 L 648.71 180.41 L 648.14 181.34 L 647.58 182.28 L 646.27 182.12 L 644.94 181.95 L 643.62 181.78 L 641.29 180.14 L 640.2 180.32 L 639.12 180.5 L 638.77 181.74 L 638.45 183.03 L 638.13 184.32 L 638.83 187.1 L 638.28 188.06 L 637.73 189.02 L 636.48 188.94 L 635.16 188.79 L 633.85 188.63 L 631.5 186.97 L 630.4 187.12 L 629.3 187.27 L 628.89 188.43 L 628.56 189.71 L 628.23 190.98 L 628.95 193.78 L 628.42 194.77 L 627.89 195.75 L 626.69 195.76 L 625.38 195.62 L 624.08 195.48 L 621.72 193.8 L 620.6 193.92 L 619.48 194.05 L 619.01 195.13 L 618.67 196.39 L 618.33 197.64 L 619.06 200.46 L 618.55 201.48 L 618.04 202.49 L 616.9 202.58 L 615.6 202.45 L 614.31 202.33 L 611.94 200.63 L 610.8 200.73 L 609.66 200.83 L 609.14 201.82 L 608.79 203.07 L 608.43 204.31 L 609.18 207.14 L 608.68 208.18 L 608.19 209.22 L 607.1 209.39 L 605.82 209.28 L 604.54 209.17 L 602.15 207.46 L 601 207.53 L 599.85 207.61 L 599.27 208.52 L 598.9 209.75 L 598.54 210.97 L 599.29 213.82 L 598.81 214.88 L 598.34 215.94 L 597.31 216.2 L 596.04 216.11 L 594.77 216.02 L 592.38 214.29 L 591.21 214.34 L 590.04 214.4 L 589.4 215.23 L 589.02 216.43 L 588.64 217.64 L 589.4 220.5 L 588.94 221.58 L 588.48 222.67 L 587.51 223.01 L 586.25 222.94 L 585 222.87 L 582.6 221.13 L 581.41 221.16 L 580.23 221.19 L 579.53 221.93 L 579.14 223.12 L 578.75 224.31 L 579.51 227.17 L 579.07 228.28 L 578.62 229.39 L 577.71 229.81 L 576.47 229.76 L 575.22 229.71 L 572.82 227.96 L 571.62 227.97 L 570.42 227.98 L 569.67 228.64 L 569.26 229.81 L 568.86 230.97 L 569.62 233.85 L 569.19 234.97 L 568.76 236.1 L 567.91 236.61 L 566.68 236.58 L 565.45 236.55 L 563.04 234.8 L 561.83 234.79 L 560.61 234.78 L 559.8 235.35 L 559.38 236.5 L 558.96 237.64 L 559.73 240.52 L 559.32 241.67 L 558.9 242.82 L 558.1 243.41 L 556.89 243.4 L 555.68 243.39 L 553.27 241.65 L 552.04 241.61 L 550.81 241.57 L 549.94 242.07 L 549.51 243.19 L 549.07 244.31 L 549.84 247.19 L 549.44 248.36 L 549.04 249.53 L 548.3 250.21 L 547.1 250.22 L 545.9 250.23 L 543.5 248.49 L 542.25 248.43 L 541.01 248.38 L 540.08 248.78 L 539.63 249.89 L 539.18 250.99 L 539.95 253.85 L 539.56 255.04 L 539.17 256.24 L 538.49 257 L 537.3 257.03 L 536.12 257.07 L 533.72 255.33 L 532.47 255.26 L 531.21 255.18 L 530.22 255.5 L 529.76 256.58 L 529.29 257.66 L 530.05 260.52 L 529.68 261.73 L 529.3 262.94 L 528.68 263.79 L 527.51 263.84 L 526.34 263.9 L 523.95 262.18 L 522.68 262.08 L 521.41 261.99 L 520.37 262.23 L 519.89 263.28 L 519.41 264.34 L 520.16 267.19 L 519.79 268.41 L 519.43 269.64 L 518.86 270.57 L 517.71 270.65 L 516.56 270.74 L 514.18 269.02 L 512.9 268.91 L 511.62 268.8 L 510.52 268.96 L 510.02 269.99 L 509.52 271.02 L 510.26 273.85 L 509.91 275.1 L 509.56 276.34 L 509.05 277.35 L 507.92 277.46 L 506.78 277.57 L 504.41 275.87 L 503.12 275.74 L 501.82 275.61 L 500.67 275.69 L 500.15 276.69 L 499.64 277.7 L 500.36 280.51 L 500.02 281.78 L 499.69 283.04 L 499.23 284.13 L 498.12 284.27 L 497 284.4 L 494.64 282.72 L 493.34 282.57 L 492.03 282.43 L 490.82 282.42 L 490.544 282.921"/>
  </circle>
  <circle r="2.2" fill="#4A90D9" opacity="0.22">
    <animateMotion dur="1.8s" begin="-0.36s" repeatCount="indefinite" rotate="auto" path="M 772 93 L 771.59 93.28 L 770.36 94.13 L 769.54 94.69 L 768.72 95.25 L 767.71 95.53 L 767.07 96.36 L 766.44 97.2 L 766.55 99.12 L 765.75 99.7 L 764.94 100.28 L 763.52 99.97 L 762.23 99.85 L 760.94 99.72 L 758.86 98.45 L 758.01 98.97 L 757.17 99.5 L 757.41 101.61 L 757.16 103 L 756.9 104.38 L 757.27 106.67 L 756.49 107.29 L 755.7 107.91 L 753.84 106.95 L 752.46 106.69 L 751.07 106.43 L 749.05 105.24 L 748.18 105.74 L 747.32 106.23 L 747.52 108.28 L 747.26 109.66 L 747.01 111.05 L 747.41 113.39 L 746.65 114.04 L 745.89 114.68 L 744.07 113.79 L 742.69 113.54 L 741.3 113.28 L 739.24 112.03 L 738.35 112.5 L 737.47 112.97 L 737.62 114.95 L 737.37 116.33 L 737.11 117.71 L 737.55 120.11 L 736.81 120.78 L 736.07 121.46 L 734.29 120.63 L 732.91 120.38 L 731.53 120.13 L 729.44 118.83 L 728.53 119.27 L 727.62 119.7 L 727.73 121.62 L 727.47 123 L 727.21 124.37 L 727.69 126.82 L 726.96 127.52 L 726.24 128.23 L 724.52 127.47 L 723.14 127.23 L 721.77 126.98 L 719.63 125.63 L 718.71 126.04 L 717.78 126.45 L 717.84 128.29 L 717.58 129.66 L 717.31 131.03 L 717.82 133.53 L 717.12 134.26 L 716.42 135 L 714.74 134.31 L 713.37 134.07 L 712 133.83 L 709.83 132.44 L 708.89 132.81 L 707.94 133.19 L 707.95 134.97 L 707.68 136.33 L 707.42 137.69 L 707.95 140.23 L 707.27 141 L 706.59 141.76 L 704.96 141.15 L 703.6 140.91 L 702.23 140.68 L 700.04 139.24 L 699.07 139.59 L 698.1 139.94 L 698.07 141.64 L 697.79 143 L 697.52 144.35 L 698.08 146.94 L 697.42 147.73 L 696.76 148.52 L 695.18 147.98 L 693.82 147.76 L 692.46 147.53 L 690.24 146.05 L 689.25 146.37 L 688.27 146.69 L 688.18 148.32 L 687.9 149.67 L 687.62 151.02 L 688.21 153.64 L 687.57 154.46 L 686.93 155.28 L 685.4 154.81 L 684.05 154.6 L 682.69 154.38 L 680.45 152.87 L 679.44 153.16 L 678.43 153.45 L 678.29 155 L 678.01 156.34 L 677.72 157.68 L 678.34 160.33 L 677.72 161.18 L 677.1 162.03 L 675.62 161.65 L 674.27 161.44 L 672.92 161.23 L 670.65 159.68 L 669.63 159.94 L 668.6 160.2 L 668.41 161.68 L 668.11 163.01 L 667.82 164.34 L 668.46 167.03 L 667.86 167.91 L 667.26 168.79 L 665.84 168.47 L 664.5 168.28 L 663.16 168.08 L 660.86 166.5 L 659.82 166.73 L 658.77 166.97 L 658.53 168.37 L 658.22 169.68 L 657.92 171 L 658.59 173.72 L 658 174.63 L 657.42 175.53 L 656.05 175.3 L 654.72 175.12 L 653.39 174.93 L 651.07 173.32 L 650.01 173.53 L 648.95 173.73 L 648.65 175.05 L 648.33 176.36 L 648.02 177.66 L 648.71 180.41 L 648.14 181.34 L 647.58 182.28 L 646.27 182.12 L 644.94 181.95 L 643.62 181.78 L 641.29 180.14 L 640.2 180.32 L 639.12 180.5 L 638.77 181.74 L 638.45 183.03 L 638.13 184.32 L 638.83 187.1 L 638.28 188.06 L 637.73 189.02 L 636.48 188.94 L 635.16 188.79 L 633.85 188.63 L 631.5 186.97 L 630.4 187.12 L 629.3 187.27 L 628.89 188.43 L 628.56 189.71 L 628.23 190.98 L 628.95 193.78 L 628.42 194.77 L 627.89 195.75 L 626.69 195.76 L 625.38 195.62 L 624.08 195.48 L 621.72 193.8 L 620.6 193.92 L 619.48 194.05 L 619.01 195.13 L 618.67 196.39 L 618.33 197.64 L 619.06 200.46 L 618.55 201.48 L 618.04 202.49 L 616.9 202.58 L 615.6 202.45 L 614.31 202.33 L 611.94 200.63 L 610.8 200.73 L 609.66 200.83 L 609.14 201.82 L 608.79 203.07 L 608.43 204.31 L 609.18 207.14 L 608.68 208.18 L 608.19 209.22 L 607.1 209.39 L 605.82 209.28 L 604.54 209.17 L 602.15 207.46 L 601 207.53 L 599.85 207.61 L 599.27 208.52 L 598.9 209.75 L 598.54 210.97 L 599.29 213.82 L 598.81 214.88 L 598.34 215.94 L 597.31 216.2 L 596.04 216.11 L 594.77 216.02 L 592.38 214.29 L 591.21 214.34 L 590.04 214.4 L 589.4 215.23 L 589.02 216.43 L 588.64 217.64 L 589.4 220.5 L 588.94 221.58 L 588.48 222.67 L 587.51 223.01 L 586.25 222.94 L 585 222.87 L 582.6 221.13 L 581.41 221.16 L 580.23 221.19 L 579.53 221.93 L 579.14 223.12 L 578.75 224.31 L 579.51 227.17 L 579.07 228.28 L 578.62 229.39 L 577.71 229.81 L 576.47 229.76 L 575.22 229.71 L 572.82 227.96 L 571.62 227.97 L 570.42 227.98 L 569.67 228.64 L 569.26 229.81 L 568.86 230.97 L 569.62 233.85 L 569.19 234.97 L 568.76 236.1 L 567.91 236.61 L 566.68 236.58 L 565.45 236.55 L 563.04 234.8 L 561.83 234.79 L 560.61 234.78 L 559.8 235.35 L 559.38 236.5 L 558.96 237.64 L 559.73 240.52 L 559.32 241.67 L 558.9 242.82 L 558.1 243.41 L 556.89 243.4 L 555.68 243.39 L 553.27 241.65 L 552.04 241.61 L 550.81 241.57 L 549.94 242.07 L 549.51 243.19 L 549.07 244.31 L 549.84 247.19 L 549.44 248.36 L 549.04 249.53 L 548.3 250.21 L 547.1 250.22 L 545.9 250.23 L 543.5 248.49 L 542.25 248.43 L 541.01 248.38 L 540.08 248.78 L 539.63 249.89 L 539.18 250.99 L 539.95 253.85 L 539.56 255.04 L 539.17 256.24 L 538.49 257 L 537.3 257.03 L 536.12 257.07 L 533.72 255.33 L 532.47 255.26 L 531.21 255.18 L 530.22 255.5 L 529.76 256.58 L 529.29 257.66 L 530.05 260.52 L 529.68 261.73 L 529.3 262.94 L 528.68 263.79 L 527.51 263.84 L 526.34 263.9 L 523.95 262.18 L 522.68 262.08 L 521.41 261.99 L 520.37 262.23 L 519.89 263.28 L 519.41 264.34 L 520.16 267.19 L 519.79 268.41 L 519.43 269.64 L 518.86 270.57 L 517.71 270.65 L 516.56 270.74 L 514.18 269.02 L 512.9 268.91 L 511.62 268.8 L 510.52 268.96 L 510.02 269.99 L 509.52 271.02 L 510.26 273.85 L 509.91 275.1 L 509.56 276.34 L 509.05 277.35 L 507.92 277.46 L 506.78 277.57 L 504.41 275.87 L 503.12 275.74 L 501.82 275.61 L 500.67 275.69 L 500.15 276.69 L 499.64 277.7 L 500.36 280.51 L 500.02 281.78 L 499.69 283.04 L 499.23 284.13 L 498.12 284.27 L 497 284.4 L 494.64 282.72 L 493.34 282.57 L 492.03 282.43 L 490.82 282.42 L 490.544 282.921"/>
  </circle>
  <path d="M 992 453 L 992 637" stroke="#4A90D9" stroke-width="1.6" fill="none" stroke-dasharray="8 4">
    <animate attributeName="stroke-width" values="1.6;3.2;1.6" dur="1.4s" repeatCount="indefinite"/>
  </path>
  <rect x="24" y="277" width="143" height="56" fill="#F8FAFC" stroke="#CBD5E1" stroke-width="1.4" rx="8" />
  <rect x="24" y="277" width="143" height="8" fill="#7C3AED" stroke="#7C3AED" stroke-width="0" rx="4" />
  <circle cx="150" cy="309" r="9" fill="#F8FAFC" stroke="#7C3AED" stroke-width="1.3" />
  <path d="M 150 300 L 150 318 M 141 309 L 159 309" stroke="#7C3AED" stroke-width="1" fill="none" />
  <path d="M 141 309 Q 150 298, 159 309 Q 150 320, 141 309" stroke="#7C3AED" stroke-width="1" fill="none" />
  <text x="36" y="313.9" font-size="14" font-family="Inter, system-ui, -apple-system, sans-serif" fill="#1E293B" text-anchor="start" font-weight="bold">Branch Users</text>
  <rect x="477" y="277" width="140" height="56" fill="#F8FAFC" stroke="#CBD5E1" stroke-width="1.4" rx="8" />
  <rect x="477" y="277" width="140" height="8" fill="#0EA5A8" stroke="#0EA5A8" stroke-width="0" rx="4" />
  <rect x="484" y="300" width="20" height="5" fill="#F8FAFC" stroke="#0EA5A8" stroke-width="1.3" rx="1" />
  <rect x="484" y="307" width="20" height="5" fill="#F8FAFC" stroke="#0EA5A8" stroke-width="1.3" rx="1" />
  <rect x="484" y="314" width="20" height="5" fill="#F8FAFC" stroke="#0EA5A8" stroke-width="1.3" rx="1" />
  <text x="523" y="313.9" font-size="14" font-family="Inter, system-ui, -apple-system, sans-serif" fill="#1E293B" text-anchor="start" font-weight="bold">API Gateway</text>
  <rect x="477" y="397" width="130" height="56" fill="#F8FAFC" stroke="#CBD5E1" stroke-width="1.4" rx="8" />
  <rect x="477" y="397" width="130" height="8" fill="#D97706" stroke="#D97706" stroke-width="0" rx="4" />
  <rect x="532" y="428" width="20" height="5" fill="#F8FAFC" stroke="#D97706" stroke-width="1.3" rx="1" />
  <rect x="532" y="435" width="20" height="5" fill="#F8FAFC" stroke="#D97706" stroke-width="1.3" rx="1" />
  <rect x="532" y="442" width="20" height="5" fill="#F8FAFC" stroke="#D97706" stroke-width="1.3" rx="1" />
  <text x="542" y="418.9" font-size="14" font-family="Inter, system-ui, -apple-system, sans-serif" fill="#1E293B" text-anchor="middle" font-weight="bold">Event Collector</text>
  <rect x="927" y="277" width="130" height="56" fill="#F8FAFC" stroke="#CBD5E1" stroke-width="1.4" rx="8" />
  <rect x="927" y="277" width="130" height="8" fill="#5B4FCF" stroke="#5B4FCF" stroke-width="0" rx="4" />
  <rect x="982" y="288" width="20" height="5" fill="#F8FAFC" stroke="#5B4FCF" stroke-width="1.3" rx="1" />
  <rect x="982" y="295" width="20" height="5" fill="#F8FAFC" stroke="#5B4FCF" stroke-width="1.3" rx="1" />
  <rect x="982" y="302" width="20" height="5" fill="#F8FAFC" stroke="#5B4FCF" stroke-width="1.3" rx="1" />
  <text x="992" y="328.9" font-size="14" font-family="Inter, system-ui, -apple-system, sans-serif" fill="#1E293B" text-anchor="middle" font-weight="bold">Stream Bus</text>
  <rect x="927" y="397" width="130" height="56" fill="#F8FAFC" stroke="#CBD5E1" stroke-width="1.4" rx="8" />
  <rect x="927" y="397" width="130" height="8" fill="#DB2777" stroke="#DB2777" stroke-width="0" rx="4" />
  <rect x="935" y="428" width="18" height="18" fill="#F8FAFC" stroke="#DB2777" stroke-width="1.3" rx="5" />
  <path d="M 935 434 Q 944 438, 953 434" stroke="#DB2777" stroke-width="1.3" fill="none" />
  <text x="992" y="418.9" font-size="14" font-family="Inter, system-ui, -apple-system, sans-serif" fill="#1E293B" text-anchor="middle" font-weight="bold">Data Lake</text>
  <rect x="1147" y="397" width="130" height="56" fill="#F8FAFC" stroke="#CBD5E1" stroke-width="1.4" rx="8" />
  <rect x="1147" y="397" width="130" height="8" fill="#2563EB" stroke="#2563EB" stroke-width="0" rx="4" />
  <rect x="1251" y="428" width="18" height="18" fill="#F8FAFC" stroke="#2563EB" stroke-width="1.3" rx="5" />
  <path d="M 1251 434 Q 1260 438, 1269 434" stroke="#2563EB" stroke-width="1.3" fill="none" />
  <text x="1212" y="418.9" font-size="14" font-family="Inter, system-ui, -apple-system, sans-serif" fill="#1E293B" text-anchor="middle" font-weight="bold">Warehouse</text>
  <rect x="707" y="24" width="130" height="69" fill="#F8FAFC" stroke="#CBD5E1" stroke-width="1.4" rx="8" />
  <rect x="707" y="24" width="130" height="8" fill="#16A34A" stroke="#16A34A" stroke-width="0" rx="4" />
  <rect x="763" y="35" width="18" height="18" fill="#F8FAFC" stroke="#16A34A" stroke-width="1.3" rx="4" />
  <text x="772" y="77.4" font-size="14" font-family="Inter, system-ui, -apple-system, sans-serif" fill="#1E293B" text-anchor="middle" font-weight="bold">Ops Dashboard</text>
  <rect x="927" y="637" width="130" height="56" fill="#F8FAFC" stroke="#CBD5E1" stroke-width="1.4" rx="8" />
  <rect x="927" y="637" width="130" height="8" fill="#CA8A04" stroke="#CA8A04" stroke-width="0" rx="4" />
  <rect x="935" y="648" width="18" height="18" fill="#F8FAFC" stroke="#CA8A04" stroke-width="1.3" rx="5" />
  <path d="M 935 654 Q 944 658, 953 654" stroke="#CA8A04" stroke-width="1.3" fill="none" />
  <text x="992" y="688.9" font-size="14" font-family="Inter, system-ui, -apple-system, sans-serif" fill="#1E293B" text-anchor="middle" font-weight="bold">Offline Backup</text>
</svg>