<svg xmlns="http://www.w3.org/2000/svg" viewBox="-24 -34 908 464" width="908" height="464">
  <defs>
    <marker id="arch-arrow-end" markerWidth="10" markerHeight="8" refX="9" refY="4" orient="auto"><polygon points="0 0, 10 4, 0 8" fill="#4A90D9" /></marker>
    <marker id="arch-arrow-start" markerWidth="10" markerHeight="8" refX="1" refY="4" orient="auto-start-reverse"><polygon points="0 0, 10 4, 0 8" fill="#4A90D9" /></marker>
  </defs>
  <rect x="-24" y="-34" width="908" height="464" fill="#FFFFFF" />
  <rect x="224" y="90" width="170" height="210" fill="#7C3AED14" stroke="#7C3AED" stroke-width="1.4" rx="10" />
  <circle cx="242" cy="116" r="6" fill="#F8FAFC" stroke="#7C3AED" stroke-width="1.3" />
  <circle cx="254" cy="116" r="6" fill="#F8FAFC" stroke="#7C3AED" stroke-width="1.3" />
  <circle cx="248" cy="111" r="7" fill="#F8FAFC" stroke="#7C3AED" stroke-width="1.3" />
  <rect x="238" y="116" width="20" height="6" fill="#F8FAFC" stroke="#F8FAFC" stroke-width="0" />
  <text x="266" y="106" font-size="11" font-family="Inter, system-ui, -apple-system, sans-serif" fill="#7C3AED" font-weight="bold">Edge Landing Zone</text>
  <rect x="444" y="90" width="390" height="210" fill="#0EA5A814" stroke="#0EA5A8" stroke-width="1.4" rx="10" />
  <circle cx="804" cy="278" r="6" fill="#F8FAFC" stroke="#0EA5A8" stroke-width="1.3" />
  <circle cx="816" cy="278" r="6" fill="#F8FAFC" stroke="#0EA5A8" stroke-width="1.3" />
  <circle cx="810" cy="273" r="7" fill="#F8FAFC" stroke="#0EA5A8" stroke-width="1.3" />
  <rect x="800" y="278" width="20" height="6" fill="#F8FAFC" stroke="#F8FAFC" stroke-width="0" />
  <text x="456" y="106" font-size="11" font-family="Inter, system-ui, -apple-system, sans-serif" fill="#0EA5A8" font-weight="bold">Core Data Platform</text>
  <rect x="4" y="-10" width="170" height="110" fill="#D9770614" stroke="#D97706" stroke-width="1.4" rx="10" />
  <rect x="140" y="36" width="20" height="5" fill="#F8FAFC" stroke="#D97706" stroke-width="1.3" rx="1" />
  <rect x="140" y="43" width="20" height="5" fill="#F8FAFC" stroke="#D97706" stroke-width="1.3" rx="1" />
  <rect x="140" y="50" width="20" height="5" fill="#F8FAFC" stroke="#D97706" stroke-width="1.3" rx="1" />
  <text x="16" y="6" font-size="11" font-family="Inter, system-ui, -apple-system, sans-serif" fill="#D97706" font-weight="bold">Operations Console</text>
  <defs>
    <linearGradient id="triton-flow-4qm5ck" gradientUnits="userSpaceOnUse" x1="154" y1="152" x2="244" y2="152">
      <stop offset="0%" stop-color="#4A90D9" stop-opacity="0.75"/>
      <stop offset="20%" stop-color="#4A90D9" stop-opacity="0.85">
        <animate attributeName="offset" values="0%;60%;100%" dur="1.6s" repeatCount="indefinite"/>
      </stop>
      <stop offset="35%" stop-color="#FFFFFF" stop-opacity="1">
        <animate attributeName="offset" values="10%;70%;100%" dur="1.6s" repeatCount="indefinite"/>
      </stop>
      <stop offset="50%" stop-color="#4A90D9" stop-opacity="0.85">
        <animate attributeName="offset" values="20%;80%;100%" dur="1.6s" repeatCount="indefinite"/>
      </stop>
      <stop offset="100%" stop-color="#4A90D9" stop-opacity="0.75"/>
    </linearGradient>
  </defs>
  <path d="M 154 152 L 244 152" stroke="url(#triton-flow-4qm5ck)" stroke-width="1.6" fill="none" stroke-dasharray="8 4" marker-end="url(#arch-arrow-end)" />
  <path d="M 309 180 C 308.5 180.49 306.04 181.96 306 182.93 C 305.97 183.91 307.79 184.89 308.79 185.87 C 309.79 186.84 311.88 187.82 311.98 188.8 C 312.09 189.78 310.41 190.76 309.42 191.73 C 308.43 192.71 306.22 193.69 306.05 194.67 C 305.87 195.64 307.4 196.62 308.38 197.6 C 309.35 198.58 311.67 199.56 311.91 200.53 C 312.15 201.51 310.79 202.49 309.83 203.47 C 308.87 204.44 306.46 205.42 306.15 206.4 C 305.84 207.38 307.03 208.36 307.97 209.33 C 308.91 210.31 311.41 211.29 311.78 212.27 C 312.16 213.24 311.13 214.22 310.22 215.2 C 309.31 216.18 306.74 217.16 306.3 218.13 C 305.87 219.11 306.71 220.09 307.59 221.07 C 308.47 222.04 310.93 223.51 311.6 224" stroke="#4A90D9" stroke-width="1.6" fill="none" marker-end="url(#arch-arrow-end)" />
  <circle r="3.2" fill="#4A90D9" opacity="0.9">
    <animateMotion dur="2s" begin="0s" repeatCount="indefinite" rotate="auto" path="M 309 180 L 308.5 180.49 L 306.04 181.96 L 306 182.93 L 305.97 183.91 L 307.79 184.89 L 308.79 185.87 L 309.79 186.84 L 311.88 187.82 L 311.98 188.8 L 312.09 189.78 L 310.41 190.76 L 309.42 191.73 L 308.43 192.71 L 306.22 193.69 L 306.05 194.67 L 305.87 195.64 L 307.4 196.62 L 308.38 197.6 L 309.35 198.58 L 311.67 199.56 L 311.91 200.53 L 312.15 201.51 L 310.79 202.49 L 309.83 203.47 L 308.87 204.44 L 306.46 205.42 L 306.15 206.4 L 305.84 207.38 L 307.03 208.36 L 307.97 209.33 L 308.91 210.31 L 311.41 211.29 L 311.78 212.27 L 312.16 213.24 L 311.13 214.22 L 310.22 215.2 L 309.31 216.18 L 306.74 217.16 L 306.3 218.13 L 305.87 219.11 L 306.71 220.09 L 307.59 221.07 L 308.47 222.04 L 310.93 223.51 L 311.265 223.755"/>
  </circle>
  <circle r="3.2" fill="#4A90D9" opacity="0.9">
    <animateMotion dur="2s" begin="-0.5s" repeatCount="indefinite" rotate="auto" path="M 309 180 L 308.5 180.49 L 306.04 181.96 L 306 182.93 L 305.97 183.91 L 307.79 184.89 L 308.79 185.87 L 309.79 186.84 L 311.88 187.82 L 311.98 188.8 L 312.09 189.78 L 310.41 190.76 L 309.42 191.73 L 308.43 192.71 L 306.22 193.69 L 306.05 194.67 L 305.87 195.64 L 307.4 196.62 L 308.38 197.6 L 309.35 198.58 L 311.67 199.56 L 311.91 200.53 L 312.15 201.51 L 310.79 202.49 L 309.83 203.47 L 308.87 204.44 L 306.46 205.42 L 306.15 206.4 L 305.84 207.38 L 307.03 208.36 L 307.97 209.33 L 308.91 210.31 L 311.41 211.29 L 311.78 212.27 L 312.16 213.24 L 311.13 214.22 L 310.22 215.2 L 309.31 216.18 L 306.74 217.16 L 306.3 218.13 L 305.87 219.11 L 306.71 220.09 L 307.59 221.07 L 308.47 222.04 L 310.93 223.51 L 311.265 223.755"/>
  </circle>
  <circle r="3.2" fill="#4A90D9" opacity="0.9">
    <animateMotion dur="2s" begin="-1s" repeatCount="indefinite" rotate="auto" path="M 309 180 L 308.5 180.49 L 306.04 181.96 L 306 182.93 L 305.97 183.91 L 307.79 184.89 L 308.79 185.87 L 309.79 186.84 L 311.88 187.82 L 311.98 188.8 L 312.09 189.78 L 310.41 190.76 L 309.42 191.73 L 308.43 192.71 L 306.22 193.69 L 306.05 194.67 L 305.87 195.64 L 307.4 196.62 L 308.38 197.6 L 309.35 198.58 L 311.67 199.56 L 311.91 200.53 L 312.15 201.51 L 310.79 202.49 L 309.83 203.47 L 308.87 204.44 L 306.46 205.42 L 306.15 206.4 L 305.84 207.38 L 307.03 208.36 L 307.97 209.33 L 308.91 210.31 L 311.41 211.29 L 311.78 212.27 L 312.16 213.24 L 311.13 214.22 L 310.22 215.2 L 309.31 216.18 L 306.74 217.16 L 306.3 218.13 L 305.87 219.11 L 306.71 220.09 L 307.59 221.07 L 308.47 222.04 L 310.93 223.51 L 311.265 223.755"/>
  </circle>
  <circle r="3.2" fill="#4A90D9" opacity="0.9">
    <animateMotion dur="2s" begin="-1.5s" repeatCount="indefinite" rotate="auto" path="M 309 180 L 308.5 180.49 L 306.04 181.96 L 306 182.93 L 305.97 183.91 L 307.79 184.89 L 308.79 185.87 L 309.79 186.84 L 311.88 187.82 L 311.98 188.8 L 312.09 189.78 L 310.41 190.76 L 309.42 191.73 L 308.43 192.71 L 306.22 193.69 L 306.05 194.67 L 305.87 195.64 L 307.4 196.62 L 308.38 197.6 L 309.35 198.58 L 311.67 199.56 L 311.91 200.53 L 312.15 201.51 L 310.79 202.49 L 309.83 203.47 L 308.87 204.44 L 306.46 205.42 L 306.15 206.4 L 305.84 207.38 L 307.03 208.36 L 307.97 209.33 L 308.91 210.31 L 311.41 211.29 L 311.78 212.27 L 312.16 213.24 L 311.13 214.22 L 310.22 215.2 L 309.31 216.18 L 306.74 217.16 L 306.3 218.13 L 305.87 219.11 L 306.71 220.09 L 307.59 221.07 L 308.47 222.04 L 310.93 223.51 L 311.265 223.755"/>
  </circle>
  <path d="M 374 252 L 374 272 L 464 272 L 464 152" stroke="#4A90D9" stroke-width="1.6" fill="none" stroke-dasharray="8 4" marker-end="url(#arch-arrow-end)" marker-start="url(#arch-arrow-start)">
    <animate attributeName="stroke-dashoffset" from="0" to="-12" dur="0.8s" repeatCount="indefinite"/>
  </path>
  <path d="M 529 180 C 528.5 180.49 526.04 181.96 526 182.93 C 525.97 183.91 527.79 184.89 528.79 185.87 C 529.79 186.84 531.88 187.82 531.98 188.8 C 532.09 189.78 530.41 190.76 529.42 191.73 C 528.43 192.71 526.22 193.69 526.05 194.67 C 525.87 195.64 527.4 196.62 528.38 197.6 C 529.35 198.58 531.67 199.56 531.91 200.53 C 532.15 201.51 530.79 202.49 529.83 203.47 C 528.87 204.44 526.46 205.42 526.15 206.4 C 525.84 207.38 527.03 208.36 527.97 209.33 C 528.91 210.31 531.41 211.29 531.78 212.27 C 532.16 213.24 531.13 214.22 530.22 215.2 C 529.31 216.18 526.74 217.16 526.3 218.13 C 525.87 219.11 526.71 220.09 527.59 221.07 C 528.47 222.04 530.93 223.51 531.6 224" stroke="#4A90D9" stroke-width="1.6" fill="none" />
  <circle r="4" fill="#4A90D9">
    <animateMotion dur="1.5s" begin="0s" repeatCount="indefinite" rotate="auto" path="M 529 180 C 528.5 180.49 526.04 181.96 526 182.93 C 525.97 183.91 527.79 184.89 528.79 185.87 C 529.79 186.84 531.88 187.82 531.98 188.8 C 532.09 189.78 530.41 190.76 529.42 191.73 C 528.43 192.71 526.22 193.69 526.05 194.67 C 525.87 195.64 527.4 196.62 528.38 197.6 C 529.35 198.58 531.67 199.56 531.91 200.53 C 532.15 201.51 530.79 202.49 529.83 203.47 C 528.87 204.44 526.46 205.42 526.15 206.4 C 525.84 207.38 527.03 208.36 527.97 209.33 C 528.91 210.31 531.41 211.29 531.78 212.27 C 532.16 213.24 531.13 214.22 530.22 215.2 C 529.31 216.18 526.74 217.16 526.3 218.13 C 525.87 219.11 526.71 220.09 527.59 221.07 C 528.47 222.04 530.93 223.51 531.6 224"/>
  </circle>
  <path d="M 594 252 L 684 252" stroke="#4A90D9" stroke-width="3.2" fill="none" stroke-dasharray="90 90" marker-end="url(#arch-arrow-end)">
    <animate attributeName="stroke-dashoffset" values="0;90;0" dur="2s" repeatCount="indefinite"/>
  </path>
  <path d="M 814 252 C 683.633749357631 174.44669003735737 193.63374935763105 -25.553309962642615 24 52" stroke="#4A90D9" stroke-width="1.6" fill="none" stroke-dasharray="6 3" marker-end="url(#arch-arrow-end)">
    <animate attributeName="stroke-opacity" values="1;0.3;1" dur="1.6s" repeatCount="indefinite"/>
  </path>
  <path d="M 24 52 C 24.5 52.5 26 55 27 55 C 28 55 29 53 30 52 C 31 51 32 49 33 49 C 34 49 35 51 36 52 C 37 53 38 55 39 55 C 40 55 41 53 42 52 C 43 51 44 49 45 49 C 46 49 47 51 48 52 C 49 53 50 55 51 55 C 52 55 53 53 54 52 C 55 51 56 49 57 49 C 58 49 59 51 60 52 C 61 53 62 55 63 55 C 64 55 65 53 66 52 C 67 51 68 49 69 49 C 70 49 71 51 72 52 C 73 53 74 55 75 55 C 76 55 77 53 78 52 C 79 51 80 49 81 49 C 82 49 83 51 84 52 C 85 53 86 55 87 55 C 88 55 89 53 90 52 C 91 51 92 49 93 49 C 94 49 95 51 96 52 C 97 53 98 55 99 55 C 100 55 101 53 102 52 C 103 51 104 49 105 49 C 106 49 107 51 108 52 C 109 53 110 55 111 55 C 112 55 113 53 114 52 C 115 51 116 49 117 49 C 118 49 119 51 120 52 C 121 53 122 55 123 55 C 124 55 125 53 126 52 C 127 51 128 49 129 49 C 130 49 131 51 132 52 C 133 53 134 55 135 55 C 136 55 137 53 138 52 C 139 51 140 49 141 49 C 142 49 143 51 144 52 C 145 53 146 55 147 55 C 148 55 149 53 150 52 C 151 51 152 49 153 49 C 154 49 155 51.19 156 52 C 157 52.81 158 53.88 159 53.88 C 160 53.88 161 52.38 162 52 C 163 51.63 164.25 51.38 165 51.63 C 165.75 51.88 166.44 52.69 166.5 53.5 C 166.56 54.31 165.38 55.5 165.38 56.5 C 165.38 57.5 165.88 58.5 166.5 59.5 C 167.13 60.5 169.13 61.5 169.13 62.5 C 169.13 63.5 167.44 64.5 166.5 65.5 C 165.56 66.5 163.5 67.5 163.5 68.5 C 163.5 69.5 165.5 70.5 166.5 71.5 C 167.5 72.5 169.5 73.5 169.5 74.5 C 169.5 75.5 167.5 76.5 166.5 77.5 C 165.5 78.5 163.5 79.5 163.5 80.5 C 163.5 81.5 165.5 82.5 166.5 83.5 C 167.5 84.5 169.5 85.5 169.5 86.5 C 169.5 87.5 167.5 88.5 166.5 89.5 C 165.5 90.5 163.5 91.5 163.5 92.5 C 163.5 93.5 165.5 94.5 166.5 95.5 C 167.5 96.5 169.5 97.5 169.5 98.5 C 169.5 99.5 167.5 100.5 166.5 101.5 C 165.5 102.5 163.5 103.5 163.5 104.5 C 163.5 105.5 165.5 106.5 166.5 107.5 C 167.5 108.5 169.5 109.5 169.5 110.5 C 169.5 111.5 167.31 112.5 166.5 113.5 C 165.69 114.5 164.63 115.5 164.63 116.5 C 164.63 117.5 166.13 118.5 166.5 119.5 C 166.88 120.5 166.63 121.75 166.88 122.5 C 167.13 123.25 167.31 123.56 168 124 C 168.69 124.44 170 125.13 171 125.13 C 172 125.13 173 124.63 174 124 C 175 123.38 176 121.38 177 121.38 C 178 121.38 179 123.06 180 124 C 181 124.94 182 127 183 127 C 184 127 185 125 186 124 C 187 123 188 121 189 121 C 190 121 191 123 192 124 C 193 125 194 127 195 127 C 196 127 197 125 198 124 C 199 123 200 121 201 121 C 202 121 203 123 204 124 C 205 125 206 127 207 127 C 208 127 209 125 210 124 C 211 123 212 121 213 121 C 214 121 215 123 216 124 C 217 125 218 127 219 127 C 220 127 221 125 222 124 C 223 123 224 121 225 121 C 226 121 227 123 228 124 C 229 125 230 127 231 127 C 232 127 233 125 234 124 C 235 123 236 121 237 121 C 238 121 239 123 240 124 C 241 125 242 127 243 127 C 244 127 245 125 246 124 C 247 123 248 121 249 121 C 250 121 251 123 252 124 C 253 125 254 127 255 127 C 256 127 257 125 258 124 C 259 123 260 121 261 121 C 262 121 263 123 264 124 C 265 125 266 127 267 127 C 268 127 269 125 270 124 C 271 123 272 121 273 121 C 274 121 275 123 276 124 C 277 125 278 127 279 127 C 280 127 281 125 282 124 C 283 123 284 121 285 121 C 286 121 287 123 288 124 C 289 125 290 127 291 127 C 292 127 293 125 294 124 C 295 123 296 121 297 121 C 298 121 299 123 300 124 C 301 125 302 127 303 127 C 304 127 305 125 306 124 C 307 123 308.5 121.5 309 121" stroke="#4A90D9" stroke-width="1.6" fill="none" marker-end="url(#arch-arrow-end)" marker-start="url(#arch-arrow-start)" />
  <circle r="4.2" fill="#4A90D9" opacity="0.95">
    <animateMotion dur="1.8s" begin="0s" repeatCount="indefinite" rotate="auto" path="M 24 52 L 24.5 52.5 L 26 55 L 27 55 L 28 55 L 29 53 L 30 52 L 31 51 L 32 49 L 33 49 L 34 49 L 35 51 L 36 52 L 37 53 L 38 55 L 39 55 L 40 55 L 41 53 L 42 52 L 43 51 L 44 49 L 45 49 L 46 49 L 47 51 L 48 52 L 49 53 L 50 55 L 51 55 L 52 55 L 53 53 L 54 52 L 55 51 L 56 49 L 57 49 L 58 49 L 59 51 L 60 52 L 61 53 L 62 55 L 63 55 L 64 55 L 65 53 L 66 52 L 67 51 L 68 49 L 69 49 L 70 49 L 71 51 L 72 52 L 73 53 L 74 55 L 75 55 L 76 55 L 77 53 L 78 52 L 79 51 L 80 49 L 81 49 L 82 49 L 83 51 L 84 52 L 85 53 L 86 55 L 87 55 L 88 55 L 89 53 L 90 52 L 91 51 L 92 49 L 93 49 L 94 49 L 95 51 L 96 52 L 97 53 L 98 55 L 99 55 L 100 55 L 101 53 L 102 52 L 103 51 L 104 49 L 105 49 L 106 49 L 107 51 L 108 52 L 109 53 L 110 55 L 111 55 L 112 55 L 113 53 L 114 52 L 115 51 L 116 49 L 117 49 L 118 49 L 119 51 L 120 52 L 121 53 L 122 55 L 123 55 L 124 55 L 125 53 L 126 52 L 127 51 L 128 49 L 129 49 L 130 49 L 131 51 L 132 52 L 133 53 L 134 55 L 135 55 L 136 55 L 137 53 L 138 52 L 139 51 L 140 49 L 141 49 L 142 49 L 143 51 L 144 52 L 145 53 L 146 55 L 147 55 L 148 55 L 149 53 L 150 52 L 151 51 L 152 49 L 153 49 L 154 49 L 155 51.19 L 156 52 L 157 52.81 L 158 53.88 L 159 53.88 L 160 53.88 L 161 52.38 L 162 52 L 163 51.63 L 164.25 51.38 L 165 51.63 L 165.75 51.88 L 166.44 52.69 L 166.5 53.5 L 166.56 54.31 L 165.38 55.5 L 165.38 56.5 L 165.38 57.5 L 165.88 58.5 L 166.5 59.5 L 167.13 60.5 L 169.13 61.5 L 169.13 62.5 L 169.13 63.5 L 167.44 64.5 L 166.5 65.5 L 165.56 66.5 L 163.5 67.5 L 163.5 68.5 L 163.5 69.5 L 165.5 70.5 L 166.5 71.5 L 167.5 72.5 L 169.5 73.5 L 169.5 74.5 L 169.5 75.5 L 167.5 76.5 L 166.5 77.5 L 165.5 78.5 L 163.5 79.5 L 163.5 80.5 L 163.5 81.5 L 165.5 82.5 L 166.5 83.5 L 167.5 84.5 L 169.5 85.5 L 169.5 86.5 L 169.5 87.5 L 167.5 88.5 L 166.5 89.5 L 165.5 90.5 L 163.5 91.5 L 163.5 92.5 L 163.5 93.5 L 165.5 94.5 L 166.5 95.5 L 167.5 96.5 L 169.5 97.5 L 169.5 98.5 L 169.5 99.5 L 167.5 100.5 L 166.5 101.5 L 165.5 102.5 L 163.5 103.5 L 163.5 104.5 L 163.5 105.5 L 165.5 106.5 L 166.5 107.5 L 167.5 108.5 L 169.5 109.5 L 169.5 110.5 L 169.5 111.5 L 167.31 112.5 L 166.5 113.5 L 165.69 114.5 L 164.63 115.5 L 164.63 116.5 L 164.63 117.5 L 166.13 118.5 L 166.5 119.5 L 166.88 120.5 L 166.63 121.75 L 166.88 122.5 L 167.13 123.25 L 167.31 123.56 L 168 124 L 168.69 124.44 L 170 125.13 L 171 125.13 L 172 125.13 L 173 124.63 L 174 124 L 175 123.38 L 176 121.38 L 177 121.38 L 178 121.38 L 179 123.06 L 180 124 L 181 124.94 L 182 127 L 183 127 L 184 127 L 185 125 L 186 124 L 187 123 L 188 121 L 189 121 L 190 121 L 191 123 L 192 124 L 193 125 L 194 127 L 195 127 L 196 127 L 197 125 L 198 124 L 199 123 L 200 121 L 201 121 L 202 121 L 203 123 L 204 124 L 205 125 L 206 127 L 207 127 L 208 127 L 209 125 L 210 124 L 211 123 L 212 121 L 213 121 L 214 121 L 215 123 L 216 124 L 217 125 L 218 127 L 219 127 L 220 127 L 221 125 L 222 124 L 223 123 L 224 121 L 225 121 L 226 121 L 227 123 L 228 124 L 229 125 L 230 127 L 231 127 L 232 127 L 233 125 L 234 124 L 235 123 L 236 121 L 237 121 L 238 121 L 239 123 L 240 124 L 241 125 L 242 127 L 243 127 L 244 127 L 245 125 L 246 124 L 247 123 L 248 121 L 249 121 L 250 121 L 251 123 L 252 124 L 253 125 L 254 127 L 255 127 L 256 127 L 257 125 L 258 124 L 259 123 L 260 121 L 261 121 L 262 121 L 263 123 L 264 124 L 265 125 L 266 127 L 267 127 L 268 127 L 269 125 L 270 124 L 271 123 L 272 121 L 273 121 L 274 121 L 275 123 L 276 124 L 277 125 L 278 127 L 279 127 L 280 127 L 281 125 L 282 124 L 283 123 L 284 121 L 285 121 L 286 121 L 287 123 L 288 124 L 289 125 L 290 127 L 291 127 L 292 127 L 293 125 L 294 124 L 295 123 L 296 121 L 297 121 L 298 121 L 299 123 L 300 124 L 301 125 L 302 127 L 303 127 L 304 127 L 305 125 L 306 124 L 307 123 L 308.5 121.5 L 308.75 121.25"/>
  </circle>
  <circle r="3.1" fill="#4A90D9" opacity="0.45">
    <animateMotion dur="1.8s" begin="-0.18s" repeatCount="indefinite" rotate="auto" path="M 24 52 L 24.5 52.5 L 26 55 L 27 55 L 28 55 L 29 53 L 30 52 L 31 51 L 32 49 L 33 49 L 34 49 L 35 51 L 36 52 L 37 53 L 38 55 L 39 55 L 40 55 L 41 53 L 42 52 L 43 51 L 44 49 L 45 49 L 46 49 L 47 51 L 48 52 L 49 53 L 50 55 L 51 55 L 52 55 L 53 53 L 54 52 L 55 51 L 56 49 L 57 49 L 58 49 L 59 51 L 60 52 L 61 53 L 62 55 L 63 55 L 64 55 L 65 53 L 66 52 L 67 51 L 68 49 L 69 49 L 70 49 L 71 51 L 72 52 L 73 53 L 74 55 L 75 55 L 76 55 L 77 53 L 78 52 L 79 51 L 80 49 L 81 49 L 82 49 L 83 51 L 84 52 L 85 53 L 86 55 L 87 55 L 88 55 L 89 53 L 90 52 L 91 51 L 92 49 L 93 49 L 94 49 L 95 51 L 96 52 L 97 53 L 98 55 L 99 55 L 100 55 L 101 53 L 102 52 L 103 51 L 104 49 L 105 49 L 106 49 L 107 51 L 108 52 L 109 53 L 110 55 L 111 55 L 112 55 L 113 53 L 114 52 L 115 51 L 116 49 L 117 49 L 118 49 L 119 51 L 120 52 L 121 53 L 122 55 L 123 55 L 124 55 L 125 53 L 126 52 L 127 51 L 128 49 L 129 49 L 130 49 L 131 51 L 132 52 L 133 53 L 134 55 L 135 55 L 136 55 L 137 53 L 138 52 L 139 51 L 140 49 L 141 49 L 142 49 L 143 51 L 144 52 L 145 53 L 146 55 L 147 55 L 148 55 L 149 53 L 150 52 L 151 51 L 152 49 L 153 49 L 154 49 L 155 51.19 L 156 52 L 157 52.81 L 158 53.88 L 159 53.88 L 160 53.88 L 161 52.38 L 162 52 L 163 51.63 L 164.25 51.38 L 165 51.63 L 165.75 51.88 L 166.44 52.69 L 166.5 53.5 L 166.56 54.31 L 165.38 55.5 L 165.38 56.5 L 165.38 57.5 L 165.88 58.5 L 166.5 59.5 L 167.13 60.5 L 169.13 61.5 L 169.13 62.5 L 169.13 63.5 L 167.44 64.5 L 166.5 65.5 L 165.56 66.5 L 163.5 67.5 L 163.5 68.5 L 163.5 69.5 L 165.5 70.5 L 166.5 71.5 L 167.5 72.5 L 169.5 73.5 L 169.5 74.5 L 169.5 75.5 L 167.5 76.5 L 166.5 77.5 L 165.5 78.5 L 163.5 79.5 L 163.5 80.5 L 163.5 81.5 L 165.5 82.5 L 166.5 83.5 L 167.5 84.5 L 169.5 85.5 L 169.5 86.5 L 169.5 87.5 L 167.5 88.5 L 166.5 89.5 L 165.5 90.5 L 163.5 91.5 L 163.5 92.5 L 163.5 93.5 L 165.5 94.5 L 166.5 95.5 L 167.5 96.5 L 169.5 97.5 L 169.5 98.5 L 169.5 99.5 L 167.5 100.5 L 166.5 101.5 L 165.5 102.5 L 163.5 103.5 L 163.5 104.5 L 163.5 105.5 L 165.5 106.5 L 166.5 107.5 L 167.5 108.5 L 169.5 109.5 L 169.5 110.5 L 169.5 111.5 L 167.31 112.5 L 166.5 113.5 L 165.69 114.5 L 164.63 115.5 L 164.63 116.5 L 164.63 117.5 L 166.13 118.5 L 166.5 119.5 L 166.88 120.5 L 166.63 121.75 L 166.88 122.5 L 167.13 123.25 L 167.31 123.56 L 168 124 L 168.69 124.44 L 170 125.13 L 171 125.13 L 172 125.13 L 173 124.63 L 174 124 L 175 123.38 L 176 121.38 L 177 121.38 L 178 121.38 L 179 123.06 L 180 124 L 181 124.94 L 182 127 L 183 127 L 184 127 L 185 125 L 186 124 L 187 123 L 188 121 L 189 121 L 190 121 L 191 123 L 192 124 L 193 125 L 194 127 L 195 127 L 196 127 L 197 125 L 198 124 L 199 123 L 200 121 L 201 121 L 202 121 L 203 123 L 204 124 L 205 125 L 206 127 L 207 127 L 208 127 L 209 125 L 210 124 L 211 123 L 212 121 L 213 121 L 214 121 L 215 123 L 216 124 L 217 125 L 218 127 L 219 127 L 220 127 L 221 125 L 222 124 L 223 123 L 224 121 L 225 121 L 226 121 L 227 123 L 228 124 L 229 125 L 230 127 L 231 127 L 232 127 L 233 125 L 234 124 L 235 123 L 236 121 L 237 121 L 238 121 L 239 123 L 240 124 L 241 125 L 242 127 L 243 127 L 244 127 L 245 125 L 246 124 L 247 123 L 248 121 L 249 121 L 250 121 L 251 123 L 252 124 L 253 125 L 254 127 L 255 127 L 256 127 L 257 125 L 258 124 L 259 123 L 260 121 L 261 121 L 262 121 L 263 123 L 264 124 L 265 125 L 266 127 L 267 127 L 268 127 L 269 125 L 270 124 L 271 123 L 272 121 L 273 121 L 274 121 L 275 123 L 276 124 L 277 125 L 278 127 L 279 127 L 280 127 L 281 125 L 282 124 L 283 123 L 284 121 L 285 121 L 286 121 L 287 123 L 288 124 L 289 125 L 290 127 L 291 127 L 292 127 L 293 125 L 294 124 L 295 123 L 296 121 L 297 121 L 298 121 L 299 123 L 300 124 L 301 125 L 302 127 L 303 127 L 304 127 L 305 125 L 306 124 L 307 123 L 308.5 121.5 L 308.75 121.25"/>
  </circle>
  <circle r="2.2" fill="#4A90D9" opacity="0.22">
    <animateMotion dur="1.8s" begin="-0.36s" repeatCount="indefinite" rotate="auto" path="M 24 52 L 24.5 52.5 L 26 55 L 27 55 L 28 55 L 29 53 L 30 52 L 31 51 L 32 49 L 33 49 L 34 49 L 35 51 L 36 52 L 37 53 L 38 55 L 39 55 L 40 55 L 41 53 L 42 52 L 43 51 L 44 49 L 45 49 L 46 49 L 47 51 L 48 52 L 49 53 L 50 55 L 51 55 L 52 55 L 53 53 L 54 52 L 55 51 L 56 49 L 57 49 L 58 49 L 59 51 L 60 52 L 61 53 L 62 55 L 63 55 L 64 55 L 65 53 L 66 52 L 67 51 L 68 49 L 69 49 L 70 49 L 71 51 L 72 52 L 73 53 L 74 55 L 75 55 L 76 55 L 77 53 L 78 52 L 79 51 L 80 49 L 81 49 L 82 49 L 83 51 L 84 52 L 85 53 L 86 55 L 87 55 L 88 55 L 89 53 L 90 52 L 91 51 L 92 49 L 93 49 L 94 49 L 95 51 L 96 52 L 97 53 L 98 55 L 99 55 L 100 55 L 101 53 L 102 52 L 103 51 L 104 49 L 105 49 L 106 49 L 107 51 L 108 52 L 109 53 L 110 55 L 111 55 L 112 55 L 113 53 L 114 52 L 115 51 L 116 49 L 117 49 L 118 49 L 119 51 L 120 52 L 121 53 L 122 55 L 123 55 L 124 55 L 125 53 L 126 52 L 127 51 L 128 49 L 129 49 L 130 49 L 131 51 L 132 52 L 133 53 L 134 55 L 135 55 L 136 55 L 137 53 L 138 52 L 139 51 L 140 49 L 141 49 L 142 49 L 143 51 L 144 52 L 145 53 L 146 55 L 147 55 L 148 55 L 149 53 L 150 52 L 151 51 L 152 49 L 153 49 L 154 49 L 155 51.19 L 156 52 L 157 52.81 L 158 53.88 L 159 53.88 L 160 53.88 L 161 52.38 L 162 52 L 163 51.63 L 164.25 51.38 L 165 51.63 L 165.75 51.88 L 166.44 52.69 L 166.5 53.5 L 166.56 54.31 L 165.38 55.5 L 165.38 56.5 L 165.38 57.5 L 165.88 58.5 L 166.5 59.5 L 167.13 60.5 L 169.13 61.5 L 169.13 62.5 L 169.13 63.5 L 167.44 64.5 L 166.5 65.5 L 165.56 66.5 L 163.5 67.5 L 163.5 68.5 L 163.5 69.5 L 165.5 70.5 L 166.5 71.5 L 167.5 72.5 L 169.5 73.5 L 169.5 74.5 L 169.5 75.5 L 167.5 76.5 L 166.5 77.5 L 165.5 78.5 L 163.5 79.5 L 163.5 80.5 L 163.5 81.5 L 165.5 82.5 L 166.5 83.5 L 167.5 84.5 L 169.5 85.5 L 169.5 86.5 L 169.5 87.5 L 167.5 88.5 L 166.5 89.5 L 165.5 90.5 L 163.5 91.5 L 163.5 92.5 L 163.5 93.5 L 165.5 94.5 L 166.5 95.5 L 167.5 96.5 L 169.5 97.5 L 169.5 98.5 L 169.5 99.5 L 167.5 100.5 L 166.5 101.5 L 165.5 102.5 L 163.5 103.5 L 163.5 104.5 L 163.5 105.5 L 165.5 106.5 L 166.5 107.5 L 167.5 108.5 L 169.5 109.5 L 169.5 110.5 L 169.5 111.5 L 167.31 112.5 L 166.5 113.5 L 165.69 114.5 L 164.63 115.5 L 164.63 116.5 L 164.63 117.5 L 166.13 118.5 L 166.5 119.5 L 166.88 120.5 L 166.63 121.75 L 166.88 122.5 L 167.13 123.25 L 167.31 123.56 L 168 124 L 168.69 124.44 L 170 125.13 L 171 125.13 L 172 125.13 L 173 124.63 L 174 124 L 175 123.38 L 176 121.38 L 177 121.38 L 178 121.38 L 179 123.06 L 180 124 L 181 124.94 L 182 127 L 183 127 L 184 127 L 185 125 L 186 124 L 187 123 L 188 121 L 189 121 L 190 121 L 191 123 L 192 124 L 193 125 L 194 127 L 195 127 L 196 127 L 197 125 L 198 124 L 199 123 L 200 121 L 201 121 L 202 121 L 203 123 L 204 124 L 205 125 L 206 127 L 207 127 L 208 127 L 209 125 L 210 124 L 211 123 L 212 121 L 213 121 L 214 121 L 215 123 L 216 124 L 217 125 L 218 127 L 219 127 L 220 127 L 221 125 L 222 124 L 223 123 L 224 121 L 225 121 L 226 121 L 227 123 L 228 124 L 229 125 L 230 127 L 231 127 L 232 127 L 233 125 L 234 124 L 235 123 L 236 121 L 237 121 L 238 121 L 239 123 L 240 124 L 241 125 L 242 127 L 243 127 L 244 127 L 245 125 L 246 124 L 247 123 L 248 121 L 249 121 L 250 121 L 251 123 L 252 124 L 253 125 L 254 127 L 255 127 L 256 127 L 257 125 L 258 124 L 259 123 L 260 121 L 261 121 L 262 121 L 263 123 L 264 124 L 265 125 L 266 127 L 267 127 L 268 127 L 269 125 L 270 124 L 271 123 L 272 121 L 273 121 L 274 121 L 275 123 L 276 124 L 277 125 L 278 127 L 279 127 L 280 127 L 281 125 L 282 124 L 283 123 L 284 121 L 285 121 L 286 121 L 287 123 L 288 124 L 289 125 L 290 127 L 291 127 L 292 127 L 293 125 L 294 124 L 295 123 L 296 121 L 297 121 L 298 121 L 299 123 L 300 124 L 301 125 L 302 127 L 303 127 L 304 127 L 305 125 L 306 124 L 307 123 L 308.5 121.5 L 308.75 121.25"/>
  </circle>
  <path d="M 529 280 L 529 344 L 529 344 L 529 324" stroke="#4A90D9" stroke-width="1.6" fill="none" stroke-dasharray="8 4">
    <animate attributeName="stroke-width" values="1.6;3.2;1.6" dur="1.4s" repeatCount="indefinite"/>
  </path>
  <rect x="24" y="124" width="130" height="56" fill="#F8FAFC" stroke="#CBD5E1" stroke-width="1.4" rx="8" />
  <rect x="24" y="124" width="130" height="8" fill="#7C3AED" stroke="#7C3AED" stroke-width="0" rx="4" />
  <circle cx="130" cy="152" r="9" fill="#F8FAFC" stroke="#7C3AED" stroke-width="1.3" />
  <path d="M 130 143 L 130 161 M 121 152 L 139 152" stroke="#7C3AED" stroke-width="1" fill="none" />
  <path d="M 121 152 Q 130 141, 139 152 Q 130 163, 121 152" stroke="#7C3AED" stroke-width="1" fill="none" />
  <text x="108" y="171" font-size="14" font-family="Inter, system-ui, -apple-system, sans-serif" fill="#1E293B" text-anchor="end" font-weight="bold">Branch Users</text>
  <rect x="244" y="124" width="130" height="56" fill="#F8FAFC" stroke="#CBD5E1" stroke-width="1.4" rx="8" />
  <rect x="244" y="124" width="130" height="8" fill="#0EA5A8" stroke="#0EA5A8" stroke-width="0" rx="4" />
  <rect x="258" y="143" width="20" height="5" fill="#F8FAFC" stroke="#0EA5A8" stroke-width="1.3" rx="1" />
  <rect x="258" y="150" width="20" height="5" fill="#F8FAFC" stroke="#0EA5A8" stroke-width="1.3" rx="1" />
  <rect x="258" y="157" width="20" height="5" fill="#F8FAFC" stroke="#0EA5A8" stroke-width="1.3" rx="1" />
  <text x="290" y="171" font-size="14" font-family="Inter, system-ui, -apple-system, sans-serif" fill="#1E293B" text-anchor="start" font-weight="bold">API Gateway</text>
  <rect x="244" y="224" width="130" height="56" fill="#F8FAFC" stroke="#CBD5E1" stroke-width="1.4" rx="8" />
  <rect x="244" y="224" width="130" height="8" fill="#D97706" stroke="#D97706" stroke-width="0" rx="4" />
  <rect x="299" y="247" width="20" height="5" fill="#F8FAFC" stroke="#D97706" stroke-width="1.3" rx="1" />
  <rect x="299" y="254" width="20" height="5" fill="#F8FAFC" stroke="#D97706" stroke-width="1.3" rx="1" />
  <rect x="299" y="261" width="20" height="5" fill="#F8FAFC" stroke="#D97706" stroke-width="1.3" rx="1" />
  <text x="309" y="245" font-size="14" font-family="Inter, system-ui, -apple-system, sans-serif" fill="#1E293B" text-anchor="middle" font-weight="bold">Event Collector</text>
  <rect x="464" y="124" width="130" height="56" fill="#F8FAFC" stroke="#CBD5E1" stroke-width="1.4" rx="8" />
  <rect x="464" y="124" width="130" height="8" fill="#5B4FCF" stroke="#5B4FCF" stroke-width="0" rx="4" />
  <rect x="519" y="139" width="20" height="5" fill="#F8FAFC" stroke="#5B4FCF" stroke-width="1.3" rx="1" />
  <rect x="519" y="146" width="20" height="5" fill="#F8FAFC" stroke="#5B4FCF" stroke-width="1.3" rx="1" />
  <rect x="519" y="153" width="20" height="5" fill="#F8FAFC" stroke="#5B4FCF" stroke-width="1.3" rx="1" />
  <text x="529" y="171" font-size="14" font-family="Inter, system-ui, -apple-system, sans-serif" fill="#1E293B" text-anchor="middle" font-weight="bold">Stream Bus</text>
  <rect x="464" y="224" width="130" height="56" fill="#F8FAFC" stroke="#CBD5E1" stroke-width="1.4" rx="8" />
  <rect x="464" y="224" width="130" height="8" fill="#DB2777" stroke="#DB2777" stroke-width="0" rx="4" />
  <rect x="479" y="247" width="18" height="18" fill="#F8FAFC" stroke="#DB2777" stroke-width="1.3" rx="5" />
  <path d="M 479 253 Q 488 257, 497 253" stroke="#DB2777" stroke-width="1.3" fill="none" />
  <text x="529" y="245" font-size="14" font-family="Inter, system-ui, -apple-system, sans-serif" fill="#1E293B" text-anchor="middle" font-weight="bold">Data Lake</text>
  <rect x="684" y="224" width="130" height="56" fill="#F8FAFC" stroke="#CBD5E1" stroke-width="1.4" rx="8" />
  <rect x="684" y="224" width="130" height="8" fill="#2563EB" stroke="#2563EB" stroke-width="0" rx="4" />
  <rect x="781" y="247" width="18" height="18" fill="#F8FAFC" stroke="#2563EB" stroke-width="1.3" rx="5" />
  <path d="M 781 253 Q 790 257, 799 253" stroke="#2563EB" stroke-width="1.3" fill="none" />
  <text x="749" y="245" font-size="14" font-family="Inter, system-ui, -apple-system, sans-serif" fill="#1E293B" text-anchor="middle" font-weight="bold">Warehouse</text>
  <rect x="24" y="24" width="130" height="56" fill="#F8FAFC" stroke="#CBD5E1" stroke-width="1.4" rx="8" />
  <rect x="24" y="24" width="130" height="8" fill="#16A34A" stroke="#16A34A" stroke-width="0" rx="4" />
  <rect x="80" y="43" width="18" height="18" fill="#F8FAFC" stroke="#16A34A" stroke-width="1.3" rx="4" />
  <text x="89" y="71" font-size="14" font-family="Inter, system-ui, -apple-system, sans-serif" fill="#1E293B" text-anchor="middle" font-weight="bold">Ops Dashboard</text>
  <rect x="464" y="324" width="130" height="56" fill="#F8FAFC" stroke="#CBD5E1" stroke-width="1.4" rx="8" />
  <rect x="464" y="324" width="130" height="8" fill="#CA8A04" stroke="#CA8A04" stroke-width="0" rx="4" />
  <rect x="479" y="339" width="18" height="18" fill="#F8FAFC" stroke="#CA8A04" stroke-width="1.3" rx="5" />
  <path d="M 479 345 Q 488 349, 497 345" stroke="#CA8A04" stroke-width="1.3" fill="none" />
  <text x="529" y="371" font-size="14" font-family="Inter, system-ui, -apple-system, sans-serif" fill="#1E293B" text-anchor="middle" font-weight="bold">Offline Backup</text>
</svg>