<svg xmlns="http://www.w3.org/2000/svg" viewBox="-24 -34 1371 777" width="1371" height="777">
  <defs>
    <marker id="arch-arrow-end" markerUnits="userSpaceOnUse" markerWidth="16" markerHeight="13" refX="14.4" refY="6.5" orient="auto"><polygon points="0 0, 16 6.5, 0 13" fill="#4A90D9" /></marker>
    <marker id="arch-arrow-start" markerUnits="userSpaceOnUse" markerWidth="16" markerHeight="13" refX="1.6" refY="6.5" orient="auto-start-reverse"><polygon points="0 0, 16 6.5, 0 13" fill="#4A90D9" /></marker>
  </defs>
  <rect x="-24" y="-34" width="1371" height="777" fill="#FFFFFF" />
  <rect x="457" y="243" width="180" height="230" fill="#7C3AED14" stroke="#7C3AED" stroke-width="1.4" rx="10" />
  <circle cx="469" cy="261" r="6" fill="#F8FAFC" stroke="#7C3AED" stroke-width="1.3" />
  <circle cx="481" cy="261" r="6" fill="#F8FAFC" stroke="#7C3AED" stroke-width="1.3" />
  <circle cx="475" cy="256" r="7" fill="#F8FAFC" stroke="#7C3AED" stroke-width="1.3" />
  <rect x="465" y="261" width="20" height="6" fill="#F8FAFC" stroke="#F8FAFC" stroke-width="0" />
  <text x="491" y="259" font-size="11" font-family="Inter, system-ui, -apple-system, sans-serif" fill="#7C3AED" text-anchor="start" font-weight="bold">Edge Landing Zone</text>
  <rect x="907" y="243" width="390" height="230" fill="#0EA5A814" stroke="#0EA5A8" stroke-width="1.4" rx="10" />
  <circle cx="1273" cy="261" r="6" fill="#F8FAFC" stroke="#0EA5A8" stroke-width="1.3" />
  <circle cx="1285" cy="261" r="6" fill="#F8FAFC" stroke="#0EA5A8" stroke-width="1.3" />
  <circle cx="1279" cy="256" r="7" fill="#F8FAFC" stroke="#0EA5A8" stroke-width="1.3" />
  <rect x="1269" y="261" width="20" height="6" fill="#F8FAFC" stroke="#F8FAFC" stroke-width="0" />
  <text x="1263" y="259" font-size="11" font-family="Inter, system-ui, -apple-system, sans-serif" fill="#0EA5A8" text-anchor="end" font-weight="bold">Core Data Platform</text>
  <rect x="4" y="-10" width="170" height="123" fill="#D9770614" stroke="#D97706" stroke-width="1.4" rx="10" />
  <rect x="146" y="-3" width="20" height="5" fill="#F8FAFC" stroke="#D97706" stroke-width="1.3" rx="1" />
  <rect x="146" y="4" width="20" height="5" fill="#F8FAFC" stroke="#D97706" stroke-width="1.3" rx="1" />
  <rect x="146" y="11" width="20" height="5" fill="#F8FAFC" stroke="#D97706" stroke-width="1.3" rx="1" />
  <text x="140" y="6" font-size="11" font-family="Inter, system-ui, -apple-system, sans-serif" fill="#D97706" text-anchor="end" font-weight="bold">Operations Console</text>
  <defs>
    <linearGradient id="triton-flow-1jm8wjz" gradientUnits="userSpaceOnUse" x1="167" y1="305" x2="477" y2="314.3333333333333">
      <stop offset="0%" stop-color="#4A90D9" stop-opacity="0.75"/>
      <stop offset="20%" stop-color="#4A90D9" stop-opacity="0.85">
        <animate attributeName="offset" values="0%;60%;100%" dur="1.6s" repeatCount="indefinite"/>
      </stop>
      <stop offset="35%" stop-color="#FFFFFF" stop-opacity="1">
        <animate attributeName="offset" values="10%;70%;100%" dur="1.6s" repeatCount="indefinite"/>
      </stop>
      <stop offset="50%" stop-color="#4A90D9" stop-opacity="0.85">
        <animate attributeName="offset" values="20%;80%;100%" dur="1.6s" repeatCount="indefinite"/>
      </stop>
      <stop offset="100%" stop-color="#4A90D9" stop-opacity="0.75"/>
    </linearGradient>
  </defs>
  <path d="M 167 305 L 477 314.3333333333333" stroke="url(#triton-flow-1jm8wjz)" stroke-width="1.6" fill="none" stroke-dasharray="8 4" marker-end="url(#arch-arrow-end)" />
  <path d="M 547 333 C 547 333.49 547.01 334.97 547 335.95 C 546.99 336.94 546.63 337.92 546.95 338.9 C 547.28 339.89 548.89 340.87 548.95 341.86 C 549 342.84 548.11 343.83 547.29 344.81 C 546.47 345.79 544.15 346.78 544.02 347.76 C 543.9 348.75 545.56 349.73 546.55 350.71 C 547.54 351.7 549.78 352.68 549.95 353.67 C 550.13 354.65 548.59 355.82 547.59 356.62 C 546.59 357.41 544.4 357.54 543.95 358.43 C 543.5 359.33 544.36 360.71 544.9 361.98 C 545.44 363.25 547.3 365.05 547.19 366.06 C 547.08 367.08 545.49 367.51 544.24 368.07 C 542.99 368.63 540.23 368.56 539.68 369.45 C 539.14 370.33 540.12 372.23 540.97 373.38 C 541.83 374.53 544.43 375.35 544.79 376.33 C 545.16 377.32 544.09 378.3 543.16 379.29 C 542.24 380.27 539.67 381.25 539.27 382.24 C 538.86 383.22 539.98 384.21 540.73 385.19 C 541.47 386.17 543.45 387.16 543.74 388.14 C 544.03 389.13 542.75 390.11 542.46 391.1 C 542.17 392.08 542.08 393.06 542 394.05 C 541.92 395.03 542 396.51 542 397" stroke="#4A90D9" stroke-width="1.6" fill="none" marker-end="url(#arch-arrow-end)" />
  <circle r="3.2" fill="#4A90D9" opacity="0.9">
    <animateMotion dur="2s" begin="0s" repeatCount="indefinite" rotate="auto" path="M 547 333 L 547 333.49 L 547.01 334.97 L 547 335.95 L 546.99 336.94 L 546.63 337.92 L 546.95 338.9 L 547.28 339.89 L 548.89 340.87 L 548.95 341.86 L 549 342.84 L 548.11 343.83 L 547.29 344.81 L 546.47 345.79 L 544.15 346.78 L 544.02 347.76 L 543.9 348.75 L 545.56 349.73 L 546.55 350.71 L 547.54 351.7 L 549.78 352.68 L 549.95 353.67 L 550.13 354.65 L 548.59 355.82 L 547.59 356.62 L 546.59 357.41 L 544.4 357.54 L 543.95 358.43 L 543.5 359.33 L 544.36 360.71 L 544.9 361.98 L 545.44 363.25 L 547.3 365.05 L 547.19 366.06 L 547.08 367.08 L 545.49 367.51 L 544.24 368.07 L 542.99 368.63 L 540.23 368.56 L 539.68 369.45 L 539.14 370.33 L 540.12 372.23 L 540.97 373.38 L 541.83 374.53 L 544.43 375.35 L 544.79 376.33 L 545.16 377.32 L 544.09 378.3 L 543.16 379.29 L 543.028 379.43"/>
  </circle>
  <circle r="3.2" fill="#4A90D9" opacity="0.9">
    <animateMotion dur="2s" begin="-0.5s" repeatCount="indefinite" rotate="auto" path="M 547 333 L 547 333.49 L 547.01 334.97 L 547 335.95 L 546.99 336.94 L 546.63 337.92 L 546.95 338.9 L 547.28 339.89 L 548.89 340.87 L 548.95 341.86 L 549 342.84 L 548.11 343.83 L 547.29 344.81 L 546.47 345.79 L 544.15 346.78 L 544.02 347.76 L 543.9 348.75 L 545.56 349.73 L 546.55 350.71 L 547.54 351.7 L 549.78 352.68 L 549.95 353.67 L 550.13 354.65 L 548.59 355.82 L 547.59 356.62 L 546.59 357.41 L 544.4 357.54 L 543.95 358.43 L 543.5 359.33 L 544.36 360.71 L 544.9 361.98 L 545.44 363.25 L 547.3 365.05 L 547.19 366.06 L 547.08 367.08 L 545.49 367.51 L 544.24 368.07 L 542.99 368.63 L 540.23 368.56 L 539.68 369.45 L 539.14 370.33 L 540.12 372.23 L 540.97 373.38 L 541.83 374.53 L 544.43 375.35 L 544.79 376.33 L 545.16 377.32 L 544.09 378.3 L 543.16 379.29 L 543.028 379.43"/>
  </circle>
  <circle r="3.2" fill="#4A90D9" opacity="0.9">
    <animateMotion dur="2s" begin="-1s" repeatCount="indefinite" rotate="auto" path="M 547 333 L 547 333.49 L 547.01 334.97 L 547 335.95 L 546.99 336.94 L 546.63 337.92 L 546.95 338.9 L 547.28 339.89 L 548.89 340.87 L 548.95 341.86 L 549 342.84 L 548.11 343.83 L 547.29 344.81 L 546.47 345.79 L 544.15 346.78 L 544.02 347.76 L 543.9 348.75 L 545.56 349.73 L 546.55 350.71 L 547.54 351.7 L 549.78 352.68 L 549.95 353.67 L 550.13 354.65 L 548.59 355.82 L 547.59 356.62 L 546.59 357.41 L 544.4 357.54 L 543.95 358.43 L 543.5 359.33 L 544.36 360.71 L 544.9 361.98 L 545.44 363.25 L 547.3 365.05 L 547.19 366.06 L 547.08 367.08 L 545.49 367.51 L 544.24 368.07 L 542.99 368.63 L 540.23 368.56 L 539.68 369.45 L 539.14 370.33 L 540.12 372.23 L 540.97 373.38 L 541.83 374.53 L 544.43 375.35 L 544.79 376.33 L 545.16 377.32 L 544.09 378.3 L 543.16 379.29 L 543.028 379.43"/>
  </circle>
  <circle r="3.2" fill="#4A90D9" opacity="0.9">
    <animateMotion dur="2s" begin="-1.5s" repeatCount="indefinite" rotate="auto" path="M 547 333 L 547 333.49 L 547.01 334.97 L 547 335.95 L 546.99 336.94 L 546.63 337.92 L 546.95 338.9 L 547.28 339.89 L 548.89 340.87 L 548.95 341.86 L 549 342.84 L 548.11 343.83 L 547.29 344.81 L 546.47 345.79 L 544.15 346.78 L 544.02 347.76 L 543.9 348.75 L 545.56 349.73 L 546.55 350.71 L 547.54 351.7 L 549.78 352.68 L 549.95 353.67 L 550.13 354.65 L 548.59 355.82 L 547.59 356.62 L 546.59 357.41 L 544.4 357.54 L 543.95 358.43 L 543.5 359.33 L 544.36 360.71 L 544.9 361.98 L 545.44 363.25 L 547.3 365.05 L 547.19 366.06 L 547.08 367.08 L 545.49 367.51 L 544.24 368.07 L 542.99 368.63 L 540.23 368.56 L 539.68 369.45 L 539.14 370.33 L 540.12 372.23 L 540.97 373.38 L 541.83 374.53 L 544.43 375.35 L 544.79 376.33 L 545.16 377.32 L 544.09 378.3 L 543.16 379.29 L 543.028 379.43"/>
  </circle>
  <path d="M 607 425 L 927 305" stroke="#4A90D9" stroke-width="1.6" fill="none" stroke-dasharray="8 4" marker-end="url(#arch-arrow-end)" marker-start="url(#arch-arrow-start)">
    <animate attributeName="stroke-dashoffset" from="0" to="-12" dur="0.8s" repeatCount="indefinite"/>
  </path>
  <path d="M 992 333 C 992 333.48 992.01 334.94 992 335.91 C 991.99 336.88 991.6 337.85 991.91 338.82 C 992.23 339.79 993.78 340.76 993.89 341.73 C 994 342.7 993.35 343.67 992.54 344.64 C 991.74 345.61 989.32 346.58 989.08 347.55 C 988.85 348.52 990.2 349.48 991.15 350.45 C 992.11 351.42 994.51 352.39 994.84 353.36 C 995.16 354.33 994.04 355.3 993.11 356.27 C 992.19 357.24 989.69 358.21 989.27 359.18 C 988.86 360.15 989.74 361.12 990.63 362.09 C 991.51 363.06 994.1 364.03 994.6 365 C 995.1 365.97 994.46 366.94 993.62 367.91 C 992.78 368.88 990.14 369.85 989.56 370.82 C 988.98 371.79 989.36 372.76 990.15 373.73 C 990.93 374.7 993.61 375.67 994.27 376.64 C 994.92 377.61 994.79 378.58 994.07 379.55 C 993.35 380.52 990.64 381.48 989.93 382.45 C 989.22 383.42 989.28 384.39 989.82 385.36 C 990.37 386.33 992.69 387.3 993.18 388.27 C 993.67 389.24 992.96 390.21 992.77 391.18 C 992.57 392.15 992.13 393.12 992 394.09 C 991.87 395.06 992 396.52 992 397" stroke="#4A90D9" stroke-width="1.6" fill="none" />
  <circle r="4" fill="#4A90D9">
    <animateMotion dur="1.5s" begin="0s" repeatCount="indefinite" rotate="auto" path="M 992 333 C 992 333.48 992.01 334.94 992 335.91 C 991.99 336.88 991.6 337.85 991.91 338.82 C 992.23 339.79 993.78 340.76 993.89 341.73 C 994 342.7 993.35 343.67 992.54 344.64 C 991.74 345.61 989.32 346.58 989.08 347.55 C 988.85 348.52 990.2 349.48 991.15 350.45 C 992.11 351.42 994.51 352.39 994.84 353.36 C 995.16 354.33 994.04 355.3 993.11 356.27 C 992.19 357.24 989.69 358.21 989.27 359.18 C 988.86 360.15 989.74 361.12 990.63 362.09 C 991.51 363.06 994.1 364.03 994.6 365 C 995.1 365.97 994.46 366.94 993.62 367.91 C 992.78 368.88 990.14 369.85 989.56 370.82 C 988.98 371.79 989.36 372.76 990.15 373.73 C 990.93 374.7 993.61 375.67 994.27 376.64 C 994.92 377.61 994.79 378.58 994.07 379.55 C 993.35 380.52 990.64 381.48 989.93 382.45 C 989.22 383.42 989.28 384.39 989.82 385.36 C 990.37 386.33 992.69 387.3 993.18 388.27 C 993.67 389.24 992.96 390.21 992.77 391.18 C 992.57 392.15 992.13 393.12 992 394.09 C 991.87 395.06 992 396.52 992 397"/>
  </circle>
  <path d="M 1057 425 L 1147 425" stroke="#4A90D9" stroke-width="3.2" fill="none" stroke-dasharray="90 90" marker-end="url(#arch-arrow-end)">
    <animate attributeName="stroke-dashoffset" values="0;90;0" dur="2s" repeatCount="indefinite"/>
  </path>
  <path d="M 1212 397 C 1212 247 304 58.5 154 58.5" stroke="#4A90D9" stroke-width="1.6" fill="none" stroke-dasharray="6 3" marker-end="url(#arch-arrow-end)">
    <animate attributeName="stroke-opacity" values="1;0.3;1" dur="1.6s" repeatCount="indefinite"/>
  </path>
  <path d="M 89 93 C 89.44 93.23 90.77 93.93 91.66 94.39 C 92.54 94.85 93.27 95.61 94.31 95.78 C 95.35 95.95 97.01 94.93 97.9 95.39 C 98.78 95.85 99.14 97.34 99.64 98.54 C 100.14 99.74 100.02 102.13 100.9 102.6 C 101.78 103.07 103.59 101.77 104.94 101.34 C 106.29 100.92 108.1 99.6 108.99 100.06 C 109.88 100.51 109.85 102.74 110.27 104.09 C 110.69 105.43 110.65 107.68 111.53 108.15 C 112.41 108.62 114.21 107.33 115.56 106.91 C 116.91 106.48 118.73 105.16 119.62 105.61 C 120.51 106.06 120.48 108.28 120.91 109.63 C 121.33 110.98 121.28 113.23 122.16 113.7 C 123.04 114.18 124.84 112.89 126.19 112.47 C 127.54 112.04 129.36 110.71 130.25 111.16 C 131.14 111.61 131.12 113.82 131.54 115.17 C 131.96 116.52 131.91 118.78 132.79 119.26 C 133.67 119.73 135.46 118.45 136.81 118.03 C 138.16 117.61 139.99 116.27 140.88 116.72 C 141.78 117.16 141.75 119.36 142.18 120.71 C 142.6 122.06 142.54 124.33 143.42 124.81 C 144.3 125.29 146.09 124.02 147.44 123.59 C 148.79 123.17 150.62 121.82 151.51 122.27 C 152.41 122.71 152.39 124.91 152.81 126.26 C 153.23 127.6 153.17 129.88 154.05 130.36 C 154.92 130.84 156.71 129.58 158.06 129.16 C 159.41 128.73 161.24 127.38 162.14 127.82 C 163.04 128.26 163.02 130.45 163.45 131.8 C 163.87 133.15 163.81 135.43 164.68 135.91 C 165.55 136.4 167.34 135.14 168.69 134.72 C 170.04 134.29 171.87 132.94 172.77 133.37 C 173.67 133.81 173.66 135.99 174.08 137.34 C 174.51 138.69 174.44 140.98 175.31 141.47 C 176.18 141.96 177.96 140.7 179.31 140.28 C 180.66 139.86 182.5 138.49 183.4 138.93 C 184.3 139.36 184.29 141.54 184.72 142.88 C 185.14 144.23 185.07 146.53 185.94 147.02 C 186.81 147.51 188.59 146.27 189.94 145.84 C 191.29 145.42 193.13 144.05 194.03 144.48 C 194.93 144.91 194.93 147.08 195.35 148.43 C 195.78 149.78 195.7 152.07 196.57 152.57 C 197.44 153.07 199.21 151.83 200.56 151.4 C 201.91 150.98 203.76 149.61 204.66 150.03 C 205.57 150.46 205.56 152.62 205.99 153.97 C 206.41 155.32 206.33 157.62 207.2 158.12 C 208.07 158.62 209.84 157.39 211.19 156.97 C 212.54 156.54 214.39 155.16 215.29 155.59 C 216.2 156.01 216.2 158.16 216.62 159.51 C 217.05 160.86 216.97 163.17 217.83 163.67 C 218.7 164.18 220.46 162.95 221.81 162.53 C 223.16 162.11 225.01 160.72 225.92 161.14 C 226.83 161.56 226.84 163.71 227.26 165.05 C 227.68 166.4 227.6 168.72 228.46 169.23 C 229.33 169.73 231.09 168.51 232.44 168.09 C 233.79 167.67 235.64 166.27 236.55 166.69 C 237.46 167.11 237.47 169.25 237.89 170.6 C 238.32 171.95 238.23 174.27 239.09 174.78 C 239.95 175.29 241.71 174.08 243.06 173.65 C 244.41 173.23 246.27 171.83 247.18 172.24 C 248.09 172.66 248.11 174.79 248.53 176.14 C 248.95 177.49 248.86 179.82 249.72 180.33 C 250.58 180.84 252.34 179.64 253.69 179.22 C 255.04 178.79 256.9 177.39 257.81 177.8 C 258.72 178.21 258.74 180.34 259.16 181.68 C 259.59 183.03 259.5 185.37 260.35 185.88 C 261.21 186.4 262.96 185.2 264.31 184.78 C 265.66 184.36 267.53 182.94 268.44 183.35 C 269.36 183.76 269.38 185.88 269.8 187.23 C 270.22 188.57 270.13 190.92 270.98 191.43 C 271.84 191.95 273.59 190.76 274.94 190.34 C 276.29 189.92 278.15 188.5 279.07 188.9 C 279.99 189.31 280.01 191.42 280.44 192.77 C 280.86 194.12 280.76 196.46 281.61 196.99 C 282.47 197.51 284.21 196.33 285.56 195.9 C 286.91 195.48 288.78 194.06 289.7 194.46 C 290.62 194.86 290.65 196.96 291.07 198.31 C 291.49 199.66 291.39 202.01 292.24 202.54 C 293.1 203.06 294.84 201.89 296.19 201.47 C 297.54 201.04 299.41 199.61 300.33 200.01 C 301.25 200.41 301.28 202.51 301.71 203.85 C 302.13 205.2 302.02 207.56 302.88 208.09 C 303.73 208.62 305.46 207.45 306.81 207.03 C 308.16 206.61 310.04 205.17 310.96 205.56 C 311.88 205.96 311.92 208.05 312.34 209.4 C 312.77 210.74 312.66 213.11 313.51 213.64 C 314.36 214.17 316.09 213.01 317.44 212.59 C 318.78 212.17 320.67 210.73 321.59 211.12 C 322.51 211.51 322.55 213.59 322.98 214.94 C 323.4 216.28 323.29 218.66 324.14 219.19 C 324.98 219.73 326.72 218.57 328.06 218.15 C 329.41 217.73 331.29 216.28 332.22 216.67 C 333.14 217.06 333.19 219.14 333.61 220.48 C 334.04 221.83 333.92 224.21 334.77 224.75 C 335.61 225.28 337.34 224.14 338.69 223.72 C 340.03 223.29 341.92 221.84 342.85 222.22 C 343.78 222.61 343.82 224.68 344.25 226.02 C 344.67 227.37 344.55 229.75 345.4 230.3 C 346.24 230.84 347.97 229.7 349.31 229.28 C 350.66 228.86 352.55 227.4 353.48 227.78 C 354.41 228.16 354.46 230.22 354.88 231.57 C 355.31 232.91 355.19 235.3 356.03 235.85 C 356.87 236.39 358.59 235.26 359.94 234.84 C 361.28 234.42 363.18 232.95 364.11 233.33 C 365.04 233.71 365.09 235.76 365.52 237.11 C 365.94 238.45 365.82 240.85 366.66 241.4 C 367.5 241.95 369.22 240.82 370.56 240.4 C 371.91 239.98 373.81 238.51 374.74 238.88 C 375.67 239.26 375.73 241.31 376.15 242.65 C 376.58 244 376.45 246.4 377.29 246.95 C 378.13 247.5 379.84 246.38 381.19 245.96 C 382.53 245.55 384.43 244.07 385.37 244.44 C 386.3 244.81 386.36 246.85 386.79 248.19 C 387.21 249.54 387.08 251.95 387.92 252.5 C 388.76 253.06 390.47 251.95 391.81 251.53 C 393.16 251.11 395.06 249.62 396 249.99 C 396.93 250.36 397 252.39 397.42 253.74 C 397.85 255.08 397.71 257.5 398.55 258.05 C 399.39 258.61 401.09 257.51 402.44 257.09 C 403.78 256.67 405.69 255.18 406.63 255.54 C 407.56 255.91 407.63 257.94 408.06 259.28 C 408.48 260.62 408.35 263.04 409.18 263.61 C 410.02 264.17 411.72 263.07 413.06 262.65 C 414.41 262.23 416.32 260.74 417.26 261.1 C 418.2 261.46 418.27 263.48 418.69 264.82 C 419.12 266.17 418.98 268.59 419.81 269.16 C 420.64 269.72 422.34 268.63 423.69 268.21 C 425.03 267.8 426.95 266.29 427.89 266.65 C 428.83 267.01 428.9 269.02 429.33 270.37 C 429.75 271.71 429.61 274.14 430.44 274.71 C 431.27 275.28 432.97 274.19 434.31 273.78 C 435.66 273.36 437.57 271.85 438.52 272.21 C 439.46 272.56 439.54 274.57 439.96 275.91 C 440.39 277.25 440.24 279.69 441.07 280.26 C 441.9 280.83 443.59 279.76 444.94 279.34 C 446.28 278.92 448.2 277.41 449.15 277.76 C 450.09 278.11 450.17 280.11 450.6 281.45 C 451.03 282.79 450.88 285.24 451.7 285.81 C 452.53 286.39 454.22 285.32 455.56 284.9 C 456.91 284.48 458.83 282.96 459.77 283.31 C 460.72 283.66 460.81 285.65 461.23 286.99 C 461.66 288.34 461.51 290.78 462.34 291.36 C 463.16 291.94 464.92 290.73 466.19 290.46 C 467.46 290.19 469.02 289.36 469.94 289.75 C 470.87 290.13 471.01 292.02 471.75 292.77 C 472.48 293.53 473.47 293.8 474.34 294.28 C 475.22 294.76 476.56 295.44 477 295.67" stroke="#4A90D9" stroke-width="1.6" fill="none" marker-end="url(#arch-arrow-end)" marker-start="url(#arch-arrow-start)" />
  <circle r="4.2" fill="#4A90D9" opacity="0.95">
    <animateMotion dur="1.8s" begin="0s" repeatCount="indefinite" rotate="auto" path="M 89 93 L 89.44 93.23 L 90.77 93.93 L 91.66 94.39 L 92.54 94.85 L 93.27 95.61 L 94.31 95.78 L 95.35 95.95 L 97.01 94.93 L 97.9 95.39 L 98.78 95.85 L 99.14 97.34 L 99.64 98.54 L 100.14 99.74 L 100.02 102.13 L 100.9 102.6 L 101.78 103.07 L 103.59 101.77 L 104.94 101.34 L 106.29 100.92 L 108.1 99.6 L 108.99 100.06 L 109.88 100.51 L 109.85 102.74 L 110.27 104.09 L 110.69 105.43 L 110.65 107.68 L 111.53 108.15 L 112.41 108.62 L 114.21 107.33 L 115.56 106.91 L 116.91 106.48 L 118.73 105.16 L 119.62 105.61 L 120.51 106.06 L 120.48 108.28 L 120.91 109.63 L 121.33 110.98 L 121.28 113.23 L 122.16 113.7 L 123.04 114.18 L 124.84 112.89 L 126.19 112.47 L 127.54 112.04 L 129.36 110.71 L 130.25 111.16 L 131.14 111.61 L 131.12 113.82 L 131.54 115.17 L 131.96 116.52 L 131.91 118.78 L 132.79 119.26 L 133.67 119.73 L 135.46 118.45 L 136.81 118.03 L 138.16 117.61 L 139.99 116.27 L 140.88 116.72 L 141.78 117.16 L 141.75 119.36 L 142.18 120.71 L 142.6 122.06 L 142.54 124.33 L 143.42 124.81 L 144.3 125.29 L 146.09 124.02 L 147.44 123.59 L 148.79 123.17 L 150.62 121.82 L 151.51 122.27 L 152.41 122.71 L 152.39 124.91 L 152.81 126.26 L 153.23 127.6 L 153.17 129.88 L 154.05 130.36 L 154.92 130.84 L 156.71 129.58 L 158.06 129.16 L 159.41 128.73 L 161.24 127.38 L 162.14 127.82 L 163.04 128.26 L 163.02 130.45 L 163.45 131.8 L 163.87 133.15 L 163.81 135.43 L 164.68 135.91 L 165.55 136.4 L 167.34 135.14 L 168.69 134.72 L 170.04 134.29 L 171.87 132.94 L 172.77 133.37 L 173.67 133.81 L 173.66 135.99 L 174.08 137.34 L 174.51 138.69 L 174.44 140.98 L 175.31 141.47 L 176.18 141.96 L 177.96 140.7 L 179.31 140.28 L 180.66 139.86 L 182.5 138.49 L 183.4 138.93 L 184.3 139.36 L 184.29 141.54 L 184.72 142.88 L 185.14 144.23 L 185.07 146.53 L 185.94 147.02 L 186.81 147.51 L 188.59 146.27 L 189.94 145.84 L 191.29 145.42 L 193.13 144.05 L 194.03 144.48 L 194.93 144.91 L 194.93 147.08 L 195.35 148.43 L 195.78 149.78 L 195.7 152.07 L 196.57 152.57 L 197.44 153.07 L 199.21 151.83 L 200.56 151.4 L 201.91 150.98 L 203.76 149.61 L 204.66 150.03 L 205.57 150.46 L 205.56 152.62 L 205.99 153.97 L 206.41 155.32 L 206.33 157.62 L 207.2 158.12 L 208.07 158.62 L 209.84 157.39 L 211.19 156.97 L 212.54 156.54 L 214.39 155.16 L 215.29 155.59 L 216.2 156.01 L 216.2 158.16 L 216.62 159.51 L 217.05 160.86 L 216.97 163.17 L 217.83 163.67 L 218.7 164.18 L 220.46 162.95 L 221.81 162.53 L 223.16 162.11 L 225.01 160.72 L 225.92 161.14 L 226.83 161.56 L 226.84 163.71 L 227.26 165.05 L 227.68 166.4 L 227.6 168.72 L 228.46 169.23 L 229.33 169.73 L 231.09 168.51 L 232.44 168.09 L 233.79 167.67 L 235.64 166.27 L 236.55 166.69 L 237.46 167.11 L 237.47 169.25 L 237.89 170.6 L 238.32 171.95 L 238.23 174.27 L 239.09 174.78 L 239.95 175.29 L 241.71 174.08 L 243.06 173.65 L 244.41 173.23 L 246.27 171.83 L 247.18 172.24 L 248.09 172.66 L 248.11 174.79 L 248.53 176.14 L 248.95 177.49 L 248.86 179.82 L 249.72 180.33 L 250.58 180.84 L 252.34 179.64 L 253.69 179.22 L 255.04 178.79 L 256.9 177.39 L 257.81 177.8 L 258.72 178.21 L 258.74 180.34 L 259.16 181.68 L 259.59 183.03 L 259.5 185.37 L 260.35 185.88 L 261.21 186.4 L 262.96 185.2 L 264.31 184.78 L 265.66 184.36 L 267.53 182.94 L 268.44 183.35 L 269.36 183.76 L 269.38 185.88 L 269.8 187.23 L 270.22 188.57 L 270.13 190.92 L 270.98 191.43 L 271.84 191.95 L 273.59 190.76 L 274.94 190.34 L 276.29 189.92 L 278.15 188.5 L 279.07 188.9 L 279.99 189.31 L 280.01 191.42 L 280.44 192.77 L 280.86 194.12 L 280.76 196.46 L 281.61 196.99 L 282.47 197.51 L 284.21 196.33 L 285.56 195.9 L 286.91 195.48 L 288.78 194.06 L 289.7 194.46 L 290.62 194.86 L 290.65 196.96 L 291.07 198.31 L 291.49 199.66 L 291.39 202.01 L 292.24 202.54 L 293.1 203.06 L 294.84 201.89 L 296.19 201.47 L 297.54 201.04 L 299.41 199.61 L 300.33 200.01 L 301.25 200.41 L 301.28 202.51 L 301.71 203.85 L 302.13 205.2 L 302.02 207.56 L 302.88 208.09 L 303.73 208.62 L 305.46 207.45 L 306.81 207.03 L 308.16 206.61 L 310.04 205.17 L 310.96 205.56 L 311.88 205.96 L 311.92 208.05 L 312.34 209.4 L 312.77 210.74 L 312.66 213.11 L 313.51 213.64 L 314.36 214.17 L 316.09 213.01 L 317.44 212.59 L 318.78 212.17 L 320.67 210.73 L 321.59 211.12 L 322.51 211.51 L 322.55 213.59 L 322.98 214.94 L 323.4 216.28 L 323.29 218.66 L 324.14 219.19 L 324.98 219.73 L 326.72 218.57 L 328.06 218.15 L 329.41 217.73 L 331.29 216.28 L 332.22 216.67 L 333.14 217.06 L 333.19 219.14 L 333.61 220.48 L 334.04 221.83 L 333.92 224.21 L 334.77 224.75 L 335.61 225.28 L 337.34 224.14 L 338.69 223.72 L 340.03 223.29 L 341.92 221.84 L 342.85 222.22 L 343.78 222.61 L 343.82 224.68 L 344.25 226.02 L 344.67 227.37 L 344.55 229.75 L 345.4 230.3 L 346.24 230.84 L 347.97 229.7 L 349.31 229.28 L 350.66 228.86 L 352.55 227.4 L 353.48 227.78 L 354.41 228.16 L 354.46 230.22 L 354.88 231.57 L 355.31 232.91 L 355.19 235.3 L 356.03 235.85 L 356.87 236.39 L 358.59 235.26 L 359.94 234.84 L 361.28 234.42 L 363.18 232.95 L 364.11 233.33 L 365.04 233.71 L 365.09 235.76 L 365.52 237.11 L 365.94 238.45 L 365.82 240.85 L 366.66 241.4 L 367.5 241.95 L 369.22 240.82 L 370.56 240.4 L 371.91 239.98 L 373.81 238.51 L 374.74 238.88 L 375.67 239.26 L 375.73 241.31 L 376.15 242.65 L 376.58 244 L 376.45 246.4 L 377.29 246.95 L 378.13 247.5 L 379.84 246.38 L 381.19 245.96 L 382.53 245.55 L 384.43 244.07 L 385.37 244.44 L 386.3 244.81 L 386.36 246.85 L 386.79 248.19 L 387.21 249.54 L 387.08 251.95 L 387.92 252.5 L 388.76 253.06 L 390.47 251.95 L 391.81 251.53 L 393.16 251.11 L 395.06 249.62 L 396 249.99 L 396.93 250.36 L 397 252.39 L 397.42 253.74 L 397.85 255.08 L 397.71 257.5 L 398.55 258.05 L 399.39 258.61 L 401.09 257.51 L 402.44 257.09 L 403.78 256.67 L 405.69 255.18 L 406.63 255.54 L 407.56 255.91 L 407.63 257.94 L 408.06 259.28 L 408.48 260.62 L 408.35 263.04 L 409.18 263.61 L 410.02 264.17 L 411.72 263.07 L 413.06 262.65 L 414.41 262.23 L 416.32 260.74 L 417.26 261.1 L 418.2 261.46 L 418.27 263.48 L 418.69 264.82 L 419.12 266.17 L 418.98 268.59 L 419.81 269.16 L 420.64 269.72 L 422.34 268.63 L 423.69 268.21 L 425.03 267.8 L 426.95 266.29 L 427.89 266.65 L 428.83 267.01 L 428.9 269.02 L 429.33 270.37 L 429.75 271.71 L 429.61 274.14 L 430.44 274.71 L 431.27 275.28 L 432.97 274.19 L 434.31 273.78 L 435.66 273.36 L 437.57 271.85 L 438.52 272.21 L 439.46 272.56 L 439.54 274.57 L 439.96 275.91 L 440.39 277.25 L 440.24 279.69 L 441.07 280.26 L 441.9 280.83 L 443.59 279.76 L 444.94 279.34 L 446.28 278.92 L 448.2 277.41 L 449.15 277.76 L 450.09 278.11 L 450.17 280.11 L 450.6 281.45 L 451.03 282.79 L 450.88 285.24 L 451.7 285.81 L 452.53 286.39 L 454.22 285.32 L 455.56 284.9 L 456.91 284.48 L 458.83 282.96 L 459.77 283.31 L 460.72 283.66 L 460.81 285.65 L 460.985 286.21"/>
  </circle>
  <circle r="3.1" fill="#4A90D9" opacity="0.45">
    <animateMotion dur="1.8s" begin="-0.18s" repeatCount="indefinite" rotate="auto" path="M 89 93 L 89.44 93.23 L 90.77 93.93 L 91.66 94.39 L 92.54 94.85 L 93.27 95.61 L 94.31 95.78 L 95.35 95.95 L 97.01 94.93 L 97.9 95.39 L 98.78 95.85 L 99.14 97.34 L 99.64 98.54 L 100.14 99.74 L 100.02 102.13 L 100.9 102.6 L 101.78 103.07 L 103.59 101.77 L 104.94 101.34 L 106.29 100.92 L 108.1 99.6 L 108.99 100.06 L 109.88 100.51 L 109.85 102.74 L 110.27 104.09 L 110.69 105.43 L 110.65 107.68 L 111.53 108.15 L 112.41 108.62 L 114.21 107.33 L 115.56 106.91 L 116.91 106.48 L 118.73 105.16 L 119.62 105.61 L 120.51 106.06 L 120.48 108.28 L 120.91 109.63 L 121.33 110.98 L 121.28 113.23 L 122.16 113.7 L 123.04 114.18 L 124.84 112.89 L 126.19 112.47 L 127.54 112.04 L 129.36 110.71 L 130.25 111.16 L 131.14 111.61 L 131.12 113.82 L 131.54 115.17 L 131.96 116.52 L 131.91 118.78 L 132.79 119.26 L 133.67 119.73 L 135.46 118.45 L 136.81 118.03 L 138.16 117.61 L 139.99 116.27 L 140.88 116.72 L 141.78 117.16 L 141.75 119.36 L 142.18 120.71 L 142.6 122.06 L 142.54 124.33 L 143.42 124.81 L 144.3 125.29 L 146.09 124.02 L 147.44 123.59 L 148.79 123.17 L 150.62 121.82 L 151.51 122.27 L 152.41 122.71 L 152.39 124.91 L 152.81 126.26 L 153.23 127.6 L 153.17 129.88 L 154.05 130.36 L 154.92 130.84 L 156.71 129.58 L 158.06 129.16 L 159.41 128.73 L 161.24 127.38 L 162.14 127.82 L 163.04 128.26 L 163.02 130.45 L 163.45 131.8 L 163.87 133.15 L 163.81 135.43 L 164.68 135.91 L 165.55 136.4 L 167.34 135.14 L 168.69 134.72 L 170.04 134.29 L 171.87 132.94 L 172.77 133.37 L 173.67 133.81 L 173.66 135.99 L 174.08 137.34 L 174.51 138.69 L 174.44 140.98 L 175.31 141.47 L 176.18 141.96 L 177.96 140.7 L 179.31 140.28 L 180.66 139.86 L 182.5 138.49 L 183.4 138.93 L 184.3 139.36 L 184.29 141.54 L 184.72 142.88 L 185.14 144.23 L 185.07 146.53 L 185.94 147.02 L 186.81 147.51 L 188.59 146.27 L 189.94 145.84 L 191.29 145.42 L 193.13 144.05 L 194.03 144.48 L 194.93 144.91 L 194.93 147.08 L 195.35 148.43 L 195.78 149.78 L 195.7 152.07 L 196.57 152.57 L 197.44 153.07 L 199.21 151.83 L 200.56 151.4 L 201.91 150.98 L 203.76 149.61 L 204.66 150.03 L 205.57 150.46 L 205.56 152.62 L 205.99 153.97 L 206.41 155.32 L 206.33 157.62 L 207.2 158.12 L 208.07 158.62 L 209.84 157.39 L 211.19 156.97 L 212.54 156.54 L 214.39 155.16 L 215.29 155.59 L 216.2 156.01 L 216.2 158.16 L 216.62 159.51 L 217.05 160.86 L 216.97 163.17 L 217.83 163.67 L 218.7 164.18 L 220.46 162.95 L 221.81 162.53 L 223.16 162.11 L 225.01 160.72 L 225.92 161.14 L 226.83 161.56 L 226.84 163.71 L 227.26 165.05 L 227.68 166.4 L 227.6 168.72 L 228.46 169.23 L 229.33 169.73 L 231.09 168.51 L 232.44 168.09 L 233.79 167.67 L 235.64 166.27 L 236.55 166.69 L 237.46 167.11 L 237.47 169.25 L 237.89 170.6 L 238.32 171.95 L 238.23 174.27 L 239.09 174.78 L 239.95 175.29 L 241.71 174.08 L 243.06 173.65 L 244.41 173.23 L 246.27 171.83 L 247.18 172.24 L 248.09 172.66 L 248.11 174.79 L 248.53 176.14 L 248.95 177.49 L 248.86 179.82 L 249.72 180.33 L 250.58 180.84 L 252.34 179.64 L 253.69 179.22 L 255.04 178.79 L 256.9 177.39 L 257.81 177.8 L 258.72 178.21 L 258.74 180.34 L 259.16 181.68 L 259.59 183.03 L 259.5 185.37 L 260.35 185.88 L 261.21 186.4 L 262.96 185.2 L 264.31 184.78 L 265.66 184.36 L 267.53 182.94 L 268.44 183.35 L 269.36 183.76 L 269.38 185.88 L 269.8 187.23 L 270.22 188.57 L 270.13 190.92 L 270.98 191.43 L 271.84 191.95 L 273.59 190.76 L 274.94 190.34 L 276.29 189.92 L 278.15 188.5 L 279.07 188.9 L 279.99 189.31 L 280.01 191.42 L 280.44 192.77 L 280.86 194.12 L 280.76 196.46 L 281.61 196.99 L 282.47 197.51 L 284.21 196.33 L 285.56 195.9 L 286.91 195.48 L 288.78 194.06 L 289.7 194.46 L 290.62 194.86 L 290.65 196.96 L 291.07 198.31 L 291.49 199.66 L 291.39 202.01 L 292.24 202.54 L 293.1 203.06 L 294.84 201.89 L 296.19 201.47 L 297.54 201.04 L 299.41 199.61 L 300.33 200.01 L 301.25 200.41 L 301.28 202.51 L 301.71 203.85 L 302.13 205.2 L 302.02 207.56 L 302.88 208.09 L 303.73 208.62 L 305.46 207.45 L 306.81 207.03 L 308.16 206.61 L 310.04 205.17 L 310.96 205.56 L 311.88 205.96 L 311.92 208.05 L 312.34 209.4 L 312.77 210.74 L 312.66 213.11 L 313.51 213.64 L 314.36 214.17 L 316.09 213.01 L 317.44 212.59 L 318.78 212.17 L 320.67 210.73 L 321.59 211.12 L 322.51 211.51 L 322.55 213.59 L 322.98 214.94 L 323.4 216.28 L 323.29 218.66 L 324.14 219.19 L 324.98 219.73 L 326.72 218.57 L 328.06 218.15 L 329.41 217.73 L 331.29 216.28 L 332.22 216.67 L 333.14 217.06 L 333.19 219.14 L 333.61 220.48 L 334.04 221.83 L 333.92 224.21 L 334.77 224.75 L 335.61 225.28 L 337.34 224.14 L 338.69 223.72 L 340.03 223.29 L 341.92 221.84 L 342.85 222.22 L 343.78 222.61 L 343.82 224.68 L 344.25 226.02 L 344.67 227.37 L 344.55 229.75 L 345.4 230.3 L 346.24 230.84 L 347.97 229.7 L 349.31 229.28 L 350.66 228.86 L 352.55 227.4 L 353.48 227.78 L 354.41 228.16 L 354.46 230.22 L 354.88 231.57 L 355.31 232.91 L 355.19 235.3 L 356.03 235.85 L 356.87 236.39 L 358.59 235.26 L 359.94 234.84 L 361.28 234.42 L 363.18 232.95 L 364.11 233.33 L 365.04 233.71 L 365.09 235.76 L 365.52 237.11 L 365.94 238.45 L 365.82 240.85 L 366.66 241.4 L 367.5 241.95 L 369.22 240.82 L 370.56 240.4 L 371.91 239.98 L 373.81 238.51 L 374.74 238.88 L 375.67 239.26 L 375.73 241.31 L 376.15 242.65 L 376.58 244 L 376.45 246.4 L 377.29 246.95 L 378.13 247.5 L 379.84 246.38 L 381.19 245.96 L 382.53 245.55 L 384.43 244.07 L 385.37 244.44 L 386.3 244.81 L 386.36 246.85 L 386.79 248.19 L 387.21 249.54 L 387.08 251.95 L 387.92 252.5 L 388.76 253.06 L 390.47 251.95 L 391.81 251.53 L 393.16 251.11 L 395.06 249.62 L 396 249.99 L 396.93 250.36 L 397 252.39 L 397.42 253.74 L 397.85 255.08 L 397.71 257.5 L 398.55 258.05 L 399.39 258.61 L 401.09 257.51 L 402.44 257.09 L 403.78 256.67 L 405.69 255.18 L 406.63 255.54 L 407.56 255.91 L 407.63 257.94 L 408.06 259.28 L 408.48 260.62 L 408.35 263.04 L 409.18 263.61 L 410.02 264.17 L 411.72 263.07 L 413.06 262.65 L 414.41 262.23 L 416.32 260.74 L 417.26 261.1 L 418.2 261.46 L 418.27 263.48 L 418.69 264.82 L 419.12 266.17 L 418.98 268.59 L 419.81 269.16 L 420.64 269.72 L 422.34 268.63 L 423.69 268.21 L 425.03 267.8 L 426.95 266.29 L 427.89 266.65 L 428.83 267.01 L 428.9 269.02 L 429.33 270.37 L 429.75 271.71 L 429.61 274.14 L 430.44 274.71 L 431.27 275.28 L 432.97 274.19 L 434.31 273.78 L 435.66 273.36 L 437.57 271.85 L 438.52 272.21 L 439.46 272.56 L 439.54 274.57 L 439.96 275.91 L 440.39 277.25 L 440.24 279.69 L 441.07 280.26 L 441.9 280.83 L 443.59 279.76 L 444.94 279.34 L 446.28 278.92 L 448.2 277.41 L 449.15 277.76 L 450.09 278.11 L 450.17 280.11 L 450.6 281.45 L 451.03 282.79 L 450.88 285.24 L 451.7 285.81 L 452.53 286.39 L 454.22 285.32 L 455.56 284.9 L 456.91 284.48 L 458.83 282.96 L 459.77 283.31 L 460.72 283.66 L 460.81 285.65 L 460.985 286.21"/>
  </circle>
  <circle r="2.2" fill="#4A90D9" opacity="0.22">
    <animateMotion dur="1.8s" begin="-0.36s" repeatCount="indefinite" rotate="auto" path="M 89 93 L 89.44 93.23 L 90.77 93.93 L 91.66 94.39 L 92.54 94.85 L 93.27 95.61 L 94.31 95.78 L 95.35 95.95 L 97.01 94.93 L 97.9 95.39 L 98.78 95.85 L 99.14 97.34 L 99.64 98.54 L 100.14 99.74 L 100.02 102.13 L 100.9 102.6 L 101.78 103.07 L 103.59 101.77 L 104.94 101.34 L 106.29 100.92 L 108.1 99.6 L 108.99 100.06 L 109.88 100.51 L 109.85 102.74 L 110.27 104.09 L 110.69 105.43 L 110.65 107.68 L 111.53 108.15 L 112.41 108.62 L 114.21 107.33 L 115.56 106.91 L 116.91 106.48 L 118.73 105.16 L 119.62 105.61 L 120.51 106.06 L 120.48 108.28 L 120.91 109.63 L 121.33 110.98 L 121.28 113.23 L 122.16 113.7 L 123.04 114.18 L 124.84 112.89 L 126.19 112.47 L 127.54 112.04 L 129.36 110.71 L 130.25 111.16 L 131.14 111.61 L 131.12 113.82 L 131.54 115.17 L 131.96 116.52 L 131.91 118.78 L 132.79 119.26 L 133.67 119.73 L 135.46 118.45 L 136.81 118.03 L 138.16 117.61 L 139.99 116.27 L 140.88 116.72 L 141.78 117.16 L 141.75 119.36 L 142.18 120.71 L 142.6 122.06 L 142.54 124.33 L 143.42 124.81 L 144.3 125.29 L 146.09 124.02 L 147.44 123.59 L 148.79 123.17 L 150.62 121.82 L 151.51 122.27 L 152.41 122.71 L 152.39 124.91 L 152.81 126.26 L 153.23 127.6 L 153.17 129.88 L 154.05 130.36 L 154.92 130.84 L 156.71 129.58 L 158.06 129.16 L 159.41 128.73 L 161.24 127.38 L 162.14 127.82 L 163.04 128.26 L 163.02 130.45 L 163.45 131.8 L 163.87 133.15 L 163.81 135.43 L 164.68 135.91 L 165.55 136.4 L 167.34 135.14 L 168.69 134.72 L 170.04 134.29 L 171.87 132.94 L 172.77 133.37 L 173.67 133.81 L 173.66 135.99 L 174.08 137.34 L 174.51 138.69 L 174.44 140.98 L 175.31 141.47 L 176.18 141.96 L 177.96 140.7 L 179.31 140.28 L 180.66 139.86 L 182.5 138.49 L 183.4 138.93 L 184.3 139.36 L 184.29 141.54 L 184.72 142.88 L 185.14 144.23 L 185.07 146.53 L 185.94 147.02 L 186.81 147.51 L 188.59 146.27 L 189.94 145.84 L 191.29 145.42 L 193.13 144.05 L 194.03 144.48 L 194.93 144.91 L 194.93 147.08 L 195.35 148.43 L 195.78 149.78 L 195.7 152.07 L 196.57 152.57 L 197.44 153.07 L 199.21 151.83 L 200.56 151.4 L 201.91 150.98 L 203.76 149.61 L 204.66 150.03 L 205.57 150.46 L 205.56 152.62 L 205.99 153.97 L 206.41 155.32 L 206.33 157.62 L 207.2 158.12 L 208.07 158.62 L 209.84 157.39 L 211.19 156.97 L 212.54 156.54 L 214.39 155.16 L 215.29 155.59 L 216.2 156.01 L 216.2 158.16 L 216.62 159.51 L 217.05 160.86 L 216.97 163.17 L 217.83 163.67 L 218.7 164.18 L 220.46 162.95 L 221.81 162.53 L 223.16 162.11 L 225.01 160.72 L 225.92 161.14 L 226.83 161.56 L 226.84 163.71 L 227.26 165.05 L 227.68 166.4 L 227.6 168.72 L 228.46 169.23 L 229.33 169.73 L 231.09 168.51 L 232.44 168.09 L 233.79 167.67 L 235.64 166.27 L 236.55 166.69 L 237.46 167.11 L 237.47 169.25 L 237.89 170.6 L 238.32 171.95 L 238.23 174.27 L 239.09 174.78 L 239.95 175.29 L 241.71 174.08 L 243.06 173.65 L 244.41 173.23 L 246.27 171.83 L 247.18 172.24 L 248.09 172.66 L 248.11 174.79 L 248.53 176.14 L 248.95 177.49 L 248.86 179.82 L 249.72 180.33 L 250.58 180.84 L 252.34 179.64 L 253.69 179.22 L 255.04 178.79 L 256.9 177.39 L 257.81 177.8 L 258.72 178.21 L 258.74 180.34 L 259.16 181.68 L 259.59 183.03 L 259.5 185.37 L 260.35 185.88 L 261.21 186.4 L 262.96 185.2 L 264.31 184.78 L 265.66 184.36 L 267.53 182.94 L 268.44 183.35 L 269.36 183.76 L 269.38 185.88 L 269.8 187.23 L 270.22 188.57 L 270.13 190.92 L 270.98 191.43 L 271.84 191.95 L 273.59 190.76 L 274.94 190.34 L 276.29 189.92 L 278.15 188.5 L 279.07 188.9 L 279.99 189.31 L 280.01 191.42 L 280.44 192.77 L 280.86 194.12 L 280.76 196.46 L 281.61 196.99 L 282.47 197.51 L 284.21 196.33 L 285.56 195.9 L 286.91 195.48 L 288.78 194.06 L 289.7 194.46 L 290.62 194.86 L 290.65 196.96 L 291.07 198.31 L 291.49 199.66 L 291.39 202.01 L 292.24 202.54 L 293.1 203.06 L 294.84 201.89 L 296.19 201.47 L 297.54 201.04 L 299.41 199.61 L 300.33 200.01 L 301.25 200.41 L 301.28 202.51 L 301.71 203.85 L 302.13 205.2 L 302.02 207.56 L 302.88 208.09 L 303.73 208.62 L 305.46 207.45 L 306.81 207.03 L 308.16 206.61 L 310.04 205.17 L 310.96 205.56 L 311.88 205.96 L 311.92 208.05 L 312.34 209.4 L 312.77 210.74 L 312.66 213.11 L 313.51 213.64 L 314.36 214.17 L 316.09 213.01 L 317.44 212.59 L 318.78 212.17 L 320.67 210.73 L 321.59 211.12 L 322.51 211.51 L 322.55 213.59 L 322.98 214.94 L 323.4 216.28 L 323.29 218.66 L 324.14 219.19 L 324.98 219.73 L 326.72 218.57 L 328.06 218.15 L 329.41 217.73 L 331.29 216.28 L 332.22 216.67 L 333.14 217.06 L 333.19 219.14 L 333.61 220.48 L 334.04 221.83 L 333.92 224.21 L 334.77 224.75 L 335.61 225.28 L 337.34 224.14 L 338.69 223.72 L 340.03 223.29 L 341.92 221.84 L 342.85 222.22 L 343.78 222.61 L 343.82 224.68 L 344.25 226.02 L 344.67 227.37 L 344.55 229.75 L 345.4 230.3 L 346.24 230.84 L 347.97 229.7 L 349.31 229.28 L 350.66 228.86 L 352.55 227.4 L 353.48 227.78 L 354.41 228.16 L 354.46 230.22 L 354.88 231.57 L 355.31 232.91 L 355.19 235.3 L 356.03 235.85 L 356.87 236.39 L 358.59 235.26 L 359.94 234.84 L 361.28 234.42 L 363.18 232.95 L 364.11 233.33 L 365.04 233.71 L 365.09 235.76 L 365.52 237.11 L 365.94 238.45 L 365.82 240.85 L 366.66 241.4 L 367.5 241.95 L 369.22 240.82 L 370.56 240.4 L 371.91 239.98 L 373.81 238.51 L 374.74 238.88 L 375.67 239.26 L 375.73 241.31 L 376.15 242.65 L 376.58 244 L 376.45 246.4 L 377.29 246.95 L 378.13 247.5 L 379.84 246.38 L 381.19 245.96 L 382.53 245.55 L 384.43 244.07 L 385.37 244.44 L 386.3 244.81 L 386.36 246.85 L 386.79 248.19 L 387.21 249.54 L 387.08 251.95 L 387.92 252.5 L 388.76 253.06 L 390.47 251.95 L 391.81 251.53 L 393.16 251.11 L 395.06 249.62 L 396 249.99 L 396.93 250.36 L 397 252.39 L 397.42 253.74 L 397.85 255.08 L 397.71 257.5 L 398.55 258.05 L 399.39 258.61 L 401.09 257.51 L 402.44 257.09 L 403.78 256.67 L 405.69 255.18 L 406.63 255.54 L 407.56 255.91 L 407.63 257.94 L 408.06 259.28 L 408.48 260.62 L 408.35 263.04 L 409.18 263.61 L 410.02 264.17 L 411.72 263.07 L 413.06 262.65 L 414.41 262.23 L 416.32 260.74 L 417.26 261.1 L 418.2 261.46 L 418.27 263.48 L 418.69 264.82 L 419.12 266.17 L 418.98 268.59 L 419.81 269.16 L 420.64 269.72 L 422.34 268.63 L 423.69 268.21 L 425.03 267.8 L 426.95 266.29 L 427.89 266.65 L 428.83 267.01 L 428.9 269.02 L 429.33 270.37 L 429.75 271.71 L 429.61 274.14 L 430.44 274.71 L 431.27 275.28 L 432.97 274.19 L 434.31 273.78 L 435.66 273.36 L 437.57 271.85 L 438.52 272.21 L 439.46 272.56 L 439.54 274.57 L 439.96 275.91 L 440.39 277.25 L 440.24 279.69 L 441.07 280.26 L 441.9 280.83 L 443.59 279.76 L 444.94 279.34 L 446.28 278.92 L 448.2 277.41 L 449.15 277.76 L 450.09 278.11 L 450.17 280.11 L 450.6 281.45 L 451.03 282.79 L 450.88 285.24 L 451.7 285.81 L 452.53 286.39 L 454.22 285.32 L 455.56 284.9 L 456.91 284.48 L 458.83 282.96 L 459.77 283.31 L 460.72 283.66 L 460.81 285.65 L 460.985 286.21"/>
  </circle>
  <path d="M 992 453 L 992 637" stroke="#4A90D9" stroke-width="1.6" fill="none" stroke-dasharray="8 4">
    <animate attributeName="stroke-width" values="1.6;3.2;1.6" dur="1.4s" repeatCount="indefinite"/>
  </path>
  <rect x="24" y="277" width="143" height="56" fill="#F8FAFC" stroke="#CBD5E1" stroke-width="1.4" rx="8" />
  <rect x="24" y="277" width="143" height="8" fill="#7C3AED" stroke="#7C3AED" stroke-width="0" rx="4" />
  <circle cx="150" cy="309" r="9" fill="#F8FAFC" stroke="#7C3AED" stroke-width="1.3" />
  <path d="M 150 300 L 150 318 M 141 309 L 159 309" stroke="#7C3AED" stroke-width="1" fill="none" />
  <path d="M 141 309 Q 150 298, 159 309 Q 150 320, 141 309" stroke="#7C3AED" stroke-width="1" fill="none" />
  <text x="36" y="313.9" font-size="14" font-family="Inter, system-ui, -apple-system, sans-serif" fill="#1E293B" text-anchor="start" font-weight="bold">Branch Users</text>
  <rect x="477" y="277" width="140" height="56" fill="#F8FAFC" stroke="#CBD5E1" stroke-width="1.4" rx="8" />
  <rect x="477" y="277" width="140" height="8" fill="#0EA5A8" stroke="#0EA5A8" stroke-width="0" rx="4" />
  <rect x="484" y="300" width="20" height="5" fill="#F8FAFC" stroke="#0EA5A8" stroke-width="1.3" rx="1" />
  <rect x="484" y="307" width="20" height="5" fill="#F8FAFC" stroke="#0EA5A8" stroke-width="1.3" rx="1" />
  <rect x="484" y="314" width="20" height="5" fill="#F8FAFC" stroke="#0EA5A8" stroke-width="1.3" rx="1" />
  <text x="523" y="313.9" font-size="14" font-family="Inter, system-ui, -apple-system, sans-serif" fill="#1E293B" text-anchor="start" font-weight="bold">API Gateway</text>
  <rect x="477" y="397" width="130" height="56" fill="#F8FAFC" stroke="#CBD5E1" stroke-width="1.4" rx="8" />
  <rect x="477" y="397" width="130" height="8" fill="#D97706" stroke="#D97706" stroke-width="0" rx="4" />
  <rect x="532" y="428" width="20" height="5" fill="#F8FAFC" stroke="#D97706" stroke-width="1.3" rx="1" />
  <rect x="532" y="435" width="20" height="5" fill="#F8FAFC" stroke="#D97706" stroke-width="1.3" rx="1" />
  <rect x="532" y="442" width="20" height="5" fill="#F8FAFC" stroke="#D97706" stroke-width="1.3" rx="1" />
  <text x="542" y="418.9" font-size="14" font-family="Inter, system-ui, -apple-system, sans-serif" fill="#1E293B" text-anchor="middle" font-weight="bold">Event Collector</text>
  <rect x="927" y="277" width="130" height="56" fill="#F8FAFC" stroke="#CBD5E1" stroke-width="1.4" rx="8" />
  <rect x="927" y="277" width="130" height="8" fill="#5B4FCF" stroke="#5B4FCF" stroke-width="0" rx="4" />
  <rect x="982" y="288" width="20" height="5" fill="#F8FAFC" stroke="#5B4FCF" stroke-width="1.3" rx="1" />
  <rect x="982" y="295" width="20" height="5" fill="#F8FAFC" stroke="#5B4FCF" stroke-width="1.3" rx="1" />
  <rect x="982" y="302" width="20" height="5" fill="#F8FAFC" stroke="#5B4FCF" stroke-width="1.3" rx="1" />
  <text x="992" y="328.9" font-size="14" font-family="Inter, system-ui, -apple-system, sans-serif" fill="#1E293B" text-anchor="middle" font-weight="bold">Stream Bus</text>
  <rect x="927" y="397" width="130" height="56" fill="#F8FAFC" stroke="#CBD5E1" stroke-width="1.4" rx="8" />
  <rect x="927" y="397" width="130" height="8" fill="#DB2777" stroke="#DB2777" stroke-width="0" rx="4" />
  <rect x="935" y="428" width="18" height="18" fill="#F8FAFC" stroke="#DB2777" stroke-width="1.3" rx="5" />
  <path d="M 935 434 Q 944 438, 953 434" stroke="#DB2777" stroke-width="1.3" fill="none" />
  <text x="992" y="418.9" font-size="14" font-family="Inter, system-ui, -apple-system, sans-serif" fill="#1E293B" text-anchor="middle" font-weight="bold">Data Lake</text>
  <rect x="1147" y="397" width="130" height="56" fill="#F8FAFC" stroke="#CBD5E1" stroke-width="1.4" rx="8" />
  <rect x="1147" y="397" width="130" height="8" fill="#2563EB" stroke="#2563EB" stroke-width="0" rx="4" />
  <rect x="1251" y="428" width="18" height="18" fill="#F8FAFC" stroke="#2563EB" stroke-width="1.3" rx="5" />
  <path d="M 1251 434 Q 1260 438, 1269 434" stroke="#2563EB" stroke-width="1.3" fill="none" />
  <text x="1212" y="418.9" font-size="14" font-family="Inter, system-ui, -apple-system, sans-serif" fill="#1E293B" text-anchor="middle" font-weight="bold">Warehouse</text>
  <rect x="24" y="24" width="130" height="69" fill="#F8FAFC" stroke="#CBD5E1" stroke-width="1.4" rx="8" />
  <rect x="24" y="24" width="130" height="8" fill="#16A34A" stroke="#16A34A" stroke-width="0" rx="4" />
  <rect x="80" y="35" width="18" height="18" fill="#F8FAFC" stroke="#16A34A" stroke-width="1.3" rx="4" />
  <text x="89" y="77.4" font-size="14" font-family="Inter, system-ui, -apple-system, sans-serif" fill="#1E293B" text-anchor="middle" font-weight="bold">Ops Dashboard</text>
  <rect x="927" y="637" width="130" height="56" fill="#F8FAFC" stroke="#CBD5E1" stroke-width="1.4" rx="8" />
  <rect x="927" y="637" width="130" height="8" fill="#CA8A04" stroke="#CA8A04" stroke-width="0" rx="4" />
  <rect x="935" y="648" width="18" height="18" fill="#F8FAFC" stroke="#CA8A04" stroke-width="1.3" rx="5" />
  <path d="M 935 654 Q 944 658, 953 654" stroke="#CA8A04" stroke-width="1.3" fill="none" />
  <text x="992" y="688.9" font-size="14" font-family="Inter, system-ui, -apple-system, sans-serif" fill="#1E293B" text-anchor="middle" font-weight="bold">Offline Backup</text>
</svg>