<svg xmlns="http://www.w3.org/2000/svg" viewBox="-24 -34 908 564" width="908" height="564">
  <defs>
    <marker id="arch-arrow-end" markerWidth="10" markerHeight="8" refX="9" refY="4" orient="auto"><polygon points="0 0, 10 4, 0 8" fill="#4A90D9" /></marker>
    <marker id="arch-arrow-start" markerWidth="10" markerHeight="8" refX="1" refY="4" orient="auto-start-reverse"><polygon points="0 0, 10 4, 0 8" fill="#4A90D9" /></marker>
  </defs>
  <rect x="-24" y="-34" width="908" height="564" fill="#FFFFFF" />
  <rect x="444" y="90" width="170" height="210" fill="#7C3AED14" stroke="#7C3AED" stroke-width="1.4" rx="10" />
  <circle cx="462" cy="116" r="6" fill="#F8FAFC" stroke="#7C3AED" stroke-width="1.3" />
  <circle cx="474" cy="116" r="6" fill="#F8FAFC" stroke="#7C3AED" stroke-width="1.3" />
  <circle cx="468" cy="111" r="7" fill="#F8FAFC" stroke="#7C3AED" stroke-width="1.3" />
  <rect x="458" y="116" width="20" height="6" fill="#F8FAFC" stroke="#F8FAFC" stroke-width="0" />
  <text x="486" y="106" font-size="11" font-family="Inter, system-ui, -apple-system, sans-serif" fill="#7C3AED" font-weight="bold">Edge Landing Zone</text>
  <rect x="4" y="-10" width="830" height="410" fill="#0EA5A814" stroke="#0EA5A8" stroke-width="1.4" rx="10" />
  <circle cx="804" cy="378" r="6" fill="#F8FAFC" stroke="#0EA5A8" stroke-width="1.3" />
  <circle cx="816" cy="378" r="6" fill="#F8FAFC" stroke="#0EA5A8" stroke-width="1.3" />
  <circle cx="810" cy="373" r="7" fill="#F8FAFC" stroke="#0EA5A8" stroke-width="1.3" />
  <rect x="800" y="378" width="20" height="6" fill="#F8FAFC" stroke="#F8FAFC" stroke-width="0" />
  <text x="16" y="6" font-size="11" font-family="Inter, system-ui, -apple-system, sans-serif" fill="#0EA5A8" font-weight="bold">Core Data Platform</text>
  <rect x="224" y="-10" width="170" height="110" fill="#D9770614" stroke="#D97706" stroke-width="1.4" rx="10" />
  <rect x="360" y="36" width="20" height="5" fill="#F8FAFC" stroke="#D97706" stroke-width="1.3" rx="1" />
  <rect x="360" y="43" width="20" height="5" fill="#F8FAFC" stroke="#D97706" stroke-width="1.3" rx="1" />
  <rect x="360" y="50" width="20" height="5" fill="#F8FAFC" stroke="#D97706" stroke-width="1.3" rx="1" />
  <text x="236" y="6" font-size="11" font-family="Inter, system-ui, -apple-system, sans-serif" fill="#D97706" font-weight="bold">Operations Console</text>
  <defs>
    <linearGradient id="triton-flow-seiy84" gradientUnits="userSpaceOnUse" x1="374" y1="152" x2="464" y2="152">
      <stop offset="0%" stop-color="#4A90D9" stop-opacity="0.75"/>
      <stop offset="20%" stop-color="#4A90D9" stop-opacity="0.85">
        <animate attributeName="offset" values="0%;60%;100%" dur="1.6s" repeatCount="indefinite"/>
      </stop>
      <stop offset="35%" stop-color="#FFFFFF" stop-opacity="1">
        <animate attributeName="offset" values="10%;70%;100%" dur="1.6s" repeatCount="indefinite"/>
      </stop>
      <stop offset="50%" stop-color="#4A90D9" stop-opacity="0.85">
        <animate attributeName="offset" values="20%;80%;100%" dur="1.6s" repeatCount="indefinite"/>
      </stop>
      <stop offset="100%" stop-color="#4A90D9" stop-opacity="0.75"/>
    </linearGradient>
  </defs>
  <path d="M 374 152 L 464 152" stroke="url(#triton-flow-seiy84)" stroke-width="1.6" fill="none" stroke-dasharray="8 4" marker-end="url(#arch-arrow-end)" />
  <path d="M 529 180 C 528.5 180.49 526.04 181.96 526 182.93 C 525.97 183.91 527.79 184.89 528.79 185.87 C 529.79 186.84 531.88 187.82 531.98 188.8 C 532.09 189.78 530.41 190.76 529.42 191.73 C 528.43 192.71 526.22 193.69 526.05 194.67 C 525.87 195.64 527.4 196.62 528.38 197.6 C 529.35 198.58 531.67 199.56 531.91 200.53 C 532.15 201.51 530.79 202.49 529.83 203.47 C 528.87 204.44 526.46 205.42 526.15 206.4 C 525.84 207.38 527.03 208.36 527.97 209.33 C 528.91 210.31 531.41 211.29 531.78 212.27 C 532.16 213.24 531.13 214.22 530.22 215.2 C 529.31 216.18 526.74 217.16 526.3 218.13 C 525.87 219.11 526.71 220.09 527.59 221.07 C 528.47 222.04 530.93 223.51 531.6 224" stroke="#4A90D9" stroke-width="1.6" fill="none" marker-end="url(#arch-arrow-end)" />
  <circle r="3.2" fill="#4A90D9" opacity="0.9">
    <animateMotion dur="2s" begin="0s" repeatCount="indefinite" rotate="auto" path="M 529 180 L 528.5 180.49 L 526.04 181.96 L 526 182.93 L 525.97 183.91 L 527.79 184.89 L 528.79 185.87 L 529.79 186.84 L 531.88 187.82 L 531.98 188.8 L 532.09 189.78 L 530.41 190.76 L 529.42 191.73 L 528.43 192.71 L 526.22 193.69 L 526.05 194.67 L 525.87 195.64 L 527.4 196.62 L 528.38 197.6 L 529.35 198.58 L 531.67 199.56 L 531.91 200.53 L 532.15 201.51 L 530.79 202.49 L 529.83 203.47 L 528.87 204.44 L 526.46 205.42 L 526.15 206.4 L 525.84 207.38 L 527.03 208.36 L 527.97 209.33 L 528.91 210.31 L 531.41 211.29 L 531.78 212.27 L 532.16 213.24 L 531.13 214.22 L 530.22 215.2 L 529.31 216.18 L 526.74 217.16 L 526.3 218.13 L 525.87 219.11 L 526.71 220.09 L 527.59 221.07 L 528.47 222.04 L 530.93 223.51 L 531.265 223.755"/>
  </circle>
  <circle r="3.2" fill="#4A90D9" opacity="0.9">
    <animateMotion dur="2s" begin="-0.5s" repeatCount="indefinite" rotate="auto" path="M 529 180 L 528.5 180.49 L 526.04 181.96 L 526 182.93 L 525.97 183.91 L 527.79 184.89 L 528.79 185.87 L 529.79 186.84 L 531.88 187.82 L 531.98 188.8 L 532.09 189.78 L 530.41 190.76 L 529.42 191.73 L 528.43 192.71 L 526.22 193.69 L 526.05 194.67 L 525.87 195.64 L 527.4 196.62 L 528.38 197.6 L 529.35 198.58 L 531.67 199.56 L 531.91 200.53 L 532.15 201.51 L 530.79 202.49 L 529.83 203.47 L 528.87 204.44 L 526.46 205.42 L 526.15 206.4 L 525.84 207.38 L 527.03 208.36 L 527.97 209.33 L 528.91 210.31 L 531.41 211.29 L 531.78 212.27 L 532.16 213.24 L 531.13 214.22 L 530.22 215.2 L 529.31 216.18 L 526.74 217.16 L 526.3 218.13 L 525.87 219.11 L 526.71 220.09 L 527.59 221.07 L 528.47 222.04 L 530.93 223.51 L 531.265 223.755"/>
  </circle>
  <circle r="3.2" fill="#4A90D9" opacity="0.9">
    <animateMotion dur="2s" begin="-1s" repeatCount="indefinite" rotate="auto" path="M 529 180 L 528.5 180.49 L 526.04 181.96 L 526 182.93 L 525.97 183.91 L 527.79 184.89 L 528.79 185.87 L 529.79 186.84 L 531.88 187.82 L 531.98 188.8 L 532.09 189.78 L 530.41 190.76 L 529.42 191.73 L 528.43 192.71 L 526.22 193.69 L 526.05 194.67 L 525.87 195.64 L 527.4 196.62 L 528.38 197.6 L 529.35 198.58 L 531.67 199.56 L 531.91 200.53 L 532.15 201.51 L 530.79 202.49 L 529.83 203.47 L 528.87 204.44 L 526.46 205.42 L 526.15 206.4 L 525.84 207.38 L 527.03 208.36 L 527.97 209.33 L 528.91 210.31 L 531.41 211.29 L 531.78 212.27 L 532.16 213.24 L 531.13 214.22 L 530.22 215.2 L 529.31 216.18 L 526.74 217.16 L 526.3 218.13 L 525.87 219.11 L 526.71 220.09 L 527.59 221.07 L 528.47 222.04 L 530.93 223.51 L 531.265 223.755"/>
  </circle>
  <circle r="3.2" fill="#4A90D9" opacity="0.9">
    <animateMotion dur="2s" begin="-1.5s" repeatCount="indefinite" rotate="auto" path="M 529 180 L 528.5 180.49 L 526.04 181.96 L 526 182.93 L 525.97 183.91 L 527.79 184.89 L 528.79 185.87 L 529.79 186.84 L 531.88 187.82 L 531.98 188.8 L 532.09 189.78 L 530.41 190.76 L 529.42 191.73 L 528.43 192.71 L 526.22 193.69 L 526.05 194.67 L 525.87 195.64 L 527.4 196.62 L 528.38 197.6 L 529.35 198.58 L 531.67 199.56 L 531.91 200.53 L 532.15 201.51 L 530.79 202.49 L 529.83 203.47 L 528.87 204.44 L 526.46 205.42 L 526.15 206.4 L 525.84 207.38 L 527.03 208.36 L 527.97 209.33 L 528.91 210.31 L 531.41 211.29 L 531.78 212.27 L 532.16 213.24 L 531.13 214.22 L 530.22 215.2 L 529.31 216.18 L 526.74 217.16 L 526.3 218.13 L 525.87 219.11 L 526.71 220.09 L 527.59 221.07 L 528.47 222.04 L 530.93 223.51 L 531.265 223.755"/>
  </circle>
  <path d="M 594 252 L 594 272 L 684 272 L 684 252" stroke="#4A90D9" stroke-width="1.6" fill="none" stroke-dasharray="8 4" marker-end="url(#arch-arrow-end)" marker-start="url(#arch-arrow-start)">
    <animate attributeName="stroke-dashoffset" from="0" to="-12" dur="0.8s" repeatCount="indefinite"/>
  </path>
  <path d="M 749 280 C 748.5 280.49 746.04 281.96 746 282.93 C 745.97 283.91 747.79 284.89 748.79 285.87 C 749.79 286.84 751.88 287.82 751.98 288.8 C 752.09 289.78 750.41 290.76 749.42 291.73 C 748.43 292.71 746.22 293.69 746.05 294.67 C 745.87 295.64 747.4 296.62 748.38 297.6 C 749.35 298.58 751.67 299.56 751.91 300.53 C 752.15 301.51 750.79 302.49 749.83 303.47 C 748.87 304.44 746.46 305.42 746.15 306.4 C 745.84 307.38 747.03 308.36 747.97 309.33 C 748.91 310.31 751.41 311.29 751.78 312.27 C 752.16 313.24 751.13 314.22 750.22 315.2 C 749.31 316.18 746.74 317.16 746.3 318.13 C 745.87 319.11 746.71 320.09 747.59 321.07 C 748.47 322.04 750.93 323.51 751.6 324" stroke="#4A90D9" stroke-width="1.6" fill="none" />
  <circle r="4" fill="#4A90D9">
    <animateMotion dur="1.5s" begin="0s" repeatCount="indefinite" rotate="auto" path="M 749 280 C 748.5 280.49 746.04 281.96 746 282.93 C 745.97 283.91 747.79 284.89 748.79 285.87 C 749.79 286.84 751.88 287.82 751.98 288.8 C 752.09 289.78 750.41 290.76 749.42 291.73 C 748.43 292.71 746.22 293.69 746.05 294.67 C 745.87 295.64 747.4 296.62 748.38 297.6 C 749.35 298.58 751.67 299.56 751.91 300.53 C 752.15 301.51 750.79 302.49 749.83 303.47 C 748.87 304.44 746.46 305.42 746.15 306.4 C 745.84 307.38 747.03 308.36 747.97 309.33 C 748.91 310.31 751.41 311.29 751.78 312.27 C 752.16 313.24 751.13 314.22 750.22 315.2 C 749.31 316.18 746.74 317.16 746.3 318.13 C 745.87 319.11 746.71 320.09 747.59 321.07 C 748.47 322.04 750.93 323.51 751.6 324"/>
  </circle>
  <path d="M 814 352 L 359 360 L 24 52" stroke="#4A90D9" stroke-width="3.2" fill="none" stroke-dasharray="910.141 910.141" marker-end="url(#arch-arrow-end)">
    <animate attributeName="stroke-dashoffset" values="0;910.141;0" dur="2s" repeatCount="indefinite"/>
  </path>
  <path d="M 154 52 C 190 52 208 52 244 52" stroke="#4A90D9" stroke-width="1.6" fill="none" stroke-dasharray="6 3" marker-end="url(#arch-arrow-end)">
    <animate attributeName="stroke-opacity" values="1;0.3;1" dur="1.6s" repeatCount="indefinite"/>
  </path>
  <path d="M 244 52 C 244.5 52.5 246 55 247 55 C 248 55 249 53 250 52 C 251 51 252 49 253 49 C 254 49 255 51 256 52 C 257 53 258 55 259 55 C 260 55 261 53 262 52 C 263 51 264 49 265 49 C 266 49 267 51 268 52 C 269 53 270 55 271 55 C 272 55 273 53 274 52 C 275 51 276 49 277 49 C 278 49 279 51 280 52 C 281 53 282 55 283 55 C 284 55 285 53 286 52 C 287 51 288 49 289 49 C 290 49 291 51 292 52 C 293 53 294 55 295 55 C 296 55 297 53 298 52 C 299 51 300 49 301 49 C 302 49 303 51 304 52 C 305 53 306 55 307 55 C 308 55 309 53 310 52 C 311 51 312 49 313 49 C 314 49 315 51 316 52 C 317 53 318 55 319 55 C 320 55 321 53 322 52 C 323 51 324 49 325 49 C 326 49 327 51 328 52 C 329 53 330 55 331 55 C 332 55 333 53 334 52 C 335 51 336 49 337 49 C 338 49 339 51 340 52 C 341 53 342 55 343 55 C 344 55 345 53 346 52 C 347 51 348 49 349 49 C 350 49 351 51 352 52 C 353 53 354 55 355 55 C 356 55 357 53 358 52 C 359 51 360 49 361 49 C 362 49 363 51 364 52 C 365 53 366 55 367 55 C 368 55 369 53 370 52 C 371 51 372 49 373 49 C 374 49 375 51.19 376 52 C 377 52.81 378 53.88 379 53.88 C 380 53.88 381 52.38 382 52 C 383 51.63 384.25 51.38 385 51.63 C 385.75 51.88 386.44 52.69 386.5 53.5 C 386.56 54.31 385.38 55.5 385.38 56.5 C 385.38 57.5 385.88 58.5 386.5 59.5 C 387.13 60.5 389.13 61.5 389.13 62.5 C 389.13 63.5 387.44 64.5 386.5 65.5 C 385.56 66.5 383.5 67.5 383.5 68.5 C 383.5 69.5 385.5 70.5 386.5 71.5 C 387.5 72.5 389.5 73.5 389.5 74.5 C 389.5 75.5 387.5 76.5 386.5 77.5 C 385.5 78.5 383.5 79.5 383.5 80.5 C 383.5 81.5 385.5 82.5 386.5 83.5 C 387.5 84.5 389.5 85.5 389.5 86.5 C 389.5 87.5 387.5 88.5 386.5 89.5 C 385.5 90.5 383.5 91.5 383.5 92.5 C 383.5 93.5 385.5 94.5 386.5 95.5 C 387.5 96.5 389.5 97.5 389.5 98.5 C 389.5 99.5 387.5 100.5 386.5 101.5 C 385.5 102.5 383.5 103.5 383.5 104.5 C 383.5 105.5 385.5 106.5 386.5 107.5 C 387.5 108.5 389.5 109.5 389.5 110.5 C 389.5 111.5 387.31 112.5 386.5 113.5 C 385.69 114.5 384.63 115.5 384.63 116.5 C 384.63 117.5 386.13 118.5 386.5 119.5 C 386.88 120.5 386.63 121.75 386.88 122.5 C 387.13 123.25 387.31 123.56 388 124 C 388.69 124.44 390 125.13 391 125.13 C 392 125.13 393 124.63 394 124 C 395 123.38 396 121.38 397 121.38 C 398 121.38 399 123.06 400 124 C 401 124.94 402 127 403 127 C 404 127 405 125 406 124 C 407 123 408 121 409 121 C 410 121 411 123 412 124 C 413 125 414 127 415 127 C 416 127 417 125 418 124 C 419 123 420 121 421 121 C 422 121 423 123 424 124 C 425 125 426 127 427 127 C 428 127 429 125 430 124 C 431 123 432 121 433 121 C 434 121 435 123 436 124 C 437 125 438 127 439 127 C 440 127 441 125 442 124 C 443 123 444 121 445 121 C 446 121 447 123 448 124 C 449 125 450 127 451 127 C 452 127 453 125 454 124 C 455 123 456 121 457 121 C 458 121 459 123 460 124 C 461 125 462 127 463 127 C 464 127 465 125 466 124 C 467 123 468 121 469 121 C 470 121 471 123 472 124 C 473 125 474 127 475 127 C 476 127 477 125 478 124 C 479 123 480 121 481 121 C 482 121 483 123 484 124 C 485 125 486 127 487 127 C 488 127 489 125 490 124 C 491 123 492 121 493 121 C 494 121 495 123 496 124 C 497 125 498 127 499 127 C 500 127 501 125 502 124 C 503 123 504 121 505 121 C 506 121 507 123 508 124 C 509 125 510 127 511 127 C 512 127 513 125 514 124 C 515 123 516 121 517 121 C 518 121 519 123 520 124 C 521 125 522 127 523 127 C 524 127 525 125 526 124 C 527 123 528.5 121.5 529 121" stroke="#4A90D9" stroke-width="1.6" fill="none" marker-end="url(#arch-arrow-end)" marker-start="url(#arch-arrow-start)" />
  <circle r="4.2" fill="#4A90D9" opacity="0.95">
    <animateMotion dur="1.8s" begin="0s" repeatCount="indefinite" rotate="auto" path="M 244 52 L 244.5 52.5 L 246 55 L 247 55 L 248 55 L 249 53 L 250 52 L 251 51 L 252 49 L 253 49 L 254 49 L 255 51 L 256 52 L 257 53 L 258 55 L 259 55 L 260 55 L 261 53 L 262 52 L 263 51 L 264 49 L 265 49 L 266 49 L 267 51 L 268 52 L 269 53 L 270 55 L 271 55 L 272 55 L 273 53 L 274 52 L 275 51 L 276 49 L 277 49 L 278 49 L 279 51 L 280 52 L 281 53 L 282 55 L 283 55 L 284 55 L 285 53 L 286 52 L 287 51 L 288 49 L 289 49 L 290 49 L 291 51 L 292 52 L 293 53 L 294 55 L 295 55 L 296 55 L 297 53 L 298 52 L 299 51 L 300 49 L 301 49 L 302 49 L 303 51 L 304 52 L 305 53 L 306 55 L 307 55 L 308 55 L 309 53 L 310 52 L 311 51 L 312 49 L 313 49 L 314 49 L 315 51 L 316 52 L 317 53 L 318 55 L 319 55 L 320 55 L 321 53 L 322 52 L 323 51 L 324 49 L 325 49 L 326 49 L 327 51 L 328 52 L 329 53 L 330 55 L 331 55 L 332 55 L 333 53 L 334 52 L 335 51 L 336 49 L 337 49 L 338 49 L 339 51 L 340 52 L 341 53 L 342 55 L 343 55 L 344 55 L 345 53 L 346 52 L 347 51 L 348 49 L 349 49 L 350 49 L 351 51 L 352 52 L 353 53 L 354 55 L 355 55 L 356 55 L 357 53 L 358 52 L 359 51 L 360 49 L 361 49 L 362 49 L 363 51 L 364 52 L 365 53 L 366 55 L 367 55 L 368 55 L 369 53 L 370 52 L 371 51 L 372 49 L 373 49 L 374 49 L 375 51.19 L 376 52 L 377 52.81 L 378 53.88 L 379 53.88 L 380 53.88 L 381 52.38 L 382 52 L 383 51.63 L 384.25 51.38 L 385 51.63 L 385.75 51.88 L 386.44 52.69 L 386.5 53.5 L 386.56 54.31 L 385.38 55.5 L 385.38 56.5 L 385.38 57.5 L 385.88 58.5 L 386.5 59.5 L 387.13 60.5 L 389.13 61.5 L 389.13 62.5 L 389.13 63.5 L 387.44 64.5 L 386.5 65.5 L 385.56 66.5 L 383.5 67.5 L 383.5 68.5 L 383.5 69.5 L 385.5 70.5 L 386.5 71.5 L 387.5 72.5 L 389.5 73.5 L 389.5 74.5 L 389.5 75.5 L 387.5 76.5 L 386.5 77.5 L 385.5 78.5 L 383.5 79.5 L 383.5 80.5 L 383.5 81.5 L 385.5 82.5 L 386.5 83.5 L 387.5 84.5 L 389.5 85.5 L 389.5 86.5 L 389.5 87.5 L 387.5 88.5 L 386.5 89.5 L 385.5 90.5 L 383.5 91.5 L 383.5 92.5 L 383.5 93.5 L 385.5 94.5 L 386.5 95.5 L 387.5 96.5 L 389.5 97.5 L 389.5 98.5 L 389.5 99.5 L 387.5 100.5 L 386.5 101.5 L 385.5 102.5 L 383.5 103.5 L 383.5 104.5 L 383.5 105.5 L 385.5 106.5 L 386.5 107.5 L 387.5 108.5 L 389.5 109.5 L 389.5 110.5 L 389.5 111.5 L 387.31 112.5 L 386.5 113.5 L 385.69 114.5 L 384.63 115.5 L 384.63 116.5 L 384.63 117.5 L 386.13 118.5 L 386.5 119.5 L 386.88 120.5 L 386.63 121.75 L 386.88 122.5 L 387.13 123.25 L 387.31 123.56 L 388 124 L 388.69 124.44 L 390 125.13 L 391 125.13 L 392 125.13 L 393 124.63 L 394 124 L 395 123.38 L 396 121.38 L 397 121.38 L 398 121.38 L 399 123.06 L 400 124 L 401 124.94 L 402 127 L 403 127 L 404 127 L 405 125 L 406 124 L 407 123 L 408 121 L 409 121 L 410 121 L 411 123 L 412 124 L 413 125 L 414 127 L 415 127 L 416 127 L 417 125 L 418 124 L 419 123 L 420 121 L 421 121 L 422 121 L 423 123 L 424 124 L 425 125 L 426 127 L 427 127 L 428 127 L 429 125 L 430 124 L 431 123 L 432 121 L 433 121 L 434 121 L 435 123 L 436 124 L 437 125 L 438 127 L 439 127 L 440 127 L 441 125 L 442 124 L 443 123 L 444 121 L 445 121 L 446 121 L 447 123 L 448 124 L 449 125 L 450 127 L 451 127 L 452 127 L 453 125 L 454 124 L 455 123 L 456 121 L 457 121 L 458 121 L 459 123 L 460 124 L 461 125 L 462 127 L 463 127 L 464 127 L 465 125 L 466 124 L 467 123 L 468 121 L 469 121 L 470 121 L 471 123 L 472 124 L 473 125 L 474 127 L 475 127 L 476 127 L 477 125 L 478 124 L 479 123 L 480 121 L 481 121 L 482 121 L 483 123 L 484 124 L 485 125 L 486 127 L 487 127 L 488 127 L 489 125 L 490 124 L 491 123 L 492 121 L 493 121 L 494 121 L 495 123 L 496 124 L 497 125 L 498 127 L 499 127 L 500 127 L 501 125 L 502 124 L 503 123 L 504 121 L 505 121 L 506 121 L 507 123 L 508 124 L 509 125 L 510 127 L 511 127 L 512 127 L 513 125 L 514 124 L 515 123 L 516 121 L 517 121 L 518 121 L 519 123 L 520 124 L 521 125 L 522 127 L 523 127 L 524 127 L 525 125 L 526 124 L 527 123 L 528.5 121.5 L 528.75 121.25"/>
  </circle>
  <circle r="3.1" fill="#4A90D9" opacity="0.45">
    <animateMotion dur="1.8s" begin="-0.18s" repeatCount="indefinite" rotate="auto" path="M 244 52 L 244.5 52.5 L 246 55 L 247 55 L 248 55 L 249 53 L 250 52 L 251 51 L 252 49 L 253 49 L 254 49 L 255 51 L 256 52 L 257 53 L 258 55 L 259 55 L 260 55 L 261 53 L 262 52 L 263 51 L 264 49 L 265 49 L 266 49 L 267 51 L 268 52 L 269 53 L 270 55 L 271 55 L 272 55 L 273 53 L 274 52 L 275 51 L 276 49 L 277 49 L 278 49 L 279 51 L 280 52 L 281 53 L 282 55 L 283 55 L 284 55 L 285 53 L 286 52 L 287 51 L 288 49 L 289 49 L 290 49 L 291 51 L 292 52 L 293 53 L 294 55 L 295 55 L 296 55 L 297 53 L 298 52 L 299 51 L 300 49 L 301 49 L 302 49 L 303 51 L 304 52 L 305 53 L 306 55 L 307 55 L 308 55 L 309 53 L 310 52 L 311 51 L 312 49 L 313 49 L 314 49 L 315 51 L 316 52 L 317 53 L 318 55 L 319 55 L 320 55 L 321 53 L 322 52 L 323 51 L 324 49 L 325 49 L 326 49 L 327 51 L 328 52 L 329 53 L 330 55 L 331 55 L 332 55 L 333 53 L 334 52 L 335 51 L 336 49 L 337 49 L 338 49 L 339 51 L 340 52 L 341 53 L 342 55 L 343 55 L 344 55 L 345 53 L 346 52 L 347 51 L 348 49 L 349 49 L 350 49 L 351 51 L 352 52 L 353 53 L 354 55 L 355 55 L 356 55 L 357 53 L 358 52 L 359 51 L 360 49 L 361 49 L 362 49 L 363 51 L 364 52 L 365 53 L 366 55 L 367 55 L 368 55 L 369 53 L 370 52 L 371 51 L 372 49 L 373 49 L 374 49 L 375 51.19 L 376 52 L 377 52.81 L 378 53.88 L 379 53.88 L 380 53.88 L 381 52.38 L 382 52 L 383 51.63 L 384.25 51.38 L 385 51.63 L 385.75 51.88 L 386.44 52.69 L 386.5 53.5 L 386.56 54.31 L 385.38 55.5 L 385.38 56.5 L 385.38 57.5 L 385.88 58.5 L 386.5 59.5 L 387.13 60.5 L 389.13 61.5 L 389.13 62.5 L 389.13 63.5 L 387.44 64.5 L 386.5 65.5 L 385.56 66.5 L 383.5 67.5 L 383.5 68.5 L 383.5 69.5 L 385.5 70.5 L 386.5 71.5 L 387.5 72.5 L 389.5 73.5 L 389.5 74.5 L 389.5 75.5 L 387.5 76.5 L 386.5 77.5 L 385.5 78.5 L 383.5 79.5 L 383.5 80.5 L 383.5 81.5 L 385.5 82.5 L 386.5 83.5 L 387.5 84.5 L 389.5 85.5 L 389.5 86.5 L 389.5 87.5 L 387.5 88.5 L 386.5 89.5 L 385.5 90.5 L 383.5 91.5 L 383.5 92.5 L 383.5 93.5 L 385.5 94.5 L 386.5 95.5 L 387.5 96.5 L 389.5 97.5 L 389.5 98.5 L 389.5 99.5 L 387.5 100.5 L 386.5 101.5 L 385.5 102.5 L 383.5 103.5 L 383.5 104.5 L 383.5 105.5 L 385.5 106.5 L 386.5 107.5 L 387.5 108.5 L 389.5 109.5 L 389.5 110.5 L 389.5 111.5 L 387.31 112.5 L 386.5 113.5 L 385.69 114.5 L 384.63 115.5 L 384.63 116.5 L 384.63 117.5 L 386.13 118.5 L 386.5 119.5 L 386.88 120.5 L 386.63 121.75 L 386.88 122.5 L 387.13 123.25 L 387.31 123.56 L 388 124 L 388.69 124.44 L 390 125.13 L 391 125.13 L 392 125.13 L 393 124.63 L 394 124 L 395 123.38 L 396 121.38 L 397 121.38 L 398 121.38 L 399 123.06 L 400 124 L 401 124.94 L 402 127 L 403 127 L 404 127 L 405 125 L 406 124 L 407 123 L 408 121 L 409 121 L 410 121 L 411 123 L 412 124 L 413 125 L 414 127 L 415 127 L 416 127 L 417 125 L 418 124 L 419 123 L 420 121 L 421 121 L 422 121 L 423 123 L 424 124 L 425 125 L 426 127 L 427 127 L 428 127 L 429 125 L 430 124 L 431 123 L 432 121 L 433 121 L 434 121 L 435 123 L 436 124 L 437 125 L 438 127 L 439 127 L 440 127 L 441 125 L 442 124 L 443 123 L 444 121 L 445 121 L 446 121 L 447 123 L 448 124 L 449 125 L 450 127 L 451 127 L 452 127 L 453 125 L 454 124 L 455 123 L 456 121 L 457 121 L 458 121 L 459 123 L 460 124 L 461 125 L 462 127 L 463 127 L 464 127 L 465 125 L 466 124 L 467 123 L 468 121 L 469 121 L 470 121 L 471 123 L 472 124 L 473 125 L 474 127 L 475 127 L 476 127 L 477 125 L 478 124 L 479 123 L 480 121 L 481 121 L 482 121 L 483 123 L 484 124 L 485 125 L 486 127 L 487 127 L 488 127 L 489 125 L 490 124 L 491 123 L 492 121 L 493 121 L 494 121 L 495 123 L 496 124 L 497 125 L 498 127 L 499 127 L 500 127 L 501 125 L 502 124 L 503 123 L 504 121 L 505 121 L 506 121 L 507 123 L 508 124 L 509 125 L 510 127 L 511 127 L 512 127 L 513 125 L 514 124 L 515 123 L 516 121 L 517 121 L 518 121 L 519 123 L 520 124 L 521 125 L 522 127 L 523 127 L 524 127 L 525 125 L 526 124 L 527 123 L 528.5 121.5 L 528.75 121.25"/>
  </circle>
  <circle r="2.2" fill="#4A90D9" opacity="0.22">
    <animateMotion dur="1.8s" begin="-0.36s" repeatCount="indefinite" rotate="auto" path="M 244 52 L 244.5 52.5 L 246 55 L 247 55 L 248 55 L 249 53 L 250 52 L 251 51 L 252 49 L 253 49 L 254 49 L 255 51 L 256 52 L 257 53 L 258 55 L 259 55 L 260 55 L 261 53 L 262 52 L 263 51 L 264 49 L 265 49 L 266 49 L 267 51 L 268 52 L 269 53 L 270 55 L 271 55 L 272 55 L 273 53 L 274 52 L 275 51 L 276 49 L 277 49 L 278 49 L 279 51 L 280 52 L 281 53 L 282 55 L 283 55 L 284 55 L 285 53 L 286 52 L 287 51 L 288 49 L 289 49 L 290 49 L 291 51 L 292 52 L 293 53 L 294 55 L 295 55 L 296 55 L 297 53 L 298 52 L 299 51 L 300 49 L 301 49 L 302 49 L 303 51 L 304 52 L 305 53 L 306 55 L 307 55 L 308 55 L 309 53 L 310 52 L 311 51 L 312 49 L 313 49 L 314 49 L 315 51 L 316 52 L 317 53 L 318 55 L 319 55 L 320 55 L 321 53 L 322 52 L 323 51 L 324 49 L 325 49 L 326 49 L 327 51 L 328 52 L 329 53 L 330 55 L 331 55 L 332 55 L 333 53 L 334 52 L 335 51 L 336 49 L 337 49 L 338 49 L 339 51 L 340 52 L 341 53 L 342 55 L 343 55 L 344 55 L 345 53 L 346 52 L 347 51 L 348 49 L 349 49 L 350 49 L 351 51 L 352 52 L 353 53 L 354 55 L 355 55 L 356 55 L 357 53 L 358 52 L 359 51 L 360 49 L 361 49 L 362 49 L 363 51 L 364 52 L 365 53 L 366 55 L 367 55 L 368 55 L 369 53 L 370 52 L 371 51 L 372 49 L 373 49 L 374 49 L 375 51.19 L 376 52 L 377 52.81 L 378 53.88 L 379 53.88 L 380 53.88 L 381 52.38 L 382 52 L 383 51.63 L 384.25 51.38 L 385 51.63 L 385.75 51.88 L 386.44 52.69 L 386.5 53.5 L 386.56 54.31 L 385.38 55.5 L 385.38 56.5 L 385.38 57.5 L 385.88 58.5 L 386.5 59.5 L 387.13 60.5 L 389.13 61.5 L 389.13 62.5 L 389.13 63.5 L 387.44 64.5 L 386.5 65.5 L 385.56 66.5 L 383.5 67.5 L 383.5 68.5 L 383.5 69.5 L 385.5 70.5 L 386.5 71.5 L 387.5 72.5 L 389.5 73.5 L 389.5 74.5 L 389.5 75.5 L 387.5 76.5 L 386.5 77.5 L 385.5 78.5 L 383.5 79.5 L 383.5 80.5 L 383.5 81.5 L 385.5 82.5 L 386.5 83.5 L 387.5 84.5 L 389.5 85.5 L 389.5 86.5 L 389.5 87.5 L 387.5 88.5 L 386.5 89.5 L 385.5 90.5 L 383.5 91.5 L 383.5 92.5 L 383.5 93.5 L 385.5 94.5 L 386.5 95.5 L 387.5 96.5 L 389.5 97.5 L 389.5 98.5 L 389.5 99.5 L 387.5 100.5 L 386.5 101.5 L 385.5 102.5 L 383.5 103.5 L 383.5 104.5 L 383.5 105.5 L 385.5 106.5 L 386.5 107.5 L 387.5 108.5 L 389.5 109.5 L 389.5 110.5 L 389.5 111.5 L 387.31 112.5 L 386.5 113.5 L 385.69 114.5 L 384.63 115.5 L 384.63 116.5 L 384.63 117.5 L 386.13 118.5 L 386.5 119.5 L 386.88 120.5 L 386.63 121.75 L 386.88 122.5 L 387.13 123.25 L 387.31 123.56 L 388 124 L 388.69 124.44 L 390 125.13 L 391 125.13 L 392 125.13 L 393 124.63 L 394 124 L 395 123.38 L 396 121.38 L 397 121.38 L 398 121.38 L 399 123.06 L 400 124 L 401 124.94 L 402 127 L 403 127 L 404 127 L 405 125 L 406 124 L 407 123 L 408 121 L 409 121 L 410 121 L 411 123 L 412 124 L 413 125 L 414 127 L 415 127 L 416 127 L 417 125 L 418 124 L 419 123 L 420 121 L 421 121 L 422 121 L 423 123 L 424 124 L 425 125 L 426 127 L 427 127 L 428 127 L 429 125 L 430 124 L 431 123 L 432 121 L 433 121 L 434 121 L 435 123 L 436 124 L 437 125 L 438 127 L 439 127 L 440 127 L 441 125 L 442 124 L 443 123 L 444 121 L 445 121 L 446 121 L 447 123 L 448 124 L 449 125 L 450 127 L 451 127 L 452 127 L 453 125 L 454 124 L 455 123 L 456 121 L 457 121 L 458 121 L 459 123 L 460 124 L 461 125 L 462 127 L 463 127 L 464 127 L 465 125 L 466 124 L 467 123 L 468 121 L 469 121 L 470 121 L 471 123 L 472 124 L 473 125 L 474 127 L 475 127 L 476 127 L 477 125 L 478 124 L 479 123 L 480 121 L 481 121 L 482 121 L 483 123 L 484 124 L 485 125 L 486 127 L 487 127 L 488 127 L 489 125 L 490 124 L 491 123 L 492 121 L 493 121 L 494 121 L 495 123 L 496 124 L 497 125 L 498 127 L 499 127 L 500 127 L 501 125 L 502 124 L 503 123 L 504 121 L 505 121 L 506 121 L 507 123 L 508 124 L 509 125 L 510 127 L 511 127 L 512 127 L 513 125 L 514 124 L 515 123 L 516 121 L 517 121 L 518 121 L 519 123 L 520 124 L 521 125 L 522 127 L 523 127 L 524 127 L 525 125 L 526 124 L 527 123 L 528.5 121.5 L 528.75 121.25"/>
  </circle>
  <path d="M 749 380 L 749 444 L 749 444 L 749 424" stroke="#4A90D9" stroke-width="1.6" fill="none" stroke-dasharray="8 4">
    <animate attributeName="stroke-width" values="1.6;3.2;1.6" dur="1.4s" repeatCount="indefinite"/>
  </path>
  <rect x="244" y="124" width="130" height="56" fill="#F8FAFC" stroke="#CBD5E1" stroke-width="1.4" rx="8" />
  <rect x="244" y="124" width="130" height="8" fill="#7C3AED" stroke="#7C3AED" stroke-width="0" rx="4" />
  <circle cx="350" cy="152" r="9" fill="#F8FAFC" stroke="#7C3AED" stroke-width="1.3" />
  <path d="M 350 143 L 350 161 M 341 152 L 359 152" stroke="#7C3AED" stroke-width="1" fill="none" />
  <path d="M 341 152 Q 350 141, 359 152 Q 350 163, 341 152" stroke="#7C3AED" stroke-width="1" fill="none" />
  <text x="328" y="171" font-size="14" font-family="Inter, system-ui, -apple-system, sans-serif" fill="#1E293B" text-anchor="end" font-weight="bold">Branch Users</text>
  <rect x="464" y="124" width="130" height="56" fill="#F8FAFC" stroke="#CBD5E1" stroke-width="1.4" rx="8" />
  <rect x="464" y="124" width="130" height="8" fill="#0EA5A8" stroke="#0EA5A8" stroke-width="0" rx="4" />
  <rect x="478" y="143" width="20" height="5" fill="#F8FAFC" stroke="#0EA5A8" stroke-width="1.3" rx="1" />
  <rect x="478" y="150" width="20" height="5" fill="#F8FAFC" stroke="#0EA5A8" stroke-width="1.3" rx="1" />
  <rect x="478" y="157" width="20" height="5" fill="#F8FAFC" stroke="#0EA5A8" stroke-width="1.3" rx="1" />
  <text x="510" y="171" font-size="14" font-family="Inter, system-ui, -apple-system, sans-serif" fill="#1E293B" text-anchor="start" font-weight="bold">API Gateway</text>
  <rect x="464" y="224" width="130" height="56" fill="#F8FAFC" stroke="#CBD5E1" stroke-width="1.4" rx="8" />
  <rect x="464" y="224" width="130" height="8" fill="#D97706" stroke="#D97706" stroke-width="0" rx="4" />
  <rect x="519" y="247" width="20" height="5" fill="#F8FAFC" stroke="#D97706" stroke-width="1.3" rx="1" />
  <rect x="519" y="254" width="20" height="5" fill="#F8FAFC" stroke="#D97706" stroke-width="1.3" rx="1" />
  <rect x="519" y="261" width="20" height="5" fill="#F8FAFC" stroke="#D97706" stroke-width="1.3" rx="1" />
  <text x="529" y="245" font-size="14" font-family="Inter, system-ui, -apple-system, sans-serif" fill="#1E293B" text-anchor="middle" font-weight="bold">Event Collector</text>
  <rect x="684" y="224" width="130" height="56" fill="#F8FAFC" stroke="#CBD5E1" stroke-width="1.4" rx="8" />
  <rect x="684" y="224" width="130" height="8" fill="#5B4FCF" stroke="#5B4FCF" stroke-width="0" rx="4" />
  <rect x="739" y="239" width="20" height="5" fill="#F8FAFC" stroke="#5B4FCF" stroke-width="1.3" rx="1" />
  <rect x="739" y="246" width="20" height="5" fill="#F8FAFC" stroke="#5B4FCF" stroke-width="1.3" rx="1" />
  <rect x="739" y="253" width="20" height="5" fill="#F8FAFC" stroke="#5B4FCF" stroke-width="1.3" rx="1" />
  <text x="749" y="271" font-size="14" font-family="Inter, system-ui, -apple-system, sans-serif" fill="#1E293B" text-anchor="middle" font-weight="bold">Stream Bus</text>
  <rect x="684" y="324" width="130" height="56" fill="#F8FAFC" stroke="#CBD5E1" stroke-width="1.4" rx="8" />
  <rect x="684" y="324" width="130" height="8" fill="#DB2777" stroke="#DB2777" stroke-width="0" rx="4" />
  <rect x="699" y="347" width="18" height="18" fill="#F8FAFC" stroke="#DB2777" stroke-width="1.3" rx="5" />
  <path d="M 699 353 Q 708 357, 717 353" stroke="#DB2777" stroke-width="1.3" fill="none" />
  <text x="749" y="345" font-size="14" font-family="Inter, system-ui, -apple-system, sans-serif" fill="#1E293B" text-anchor="middle" font-weight="bold">Data Lake</text>
  <rect x="24" y="24" width="130" height="56" fill="#F8FAFC" stroke="#CBD5E1" stroke-width="1.4" rx="8" />
  <rect x="24" y="24" width="130" height="8" fill="#2563EB" stroke="#2563EB" stroke-width="0" rx="4" />
  <rect x="121" y="47" width="18" height="18" fill="#F8FAFC" stroke="#2563EB" stroke-width="1.3" rx="5" />
  <path d="M 121 53 Q 130 57, 139 53" stroke="#2563EB" stroke-width="1.3" fill="none" />
  <text x="89" y="45" font-size="14" font-family="Inter, system-ui, -apple-system, sans-serif" fill="#1E293B" text-anchor="middle" font-weight="bold">Warehouse</text>
  <rect x="244" y="24" width="130" height="56" fill="#F8FAFC" stroke="#CBD5E1" stroke-width="1.4" rx="8" />
  <rect x="244" y="24" width="130" height="8" fill="#16A34A" stroke="#16A34A" stroke-width="0" rx="4" />
  <rect x="300" y="43" width="18" height="18" fill="#F8FAFC" stroke="#16A34A" stroke-width="1.3" rx="4" />
  <text x="309" y="71" font-size="14" font-family="Inter, system-ui, -apple-system, sans-serif" fill="#1E293B" text-anchor="middle" font-weight="bold">Ops Dashboard</text>
  <rect x="684" y="424" width="130" height="56" fill="#F8FAFC" stroke="#CBD5E1" stroke-width="1.4" rx="8" />
  <rect x="684" y="424" width="130" height="8" fill="#CA8A04" stroke="#CA8A04" stroke-width="0" rx="4" />
  <rect x="699" y="439" width="18" height="18" fill="#F8FAFC" stroke="#CA8A04" stroke-width="1.3" rx="5" />
  <path d="M 699 445 Q 708 449, 717 445" stroke="#CA8A04" stroke-width="1.3" fill="none" />
  <text x="749" y="471" font-size="14" font-family="Inter, system-ui, -apple-system, sans-serif" fill="#1E293B" text-anchor="middle" font-weight="bold">Offline Backup</text>
</svg>