<svg xmlns="http://www.w3.org/2000/svg" viewBox="0 0 664 650" width="664" height="650">
  <rect width="100%" height="100%" fill="#FFFFFF" />
  <path d="M 332 74 L 332 596" stroke="#D6DEE8" stroke-width="2.5" fill="none" />
  <text x="332" y="42" font-size="18" font-family="Georgia, &quot;Times New Roman&quot;, serif" fill="#111111" text-anchor="middle" font-weight="bold">Product Journey</text>
  <path d="M 332 104 L 380 104" stroke="#D6DEE8" stroke-width="1.5" fill="none" />
  <rect x="380" y="74" width="260" height="60" fill="#F4F6FA" stroke="#D6DEE8" stroke-width="1" rx="8" />
  <rect x="380" y="74" width="3" height="60" fill="#7C3AED" stroke="#7C3AED" stroke-width="0" />
  <text x="392" y="97" font-size="11" font-family="Georgia, &quot;Times New Roman&quot;, serif" fill="#7C3AED" text-anchor="start" font-weight="bold">Q1 2023</text>
  <text x="392" y="115" font-size="14" font-family="Georgia, &quot;Times New Roman&quot;, serif" fill="#111111" text-anchor="start" font-weight="bold">Idea validated</text>
  <circle cx="332" cy="104" r="7" fill="#7C3AED" stroke="#FFFFFF" stroke-width="2" />
  <path d="M 332 186 L 284 186" stroke="#D6DEE8" stroke-width="1.5" fill="none" />
  <rect x="24" y="156" width="260" height="60" fill="#F4F6FA" stroke="#D6DEE8" stroke-width="1" rx="8" />
  <rect x="281" y="156" width="3" height="60" fill="#0EA5A8" stroke="#0EA5A8" stroke-width="0" />
  <text x="36" y="179" font-size="11" font-family="Georgia, &quot;Times New Roman&quot;, serif" fill="#0EA5A8" text-anchor="start" font-weight="bold">Q2 2023</text>
  <text x="36" y="197" font-size="14" font-family="Georgia, &quot;Times New Roman&quot;, serif" fill="#111111" text-anchor="start" font-weight="bold">Seed round closed</text>
  <path d="M 332 178 L 340 186 L 332 194 L 324 186 Z" stroke="#FFFFFF" stroke-width="2" fill="#0EA5A8" />
  <path d="M 332 268 L 380 268" stroke="#D6DEE8" stroke-width="1.5" fill="none" />
  <rect x="380" y="238" width="260" height="60" fill="#F4F6FA" stroke="#D6DEE8" stroke-width="1" rx="8" />
  <rect x="380" y="238" width="3" height="60" fill="#D97706" stroke="#D97706" stroke-width="0" />
  <text x="392" y="261" font-size="11" font-family="Georgia, &quot;Times New Roman&quot;, serif" fill="#D97706" text-anchor="start" font-weight="bold">Q3 2023</text>
  <text x="392" y="279" font-size="14" font-family="Georgia, &quot;Times New Roman&quot;, serif" fill="#111111" text-anchor="start" font-weight="bold">MVP shipped to first users</text>
  <circle cx="332" cy="268" r="7" fill="#D97706" stroke="#FFFFFF" stroke-width="2" />
  <path d="M 332 350 L 284 350" stroke="#D6DEE8" stroke-width="1.5" fill="none" />
  <rect x="24" y="320" width="260" height="60" fill="#F4F6FA" stroke="#D6DEE8" stroke-width="1" rx="8" />
  <rect x="281" y="320" width="3" height="60" fill="#5B4FCF" stroke="#5B4FCF" stroke-width="0" />
  <text x="36" y="343" font-size="11" font-family="Georgia, &quot;Times New Roman&quot;, serif" fill="#5B4FCF" text-anchor="start" font-weight="bold">Q1 2024</text>
  <text x="36" y="361" font-size="14" font-family="Georgia, &quot;Times New Roman&quot;, serif" fill="#111111" text-anchor="start" font-weight="bold">Reached 1,000 active users</text>
  <circle cx="332" cy="350" r="7" fill="#5B4FCF" stroke="#FFFFFF" stroke-width="2" />
  <path d="M 332 432 L 380 432" stroke="#D6DEE8" stroke-width="1.5" fill="none" />
  <rect x="380" y="402" width="260" height="60" fill="#F4F6FA" stroke="#D6DEE8" stroke-width="1" rx="8" />
  <rect x="380" y="402" width="3" height="60" fill="#DB2777" stroke="#DB2777" stroke-width="0" />
  <text x="392" y="425" font-size="11" font-family="Georgia, &quot;Times New Roman&quot;, serif" fill="#DB2777" text-anchor="start" font-weight="bold">Q2 2024</text>
  <text x="392" y="443" font-size="14" font-family="Georgia, &quot;Times New Roman&quot;, serif" fill="#111111" text-anchor="start" font-weight="bold">Series A</text>
  <path d="M 332 424 L 340 432 L 332 440 L 324 432 Z" stroke="#FFFFFF" stroke-width="2" fill="#DB2777" />
  <path d="M 332 514 L 284 514" stroke="#D6DEE8" stroke-width="1.5" fill="none" />
  <rect x="24" y="484" width="260" height="60" fill="#F4F6FA" stroke="#D6DEE8" stroke-width="1" rx="8" />
  <rect x="281" y="484" width="3" height="60" fill="#1F497D" stroke="#1F497D" stroke-width="0" />
  <text x="36" y="507" font-size="11" font-family="Georgia, &quot;Times New Roman&quot;, serif" fill="#1F497D" text-anchor="start" font-weight="bold">Q4 2024</text>
  <text x="36" y="525" font-size="14" font-family="Georgia, &quot;Times New Roman&quot;, serif" fill="#111111" text-anchor="start" font-weight="bold">Mobile apps launched</text>
  <circle cx="332" cy="514" r="7" fill="#1F497D" stroke="#FFFFFF" stroke-width="2" />
  <path d="M 332 596 L 380 596" stroke="#D6DEE8" stroke-width="1.5" fill="none" />
  <rect x="380" y="566" width="260" height="60" fill="#F4F6FA" stroke="#D6DEE8" stroke-width="1" rx="8" />
  <rect x="380" y="566" width="3" height="60" fill="#1F497D" stroke="#1F497D" stroke-width="0" />
  <text x="392" y="589" font-size="11" font-family="Georgia, &quot;Times New Roman&quot;, serif" fill="#1F497D" text-anchor="start" font-weight="bold">Q2 2025</text>
  <text x="392" y="607" font-size="14" font-family="Georgia, &quot;Times New Roman&quot;, serif" fill="#111111" text-anchor="start" font-weight="bold">Enterprise tier in beta</text>
  <circle cx="332" cy="596" r="7" fill="#1F497D" stroke="#FFFFFF" stroke-width="2" />
</svg>