<svg xmlns="http://www.w3.org/2000/svg" viewBox="-90 0 494 925" width="494" height="925">
  <rect x="-90" y="0" width="494" height="925" fill="#FFFFFF" />
  <text x="24" y="42" font-size="18" font-family="Inter, system-ui, -apple-system, sans-serif" fill="#1E293B" font-weight="bold">E-Commerce Domain Model</text>
  <path d="M 31.82 120 L -16.18 120 L -16.18 483 L 31.82 483" stroke="#64748B" stroke-width="1.3" fill="none" />
  <path d="M 20.76 478.33 L 31.82 483 L 20.76 487.67" stroke="#64748B" stroke-width="1.4" fill="none" />
  <text x="-20" y="298" font-size="11" font-family="Inter, system-ui, -apple-system, sans-serif" fill="#64748B" text-anchor="end">places</text>
  <text x="21.82" y="110" font-size="11" font-family="Inter, system-ui, -apple-system, sans-serif" fill="#64748B">1</text>
  <text x="21.82" y="473" font-size="11" font-family="Inter, system-ui, -apple-system, sans-serif" fill="#64748B">*</text>
  <path d="M 281.80475 175 L 281.80475 248" stroke="#64748B" stroke-width="1.3" fill="none" stroke-dasharray="6 4" />
  <path d="M 281.8 248 L 287.89 235.39 L 275.72 235.39 Z" stroke="#64748B" stroke-width="1.3" fill="#FFFFFF" />
  <path d="M 96.81625 184 L 96.81625 255.5" stroke="#64748B" stroke-width="1.3" fill="none" />
  <path d="M 101.49 244.45 L 96.82 255.5 L 92.14 244.45" stroke="#64748B" stroke-width="1.4" fill="none" />
  <text x="97" y="216" font-size="11" font-family="Inter, system-ui, -apple-system, sans-serif" fill="#64748B" text-anchor="middle">has</text>
  <path d="M 96.81625 347.5 L 96.81625 419" stroke="#64748B" stroke-width="1.3" fill="none" />
  <path d="M 101.49 407.95 L 96.82 419 L 92.14 407.95" stroke="#64748B" stroke-width="1.4" fill="none" />
  <text x="97" y="379" font-size="11" font-family="Inter, system-ui, -apple-system, sans-serif" fill="#64748B" text-anchor="middle">creates</text>
  <path d="M 96.81625 547 L 96.81625 611" stroke="#64748B" stroke-width="1.3" fill="none" />
  <path d="M 96.82 547 L 90.55 551.97 L 96.82 558 L 103.08 551.97 Z" stroke="#64748B" stroke-width="1.3" fill="#64748B" />
  <text x="97" y="575" font-size="11" font-family="Inter, system-ui, -apple-system, sans-serif" fill="#64748B" text-anchor="middle">contains</text>
  <path d="M 96.81625 703 L 96.81625 767" stroke="#64748B" stroke-width="1.3" fill="none" />
  <path d="M 101.49 755.95 L 96.82 767 L 92.14 755.95" stroke="#64748B" stroke-width="1.4" fill="none" />
  <text x="97" y="731" font-size="11" font-family="Inter, system-ui, -apple-system, sans-serif" fill="#64748B" text-anchor="middle">references</text>
  <rect x="31.82" y="56" width="130" height="128" fill="#F8FAFC" stroke="#CBD5E1" stroke-width="1.4" rx="4" />
  <text x="97" y="71.9" font-size="14" font-family="Inter, system-ui, -apple-system, sans-serif" fill="#1E293B" text-anchor="middle" font-weight="bold">Customer</text>
  <path d="M 31.82 78 L 161.82 78" stroke="#CBD5E1" stroke-width="1" fill="none" />
  <text x="39.82" y="92" font-size="11" font-family="Inter, system-ui, -apple-system, sans-serif" fill="#1E293B">+String id</text>
  <text x="39.82" y="110" font-size="11" font-family="Inter, system-ui, -apple-system, sans-serif" fill="#1E293B">+String name</text>
  <text x="39.82" y="128" font-size="11" font-family="Inter, system-ui, -apple-system, sans-serif" fill="#1E293B">+String email</text>
  <path d="M 31.82 140 L 161.82 140" stroke="#CBD5E1" stroke-width="1" fill="none" />
  <text x="39.82" y="154" font-size="11" font-family="Inter, system-ui, -apple-system, sans-serif" fill="#1E293B">+register()</text>
  <text x="39.82" y="172" font-size="11" font-family="Inter, system-ui, -apple-system, sans-serif" fill="#1E293B">+login() bool</text>
  <rect x="31.82" y="419" width="130" height="128" fill="#F8FAFC" stroke="#CBD5E1" stroke-width="1.4" rx="4" />
  <text x="97" y="434.9" font-size="14" font-family="Inter, system-ui, -apple-system, sans-serif" fill="#1E293B" text-anchor="middle" font-weight="bold">Order</text>
  <path d="M 31.82 441 L 161.82 441" stroke="#CBD5E1" stroke-width="1" fill="none" />
  <text x="39.82" y="455" font-size="11" font-family="Inter, system-ui, -apple-system, sans-serif" fill="#1E293B">+String orderId</text>
  <text x="39.82" y="473" font-size="11" font-family="Inter, system-ui, -apple-system, sans-serif" fill="#1E293B">+Date createdAt</text>
  <text x="39.82" y="491" font-size="11" font-family="Inter, system-ui, -apple-system, sans-serif" fill="#1E293B">+float total</text>
  <path d="M 31.82 503 L 161.82 503" stroke="#CBD5E1" stroke-width="1" fill="none" />
  <text x="39.82" y="517" font-size="11" font-family="Inter, system-ui, -apple-system, sans-serif" fill="#1E293B">+submit()</text>
  <text x="39.82" y="535" font-size="11" font-family="Inter, system-ui, -apple-system, sans-serif" fill="#1E293B">+cancel() bool</text>
  <rect x="31.82" y="611" width="130" height="92" fill="#F8FAFC" stroke="#CBD5E1" stroke-width="1.4" rx="4" />
  <text x="97" y="626.9" font-size="14" font-family="Inter, system-ui, -apple-system, sans-serif" fill="#1E293B" text-anchor="middle" font-weight="bold">OrderItem</text>
  <path d="M 31.82 633 L 161.82 633" stroke="#CBD5E1" stroke-width="1" fill="none" />
  <text x="39.82" y="647" font-size="11" font-family="Inter, system-ui, -apple-system, sans-serif" fill="#1E293B">+int quantity</text>
  <text x="39.82" y="665" font-size="11" font-family="Inter, system-ui, -apple-system, sans-serif" fill="#1E293B">+float unitPrice</text>
  <path d="M 31.82 677 L 161.82 677" stroke="#CBD5E1" stroke-width="1" fill="none" />
  <text x="39.82" y="691" font-size="11" font-family="Inter, system-ui, -apple-system, sans-serif" fill="#1E293B">+float subtotal()</text>
  <rect x="31.82" y="767" width="130" height="110" fill="#F8FAFC" stroke="#CBD5E1" stroke-width="1.4" rx="4" />
  <text x="97" y="782.9" font-size="14" font-family="Inter, system-ui, -apple-system, sans-serif" fill="#1E293B" text-anchor="middle" font-weight="bold">Product</text>
  <path d="M 31.82 789 L 161.82 789" stroke="#CBD5E1" stroke-width="1" fill="none" />
  <text x="39.82" y="803" font-size="11" font-family="Inter, system-ui, -apple-system, sans-serif" fill="#1E293B">+String sku</text>
  <text x="39.82" y="821" font-size="11" font-family="Inter, system-ui, -apple-system, sans-serif" fill="#1E293B">+String name</text>
  <text x="39.82" y="839" font-size="11" font-family="Inter, system-ui, -apple-system, sans-serif" fill="#1E293B">+float price</text>
  <text x="39.82" y="857" font-size="11" font-family="Inter, system-ui, -apple-system, sans-serif" fill="#1E293B">+int stock</text>
  <path d="M 31.82 869 L 161.82 869" stroke="#CBD5E1" stroke-width="1" fill="none" />
  <rect x="216.8" y="248" width="130" height="107" fill="#F8FAFC" stroke="#CBD5E1" stroke-width="1.4" rx="4" />
  <text x="282" y="263.9" font-size="14" font-family="Inter, system-ui, -apple-system, sans-serif" fill="#1E293B" text-anchor="middle" font-weight="bold">Payment</text>
  <text x="282" y="276.9" font-size="11" font-family="Inter, system-ui, -apple-system, sans-serif" fill="#64748B" text-anchor="middle">«interface»</text>
  <path d="M 216.8 285 L 346.8 285" stroke="#CBD5E1" stroke-width="1" fill="none" />
  <text x="224.8" y="299" font-size="11" font-family="Inter, system-ui, -apple-system, sans-serif" fill="#1E293B">+float amount</text>
  <path d="M 216.8 311 L 346.8 311" stroke="#CBD5E1" stroke-width="1" fill="none" />
  <text x="224.8" y="325" font-size="11" font-family="Inter, system-ui, -apple-system, sans-serif" fill="#1E293B">+process() bool</text>
  <text x="224.8" y="343" font-size="11" font-family="Inter, system-ui, -apple-system, sans-serif" fill="#1E293B">+refund() bool</text>
  <rect x="207.82" y="65" width="147.98" height="110" fill="#F8FAFC" stroke="#CBD5E1" stroke-width="1.4" rx="4" />
  <text x="282" y="80.9" font-size="14" font-family="Inter, system-ui, -apple-system, sans-serif" fill="#1E293B" text-anchor="middle" font-weight="bold">CreditCardPayment</text>
  <path d="M 207.82 87 L 355.79 87" stroke="#CBD5E1" stroke-width="1" fill="none" />
  <text x="215.82" y="101" font-size="11" font-family="Inter, system-ui, -apple-system, sans-serif" fill="#1E293B">+String cardNumber</text>
  <text x="215.82" y="119" font-size="11" font-family="Inter, system-ui, -apple-system, sans-serif" fill="#1E293B">+String expiry</text>
  <path d="M 207.82 131 L 355.79 131" stroke="#CBD5E1" stroke-width="1" fill="none" />
  <text x="215.82" y="145" font-size="11" font-family="Inter, system-ui, -apple-system, sans-serif" fill="#1E293B">+process() bool</text>
  <text x="215.82" y="163" font-size="11" font-family="Inter, system-ui, -apple-system, sans-serif" fill="#1E293B">+refund() bool</text>
  <rect x="24" y="255.5" width="145.63" height="92" fill="#F8FAFC" stroke="#CBD5E1" stroke-width="1.4" rx="4" />
  <text x="97" y="271.4" font-size="14" font-family="Inter, system-ui, -apple-system, sans-serif" fill="#1E293B" text-anchor="middle" font-weight="bold">ShoppingCart</text>
  <path d="M 24 277.5 L 169.63 277.5" stroke="#CBD5E1" stroke-width="1" fill="none" />
  <path d="M 24 285.5 L 169.63 285.5" stroke="#CBD5E1" stroke-width="1" fill="none" />
  <text x="32" y="299.5" font-size="11" font-family="Inter, system-ui, -apple-system, sans-serif" fill="#1E293B">+addItem(Product p)</text>
  <text x="32" y="317.5" font-size="11" font-family="Inter, system-ui, -apple-system, sans-serif" fill="#1E293B">+removeItem(String sku)</text>
  <text x="32" y="335.5" font-size="11" font-family="Inter, system-ui, -apple-system, sans-serif" fill="#1E293B">+checkout() Order</text>
</svg>