<svg xmlns="http://www.w3.org/2000/svg" viewBox="0 0 924 534" width="924" height="534">
  <rect width="100%" height="100%" fill="#0D1B2A" />
  <path d="M 46 2 C 156 2, 156 149.65, 266 149.65 L 266 222.91 C 156 222.91, 156 75.26, 46 75.26 Z" stroke="none" stroke-width="0" fill="#7C3AED" opacity="0.4" />
  <path d="M 46 139.84 C 156 139.84, 156 222.91, 266 222.91 L 266 276.98 C 156 276.98, 156 193.91, 46 193.91 Z" stroke="none" stroke-width="0" fill="#D97706" opacity="0.4" />
  <path d="M 46 277.67 C 156 277.67, 156 276.98, 266 276.98 L 266 324.07 C 156 324.07, 156 324.77, 46 324.77 Z" stroke="none" stroke-width="0" fill="#5B4FCF" opacity="0.4" />
  <path d="M 46 338.77 C 156 338.77, 156 324.07, 266 324.07 L 266 390.35 C 156 390.35, 156 405.05, 46 405.05 Z" stroke="none" stroke-width="0" fill="#DB2777" opacity="0.4" />
  <path d="M 46 75.26 C 275 75.26, 275 83.06, 504 83.06 L 504 133.65 C 275 133.65, 275 125.84, 46 125.84 Z" stroke="none" stroke-width="0" fill="#7C3AED" opacity="0.4" />
  <path d="M 46 193.91 C 275 193.91, 275 133.65, 504 133.65 L 504 170.27 C 275 170.27, 275 230.53, 46 230.53 Z" stroke="none" stroke-width="0" fill="#D97706" opacity="0.4" />
  <path d="M 46 426.37 C 275 426.37, 275 247.06, 504 247.06 L 504 358.69 C 275 358.69, 275 538, 46 538 Z" stroke="none" stroke-width="0" fill="#16A34A" opacity="0.4" />
  <path d="M 46 230.53 C 275 230.53, 275 378.1, 504 378.1 L 504 411.24 C 275 411.24, 275 263.67, 46 263.67 Z" stroke="none" stroke-width="0" fill="#D97706" opacity="0.4" />
  <path d="M 46 405.05 C 275 405.05, 275 411.24, 504 411.24 L 504 418.56 C 275 418.56, 275 412.37, 46 412.37 Z" stroke="none" stroke-width="0" fill="#DB2777" opacity="0.4" />
  <path d="M 284 149.65 C 394 149.65, 394 170.27, 504 170.27 L 504 233.06 C 394 233.06, 394 212.44, 284 212.44 Z" stroke="none" stroke-width="0" fill="#0EA5A8" opacity="0.4" />
  <path d="M 284 212.44 C 394 212.44, 394 418.56, 504 418.56 L 504 456.94 C 394 456.94, 394 250.81, 284 250.81 Z" stroke="none" stroke-width="0" fill="#0EA5A8" opacity="0.4" />
  <path d="M 284 250.81 C 394 250.81, 394 358.69, 504 358.69 L 504 364.1 C 394 364.1, 394 256.22, 284 256.22 Z" stroke="none" stroke-width="0" fill="#0EA5A8" opacity="0.4" />
  <path d="M 522 83.06 C 632 83.06, 632 185.58, 742 185.58 L 742 204.77 C 632 204.77, 632 102.25, 522 102.25 Z" stroke="none" stroke-width="0" fill="#2563EB" opacity="0.4" />
  <path d="M 522 378.1 C 632 378.1, 632 204.77, 742 204.77 L 742 213.14 C 632 213.14, 632 386.47, 522 386.47 Z" stroke="none" stroke-width="0" fill="#7C3AED" opacity="0.4" />
  <path d="M 284 256.22 C 513 256.22, 513 213.14, 742 213.14 L 742 305.58 C 513 305.58, 513 348.66, 284 348.66 Z" stroke="none" stroke-width="0" fill="#0EA5A8" opacity="0.4" />
  <path d="M 522 247.06 C 632 247.06, 632 305.58, 742 305.58 L 742 354.42 C 632 354.42, 632 295.9, 522 295.9 Z" stroke="none" stroke-width="0" fill="#CA8A04" opacity="0.4" />
  <rect x="28" y="2" width="18" height="123.84" fill="#7C3AED" stroke="#7C3AED" stroke-width="0" rx="2" />
  <text x="52" y="67.77" font-size="11" font-family="Georgia, &quot;Times New Roman&quot;, serif" fill="#E8EEF5">Coal</text>
  <rect x="28" y="139.84" width="18" height="123.84" fill="#D97706" stroke="#D97706" stroke-width="0" rx="2" />
  <text x="52" y="205.61" font-size="11" font-family="Georgia, &quot;Times New Roman&quot;, serif" fill="#E8EEF5">Natural Gas</text>
  <rect x="28" y="277.67" width="18" height="47.09" fill="#5B4FCF" stroke="#5B4FCF" stroke-width="0" rx="2" />
  <text x="52" y="305.07" font-size="11" font-family="Georgia, &quot;Times New Roman&quot;, serif" fill="#E8EEF5">Nuclear</text>
  <rect x="28" y="338.77" width="18" height="73.6" fill="#DB2777" stroke="#DB2777" stroke-width="0" rx="2" />
  <text x="52" y="379.42" font-size="11" font-family="Georgia, &quot;Times New Roman&quot;, serif" fill="#E8EEF5">Renewables</text>
  <rect x="28" y="426.37" width="18" height="111.63" fill="#16A34A" stroke="#16A34A" stroke-width="0" rx="2" />
  <text x="52" y="486.04" font-size="11" font-family="Georgia, &quot;Times New Roman&quot;, serif" fill="#E8EEF5">Oil</text>
  <rect x="266" y="149.65" width="18" height="240.7" fill="#0EA5A8" stroke="#0EA5A8" stroke-width="0" rx="2" />
  <text x="290" y="273.85" font-size="11" font-family="Georgia, &quot;Times New Roman&quot;, serif" fill="#E8EEF5">Electricity Generation</text>
  <rect x="504" y="83.06" width="18" height="150" fill="#2563EB" stroke="#2563EB" stroke-width="0" rx="2" />
  <text x="528" y="161.91" font-size="11" font-family="Georgia, &quot;Times New Roman&quot;, serif" fill="#E8EEF5">Industry</text>
  <rect x="504" y="247.06" width="18" height="117.03" fill="#CA8A04" stroke="#CA8A04" stroke-width="0" rx="2" />
  <text x="528" y="309.43" font-size="11" font-family="Georgia, &quot;Times New Roman&quot;, serif" fill="#E8EEF5">Transport</text>
  <rect x="504" y="378.1" width="18" height="78.84" fill="#7C3AED" stroke="#7C3AED" stroke-width="0" rx="2" />
  <text x="528" y="421.37" font-size="11" font-family="Georgia, &quot;Times New Roman&quot;, serif" fill="#E8EEF5">Buildings</text>
  <rect x="742" y="185.58" width="18" height="168.84" fill="#0EA5A8" stroke="#0EA5A8" stroke-width="0" rx="2" />
  <text x="736" y="273.85" font-size="11" font-family="Georgia, &quot;Times New Roman&quot;, serif" fill="#E8EEF5" text-anchor="end">Heat Losses</text>
</svg>