<?xml version="1.0" encoding="UTF-8"?>
<svg height="385.86" version="1.1" viewBox="0 0 1200 385.86" width="1200" xmlns="http://www.w3.org/2000/svg">
  <rect fill="#FFFFFF" height="385.86" width="1200" x="0" y="0"/>
  <text dominant-baseline="alphabetic" fill="#111111" font-family="DejaVu Sans, Arial, Helvetica, sans-serif" font-size="26.67" font-weight="700" text-anchor="middle" x="600" y="86.67">Founder Journey — From Idea to Series B</text>
  <text dominant-baseline="alphabetic" fill="#111111" font-family="DejaVu Sans, Arial, Helvetica, sans-serif" font-size="17.33" font-weight="400" opacity="0.75" text-anchor="middle" x="600" y="118.33">T1-style vertical spine: five milestones with subjects and descriptions</text>
  <line opacity="0.35" stroke="#333333" stroke-width="0.5" x1="140" x2="1160" y1="130" y2="130"/>
  <line stroke="#333333" stroke-width="1" x1="140" x2="1160" y1="168" y2="168"/>
  <line stroke="#333333" stroke-width="1" x1="334" x2="334" y1="162" y2="168"/>
  <text dominant-baseline="alphabetic" fill="#555555" font-family="DejaVu Sans, Arial, Helvetica, sans-serif" font-size="13.33" font-weight="400" text-anchor="middle" x="334" y="154">2022</text>
  <line stroke="#333333" stroke-width="1" x1="665" x2="665" y1="162" y2="168"/>
  <text dominant-baseline="alphabetic" fill="#555555" font-family="DejaVu Sans, Arial, Helvetica, sans-serif" font-size="13.33" font-weight="400" text-anchor="middle" x="665" y="154">2023</text>
  <line stroke="#333333" stroke-width="1" x1="996" x2="996" y1="162" y2="168"/>
  <text dominant-baseline="alphabetic" fill="#555555" font-family="DejaVu Sans, Arial, Helvetica, sans-serif" font-size="13.33" font-weight="400" text-anchor="middle" x="996" y="154">2024</text>
  <line opacity="0.3" stroke="#333333" stroke-width="1" x1="140" x2="1160" y1="304.93" y2="304.93"/>
  <text dominant-baseline="middle" fill="#111111" font-family="DejaVu Sans, Arial, Helvetica, sans-serif" font-size="14.67" font-weight="600" text-anchor="start" x="8" y="264.93">Company Journey</text>
  <rect fill="#888888" height="24" opacity="0.85" rx="0" stroke="#666666" stroke-width="0.5" width="275" x="140" y="236.93"/>
  <text dominant-baseline="middle" fill="#111111" font-family="DejaVu Sans, Arial, Helvetica, sans-serif" font-size="13.33" font-weight="600" text-anchor="start" x="144" y="248.93">Stealth / Build Phase</text>
  <rect fill="#888888" height="24" opacity="0.85" rx="0" stroke="#666666" stroke-width="0.5" width="414" x="498" y="236.93"/>
  <text dominant-baseline="middle" fill="#111111" font-family="DejaVu Sans, Arial, Helvetica, sans-serif" font-size="13.33" font-weight="600" text-anchor="start" x="502" y="248.93">Seed-fuelled Growth</text>
  <rect fill="#1F497D" height="24" opacity="1" rx="0" stroke="#163760" stroke-width="0.5" width="222" x="912" y="236.93"/>
  <text dominant-baseline="middle" fill="#FFFFFF" font-family="DejaVu Sans, Arial, Helvetica, sans-serif" font-size="13.33" font-weight="600" text-anchor="start" x="916" y="248.93">Series A Deployment</text>
  <line opacity="0.45" stroke="#888888" stroke-width="0.75" x1="153" x2="153" y1="286.93" y2="294.93"/>
  <circle cx="153" cy="264.93" fill="#1F497D" r="22" stroke="#FFFFFF" stroke-width="2"/>
  <path d="M 14 2 L 6 13 L 12 13 L 10 22 L 18 11 L 12 11 Z" fill="#FFFFFF" transform="translate(153,264.93) scale(1.1917) translate(-12,-12)"/>
  <text dominant-baseline="alphabetic" fill="#111111" font-family="DejaVu Sans, Arial, Helvetica, sans-serif" font-size="13.33" font-weight="600" text-anchor="middle" x="153" y="309.66">The Idea</text>
  <text dominant-baseline="alphabetic" fill="#555555" font-family="DejaVu Sans, Arial, Helvetica, sans-serif" font-size="12" font-weight="400" text-anchor="middle" x="153" y="326.46">June 2021</text>
  <line opacity="0.45" stroke="#888888" stroke-width="0.75" x1="351" x2="351" y1="218.93" y2="242.93"/>
  <circle cx="351" cy="264.93" fill="#1F497D" r="22" stroke="#FFFFFF" stroke-width="2"/>
  <path d="M 4 7 A 3 3 0 1 0 10 7 A 3 3 0 1 0 4 7 M 1 22 A 6 6 0 0 1 13 22 M 14.5 8 A 2.5 2.5 0 1 0 19.5 8 A 2.5 2.5 0 1 0 14.5 8 M 14 22 A 5 5 0 0 1 22 22" fill="none" stroke="#FFFFFF" stroke-linecap="round" stroke-width="2" transform="translate(351,264.93) scale(1.1917) translate(-12,-12)"/>
  <text dominant-baseline="alphabetic" fill="#111111" font-family="DejaVu Sans, Arial, Helvetica, sans-serif" font-size="13.33" font-weight="600" text-anchor="middle" x="351" y="196.73">First 10 Customers</text>
  <text dominant-baseline="alphabetic" fill="#555555" font-family="DejaVu Sans, Arial, Helvetica, sans-serif" font-size="12" font-weight="400" text-anchor="middle" x="351" y="213.53">January 2022</text>
  <line opacity="0.45" stroke="#888888" stroke-width="0.75" x1="498" x2="498" y1="286.93" y2="294.93"/>
  <circle cx="498" cy="264.93" fill="#1F497D" r="22" stroke="#FFFFFF" stroke-width="2"/>
  <path d="M 12 3 L 14.4 8.8 L 20.6 9.2 L 15.8 13.2 L 17.3 19.3 L 12 16 L 6.7 19.3 L 8.2 13.2 L 3.4 9.2 L 9.6 8.8 Z" fill="#FFFFFF" transform="translate(498,264.93) scale(1.1917) translate(-12,-12)"/>
  <text dominant-baseline="alphabetic" fill="#111111" font-family="DejaVu Sans, Arial, Helvetica, sans-serif" font-size="13.33" font-weight="600" text-anchor="middle" x="498" y="309.66">Seed Round Closed</text>
  <text dominant-baseline="alphabetic" fill="#555555" font-family="DejaVu Sans, Arial, Helvetica, sans-serif" font-size="12" font-weight="400" text-anchor="middle" x="498" y="326.46">July 2022</text>
  <line opacity="0.45" stroke="#888888" stroke-width="0.75" x1="912" x2="912" y1="218.93" y2="242.93"/>
  <circle cx="912" cy="264.93" fill="#1F497D" r="22" stroke="#FFFFFF" stroke-width="2"/>
  <path d="M 12 2 L 16 11 L 15 11 L 15 18 L 9 18 L 9 11 L 8 11 Z M 9 18 L 6 22 L 9 16 Z M 15 18 L 18 22 L 15 16 Z" fill="#FFFFFF" transform="translate(912,264.93) scale(1.1917) translate(-12,-12)"/>
  <text dominant-baseline="alphabetic" fill="#111111" font-family="DejaVu Sans, Arial, Helvetica, sans-serif" font-size="13.33" font-weight="600" text-anchor="middle" x="912" y="196.73">Series A — $15M</text>
  <text dominant-baseline="alphabetic" fill="#555555" font-family="DejaVu Sans, Arial, Helvetica, sans-serif" font-size="12" font-weight="400" text-anchor="middle" x="912" y="213.53">October 2023</text>
  <line opacity="0.45" stroke="#888888" stroke-width="0.75" x1="1078" x2="1078" y1="286.93" y2="294.93"/>
  <circle cx="1078" cy="264.93" fill="#1F497D" r="22" stroke="#FFFFFF" stroke-width="2"/>
  <path d="M 3 12 A 9 9 0 1 0 21 12 A 9 9 0 1 0 3 12 M 7 12 A 5 5 0 1 0 17 12 A 5 5 0 1 0 7 12 M 10 12 A 2 2 0 1 0 14 12 A 2 2 0 1 0 10 12" fill="none" stroke="#FFFFFF" stroke-linecap="round" stroke-width="2" transform="translate(1078,264.93) scale(1.1917) translate(-12,-12)"/>
  <text dominant-baseline="alphabetic" fill="#111111" font-family="DejaVu Sans, Arial, Helvetica, sans-serif" font-size="13.33" font-weight="600" text-anchor="middle" x="1078" y="309.66">Series B — $42M</text>
  <text dominant-baseline="alphabetic" fill="#555555" font-family="DejaVu Sans, Arial, Helvetica, sans-serif" font-size="12" font-weight="400" text-anchor="middle" x="1078" y="326.46">April 2024</text>
  <rect fill="#FFFFFF" height="120.27" opacity="0.95" rx="4" stroke="#CCCCCC" stroke-width="1" width="160" x="984" y="201.59"/>
  <text dominant-baseline="alphabetic" fill="#111111" font-family="DejaVu Sans, Arial, Helvetica, sans-serif" font-size="13.33" font-weight="700" text-anchor="start" x="994" y="224.93">Legend</text>
  <rect fill="#888888" height="12" rx="0" width="12" x="994" y="237.46"/>
  <text dominant-baseline="middle" fill="#333333" font-family="DejaVu Sans, Arial, Helvetica, sans-serif" font-size="12" font-weight="400" text-anchor="start" x="1014" y="243.46">done</text>
  <rect fill="#1F497D" height="12" rx="0" width="12" x="994" y="257.86"/>
  <text dominant-baseline="middle" fill="#333333" font-family="DejaVu Sans, Arial, Helvetica, sans-serif" font-size="12" font-weight="400" text-anchor="start" x="1014" y="263.86">in-progress</text>
  <rect fill="#1F497D" height="12" rx="0" width="12" x="994" y="278.26"/>
  <text dominant-baseline="middle" fill="#333333" font-family="DejaVu Sans, Arial, Helvetica, sans-serif" font-size="12" font-weight="400" text-anchor="start" x="1014" y="284.26">planned</text>
  <rect fill="#1F497D" height="12" rx="0" width="12" x="994" y="298.66"/>
  <text dominant-baseline="middle" fill="#333333" font-family="DejaVu Sans, Arial, Helvetica, sans-serif" font-size="12" font-weight="400" text-anchor="start" x="1014" y="304.66">standard-node</text>
</svg>