<svg xmlns="http://www.w3.org/2000/svg" viewBox="0 0 670 256" width="670" height="256">
  <defs>
    <marker id="arch-arrow" markerWidth="10" markerHeight="8" refX="9" refY="4" orient="auto"><polygon points="0 0, 10 4, 0 8" fill="#525252" /></marker>
  </defs>
  <rect width="100%" height="100%" fill="#FFFFFF" />
  <rect x="250" y="16" width="390" height="160" fill="#7C3AED14" stroke="#7C3AED" stroke-width="1.4" rx="10" />
  <text x="262" y="32" font-size="11" font-family="Inter, system-ui, -apple-system, sans-serif" fill="#7C3AED" font-weight="bold">Cloud Services</text>
  <path d="M 180 128 L 225 128 L 225 128 L 270 128" stroke="#525252" stroke-width="1.6" fill="none" marker-end="url(#arch-arrow)" />
  <path d="M 400 128 L 445 128 L 445 78 L 490 78" stroke="#525252" stroke-width="1.6" fill="none" marker-end="url(#arch-arrow)" />
  <path d="M 335 156 L 335 153 L 555 153 L 555 150" stroke="#525252" stroke-width="1.6" fill="none" marker-end="url(#arch-arrow)" />
  <rect x="270" y="100" width="130" height="56" fill="#F5F5F5" stroke="#E5E5E5" stroke-width="1.4" rx="8" />
  <rect x="270" y="100" width="130" height="8" fill="#7C3AED" stroke="#7C3AED" stroke-width="0" rx="4" />
  <rect x="325" y="115" width="20" height="5" fill="#F5F5F5" stroke="#7C3AED" stroke-width="1.3" rx="1" />
  <rect x="325" y="122" width="20" height="5" fill="#F5F5F5" stroke="#7C3AED" stroke-width="1.3" rx="1" />
  <rect x="325" y="129" width="20" height="5" fill="#F5F5F5" stroke="#7C3AED" stroke-width="1.3" rx="1" />
  <text x="335" y="147" font-size="14" font-family="Inter, system-ui, -apple-system, sans-serif" fill="#171717" text-anchor="middle" font-weight="bold">API Server</text>
  <rect x="490" y="50" width="130" height="56" fill="#F5F5F5" stroke="#E5E5E5" stroke-width="1.4" rx="8" />
  <rect x="490" y="50" width="130" height="8" fill="#0EA5A8" stroke="#0EA5A8" stroke-width="0" rx="4" />
  <rect x="546" y="65" width="18" height="18" fill="#F5F5F5" stroke="#0EA5A8" stroke-width="1.3" rx="5" />
  <path d="M 546 71 Q 555 75, 564 71" stroke="#0EA5A8" stroke-width="1.3" fill="none" />
  <text x="555" y="97" font-size="14" font-family="Inter, system-ui, -apple-system, sans-serif" fill="#171717" text-anchor="middle" font-weight="bold">Database</text>
  <rect x="50" y="100" width="130" height="56" fill="#F5F5F5" stroke="#E5E5E5" stroke-width="1.4" rx="8" />
  <rect x="50" y="100" width="130" height="8" fill="#D97706" stroke="#D97706" stroke-width="0" rx="4" />
  <circle cx="115" cy="124" r="9" fill="#F5F5F5" stroke="#D97706" stroke-width="1.3" />
  <path d="M 115 115 L 115 133 M 106 124 L 124 124" stroke="#D97706" stroke-width="1" fill="none" />
  <path d="M 106 124 Q 115 113, 124 124 Q 115 135, 106 124" stroke="#D97706" stroke-width="1" fill="none" />
  <text x="115" y="147" font-size="14" font-family="Inter, system-ui, -apple-system, sans-serif" fill="#171717" text-anchor="middle" font-weight="bold">Client</text>
  <rect x="490" y="150" width="130" height="56" fill="#F5F5F5" stroke="#E5E5E5" stroke-width="1.4" rx="8" />
  <rect x="490" y="150" width="130" height="8" fill="#5B4FCF" stroke="#5B4FCF" stroke-width="0" rx="4" />
  <rect x="546" y="165" width="18" height="18" fill="#F5F5F5" stroke="#5B4FCF" stroke-width="1.3" rx="5" />
  <path d="M 546 171 Q 555 175, 564 171" stroke="#5B4FCF" stroke-width="1.3" fill="none" />
  <text x="555" y="197" font-size="14" font-family="Inter, system-ui, -apple-system, sans-serif" fill="#171717" text-anchor="middle" font-weight="bold">Storage</text>
</svg>