<svg xmlns="http://www.w3.org/2000/svg" viewBox="0 0 737.2 488" width="737.2" height="488">
  <defs>
    <marker id="triton-arrow" markerWidth="8" markerHeight="5.6" refX="7" refY="2.8" orient="auto"><polygon points="0 0, 8 2.8, 0 5.6" fill="#3B82F6" /></marker>
  </defs>
  <rect width="100%" height="100%" fill="#FFFFFF" />
  <text x="24" y="42" font-size="20" font-family="Inter, system-ui, -apple-system, sans-serif" fill="#111827" font-weight="bold">Engineering Dashboard</text>
  <rect x="24" y="58" width="325.2" height="120" fill="#FFFFFF" stroke="#E5E7EB" stroke-width="1" rx="6" />
  <rect x="369.2" y="58" width="164" height="120" fill="#FFFFFF" stroke="#E5E7EB" stroke-width="1" rx="6" />
  <rect x="553.2" y="58" width="160" height="120" fill="#FFFFFF" stroke="#E5E7EB" stroke-width="1" rx="6" />
  <rect x="24" y="198" width="325.2" height="266" fill="#FFFFFF" stroke="#E5E7EB" stroke-width="1" rx="6" />
  <rect x="369.2" y="198" width="164" height="266" fill="#FFFFFF" stroke="#E5E7EB" stroke-width="1" rx="6" />
  <rect x="132.2629" y="62" width="108.6742" height="20.4" fill="#F9FAFB" stroke="#E5E7EB" stroke-width="1" rx="10.2" />
  <text x="186.6" y="76.4" font-size="14" font-family="Inter, system-ui, -apple-system, sans-serif" fill="#111827" text-anchor="middle" font-weight="bold">Deploy Pipeline</text>
  <g transform="translate(28, 100.4) scale(0.65)">
    <path d="M 144 44 L 184 44" stroke="#3B82F6" stroke-width="1.5" fill="none" marker-end="url(#triton-arrow)" />
    <path d="M 304 44 L 344 44" stroke="#3B82F6" stroke-width="1.5" fill="none" marker-end="url(#triton-arrow)" />
    <g id="build">
      <rect x="24" y="24" width="120" height="40" fill="#F9FAFB" stroke="#E5E7EB" stroke-width="1.5" rx="2" />
      <text x="84" y="48.9" font-size="14" font-family="Inter, system-ui, -apple-system, sans-serif" fill="#111827" text-anchor="middle">Build</text>
    </g>
    <g id="test">
      <rect x="184" y="24" width="120" height="40" fill="#F9FAFB" stroke="#E5E7EB" stroke-width="1.5" rx="2" />
      <text x="244" y="48.9" font-size="14" font-family="Inter, system-ui, -apple-system, sans-serif" fill="#111827" text-anchor="middle">Test</text>
    </g>
    <g id="deploy">
      <rect x="344" y="24" width="120" height="40" fill="#F9FAFB" stroke="#E5E7EB" stroke-width="1.5" rx="2" />
      <text x="404" y="48.9" font-size="14" font-family="Inter, system-ui, -apple-system, sans-serif" fill="#111827" text-anchor="middle">Deploy</text>
    </g>
  </g>
  <rect x="414.7871" y="62" width="72.82579999999999" height="20.4" fill="#F9FAFB" stroke="#E5E7EB" stroke-width="1" rx="10.2" />
  <text x="451.2" y="76.4" font-size="14" font-family="Inter, system-ui, -apple-system, sans-serif" fill="#111827" text-anchor="middle" font-weight="bold">Coverage</text>
  <g transform="translate(410.7, 96.7) scale(1)">
    <text x="40.5" y="33.6" font-size="27" font-family="Inter, system-ui, -apple-system, sans-serif" fill="#3B82F6" text-anchor="middle" font-weight="bold">87.4%</text>
    <text x="40.5" y="50.400000000000006" font-size="11" font-family="Inter, system-ui, -apple-system, sans-serif" fill="#6B7280" text-anchor="middle">test coverage</text>
  </g>
  <rect x="595.2282" y="62" width="75.94359999999999" height="20.4" fill="#F9FAFB" stroke="#E5E7EB" stroke-width="1" rx="10.2" />
  <text x="633.2" y="76.4" font-size="14" font-family="Inter, system-ui, -apple-system, sans-serif" fill="#111827" text-anchor="middle" font-weight="bold">Open PRs</text>
  <g transform="translate(592.7, 96.7) scale(1)">
    <text x="40.5" y="33.6" font-size="27" font-family="Inter, system-ui, -apple-system, sans-serif" fill="#3B82F6" text-anchor="middle" font-weight="bold">23</text>
    <text x="40.5" y="50.400000000000006" font-size="11" font-family="Inter, system-ui, -apple-system, sans-serif" fill="#6B7280" text-anchor="middle">awaiting review</text>
  </g>
  <rect x="150.1738" y="202" width="72.85239999999999" height="20.4" fill="#F9FAFB" stroke="#E5E7EB" stroke-width="1" rx="10.2" />
  <text x="186.6" y="216.39999999999998" font-size="14" font-family="Inter, system-ui, -apple-system, sans-serif" fill="#111827" text-anchor="middle" font-weight="bold">Roadmap</text>
  <g transform="translate(62.3, 224) scale(1)">
    <text x="24" y="42" font-size="18" font-family="Inter, system-ui, -apple-system, sans-serif" fill="#111827" font-weight="bold">Q3 Goals</text>
    <path d="M 44 118 L 224.6 118" stroke="#E5E7EB" stroke-width="2" fill="none" />
    <rect x="44" y="136" width="60" height="32" fill="#F9FAFB" stroke="#E5E7EB" stroke-width="1" rx="4" />
    <text x="74" y="156.4" font-size="11" font-family="Inter, system-ui, -apple-system, sans-serif" fill="#111827" text-anchor="middle">API v2</text>
    <rect x="112" y="136" width="88.6" height="32" fill="#F9FAFB" stroke="#E5E7EB" stroke-width="1" rx="4" />
    <text x="156.3" y="156.4" font-size="11" font-family="Inter, system-ui, -apple-system, sans-serif" fill="#111827" text-anchor="middle">Mobile beta</text>
  </g>
  <rect x="424.92449999999997" y="202" width="52.551" height="20.4" fill="#F9FAFB" stroke="#E5E7EB" stroke-width="1" rx="10.2" />
  <text x="451.2" y="216.39999999999998" font-size="14" font-family="Inter, system-ui, -apple-system, sans-serif" fill="#111827" text-anchor="middle" font-weight="bold">Status</text>
  <g transform="translate(373.2, 327.83) scale(0.65)">
    <text x="12" y="23.200000000000003" font-size="14" font-family="Inter, system-ui, -apple-system, sans-serif" fill="#111827">All systems operational. No incidents in the last 30 days.</text>
  </g>
</svg>