<svg xmlns="http://www.w3.org/2000/svg" viewBox="0 0 762.1233 200" width="762.1233" height="200">
  <defs>
    <marker id="triton-arrow" markerWidth="8" markerHeight="5.6" refX="7" refY="2.8" orient="auto"><polygon points="0 0, 8 2.8, 0 5.6" fill="#4A90D9" /></marker>
  </defs>
  <rect x="0" y="0" width="762.1233" height="200" fill="#FFFFFF" />
  <path d="M 427.0466 80 L 427.0466 100 L 215.5233 100 L 215.5233 120" stroke="#4A90D9" stroke-width="1.5" fill="none" marker-end="url(#triton-arrow)" />
  <text x="321.28495" y="96" font-size="12" font-family="Inter, system-ui, -apple-system, sans-serif" fill="#64748B" text-anchor="middle">queries</text>
  <path d="M 427.0466 80 L 427.0466 100 L 638.5699 100 L 638.5699 120" stroke="#4A90D9" stroke-width="1.5" fill="none" marker-end="url(#triton-arrow)" />
  <text x="532.80825" y="96" font-size="12" font-family="Inter, system-ui, -apple-system, sans-serif" fill="#64748B" text-anchor="middle">caches</text>
  <g id="a">
    <rect x="235.5233" y="24" width="383.0466" height="56" fill="#F8FAFC" fill-opacity="0.85" stroke="#CBD5E1" stroke-width="1.5" rx="6" />
    <svg x="247.523" y="36" width="32" height="32" viewBox="0 0 24 24" style="color:#4A90D9">
      <rect fill="currentColor" x="2" y="2" width="20" height="8" rx="2"/><rect fill="currentColor" x="2" y="14" width="20" height="8" rx="2"/><circle fill="none" stroke="currentColor" stroke-width="1.5" cx="19" cy="6" r="1"/><circle fill="none" stroke="currentColor" stroke-width="1.5" cx="19" cy="18" r="1"/>
    </svg>
    <text x="295.5233" y="43.9" font-size="14" font-family="Inter, system-ui, -apple-system, sans-serif" fill="#1E293B" font-weight="bold">App Service</text>
    <text x="295.5233" y="58.15" font-size="11" font-family="Inter, system-ui, -apple-system, sans-serif" fill="#64748B">Handles HTTP request routing and load balancing for web traffic</text>
  </g>
  <g id="b">
    <rect x="39.99564999999998" y="120" width="351.05530000000005" height="56" fill="#F8FAFC" fill-opacity="0.85" stroke="#CBD5E1" stroke-width="1.5" rx="6" />
    <svg x="51.996" y="132" width="32" height="32" viewBox="0 0 24 24" style="color:#4A90D9">
      <ellipse fill="currentColor" cx="12" cy="5" rx="9" ry="3"/><path fill="currentColor" d="M3 5v4c0 1.66 4.03 3 9 3s9-1.34 9-3V5"/><path fill="currentColor" d="M3 9v4c0 1.66 4.03 3 9 3s9-1.34 9-3V9"/><path fill="currentColor" d="M3 13v4c0 1.66 4.03 3 9 3s9-1.34 9-3v-4"/>
    </svg>
    <text x="99.99564999999998" y="139.9" font-size="14" font-family="Inter, system-ui, -apple-system, sans-serif" fill="#1E293B" font-weight="bold">PostgreSQL</text>
    <text x="99.99564999999998" y="154.15" font-size="11" font-family="Inter, system-ui, -apple-system, sans-serif" fill="#64748B">Primary relational data store used by all backend services</text>
  </g>
  <g id="c">
    <rect x="539.0165" y="120" width="199.10680000000002" height="56" fill="#F8FAFC" fill-opacity="0.85" stroke="#CBD5E1" stroke-width="1.5" rx="6" />
    <text x="599.0165" y="139.9" font-size="14" font-family="Inter, system-ui, -apple-system, sans-serif" fill="#1E293B" font-weight="bold">Cache Layer</text>
    <text x="599.0165" y="154.15" font-size="11" font-family="Inter, system-ui, -apple-system, sans-serif" fill="#64748B">In-memory key-value store</text>
  </g>
</svg>