<svg xmlns="http://www.w3.org/2000/svg" viewBox="0 0 292 112" width="292" height="112">
  <rect x="0" y="0" width="292" height="112" fill="#f8fafc" />
  <rect x="0" y="0" width="292" height="112" fill="#f8fafc" stroke="none" stroke-width="0" />
  <svg x="20" y="20" width="48" height="48" viewBox="0 0 24 24" style="color:#334155">
    <rect fill="currentColor" x="2" y="2" width="20" height="20" rx="3"/>
  </svg>
  <svg x="88" y="20" width="48" height="48" viewBox="0 0 24 24">
    <rect fill="#0078D4" x="1" y="1" width="22" height="22" rx="3"/>
  </svg>
  <svg x="156" y="20" width="48" height="48" viewBox="0 0 24 24">
    <defs>  <linearGradient id="icn1-a" x1="0" y1="0" x2="0" y2="1">    <stop offset="0%" stop-color="#0078D4"/>    <stop offset="100%" stop-color="#003A70"/>  </linearGradient></defs><rect fill="url(#icn1-a)" x="1" y="1" width="22" height="22" rx="3"/>
  </svg>
  <svg x="224" y="20" width="48" height="48" viewBox="0 0 24 24" style="color:#7c3aed">
    <g transform="translate(12 12) rotate(90) translate(-12 -12)"><rect fill="currentColor" x="2" y="2" width="20" height="20" rx="3"/></g>
  </svg>
  <text x="44" y="84" font-size="10" font-family="monospace" fill="#555" text-anchor="middle">mono</text>
  <text x="112" y="84" font-size="10" font-family="monospace" fill="#555" text-anchor="middle">brand</text>
  <text x="180" y="84" font-size="10" font-family="monospace" fill="#555" text-anchor="middle">gradient</text>
  <text x="248" y="84" font-size="10" font-family="monospace" fill="#555" text-anchor="middle">rotate90</text>
</svg>