<svg xmlns="http://www.w3.org/2000/svg" viewBox="0 0 578 296" width="578" height="296">
  <defs>
    <marker id="block-arrow" markerWidth="10" markerHeight="8" refX="9" refY="4" orient="auto" markerUnits="userSpaceOnUse"><polygon points="0 0, 10 4, 0 8" fill="#4A90D9" /></marker>
    <marker id="block-arrow-start" markerWidth="10" markerHeight="8" refX="9" refY="4" orient="auto-start-reverse" markerUnits="userSpaceOnUse"><polygon points="0 0, 10 4, 0 8" fill="#4A90D9" /></marker>
  </defs>
  <rect x="0" y="0" width="578" height="296" fill="#FFFFFF" />
  <path d="M 174 52 L 214 52" stroke="#4A90D9" stroke-width="1.6" fill="none" marker-end="url(#block-arrow)" />
  <path d="M 174 148 L 214 148" stroke="#4A90D9" stroke-width="1.6" fill="none" stroke-dasharray="6 3" marker-end="url(#block-arrow)">
    <animate attributeName="stroke-dashoffset" from="0" to="-9" dur="0.8s" repeatCount="indefinite"/>
  </path>
  <path d="M 174 244 L 214 244" stroke="#4A90D9" stroke-width="1.6" fill="none" stroke-dasharray="8 4" marker-end="url(#block-arrow)">
    <animate attributeName="stroke-dashoffset" from="0" to="-12" dur="0.8s" repeatCount="indefinite"/>
  </path>
  <path d="M 364 244 L 404 244" stroke="#4A90D9" stroke-width="3.2" fill="none" marker-end="url(#block-arrow)" />
  <defs>
    <linearGradient id="triton-flow-1wb4e4t" gradientUnits="userSpaceOnUse" x1="384" y1="80" x2="384" y2="120">
      <stop offset="0%" stop-color="#4A90D9" stop-opacity="0.75"/>
      <stop offset="20%" stop-color="#4A90D9" stop-opacity="0.85">
        <animate attributeName="offset" values="0%;60%;100%" dur="1.6s" repeatCount="indefinite"/>
      </stop>
      <stop offset="35%" stop-color="#FFFFFF" stop-opacity="1">
        <animate attributeName="offset" values="10%;70%;100%" dur="1.6s" repeatCount="indefinite"/>
      </stop>
      <stop offset="50%" stop-color="#4A90D9" stop-opacity="0.85">
        <animate attributeName="offset" values="20%;80%;100%" dur="1.6s" repeatCount="indefinite"/>
      </stop>
      <stop offset="100%" stop-color="#4A90D9" stop-opacity="0.75"/>
    </linearGradient>
  </defs>
  <path d="M 384 80 C 384 80.48 384.02 81.9 384 82.86 C 383.98 83.81 383.56 84.76 383.87 85.71 C 384.17 86.67 385.65 87.62 385.81 88.57 C 385.97 89.52 385.6 90.48 384.83 91.43 C 384.06 92.38 381.56 93.33 381.21 94.29 C 380.85 95.24 381.8 96.19 382.7 97.14 C 383.6 98.1 386.1 99.05 386.6 100 C 387.1 100.95 386.51 101.9 385.69 102.86 C 384.87 103.81 382.25 104.76 381.65 105.71 C 381.05 106.67 381.49 107.62 382.09 108.57 C 382.69 109.52 384.83 110.48 385.26 111.43 C 385.7 112.38 384.92 113.33 384.71 114.29 C 384.5 115.24 384.12 116.19 384 117.14 C 383.88 118.1 384 119.52 384 120" stroke="url(#triton-flow-1wb4e4t)" stroke-width="1.6" fill="none" marker-end="url(#block-arrow)" />
  <rect x="24" y="24" width="150" height="56" fill="#F8FAFC" stroke="#7C3AED" stroke-width="1.6" rx="8" />
  <text x="99" y="57" font-size="14" font-family="Inter, system-ui, -apple-system, sans-serif" fill="#1E293B" text-anchor="middle" font-weight="bold">Frontend</text>
  <rect x="214" y="24" width="340" height="56" fill="#F8FAFC" stroke="#0EA5A8" stroke-width="1.6" rx="8" />
  <text x="384" y="57" font-size="14" font-family="Inter, system-ui, -apple-system, sans-serif" fill="#1E293B" text-anchor="middle" font-weight="bold">API Layer</text>
  <rect x="24" y="120" width="150" height="56" fill="#F8FAFC" stroke="#D97706" stroke-width="1.6" rx="8" />
  <text x="99" y="153" font-size="14" font-family="Inter, system-ui, -apple-system, sans-serif" fill="#1E293B" text-anchor="middle" font-weight="bold">Auth</text>
  <rect x="214" y="120" width="340" height="56" fill="#F8FAFC" stroke="#5B4FCF" stroke-width="1.6" rx="8" />
  <text x="384" y="153" font-size="14" font-family="Inter, system-ui, -apple-system, sans-serif" fill="#1E293B" text-anchor="middle" font-weight="bold">Database</text>
  <rect x="24" y="216" width="150" height="56" fill="#F8FAFC" stroke="#DB2777" stroke-width="1.6" rx="8" />
  <text x="99" y="249" font-size="14" font-family="Inter, system-ui, -apple-system, sans-serif" fill="#1E293B" text-anchor="middle" font-weight="bold">Cache</text>
  <rect x="214" y="216" width="150" height="56" fill="#F8FAFC" stroke="#2563EB" stroke-width="1.6" rx="8" />
  <text x="289" y="249" font-size="14" font-family="Inter, system-ui, -apple-system, sans-serif" fill="#1E293B" text-anchor="middle" font-weight="bold">Queue</text>
  <rect x="404" y="216" width="150" height="56" fill="#F8FAFC" stroke="#16A34A" stroke-width="1.6" rx="8" />
  <text x="479" y="249" font-size="14" font-family="Inter, system-ui, -apple-system, sans-serif" fill="#1E293B" text-anchor="middle" font-weight="bold">Worker</text>
</svg>