<svg xmlns="http://www.w3.org/2000/svg" viewBox="0 0 330 952" width="330" height="952">
  <defs>
    <marker id="state-arrow" markerWidth="10" markerHeight="8" refX="9" refY="4" orient="auto"><polygon points="0 0, 10 4, 0 8" fill="#64748B" /></marker>
  </defs>
  <rect width="100%" height="100%" fill="#FFFFFF" />
  <text x="24" y="42" font-size="18" font-family="Inter, system-ui, -apple-system, sans-serif" fill="#1E293B" font-weight="bold">Order Payment Lifecycle</text>
  <rect x="8" y="104" width="122.4" height="178" fill="#F8FAFC" stroke="#4A90D9" stroke-width="1.4" rx="10" opacity="0.5" />
  <text x="20" y="120" font-size="11" font-family="Inter, system-ui, -apple-system, sans-serif" fill="#1E293B" font-weight="bold">Processing</text>
  <path d="M 141.0226238372093 78 L 182.987363372093 134" stroke="#64748B" stroke-width="1.4" fill="none" marker-end="url(#state-arrow)" />
  <path d="M 204.64364680851062 172 L 226.50795319148935 228" stroke="#64748B" stroke-width="1.4" fill="none" marker-end="url(#state-arrow)" />
  <rect x="108.63" y="158.38" width="72.36" height="15" fill="#FFFFFF" stroke="#FFFFFF" stroke-width="0" />
  <text x="145" y="168.38" font-size="11" font-family="Inter, system-ui, -apple-system, sans-serif" fill="#64748B" text-anchor="middle">order_placed</text>
  <path d="M 208.4716170212766 266 L 133.4475829787234 322" stroke="#64748B" stroke-width="1.4" fill="none" marker-end="url(#state-arrow)" />
  <rect x="38.12" y="291" width="119.3" height="15" fill="#FFFFFF" stroke="#FFFFFF" stroke-width="0" />
  <text x="98" y="301" font-size="11" font-family="Inter, system-ui, -apple-system, sans-serif" fill="#64748B" text-anchor="middle">authorize [amount &gt; 0]</text>
  <path d="M 233.9262 266 L 233.9262 322" stroke="#64748B" stroke-width="1.4" fill="none" marker-end="url(#state-arrow)" />
  <rect x="108.72" y="273.99" width="125.74" height="15" fill="#FFFFFF" stroke="#FFFFFF" stroke-width="0" />
  <text x="172" y="283.99" font-size="11" font-family="Inter, system-ui, -apple-system, sans-serif" fill="#64748B" text-anchor="middle">authorize [amount &lt;= 0]</text>
  <path d="M 230.81850819746376 360 L 230.81850819746376 836 L 145.43876499094202 836 L 145.43876499094202 882" stroke="#64748B" stroke-width="1.4" fill="none" marker-end="url(#state-arrow)" />
  <path d="M 124.64715406976744 78 L 83.24586569767442 134" stroke="#64748B" stroke-width="1.4" fill="none" marker-end="url(#state-arrow)" />
  <path d="M 68.64634255319149 172 L 67.0174574468085 228" stroke="#64748B" stroke-width="1.4" fill="none" marker-end="url(#state-arrow)" />
  <rect x="52.51" y="189" width="30.64" height="15" fill="#FFFFFF" stroke="#FFFFFF" stroke-width="0" />
  <text x="68" y="199" font-size="11" font-family="Inter, system-ui, -apple-system, sans-serif" fill="#64748B" text-anchor="middle">valid</text>
  <path d="M 68.7346463235294 266 L 68.7346463235294 290 L 50.059799999999996 290 L 50.059799999999996 858 L 142.32545344427243 858 L 142.32545344427243 882" stroke="#64748B" stroke-width="1.4" fill="none" marker-end="url(#state-arrow)" />
  <path d="M 113.9821304347826 360 L 131.6343043478261 416" stroke="#64748B" stroke-width="1.4" fill="none" marker-end="url(#state-arrow)" />
  <path d="M 136.993 450 L 136.993 600" stroke="#64748B" stroke-width="1.4" fill="none" marker-end="url(#state-arrow)" />
  <rect x="99.89" y="514" width="74.2" height="15" fill="#FFFFFF" stroke="#FFFFFF" stroke-width="0" />
  <text x="137" y="524" font-size="11" font-family="Inter, system-ui, -apple-system, sans-serif" fill="#64748B" text-anchor="middle">[full payment]</text>
  <path d="M 136.993 450 L 136.993 506" stroke="#64748B" stroke-width="1.4" fill="none" marker-end="url(#state-arrow)" />
  <rect x="114.61" y="467" width="44.77" height="15" fill="#FFFFFF" stroke="#FFFFFF" stroke-width="0" />
  <text x="137" y="477" font-size="11" font-family="Inter, system-ui, -apple-system, sans-serif" fill="#64748B" text-anchor="middle">[partial]</text>
  <path d="M 136.993 544 L 136.993 600" stroke="#64748B" stroke-width="1.4" fill="none" marker-end="url(#state-arrow)" />
  <rect x="96.83" y="561" width="80.33" height="15" fill="#FFFFFF" stroke="#FFFFFF" stroke-width="0" />
  <text x="137" y="571" font-size="11" font-family="Inter, system-ui, -apple-system, sans-serif" fill="#64748B" text-anchor="middle">remaining paid</text>
  <path d="M 136.993 638 L 136.993 694" stroke="#64748B" stroke-width="1.4" fill="none" marker-end="url(#state-arrow)" />
  <rect x="89.46" y="655" width="95.06" height="15" fill="#FFFFFF" stroke="#FFFFFF" stroke-width="0" />
  <text x="137" y="665" font-size="11" font-family="Inter, system-ui, -apple-system, sans-serif" fill="#64748B" text-anchor="middle">refund_requested</text>
  <path d="M 138.33645664893615 732 L 142.29611835106383 788" stroke="#64748B" stroke-width="1.4" fill="none" marker-end="url(#state-arrow)" />
  <rect x="98.32" y="749" width="83.99" height="15" fill="#FFFFFF" stroke="#FFFFFF" stroke-width="0" />
  <text x="140" y="759" font-size="11" font-family="Inter, system-ui, -apple-system, sans-serif" fill="#64748B" text-anchor="middle">process_refund</text>
  <path d="M 143.63957499999998 826 L 143.63957499999998 882" stroke="#64748B" stroke-width="1.4" fill="none" marker-end="url(#state-arrow)" />
  <path d="M 137.4538938868613 638 L 137.4538938868613 662 L 198.07277499999998 662 L 198.07277499999998 858 L 143.37274169708027 858 L 143.37274169708027 882" stroke="#64748B" stroke-width="1.4" fill="none" marker-end="url(#state-arrow)" />
  <circle cx="132.78" cy="67" r="8" fill="#1E293B" stroke="#1E293B" stroke-width="0" />
  <rect x="159.23" y="134" width="76" height="38" fill="#F8FAFC" stroke="#4A90D9" stroke-width="1.4" rx="10" />
  <text x="197" y="157.9" font-size="14" font-family="Inter, system-ui, -apple-system, sans-serif" fill="#1E293B" text-anchor="middle" font-weight="bold">Idle</text>
  <rect x="60.06" y="322" width="95.87" height="38" fill="#F8FAFC" stroke="#4A90D9" stroke-width="1.4" rx="10" />
  <text x="108" y="345.9" font-size="14" font-family="Inter, system-ui, -apple-system, sans-serif" fill="#1E293B" text-anchor="middle" font-weight="bold">Authorized</text>
  <rect x="195.93" y="322" width="76" height="38" fill="#F8FAFC" stroke="#4A90D9" stroke-width="1.4" rx="10" />
  <text x="234" y="345.9" font-size="14" font-family="Inter, system-ui, -apple-system, sans-serif" fill="#1E293B" text-anchor="middle" font-weight="bold">Failed</text>
  <circle cx="143.64" cy="893" r="10" fill="none" stroke="#1E293B" stroke-width="1.5" />
  <circle cx="143.64" cy="893" r="5" fill="#1E293B" stroke="#1E293B" stroke-width="0" />
  <rect x="24" y="134" width="90.4" height="38" fill="#F8FAFC" stroke="#4A90D9" stroke-width="1.4" rx="10" />
  <text x="69" y="157.9" font-size="14" font-family="Inter, system-ui, -apple-system, sans-serif" fill="#1E293B" text-anchor="middle" font-weight="bold">Validating</text>
  <rect x="24" y="228" width="84.93" height="38" fill="#F8FAFC" stroke="#4A90D9" stroke-width="1.4" rx="10" />
  <text x="66" y="251.9" font-size="14" font-family="Inter, system-ui, -apple-system, sans-serif" fill="#1E293B" text-anchor="middle" font-weight="bold">Charging</text>
  <path d="M 136.99 416 L 153.99 433 L 136.99 450 L 119.99 433 Z" stroke="#CBD5E1" stroke-width="1.4" fill="#F8FAFC" />
  <rect x="88.68" y="600" width="96.63" height="38" fill="#F8FAFC" stroke="#4A90D9" stroke-width="1.4" rx="10" />
  <text x="137" y="623.9" font-size="14" font-family="Inter, system-ui, -apple-system, sans-serif" fill="#1E293B" text-anchor="middle" font-weight="bold">Completed</text>
  <rect x="91.42" y="506" width="91.15" height="38" fill="#F8FAFC" stroke="#4A90D9" stroke-width="1.4" rx="10" />
  <text x="137" y="529.9" font-size="14" font-family="Inter, system-ui, -apple-system, sans-serif" fill="#1E293B" text-anchor="middle" font-weight="bold">PartialPay</text>
  <rect x="91.01" y="694" width="91.97" height="38" fill="#F8FAFC" stroke="#4A90D9" stroke-width="1.4" rx="10" />
  <text x="137" y="717.9" font-size="14" font-family="Inter, system-ui, -apple-system, sans-serif" fill="#1E293B" text-anchor="middle" font-weight="bold">Refunding</text>
  <rect x="99.21" y="788" width="88.87" height="38" fill="#F8FAFC" stroke="#4A90D9" stroke-width="1.4" rx="10" />
  <text x="144" y="811.9" font-size="14" font-family="Inter, system-ui, -apple-system, sans-serif" fill="#1E293B" text-anchor="middle" font-weight="bold">Refunded</text>
</svg>