<svg xmlns="http://www.w3.org/2000/svg" viewBox="0 0 598.8 439.4" width="598.8" height="439.4">
  <defs>
    <marker id="triton-arrow" markerWidth="8" markerHeight="5.6" refX="7" refY="2.8" orient="auto"><polygon points="0 0, 8 2.8, 0 5.6" fill="#1F497D" /></marker>
  </defs>
  <rect width="100%" height="100%" fill="#FFFFFF" />
  <text x="24" y="42" font-size="20" font-family="Inter, system-ui, -apple-system, sans-serif" fill="#111111" font-weight="bold">System Dashboard</text>
  <rect x="24" y="58" width="366.8" height="176" fill="#FFFFFF" stroke="#CCCCCC" stroke-width="1" rx="6" />
  <rect x="410.8" y="58" width="164" height="176" fill="#FFFFFF" stroke="#CCCCCC" stroke-width="1" rx="6" />
  <rect x="24" y="254" width="366.8" height="161.4" fill="#FFFFFF" stroke="#CCCCCC" stroke-width="1" rx="6" />
  <rect x="410.8" y="254" width="164" height="161.4" fill="#FFFFFF" stroke="#CCCCCC" stroke-width="1" rx="6" />
  <text x="207.4" y="53.2" font-size="14" font-family="Inter, system-ui, -apple-system, sans-serif" fill="#111111" text-anchor="middle" font-weight="bold">Services</text>
  <g transform="translate(43.400000000000006, 62) scale(1)">
    <path d="M 144 84 L 164 84 L 164 44 L 184 44" stroke="#1F497D" stroke-width="1.5" fill="none" marker-end="url(#triton-arrow)" />
    <path d="M 144 84 L 164 84 L 164 124 L 184 124" stroke="#1F497D" stroke-width="1.5" fill="none" marker-end="url(#triton-arrow)" />
    <g id="api">
      <rect x="24" y="64" width="120" height="40" fill="#F4F6FA" stroke="#CCCCCC" stroke-width="1.5" rx="2" />
      <text x="84" y="88.9" font-size="14" font-family="Inter, system-ui, -apple-system, sans-serif" fill="#111111" text-anchor="middle">API</text>
    </g>
    <g id="db">
      <rect x="184" y="24" width="120" height="40" fill="#F4F6FA" stroke="#CCCCCC" stroke-width="1.5" rx="2" />
      <text x="244" y="48.9" font-size="14" font-family="Inter, system-ui, -apple-system, sans-serif" fill="#111111" text-anchor="middle">Database</text>
    </g>
    <g id="cache">
      <rect x="184" y="104" width="120" height="40" fill="#F4F6FA" stroke="#CCCCCC" stroke-width="1.5" rx="2" />
      <text x="244" y="128.9" font-size="14" font-family="Inter, system-ui, -apple-system, sans-serif" fill="#111111" text-anchor="middle">Cache</text>
    </g>
  </g>
  <text x="492.8" y="53.2" font-size="14" font-family="Inter, system-ui, -apple-system, sans-serif" fill="#111111" text-anchor="middle" font-weight="bold">Uptime</text>
  <g transform="translate(452.3, 113.7) scale(1)">
    <text x="40.5" y="33.6" font-size="27" font-family="Inter, system-ui, -apple-system, sans-serif" fill="#1F497D" text-anchor="middle" font-weight="bold">99.95%</text>
    <text x="40.5" y="50.400000000000006" font-size="11" font-family="Inter, system-ui, -apple-system, sans-serif" fill="#555555" text-anchor="middle">availability</text>
  </g>
  <text x="207.4" y="249.2" font-size="14" font-family="Inter, system-ui, -apple-system, sans-serif" fill="#111111" text-anchor="middle" font-weight="bold">Roadmap</text>
  <g transform="translate(28, 258) scale(0.65)">
    <text x="24" y="42" font-size="18" font-family="Inter, system-ui, -apple-system, sans-serif" fill="#111111" font-weight="bold">Milestones</text>
    <path d="M 44 118 L 528 118" stroke="#CCCCCC" stroke-width="2" fill="none" />
    <rect x="44" y="136" width="60" height="32" fill="#F4F6FA" stroke="#CCCCCC" stroke-width="1" rx="4" />
    <text x="74" y="156.4" font-size="11" font-family="Inter, system-ui, -apple-system, sans-serif" fill="#111111" text-anchor="middle">Alpha</text>
    <rect x="309.20146520146517" y="136" width="60" height="32" fill="#F4F6FA" stroke="#CCCCCC" stroke-width="1" rx="4" />
    <text x="339.20146520146517" y="156.4" font-size="11" font-family="Inter, system-ui, -apple-system, sans-serif" fill="#111111" text-anchor="middle">Beta</text>
    <rect x="444" y="136" width="60" height="32" fill="#F4F6FA" stroke="#CCCCCC" stroke-width="1" rx="4" />
    <text x="474" y="156.4" font-size="11" font-family="Inter, system-ui, -apple-system, sans-serif" fill="#111111" text-anchor="middle">GA</text>
  </g>
  <text x="492.8" y="249.2" font-size="14" font-family="Inter, system-ui, -apple-system, sans-serif" fill="#111111" text-anchor="middle" font-weight="bold">Notes</text>
  <g transform="translate(414.8, 320.53) scale(0.65)">
    <text x="12" y="23.200000000000003" font-size="14" font-family="Inter, system-ui, -apple-system, sans-serif" fill="#111111">All services operating normally.</text>
  </g>
</svg>