<svg xmlns="http://www.w3.org/2000/svg" viewBox="0 0 598.8 483.4" width="598.8" height="483.4">
  <defs>
    <marker id="triton-arrow" markerWidth="8" markerHeight="5.6" refX="7" refY="2.8" orient="auto"><polygon points="0 0, 8 2.8, 0 5.6" fill="#3B82F6" /></marker>
  </defs>
  <rect width="100%" height="100%" fill="#FFFFFF" />
  <text x="24" y="42" font-size="20" font-family="Inter, system-ui, -apple-system, sans-serif" fill="#111827" font-weight="bold">System Dashboard</text>
  <rect x="24" y="58" width="366.8" height="198" fill="#FFFFFF" stroke="#E5E7EB" stroke-width="1" rx="6" />
  <rect x="410.8" y="58" width="164" height="198" fill="#FFFFFF" stroke="#E5E7EB" stroke-width="1" rx="6" />
  <rect x="24" y="276" width="366.8" height="183.4" fill="#FFFFFF" stroke="#E5E7EB" stroke-width="1" rx="6" />
  <rect x="410.8" y="276" width="164" height="183.4" fill="#FFFFFF" stroke="#E5E7EB" stroke-width="1" rx="6" />
  <rect x="174.9106" y="62" width="64.9788" height="20.4" fill="#F9FAFB" stroke="#E5E7EB" stroke-width="1" rx="10.2" />
  <text x="207.4" y="76.4" font-size="14" font-family="Inter, system-ui, -apple-system, sans-serif" fill="#111827" text-anchor="middle" font-weight="bold">Services</text>
  <g transform="translate(43.400000000000006, 84) scale(1)">
    <path d="M 144 84 L 164 84 L 164 44 L 184 44" stroke="#3B82F6" stroke-width="1.5" fill="none" marker-end="url(#triton-arrow)" />
    <path d="M 144 84 L 164 84 L 164 124 L 184 124" stroke="#3B82F6" stroke-width="1.5" fill="none" marker-end="url(#triton-arrow)" />
    <g id="api">
      <rect x="24" y="64" width="120" height="40" fill="#F9FAFB" stroke="#E5E7EB" stroke-width="1.5" rx="2" />
      <text x="84" y="88.9" font-size="14" font-family="Inter, system-ui, -apple-system, sans-serif" fill="#111827" text-anchor="middle">API</text>
    </g>
    <g id="db">
      <rect x="184" y="24" width="120" height="40" fill="#F9FAFB" stroke="#E5E7EB" stroke-width="1.5" rx="2" />
      <text x="244" y="48.9" font-size="14" font-family="Inter, system-ui, -apple-system, sans-serif" fill="#111827" text-anchor="middle">Database</text>
    </g>
    <g id="cache">
      <rect x="184" y="104" width="120" height="40" fill="#F9FAFB" stroke="#E5E7EB" stroke-width="1.5" rx="2" />
      <text x="244" y="128.9" font-size="14" font-family="Inter, system-ui, -apple-system, sans-serif" fill="#111827" text-anchor="middle">Cache</text>
    </g>
  </g>
  <rect x="464.19350000000003" y="62" width="57.212999999999994" height="20.4" fill="#F9FAFB" stroke="#E5E7EB" stroke-width="1" rx="10.2" />
  <text x="492.8" y="76.4" font-size="14" font-family="Inter, system-ui, -apple-system, sans-serif" fill="#111827" text-anchor="middle" font-weight="bold">Uptime</text>
  <g transform="translate(452.3, 135.7) scale(1)">
    <text x="40.5" y="33.6" font-size="27" font-family="Inter, system-ui, -apple-system, sans-serif" fill="#3B82F6" text-anchor="middle" font-weight="bold">99.95%</text>
    <text x="40.5" y="50.400000000000006" font-size="11" font-family="Inter, system-ui, -apple-system, sans-serif" fill="#6B7280" text-anchor="middle">availability</text>
  </g>
  <rect x="170.9738" y="280" width="72.85239999999999" height="20.4" fill="#F9FAFB" stroke="#E5E7EB" stroke-width="1" rx="10.2" />
  <text x="207.4" y="294.4" font-size="14" font-family="Inter, system-ui, -apple-system, sans-serif" fill="#111827" text-anchor="middle" font-weight="bold">Roadmap</text>
  <g transform="translate(28, 302) scale(0.65)">
    <text x="24" y="42" font-size="18" font-family="Inter, system-ui, -apple-system, sans-serif" fill="#111827" font-weight="bold">Milestones</text>
    <path d="M 44 118 L 528 118" stroke="#E5E7EB" stroke-width="2" fill="none" />
    <rect x="44" y="136" width="60" height="32" fill="#F9FAFB" stroke="#E5E7EB" stroke-width="1" rx="4" />
    <text x="74" y="156.4" font-size="11" font-family="Inter, system-ui, -apple-system, sans-serif" fill="#111827" text-anchor="middle">Alpha</text>
    <rect x="309.20146520146517" y="136" width="60" height="32" fill="#F9FAFB" stroke="#E5E7EB" stroke-width="1" rx="4" />
    <text x="339.20146520146517" y="156.4" font-size="11" font-family="Inter, system-ui, -apple-system, sans-serif" fill="#111827" text-anchor="middle">Beta</text>
    <rect x="444" y="136" width="60" height="32" fill="#F9FAFB" stroke="#E5E7EB" stroke-width="1" rx="4" />
    <text x="474" y="156.4" font-size="11" font-family="Inter, system-ui, -apple-system, sans-serif" fill="#111827" text-anchor="middle">GA</text>
  </g>
  <rect x="468.0967" y="280" width="49.4066" height="20.4" fill="#F9FAFB" stroke="#E5E7EB" stroke-width="1" rx="10.2" />
  <text x="492.8" y="294.4" font-size="14" font-family="Inter, system-ui, -apple-system, sans-serif" fill="#111827" text-anchor="middle" font-weight="bold">Notes</text>
  <g transform="translate(414.8, 364.53) scale(0.65)">
    <text x="12" y="23.200000000000003" font-size="14" font-family="Inter, system-ui, -apple-system, sans-serif" fill="#111827">All services operating normally.</text>
  </g>
</svg>