<?xml version="1.0" encoding="UTF-8"?>
<svg height="408" version="1.1" viewBox="0 0 1200 408" width="1200" xmlns="http://www.w3.org/2000/svg">
  <rect fill="#FFFFFF" height="408" width="1200" x="0" y="0"/>
  <rect fill="#1F497D" height="60" width="1200" x="0" y="0"/>
  <text dominant-baseline="central" fill="#FFFFFF" font-family="Georgia, serif" font-size="24" font-weight="700" text-anchor="middle" x="600" y="30">Order Fulfilment System</text>
  <rect fill="#F8F9FB" height="300" rx="6" stroke="#1F497D" stroke-width="1" width="439" x="24" y="84"/>
  <rect fill="#FFFFFF" height="199.04" width="413" x="37" y="134.48"/>
  <path d="M153.05 223.95 L178.99 223.95 L178.99 223.95 L200.38 223.95" fill="none" stroke="#E2E8F0" stroke-width="0.97"/>
  <path d="M282.73 223.95 L311.25 223.95 L311.25 171.43 L334.59 171.43" fill="none" stroke="#E2E8F0" stroke-width="0.97"/>
  <path d="M282.73 223.95 L307.36 223.95 L307.36 223.95 L327.46 223.95" fill="none" stroke="#E2E8F0" stroke-width="0.97"/>
  <path d="M282.73 223.95 L311.25 223.95 L311.25 276.47 L334.59 276.47" fill="none" stroke="#E2E8F0" stroke-width="0.97"/>
  <rect fill="#F8F9FA" height="31.77" rx="0" stroke="#1F497D" stroke-width="0.97" width="86.88" x="66.18" y="207.74"/>
  <text dominant-baseline="central" fill="#1E293B" font-family="Georgia, 'Times New Roman', serif" font-size="7.78" font-weight="600" text-anchor="middle" x="109.62" y="223.95">Receive Order</text>
  <rect fill="#F8F9FA" height="31.77" rx="0" stroke="#1F497D" stroke-width="0.97" width="77.8" x="204.92" y="207.74"/>
  <text dominant-baseline="central" fill="#1E293B" font-family="Georgia, 'Times New Roman', serif" font-size="7.78" font-weight="600" text-anchor="middle" x="243.82" y="223.95">Validate</text>
  <rect fill="#F8F9FA" height="31.77" rx="0" stroke="#1F497D" stroke-width="0.97" width="77.8" x="339.13" y="155.23"/>
  <text dominant-baseline="central" fill="#1E293B" font-family="Georgia, 'Times New Roman', serif" font-size="7.78" font-weight="600" text-anchor="middle" x="378.03" y="171.43">Payment</text>
  <rect fill="#F8F9FA" height="31.77" rx="0" stroke="#1F497D" stroke-width="0.97" width="92.71" x="332" y="207.74"/>
  <text dominant-baseline="central" fill="#1E293B" font-family="Georgia, 'Times New Roman', serif" font-size="7.78" font-weight="600" text-anchor="middle" x="378.03" y="223.95">Warehouse Pick</text>
  <rect fill="#F8F9FA" height="31.77" rx="0" stroke="#1F497D" stroke-width="0.97" width="77.8" x="339.13" y="260.26"/>
  <text dominant-baseline="central" fill="#1E293B" font-family="Georgia, 'Times New Roman', serif" font-size="7.78" font-weight="600" text-anchor="middle" x="378.03" y="276.47">Dispatch</text>
  <path d="M204.92 223.95 L200.38 221.36 L200.38 226.54 Z" fill="#64748B" stroke="none" stroke-width="0"/>
  <path d="M339.13 171.43 L334.59 168.84 L334.59 174.03 Z" fill="#64748B" stroke="none" stroke-width="0"/>
  <path d="M332 223.95 L327.46 221.36 L327.46 226.54 Z" fill="#64748B" stroke="none" stroke-width="0"/>
  <path d="M339.13 276.47 L334.59 273.87 L334.59 279.06 Z" fill="#64748B" stroke="none" stroke-width="0"/>
  <rect fill="#F8F9FB" height="300" rx="6" stroke="#1F497D" stroke-width="1" width="383" x="535" y="84"/>
  <line stroke="#94A3B8" stroke-width="0.97" x1="637.25" x2="637.25" y1="218.48" y2="241.76"/>
  <line stroke="#94A3B8" stroke-width="0.97" x1="695.46" x2="751.72" y1="203.6" y2="259.22"/>
  <rect fill="#F8F9FA" height="29.75" rx="2.59" stroke="#E2E8F0" stroke-width="0.65" width="116.41" x="579.04" y="188.73"/>
  <rect fill="#F1F5F9" height="29.75" rx="2.59" stroke="#1F497D" stroke-width="0.97" width="116.41" x="579.04" y="188.73"/>
  <text dominant-baseline="alphabetic" fill="#0D2B4E" font-family="Georgia, 'Times New Roman', serif" font-size="9.05" font-weight="700" text-anchor="middle" x="637.25" y="204.9">OrderService</text>
  <rect fill="#F8F9FA" height="29.75" rx="2.59" stroke="#E2E8F0" stroke-width="0.65" width="116.41" x="579.04" y="249.52"/>
  <rect fill="#F1F5F9" height="29.75" rx="2.59" stroke="#1F497D" stroke-width="0.97" width="116.41" x="579.04" y="249.52"/>
  <text dominant-baseline="alphabetic" fill="#0D2B4E" font-family="Georgia, 'Times New Roman', serif" font-size="9.05" font-weight="700" text-anchor="middle" x="637.25" y="265.69">PaymentGateway</text>
  <rect fill="#F8F9FA" height="29.75" rx="2.59" stroke="#E2E8F0" stroke-width="0.65" width="116.41" x="757.54" y="249.52"/>
  <rect fill="#F1F5F9" height="29.75" rx="2.59" stroke="#1F497D" stroke-width="0.97" width="116.41" x="757.54" y="249.52"/>
  <text dominant-baseline="alphabetic" fill="#0D2B4E" font-family="Georgia, 'Times New Roman', serif" font-size="9.05" font-weight="700" text-anchor="middle" x="815.75" y="265.69">WarehouseSystem</text>
  <path d="M632.72 241.76 L637.25 249.52 L641.78 241.76" fill="none" stroke="#94A3B8" stroke-linecap="round" stroke-width="0.97"/>
  <path d="M748.49 262.46 L757.54 264.4 L754.96 255.34" fill="none" stroke="#94A3B8" stroke-linecap="round" stroke-width="0.97"/>
  <rect fill="#F8F9FB" height="300" rx="6" stroke="#1F497D" stroke-width="1" width="187" x="990" y="84"/>
  <line stroke="#94A3B8" stroke-width="0.94" x1="1084.13" x2="1083.5" y1="153.19" y2="165.76"/>
  <line stroke="#94A3B8" stroke-width="0.94" x1="1083.5" x2="1083.5" y1="200.35" y2="212.93"/>
  <line stroke="#94A3B8" stroke-width="0.94" x1="1083.5" x2="1083.5" y1="247.52" y2="260.1"/>
  <line stroke="#94A3B8" stroke-width="0.94" x1="1083.5" x2="1084.13" y1="294.69" y2="307.27"/>
  <path d="M1077.84 146.27 A6.29 6.29 0 1 0 1090.42 146.27 A6.29 6.29 0 1 0 1077.84 146.27 Z" fill="#1E293B" stroke="#1E293B" stroke-linecap="round" stroke-width="0.94"/>
  <rect fill="#F8F9FA" height="27.04" rx="2.52" stroke="#E2E8F0" stroke-width="0.94" width="100.63" x="1033.19" y="173.31"/>
  <text dominant-baseline="alphabetic" fill="#1E293B" font-family="Georgia, 'Times New Roman', serif" font-size="8.8" font-weight="600" text-anchor="middle" x="1083.5" y="189.66">Pending</text>
  <rect fill="#F8F9FA" height="27.04" rx="2.52" stroke="#E2E8F0" stroke-width="0.94" width="100.63" x="1033.19" y="220.48"/>
  <text dominant-baseline="alphabetic" fill="#1E293B" font-family="Georgia, 'Times New Roman', serif" font-size="8.8" font-weight="600" text-anchor="middle" x="1083.5" y="236.83">Processing</text>
  <rect fill="#F8F9FA" height="27.04" rx="2.52" stroke="#E2E8F0" stroke-width="0.94" width="100.63" x="1033.19" y="267.65"/>
  <text dominant-baseline="alphabetic" fill="#1E293B" font-family="Georgia, 'Times New Roman', serif" font-size="8.8" font-weight="600" text-anchor="middle" x="1083.5" y="284">Shipped</text>
  <path d="M1077.84 322.36 A6.29 6.29 0 1 0 1090.42 322.36 A6.29 6.29 0 1 0 1077.84 322.36 Z" fill="#FFFFFF" stroke="#1E293B" stroke-linecap="round" stroke-width="0.94"/>
  <path d="M1080.98 322.36 A3.46 3.46 0 1 0 1087.9 322.36 A3.46 3.46 0 1 0 1080.98 322.36 Z" fill="#1E293B" stroke="#1E293B" stroke-linecap="round" stroke-width="0.63"/>
  <path d="M1079.1 165.76 L1083.5 173.31 L1088.53 165.76" fill="none" stroke="#94A3B8" stroke-linecap="round" stroke-width="0.94"/>
  <path d="M1079.1 212.93 L1083.5 220.48 L1087.9 212.93" fill="none" stroke="#94A3B8" stroke-linecap="round" stroke-width="0.94"/>
  <path d="M1079.1 260.1 L1083.5 267.65 L1087.9 260.1" fill="none" stroke="#94A3B8" stroke-linecap="round" stroke-width="0.94"/>
  <path d="M1079.1 307.27 L1084.13 314.81 L1088.53 307.27" fill="none" stroke="#94A3B8" stroke-linecap="round" stroke-width="0.94"/>
  <path d="M 416.93 171.11 L 579.04 264.40" fill="none" opacity="0.95" stroke="#E05B4B" stroke-linecap="round" stroke-width="2"/>
  <path d="M 579.04 264.40 L 569.25 263.37 L 573.24 256.44 Z" fill="#E05B4B" stroke="none" stroke-width="0"/>
  <rect fill="#FFFFFF" height="23.4" rx="3" stroke="#E05B4B" stroke-width="1" width="68.5" x="463.74" y="206.05"/>
  <text dominant-baseline="central" fill="#E05B4B" font-family="Georgia, serif" font-size="11" font-weight="400" text-anchor="middle" x="497.99" y="217.75">handled by</text>
  <path d="M 424.71 223.63 L 591.13 299.27 L 757.54 264.40" fill="none" opacity="0.95" stroke="#E05B4B" stroke-linecap="round" stroke-width="2"/>
  <path d="M 757.54 264.40 L 749.56 270.16 L 747.91 262.33 Z" fill="#E05B4B" stroke="none" stroke-width="0"/>
  <rect fill="#FFFFFF" height="23.4" rx="3" stroke="#E05B4B" stroke-width="1" width="80.6" x="550.83" y="232.31"/>
  <text dominant-baseline="central" fill="#E05B4B" font-family="Georgia, serif" font-size="11" font-weight="400" text-anchor="middle" x="591.13" y="244.01">fulfilled by</text>
  <path d="M 416.93 276.14 L 725.06 299.27 L 1033.19 281.17" fill="none" opacity="0.95" stroke="#E05B4B" stroke-linecap="round" stroke-width="2"/>
  <path d="M 1033.19 281.17 L 1024.44 285.69 L 1023.97 277.70 Z" fill="#E05B4B" stroke="none" stroke-width="0"/>
  <rect fill="#FFFFFF" height="23.4" rx="3" stroke="#E05B4B" stroke-width="1" width="56.4" x="696.86" y="266.96"/>
  <text dominant-baseline="central" fill="#E05B4B" font-family="Georgia, serif" font-size="11" font-weight="400" text-anchor="middle" x="725.06" y="278.66">triggers</text>
</svg>