<svg xmlns="http://www.w3.org/2000/svg" viewBox="0 0 553.2 714.3809523809524" width="553.2" height="714.3809523809524">
  <defs>
    <marker id="triton-arrow" markerWidth="8" markerHeight="5.6" refX="7" refY="2.8" orient="auto"><polygon points="0 0, 8 2.8, 0 5.6" fill="#4A90D9" /></marker>
    <marker id="triton-crosslink-arrow" markerWidth="8" markerHeight="5.6" refX="7" refY="2.8" orient="auto"><polygon points="0 0, 8 2.8, 0 5.6" fill="currentColor" /></marker>
    <marker id="triton-crosslink-arrow-both" markerWidth="8" markerHeight="5.6" refX="1" refY="2.8" orient="auto"><polygon points="8 0, 0 2.8, 8 5.6" fill="currentColor" /></marker>
  </defs>
  <rect x="0" y="0" width="553.2" height="714.3809523809524" fill="#FFFFFF" />
  <text x="24" y="42" font-size="20" font-family="Inter, system-ui, -apple-system, sans-serif" fill="#1E293B" font-weight="bold">Microservices Architecture — Cross-Link Map</text>
  <rect x="24" y="58" width="160" height="358" fill="#FFFFFF" stroke="#CBD5E1" stroke-width="1" rx="6" />
  <rect x="204" y="58" width="325.2" height="358" fill="#FFFFFF" stroke="#CBD5E1" stroke-width="1" rx="6" />
  <rect x="24" y="436" width="160" height="254.3809523809524" fill="#FFFFFF" stroke="#CBD5E1" stroke-width="1" rx="6" />
  <rect x="204" y="436" width="325.2" height="254.3809523809524" fill="#FFFFFF" stroke="#CBD5E1" stroke-width="1" rx="6" />
  <path d="M 306.6 288 L 286.6 288 L 286.6 46 L 29.714285714285715 46 L 29.714285714285715 646.5714285714286 L 49.714285714285715 646.5714285714286" stroke="#E11D48" stroke-width="2" fill="none" stroke-dasharray="8 4" marker-end="url(#triton-crosslink-arrow)">
    <animate attributeName="stroke-dashoffset" from="0" to="-12" dur="0.8s" repeatCount="indefinite"/>
  </path>
  <path d="M 306.6 368 L 262.6 368 L 262.6 561.1904761904763" stroke="#16A34A" stroke-width="2" fill="none" marker-end="url(#triton-crosslink-arrow)" />
  <path d="M 470.6 561.1904761904763 L 470.6 128 L 426.6 128" stroke="#9333EA" stroke-width="2" fill="none" stroke-dasharray="4 3" marker-end="url(#triton-crosslink-arrow)" marker-start="url(#triton-crosslink-arrow-both)" />
  <text x="32" y="73.2" font-size="14" font-family="Inter, system-ui, -apple-system, sans-serif" fill="#1E293B" text-anchor="start" font-weight="bold">UI Layer</text>
  <g transform="translate(28, 135.8095238095238) scale(0.9047619047619048)">
    <g id="app">
      <rect x="24" y="24" width="120" height="40" fill="#F8FAFC" stroke="#CBD5E1" stroke-width="1.5" rx="2" />
      <text x="84" y="48.9" font-size="14" font-family="Inter, system-ui, -apple-system, sans-serif" fill="#1E293B" text-anchor="middle">Mobile App</text>
    </g>
    <g id="bff">
      <rect x="24" y="104" width="120" height="40" fill="#F8FAFC" stroke="#CBD5E1" stroke-width="1.5" rx="2" />
      <text x="84" y="128.9" font-size="14" font-family="Inter, system-ui, -apple-system, sans-serif" fill="#1E293B" text-anchor="middle">BFF</text>
    </g>
    <g id="web">
      <rect x="24" y="184" width="120" height="40" fill="#F8FAFC" stroke="#CBD5E1" stroke-width="1.5" rx="2" />
      <text x="84" y="208.9" font-size="14" font-family="Inter, system-ui, -apple-system, sans-serif" fill="#1E293B" text-anchor="middle">Web App</text>
    </g>
  </g>
  <text x="212" y="73.2" font-size="14" font-family="Inter, system-ui, -apple-system, sans-serif" fill="#1E293B" text-anchor="start" font-weight="bold">API &amp; Orchestration</text>
  <g transform="translate(282.6, 84) scale(1)">
    <g id="gw">
      <rect x="24" y="24" width="120" height="40" fill="#F8FAFC" stroke="#CBD5E1" stroke-width="1.5" rx="2" />
      <text x="84" y="48.9" font-size="14" font-family="Inter, system-ui, -apple-system, sans-serif" fill="#1E293B" text-anchor="middle">API Gateway</text>
    </g>
    <g id="auth">
      <rect x="24" y="104" width="120" height="40" fill="#F8FAFC" stroke="#CBD5E1" stroke-width="1.5" rx="2" />
      <text x="84" y="128.9" font-size="14" font-family="Inter, system-ui, -apple-system, sans-serif" fill="#1E293B" text-anchor="middle">Auth</text>
    </g>
    <g id="catalog">
      <rect x="24" y="184" width="120" height="40" fill="#F8FAFC" stroke="#CBD5E1" stroke-width="1.5" rx="2" />
      <text x="84" y="208.9" font-size="14" font-family="Inter, system-ui, -apple-system, sans-serif" fill="#1E293B" text-anchor="middle">Catalog</text>
    </g>
    <g id="orders">
      <rect x="24" y="264" width="120" height="40" fill="#F8FAFC" stroke="#CBD5E1" stroke-width="1.5" rx="2" />
      <text x="84" y="288.9" font-size="14" font-family="Inter, system-ui, -apple-system, sans-serif" fill="#1E293B" text-anchor="middle">Orders</text>
    </g>
  </g>
  <text x="32" y="451.2" font-size="14" font-family="Inter, system-ui, -apple-system, sans-serif" fill="#1E293B" text-anchor="start" font-weight="bold">Data Stores</text>
  <g transform="translate(28, 462) scale(0.9047619047619048)">
    <g id="pg">
      <rect x="24" y="24" width="120" height="40" fill="#F8FAFC" stroke="#CBD5E1" stroke-width="1.5" rx="2" />
      <text x="84" y="48.9" font-size="14" font-family="Inter, system-ui, -apple-system, sans-serif" fill="#1E293B" text-anchor="middle">Postgres</text>
    </g>
    <g id="replica">
      <rect x="24" y="104" width="120" height="40" fill="#F8FAFC" stroke="#CBD5E1" stroke-width="1.5" rx="2" />
      <text x="84" y="128.9" font-size="14" font-family="Inter, system-ui, -apple-system, sans-serif" fill="#1E293B" text-anchor="middle">Read Replica</text>
    </g>
    <g id="redis">
      <rect x="24" y="184" width="120" height="40" fill="#F8FAFC" stroke="#CBD5E1" stroke-width="1.5" rx="2" />
      <text x="84" y="208.9" font-size="14" font-family="Inter, system-ui, -apple-system, sans-serif" fill="#1E293B" text-anchor="middle">Redis Cache</text>
    </g>
  </g>
  <text x="212" y="451.2" font-size="14" font-family="Inter, system-ui, -apple-system, sans-serif" fill="#1E293B" text-anchor="start" font-weight="bold">Async &amp; Observability</text>
  <g transform="translate(208, 545.5904761904762) scale(0.65)">
    <path d="M 144 44 L 184 44" stroke="#4A90D9" stroke-width="1.5" fill="none" marker-end="url(#triton-arrow)" />
    <path d="M 304 44 L 344 44" stroke="#4A90D9" stroke-width="1.5" fill="none" marker-end="url(#triton-arrow)" />
    <g id="kafka">
      <rect x="24" y="24" width="120" height="40" fill="#F8FAFC" stroke="#CBD5E1" stroke-width="1.5" rx="2" />
      <text x="84" y="48.9" font-size="14" font-family="Inter, system-ui, -apple-system, sans-serif" fill="#1E293B" text-anchor="middle">Kafka</text>
    </g>
    <g id="consumer">
      <rect x="184" y="24" width="120" height="40" fill="#F8FAFC" stroke="#CBD5E1" stroke-width="1.5" rx="2" />
      <text x="244" y="48.9" font-size="14" font-family="Inter, system-ui, -apple-system, sans-serif" fill="#1E293B" text-anchor="middle">Consumer</text>
    </g>
    <g id="metrics">
      <rect x="344" y="24" width="120" height="40" fill="#F8FAFC" stroke="#CBD5E1" stroke-width="1.5" rx="2" />
      <text x="404" y="48.9" font-size="14" font-family="Inter, system-ui, -apple-system, sans-serif" fill="#1E293B" text-anchor="middle">Metrics</text>
    </g>
  </g>
  <text x="158.15714285714287" y="66" font-size="12" font-family="Inter, system-ui, -apple-system, sans-serif" fill="#E11D48" text-anchor="middle" font-weight="bold">cache hit?</text>
  <text x="265.50000000000006" y="366" font-size="12" font-family="Inter, system-ui, -apple-system, sans-serif" fill="#16A34A" text-anchor="middle" font-weight="bold">publishes</text>
  <text x="456" y="126" font-size="12" font-family="Inter, system-ui, -apple-system, sans-serif" fill="#9333EA" text-anchor="middle" font-weight="bold">health</text>
</svg>