<svg xmlns="http://www.w3.org/2000/svg" viewBox="0 0 339.2594 232" width="339.2594" height="232">
  <defs>
    <marker id="struct-arrow" markerWidth="12" markerHeight="12" refX="10" refY="6" orient="auto" markerUnits="userSpaceOnUse"><path d="M0 0 L12 6 L0 12 z" fill="#4A90D9" /></marker>
  </defs>
  <rect x="0" y="0" width="339.2594" height="232" fill="#FFFFFF" />
  <text x="24" y="42" font-size="18" font-family="Inter, system-ui, -apple-system, sans-serif" fill="#1E293B" font-weight="bold">users by field</text>
  <rect x="24" y="56" width="63.032" height="38" fill="#F8FAFC" stroke="#CBD5E1" stroke-width="1.5" rx="3" />
  <text x="55.516" y="79.9" font-size="14" font-family="Inter, system-ui, -apple-system, sans-serif" fill="#64748B" text-anchor="middle" font-weight="bold">name</text>
  <rect x="24" y="94" width="63.032" height="38" fill="#F8FAFC" stroke="#CBD5E1" stroke-width="1.5" rx="3" />
  <text x="55.516" y="117.9" font-size="14" font-family="Inter, system-ui, -apple-system, sans-serif" fill="#64748B" text-anchor="middle" font-weight="bold">email</text>
  <rect x="24" y="132" width="63.032" height="38" fill="#F8FAFC" stroke="#CBD5E1" stroke-width="1.5" rx="3" />
  <text x="55.516" y="155.9" font-size="14" font-family="Inter, system-ui, -apple-system, sans-serif" fill="#64748B" text-anchor="middle" font-weight="bold">phone</text>
  <rect x="24" y="170" width="63.032" height="38" fill="#F8FAFC" stroke="#CBD5E1" stroke-width="1.5" rx="3" />
  <text x="55.516" y="193.9" font-size="14" font-family="Inter, system-ui, -apple-system, sans-serif" fill="#64748B" text-anchor="middle" font-weight="bold">zip</text>
  <path d="M 87.03 75 L 120.03 75" stroke="#4A90D9" stroke-width="1.5" fill="none" marker-end="url(#struct-arrow)" />
  <rect x="123.032" y="60" width="70.3574" height="30" fill="#F8FAFC" stroke="#CBD5E1" stroke-width="1.5" rx="4" />
  <text x="158.2107" y="79.9" font-size="14" font-family="Inter, system-ui, -apple-system, sans-serif" fill="#1E293B" text-anchor="middle" font-weight="bold">alice : 1</text>
  <path d="M 193.39 75 L 220.39 75" stroke="#4A90D9" stroke-width="1.5" fill="none" marker-end="url(#struct-arrow)" />
  <rect x="223.3894" y="60" width="64.9562" height="30" fill="#F8FAFC" stroke="#CBD5E1" stroke-width="1.5" rx="4" />
  <text x="255.8675" y="79.9" font-size="14" font-family="Inter, system-ui, -apple-system, sans-serif" fill="#1E293B" text-anchor="middle" font-weight="bold">bob : 2</text>
  <path d="M 87.03 113 L 120.03 113" stroke="#4A90D9" stroke-width="1.5" fill="none" marker-end="url(#struct-arrow)" />
  <rect x="123.032" y="98" width="192.22740000000005" height="30" fill="#F8FAFC" stroke="#CBD5E1" stroke-width="1.5" rx="4" />
  <text x="219.14570000000003" y="117.9" font-size="14" font-family="Inter, system-ui, -apple-system, sans-serif" fill="#1E293B" text-anchor="middle" font-weight="bold">carol : carol@example.com</text>
  <path d="M 87.03 189 L 120.03 189" stroke="#4A90D9" stroke-width="1.5" fill="none" marker-end="url(#struct-arrow)" />
  <rect x="123.032" y="174" width="103.18180000000001" height="30" fill="#F8FAFC" stroke="#CBD5E1" stroke-width="1.5" rx="4" />
  <text x="174.62290000000002" y="193.9" font-size="14" font-family="Inter, system-ui, -apple-system, sans-serif" fill="#1E293B" text-anchor="middle" font-weight="bold">dave : 90210</text>
</svg>