<svg xmlns="http://www.w3.org/2000/svg" viewBox="0 0 296.8858 270" width="296.8858" height="270">
  <defs>
    <marker id="struct-arrow" markerWidth="8" markerHeight="8" refX="7" refY="4" orient="auto"><path d="M0 0 L8 4 L0 8 z" fill="#4A90D9" /></marker>
  </defs>
  <rect x="0" y="0" width="296.8858" height="270" fill="#FFFFFF" />
  <text x="24" y="42" font-size="18" font-family="Inter, system-ui, -apple-system, sans-serif" fill="#1E293B" font-weight="bold">users by hash</text>
  <rect x="24" y="56" width="46" height="38" fill="#F8FAFC" stroke="#CBD5E1" stroke-width="1.5" rx="3" />
  <text x="47" y="79.9" font-size="14" font-family="Inter, system-ui, -apple-system, sans-serif" fill="#64748B" text-anchor="middle" font-weight="bold">0</text>
  <rect x="24" y="94" width="46" height="38" fill="#F8FAFC" stroke="#CBD5E1" stroke-width="1.5" rx="3" />
  <text x="47" y="117.9" font-size="14" font-family="Inter, system-ui, -apple-system, sans-serif" fill="#64748B" text-anchor="middle" font-weight="bold">1</text>
  <rect x="24" y="132" width="46" height="38" fill="#F8FAFC" stroke="#CBD5E1" stroke-width="1.5" rx="3" />
  <text x="47" y="155.9" font-size="14" font-family="Inter, system-ui, -apple-system, sans-serif" fill="#64748B" text-anchor="middle" font-weight="bold">2</text>
  <rect x="24" y="170" width="46" height="38" fill="#F8FAFC" stroke="#CBD5E1" stroke-width="1.5" rx="3" />
  <text x="47" y="193.9" font-size="14" font-family="Inter, system-ui, -apple-system, sans-serif" fill="#64748B" text-anchor="middle" font-weight="bold">3</text>
  <rect x="24" y="208" width="46" height="38" fill="#F8FAFC" stroke="#CBD5E1" stroke-width="1.5" rx="3" />
  <text x="47" y="231.9" font-size="14" font-family="Inter, system-ui, -apple-system, sans-serif" fill="#64748B" text-anchor="middle" font-weight="bold">4</text>
  <path d="M 70 75 L 103 75" stroke="#4A90D9" stroke-width="1.5" fill="none" marker-end="url(#struct-arrow)" />
  <rect x="106" y="60" width="70.3574" height="30" fill="#F8FAFC" stroke="#CBD5E1" stroke-width="1.5" rx="4" />
  <text x="141.1787" y="79.9" font-size="14" font-family="Inter, system-ui, -apple-system, sans-serif" fill="#1E293B" text-anchor="middle" font-weight="bold">alice : 1</text>
  <path d="M 176.36 75 L 203.36 75" stroke="#4A90D9" stroke-width="1.5" fill="none" marker-end="url(#struct-arrow)" />
  <rect x="206.35739999999998" y="60" width="64.9562" height="30" fill="#F8FAFC" stroke="#CBD5E1" stroke-width="1.5" rx="4" />
  <text x="238.83549999999997" y="79.9" font-size="14" font-family="Inter, system-ui, -apple-system, sans-serif" fill="#1E293B" text-anchor="middle" font-weight="bold">bob : 2</text>
  <path d="M 70 151 L 103 151" stroke="#4A90D9" stroke-width="1.5" fill="none" marker-end="url(#struct-arrow)" />
  <rect x="106" y="136" width="71.9296" height="30" fill="#F8FAFC" stroke="#CBD5E1" stroke-width="1.5" rx="4" />
  <text x="141.9648" y="155.9" font-size="14" font-family="Inter, system-ui, -apple-system, sans-serif" fill="#1E293B" text-anchor="middle" font-weight="bold">carol : 3</text>
  <path d="M 70 189 L 103 189" stroke="#4A90D9" stroke-width="1.5" fill="none" marker-end="url(#struct-arrow)" />
  <rect x="106" y="174" width="71.9562" height="30" fill="#F8FAFC" stroke="#CBD5E1" stroke-width="1.5" rx="4" />
  <text x="141.97809999999998" y="193.9" font-size="14" font-family="Inter, system-ui, -apple-system, sans-serif" fill="#1E293B" text-anchor="middle" font-weight="bold">dave : 4</text>
  <path d="M 177.96 189 L 204.96 189" stroke="#4A90D9" stroke-width="1.5" fill="none" marker-end="url(#struct-arrow)" />
  <rect x="207.9562" y="174" width="64.9296" height="30" fill="#F8FAFC" stroke="#CBD5E1" stroke-width="1.5" rx="4" />
  <text x="240.421" y="193.9" font-size="14" font-family="Inter, system-ui, -apple-system, sans-serif" fill="#1E293B" text-anchor="middle" font-weight="bold">erin : 5</text>
</svg>