<svg xmlns="http://www.w3.org/2000/svg" viewBox="0 0 896.44137 804.7279907084785" width="896.44137" height="804.7279907084785">
  <defs>
    <marker id="struct-arrow" markerWidth="8" markerHeight="8" refX="7" refY="4" orient="auto"><path d="M0 0 L8 4 L0 8 z" fill="#4A90D9" /></marker>
    <marker id="queue-arrow-fwd" markerWidth="9" markerHeight="9" refX="7" refY="4" orient="auto"><path d="M0 0 L8 4 L0 8 z" fill="#4A90D9" /></marker><marker id="queue-arrow-rev" markerWidth="9" markerHeight="9" refX="2" refY="4" orient="auto"><path d="M8 0 L0 4 L8 8 z" fill="#4A90D9" /></marker>
    <marker id="struct-arrow" markerWidth="8" markerHeight="8" refX="7" refY="4" orient="auto"><path d="M0 0 L8 4 L0 8 z" fill="#64748B" /></marker>
  </defs>
  <rect x="0" y="0" width="896.44137" height="804.7279907084785" fill="#FFFFFF" />
  <text x="24" y="42" font-size="20" font-family="Inter, system-ui, -apple-system, sans-serif" fill="#1E293B" font-weight="bold">Data Structures</text>
  <rect x="24" y="58" width="200.97577" height="261.92799070847855" fill="#FFFFFF" stroke="#CBD5E1" stroke-width="1" rx="6" />
  <rect x="244.97577" y="58" width="160" height="261.92799070847855" fill="#FFFFFF" stroke="#CBD5E1" stroke-width="1" rx="6" />
  <rect x="424.97577" y="58" width="256.716" height="261.92799070847855" fill="#FFFFFF" stroke="#CBD5E1" stroke-width="1" rx="6" />
  <rect x="701.69177" y="58" width="170.74960000000002" height="261.92799070847855" fill="#FFFFFF" stroke="#CBD5E1" stroke-width="1" rx="6" />
  <rect x="24" y="339.92799070847855" width="200.97577" height="174.8" fill="#FFFFFF" stroke="#CBD5E1" stroke-width="1" rx="6" />
  <rect x="244.97577" y="339.92799070847855" width="160" height="174.8" fill="#FFFFFF" stroke="#CBD5E1" stroke-width="1" rx="6" />
  <rect x="424.97577" y="339.92799070847855" width="256.716" height="440.8" fill="#FFFFFF" stroke="#CBD5E1" stroke-width="1" rx="6" />
  <rect x="701.69177" y="339.92799070847855" width="170.74960000000002" height="440.8" fill="#FFFFFF" stroke="#CBD5E1" stroke-width="1" rx="6" />
  <rect x="24" y="534.7279907084785" width="380.97577" height="246" fill="#FFFFFF" stroke="#CBD5E1" stroke-width="1" rx="6" />
  <text x="32" y="73.2" font-size="14" font-family="Inter, system-ui, -apple-system, sans-serif" fill="#1E293B" text-anchor="start" font-weight="bold">Array</text>
  <g transform="translate(28, 165.72635874133604) scale(0.7781281048387098)">
    <rect x="24" y="24" width="40" height="40" fill="#F8FAFC" stroke="#CBD5E1" stroke-width="1.5" rx="3" />
    <text x="44" y="49" font-size="14" font-family="Inter, system-ui, -apple-system, sans-serif" fill="#1E293B" text-anchor="middle" font-weight="bold">5</text>
    <rect x="64" y="24" width="40" height="40" fill="#F8FAFC" stroke="#CBD5E1" stroke-width="1.5" rx="3" />
    <text x="84" y="49" font-size="14" font-family="Inter, system-ui, -apple-system, sans-serif" fill="#1E293B" text-anchor="middle" font-weight="bold">8</text>
    <rect x="104" y="24" width="40" height="40" fill="#F8FAFC" stroke="#CBD5E1" stroke-width="1.5" rx="3" />
    <text x="124" y="49" font-size="14" font-family="Inter, system-ui, -apple-system, sans-serif" fill="#1E293B" text-anchor="middle" font-weight="bold">13</text>
    <rect x="144" y="24" width="40" height="40" fill="#F8FAFC" stroke="#CBD5E1" stroke-width="1.5" rx="3" />
    <text x="164" y="49" font-size="14" font-family="Inter, system-ui, -apple-system, sans-serif" fill="#1E293B" text-anchor="middle" font-weight="bold">21</text>
    <rect x="184" y="24" width="40" height="40" fill="#F8FAFC" stroke="#CBD5E1" stroke-width="1.5" rx="3" />
    <text x="204" y="49" font-size="14" font-family="Inter, system-ui, -apple-system, sans-serif" fill="#1E293B" text-anchor="middle" font-weight="bold">34</text>
  </g>
  <text x="252.97577" y="73.2" font-size="14" font-family="Inter, system-ui, -apple-system, sans-serif" fill="#1E293B" text-anchor="start" font-weight="bold">Stack</text>
  <g transform="translate(248.97577, 84) scale(0.8826945412311267)">
    <rect x="82" y="48.75" width="66.199" height="38" fill="#FFFFFF" stroke="#CBD5E1" stroke-width="1.5" rx="3" />
    <rect x="82" y="86.75" width="66.199" height="38" fill="#FFFFFF" stroke="#CBD5E1" stroke-width="1.5" rx="3" />
    <rect x="82" y="124.75" width="66.199" height="38" fill="#F8FAFC" stroke="#CBD5E1" stroke-width="1.5" rx="3" />
    <text x="115.1" y="148.75" font-size="14" font-family="Inter, system-ui, -apple-system, sans-serif" fill="#1E293B" text-anchor="middle" font-weight="bold">layout</text>
    <rect x="82" y="162.75" width="66.199" height="38" fill="#F8FAFC" stroke="#CBD5E1" stroke-width="1.5" rx="3" />
    <text x="115.1" y="186.75" font-size="14" font-family="Inter, system-ui, -apple-system, sans-serif" fill="#1E293B" text-anchor="middle" font-weight="bold">parse</text>
    <rect x="82" y="200.75" width="66.199" height="38" fill="#F8FAFC" stroke="#CBD5E1" stroke-width="1.5" rx="3" />
    <text x="115.1" y="224.75" font-size="14" font-family="Inter, system-ui, -apple-system, sans-serif" fill="#1E293B" text-anchor="middle" font-weight="bold">main</text>
    <text x="115.1" y="39.75" font-size="14" font-family="Inter, system-ui, -apple-system, sans-serif" fill="#4A90D9" text-anchor="middle" font-weight="bold">push / pop</text>
    <path d="M 115.1 24.75 L 115.1 48.75" stroke="#4A90D9" stroke-width="1.5" fill="none" marker-end="url(#struct-arrow)" />
    <path d="M 26 143.75 L 82 143.75" stroke="#7C3AED" stroke-width="1.5" fill="none" marker-end="url(#struct-arrow)" />
    <text x="24" y="137.75" font-size="14" font-family="Inter, system-ui, -apple-system, sans-serif" fill="#7C3AED" text-anchor="start" font-weight="bold">top</text>
  </g>
  <text x="432.97577" y="73.2" font-size="14" font-family="Inter, system-ui, -apple-system, sans-serif" fill="#1E293B" text-anchor="start" font-weight="bold">Queue</text>
  <g transform="translate(428.97577, 145.52649535423927) scale(0.65)">
    <rect x="76.32" y="46" width="46" height="40" fill="#F8FAFC" stroke="#CBD5E1" stroke-width="1.5" rx="3" />
    <text x="99.32" y="71" font-size="14" font-family="Inter, system-ui, -apple-system, sans-serif" fill="#1E293B" text-anchor="middle" font-weight="bold">A</text>
    <rect x="122.32" y="46" width="46" height="40" fill="#F8FAFC" stroke="#CBD5E1" stroke-width="1.5" rx="3" />
    <text x="145.32" y="71" font-size="14" font-family="Inter, system-ui, -apple-system, sans-serif" fill="#1E293B" text-anchor="middle" font-weight="bold">B</text>
    <rect x="168.32" y="46" width="46" height="40" fill="#F8FAFC" stroke="#CBD5E1" stroke-width="1.5" rx="3" />
    <text x="191.32" y="71" font-size="14" font-family="Inter, system-ui, -apple-system, sans-serif" fill="#1E293B" text-anchor="middle" font-weight="bold">C</text>
    <rect x="214.32" y="46" width="46" height="40" fill="#FFFFFF" stroke="#CBD5E1" stroke-width="1.5" rx="3" />
    <rect x="260.32" y="46" width="46" height="40" fill="#FFFFFF" stroke="#CBD5E1" stroke-width="1.5" rx="3" />
    <path d="M 76.32 66 L 26.32 66" stroke="#4A90D9" stroke-width="1.5" fill="none" marker-end="url(#queue-arrow-fwd)" />
    <text x="51.32" y="38" font-size="14" font-family="Inter, system-ui, -apple-system, sans-serif" fill="#4A90D9" text-anchor="middle" font-weight="bold">dequeue</text>
    <path d="M 356.32 66 L 306.32 66" stroke="#4A90D9" stroke-width="1.5" fill="none" marker-end="url(#queue-arrow-fwd)" />
    <text x="331.32" y="38" font-size="14" font-family="Inter, system-ui, -apple-system, sans-serif" fill="#4A90D9" text-anchor="middle" font-weight="bold">enqueue</text>
    <path d="M 99.32 120 L 99.32 90" stroke="#7C3AED" stroke-width="1.5" fill="none" marker-end="url(#queue-arrow-fwd)" />
    <text x="99.32" y="140" font-size="14" font-family="Inter, system-ui, -apple-system, sans-serif" fill="#7C3AED" text-anchor="middle" font-weight="bold">front</text>
    <path d="M 191.32 120 L 191.32 90" stroke="#4A90D9" stroke-width="1.5" fill="none" marker-end="url(#queue-arrow-fwd)" />
    <text x="191.32" y="140" font-size="14" font-family="Inter, system-ui, -apple-system, sans-serif" fill="#4A90D9" text-anchor="middle" font-weight="bold">rear</text>
  </g>
  <text x="709.69177" y="73.2" font-size="14" font-family="Inter, system-ui, -apple-system, sans-serif" fill="#1E293B" text-anchor="start" font-weight="bold">Union-Find</text>
  <g transform="translate(705.69177, 101.60662839771753) scale(0.7076069565217392)">
    <path d="M 45 66 L 45 118" stroke="#64748B" stroke-width="1.5" fill="none" />
    <path d="M 45 160 L 45 212" stroke="#64748B" stroke-width="1.5" fill="none" />
    <path d="M 115 66 L 115 118" stroke="#64748B" stroke-width="1.5" fill="none" />
    <circle cx="45" cy="45" r="21" fill="#4A90D9" stroke="#4A90D9" stroke-width="2" />
    <text x="45" y="49.9" font-size="14" font-family="Inter, system-ui, -apple-system, sans-serif" fill="#ffffff" text-anchor="middle" font-weight="bold">0</text>
    <circle cx="45" cy="139" r="21" fill="#F8FAFC" stroke="#4A90D9" stroke-width="2" />
    <text x="45" y="143.9" font-size="14" font-family="Inter, system-ui, -apple-system, sans-serif" fill="#1E293B" text-anchor="middle" font-weight="bold">1</text>
    <circle cx="45" cy="233" r="21" fill="#F8FAFC" stroke="#4A90D9" stroke-width="2" />
    <text x="45" y="237.9" font-size="14" font-family="Inter, system-ui, -apple-system, sans-serif" fill="#1E293B" text-anchor="middle" font-weight="bold">2</text>
    <circle cx="115" cy="45" r="21" fill="#4A90D9" stroke="#4A90D9" stroke-width="2" />
    <text x="115" y="49.9" font-size="14" font-family="Inter, system-ui, -apple-system, sans-serif" fill="#ffffff" text-anchor="middle" font-weight="bold">3</text>
    <circle cx="115" cy="139" r="21" fill="#F8FAFC" stroke="#4A90D9" stroke-width="2" />
    <text x="115" y="143.9" font-size="14" font-family="Inter, system-ui, -apple-system, sans-serif" fill="#1E293B" text-anchor="middle" font-weight="bold">4</text>
    <circle cx="185" cy="45" r="21" fill="#4A90D9" stroke="#4A90D9" stroke-width="2" />
    <text x="185" y="49.9" font-size="14" font-family="Inter, system-ui, -apple-system, sans-serif" fill="#ffffff" text-anchor="middle" font-weight="bold">5</text>
  </g>
  <text x="32" y="355.12799070847853" font-size="14" font-family="Inter, system-ui, -apple-system, sans-serif" fill="#1E293B" text-anchor="start" font-weight="bold">Hash map</text>
  <g transform="translate(28, 373.3279907084785) scale(0.65)">
    <rect x="24" y="24" width="46" height="38" fill="#F8FAFC" stroke="#CBD5E1" stroke-width="1.5" rx="3" />
    <text x="47" y="47.9" font-size="14" font-family="Inter, system-ui, -apple-system, sans-serif" fill="#64748B" text-anchor="middle" font-weight="bold">0</text>
    <rect x="24" y="62" width="46" height="38" fill="#F8FAFC" stroke="#CBD5E1" stroke-width="1.5" rx="3" />
    <text x="47" y="85.9" font-size="14" font-family="Inter, system-ui, -apple-system, sans-serif" fill="#64748B" text-anchor="middle" font-weight="bold">1</text>
    <rect x="24" y="100" width="46" height="38" fill="#F8FAFC" stroke="#CBD5E1" stroke-width="1.5" rx="3" />
    <text x="47" y="123.9" font-size="14" font-family="Inter, system-ui, -apple-system, sans-serif" fill="#64748B" text-anchor="middle" font-weight="bold">2</text>
    <rect x="24" y="138" width="46" height="38" fill="#F8FAFC" stroke="#CBD5E1" stroke-width="1.5" rx="3" />
    <text x="47" y="161.9" font-size="14" font-family="Inter, system-ui, -apple-system, sans-serif" fill="#64748B" text-anchor="middle" font-weight="bold">3</text>
    <path d="M 70 43 L 103 43" stroke="#4A90D9" stroke-width="1.5" fill="none" marker-end="url(#struct-arrow)" />
    <rect x="106" y="28" width="70.3574" height="30" fill="#F8FAFC" stroke="#CBD5E1" stroke-width="1.5" rx="4" />
    <text x="141.1787" y="47.9" font-size="14" font-family="Inter, system-ui, -apple-system, sans-serif" fill="#1E293B" text-anchor="middle" font-weight="bold">alice : 1</text>
    <path d="M 70 119 L 103 119" stroke="#4A90D9" stroke-width="1.5" fill="none" marker-end="url(#struct-arrow)" />
    <rect x="106" y="104" width="71.9296" height="30" fill="#F8FAFC" stroke="#CBD5E1" stroke-width="1.5" rx="4" />
    <text x="141.9648" y="123.9" font-size="14" font-family="Inter, system-ui, -apple-system, sans-serif" fill="#1E293B" text-anchor="middle" font-weight="bold">carol : 3</text>
    <path d="M 70 157 L 103 157" stroke="#4A90D9" stroke-width="1.5" fill="none" marker-end="url(#struct-arrow)" />
    <rect x="106" y="142" width="71.9562" height="30" fill="#F8FAFC" stroke="#CBD5E1" stroke-width="1.5" rx="4" />
    <text x="141.97809999999998" y="161.9" font-size="14" font-family="Inter, system-ui, -apple-system, sans-serif" fill="#1E293B" text-anchor="middle" font-weight="bold">dave : 4</text>
    <path d="M 177.96 157 L 204.96 157" stroke="#4A90D9" stroke-width="1.5" fill="none" marker-end="url(#struct-arrow)" />
    <rect x="207.9562" y="142" width="64.9296" height="30" fill="#F8FAFC" stroke="#CBD5E1" stroke-width="1.5" rx="4" />
    <text x="240.421" y="161.9" font-size="14" font-family="Inter, system-ui, -apple-system, sans-serif" fill="#1E293B" text-anchor="middle" font-weight="bold">erin : 5</text>
  </g>
  <text x="252.97577" y="355.12799070847853" font-size="14" font-family="Inter, system-ui, -apple-system, sans-serif" fill="#1E293B" text-anchor="start" font-weight="bold">Matrix</text>
  <g transform="translate(248.97577, 365.92799070847855) scale(0.8)">
    <rect x="46" y="43" width="40" height="38" fill="#F8FAFC" stroke="#CBD5E1" stroke-width="1.5" rx="3" />
    <text x="66" y="67" font-size="14" font-family="Inter, system-ui, -apple-system, sans-serif" fill="#1E293B" text-anchor="middle" font-weight="bold">1</text>
    <rect x="86" y="43" width="40" height="38" fill="#F8FAFC" stroke="#CBD5E1" stroke-width="1.5" rx="3" />
    <text x="106" y="67" font-size="14" font-family="Inter, system-ui, -apple-system, sans-serif" fill="#1E293B" text-anchor="middle" font-weight="bold">2</text>
    <rect x="126" y="43" width="40" height="38" fill="#F8FAFC" stroke="#CBD5E1" stroke-width="1.5" rx="3" />
    <text x="146" y="67" font-size="14" font-family="Inter, system-ui, -apple-system, sans-serif" fill="#1E293B" text-anchor="middle" font-weight="bold">3</text>
    <text x="39" y="66.9" font-size="11" font-family="Inter, system-ui, -apple-system, sans-serif" fill="#64748B" text-anchor="end">0</text>
    <rect x="46" y="81" width="40" height="38" fill="#F8FAFC" stroke="#CBD5E1" stroke-width="1.5" rx="3" />
    <text x="66" y="105" font-size="14" font-family="Inter, system-ui, -apple-system, sans-serif" fill="#1E293B" text-anchor="middle" font-weight="bold">4</text>
    <rect x="86" y="81" width="40" height="38" fill="#F8FAFC" stroke="#CBD5E1" stroke-width="1.5" rx="3" />
    <text x="106" y="105" font-size="14" font-family="Inter, system-ui, -apple-system, sans-serif" fill="#1E293B" text-anchor="middle" font-weight="bold">5</text>
    <rect x="126" y="81" width="40" height="38" fill="#F8FAFC" stroke="#CBD5E1" stroke-width="1.5" rx="3" />
    <text x="146" y="105" font-size="14" font-family="Inter, system-ui, -apple-system, sans-serif" fill="#1E293B" text-anchor="middle" font-weight="bold">6</text>
    <text x="39" y="104.9" font-size="11" font-family="Inter, system-ui, -apple-system, sans-serif" fill="#64748B" text-anchor="end">1</text>
    <rect x="46" y="119" width="40" height="38" fill="#F8FAFC" stroke="#CBD5E1" stroke-width="1.5" rx="3" />
    <text x="66" y="143" font-size="14" font-family="Inter, system-ui, -apple-system, sans-serif" fill="#1E293B" text-anchor="middle" font-weight="bold">7</text>
    <rect x="86" y="119" width="40" height="38" fill="#F8FAFC" stroke="#CBD5E1" stroke-width="1.5" rx="3" />
    <text x="106" y="143" font-size="14" font-family="Inter, system-ui, -apple-system, sans-serif" fill="#1E293B" text-anchor="middle" font-weight="bold">8</text>
    <rect x="126" y="119" width="40" height="38" fill="#F8FAFC" stroke="#CBD5E1" stroke-width="1.5" rx="3" />
    <text x="146" y="143" font-size="14" font-family="Inter, system-ui, -apple-system, sans-serif" fill="#1E293B" text-anchor="middle" font-weight="bold">9</text>
    <text x="39" y="142.9" font-size="11" font-family="Inter, system-ui, -apple-system, sans-serif" fill="#64748B" text-anchor="end">2</text>
    <text x="66" y="37" font-size="11" font-family="Inter, system-ui, -apple-system, sans-serif" fill="#64748B" text-anchor="middle">0</text>
    <text x="106" y="37" font-size="11" font-family="Inter, system-ui, -apple-system, sans-serif" fill="#64748B" text-anchor="middle">1</text>
    <text x="146" y="37" font-size="11" font-family="Inter, system-ui, -apple-system, sans-serif" fill="#64748B" text-anchor="middle">2</text>
  </g>
  <text x="432.97577" y="355.12799070847853" font-size="14" font-family="Inter, system-ui, -apple-system, sans-serif" fill="#1E293B" text-anchor="start" font-weight="bold">Max-heap</text>
  <g transform="translate(438.33377, 432.3279907084785) scale(1)">
    <path d="M 107.18 66 L 87.82 118" stroke="#64748B" stroke-width="1.5" fill="none" />
    <path d="M 130.64 66 L 169.36 118" stroke="#64748B" stroke-width="1.5" fill="none" />
    <path d="M 72.18 160 L 52.82 212" stroke="#64748B" stroke-width="1.5" fill="none" />
    <path d="M 87.82 160 L 107.18 212" stroke="#64748B" stroke-width="1.5" fill="none" />
    <path d="M 185 160 L 185 212" stroke="#64748B" stroke-width="1.5" fill="none" />
    <circle cx="115" cy="45" r="21" fill="#F8FAFC" stroke="#4A90D9" stroke-width="2" />
    <text x="115" y="49.9" font-size="14" font-family="Inter, system-ui, -apple-system, sans-serif" fill="#1E293B" text-anchor="middle" font-weight="bold">70</text>
    <circle cx="80" cy="139" r="21" fill="#F8FAFC" stroke="#4A90D9" stroke-width="2" />
    <text x="80" y="143.9" font-size="14" font-family="Inter, system-ui, -apple-system, sans-serif" fill="#1E293B" text-anchor="middle" font-weight="bold">40</text>
    <circle cx="45" cy="233" r="21" fill="#F8FAFC" stroke="#4A90D9" stroke-width="2" />
    <text x="45" y="237.9" font-size="14" font-family="Inter, system-ui, -apple-system, sans-serif" fill="#1E293B" text-anchor="middle" font-weight="bold">20</text>
    <circle cx="115" cy="233" r="21" fill="#F8FAFC" stroke="#4A90D9" stroke-width="2" />
    <text x="115" y="237.9" font-size="14" font-family="Inter, system-ui, -apple-system, sans-serif" fill="#1E293B" text-anchor="middle" font-weight="bold">30</text>
    <circle cx="185" cy="139" r="21" fill="#F8FAFC" stroke="#4A90D9" stroke-width="2" />
    <text x="185" y="143.9" font-size="14" font-family="Inter, system-ui, -apple-system, sans-serif" fill="#1E293B" text-anchor="middle" font-weight="bold">60</text>
    <circle cx="185" cy="233" r="21" fill="#F8FAFC" stroke="#4A90D9" stroke-width="2" />
    <text x="185" y="237.9" font-size="14" font-family="Inter, system-ui, -apple-system, sans-serif" fill="#1E293B" text-anchor="middle" font-weight="bold">50</text>
  </g>
  <text x="709.69177" y="355.12799070847853" font-size="14" font-family="Inter, system-ui, -apple-system, sans-serif" fill="#1E293B" text-anchor="start" font-weight="bold">Trie</text>
  <g transform="translate(705.69177, 454.3279907084785) scale(0.65)">
    <path d="M 116.32 66 L 94.35 118" stroke="#64748B" stroke-width="1.5" fill="none" />
    <rect x="98.5872" y="83" width="13.5" height="16" fill="#FFFFFF" stroke="#FFFFFF" stroke-width="0" rx="3" />
    <text x="105.3372" y="95" font-size="11" font-family="Inter, system-ui, -apple-system, sans-serif" fill="#4A90D9" text-anchor="middle" font-weight="bold">c</text>
    <path d="M 142.06 66 L 183.81 118" stroke="#64748B" stroke-width="1.5" fill="none" />
    <rect x="155.8664" y="83" width="14.1336" height="16" fill="#FFFFFF" stroke="#FFFFFF" stroke-width="0" rx="3" />
    <text x="162.9332" y="95" font-size="11" font-family="Inter, system-ui, -apple-system, sans-serif" fill="#4A90D9" text-anchor="middle" font-weight="bold">d</text>
    <path d="M 85.48 160 L 85.48 212" stroke="#64748B" stroke-width="1.5" fill="none" />
    <rect x="78.4156" y="177" width="14.1336" height="16" fill="#FFFFFF" stroke="#FFFFFF" stroke-width="0" rx="3" />
    <text x="85.4824" y="189" font-size="11" font-family="Inter, system-ui, -apple-system, sans-serif" fill="#4A90D9" text-anchor="middle" font-weight="bold">a</text>
    <path d="M 76.48 254 L 54.17 306" stroke="#64748B" stroke-width="1.5" fill="none" />
    <rect x="59.48816818181818" y="271" width="11.674" height="16" fill="#FFFFFF" stroke="#FFFFFF" stroke-width="0" rx="3" />
    <text x="65.32516818181819" y="283" font-size="11" font-family="Inter, system-ui, -apple-system, sans-serif" fill="#4A90D9" text-anchor="middle" font-weight="bold">t</text>
    <path d="M 94.49 254 L 116.79 306" stroke="#64748B" stroke-width="1.5" fill="none" />
    <rect x="99.80263181818181" y="271" width="11.674" height="16" fill="#FFFFFF" stroke="#FFFFFF" stroke-width="0" rx="3" />
    <text x="105.63963181818181" y="283" font-size="11" font-family="Inter, system-ui, -apple-system, sans-serif" fill="#4A90D9" text-anchor="middle" font-weight="bold">r</text>
    <path d="M 200.67 160 L 200.67 212" stroke="#64748B" stroke-width="1.5" fill="none" />
    <rect x="193.6076" y="177" width="14.1336" height="16" fill="#FFFFFF" stroke="#FFFFFF" stroke-width="0" rx="3" />
    <text x="200.6744" y="189" font-size="11" font-family="Inter, system-ui, -apple-system, sans-serif" fill="#4A90D9" text-anchor="middle" font-weight="bold">o</text>
    <path d="M 200.67 254 L 200.67 306" stroke="#64748B" stroke-width="1.5" fill="none" />
    <rect x="193.6076" y="271" width="14.1336" height="16" fill="#FFFFFF" stroke="#FFFFFF" stroke-width="0" rx="3" />
    <text x="200.6744" y="283" font-size="11" font-family="Inter, system-ui, -apple-system, sans-serif" fill="#4A90D9" text-anchor="middle" font-weight="bold">g</text>
    <circle cx="125.19200000000001" cy="45" r="21" fill="#F8FAFC" stroke="#4A90D9" stroke-width="2" />
    <text x="125.19200000000001" y="49.9" font-size="14" font-family="Inter, system-ui, -apple-system, sans-serif" fill="#1E293B" text-anchor="middle" font-weight="bold"></text>
    <circle cx="85.4824" cy="139" r="21" fill="#F8FAFC" stroke="#4A90D9" stroke-width="2" />
    <text x="85.4824" y="143.9" font-size="14" font-family="Inter, system-ui, -apple-system, sans-serif" fill="#1E293B" text-anchor="middle" font-weight="bold"></text>
    <circle cx="85.4824" cy="233" r="21" fill="#F8FAFC" stroke="#4A90D9" stroke-width="2" />
    <text x="85.4824" y="237.9" font-size="14" font-family="Inter, system-ui, -apple-system, sans-serif" fill="#1E293B" text-anchor="middle" font-weight="bold"></text>
    <rect x="24" y="306" width="47.4824" height="30" fill="#4A90D9" stroke="#4A90D9" stroke-width="2" rx="15" />
    <text x="47.7412" y="325.9" font-size="14" font-family="Inter, system-ui, -apple-system, sans-serif" fill="#ffffff" text-anchor="middle" font-weight="bold">cat</text>
    <rect x="99.48240000000001" y="306" width="47.4824" height="30" fill="#4A90D9" stroke="#4A90D9" stroke-width="2" rx="15" />
    <text x="123.2236" y="325.9" font-size="14" font-family="Inter, system-ui, -apple-system, sans-serif" fill="#ffffff" text-anchor="middle" font-weight="bold">car</text>
    <circle cx="200.6744" cy="139" r="21" fill="#F8FAFC" stroke="#4A90D9" stroke-width="2" />
    <text x="200.6744" y="143.9" font-size="14" font-family="Inter, system-ui, -apple-system, sans-serif" fill="#1E293B" text-anchor="middle" font-weight="bold"></text>
    <circle cx="200.6744" cy="233" r="21" fill="#F8FAFC" stroke="#4A90D9" stroke-width="2" />
    <text x="200.6744" y="237.9" font-size="14" font-family="Inter, system-ui, -apple-system, sans-serif" fill="#1E293B" text-anchor="middle" font-weight="bold"></text>
    <rect x="174.9648" y="306" width="51.419200000000004" height="30" fill="#4A90D9" stroke="#4A90D9" stroke-width="2" rx="15" />
    <text x="200.6744" y="325.9" font-size="14" font-family="Inter, system-ui, -apple-system, sans-serif" fill="#ffffff" text-anchor="middle" font-weight="bold">dog</text>
  </g>
  <text x="32" y="549.9279907084785" font-size="14" font-family="Inter, system-ui, -apple-system, sans-serif" fill="#1E293B" text-anchor="start" font-weight="bold">Graph</text>
  <g transform="translate(146.487885, 560.7279907084785) scale(1)">
    <path d="M 56 64 L 56 128" stroke="#64748B" stroke-width="1.5" fill="none" marker-end="url(#struct-arrow)" />
    <rect x="48.94365" y="87" width="14.1127" height="16" fill="#FFFFFF" stroke="#FFFFFF" stroke-width="0" rx="3" />
    <text x="56" y="99" font-size="11" font-family="Inter, system-ui, -apple-system, sans-serif" fill="#4A90D9" text-anchor="middle" font-weight="bold">ir</text>
    <rect x="24" y="24" width="64" height="40" fill="#F8FAFC" stroke="#4A90D9" stroke-width="2" rx="8" />
    <text x="56" y="48.9" font-size="14" font-family="Inter, system-ui, -apple-system, sans-serif" fill="#1E293B" text-anchor="middle" font-weight="bold">parse</text>
    <rect x="24" y="128" width="64" height="40" fill="#F8FAFC" stroke="#4A90D9" stroke-width="2" rx="8" />
    <text x="56" y="152.9" font-size="14" font-family="Inter, system-ui, -apple-system, sans-serif" fill="#1E293B" text-anchor="middle" font-weight="bold">emit</text>
  </g>
</svg>