<svg xmlns="http://www.w3.org/2000/svg" viewBox="0 0 670.39664 716.1717391304348" width="670.39664" height="716.1717391304348">
  <defs>
    <marker id="struct-arrow" markerWidth="8" markerHeight="8" refX="7" refY="4" orient="auto"><path d="M0 0 L8 4 L0 8 z" fill="#4A90D9" /></marker>
  </defs>
  <rect x="0" y="0" width="670.39664" height="716.1717391304348" fill="#FFFFFF" />
  <text x="24" y="42" font-size="20" font-family="Inter, system-ui, -apple-system, sans-serif" fill="#1E293B" font-weight="bold">Cell Spanning</text>
  <rect x="24" y="58" width="622.39664" height="193.15" fill="#FFFFFF" stroke="#CBD5E1" stroke-width="1" rx="6" />
  <rect x="24" y="271.15" width="442.39664000000005" height="187.3" fill="#FFFFFF" stroke="#CBD5E1" stroke-width="1" rx="6" />
  <rect x="486.39664000000005" y="271.15" width="160" height="187.3" fill="#FFFFFF" stroke="#CBD5E1" stroke-width="1" rx="6" />
  <rect x="24" y="478.45000000000005" width="169.20000000000002" height="213.72173913043477" fill="#FFFFFF" stroke="#CBD5E1" stroke-width="1" rx="6" />
  <rect x="213.20000000000002" y="478.45000000000005" width="253.19664" height="213.72173913043477" fill="#FFFFFF" stroke="#CBD5E1" stroke-width="1" rx="6" />
  <rect x="486.39664000000005" y="478.45000000000005" width="160" height="213.72173913043477" fill="#FFFFFF" stroke="#CBD5E1" stroke-width="1" rx="6" />
  <text x="32" y="73.2" font-size="14" font-family="Inter, system-ui, -apple-system, sans-serif" fill="#1E293B" text-anchor="start" font-weight="bold">Query plan — spans all 3 columns</text>
  <g transform="translate(213.71390500000004, 84) scale(0.65)">
    <path d="M 167.99 57 L 108.4 109" stroke="#64748B" stroke-width="1.5" fill="none" />
    <path d="M 202.33 57 L 252.37 110.5" stroke="#64748B" stroke-width="1.5" fill="none" />
    <path d="M 266.39 140.5 L 266.39 194" stroke="#64748B" stroke-width="1.5" fill="none" />
    <rect x="141.72039999999998" y="24" width="90.35739999999998" height="33" fill="#F8FAFC" stroke="#9b51e0" stroke-width="2" rx="8" />
    <text x="186.89909999999998" y="42" font-size="14" font-family="Inter, system-ui, -apple-system, sans-serif" fill="#1E293B" text-anchor="middle" font-weight="bold">Hash Join</text>
    <text x="186.89909999999998" y="55" font-size="11" font-family="Inter, system-ui, -apple-system, sans-serif" fill="#64748B" text-anchor="middle">rows: 980</text>
    <rect x="24" y="109" width="130.9896" height="33" fill="#F8FAFC" stroke="#2f80ed" stroke-width="2" rx="8" />
    <text x="89.4948" y="127" font-size="14" font-family="Inter, system-ui, -apple-system, sans-serif" fill="#1E293B" text-anchor="middle" font-weight="bold">Seq Scan orders</text>
    <text x="89.4948" y="140" font-size="11" font-family="Inter, system-ui, -apple-system, sans-serif" fill="#64748B" text-anchor="middle">rows: 10000</text>
    <rect x="236.02859999999998" y="110.5" width="60.730599999999995" height="30" fill="#F8FAFC" stroke="#64748B" stroke-width="2" rx="8" />
    <text x="266.3939" y="130.4" font-size="14" font-family="Inter, system-ui, -apple-system, sans-serif" fill="#1E293B" text-anchor="middle" font-weight="bold">Hash</text>
    <rect x="182.9896" y="194" width="166.80859999999998" height="33" fill="#F8FAFC" stroke="#2f80ed" stroke-width="2" rx="8" />
    <text x="266.3939" y="212" font-size="14" font-family="Inter, system-ui, -apple-system, sans-serif" fill="#1E293B" text-anchor="middle" font-weight="bold">Index Scan customers</text>
    <text x="266.3939" y="225" font-size="11" font-family="Inter, system-ui, -apple-system, sans-serif" fill="#64748B" text-anchor="middle">idx: idx_cust</text>
  </g>
  <text x="32" y="286.34999999999997" font-size="14" font-family="Inter, system-ui, -apple-system, sans-serif" fill="#1E293B" text-anchor="start" font-weight="bold">B+tree index — spans 2 columns</text>
  <g transform="translate(147.04832000000002, 297.15) scale(0.65)">
    <path d="M 139.66 54 L 100.34 106" stroke="#64748B" stroke-width="1.5" fill="none" />
    <path d="M 165.45 54 L 215.55 106" stroke="#64748B" stroke-width="1.5" fill="none" />
    <path d="M 80.22 136 L 49.78 188" stroke="#64748B" stroke-width="1.5" fill="none" />
    <path d="M 94.67 136 L 114.33 188" stroke="#64748B" stroke-width="1.5" fill="none" />
    <path d="M 224.33 136 L 204.67 188" stroke="#64748B" stroke-width="1.5" fill="none" />
    <path d="M 235.67 136 L 255.33 188" stroke="#64748B" stroke-width="1.5" fill="none" />
    <rect x="134" y="24" width="34" height="30" fill="#F8FAFC" stroke="#4A90D9" stroke-width="2" rx="4" />
    <text x="151" y="43.9" font-size="14" font-family="Inter, system-ui, -apple-system, sans-serif" fill="#1E293B" text-anchor="middle" font-weight="bold">40</text>
    <rect x="72" y="106" width="34" height="30" fill="#F8FAFC" stroke="#4A90D9" stroke-width="2" rx="4" />
    <text x="89" y="125.9" font-size="14" font-family="Inter, system-ui, -apple-system, sans-serif" fill="#1E293B" text-anchor="middle" font-weight="bold">20</text>
    <rect x="24" y="188" width="34" height="30" fill="#F8FAFC" stroke="#4A90D9" stroke-width="2" rx="4" />
    <text x="41" y="207.9" font-size="14" font-family="Inter, system-ui, -apple-system, sans-serif" fill="#1E293B" text-anchor="middle" font-weight="bold">10</text>
    <rect x="86" y="188" width="68" height="30" fill="#F8FAFC" stroke="#4A90D9" stroke-width="2" rx="4" />
    <text x="103" y="207.9" font-size="14" font-family="Inter, system-ui, -apple-system, sans-serif" fill="#1E293B" text-anchor="middle" font-weight="bold">25</text>
    <path d="M 120 188 L 120 218" stroke="#4A90D9" stroke-width="1" fill="none" />
    <text x="137" y="207.9" font-size="14" font-family="Inter, system-ui, -apple-system, sans-serif" fill="#1E293B" text-anchor="middle" font-weight="bold">30</text>
    <rect x="213" y="106" width="34" height="30" fill="#F8FAFC" stroke="#4A90D9" stroke-width="2" rx="4" />
    <text x="230" y="125.9" font-size="14" font-family="Inter, system-ui, -apple-system, sans-serif" fill="#1E293B" text-anchor="middle" font-weight="bold">55</text>
    <rect x="182" y="188" width="34" height="30" fill="#F8FAFC" stroke="#4A90D9" stroke-width="2" rx="4" />
    <text x="199" y="207.9" font-size="14" font-family="Inter, system-ui, -apple-system, sans-serif" fill="#1E293B" text-anchor="middle" font-weight="bold">50</text>
    <rect x="244" y="188" width="34" height="30" fill="#F8FAFC" stroke="#4A90D9" stroke-width="2" rx="4" />
    <text x="261" y="207.9" font-size="14" font-family="Inter, system-ui, -apple-system, sans-serif" fill="#1E293B" text-anchor="middle" font-weight="bold">60</text>
  </g>
  <text x="494.39664000000005" y="286.34999999999997" font-size="14" font-family="Inter, system-ui, -apple-system, sans-serif" fill="#1E293B" text-anchor="start" font-weight="bold">Family</text>
  <g transform="translate(525.89664, 343.5) scale(1)">
    <text x="40.5" y="33.6" font-size="27" font-family="Inter, system-ui, -apple-system, sans-serif" fill="#4A90D9" text-anchor="middle" font-weight="bold">13</text>
    <text x="40.5" y="50.400000000000006" font-size="11" font-family="Inter, system-ui, -apple-system, sans-serif" fill="#64748B" text-anchor="middle">new diagram kinds</text>
  </g>
  <text x="32" y="493.65000000000003" font-size="14" font-family="Inter, system-ui, -apple-system, sans-serif" fill="#1E293B" text-anchor="start" font-weight="bold">Array</text>
  <g transform="translate(28, 567.7108695652174) scale(0.65)">
    <rect x="24" y="24" width="40" height="40" fill="#F8FAFC" stroke="#CBD5E1" stroke-width="1.5" rx="3" />
    <text x="44" y="49" font-size="14" font-family="Inter, system-ui, -apple-system, sans-serif" fill="#1E293B" text-anchor="middle" font-weight="bold">5</text>
    <rect x="64" y="24" width="40" height="40" fill="#F8FAFC" stroke="#CBD5E1" stroke-width="1.5" rx="3" />
    <text x="84" y="49" font-size="14" font-family="Inter, system-ui, -apple-system, sans-serif" fill="#1E293B" text-anchor="middle" font-weight="bold">8</text>
    <rect x="104" y="24" width="40" height="40" fill="#F8FAFC" stroke="#CBD5E1" stroke-width="1.5" rx="3" />
    <text x="124" y="49" font-size="14" font-family="Inter, system-ui, -apple-system, sans-serif" fill="#1E293B" text-anchor="middle" font-weight="bold">13</text>
    <rect x="144" y="24" width="40" height="40" fill="#F8FAFC" stroke="#CBD5E1" stroke-width="1.5" rx="3" />
    <text x="164" y="49" font-size="14" font-family="Inter, system-ui, -apple-system, sans-serif" fill="#1E293B" text-anchor="middle" font-weight="bold">21</text>
    <rect x="184" y="24" width="40" height="40" fill="#F8FAFC" stroke="#CBD5E1" stroke-width="1.5" rx="3" />
    <text x="204" y="49" font-size="14" font-family="Inter, system-ui, -apple-system, sans-serif" fill="#1E293B" text-anchor="middle" font-weight="bold">34</text>
  </g>
  <text x="221.20000000000002" y="493.65000000000003" font-size="14" font-family="Inter, system-ui, -apple-system, sans-serif" fill="#1E293B" text-anchor="start" font-weight="bold">Linked list</text>
  <g transform="translate(217.20000000000002, 567.7108695652174) scale(0.65)">
    <text x="24" y="48.9" font-size="14" font-family="Inter, system-ui, -apple-system, sans-serif" fill="#64748B" font-weight="bold">head</text>
    <path d="M 61.23 44 L 89.23 44" stroke="#4A90D9" stroke-width="1.5" fill="none" marker-end="url(#struct-arrow)" />
    <rect x="93.2256" y="24" width="30" height="40" fill="#F8FAFC" stroke="#CBD5E1" stroke-width="1.5" rx="4" />
    <rect x="123.2256" y="24" width="26" height="40" fill="#f1f3f5" stroke="#CBD5E1" stroke-width="1.5" rx="4" />
    <path d="M 123.23 24 L 123.23 64" stroke="#CBD5E1" stroke-width="1.5" fill="none" />
    <text x="108.23" y="48.9" font-size="14" font-family="Inter, system-ui, -apple-system, sans-serif" fill="#1E293B" text-anchor="middle" font-weight="bold">3</text>
    <circle cx="136.2256" cy="44" r="3" fill="#4A90D9" stroke="#4A90D9" stroke-width="1" />
    <path d="M 136.23 44 L 191.23 44" stroke="#4A90D9" stroke-width="1.5" fill="none" marker-end="url(#struct-arrow)" />
    <rect x="195.2256" y="24" width="30" height="40" fill="#F8FAFC" stroke="#CBD5E1" stroke-width="1.5" rx="4" />
    <rect x="225.2256" y="24" width="26" height="40" fill="#f1f3f5" stroke="#CBD5E1" stroke-width="1.5" rx="4" />
    <path d="M 225.23 24 L 225.23 64" stroke="#CBD5E1" stroke-width="1.5" fill="none" />
    <text x="210.23" y="48.9" font-size="14" font-family="Inter, system-ui, -apple-system, sans-serif" fill="#1E293B" text-anchor="middle" font-weight="bold">7</text>
    <circle cx="238.2256" cy="44" r="3" fill="#4A90D9" stroke="#4A90D9" stroke-width="1" />
    <path d="M 238.23 44 L 293.23 44" stroke="#4A90D9" stroke-width="1.5" fill="none" marker-end="url(#struct-arrow)" />
    <rect x="297.2256" y="24" width="30" height="40" fill="#F8FAFC" stroke="#CBD5E1" stroke-width="1.5" rx="4" />
    <rect x="327.2256" y="24" width="26" height="40" fill="#f1f3f5" stroke="#CBD5E1" stroke-width="1.5" rx="4" />
    <path d="M 327.23 24 L 327.23 64" stroke="#CBD5E1" stroke-width="1.5" fill="none" />
    <text x="312.23" y="48.9" font-size="14" font-family="Inter, system-ui, -apple-system, sans-serif" fill="#1E293B" text-anchor="middle" font-weight="bold">9</text>
    <path d="M 327.23 64 L 353.23 24" stroke="#64748B" stroke-width="1.5" fill="none" />
  </g>
  <text x="494.39664000000005" y="493.65000000000003" font-size="14" font-family="Inter, system-ui, -apple-system, sans-serif" fill="#1E293B" text-anchor="start" font-weight="bold">AVL tree</text>
  <g transform="translate(490.39664000000005, 504.45000000000005) scale(0.6608695652173913)">
    <path d="M 107.18 66 L 87.82 118" stroke="#64748B" stroke-width="1.5" fill="none" />
    <path d="M 130.64 66 L 169.36 118" stroke="#64748B" stroke-width="1.5" fill="none" />
    <path d="M 72.18 160 L 52.82 212" stroke="#64748B" stroke-width="1.5" fill="none" />
    <path d="M 87.82 160 L 107.18 212" stroke="#64748B" stroke-width="1.5" fill="none" />
    <path d="M 185 160 L 185 212" stroke="#64748B" stroke-width="1.5" fill="none" />
    <circle cx="115" cy="45" r="21" fill="#F8FAFC" stroke="#4A90D9" stroke-width="2" />
    <text x="115" y="49.9" font-size="14" font-family="Inter, system-ui, -apple-system, sans-serif" fill="#1E293B" text-anchor="middle" font-weight="bold">50</text>
    <circle cx="133" cy="27" r="9" fill="#FFFFFF" stroke="#22C55E" stroke-width="1.5" />
    <text x="133" y="31" font-size="11" font-family="Inter, system-ui, -apple-system, sans-serif" fill="#22C55E" text-anchor="middle" font-weight="bold">0</text>
    <circle cx="80" cy="139" r="21" fill="#F8FAFC" stroke="#4A90D9" stroke-width="2" />
    <text x="80" y="143.9" font-size="14" font-family="Inter, system-ui, -apple-system, sans-serif" fill="#1E293B" text-anchor="middle" font-weight="bold">30</text>
    <circle cx="98" cy="121" r="9" fill="#FFFFFF" stroke="#22C55E" stroke-width="1.5" />
    <text x="98" y="125" font-size="11" font-family="Inter, system-ui, -apple-system, sans-serif" fill="#22C55E" text-anchor="middle" font-weight="bold">0</text>
    <circle cx="45" cy="233" r="21" fill="#F8FAFC" stroke="#4A90D9" stroke-width="2" />
    <text x="45" y="237.9" font-size="14" font-family="Inter, system-ui, -apple-system, sans-serif" fill="#1E293B" text-anchor="middle" font-weight="bold">20</text>
    <circle cx="63" cy="215" r="9" fill="#FFFFFF" stroke="#22C55E" stroke-width="1.5" />
    <text x="63" y="219" font-size="11" font-family="Inter, system-ui, -apple-system, sans-serif" fill="#22C55E" text-anchor="middle" font-weight="bold">0</text>
    <circle cx="115" cy="233" r="21" fill="#F8FAFC" stroke="#4A90D9" stroke-width="2" />
    <text x="115" y="237.9" font-size="14" font-family="Inter, system-ui, -apple-system, sans-serif" fill="#1E293B" text-anchor="middle" font-weight="bold">40</text>
    <circle cx="133" cy="215" r="9" fill="#FFFFFF" stroke="#22C55E" stroke-width="1.5" />
    <text x="133" y="219" font-size="11" font-family="Inter, system-ui, -apple-system, sans-serif" fill="#22C55E" text-anchor="middle" font-weight="bold">0</text>
    <circle cx="185" cy="139" r="21" fill="#F8FAFC" stroke="#4A90D9" stroke-width="2" />
    <text x="185" y="143.9" font-size="14" font-family="Inter, system-ui, -apple-system, sans-serif" fill="#1E293B" text-anchor="middle" font-weight="bold">70</text>
    <circle cx="203" cy="121" r="9" fill="#FFFFFF" stroke="#4A90D9" stroke-width="1.5" />
    <text x="203" y="125" font-size="11" font-family="Inter, system-ui, -apple-system, sans-serif" fill="#4A90D9" text-anchor="middle" font-weight="bold">1</text>
    <circle cx="185" cy="233" r="21" fill="#F8FAFC" stroke="#4A90D9" stroke-width="2" />
    <text x="185" y="237.9" font-size="14" font-family="Inter, system-ui, -apple-system, sans-serif" fill="#1E293B" text-anchor="middle" font-weight="bold">60</text>
    <circle cx="203" cy="215" r="9" fill="#FFFFFF" stroke="#22C55E" stroke-width="1.5" />
    <text x="203" y="219" font-size="11" font-family="Inter, system-ui, -apple-system, sans-serif" fill="#22C55E" text-anchor="middle" font-weight="bold">0</text>
  </g>
</svg>