<svg xmlns="http://www.w3.org/2000/svg" viewBox="0 0 659.9000000000001 521.9622516556292" width="659.9000000000001" height="521.9622516556292">
  <defs>
    <marker id="struct-arrow" markerWidth="12" markerHeight="12" refX="10" refY="6" orient="auto" markerUnits="userSpaceOnUse"><path d="M0 0 L12 6 L0 12 z" fill="#64748B" /></marker>
    <marker id="struct-arrow" markerWidth="12" markerHeight="12" refX="10" refY="6" orient="auto" markerUnits="userSpaceOnUse"><path d="M0 0 L12 6 L0 12 z" fill="#4A90D9" /></marker>
    <marker id="triton-crosslink-arrow" markerWidth="8" markerHeight="5.6" refX="7" refY="2.8" orient="auto"><polygon points="0 0, 8 2.8, 0 5.6" fill="currentColor" /></marker>
  </defs>
  <rect x="0" y="0" width="659.9000000000001" height="521.9622516556292" fill="#FFFFFF" />
  <text x="24" y="42" font-size="20" font-family="Inter, system-ui, -apple-system, sans-serif" fill="#1E293B" font-weight="bold">SQL Engine — Anatomy</text>
  <rect x="24" y="58" width="295.3" height="261.26225165562914" fill="#FFFFFF" stroke="#CBD5E1" stroke-width="1" rx="6" />
  <rect x="339.3" y="58" width="296.6" height="261.26225165562914" fill="#FFFFFF" stroke="#CBD5E1" stroke-width="1" rx="6" />
  <rect x="24" y="339.26225165562914" width="295.3" height="158.70000000000002" fill="#FFFFFF" stroke="#CBD5E1" stroke-width="1" rx="6" />
  <rect x="339.3" y="339.26225165562914" width="296.6" height="158.70000000000002" fill="#FFFFFF" stroke="#CBD5E1" stroke-width="1" rx="6" />
  <path d="M 284.0328321056656 252.2799882353917 L 284.0328321056656 110.49139072847682 L 471.35430463576165 110.49139072847682" stroke="#16A34A" stroke-width="2" fill="none" marker-end="url(#triton-crosslink-arrow)" />
  <path d="M 471.35430463576165 132.0476821192053 L 327.3 132.0476821192053 L 327.3 406.99225165562916 L 106 406.99225165562916" stroke="#E11D48" stroke-width="2" fill="none" marker-end="url(#triton-crosslink-arrow)" />
  <path d="M 290.6 451.3222516556292 L 529.2 451.3222516556292" stroke="#9333EA" stroke-width="2" fill="none" marker-end="url(#triton-crosslink-arrow)" />
  <text x="32" y="73.2" font-size="14" font-family="Inter, system-ui, -apple-system, sans-serif" fill="#1E293B" text-anchor="start" font-weight="bold">Query plan (EXPLAIN)</text>
  <g transform="translate(28, 103.17226112488126) scale(0.7685965314974765)">
    <path d="M 167.99 57 L 108.4 109" stroke="#64748B" stroke-width="1.5" fill="none" />
    <path d="M 202.33 57 L 252.37 110.5" stroke="#64748B" stroke-width="1.5" fill="none" />
    <path d="M 266.39 140.5 L 266.39 194" stroke="#64748B" stroke-width="1.5" fill="none" />
    <rect x="141.72039999999998" y="24" width="90.35739999999998" height="33" fill="#F8FAFC" stroke="#7C3AED" stroke-width="2" rx="8" />
    <text x="186.89909999999998" y="42" font-size="14" font-family="Inter, system-ui, -apple-system, sans-serif" fill="#1E293B" text-anchor="middle" font-weight="bold">Hash Join</text>
    <text x="186.89909999999998" y="55" font-size="11" font-family="Inter, system-ui, -apple-system, sans-serif" fill="#64748B" text-anchor="middle">rows: 980</text>
    <rect x="24" y="109" width="130.9896" height="33" fill="#F8FAFC" stroke="#4A90D9" stroke-width="2" rx="8" />
    <text x="89.4948" y="127" font-size="14" font-family="Inter, system-ui, -apple-system, sans-serif" fill="#1E293B" text-anchor="middle" font-weight="bold">Seq Scan orders</text>
    <text x="89.4948" y="140" font-size="11" font-family="Inter, system-ui, -apple-system, sans-serif" fill="#64748B" text-anchor="middle">rows: 10000</text>
    <rect x="236.02859999999998" y="110.5" width="60.730599999999995" height="30" fill="#F8FAFC" stroke="#64748B" stroke-width="2" rx="8" />
    <text x="266.3939" y="130.4" font-size="14" font-family="Inter, system-ui, -apple-system, sans-serif" fill="#1E293B" text-anchor="middle" font-weight="bold">Hash</text>
    <rect x="182.9896" y="194" width="166.80859999999998" height="33" fill="#F8FAFC" stroke="#4A90D9" stroke-width="2" rx="8" />
    <text x="266.3939" y="212" font-size="14" font-family="Inter, system-ui, -apple-system, sans-serif" fill="#1E293B" text-anchor="middle" font-weight="bold">Index Scan customers</text>
    <text x="266.3939" y="225" font-size="11" font-family="Inter, system-ui, -apple-system, sans-serif" fill="#64748B" text-anchor="middle">idx: idx_cust</text>
  </g>
  <text x="347.3" y="73.2" font-size="14" font-family="Inter, system-ui, -apple-system, sans-serif" fill="#1E293B" text-anchor="start" font-weight="bold">B+tree index</text>
  <g transform="translate(343.3, 84) scale(0.9556291390728477)">
    <path d="M 139.66 54 L 100.34 106" stroke="#64748B" stroke-width="1.5" fill="none" />
    <path d="M 165.45 54 L 215.55 106" stroke="#64748B" stroke-width="1.5" fill="none" />
    <path d="M 80.22 136 L 49.78 188" stroke="#64748B" stroke-width="1.5" fill="none" />
    <path d="M 94.67 136 L 114.33 188" stroke="#64748B" stroke-width="1.5" fill="none" />
    <path d="M 224.33 136 L 204.67 188" stroke="#64748B" stroke-width="1.5" fill="none" />
    <path d="M 235.67 136 L 255.33 188" stroke="#64748B" stroke-width="1.5" fill="none" />
    <rect x="134" y="24" width="34" height="30" fill="#F8FAFC" stroke="#4A90D9" stroke-width="2" rx="4" />
    <text x="151" y="43.9" font-size="14" font-family="Inter, system-ui, -apple-system, sans-serif" fill="#1E293B" text-anchor="middle" font-weight="bold">40</text>
    <rect x="72" y="106" width="34" height="30" fill="#F8FAFC" stroke="#4A90D9" stroke-width="2" rx="4" />
    <text x="89" y="125.9" font-size="14" font-family="Inter, system-ui, -apple-system, sans-serif" fill="#1E293B" text-anchor="middle" font-weight="bold">20</text>
    <rect x="24" y="188" width="34" height="30" fill="#F8FAFC" stroke="#4A90D9" stroke-width="2" rx="4" />
    <text x="41" y="207.9" font-size="14" font-family="Inter, system-ui, -apple-system, sans-serif" fill="#1E293B" text-anchor="middle" font-weight="bold">10</text>
    <rect x="86" y="188" width="68" height="30" fill="#F8FAFC" stroke="#4A90D9" stroke-width="2" rx="4" />
    <text x="103" y="207.9" font-size="14" font-family="Inter, system-ui, -apple-system, sans-serif" fill="#1E293B" text-anchor="middle" font-weight="bold">25</text>
    <path d="M 120 188 L 120 218" stroke="#4A90D9" stroke-width="1" fill="none" />
    <text x="137" y="207.9" font-size="14" font-family="Inter, system-ui, -apple-system, sans-serif" fill="#1E293B" text-anchor="middle" font-weight="bold">30</text>
    <rect x="213" y="106" width="34" height="30" fill="#F8FAFC" stroke="#4A90D9" stroke-width="2" rx="4" />
    <text x="230" y="125.9" font-size="14" font-family="Inter, system-ui, -apple-system, sans-serif" fill="#1E293B" text-anchor="middle" font-weight="bold">55</text>
    <rect x="182" y="188" width="34" height="30" fill="#F8FAFC" stroke="#4A90D9" stroke-width="2" rx="4" />
    <text x="199" y="207.9" font-size="14" font-family="Inter, system-ui, -apple-system, sans-serif" fill="#1E293B" text-anchor="middle" font-weight="bold">50</text>
    <rect x="244" y="188" width="34" height="30" fill="#F8FAFC" stroke="#4A90D9" stroke-width="2" rx="4" />
    <text x="261" y="207.9" font-size="14" font-family="Inter, system-ui, -apple-system, sans-serif" fill="#1E293B" text-anchor="middle" font-weight="bold">60</text>
  </g>
  <text x="32" y="354.46225165562913" font-size="14" font-family="Inter, system-ui, -apple-system, sans-serif" fill="#1E293B" text-anchor="start" font-weight="bold">Slotted page</text>
  <g transform="translate(28, 365.26225165562914) scale(0.65)">
    <rect x="24" y="24" width="394" height="150" fill="#F8FAFC" stroke="#CBD5E1" stroke-width="1.5" rx="6" />
    <rect x="24" y="24" width="394" height="26" fill="#4A90D9" stroke="#4A90D9" stroke-width="0" rx="0" />
    <text x="36" y="41" font-size="11" font-family="Inter, system-ui, -apple-system, sans-serif" fill="#ffffff" font-weight="bold">PageHeader    freeStart →        ← freeEnd</text>
    <rect x="66" y="62" width="54" height="22" fill="#4A90D9" fill-opacity="0.14" stroke="#4A90D9" stroke-width="1.5" rx="3" />
    <text x="93" y="77" font-size="11" font-family="Inter, system-ui, -apple-system, sans-serif" fill="#4A90D9" text-anchor="middle" font-weight="bold">slot0</text>
    <rect x="194" y="62" width="54" height="22" fill="#4A90D9" fill-opacity="0.14" stroke="#4A90D9" stroke-width="1.5" rx="3" />
    <text x="221" y="77" font-size="11" font-family="Inter, system-ui, -apple-system, sans-serif" fill="#4A90D9" text-anchor="middle" font-weight="bold">slot1</text>
    <rect x="322" y="62" width="54" height="22" fill="#4A90D9" fill-opacity="0.14" stroke="#4A90D9" stroke-width="1.5" rx="3" />
    <text x="349" y="77" font-size="11" font-family="Inter, system-ui, -apple-system, sans-serif" fill="#4A90D9" text-anchor="middle" font-weight="bold">slot2</text>
    <text x="221" y="112.9" font-size="14" font-family="Inter, system-ui, -apple-system, sans-serif" fill="#64748B" text-anchor="middle">free space</text>
    <rect x="38" y="132" width="110" height="28" fill="#F8FAFC" stroke="#CBD5E1" stroke-width="1.5" rx="3" />
    <text x="93" y="150.9" font-size="14" font-family="Inter, system-ui, -apple-system, sans-serif" fill="#1E293B" text-anchor="middle" font-weight="bold">(10,Ann)</text>
    <rect x="166" y="132" width="110" height="28" fill="#F8FAFC" stroke="#CBD5E1" stroke-width="1.5" rx="3" />
    <text x="221" y="150.9" font-size="14" font-family="Inter, system-ui, -apple-system, sans-serif" fill="#1E293B" text-anchor="middle" font-weight="bold">(40,Bob)</text>
    <rect x="294" y="132" width="110" height="28" fill="#F8FAFC" stroke="#CBD5E1" stroke-width="1.5" rx="3" />
    <text x="349" y="150.9" font-size="14" font-family="Inter, system-ui, -apple-system, sans-serif" fill="#1E293B" text-anchor="middle" font-weight="bold">(50,Cy)</text>
    <path d="M 93 84 L 93 132" stroke="#64748B" stroke-width="1.5" fill="none" marker-end="url(#struct-arrow)" />
    <path d="M 221 84 L 221 95.9 M 221 117.9 L 221 132" stroke="#64748B" stroke-width="1.5" fill="none" marker-end="url(#struct-arrow)" />
    <path d="M 349 84 L 349 132" stroke="#64748B" stroke-width="1.5" fill="none" marker-end="url(#struct-arrow)" />
  </g>
  <text x="347.3" y="354.46225165562913" font-size="14" font-family="Inter, system-ui, -apple-system, sans-serif" fill="#1E293B" text-anchor="start" font-weight="bold">Row in memory</text>
  <g transform="translate(343.3, 373.06225165562915) scale(0.65)">
    <rect x="24" y="24" width="158" height="88" fill="#F8FAFC" fill-opacity="0.26" stroke="#CBD5E1" stroke-width="1.5" rx="8" />
    <text x="36" y="41" font-size="11" font-family="Inter, system-ui, -apple-system, sans-serif" fill="#64748B" font-weight="bold">BUFFER</text>
    <rect x="38" y="64" width="130" height="34" fill="#F8FAFC" fill-opacity="0.56" stroke="#CBD5E1" stroke-width="1.5" rx="4" />
    <text x="50" y="85.9" font-size="14" font-family="Inter, system-ui, -apple-system, sans-serif" fill="#1E293B" font-weight="bold">slot</text>
    <circle cx="156" cy="81" r="3" fill="#4A90D9" stroke="#4A90D9" stroke-width="1" />
    <rect x="272" y="24" width="148" height="126" fill="#F8FAFC" fill-opacity="0.26" stroke="#CBD5E1" stroke-width="1.5" rx="8" />
    <text x="284" y="41" font-size="11" font-family="Inter, system-ui, -apple-system, sans-serif" fill="#64748B" font-weight="bold">TUPLE</text>
    <rect x="286" y="64" width="120" height="72" fill="#F8FAFC" fill-opacity="0.62" stroke="#4A90D9" stroke-width="2" rx="6" />
    <text x="298" y="82" font-size="14" font-family="Inter, system-ui, -apple-system, sans-serif" fill="#4A90D9" font-weight="bold">Row</text>
    <text x="298" y="106" font-size="11" font-family="Inter, system-ui, -apple-system, sans-serif" fill="#1E293B">id: 50</text>
    <text x="298" y="124" font-size="11" font-family="Inter, system-ui, -apple-system, sans-serif" fill="#1E293B">name: Cy</text>
    <path d="M 158 81.1 L 286 93.97" stroke="#4A90D9" stroke-width="1.5" fill="none" marker-end="url(#struct-arrow)" />
  </g>
  <text x="377.6935683707136" y="108.49139072847682" font-size="12" font-family="Inter, system-ui, -apple-system, sans-serif" fill="#16A34A" text-anchor="middle" font-weight="bold">scan uses index</text>
  <text x="216.65000000000003" y="415.76225165562914" font-size="12" font-family="Inter, system-ui, -apple-system, sans-serif" fill="#E11D48" text-anchor="middle" font-weight="bold">leaf points to page</text>
  <text x="409.90000000000003" y="454.7622516556292" font-size="12" font-family="Inter, system-ui, -apple-system, sans-serif" fill="#9333EA" text-anchor="middle" font-weight="bold">tuple is a row</text>
</svg>