<svg xmlns="http://www.w3.org/2000/svg" viewBox="0 0 557.2 446.5405405405405" width="557.2" height="446.5405405405405">
  <defs>
    <marker id="triton-arrow" markerWidth="8" markerHeight="5.6" refX="7" refY="2.8" orient="auto"><polygon points="0 0, 8 2.8, 0 5.6" fill="#2563EB" /></marker>
  </defs>
  <rect width="100%" height="100%" fill="#FFFFFF" />
  <text x="24" y="42" font-size="20" font-family="Inter, system-ui, -apple-system, sans-serif" fill="#111111" font-weight="bold">Launch Readiness</text>
  <rect x="24" y="58" width="325.2" height="120" fill="#FFFFFF" stroke="#E2E8F0" stroke-width="1" rx="6" />
  <rect x="369.2" y="58" width="164" height="120" fill="#FFFFFF" stroke="#E2E8F0" stroke-width="1" rx="6" />
  <rect x="24" y="198" width="325.2" height="224.54054054054055" fill="#FFFFFF" stroke="#E2E8F0" stroke-width="1" rx="6" />
  <rect x="369.2" y="198" width="164" height="224.54054054054055" fill="#FFFFFF" stroke="#E2E8F0" stroke-width="1" rx="6" />
  <rect x="32" y="62" width="96.9716" height="20.4" fill="#F8FAFC" stroke="#E2E8F0" stroke-width="1" rx="6" />
  <text x="38" y="76.4" font-size="14" font-family="Inter, system-ui, -apple-system, sans-serif" fill="#111111" text-anchor="start" font-weight="bold">Release Flow</text>
  <g transform="translate(28, 100.4) scale(0.65)">
    <path d="M 144 44 L 184 44" stroke="#2563EB" stroke-width="1.5" fill="none" marker-end="url(#triton-arrow)" />
    <path d="M 304 44 L 344 44" stroke="#2563EB" stroke-width="1.5" fill="none" marker-end="url(#triton-arrow)" />
    <g id="code">
      <rect x="24" y="24" width="120" height="40" fill="#F8FAFC" stroke="#E2E8F0" stroke-width="1.5" rx="2" />
      <text x="84" y="48.9" font-size="14" font-family="Inter, system-ui, -apple-system, sans-serif" fill="#111111" text-anchor="middle">Code Freeze</text>
    </g>
    <g id="qa">
      <rect x="184" y="24" width="120" height="40" fill="#F8FAFC" stroke="#E2E8F0" stroke-width="1.5" rx="2" />
      <text x="244" y="48.9" font-size="14" font-family="Inter, system-ui, -apple-system, sans-serif" fill="#111111" text-anchor="middle">QA Sign-off</text>
    </g>
    <g id="launch">
      <rect x="344" y="24" width="120" height="40" fill="#F8FAFC" stroke="#E2E8F0" stroke-width="1.5" rx="20" />
      <text x="404" y="48.9" font-size="14" font-family="Inter, system-ui, -apple-system, sans-serif" fill="#111111" text-anchor="middle">Launch</text>
    </g>
  </g>
  <rect x="377.2" y="62" width="82.97019999999999" height="20.4" fill="#F8FAFC" stroke="#E2E8F0" stroke-width="1" rx="6" />
  <text x="383.2" y="76.4" font-size="14" font-family="Inter, system-ui, -apple-system, sans-serif" fill="#111111" text-anchor="start" font-weight="bold">Confidence</text>
  <g transform="translate(410.7, 96.7) scale(1)">
    <text x="40.5" y="33.6" font-size="27" font-family="Inter, system-ui, -apple-system, sans-serif" fill="#2563EB" text-anchor="middle" font-weight="bold">95%</text>
    <text x="40.5" y="50.400000000000006" font-size="11" font-family="Inter, system-ui, -apple-system, sans-serif" fill="#6B7280" text-anchor="middle">go decision</text>
  </g>
  <rect x="32" y="202" width="97.7892" height="20.4" fill="#F8FAFC" stroke="#E2E8F0" stroke-width="1" rx="6" />
  <text x="38" y="216.39999999999998" font-size="14" font-family="Inter, system-ui, -apple-system, sans-serif" fill="#111111" text-anchor="start" font-weight="bold">Launch Week</text>
  <g transform="translate(28, 224) scale(0.8243243243243243)">
    <text x="24" y="42" font-size="18" font-family="Inter, system-ui, -apple-system, sans-serif" fill="#111111" font-weight="bold">Launch Week</text>
    <path d="M 44 118 L 360.79999999999995 118" stroke="#E2E8F0" stroke-width="2" fill="none" />
    <text x="24" y="156.4" font-size="11" font-family="Inter, system-ui, -apple-system, sans-serif" fill="#6B7280">Default</text>
    <rect x="44" y="136" width="88.6" height="32" fill="#F8FAFC" stroke="#E2E8F0" stroke-width="1" rx="4" />
    <text x="88.3" y="156.4" font-size="11" font-family="Inter, system-ui, -apple-system, sans-serif" fill="#111111" text-anchor="middle">Code freeze</text>
    <rect x="140.6" y="136" width="128.2" height="32" fill="#F8FAFC" stroke="#E2E8F0" stroke-width="1" rx="4" />
    <text x="204.7" y="156.4" font-size="11" font-family="Inter, system-ui, -apple-system, sans-serif" fill="#111111" text-anchor="middle">Release candidate</text>
    <rect x="276.79999999999995" y="136" width="60" height="32" fill="#F8FAFC" stroke="#E2E8F0" stroke-width="1" rx="4" />
    <text x="306.79999999999995" y="156.4" font-size="11" font-family="Inter, system-ui, -apple-system, sans-serif" fill="#111111" text-anchor="middle">GA</text>
  </g>
  <rect x="377.2" y="202" width="49.4066" height="20.4" fill="#F8FAFC" stroke="#E2E8F0" stroke-width="1" rx="6" />
  <text x="383.2" y="216.39999999999998" font-size="14" font-family="Inter, system-ui, -apple-system, sans-serif" fill="#111111" text-anchor="start" font-weight="bold">Notes</text>
  <g transform="translate(373.2, 307.10027027027024) scale(0.65)">
    <text x="12" y="23.200000000000003" font-size="14" font-family="Inter, system-ui, -apple-system, sans-serif" fill="#111111">Final go/no-go review scheduled for Friday.</text>
  </g>
</svg>