<svg xmlns="http://www.w3.org/2000/svg" viewBox="0 0 627.03 504.68" width="627.03" height="504.68">
  <rect x="0" y="0" width="627.03" height="504.68" fill="#FFFFFF" />
  <text x="24" y="42" font-size="18" font-family="Inter, system-ui, -apple-system, sans-serif" fill="#1E293B" font-weight="bold">Continuous Improvement Loop</text>
  <g id="item-0">
    <path d="M 390.44 87.16 A 195.94 195.94 0 0 1 469.28 144.44" stroke="#4A90D9" stroke-width="2" fill="none" />
    <path d="M 459.86 141.74 L 469.28 144.44 L 467.23 134.86 Z" stroke="#4A90D9" stroke-width="0" fill="#4A90D9" />
    <rect x="219.94" y="58" width="196.74" height="30.8" fill="#F8FAFC" stroke="#4A90D9" stroke-width="1.5" rx="8" />
    <text x="318.31" y="78.16" font-size="14" font-family="Inter, system-ui, -apple-system, sans-serif" fill="#1E293B" text-anchor="middle">Observe service signals</text>
  </g>
  <g id="item-1">
    <path d="M 513.86 281.64 A 195.94 195.94 0 0 1 483.75 374.33" stroke="#4A90D9" stroke-width="2" fill="none" />
    <path d="M 483.41 364.54 L 483.75 374.33 L 492.23 369.42 Z" stroke="#4A90D9" stroke-width="0" fill="#4A90D9" />
    <rect x="406.29" y="193.39" width="196.74" height="30.8" fill="#F8FAFC" stroke="#4A90D9" stroke-width="1.5" rx="8" />
    <text x="504.66" y="213.55" font-size="14" font-family="Inter, system-ui, -apple-system, sans-serif" fill="#1E293B" text-anchor="middle">Prioritize improvement bets</text>
  </g>
  <g id="item-2">
    <path d="M 367.04 459.12 A 195.94 195.94 0 0 1 269.58 459.12" stroke="#4A90D9" stroke-width="2" fill="none" />
    <path d="M 278.79 455.77 L 269.58 459.12 L 276.87 465.67 Z" stroke="#4A90D9" stroke-width="0" fill="#4A90D9" />
    <rect x="335.11" y="412.46" width="196.74" height="30.8" fill="#F8FAFC" stroke="#4A90D9" stroke-width="1.5" rx="8" />
    <text x="433.48" y="432.62" font-size="14" font-family="Inter, system-ui, -apple-system, sans-serif" fill="#1E293B" text-anchor="middle">Deliver focused changes</text>
  </g>
  <g id="item-3">
    <path d="M 152.87 374.33 A 195.94 195.94 0 0 1 122.76 281.64" stroke="#4A90D9" stroke-width="2" fill="none" />
    <path d="M 128.79 289.36 L 122.76 281.64 L 118.79 290.59 Z" stroke="#4A90D9" stroke-width="0" fill="#4A90D9" />
    <rect x="104.77" y="412.46" width="196.74" height="30.8" fill="#F8FAFC" stroke="#4A90D9" stroke-width="1.5" rx="8" />
    <text x="203.14" y="432.62" font-size="14" font-family="Inter, system-ui, -apple-system, sans-serif" fill="#1E293B" text-anchor="middle">Measure customer impact</text>
  </g>
  <g id="item-4">
    <path d="M 167.34 144.44 A 195.94 195.94 0 0 1 246.18 87.16" stroke="#4A90D9" stroke-width="2" fill="none" />
    <path d="M 240.7 95.28 L 246.18 87.16 L 236.44 86.15 Z" stroke="#4A90D9" stroke-width="0" fill="#4A90D9" />
    <rect x="33.59" y="193.39" width="196.74" height="30.8" fill="#F8FAFC" stroke="#4A90D9" stroke-width="1.5" rx="8" />
    <text x="131.96" y="213.55" font-size="14" font-family="Inter, system-ui, -apple-system, sans-serif" fill="#1E293B" text-anchor="middle">Standardize what works</text>
  </g>
</svg>