<svg xmlns="http://www.w3.org/2000/svg" viewBox="0 0 206.24 443.2" width="206.24" height="443.2">
  <rect x="0" y="0" width="206.24" height="443.2" fill="#FFFFFF" />
  <text x="24" y="42" font-size="18" font-family="Inter, system-ui, -apple-system, sans-serif" fill="#1E293B" font-weight="bold">Deployment Pipeline</text>
  <g id="item-0">
    <rect x="24" y="58" width="158.24" height="39.2" fill="#F8FAFC" stroke="#4A90D9" stroke-width="1.5" rx="6" />
    <text x="103.12" y="82.36" font-size="14" font-family="Inter, system-ui, -apple-system, sans-serif" fill="#1E293B" text-anchor="middle">Plan release</text>
  </g>
  <g id="item-1">
    <path d="M 103.12 97.2 L 103.12 116.52" stroke="#64748B" stroke-width="2" fill="none" />
    <path d="M 97.24 116.52 L 103.12 122.4 L 109 116.52 Z" stroke="#64748B" stroke-width="0" fill="#64748B" />
    <rect x="24" y="122.4" width="158.24" height="39.2" fill="#F8FAFC" stroke="#4A90D9" stroke-width="1.5" rx="6" />
    <text x="103.12" y="146.76" font-size="14" font-family="Inter, system-ui, -apple-system, sans-serif" fill="#1E293B" text-anchor="middle">Build artifacts</text>
  </g>
  <g id="item-2">
    <path d="M 103.12 161.6 L 103.12 180.92" stroke="#64748B" stroke-width="2" fill="none" />
    <path d="M 97.24 180.92 L 103.12 186.8 L 109 180.92 Z" stroke="#64748B" stroke-width="0" fill="#64748B" />
    <rect x="24" y="186.8" width="158.24" height="39.2" fill="#F8FAFC" stroke="#4A90D9" stroke-width="1.5" rx="6" />
    <text x="103.12" y="211.16" font-size="14" font-family="Inter, system-ui, -apple-system, sans-serif" fill="#1E293B" text-anchor="middle">Run test suite</text>
  </g>
  <g id="item-3">
    <path d="M 103.12 226 L 103.12 245.32" stroke="#64748B" stroke-width="2" fill="none" />
    <path d="M 97.24 245.32 L 103.12 251.2 L 109 245.32 Z" stroke="#64748B" stroke-width="0" fill="#64748B" />
    <rect x="24" y="251.2" width="158.24" height="39.2" fill="#F8FAFC" stroke="#4A90D9" stroke-width="1.5" rx="6" />
    <text x="103.12" y="275.56" font-size="14" font-family="Inter, system-ui, -apple-system, sans-serif" fill="#1E293B" text-anchor="middle">Push to staging</text>
  </g>
  <g id="item-4">
    <path d="M 103.12 290.4 L 103.12 309.72" stroke="#64748B" stroke-width="2" fill="none" />
    <path d="M 97.24 309.72 L 103.12 315.6 L 109 309.72 Z" stroke="#64748B" stroke-width="0" fill="#64748B" />
    <rect x="24" y="315.6" width="158.24" height="39.2" fill="#F8FAFC" stroke="#4A90D9" stroke-width="1.5" rx="6" />
    <text x="103.12" y="339.96" font-size="14" font-family="Inter, system-ui, -apple-system, sans-serif" fill="#1E293B" text-anchor="middle">Smoke test</text>
  </g>
  <g id="item-5">
    <path d="M 103.12 354.8 L 103.12 374.12" stroke="#64748B" stroke-width="2" fill="none" />
    <path d="M 97.24 374.12 L 103.12 380 L 109 374.12 Z" stroke="#64748B" stroke-width="0" fill="#64748B" />
    <rect x="24" y="380" width="158.24" height="39.2" fill="#F8FAFC" stroke="#4A90D9" stroke-width="1.5" rx="6" />
    <text x="103.12" y="404.36" font-size="14" font-family="Inter, system-ui, -apple-system, sans-serif" fill="#1E293B" text-anchor="middle">Deploy to production</text>
  </g>
</svg>