<svg xmlns="http://www.w3.org/2000/svg" viewBox="0 0 555.84 224.8" width="555.84" height="224.8">
  <rect x="0" y="0" width="555.84" height="224.8" fill="#FFFFFF" />
  <text x="24" y="42" font-size="18" font-family="Inter, system-ui, -apple-system, sans-serif" fill="#1E293B" font-weight="bold">Incident Response Structure</text>
  <g id="item-0">
    <rect x="111.44" y="58" width="158.08" height="30.8" fill="#F8FAFC" stroke="#4A90D9" stroke-width="2" rx="6" />
    <text x="190.48" y="78.16" font-size="14" font-family="Inter, system-ui, -apple-system, sans-serif" fill="#1E293B" text-anchor="middle">Commander</text>
  </g>
  <g id="item-0-0">
    <path d="M 190.48 88.8 L 190.48 101.4 L 103.04 101.4 L 103.04 114" stroke="#CBD5E1" stroke-width="1.5" fill="none" />
    <rect x="24" y="114" width="158.08" height="30.8" fill="#F8FAFC" stroke="#CBD5E1" stroke-width="1" rx="6" />
    <text x="103.04" y="134.16" font-size="14" font-family="Inter, system-ui, -apple-system, sans-serif" fill="#1E293B" text-anchor="middle">Communications lead</text>
  </g>
  <g id="item-0-1">
    <path d="M 190.48 88.8 L 190.48 101.4 L 277.92 101.4 L 277.92 114" stroke="#CBD5E1" stroke-width="1.5" fill="none" />
    <rect x="198.88" y="114" width="158.08" height="30.8" fill="#F8FAFC" stroke="#CBD5E1" stroke-width="1" rx="6" />
    <text x="277.92" y="134.16" font-size="14" font-family="Inter, system-ui, -apple-system, sans-serif" fill="#1E293B" text-anchor="middle">Operations lead</text>
  </g>
  <g id="item-0-1-0">
    <path d="M 277.92 144.8 L 277.92 157.4 L 277.92 157.4 L 277.92 170" stroke="#CBD5E1" stroke-width="1.5" fill="none" />
    <rect x="198.88" y="170" width="158.08" height="30.8" fill="#F8FAFC" stroke="#CBD5E1" stroke-width="1" rx="6" />
    <text x="277.92" y="190.16" font-size="14" font-family="Inter, system-ui, -apple-system, sans-serif" fill="#1E293B" text-anchor="middle">Service owners</text>
  </g>
  <g id="item-1">
    <rect x="373.76" y="58" width="158.08" height="30.8" fill="#F8FAFC" stroke="#4A90D9" stroke-width="2" rx="6" />
    <text x="452.8" y="78.16" font-size="14" font-family="Inter, system-ui, -apple-system, sans-serif" fill="#1E293B" text-anchor="middle">Support desk</text>
  </g>
  <g id="item-1-0">
    <path d="M 452.8 88.8 L 452.8 101.4 L 452.8 101.4 L 452.8 114" stroke="#CBD5E1" stroke-width="1.5" fill="none" />
    <rect x="373.76" y="114" width="158.08" height="30.8" fill="#F8FAFC" stroke="#CBD5E1" stroke-width="1" rx="6" />
    <text x="452.8" y="134.16" font-size="14" font-family="Inter, system-ui, -apple-system, sans-serif" fill="#1E293B" text-anchor="middle">Customer liaison</text>
  </g>
</svg>