<svg xmlns="http://www.w3.org/2000/svg" viewBox="0 0 328 568" width="328" height="568">
  <defs>
    <marker id="triton-arrow" markerWidth="8" markerHeight="5.6" refX="7" refY="2.8" orient="auto"><polygon points="0 0, 8 2.8, 0 5.6" fill="#00D4FF" /></marker>
  </defs>
  <rect width="100%" height="100%" fill="#0D1B2A" />
  <path d="M 164 64 L 164 104" stroke="#00D4FF" stroke-width="1.5" fill="none" marker-end="url(#triton-arrow)" />
  <path d="M 164 144 L 164 184" stroke="#00D4FF" stroke-width="1.5" fill="none" marker-end="url(#triton-arrow)" />
  <path d="M 164 224 L 164 244 L 84 244 L 84 264" stroke="#00D4FF" stroke-width="1.5" fill="none" marker-end="url(#triton-arrow)" />
  <text x="124" y="240" font-size="12" font-family="Inter, system-ui, -apple-system, sans-serif" fill="#7AACCC" text-anchor="middle">yes</text>
  <path d="M 164 224 L 164 244 L 244 244 L 244 264" stroke="#00D4FF" stroke-width="1.5" fill="none" marker-end="url(#triton-arrow)" />
  <text x="204" y="240" font-size="12" font-family="Inter, system-ui, -apple-system, sans-serif" fill="#7AACCC" text-anchor="middle">no</text>
  <path d="M 84 304 L 84 324 L 164 324 L 164 344" stroke="#00D4FF" stroke-width="1.5" fill="none" marker-end="url(#triton-arrow)" />
  <path d="M 164 384 L 164 404 L 84 404 L 84 424" stroke="#00D4FF" stroke-width="1.5" fill="none" marker-end="url(#triton-arrow)" />
  <text x="124" y="400" font-size="12" font-family="Inter, system-ui, -apple-system, sans-serif" fill="#7AACCC" text-anchor="middle">yes</text>
  <path d="M 164 384 L 164 404 L 244 404 L 244 424" stroke="#00D4FF" stroke-width="1.5" fill="none" marker-end="url(#triton-arrow)" />
  <text x="204" y="400" font-size="12" font-family="Inter, system-ui, -apple-system, sans-serif" fill="#7AACCC" text-anchor="middle">no</text>
  <path d="M 84 464 L 84 484 L 164 484 L 164 504" stroke="#00D4FF" stroke-width="1.5" fill="none" marker-end="url(#triton-arrow)" />
  <g id="commit">
    <rect x="104" y="24" width="120" height="40" fill="#132035" stroke="#1E3A5A" stroke-width="1.5" rx="2" />
    <text x="164" y="48.9" font-size="14" font-family="Inter, system-ui, -apple-system, sans-serif" fill="#E8EEF5" text-anchor="middle">Commit Pushed</text>
  </g>
  <g id="build">
    <rect x="104" y="104" width="120" height="40" fill="#132035" stroke="#1E3A5A" stroke-width="1.5" rx="2" />
    <text x="164" y="128.9" font-size="14" font-family="Inter, system-ui, -apple-system, sans-serif" fill="#E8EEF5" text-anchor="middle">Build &amp; Lint</text>
  </g>
  <g id="test">
    <path d="M 164 184 L 224 204 L 164 224 L 104 204 Z" stroke="#1E3A5A" stroke-width="1.5" fill="#132035" />
    <text x="164" y="208.9" font-size="14" font-family="Inter, system-ui, -apple-system, sans-serif" fill="#E8EEF5" text-anchor="middle">Tests Pass?</text>
  </g>
  <g id="stage">
    <rect x="24" y="264" width="120" height="40" fill="#132035" stroke="#1E3A5A" stroke-width="1.5" rx="20" />
    <text x="84" y="288.9" font-size="14" font-family="Inter, system-ui, -apple-system, sans-serif" fill="#E8EEF5" text-anchor="middle">Deploy to Staging</text>
  </g>
  <g id="notify">
    <rect x="184" y="264" width="120" height="40" fill="#132035" stroke="#1E3A5A" stroke-width="1.5" rx="20" />
    <text x="244" y="288.9" font-size="14" font-family="Inter, system-ui, -apple-system, sans-serif" fill="#E8EEF5" text-anchor="middle">Notify Author</text>
  </g>
  <g id="approve">
    <path d="M 164 344 L 224 364 L 164 384 L 104 364 Z" stroke="#1E3A5A" stroke-width="1.5" fill="#132035" />
    <text x="164" y="368.9" font-size="14" font-family="Inter, system-ui, -apple-system, sans-serif" fill="#E8EEF5" text-anchor="middle">Approved?</text>
  </g>
  <g id="prod">
    <rect x="24" y="424" width="120" height="40" fill="#132035" stroke="#1E3A5A" stroke-width="1.5" rx="20" />
    <text x="84" y="448.9" font-size="14" font-family="Inter, system-ui, -apple-system, sans-serif" fill="#E8EEF5" text-anchor="middle">Deploy to Production</text>
  </g>
  <g id="hold">
    <rect x="184" y="424" width="120" height="40" fill="#132035" stroke="#1E3A5A" stroke-width="1.5" rx="20" />
    <text x="244" y="448.9" font-size="14" font-family="Inter, system-ui, -apple-system, sans-serif" fill="#E8EEF5" text-anchor="middle">Hold for Review</text>
  </g>
  <g id="live">
    <circle cx="164" cy="524" r="20" fill="#132035" stroke="#1E3A5A" stroke-width="1.5" />
    <text x="164" y="528.9" font-size="14" font-family="Inter, system-ui, -apple-system, sans-serif" fill="#E8EEF5" text-anchor="middle">Live</text>
  </g>
</svg>