<svg xmlns="http://www.w3.org/2000/svg" viewBox="0 0 535.4196 120" width="535.4196" height="120">
  <defs>
    <marker id="struct-arrow" markerWidth="8" markerHeight="8" refX="7" refY="4" orient="auto"><path d="M0 0 L8 4 L0 8 z" fill="#4A90D9" /></marker>
  </defs>
  <rect x="0" y="0" width="535.4196" height="120" fill="#FFFFFF" />
  <text x="24" y="42" font-size="18" font-family="Inter, system-ui, -apple-system, sans-serif" fill="#1E293B" font-weight="bold">quoted linked list label</text>
  <text x="24" y="80.9" font-size="14" font-family="Inter, system-ui, -apple-system, sans-serif" fill="#64748B" font-weight="bold">head</text>
  <path d="M 61.23 76 L 89.23 76" stroke="#4A90D9" stroke-width="1.5" fill="none" marker-end="url(#struct-arrow)" />
  <rect x="93.2256" y="56" width="116.28559999999999" height="40" fill="#F8FAFC" stroke="#CBD5E1" stroke-width="1.5" rx="4" />
  <rect x="209.51119999999997" y="56" width="26" height="40" fill="#f1f3f5" stroke="#CBD5E1" stroke-width="1.5" rx="4" />
  <path d="M 209.51 56 L 209.51 96" stroke="#CBD5E1" stroke-width="1.5" fill="none" />
  <text x="151.37" y="80.9" font-size="14" font-family="Inter, system-ui, -apple-system, sans-serif" fill="#1E293B" text-anchor="middle" font-weight="bold">cache line head</text>
  <circle cx="222.51119999999997" cy="76" r="3" fill="#4A90D9" stroke="#4A90D9" stroke-width="1" />
  <path d="M 222.51 76 L 277.51 76" stroke="#4A90D9" stroke-width="1.5" fill="none" marker-end="url(#struct-arrow)" />
  <rect x="281.5112" y="56" width="95.2184" height="40" fill="#F8FAFC" stroke="#CBD5E1" stroke-width="1.5" rx="4" />
  <rect x="376.7296" y="56" width="26" height="40" fill="#f1f3f5" stroke="#CBD5E1" stroke-width="1.5" rx="4" />
  <path d="M 376.73 56 L 376.73 96" stroke="#CBD5E1" stroke-width="1.5" fill="none" />
  <text x="329.12" y="80.9" font-size="14" font-family="Inter, system-ui, -apple-system, sans-serif" fill="#1E293B" text-anchor="middle" font-weight="bold">worker node</text>
  <circle cx="389.7296" cy="76" r="3" fill="#4A90D9" stroke="#4A90D9" stroke-width="1" />
  <path d="M 389.73 76 L 444.73 76" stroke="#4A90D9" stroke-width="1.5" fill="none" marker-end="url(#struct-arrow)" />
  <rect x="448.7296" y="56" width="36.69" height="40" fill="#F8FAFC" stroke="#CBD5E1" stroke-width="1.5" rx="4" />
  <rect x="485.4196" y="56" width="26" height="40" fill="#f1f3f5" stroke="#CBD5E1" stroke-width="1.5" rx="4" />
  <path d="M 485.42 56 L 485.42 96" stroke="#CBD5E1" stroke-width="1.5" fill="none" />
  <text x="467.07" y="80.9" font-size="14" font-family="Inter, system-ui, -apple-system, sans-serif" fill="#1E293B" text-anchor="middle" font-weight="bold">tail</text>
  <path d="M 485.42 96 L 511.42 56" stroke="#64748B" stroke-width="1.5" fill="none" />
</svg>