<?xml version="1.0" encoding="UTF-8"?>
<svg height="413.86" version="1.1" viewBox="0 0 1200 413.86" width="1200" xmlns="http://www.w3.org/2000/svg">
  <rect fill="#0D1B2A" height="413.86" width="1200" x="0" y="0"/>
  <text dominant-baseline="alphabetic" fill="#E8EEF5" font-family="DejaVu Sans, Arial, Helvetica, sans-serif" font-size="29.33" font-weight="700" text-anchor="middle" x="600" y="97.33">Founder Journey — From Idea to Series B</text>
  <text dominant-baseline="alphabetic" fill="#E8EEF5" font-family="DejaVu Sans, Arial, Helvetica, sans-serif" font-size="18.67" font-weight="400" opacity="0.75" text-anchor="middle" x="600" y="131.67">T1-style vertical spine: five milestones with subjects and descriptions</text>
  <line opacity="0.35" stroke="#2A4060" stroke-width="0.5" x1="148" x2="1156" y1="144" y2="144"/>
  <line stroke="#2A4060" stroke-width="1" x1="148" x2="1156" y1="186" y2="186"/>
  <line stroke="#2A4060" stroke-width="1" x1="340" x2="340" y1="180" y2="186"/>
  <line opacity="0.6" stroke="#1E3350" stroke-width="0.5" x1="340" x2="340" y1="186" y2="330.93"/>
  <text dominant-baseline="alphabetic" fill="#8BAAC8" font-family="DejaVu Sans, Arial, Helvetica, sans-serif" font-size="13.33" font-weight="400" text-anchor="middle" x="340" y="172">2022</text>
  <line stroke="#2A4060" stroke-width="1" x1="667" x2="667" y1="180" y2="186"/>
  <line opacity="0.6" stroke="#1E3350" stroke-width="0.5" x1="667" x2="667" y1="186" y2="330.93"/>
  <text dominant-baseline="alphabetic" fill="#8BAAC8" font-family="DejaVu Sans, Arial, Helvetica, sans-serif" font-size="13.33" font-weight="400" text-anchor="middle" x="667" y="172">2023</text>
  <line stroke="#2A4060" stroke-width="1" x1="994" x2="994" y1="180" y2="186"/>
  <line opacity="0.6" stroke="#1E3350" stroke-width="0.5" x1="994" x2="994" y1="186" y2="330.93"/>
  <text dominant-baseline="alphabetic" fill="#8BAAC8" font-family="DejaVu Sans, Arial, Helvetica, sans-serif" font-size="13.33" font-weight="400" text-anchor="middle" x="994" y="172">2024</text>
  <line opacity="0.3" stroke="#1E3350" stroke-width="1" x1="148" x2="1156" y1="330.93" y2="330.93"/>
  <text dominant-baseline="middle" fill="#B8CCE0" font-family="DejaVu Sans, Arial, Helvetica, sans-serif" font-size="14.67" font-weight="700" text-anchor="start" x="8" y="286.93">Company Journey</text>
  <rect fill="#607D8B" height="28" opacity="0.85" rx="8" stroke="#4A6070" stroke-width="0.5" width="271" x="148" y="256.93"/>
  <text dominant-baseline="middle" fill="#8BAAC8" font-family="DejaVu Sans, Arial, Helvetica, sans-serif" font-size="13.33" font-weight="700" text-anchor="start" x="152" y="270.93">Stealth / Build Phase</text>
  <rect fill="#607D8B" height="28" opacity="0.85" rx="8" stroke="#4A6070" stroke-width="0.5" width="408" x="502" y="256.93"/>
  <text dominant-baseline="middle" fill="#8BAAC8" font-family="DejaVu Sans, Arial, Helvetica, sans-serif" font-size="13.33" font-weight="700" text-anchor="start" x="506" y="270.93">Seed-fuelled Growth</text>
  <rect fill="#00B4D8" height="28" opacity="1" rx="8" stroke="#0090B0" stroke-width="0.5" width="219" x="911" y="256.93"/>
  <text dominant-baseline="middle" fill="#8BAAC8" font-family="DejaVu Sans, Arial, Helvetica, sans-serif" font-size="13.33" font-weight="700" text-anchor="start" x="915" y="270.93">Series A Deployment</text>
  <line opacity="0.45" stroke="#8BAAC8" stroke-width="0.75" x1="161" x2="161" y1="306.93" y2="314.93"/>
  <circle cx="161" cy="286.93" fill="#3A86C8" r="20" stroke="#0D1B2A" stroke-width="2"/>
  <path d="M 14 2 L 6 13 L 12 13 L 10 22 L 18 11 L 12 11 Z" fill="#0D1B2A" transform="translate(161,286.93) scale(1.0833) translate(-12,-12)"/>
  <text dominant-baseline="alphabetic" fill="#E8EEF5" font-family="DejaVu Sans, Arial, Helvetica, sans-serif" font-size="13.33" font-weight="600" text-anchor="middle" x="161" y="329.66">The Idea</text>
  <text dominant-baseline="alphabetic" fill="#8BAAC8" font-family="DejaVu Sans, Arial, Helvetica, sans-serif" font-size="12" font-weight="400" text-anchor="middle" x="161" y="346.46">June 2021</text>
  <line opacity="0.45" stroke="#8BAAC8" stroke-width="0.75" x1="357" x2="357" y1="236.93" y2="266.93"/>
  <circle cx="357" cy="286.93" fill="#3A86C8" r="20" stroke="#0D1B2A" stroke-width="2"/>
  <path d="M 4 7 A 3 3 0 1 0 10 7 A 3 3 0 1 0 4 7 M 1 22 A 6 6 0 0 1 13 22 M 14.5 8 A 2.5 2.5 0 1 0 19.5 8 A 2.5 2.5 0 1 0 14.5 8 M 14 22 A 5 5 0 0 1 22 22" fill="none" stroke="#0D1B2A" stroke-linecap="round" stroke-width="2" transform="translate(357,286.93) scale(1.0833) translate(-12,-12)"/>
  <text dominant-baseline="alphabetic" fill="#E8EEF5" font-family="DejaVu Sans, Arial, Helvetica, sans-serif" font-size="13.33" font-weight="600" text-anchor="middle" x="357" y="214.73">First 10 Customers</text>
  <text dominant-baseline="alphabetic" fill="#8BAAC8" font-family="DejaVu Sans, Arial, Helvetica, sans-serif" font-size="12" font-weight="400" text-anchor="middle" x="357" y="231.53">January 2022</text>
  <line opacity="0.45" stroke="#8BAAC8" stroke-width="0.75" x1="502" x2="502" y1="306.93" y2="314.93"/>
  <circle cx="502" cy="286.93" fill="#3A86C8" r="20" stroke="#0D1B2A" stroke-width="2"/>
  <path d="M 12 3 L 14.4 8.8 L 20.6 9.2 L 15.8 13.2 L 17.3 19.3 L 12 16 L 6.7 19.3 L 8.2 13.2 L 3.4 9.2 L 9.6 8.8 Z" fill="#0D1B2A" transform="translate(502,286.93) scale(1.0833) translate(-12,-12)"/>
  <text dominant-baseline="alphabetic" fill="#E8EEF5" font-family="DejaVu Sans, Arial, Helvetica, sans-serif" font-size="13.33" font-weight="600" text-anchor="middle" x="502" y="329.66">Seed Round Closed</text>
  <text dominant-baseline="alphabetic" fill="#8BAAC8" font-family="DejaVu Sans, Arial, Helvetica, sans-serif" font-size="12" font-weight="400" text-anchor="middle" x="502" y="346.46">July 2022</text>
  <line opacity="0.45" stroke="#8BAAC8" stroke-width="0.75" x1="911" x2="911" y1="236.93" y2="266.93"/>
  <circle cx="911" cy="286.93" fill="#3A86C8" r="20" stroke="#0D1B2A" stroke-width="2"/>
  <path d="M 12 2 L 16 11 L 15 11 L 15 18 L 9 18 L 9 11 L 8 11 Z M 9 18 L 6 22 L 9 16 Z M 15 18 L 18 22 L 15 16 Z" fill="#0D1B2A" transform="translate(911,286.93) scale(1.0833) translate(-12,-12)"/>
  <text dominant-baseline="alphabetic" fill="#E8EEF5" font-family="DejaVu Sans, Arial, Helvetica, sans-serif" font-size="13.33" font-weight="600" text-anchor="middle" x="911" y="214.73">Series A — $15M</text>
  <text dominant-baseline="alphabetic" fill="#8BAAC8" font-family="DejaVu Sans, Arial, Helvetica, sans-serif" font-size="12" font-weight="400" text-anchor="middle" x="911" y="231.53">October 2023</text>
  <line opacity="0.45" stroke="#8BAAC8" stroke-width="0.75" x1="1075" x2="1075" y1="306.93" y2="314.93"/>
  <circle cx="1075" cy="286.93" fill="#3A86C8" r="20" stroke="#0D1B2A" stroke-width="2"/>
  <path d="M 3 12 A 9 9 0 1 0 21 12 A 9 9 0 1 0 3 12 M 7 12 A 5 5 0 1 0 17 12 A 5 5 0 1 0 7 12 M 10 12 A 2 2 0 1 0 14 12 A 2 2 0 1 0 10 12" fill="none" stroke="#0D1B2A" stroke-linecap="round" stroke-width="2" transform="translate(1075,286.93) scale(1.0833) translate(-12,-12)"/>
  <text dominant-baseline="alphabetic" fill="#E8EEF5" font-family="DejaVu Sans, Arial, Helvetica, sans-serif" font-size="13.33" font-weight="600" text-anchor="middle" x="1075" y="329.66">Series B — $42M</text>
  <text dominant-baseline="alphabetic" fill="#8BAAC8" font-family="DejaVu Sans, Arial, Helvetica, sans-serif" font-size="12" font-weight="400" text-anchor="middle" x="1075" y="346.46">April 2024</text>
  <rect fill="#1E3350" height="120.27" opacity="0.95" rx="4" stroke="#2A4060" stroke-width="1" width="170" x="970" y="221.59"/>
  <text dominant-baseline="alphabetic" fill="#E8EEF5" font-family="DejaVu Sans, Arial, Helvetica, sans-serif" font-size="13.33" font-weight="700" text-anchor="start" x="980" y="244.93">Legend</text>
  <rect fill="#607D8B" height="12" rx="2" width="12" x="980" y="257.46"/>
  <text dominant-baseline="middle" fill="#8BAAC8" font-family="DejaVu Sans, Arial, Helvetica, sans-serif" font-size="12" font-weight="400" text-anchor="start" x="1000" y="263.46">done</text>
  <rect fill="#00B4D8" height="12" rx="2" width="12" x="980" y="277.86"/>
  <text dominant-baseline="middle" fill="#8BAAC8" font-family="DejaVu Sans, Arial, Helvetica, sans-serif" font-size="12" font-weight="400" text-anchor="start" x="1000" y="283.86">in-progress</text>
  <rect fill="#3A86C8" height="12" rx="2" width="12" x="980" y="298.26"/>
  <text dominant-baseline="middle" fill="#8BAAC8" font-family="DejaVu Sans, Arial, Helvetica, sans-serif" font-size="12" font-weight="400" text-anchor="start" x="1000" y="304.26">planned</text>
  <rect fill="#3A86C8" height="12" rx="2" width="12" x="980" y="318.66"/>
  <text dominant-baseline="middle" fill="#8BAAC8" font-family="DejaVu Sans, Arial, Helvetica, sans-serif" font-size="12" font-weight="400" text-anchor="start" x="1000" y="324.66">standard-node</text>
</svg>