<?xml version="1.0" encoding="UTF-8"?>
<svg height="428" version="1.1" viewBox="0 0 1200 428" width="1200" xmlns="http://www.w3.org/2000/svg">
  <rect fill="#0D1B2A" height="428" width="1200" x="0" y="0"/>
  <text dominant-baseline="middle" fill="#E8EEF5" font-family="DejaVu Sans, Arial, Helvetica, sans-serif" font-size="29.33" font-weight="700" text-anchor="middle" x="600" y="42.67">Open-Ended &amp; Span Activity Behaviours</text>
  <line stroke="#2A4060" stroke-width="1" x1="148" x2="1156" y1="92" y2="92"/>
  <line stroke="#2A4060" stroke-width="1" x1="148" x2="148" y1="86" y2="92"/>
  <line opacity="0.6" stroke="#1E3350" stroke-width="0.5" x1="148" x2="148" y1="92" y2="372"/>
  <text dominant-baseline="alphabetic" fill="#8BAAC8" font-family="DejaVu Sans, Arial, Helvetica, sans-serif" font-size="13.33" font-weight="400" text-anchor="middle" x="148" y="78">2026</text>
  <line stroke="#2A4060" stroke-width="1" x1="234" x2="234" y1="86" y2="92"/>
  <line opacity="0.6" stroke="#1E3350" stroke-width="0.5" x1="234" x2="234" y1="92" y2="372"/>
  <text dominant-baseline="alphabetic" fill="#8BAAC8" font-family="DejaVu Sans, Arial, Helvetica, sans-serif" font-size="13.33" font-weight="400" text-anchor="middle" x="234" y="78">Feb</text>
  <line stroke="#2A4060" stroke-width="1" x1="311" x2="311" y1="86" y2="92"/>
  <line opacity="0.6" stroke="#1E3350" stroke-width="0.5" x1="311" x2="311" y1="92" y2="372"/>
  <text dominant-baseline="alphabetic" fill="#8BAAC8" font-family="DejaVu Sans, Arial, Helvetica, sans-serif" font-size="13.33" font-weight="400" text-anchor="middle" x="311" y="78">Mar</text>
  <line stroke="#2A4060" stroke-width="1" x1="397" x2="397" y1="86" y2="92"/>
  <line opacity="0.6" stroke="#1E3350" stroke-width="0.5" x1="397" x2="397" y1="92" y2="372"/>
  <text dominant-baseline="alphabetic" fill="#8BAAC8" font-family="DejaVu Sans, Arial, Helvetica, sans-serif" font-size="13.33" font-weight="400" text-anchor="middle" x="397" y="78">Apr</text>
  <line stroke="#2A4060" stroke-width="1" x1="480" x2="480" y1="86" y2="92"/>
  <line opacity="0.6" stroke="#1E3350" stroke-width="0.5" x1="480" x2="480" y1="92" y2="372"/>
  <text dominant-baseline="alphabetic" fill="#8BAAC8" font-family="DejaVu Sans, Arial, Helvetica, sans-serif" font-size="13.33" font-weight="400" text-anchor="middle" x="480" y="78">May</text>
  <line stroke="#2A4060" stroke-width="1" x1="566" x2="566" y1="86" y2="92"/>
  <line opacity="0.6" stroke="#1E3350" stroke-width="0.5" x1="566" x2="566" y1="92" y2="372"/>
  <text dominant-baseline="alphabetic" fill="#8BAAC8" font-family="DejaVu Sans, Arial, Helvetica, sans-serif" font-size="13.33" font-weight="400" text-anchor="middle" x="566" y="78">Jun</text>
  <line stroke="#2A4060" stroke-width="1" x1="649" x2="649" y1="86" y2="92"/>
  <line opacity="0.6" stroke="#1E3350" stroke-width="0.5" x1="649" x2="649" y1="92" y2="372"/>
  <text dominant-baseline="alphabetic" fill="#8BAAC8" font-family="DejaVu Sans, Arial, Helvetica, sans-serif" font-size="13.33" font-weight="400" text-anchor="middle" x="649" y="78">Jul</text>
  <line stroke="#2A4060" stroke-width="1" x1="735" x2="735" y1="86" y2="92"/>
  <line opacity="0.6" stroke="#1E3350" stroke-width="0.5" x1="735" x2="735" y1="92" y2="372"/>
  <text dominant-baseline="alphabetic" fill="#8BAAC8" font-family="DejaVu Sans, Arial, Helvetica, sans-serif" font-size="13.33" font-weight="400" text-anchor="middle" x="735" y="78">Aug</text>
  <line stroke="#2A4060" stroke-width="1" x1="821" x2="821" y1="86" y2="92"/>
  <line opacity="0.6" stroke="#1E3350" stroke-width="0.5" x1="821" x2="821" y1="92" y2="372"/>
  <text dominant-baseline="alphabetic" fill="#8BAAC8" font-family="DejaVu Sans, Arial, Helvetica, sans-serif" font-size="13.33" font-weight="400" text-anchor="middle" x="821" y="78">Sep</text>
  <line stroke="#2A4060" stroke-width="1" x1="904" x2="904" y1="86" y2="92"/>
  <line opacity="0.6" stroke="#1E3350" stroke-width="0.5" x1="904" x2="904" y1="92" y2="372"/>
  <text dominant-baseline="alphabetic" fill="#8BAAC8" font-family="DejaVu Sans, Arial, Helvetica, sans-serif" font-size="13.33" font-weight="400" text-anchor="middle" x="904" y="78">Oct</text>
  <line stroke="#2A4060" stroke-width="1" x1="990" x2="990" y1="86" y2="92"/>
  <line opacity="0.6" stroke="#1E3350" stroke-width="0.5" x1="990" x2="990" y1="92" y2="372"/>
  <text dominant-baseline="alphabetic" fill="#8BAAC8" font-family="DejaVu Sans, Arial, Helvetica, sans-serif" font-size="13.33" font-weight="400" text-anchor="middle" x="990" y="78">Nov</text>
  <line stroke="#2A4060" stroke-width="1" x1="1073" x2="1073" y1="86" y2="92"/>
  <line opacity="0.6" stroke="#1E3350" stroke-width="0.5" x1="1073" x2="1073" y1="92" y2="372"/>
  <text dominant-baseline="alphabetic" fill="#8BAAC8" font-family="DejaVu Sans, Arial, Helvetica, sans-serif" font-size="13.33" font-weight="400" text-anchor="middle" x="1073" y="78">Dec</text>
  <line opacity="0.3" stroke="#1E3350" stroke-width="1" x1="148" x2="1156" y1="236" y2="236"/>
  <text dominant-baseline="middle" fill="#B8CCE0" font-family="DejaVu Sans, Arial, Helvetica, sans-serif" font-size="14.67" font-weight="700" text-anchor="start" x="8" y="164">Live Services</text>
  <line opacity="0.3" stroke="#1E3350" stroke-width="1" x1="148" x2="1156" y1="372" y2="372"/>
  <text dominant-baseline="middle" fill="#B8CCE0" font-family="DejaVu Sans, Arial, Helvetica, sans-serif" font-size="14.67" font-weight="700" text-anchor="start" x="8" y="314">Projects</text>
  <rect fill="#00B4D8" height="28" opacity="1" rx="8" stroke="#0090B0" stroke-width="0.5" width="1008" x="148" y="106"/>
  <text dominant-baseline="middle" fill="#E8EEF5" font-family="DejaVu Sans, Arial, Helvetica, sans-serif" font-size="13.33" font-weight="700" text-anchor="middle" x="652" y="120">Production Monitoring</text>
  <path d="M 1156 106 L 1166 120 L 1156 134 Z" fill="#00B4D8" opacity="1"/>
  <rect fill="#00B4D8" height="28" opacity="1" rx="8" stroke="#0090B0" stroke-width="0.5" width="845" x="311" y="134"/>
  <text dominant-baseline="middle" fill="#E8EEF5" font-family="DejaVu Sans, Arial, Helvetica, sans-serif" font-size="13.33" font-weight="700" text-anchor="middle" x="733.5" y="148">On-Call Rotation</text>
  <path d="M 1156 134 L 1166 148 L 1156 162 Z" fill="#00B4D8" opacity="1"/>
  <rect fill="#3A86C8" height="28" opacity="1" rx="8" stroke="#2A6A9E" stroke-width="0.5" width="590" x="566" y="162"/>
  <text dominant-baseline="middle" fill="#E8EEF5" font-family="DejaVu Sans, Arial, Helvetica, sans-serif" font-size="13.33" font-weight="700" text-anchor="middle" x="861" y="176">SLA Management</text>
  <path d="M 1156 162 L 1166 176 L 1156 190 Z" fill="#3A86C8" opacity="1"/>
  <rect fill="#607D8B" height="28" opacity="0.85" rx="8" stroke="#4A6070" stroke-width="0.5" width="246" x="148" y="270"/>
  <rect fill="#FFFFFF" height="5" opacity="0.35" rx="8" width="246" x="148" y="293"/>
  <text dominant-baseline="middle" fill="#E8EEF5" font-family="DejaVu Sans, Arial, Helvetica, sans-serif" font-size="13.33" font-weight="700" text-anchor="middle" x="271" y="284">Q1 Sprint</text>
  <rect fill="#00B4D8" height="28" opacity="1" rx="8" stroke="#0090B0" stroke-width="0.5" width="249" x="397" y="270"/>
  <rect fill="#FFFFFF" height="5" opacity="0.35" rx="8" width="149" x="397" y="293"/>
  <text dominant-baseline="middle" fill="#E8EEF5" font-family="DejaVu Sans, Arial, Helvetica, sans-serif" font-size="13.33" font-weight="700" text-anchor="middle" x="521.5" y="284">Q2 Sprint</text>
  <rect fill="#3A86C8" height="28" opacity="1" rx="8" stroke="#2A6A9E" stroke-width="0.5" width="252" x="649" y="270"/>
  <text dominant-baseline="middle" fill="#E8EEF5" font-family="DejaVu Sans, Arial, Helvetica, sans-serif" font-size="13.33" font-weight="700" text-anchor="middle" x="775" y="284">Q3 Sprint</text>
  <rect fill="#7986CB" height="28" opacity="0.7" rx="8" stroke="#5060A0" stroke-width="0.5" width="252" x="904" y="270"/>
  <text dominant-baseline="middle" fill="#E8EEF5" font-family="DejaVu Sans, Arial, Helvetica, sans-serif" font-size="13.33" font-weight="700" text-anchor="middle" x="1030" y="284">Future Project (TBD)</text>
  <line opacity="0.5" stroke="#5060A0" stroke-dasharray="3,3" stroke-width="2" x1="1156" x2="1156" y1="270" y2="298"/>
  <rect fill="#3A86C8" height="28" opacity="1" rx="8" stroke="#2A6A9E" stroke-width="0.5" width="252" x="904" y="298"/>
  <text dominant-baseline="middle" fill="#E8EEF5" font-family="DejaVu Sans, Arial, Helvetica, sans-serif" font-size="13.33" font-weight="700" text-anchor="middle" x="1030" y="312">Q4 Sprint</text>
  <circle cx="397" cy="164" fill="#3A86C8" r="20" stroke="#0D1B2A" stroke-width="2"/>
  <text dominant-baseline="middle" fill="#0D1B2A" font-family="DejaVu Sans, Arial, Helvetica, sans-serif" font-size="14.67" font-weight="700" text-anchor="middle" x="397" y="164">01</text>
  <text dominant-baseline="alphabetic" fill="#8BAAC8" font-family="DejaVu Sans, Arial, Helvetica, sans-serif" font-size="12" font-weight="400" text-anchor="middle" x="397.01" y="136.24">1st April 2026</text>
  <text dominant-baseline="alphabetic" fill="#E8EEF5" font-family="DejaVu Sans, Arial, Helvetica, sans-serif" font-size="13.33" font-weight="600" text-anchor="middle" x="397" y="205.33">Service v2 GA</text>
  <circle cx="821" cy="314" fill="#3A86C8" r="20" stroke="#0D1B2A" stroke-width="2"/>
  <text dominant-baseline="middle" fill="#0D1B2A" font-family="DejaVu Sans, Arial, Helvetica, sans-serif" font-size="14.67" font-weight="700" text-anchor="middle" x="821" y="314">02</text>
  <text dominant-baseline="alphabetic" fill="#8BAAC8" font-family="DejaVu Sans, Arial, Helvetica, sans-serif" font-size="12" font-weight="400" text-anchor="middle" x="821.01" y="286.24">1st September 2026</text>
  <text dominant-baseline="alphabetic" fill="#E8EEF5" font-family="DejaVu Sans, Arial, Helvetica, sans-serif" font-size="13.33" font-weight="600" text-anchor="middle" x="821" y="355.33">Roadmap Review</text>
  <rect fill="#1E3350" height="140.67" opacity="0.95" rx="4" stroke="#2A4060" stroke-width="1" width="170" x="970" y="215.33"/>
  <text dominant-baseline="alphabetic" fill="#E8EEF5" font-family="DejaVu Sans, Arial, Helvetica, sans-serif" font-size="13.33" font-weight="700" text-anchor="start" x="980" y="238.67">Legend</text>
  <rect fill="#00B4D8" height="12" rx="2" width="12" x="980" y="251.2"/>
  <text dominant-baseline="middle" fill="#8BAAC8" font-family="DejaVu Sans, Arial, Helvetica, sans-serif" font-size="12" font-weight="400" text-anchor="start" x="1000" y="257.2">in-progress</text>
  <rect fill="#3A86C8" height="12" rx="2" width="12" x="980" y="271.6"/>
  <text dominant-baseline="middle" fill="#8BAAC8" font-family="DejaVu Sans, Arial, Helvetica, sans-serif" font-size="12" font-weight="400" text-anchor="start" x="1000" y="277.6">planned</text>
  <rect fill="#607D8B" height="12" rx="2" width="12" x="980" y="292"/>
  <text dominant-baseline="middle" fill="#8BAAC8" font-family="DejaVu Sans, Arial, Helvetica, sans-serif" font-size="12" font-weight="400" text-anchor="start" x="1000" y="298">done</text>
  <rect fill="#7986CB" height="12" rx="2" width="12" x="980" y="312.4"/>
  <text dominant-baseline="middle" fill="#8BAAC8" font-family="DejaVu Sans, Arial, Helvetica, sans-serif" font-size="12" font-weight="400" text-anchor="start" x="1000" y="318.4">tentative</text>
  <rect fill="#3A86C8" height="12" rx="2" width="12" x="980" y="332.8"/>
  <text dominant-baseline="middle" fill="#8BAAC8" font-family="DejaVu Sans, Arial, Helvetica, sans-serif" font-size="12" font-weight="400" text-anchor="start" x="1000" y="338.8">standard-node</text>
</svg>