<?xml version="1.0" encoding="UTF-8"?>
<svg height="629.86" version="1.1" viewBox="0 0 1200 629.86" width="1200" xmlns="http://www.w3.org/2000/svg">
  <rect fill="#0D1B2A" height="629.86" width="1200" x="0" y="0"/>
  <text dominant-baseline="alphabetic" fill="#E8EEF5" font-family="DejaVu Sans, Arial, Helvetica, sans-serif" font-size="29.33" font-weight="700" text-anchor="middle" x="600" y="97.33">Project Phoenix — Program Timeline</text>
  <text dominant-baseline="alphabetic" fill="#E8EEF5" font-family="DejaVu Sans, Arial, Helvetica, sans-serif" font-size="18.67" font-weight="400" opacity="0.75" text-anchor="middle" x="600" y="131.67">Discovery through General Availability, FY 2026</text>
  <line opacity="0.35" stroke="#2A4060" stroke-width="0.5" x1="148" x2="1156" y1="144" y2="144"/>
  <line stroke="#2A4060" stroke-width="1" x1="148" x2="1156" y1="186" y2="186"/>
  <line stroke="#2A4060" stroke-width="1" x1="148" x2="148" y1="180" y2="186"/>
  <line opacity="0.6" stroke="#1E3350" stroke-width="0.5" x1="148" x2="148" y1="186" y2="546.93"/>
  <text dominant-baseline="alphabetic" fill="#8BAAC8" font-family="DejaVu Sans, Arial, Helvetica, sans-serif" font-size="13.33" font-weight="400" text-anchor="middle" x="148" y="172">2026</text>
  <line stroke="#2A4060" stroke-width="1" x1="234" x2="234" y1="180" y2="186"/>
  <line opacity="0.6" stroke="#1E3350" stroke-width="0.5" x1="234" x2="234" y1="186" y2="546.93"/>
  <text dominant-baseline="alphabetic" fill="#8BAAC8" font-family="DejaVu Sans, Arial, Helvetica, sans-serif" font-size="13.33" font-weight="400" text-anchor="middle" x="234" y="172">Feb</text>
  <line stroke="#2A4060" stroke-width="1" x1="311" x2="311" y1="180" y2="186"/>
  <line opacity="0.6" stroke="#1E3350" stroke-width="0.5" x1="311" x2="311" y1="186" y2="546.93"/>
  <text dominant-baseline="alphabetic" fill="#8BAAC8" font-family="DejaVu Sans, Arial, Helvetica, sans-serif" font-size="13.33" font-weight="400" text-anchor="middle" x="311" y="172">Mar</text>
  <line stroke="#2A4060" stroke-width="1" x1="397" x2="397" y1="180" y2="186"/>
  <line opacity="0.6" stroke="#1E3350" stroke-width="0.5" x1="397" x2="397" y1="186" y2="546.93"/>
  <text dominant-baseline="alphabetic" fill="#8BAAC8" font-family="DejaVu Sans, Arial, Helvetica, sans-serif" font-size="13.33" font-weight="400" text-anchor="middle" x="397" y="172">Apr</text>
  <line stroke="#2A4060" stroke-width="1" x1="480" x2="480" y1="180" y2="186"/>
  <line opacity="0.6" stroke="#1E3350" stroke-width="0.5" x1="480" x2="480" y1="186" y2="546.93"/>
  <text dominant-baseline="alphabetic" fill="#8BAAC8" font-family="DejaVu Sans, Arial, Helvetica, sans-serif" font-size="13.33" font-weight="400" text-anchor="middle" x="480" y="172">May</text>
  <line stroke="#2A4060" stroke-width="1" x1="566" x2="566" y1="180" y2="186"/>
  <line opacity="0.6" stroke="#1E3350" stroke-width="0.5" x1="566" x2="566" y1="186" y2="546.93"/>
  <text dominant-baseline="alphabetic" fill="#8BAAC8" font-family="DejaVu Sans, Arial, Helvetica, sans-serif" font-size="13.33" font-weight="400" text-anchor="middle" x="566" y="172">Jun</text>
  <line stroke="#2A4060" stroke-width="1" x1="649" x2="649" y1="180" y2="186"/>
  <line opacity="0.6" stroke="#1E3350" stroke-width="0.5" x1="649" x2="649" y1="186" y2="546.93"/>
  <text dominant-baseline="alphabetic" fill="#8BAAC8" font-family="DejaVu Sans, Arial, Helvetica, sans-serif" font-size="13.33" font-weight="400" text-anchor="middle" x="649" y="172">Jul</text>
  <line stroke="#2A4060" stroke-width="1" x1="735" x2="735" y1="180" y2="186"/>
  <line opacity="0.6" stroke="#1E3350" stroke-width="0.5" x1="735" x2="735" y1="186" y2="546.93"/>
  <text dominant-baseline="alphabetic" fill="#8BAAC8" font-family="DejaVu Sans, Arial, Helvetica, sans-serif" font-size="13.33" font-weight="400" text-anchor="middle" x="735" y="172">Aug</text>
  <line stroke="#2A4060" stroke-width="1" x1="821" x2="821" y1="180" y2="186"/>
  <line opacity="0.6" stroke="#1E3350" stroke-width="0.5" x1="821" x2="821" y1="186" y2="546.93"/>
  <text dominant-baseline="alphabetic" fill="#8BAAC8" font-family="DejaVu Sans, Arial, Helvetica, sans-serif" font-size="13.33" font-weight="400" text-anchor="middle" x="821" y="172">Sep</text>
  <line stroke="#2A4060" stroke-width="1" x1="904" x2="904" y1="180" y2="186"/>
  <line opacity="0.6" stroke="#1E3350" stroke-width="0.5" x1="904" x2="904" y1="186" y2="546.93"/>
  <text dominant-baseline="alphabetic" fill="#8BAAC8" font-family="DejaVu Sans, Arial, Helvetica, sans-serif" font-size="13.33" font-weight="400" text-anchor="middle" x="904" y="172">Oct</text>
  <line stroke="#2A4060" stroke-width="1" x1="990" x2="990" y1="180" y2="186"/>
  <line opacity="0.6" stroke="#1E3350" stroke-width="0.5" x1="990" x2="990" y1="186" y2="546.93"/>
  <text dominant-baseline="alphabetic" fill="#8BAAC8" font-family="DejaVu Sans, Arial, Helvetica, sans-serif" font-size="13.33" font-weight="400" text-anchor="middle" x="990" y="172">Nov</text>
  <line stroke="#2A4060" stroke-width="1" x1="1073" x2="1073" y1="180" y2="186"/>
  <line opacity="0.6" stroke="#1E3350" stroke-width="0.5" x1="1073" x2="1073" y1="186" y2="546.93"/>
  <text dominant-baseline="alphabetic" fill="#8BAAC8" font-family="DejaVu Sans, Arial, Helvetica, sans-serif" font-size="13.33" font-weight="400" text-anchor="middle" x="1073" y="172">Dec</text>
  <line opacity="0.3" stroke="#1E3350" stroke-width="1" x1="148" x2="1156" y1="330.93" y2="330.93"/>
  <text dominant-baseline="middle" fill="#B8CCE0" font-family="DejaVu Sans, Arial, Helvetica, sans-serif" font-size="14.67" font-weight="700" text-anchor="start" x="8" y="286.93">Discovery</text>
  <line opacity="0.3" stroke="#1E3350" stroke-width="1" x1="148" x2="1156" y1="438.93" y2="438.93"/>
  <text dominant-baseline="middle" fill="#B8CCE0" font-family="DejaVu Sans, Arial, Helvetica, sans-serif" font-size="14.67" font-weight="700" text-anchor="start" x="8" y="394.93">Development</text>
  <line opacity="0.3" stroke="#1E3350" stroke-width="1" x1="148" x2="1156" y1="546.93" y2="546.93"/>
  <text dominant-baseline="middle" fill="#B8CCE0" font-family="DejaVu Sans, Arial, Helvetica, sans-serif" font-size="14.67" font-weight="700" text-anchor="start" x="8" y="502.93">Quality &amp; Release</text>
  <rect fill="#607D8B" height="28" opacity="0.85" rx="8" stroke="#4A6070" stroke-width="0.5" width="72" x="159" y="256.93"/>
  <rect fill="#FFFFFF" height="5" opacity="0.35" rx="8" width="72" x="159" y="279.93"/>
  <text dominant-baseline="middle" fill="#8BAAC8" font-family="DejaVu Sans, Arial, Helvetica, sans-serif" font-size="13.33" font-weight="700" text-anchor="start" x="163" y="270.93">Stakehol…</text>
  <rect fill="#607D8B" height="28" opacity="0.85" rx="8" stroke="#4A6070" stroke-width="0.5" width="75" x="234" y="256.93"/>
  <rect fill="#FFFFFF" height="5" opacity="0.35" rx="8" width="75" x="234" y="279.93"/>
  <text dominant-baseline="middle" fill="#8BAAC8" font-family="DejaVu Sans, Arial, Helvetica, sans-serif" font-size="13.33" font-weight="700" text-anchor="start" x="238" y="270.93">Requirem…</text>
  <rect fill="#607D8B" height="28" opacity="0.85" rx="8" stroke="#4A6070" stroke-width="0.5" width="125" x="311" y="256.93"/>
  <rect fill="#FFFFFF" height="5" opacity="0.35" rx="8" width="125" x="311" y="279.93"/>
  <text dominant-baseline="middle" fill="#8BAAC8" font-family="DejaVu Sans, Arial, Helvetica, sans-serif" font-size="13.33" font-weight="700" text-anchor="start" x="315" y="270.93">Architecture Desi…</text>
  <rect fill="#607D8B" height="28" opacity="0.85" rx="8" stroke="#4A6070" stroke-width="0.5" width="125" x="311" y="364.93"/>
  <rect fill="#FFFFFF" height="5" opacity="0.35" rx="8" width="125" x="311" y="387.93"/>
  <text dominant-baseline="middle" fill="#8BAAC8" font-family="DejaVu Sans, Arial, Helvetica, sans-serif" font-size="13.33" font-weight="700" text-anchor="start" x="315" y="378.93">Sprint 1 — Founda…</text>
  <rect fill="#00B4D8" height="28" opacity="1" rx="8" stroke="#0090B0" stroke-width="0.5" width="166" x="439" y="364.93"/>
  <rect fill="#FFFFFF" height="5" opacity="0.35" rx="8" width="108" x="439" y="387.93"/>
  <text dominant-baseline="middle" fill="#8BAAC8" font-family="DejaVu Sans, Arial, Helvetica, sans-serif" font-size="13.33" font-weight="700" text-anchor="start" x="443" y="378.93">Sprint 2 — Core Features</text>
  <rect fill="#E05252" height="28" opacity="1" rx="8" stroke="#B03030" stroke-width="0.5" width="210" x="608" y="364.93"/>
  <text dominant-baseline="middle" fill="#8BAAC8" font-family="DejaVu Sans, Arial, Helvetica, sans-serif" font-size="13.33" font-weight="700" text-anchor="start" x="612" y="378.93">Sprint 3 — Integrations</text>
  <rect fill="#3A86C8" height="28" opacity="1" rx="8" stroke="#2A6A9E" stroke-width="0.5" width="166" x="821" y="364.93"/>
  <text dominant-baseline="middle" fill="#8BAAC8" font-family="DejaVu Sans, Arial, Helvetica, sans-serif" font-size="13.33" font-weight="700" text-anchor="start" x="825" y="378.93">Sprint 4 — Polish</text>
  <rect fill="#00B4D8" height="28" opacity="1" rx="8" stroke="#0090B0" stroke-width="0.5" width="166" x="480" y="472.93"/>
  <rect fill="#FFFFFF" height="5" opacity="0.35" rx="8" width="66" x="480" y="495.93"/>
  <text dominant-baseline="middle" fill="#8BAAC8" font-family="DejaVu Sans, Arial, Helvetica, sans-serif" font-size="13.33" font-weight="700" text-anchor="start" x="484" y="486.93">Regression Testing</text>
  <rect fill="#3A86C8" height="28" opacity="1" rx="8" stroke="#2A6A9E" stroke-width="0.5" width="252" x="649" y="472.93"/>
  <text dominant-baseline="middle" fill="#8BAAC8" font-family="DejaVu Sans, Arial, Helvetica, sans-serif" font-size="13.33" font-weight="700" text-anchor="start" x="653" y="486.93">Beta Program</text>
  <rect fill="#3A86C8" height="28" opacity="1" rx="8" stroke="#2A6A9E" stroke-width="0.5" width="166" x="904" y="472.93"/>
  <text dominant-baseline="middle" fill="#8BAAC8" font-family="DejaVu Sans, Arial, Helvetica, sans-serif" font-size="13.33" font-weight="700" text-anchor="start" x="908" y="486.93">Launch Preparation</text>
  <line opacity="0.45" stroke="#8BAAC8" stroke-width="0.75" x1="159" x2="159" y1="306.93" y2="314.93"/>
  <circle cx="159" cy="286.93" fill="#3A86C8" r="20" stroke="#0D1B2A" stroke-width="2"/>
  <path d="M 12 3 L 14.4 8.8 L 20.6 9.2 L 15.8 13.2 L 17.3 19.3 L 12 16 L 6.7 19.3 L 8.2 13.2 L 3.4 9.2 L 9.6 8.8 Z" fill="#0D1B2A" transform="translate(159,286.93) scale(1.0833) translate(-12,-12)"/>
  <text dominant-baseline="alphabetic" fill="#E8EEF5" font-family="DejaVu Sans, Arial, Helvetica, sans-serif" font-size="13.33" font-weight="600" text-anchor="middle" x="159" y="329.66">Project Kick-off</text>
  <text dominant-baseline="alphabetic" fill="#8BAAC8" font-family="DejaVu Sans, Arial, Helvetica, sans-serif" font-size="12" font-weight="400" text-anchor="middle" x="159" y="346.46">January 2026</text>
  <line opacity="0.45" stroke="#8BAAC8" stroke-width="0.75" x1="436" x2="436" y1="236.93" y2="374.93"/>
  <circle cx="436" cy="394.93" fill="#3A86C8" r="20" stroke="#0D1B2A" stroke-width="2"/>
  <path d="M 4 12 L 9.5 17.5 L 20 7" fill="none" stroke="#0D1B2A" stroke-linecap="round" stroke-width="2" transform="translate(436,394.93) scale(1.0833) translate(-12,-12)"/>
  <text dominant-baseline="alphabetic" fill="#E8EEF5" font-family="DejaVu Sans, Arial, Helvetica, sans-serif" font-size="13.33" font-weight="600" text-anchor="middle" x="436" y="214.73">Architecture Appro…</text>
  <text dominant-baseline="alphabetic" fill="#8BAAC8" font-family="DejaVu Sans, Arial, Helvetica, sans-serif" font-size="12" font-weight="400" text-anchor="middle" x="436" y="231.53">April 2026</text>
  <line opacity="0.45" stroke="#8BAAC8" stroke-width="0.75" x1="818" x2="818" y1="414.93" y2="422.93"/>
  <circle cx="818" cy="394.93" fill="#3A86C8" r="20" stroke="#0D1B2A" stroke-width="2"/>
  <path d="M 12 2 L 22 12 L 12 22 L 2 12 Z" fill="#0D1B2A" transform="translate(818,394.93) scale(1.0833) translate(-12,-12)"/>
  <text dominant-baseline="alphabetic" fill="#E8EEF5" font-family="DejaVu Sans, Arial, Helvetica, sans-serif" font-size="13.33" font-weight="600" text-anchor="middle" x="818" y="437.66">Feature Freeze</text>
  <text dominant-baseline="alphabetic" fill="#8BAAC8" font-family="DejaVu Sans, Arial, Helvetica, sans-serif" font-size="12" font-weight="400" text-anchor="middle" x="818" y="454.46">August 2026</text>
  <line opacity="0.45" stroke="#8BAAC8" stroke-width="0.75" x1="1029" x2="1029" y1="236.93" y2="482.93"/>
  <circle cx="1029" cy="502.93" fill="#3A86C8" r="20" stroke="#0D1B2A" stroke-width="2"/>
  <path d="M 12 2 L 16 11 L 15 11 L 15 18 L 9 18 L 9 11 L 8 11 Z M 9 18 L 6 22 L 9 16 Z M 15 18 L 18 22 L 15 16 Z" fill="#0D1B2A" transform="translate(1029,502.93) scale(1.0833) translate(-12,-12)"/>
  <text dominant-baseline="alphabetic" fill="#E8EEF5" font-family="DejaVu Sans, Arial, Helvetica, sans-serif" font-size="13.33" font-weight="600" text-anchor="middle" x="1029" y="214.73">Product Launch</text>
  <text dominant-baseline="alphabetic" fill="#8BAAC8" font-family="DejaVu Sans, Arial, Helvetica, sans-serif" font-size="12" font-weight="400" text-anchor="middle" x="1029" y="231.53">November 2026</text>
  <line opacity="0.45" stroke="#8BAAC8" stroke-width="0.75" x1="1073" x2="1073" y1="180" y2="190"/>
  <line opacity="0.25" stroke="#8BAAC8" stroke-dasharray="2,3" stroke-width="0.75" x1="1073" x2="1075" y1="186" y2="186"/>
  <line opacity="0.45" stroke="#8BAAC8" stroke-width="0.75" x1="1075" x2="1075" y1="522.93" y2="530.93"/>
  <circle cx="1075" cy="502.93" fill="#3A86C8" r="20" stroke="#0D1B2A" stroke-width="2"/>
  <path d="M 4 2 L 4 21 L 6 21 L 6 17 L 18 11 L 6 5 Z" fill="#0D1B2A" transform="translate(1075,502.93) scale(1.0833) translate(-12,-12)"/>
  <text dominant-baseline="alphabetic" fill="#E8EEF5" font-family="DejaVu Sans, Arial, Helvetica, sans-serif" font-size="13.33" font-weight="600" text-anchor="middle" x="1075" y="545.66">General Availability</text>
  <text dominant-baseline="alphabetic" fill="#8BAAC8" font-family="DejaVu Sans, Arial, Helvetica, sans-serif" font-size="12" font-weight="400" text-anchor="middle" x="1075" y="562.46">December 2026</text>
  <rect fill="#1E3350" height="140.67" opacity="0.95" rx="4" stroke="#2A4060" stroke-width="1" width="170" x="970" y="417.19"/>
  <text dominant-baseline="alphabetic" fill="#E8EEF5" font-family="DejaVu Sans, Arial, Helvetica, sans-serif" font-size="13.33" font-weight="700" text-anchor="start" x="980" y="440.53">Legend</text>
  <rect fill="#607D8B" height="12" rx="2" width="12" x="980" y="453.06"/>
  <text dominant-baseline="middle" fill="#8BAAC8" font-family="DejaVu Sans, Arial, Helvetica, sans-serif" font-size="12" font-weight="400" text-anchor="start" x="1000" y="459.06">done</text>
  <rect fill="#00B4D8" height="12" rx="2" width="12" x="980" y="473.46"/>
  <text dominant-baseline="middle" fill="#8BAAC8" font-family="DejaVu Sans, Arial, Helvetica, sans-serif" font-size="12" font-weight="400" text-anchor="start" x="1000" y="479.46">in-progress</text>
  <rect fill="#E05252" height="12" rx="2" width="12" x="980" y="493.86"/>
  <text dominant-baseline="middle" fill="#8BAAC8" font-family="DejaVu Sans, Arial, Helvetica, sans-serif" font-size="12" font-weight="400" text-anchor="start" x="1000" y="499.86">blocked</text>
  <rect fill="#3A86C8" height="12" rx="2" width="12" x="980" y="514.26"/>
  <text dominant-baseline="middle" fill="#8BAAC8" font-family="DejaVu Sans, Arial, Helvetica, sans-serif" font-size="12" font-weight="400" text-anchor="start" x="1000" y="520.26">planned</text>
  <rect fill="#3A86C8" height="12" rx="2" width="12" x="980" y="534.66"/>
  <text dominant-baseline="middle" fill="#8BAAC8" font-family="DejaVu Sans, Arial, Helvetica, sans-serif" font-size="12" font-weight="400" text-anchor="start" x="1000" y="540.66">standard-node</text>
</svg>