<?xml version="1.0" encoding="UTF-8"?>
<svg height="558" version="1.1" viewBox="0 0 1200 558" width="1200" xmlns="http://www.w3.org/2000/svg">
<defs>
  <linearGradient gradientUnits="userSpaceOnUse" id="sg-90-166-1110-486-59cee6-0099b8" x1="90" x2="1110" y1="166" y2="486">
    <stop offset="0%" stop-color="#59cee6"/>
    <stop offset="100%" stop-color="#0099b8"/>
  </linearGradient>
</defs>

  <rect fill="#0D1B2A" height="558" width="1200" x="0" y="0"/>
  <text dominant-baseline="hanging" fill="#E8EEF5" font-family="DejaVu Sans, Arial, Helvetica, sans-serif" font-size="29.33" font-weight="700" text-anchor="middle" x="600" y="35.47">Project Journey</text>
  <text dominant-baseline="hanging" fill="#8BAAC8" font-family="DejaVu Sans, Arial, Helvetica, sans-serif" font-size="18.67" font-weight="400" text-anchor="middle" x="600" y="80.47">A winding path of milestones — 2020 to 2024</text>
  <path d="M 90 166 L 1110 166 A 80 80 0 1 1 1110 326 L 90 326 A 80 80 0 1 0 90 486 L 1110 486" fill="none" opacity="0.6" stroke="#59cee6" stroke-linecap="round" stroke-width="18" transform="translate(0,0)"/>
  <path d="M 90 166 L 1110 166 A 80 80 0 1 1 1110 326 L 90 326 A 80 80 0 1 0 90 486 L 1110 486" fill="none" stroke="url(#sg-90-166-1110-486-59cee6-0099b8)" stroke-linecap="round" stroke-width="14"/>
  <circle cx="287.93" cy="166" fill="#0D1B2A" r="10" stroke="#00B4D8" stroke-width="3"/>
  <text dominant-baseline="hanging" fill="#E8EEF5" font-family="DejaVu Sans, Arial, Helvetica, sans-serif" font-size="12" font-weight="700" text-anchor="middle" x="287.93" y="189.6">Kickoff</text>
  <circle cx="683.78" cy="166" fill="#0D1B2A" r="10" stroke="#00B4D8" stroke-width="3"/>
  <text dominant-baseline="hanging" fill="#E8EEF5" font-family="DejaVu Sans, Arial, Helvetica, sans-serif" font-size="12" font-weight="700" text-anchor="middle" x="683.78" y="189.6">Alpha</text>
  <circle cx="1079.63" cy="166" fill="#0D1B2A" r="10" stroke="#00B4D8" stroke-width="3"/>
  <text dominant-baseline="hanging" fill="#E8EEF5" font-family="DejaVu Sans, Arial, Helvetica, sans-serif" font-size="12" font-weight="700" text-anchor="middle" x="1079.63" y="189.6">Beta Launch</text>
  <circle cx="995.85" cy="326" fill="#0D1B2A" r="10" stroke="#00B4D8" stroke-width="3"/>
  <text dominant-baseline="alphabetic" fill="#E8EEF5" font-family="DejaVu Sans, Arial, Helvetica, sans-serif" font-size="12" font-weight="700" text-anchor="middle" x="995.85" y="312">V1.0 Release</text>
  <circle cx="600" cy="326" fill="#0D1B2A" r="10" stroke="#00B4D8" stroke-width="3"/>
  <text dominant-baseline="alphabetic" fill="#E8EEF5" font-family="DejaVu Sans, Arial, Helvetica, sans-serif" font-size="12" font-weight="700" text-anchor="middle" x="600" y="312">Open Source</text>
  <circle cx="204.15" cy="326" fill="#0D1B2A" r="10" stroke="#00B4D8" stroke-width="3"/>
  <text dominant-baseline="alphabetic" fill="#E8EEF5" font-family="DejaVu Sans, Arial, Helvetica, sans-serif" font-size="12" font-weight="700" text-anchor="middle" x="204.15" y="312">Cloud Platform</text>
  <circle cx="120.38" cy="486" fill="#0D1B2A" r="10" stroke="#00B4D8" stroke-width="3"/>
  <text dominant-baseline="hanging" fill="#E8EEF5" font-family="DejaVu Sans, Arial, Helvetica, sans-serif" font-size="12" font-weight="700" text-anchor="middle" x="120.38" y="509.6">Enterprise V2</text>
  <circle cx="516.23" cy="486" fill="#0D1B2A" r="10" stroke="#00B4D8" stroke-width="3"/>
  <text dominant-baseline="hanging" fill="#E8EEF5" font-family="DejaVu Sans, Arial, Helvetica, sans-serif" font-size="12" font-weight="700" text-anchor="middle" x="516.23" y="509.6">API v3</text>
  <circle cx="912.08" cy="486" fill="#0D1B2A" r="10" stroke="#00B4D8" stroke-width="3"/>
  <text dominant-baseline="hanging" fill="#E8EEF5" font-family="DejaVu Sans, Arial, Helvetica, sans-serif" font-size="12" font-weight="700" text-anchor="middle" x="912.08" y="509.6">V4 Milestone</text>
  <circle cx="90" cy="166" fill="#0090ad" r="22" stroke="#0090ad" stroke-width="2"/>
  <path d="M 5 3 L 21 12 L 5 21 Z" fill="#FFFFFF" stroke-linecap="round" transform="translate(75.72,151.72) scale(1.19)"/>
  <circle cx="1110" cy="486" fill="#0090ad" r="22" stroke="#0090ad" stroke-width="2"/>
  <path d="M 3 12 A 9 9 0 1 0 21 12 A 9 9 0 1 0 3 12 M 7 12 A 5 5 0 1 0 17 12 A 5 5 0 1 0 7 12 M 10 12 A 2 2 0 1 0 14 12 A 2 2 0 1 0 10 12" fill="none" stroke="#FFFFFF" stroke-linecap="round" stroke-width="1.26" transform="translate(1095.72,471.72) scale(1.19)"/>
</svg>