<?xml version="1.0" encoding="UTF-8"?>
<svg height="2258" version="1.1" viewBox="0 0 1200 2258" width="1200" xmlns="http://www.w3.org/2000/svg">
  <rect fill="#FFFFFF" height="2258" width="1200" x="0" y="0"/>
  <rect fill="#1F497D" height="489" opacity="0.04" width="1200" x="0" y="160"/>
  <text dominant-baseline="alphabetic" fill="#1F497D" font-family="DejaVu Sans, Arial, Helvetica, sans-serif" font-size="12" font-weight="700" opacity="0.7" text-anchor="start" x="4" y="176">Foundation Phase</text>
  <text dominant-baseline="alphabetic" fill="#1F497D" font-family="DejaVu Sans, Arial, Helvetica, sans-serif" font-size="12" font-weight="700" opacity="0.7" text-anchor="start" x="4" y="671">Build Phase</text>
  <rect fill="#1F497D" height="1005" opacity="0.04" width="1200" x="0" y="1155"/>
  <text dominant-baseline="alphabetic" fill="#1F497D" font-family="DejaVu Sans, Arial, Helvetica, sans-serif" font-size="12" font-weight="700" opacity="0.7" text-anchor="start" x="4" y="1171">Scale Phase</text>
  <text dominant-baseline="alphabetic" fill="#111111" font-family="DejaVu Sans, Arial, Helvetica, sans-serif" font-size="26.67" font-weight="700" text-anchor="middle" x="600" y="86.67">Enterprise Transformation Programme</text>
  <text dominant-baseline="alphabetic" fill="#111111" font-family="DejaVu Sans, Arial, Helvetica, sans-serif" font-size="17.33" font-weight="400" opacity="0.75" text-anchor="middle" x="600" y="118.33">2026 Execution Roadmap</text>
  <line opacity="0.35" stroke="#333333" stroke-width="0.5" x1="0" x2="1160" y1="130" y2="130"/>
  <rect fill="#888888" height="270" opacity="0.6" width="6" x="597" y="209"/>
  <rect fill="#888888" height="675" opacity="0.6" width="6" x="597" y="309"/>
  <rect fill="#888888" height="140" opacity="0.6" width="6" x="597" y="509"/>
  <rect fill="#1F497D" height="881" opacity="0.7" width="6" x="597" y="609"/>
  <rect fill="#1F497D" height="440" opacity="0.7" width="6" x="597" y="709"/>
  <rect fill="#D97706" height="5" opacity="0.7" width="6" x="597" y="809"/>
  <rect fill="#1F497D" height="310" opacity="0.7" width="6" x="597" y="1009"/>
  <rect fill="#1F497D" height="210" opacity="0.7" width="6" x="597" y="1109"/>
  <rect fill="#1F497D" height="346" opacity="0.7" width="6" x="597" y="1309"/>
  <rect fill="#1F497D" height="146" opacity="0.7" width="6" x="597" y="1509"/>
  <rect fill="#1F497D" height="551" opacity="0.7" width="6" x="597" y="1609"/>
  <rect fill="#1F497D" height="451" opacity="0.7" width="6" x="597" y="1709"/>
  <rect fill="#1F497D" height="351" opacity="0.7" width="6" x="597" y="1809"/>
  <rect fill="#1F497D" height="151" opacity="0.7" width="6" x="597" y="2009"/>
  <line stroke="#333333" stroke-width="2" x1="600" x2="600" y1="160" y2="2160"/>
  <line opacity="0.5" stroke="#333333" stroke-width="1" x1="592" x2="608" y1="160" y2="160"/>
  <text dominant-baseline="alphabetic" fill="#555555" font-family="DejaVu Sans, Arial, Helvetica, sans-serif" font-size="12" font-weight="400" opacity="0.6" text-anchor="start" x="614" y="158">Q1 2026</text>
  <line opacity="0.5" stroke="#333333" stroke-width="1" x1="592" x2="608" y1="655" y2="655"/>
  <text dominant-baseline="alphabetic" fill="#555555" font-family="DejaVu Sans, Arial, Helvetica, sans-serif" font-size="12" font-weight="400" opacity="0.6" text-anchor="start" x="614" y="653">Q2</text>
  <line opacity="0.5" stroke="#333333" stroke-width="1" x1="592" x2="608" y1="1155" y2="1155"/>
  <text dominant-baseline="alphabetic" fill="#555555" font-family="DejaVu Sans, Arial, Helvetica, sans-serif" font-size="12" font-weight="400" opacity="0.6" text-anchor="start" x="614" y="1153">Q3</text>
  <line opacity="0.5" stroke="#333333" stroke-width="1" x1="592" x2="608" y1="1660" y2="1660"/>
  <text dominant-baseline="alphabetic" fill="#555555" font-family="DejaVu Sans, Arial, Helvetica, sans-serif" font-size="12" font-weight="400" opacity="0.6" text-anchor="start" x="614" y="1658">Q4</text>
  <line opacity="0.85" stroke="#DC2626" stroke-width="1.5" x1="0" x2="1160" y1="1039" y2="1039"/>
  <text dominant-baseline="alphabetic" fill="#DC2626" font-family="DejaVu Sans, Arial, Helvetica, sans-serif" font-size="12" font-weight="600" opacity="0.9" text-anchor="start" x="4" y="1036">Today</text>
  <line opacity="0.7" stroke="#DC2626" stroke-width="1.5" x1="1144" x2="1144" y1="160" y2="1149"/>
  <line opacity="0.7" stroke="#DC2626" stroke-width="1.5" x1="1140" x2="1148" y1="160" y2="160"/>
  <line opacity="0.7" stroke="#DC2626" stroke-width="1.5" x1="1140" x2="1148" y1="1149" y2="1149"/>
  <text dominant-baseline="middle" fill="#DC2626" font-family="DejaVu Sans, Arial, Helvetica, sans-serif" font-size="12" font-weight="400" opacity="0.75" text-anchor="end" x="1136" y="654.5">H1 Focus</text>
  <line opacity="0.8" stroke="#888888" stroke-width="1.5" x1="611" x2="648" y1="209" y2="209"/>
  <text dominant-baseline="alphabetic" fill="#555555" font-family="DejaVu Sans, Arial, Helvetica, sans-serif" font-size="13.33" font-weight="400" text-anchor="start" x="658" y="201.65">10th January 2026</text>
  <text dominant-baseline="alphabetic" fill="#111111" font-family="DejaVu Sans, Arial, Helvetica, sans-serif" font-size="16" font-weight="600" text-anchor="start" x="658" y="229.65">Vision &amp; Alignment Workshop</text>
  <line opacity="0.8" stroke="#888888" stroke-width="1.5" x1="589" x2="552" y1="309" y2="309"/>
  <text dominant-baseline="alphabetic" fill="#555555" font-family="DejaVu Sans, Arial, Helvetica, sans-serif" font-size="13.33" font-weight="400" text-anchor="end" x="542" y="301.65">15th January 2026</text>
  <text dominant-baseline="alphabetic" fill="#111111" font-family="DejaVu Sans, Arial, Helvetica, sans-serif" font-size="16" font-weight="600" text-anchor="end" x="542" y="329.65">Cloud Migration</text>
  <line opacity="0.8" stroke="#1F497D" stroke-width="1.5" x1="611" x2="648" y1="409" y2="409"/>
  <text dominant-baseline="alphabetic" fill="#555555" font-family="DejaVu Sans, Arial, Helvetica, sans-serif" font-size="13.33" font-weight="400" text-anchor="start" x="658" y="391.15">15th January 2026</text>
  <text dominant-baseline="alphabetic" fill="#111111" font-family="DejaVu Sans, Arial, Helvetica, sans-serif" font-size="16" font-weight="600" text-anchor="start" x="658" y="419.15">Programme Kickoff</text>
  <text dominant-baseline="alphabetic" fill="#555555" font-family="DejaVu Sans, Arial, Helvetica, sans-serif" font-size="12" font-weight="400" opacity="0.85" text-anchor="start" x="658" y="440.15">All workstreams initiated</text>
  <circle cx="958" cy="384.5" fill="#1F497D" opacity="0.85" r="10"/>
  <path d="M 12 3 L 14.4 8.8 L 20.6 9.2 L 15.8 13.2 L 17.3 19.3 L 12 16 L 6.7 19.3 L 8.2 13.2 L 3.4 9.2 L 9.6 8.8 Z" fill="#FFFFFF" transform="translate(958,384.5) scale(0.5417) translate(-12,-12)"/>
  <line opacity="0.8" stroke="#888888" stroke-width="1.5" x1="589" x2="552" y1="509" y2="509"/>
  <text dominant-baseline="alphabetic" fill="#555555" font-family="DejaVu Sans, Arial, Helvetica, sans-serif" font-size="13.33" font-weight="400" text-anchor="end" x="542" y="501.65">20th January 2026</text>
  <text dominant-baseline="alphabetic" fill="#111111" font-family="DejaVu Sans, Arial, Helvetica, sans-serif" font-size="16" font-weight="600" text-anchor="end" x="542" y="529.65">Process Mapping</text>
  <line opacity="0.8" stroke="#1F497D" stroke-width="1.5" x1="611" x2="648" y1="609" y2="609"/>
  <text dominant-baseline="alphabetic" fill="#555555" font-family="DejaVu Sans, Arial, Helvetica, sans-serif" font-size="13.33" font-weight="400" text-anchor="start" x="658" y="601.65">1st February 2026</text>
  <text dominant-baseline="alphabetic" fill="#111111" font-family="DejaVu Sans, Arial, Helvetica, sans-serif" font-size="16" font-weight="600" text-anchor="start" x="658" y="629.65">Change Management Programme</text>
  <line opacity="0.8" stroke="#1F497D" stroke-width="1.5" x1="589" x2="552" y1="709" y2="709"/>
  <text dominant-baseline="alphabetic" fill="#555555" font-family="DejaVu Sans, Arial, Helvetica, sans-serif" font-size="13.33" font-weight="400" text-anchor="end" x="542" y="701.65">1st March 2026</text>
  <text dominant-baseline="alphabetic" fill="#111111" font-family="DejaVu Sans, Arial, Helvetica, sans-serif" font-size="16" font-weight="600" text-anchor="end" x="542" y="729.65">Operating Model Design</text>
  <line opacity="0.8" stroke="#D97706" stroke-width="1.5" x1="611" x2="648" y1="809" y2="809"/>
  <text dominant-baseline="alphabetic" fill="#555555" font-family="DejaVu Sans, Arial, Helvetica, sans-serif" font-size="13.33" font-weight="400" text-anchor="start" x="658" y="801.65">1st March 2026</text>
  <text dominant-baseline="alphabetic" fill="#111111" font-family="DejaVu Sans, Arial, Helvetica, sans-serif" font-size="16" font-weight="600" text-anchor="start" x="658" y="829.65">Security Hardening</text>
  <line opacity="0.8" stroke="#1F497D" stroke-width="1.5" x1="589" x2="552" y1="909" y2="909"/>
  <text dominant-baseline="alphabetic" fill="#555555" font-family="DejaVu Sans, Arial, Helvetica, sans-serif" font-size="13.33" font-weight="400" text-anchor="end" x="542" y="901.65">31st March 2026</text>
  <text dominant-baseline="alphabetic" fill="#111111" font-family="DejaVu Sans, Arial, Helvetica, sans-serif" font-size="16" font-weight="600" text-anchor="end" x="542" y="929.65">Q1 Gate Review</text>
  <circle cx="242" cy="895" fill="#1F497D" opacity="0.85" r="10"/>
  <path d="M 4 12 L 9.5 17.5 L 20 7" fill="none" stroke="#FFFFFF" stroke-linecap="round" stroke-width="2" transform="translate(242,895) scale(0.5417) translate(-12,-12)"/>
  <line opacity="0.8" stroke="#1F497D" stroke-width="1.5" x1="611" x2="648" y1="1009" y2="1009"/>
  <text dominant-baseline="alphabetic" fill="#555555" font-family="DejaVu Sans, Arial, Helvetica, sans-serif" font-size="13.33" font-weight="400" text-anchor="start" x="658" y="1001.65">1st April 2026</text>
  <text dominant-baseline="alphabetic" fill="#111111" font-family="DejaVu Sans, Arial, Helvetica, sans-serif" font-size="16" font-weight="600" text-anchor="start" x="658" y="1029.65">API Modernization</text>
  <line opacity="0.8" stroke="#1F497D" stroke-width="1.5" x1="589" x2="552" y1="1109" y2="1109"/>
  <text dominant-baseline="alphabetic" fill="#555555" font-family="DejaVu Sans, Arial, Helvetica, sans-serif" font-size="13.33" font-weight="400" text-anchor="end" x="542" y="1101.65">1st April 2026</text>
  <text dominant-baseline="alphabetic" fill="#111111" font-family="DejaVu Sans, Arial, Helvetica, sans-serif" font-size="16" font-weight="600" text-anchor="end" x="542" y="1129.65">Automation Wave 1</text>
  <line opacity="0.8" stroke="#888888" stroke-width="1.5" x1="611" x2="648" y1="1209" y2="1209"/>
  <text dominant-baseline="alphabetic" fill="#555555" font-family="DejaVu Sans, Arial, Helvetica, sans-serif" font-size="13.33" font-weight="400" text-anchor="start" x="658" y="1201.65">31st May 2026</text>
  <text dominant-baseline="alphabetic" fill="#111111" font-family="DejaVu Sans, Arial, Helvetica, sans-serif" font-size="16" font-weight="600" text-anchor="start" x="658" y="1229.65">Cloud Migration Complete</text>
  <circle cx="958" cy="1195" fill="#888888" opacity="0.85" r="10"/>
  <path d="M 6 19 L 18 19 A 4 4 0 0 0 18 12 A 5 5 0 0 0 11 8 A 4 4 0 0 0 4 12 A 4 4 0 0 0 6 19 Z" fill="none" stroke="#FFFFFF" stroke-linecap="round" stroke-width="2" transform="translate(958,1195) scale(0.5417) translate(-12,-12)"/>
  <line opacity="0.8" stroke="#1F497D" stroke-width="1.5" x1="589" x2="552" y1="1309" y2="1309"/>
  <text dominant-baseline="alphabetic" fill="#555555" font-family="DejaVu Sans, Arial, Helvetica, sans-serif" font-size="13.33" font-weight="400" text-anchor="end" x="542" y="1301.65">1st June 2026</text>
  <text dominant-baseline="alphabetic" fill="#111111" font-family="DejaVu Sans, Arial, Helvetica, sans-serif" font-size="16" font-weight="600" text-anchor="end" x="542" y="1329.65">Training Rollout</text>
  <line opacity="0.8" stroke="#1F497D" stroke-width="1.5" x1="611" x2="648" y1="1409" y2="1409"/>
  <text dominant-baseline="alphabetic" fill="#555555" font-family="DejaVu Sans, Arial, Helvetica, sans-serif" font-size="13.33" font-weight="400" text-anchor="start" x="658" y="1391.15">30th June 2026</text>
  <text dominant-baseline="alphabetic" fill="#111111" font-family="DejaVu Sans, Arial, Helvetica, sans-serif" font-size="16" font-weight="600" text-anchor="start" x="658" y="1419.15">Mid-Year Executive Review</text>
  <text dominant-baseline="alphabetic" fill="#555555" font-family="DejaVu Sans, Arial, Helvetica, sans-serif" font-size="12" font-weight="400" opacity="0.85" text-anchor="start" x="658" y="1440.15">Dependent on API delivery</text>
  <circle cx="958" cy="1384.5" fill="#1F497D" opacity="0.85" r="10"/>
  <path d="M 2 5 L 2 22 L 22 22 L 22 5 Z M 2 10 L 22 10 M 8 2 L 8 7 M 16 2 L 16 7 M 6 14 L 9 14 M 13 14 L 16 14 M 6 18 L 9 18 M 13 18 L 16 18" fill="none" stroke="#FFFFFF" stroke-linecap="round" stroke-width="2" transform="translate(958,1384.5) scale(0.5417) translate(-12,-12)"/>
  <line opacity="0.8" stroke="#1F497D" stroke-width="1.5" x1="589" x2="552" y1="1509" y2="1509"/>
  <text dominant-baseline="alphabetic" fill="#555555" font-family="DejaVu Sans, Arial, Helvetica, sans-serif" font-size="13.33" font-weight="400" text-anchor="end" x="542" y="1501.65">1st July 2026</text>
  <text dominant-baseline="alphabetic" fill="#111111" font-family="DejaVu Sans, Arial, Helvetica, sans-serif" font-size="16" font-weight="600" text-anchor="end" x="542" y="1529.65">Market Analysis</text>
  <line opacity="0.8" stroke="#1F497D" stroke-width="1.5" x1="611" x2="648" y1="1609" y2="1609"/>
  <text dominant-baseline="alphabetic" fill="#555555" font-family="DejaVu Sans, Arial, Helvetica, sans-serif" font-size="13.33" font-weight="400" text-anchor="start" x="658" y="1601.65">1st August 2026</text>
  <text dominant-baseline="alphabetic" fill="#111111" font-family="DejaVu Sans, Arial, Helvetica, sans-serif" font-size="16" font-weight="600" text-anchor="start" x="658" y="1629.65">Automation Wave 2</text>
  <line opacity="0.8" stroke="#1F497D" stroke-width="1.5" x1="589" x2="552" y1="1709" y2="1709"/>
  <text dominant-baseline="alphabetic" fill="#555555" font-family="DejaVu Sans, Arial, Helvetica, sans-serif" font-size="13.33" font-weight="400" text-anchor="end" x="542" y="1701.65">1st August 2026</text>
  <text dominant-baseline="alphabetic" fill="#111111" font-family="DejaVu Sans, Arial, Helvetica, sans-serif" font-size="16" font-weight="600" text-anchor="end" x="542" y="1729.65">Data Platform v2</text>
  <line opacity="0.8" stroke="#1F497D" stroke-width="1.5" x1="611" x2="648" y1="1809" y2="1809"/>
  <text dominant-baseline="alphabetic" fill="#555555" font-family="DejaVu Sans, Arial, Helvetica, sans-serif" font-size="13.33" font-weight="400" text-anchor="start" x="658" y="1801.65">1st September 2026</text>
  <text dominant-baseline="alphabetic" fill="#111111" font-family="DejaVu Sans, Arial, Helvetica, sans-serif" font-size="16" font-weight="600" text-anchor="start" x="658" y="1829.65">Leadership Development</text>
  <line opacity="0.8" stroke="#1F497D" stroke-width="1.5" x1="589" x2="552" y1="1909" y2="1909"/>
  <text dominant-baseline="alphabetic" fill="#555555" font-family="DejaVu Sans, Arial, Helvetica, sans-serif" font-size="13.33" font-weight="400" text-anchor="end" x="542" y="1901.65">30th September 2026</text>
  <text dominant-baseline="alphabetic" fill="#111111" font-family="DejaVu Sans, Arial, Helvetica, sans-serif" font-size="16" font-weight="600" text-anchor="end" x="542" y="1929.65">Q3 Gate Review</text>
  <circle cx="242" cy="1895" fill="#1F497D" opacity="0.85" r="10"/>
  <path d="M 4 12 L 9.5 17.5 L 20 7" fill="none" stroke="#FFFFFF" stroke-linecap="round" stroke-width="2" transform="translate(242,1895) scale(0.5417) translate(-12,-12)"/>
  <line opacity="0.8" stroke="#1F497D" stroke-width="1.5" x1="611" x2="648" y1="2009" y2="2009"/>
  <text dominant-baseline="alphabetic" fill="#555555" font-family="DejaVu Sans, Arial, Helvetica, sans-serif" font-size="13.33" font-weight="400" text-anchor="start" x="658" y="2001.65">1st October 2026</text>
  <text dominant-baseline="alphabetic" fill="#111111" font-family="DejaVu Sans, Arial, Helvetica, sans-serif" font-size="16" font-weight="600" text-anchor="start" x="658" y="2029.65">Go-to-Market Strategy</text>
  <line opacity="0.8" stroke="#1F497D" stroke-width="1.5" x1="589" x2="552" y1="2109" y2="2109"/>
  <text dominant-baseline="alphabetic" fill="#555555" font-family="DejaVu Sans, Arial, Helvetica, sans-serif" font-size="13.33" font-weight="400" text-anchor="end" x="542" y="2101.65">15th December 2026</text>
  <text dominant-baseline="alphabetic" fill="#111111" font-family="DejaVu Sans, Arial, Helvetica, sans-serif" font-size="16" font-weight="600" text-anchor="end" x="542" y="2129.65">Year-End Delivery</text>
  <circle cx="242" cy="2095" fill="#1F497D" opacity="0.85" r="10"/>
  <path d="M 4 2 L 4 21 L 6 21 L 6 17 L 18 11 L 6 5 Z" fill="#FFFFFF" transform="translate(242,2095) scale(0.5417) translate(-12,-12)"/>
  <circle cx="600" cy="209" fill="#888888" r="11" stroke="#FFFFFF" stroke-width="1.5"/>
  <circle cx="600" cy="309" fill="#888888" r="11" stroke="#FFFFFF" stroke-width="1.5"/>
  <circle cx="600" cy="409" fill="#1F497D" r="11" stroke="#FFFFFF" stroke-width="1.5"/>
  <path d="M 12 3 L 14.4 8.8 L 20.6 9.2 L 15.8 13.2 L 17.3 19.3 L 12 16 L 6.7 19.3 L 8.2 13.2 L 3.4 9.2 L 9.6 8.8 Z" fill="#FFFFFF" transform="translate(600,409) scale(0.5958) translate(-12,-12)"/>
  <circle cx="600" cy="509" fill="#888888" r="11" stroke="#FFFFFF" stroke-width="1.5"/>
  <circle cx="600" cy="609" fill="#1F497D" r="11" stroke="#FFFFFF" stroke-width="1.5"/>
  <circle cx="600" cy="709" fill="#1F497D" r="11" stroke="#FFFFFF" stroke-width="1.5"/>
  <circle cx="600" cy="809" fill="#D97706" r="11" stroke="#FFFFFF" stroke-width="1.5"/>
  <circle cx="600" cy="909" fill="#1F497D" r="11" stroke="#FFFFFF" stroke-width="1.5"/>
  <path d="M 4 12 L 9.5 17.5 L 20 7" fill="none" stroke="#FFFFFF" stroke-linecap="round" stroke-width="2" transform="translate(600,909) scale(0.5958) translate(-12,-12)"/>
  <circle cx="600" cy="1009" fill="#1F497D" r="11" stroke="#FFFFFF" stroke-width="1.5"/>
  <circle cx="600" cy="1109" fill="#1F497D" r="11" stroke="#FFFFFF" stroke-width="1.5"/>
  <circle cx="600" cy="1209" fill="#888888" r="11" stroke="#FFFFFF" stroke-width="1.5"/>
  <path d="M 6 19 L 18 19 A 4 4 0 0 0 18 12 A 5 5 0 0 0 11 8 A 4 4 0 0 0 4 12 A 4 4 0 0 0 6 19 Z" fill="none" stroke="#FFFFFF" stroke-linecap="round" stroke-width="2" transform="translate(600,1209) scale(0.5958) translate(-12,-12)"/>
  <circle cx="600" cy="1309" fill="#1F497D" r="11" stroke="#FFFFFF" stroke-width="1.5"/>
  <circle cx="600" cy="1409" fill="#1F497D" r="11" stroke="#FFFFFF" stroke-width="1.5"/>
  <path d="M 2 5 L 2 22 L 22 22 L 22 5 Z M 2 10 L 22 10 M 8 2 L 8 7 M 16 2 L 16 7 M 6 14 L 9 14 M 13 14 L 16 14 M 6 18 L 9 18 M 13 18 L 16 18" fill="none" stroke="#FFFFFF" stroke-linecap="round" stroke-width="2" transform="translate(600,1409) scale(0.5958) translate(-12,-12)"/>
  <circle cx="600" cy="1509" fill="#1F497D" r="11" stroke="#FFFFFF" stroke-width="1.5"/>
  <circle cx="600" cy="1609" fill="#1F497D" r="11" stroke="#FFFFFF" stroke-width="1.5"/>
  <circle cx="600" cy="1709" fill="#1F497D" r="11" stroke="#FFFFFF" stroke-width="1.5"/>
  <circle cx="600" cy="1809" fill="#1F497D" r="11" stroke="#FFFFFF" stroke-width="1.5"/>
  <circle cx="600" cy="1909" fill="#1F497D" r="11" stroke="#FFFFFF" stroke-width="1.5"/>
  <path d="M 4 12 L 9.5 17.5 L 20 7" fill="none" stroke="#FFFFFF" stroke-linecap="round" stroke-width="2" transform="translate(600,1909) scale(0.5958) translate(-12,-12)"/>
  <circle cx="600" cy="2009" fill="#1F497D" r="11" stroke="#FFFFFF" stroke-width="1.5"/>
  <circle cx="600" cy="2109" fill="#1F497D" r="11" stroke="#FFFFFF" stroke-width="1.5"/>
  <path d="M 4 2 L 4 21 L 6 21 L 6 17 L 18 11 L 6 5 Z" fill="#FFFFFF" transform="translate(600,2109) scale(0.5958) translate(-12,-12)"/>
  <line opacity="0.5" stroke="#555555" stroke-dasharray="3,3" stroke-width="1" x1="600" x2="658" y1="1149" y2="1149"/>
  <rect fill="#FFFFFF" height="24" opacity="0.92" rx="3" stroke="#DC2626" stroke-width="1" width="110" x="658" y="1137"/>
  <text dominant-baseline="middle" fill="#555555" font-family="DejaVu Sans, Arial, Helvetica, sans-serif" font-size="12" font-weight="400" text-anchor="middle" x="713" y="1149">Review Gate</text>
  <rect fill="#FFFFFF" height="120.27" opacity="0.95" rx="4" stroke="#CCCCCC" stroke-width="1" width="160" x="984" y="2073.73"/>
  <text dominant-baseline="alphabetic" fill="#111111" font-family="DejaVu Sans, Arial, Helvetica, sans-serif" font-size="13.33" font-weight="700" text-anchor="start" x="994" y="2097.07">Status Legend</text>
  <rect fill="#888888" height="12" rx="0" width="12" x="994" y="2109.6"/>
  <text dominant-baseline="middle" fill="#333333" font-family="DejaVu Sans, Arial, Helvetica, sans-serif" font-size="12" font-weight="400" text-anchor="start" x="1014" y="2115.6">Done</text>
  <rect fill="#1F497D" height="12" rx="0" width="12" x="994" y="2130"/>
  <text dominant-baseline="middle" fill="#333333" font-family="DejaVu Sans, Arial, Helvetica, sans-serif" font-size="12" font-weight="400" text-anchor="start" x="1014" y="2136">In Progress</text>
  <rect fill="#D97706" height="12" rx="0" width="12" x="994" y="2150.4"/>
  <text dominant-baseline="middle" fill="#333333" font-family="DejaVu Sans, Arial, Helvetica, sans-serif" font-size="12" font-weight="400" text-anchor="start" x="1014" y="2156.4">At Risk</text>
  <rect fill="#1F497D" height="12" rx="0" width="12" x="994" y="2170.8"/>
  <text dominant-baseline="middle" fill="#333333" font-family="DejaVu Sans, Arial, Helvetica, sans-serif" font-size="12" font-weight="400" text-anchor="start" x="1014" y="2176.8">Planned</text>
</svg>