<?xml version="1.0" encoding="UTF-8"?>
<svg height="2280" version="1.1" viewBox="0 0 1200 2280" width="1200" xmlns="http://www.w3.org/2000/svg">
  <rect fill="#0D1B2A" height="2280" width="1200" x="0" y="0"/>
  <rect fill="#3A86C8" height="489" opacity="0.06" width="1200" x="0" y="174"/>
  <text dominant-baseline="alphabetic" fill="#8BAAC8" font-family="DejaVu Sans, Arial, Helvetica, sans-serif" font-size="12" font-weight="700" opacity="0.8" text-anchor="start" x="4" y="190">Foundation Phase</text>
  <text dominant-baseline="alphabetic" fill="#8BAAC8" font-family="DejaVu Sans, Arial, Helvetica, sans-serif" font-size="12" font-weight="700" opacity="0.8" text-anchor="start" x="4" y="685">Build Phase</text>
  <rect fill="#3A86C8" height="1005" opacity="0.06" width="1200" x="0" y="1169"/>
  <text dominant-baseline="alphabetic" fill="#8BAAC8" font-family="DejaVu Sans, Arial, Helvetica, sans-serif" font-size="12" font-weight="700" opacity="0.8" text-anchor="start" x="4" y="1185">Scale Phase</text>
  <text dominant-baseline="alphabetic" fill="#E8EEF5" font-family="DejaVu Sans, Arial, Helvetica, sans-serif" font-size="29.33" font-weight="700" text-anchor="middle" x="600" y="97.33">Enterprise Transformation Programme</text>
  <text dominant-baseline="alphabetic" fill="#E8EEF5" font-family="DejaVu Sans, Arial, Helvetica, sans-serif" font-size="18.67" font-weight="400" opacity="0.75" text-anchor="middle" x="600" y="131.67">2026 Execution Roadmap</text>
  <line opacity="0.35" stroke="#2A4060" stroke-width="0.5" x1="0" x2="1156" y1="144" y2="144"/>
  <rect fill="#607D8B" height="270" opacity="0.6" width="6" x="597" y="223"/>
  <rect fill="#607D8B" height="675" opacity="0.6" width="6" x="597" y="323"/>
  <rect fill="#607D8B" height="140" opacity="0.6" width="6" x="597" y="523"/>
  <rect fill="#00B4D8" height="881" opacity="0.7" width="6" x="597" y="623"/>
  <rect fill="#00B4D8" height="440" opacity="0.7" width="6" x="597" y="723"/>
  <rect fill="#F4A742" height="5" opacity="0.7" width="6" x="597" y="823"/>
  <rect fill="#00B4D8" height="310" opacity="0.7" width="6" x="597" y="1023"/>
  <rect fill="#00B4D8" height="210" opacity="0.7" width="6" x="597" y="1123"/>
  <rect fill="#3A86C8" height="346" opacity="0.7" width="6" x="597" y="1323"/>
  <rect fill="#3A86C8" height="146" opacity="0.7" width="6" x="597" y="1523"/>
  <rect fill="#3A86C8" height="551" opacity="0.7" width="6" x="597" y="1623"/>
  <rect fill="#3A86C8" height="451" opacity="0.7" width="6" x="597" y="1723"/>
  <rect fill="#3A86C8" height="351" opacity="0.7" width="6" x="597" y="1823"/>
  <rect fill="#3A86C8" height="151" opacity="0.7" width="6" x="597" y="2023"/>
  <line stroke="#2A4060" stroke-width="2" x1="600" x2="600" y1="174" y2="2174"/>
  <line opacity="0.5" stroke="#2A4060" stroke-width="1" x1="592" x2="608" y1="174" y2="174"/>
  <text dominant-baseline="alphabetic" fill="#8BAAC8" font-family="DejaVu Sans, Arial, Helvetica, sans-serif" font-size="12" font-weight="400" opacity="0.6" text-anchor="start" x="614" y="172">Q1 2026</text>
  <line opacity="0.5" stroke="#2A4060" stroke-width="1" x1="592" x2="608" y1="669" y2="669"/>
  <text dominant-baseline="alphabetic" fill="#8BAAC8" font-family="DejaVu Sans, Arial, Helvetica, sans-serif" font-size="12" font-weight="400" opacity="0.6" text-anchor="start" x="614" y="667">Q2</text>
  <line opacity="0.5" stroke="#2A4060" stroke-width="1" x1="592" x2="608" y1="1169" y2="1169"/>
  <text dominant-baseline="alphabetic" fill="#8BAAC8" font-family="DejaVu Sans, Arial, Helvetica, sans-serif" font-size="12" font-weight="400" opacity="0.6" text-anchor="start" x="614" y="1167">Q3</text>
  <line opacity="0.5" stroke="#2A4060" stroke-width="1" x1="592" x2="608" y1="1674" y2="1674"/>
  <text dominant-baseline="alphabetic" fill="#8BAAC8" font-family="DejaVu Sans, Arial, Helvetica, sans-serif" font-size="12" font-weight="400" opacity="0.6" text-anchor="start" x="614" y="1672">Q4</text>
  <line opacity="0.85" stroke="#F4A742" stroke-width="1.5" x1="0" x2="1156" y1="1053" y2="1053"/>
  <text dominant-baseline="alphabetic" fill="#F4A742" font-family="DejaVu Sans, Arial, Helvetica, sans-serif" font-size="12" font-weight="600" opacity="0.9" text-anchor="start" x="4" y="1050">Today</text>
  <line opacity="0.7" stroke="#F4A742" stroke-width="1.5" x1="1140" x2="1140" y1="174" y2="1163"/>
  <line opacity="0.7" stroke="#F4A742" stroke-width="1.5" x1="1136" x2="1144" y1="174" y2="174"/>
  <line opacity="0.7" stroke="#F4A742" stroke-width="1.5" x1="1136" x2="1144" y1="1163" y2="1163"/>
  <text dominant-baseline="middle" fill="#F4A742" font-family="DejaVu Sans, Arial, Helvetica, sans-serif" font-size="12" font-weight="400" opacity="0.75" text-anchor="end" x="1132" y="668.5">H1 Focus</text>
  <line opacity="0.8" stroke="#607D8B" stroke-width="1.5" x1="611" x2="648" y1="223" y2="223"/>
  <rect fill="#1A2E44" height="67" opacity="0.95" rx="6" stroke="#607D8B" stroke-width="1" width="330" x="648" y="189.5"/>
  <text dominant-baseline="alphabetic" fill="#8BAAC8" font-family="DejaVu Sans, Arial, Helvetica, sans-serif" font-size="13.33" font-weight="400" text-anchor="start" x="658" y="215.65">10th January 2026</text>
  <text dominant-baseline="alphabetic" fill="#E8EEF5" font-family="DejaVu Sans, Arial, Helvetica, sans-serif" font-size="16" font-weight="600" text-anchor="start" x="658" y="243.65">Vision &amp; Alignment Workshop</text>
  <line opacity="0.8" stroke="#607D8B" stroke-width="1.5" x1="589" x2="552" y1="323" y2="323"/>
  <rect fill="#1A2E44" height="67" opacity="0.95" rx="6" stroke="#607D8B" stroke-width="1" width="330" x="222" y="289.5"/>
  <text dominant-baseline="alphabetic" fill="#8BAAC8" font-family="DejaVu Sans, Arial, Helvetica, sans-serif" font-size="13.33" font-weight="400" text-anchor="end" x="542" y="315.65">15th January 2026</text>
  <text dominant-baseline="alphabetic" fill="#E8EEF5" font-family="DejaVu Sans, Arial, Helvetica, sans-serif" font-size="16" font-weight="600" text-anchor="end" x="542" y="343.65">Cloud Migration</text>
  <line opacity="0.8" stroke="#3A86C8" stroke-width="1.5" x1="611" x2="648" y1="423" y2="423"/>
  <rect fill="#1A2E44" height="88" opacity="0.95" rx="6" stroke="#3A86C8" stroke-width="1" width="330" x="648" y="379"/>
  <text dominant-baseline="alphabetic" fill="#8BAAC8" font-family="DejaVu Sans, Arial, Helvetica, sans-serif" font-size="13.33" font-weight="400" text-anchor="start" x="658" y="405.15">15th January 2026</text>
  <text dominant-baseline="alphabetic" fill="#E8EEF5" font-family="DejaVu Sans, Arial, Helvetica, sans-serif" font-size="16" font-weight="600" text-anchor="start" x="658" y="433.15">Programme Kickoff</text>
  <text dominant-baseline="alphabetic" fill="#8BAAC8" font-family="DejaVu Sans, Arial, Helvetica, sans-serif" font-size="12" font-weight="400" opacity="0.85" text-anchor="start" x="658" y="454.15">All workstreams initiated</text>
  <circle cx="958" cy="398.5" fill="#3A86C8" opacity="0.85" r="10"/>
  <path d="M 12 3 L 14.4 8.8 L 20.6 9.2 L 15.8 13.2 L 17.3 19.3 L 12 16 L 6.7 19.3 L 8.2 13.2 L 3.4 9.2 L 9.6 8.8 Z" fill="#0D1B2A" transform="translate(958,398.5) scale(0.5417) translate(-12,-12)"/>
  <line opacity="0.8" stroke="#607D8B" stroke-width="1.5" x1="589" x2="552" y1="523" y2="523"/>
  <rect fill="#1A2E44" height="67" opacity="0.95" rx="6" stroke="#607D8B" stroke-width="1" width="330" x="222" y="489.5"/>
  <text dominant-baseline="alphabetic" fill="#8BAAC8" font-family="DejaVu Sans, Arial, Helvetica, sans-serif" font-size="13.33" font-weight="400" text-anchor="end" x="542" y="515.65">20th January 2026</text>
  <text dominant-baseline="alphabetic" fill="#E8EEF5" font-family="DejaVu Sans, Arial, Helvetica, sans-serif" font-size="16" font-weight="600" text-anchor="end" x="542" y="543.65">Process Mapping</text>
  <line opacity="0.8" stroke="#00B4D8" stroke-width="1.5" x1="611" x2="648" y1="623" y2="623"/>
  <rect fill="#1A2E44" height="67" opacity="0.95" rx="6" stroke="#00B4D8" stroke-width="1" width="330" x="648" y="589.5"/>
  <text dominant-baseline="alphabetic" fill="#8BAAC8" font-family="DejaVu Sans, Arial, Helvetica, sans-serif" font-size="13.33" font-weight="400" text-anchor="start" x="658" y="615.65">1st February 2026</text>
  <text dominant-baseline="alphabetic" fill="#E8EEF5" font-family="DejaVu Sans, Arial, Helvetica, sans-serif" font-size="16" font-weight="600" text-anchor="start" x="658" y="643.65">Change Management Programme</text>
  <line opacity="0.8" stroke="#00B4D8" stroke-width="1.5" x1="589" x2="552" y1="723" y2="723"/>
  <rect fill="#1A2E44" height="67" opacity="0.95" rx="6" stroke="#00B4D8" stroke-width="1" width="330" x="222" y="689.5"/>
  <text dominant-baseline="alphabetic" fill="#8BAAC8" font-family="DejaVu Sans, Arial, Helvetica, sans-serif" font-size="13.33" font-weight="400" text-anchor="end" x="542" y="715.65">1st March 2026</text>
  <text dominant-baseline="alphabetic" fill="#E8EEF5" font-family="DejaVu Sans, Arial, Helvetica, sans-serif" font-size="16" font-weight="600" text-anchor="end" x="542" y="743.65">Operating Model Design</text>
  <line opacity="0.8" stroke="#F4A742" stroke-width="1.5" x1="611" x2="648" y1="823" y2="823"/>
  <rect fill="#1A2E44" height="67" opacity="0.95" rx="6" stroke="#F4A742" stroke-width="1" width="330" x="648" y="789.5"/>
  <text dominant-baseline="alphabetic" fill="#8BAAC8" font-family="DejaVu Sans, Arial, Helvetica, sans-serif" font-size="13.33" font-weight="400" text-anchor="start" x="658" y="815.65">1st March 2026</text>
  <text dominant-baseline="alphabetic" fill="#E8EEF5" font-family="DejaVu Sans, Arial, Helvetica, sans-serif" font-size="16" font-weight="600" text-anchor="start" x="658" y="843.65">Security Hardening</text>
  <line opacity="0.8" stroke="#3A86C8" stroke-width="1.5" x1="589" x2="552" y1="923" y2="923"/>
  <rect fill="#1A2E44" height="67" opacity="0.95" rx="6" stroke="#3A86C8" stroke-width="1" width="330" x="222" y="889.5"/>
  <text dominant-baseline="alphabetic" fill="#8BAAC8" font-family="DejaVu Sans, Arial, Helvetica, sans-serif" font-size="13.33" font-weight="400" text-anchor="end" x="542" y="915.65">31st March 2026</text>
  <text dominant-baseline="alphabetic" fill="#E8EEF5" font-family="DejaVu Sans, Arial, Helvetica, sans-serif" font-size="16" font-weight="600" text-anchor="end" x="542" y="943.65">Q1 Gate Review</text>
  <circle cx="242" cy="909" fill="#3A86C8" opacity="0.85" r="10"/>
  <path d="M 4 12 L 9.5 17.5 L 20 7" fill="none" stroke="#0D1B2A" stroke-linecap="round" stroke-width="2" transform="translate(242,909) scale(0.5417) translate(-12,-12)"/>
  <line opacity="0.8" stroke="#00B4D8" stroke-width="1.5" x1="611" x2="648" y1="1023" y2="1023"/>
  <rect fill="#1A2E44" height="67" opacity="0.95" rx="6" stroke="#00B4D8" stroke-width="1" width="330" x="648" y="989.5"/>
  <text dominant-baseline="alphabetic" fill="#8BAAC8" font-family="DejaVu Sans, Arial, Helvetica, sans-serif" font-size="13.33" font-weight="400" text-anchor="start" x="658" y="1015.65">1st April 2026</text>
  <text dominant-baseline="alphabetic" fill="#E8EEF5" font-family="DejaVu Sans, Arial, Helvetica, sans-serif" font-size="16" font-weight="600" text-anchor="start" x="658" y="1043.65">API Modernization</text>
  <line opacity="0.8" stroke="#00B4D8" stroke-width="1.5" x1="589" x2="552" y1="1123" y2="1123"/>
  <rect fill="#1A2E44" height="67" opacity="0.95" rx="6" stroke="#00B4D8" stroke-width="1" width="330" x="222" y="1089.5"/>
  <text dominant-baseline="alphabetic" fill="#8BAAC8" font-family="DejaVu Sans, Arial, Helvetica, sans-serif" font-size="13.33" font-weight="400" text-anchor="end" x="542" y="1115.65">1st April 2026</text>
  <text dominant-baseline="alphabetic" fill="#E8EEF5" font-family="DejaVu Sans, Arial, Helvetica, sans-serif" font-size="16" font-weight="600" text-anchor="end" x="542" y="1143.65">Automation Wave 1</text>
  <line opacity="0.8" stroke="#607D8B" stroke-width="1.5" x1="611" x2="648" y1="1223" y2="1223"/>
  <rect fill="#1A2E44" height="67" opacity="0.95" rx="6" stroke="#607D8B" stroke-width="1" width="330" x="648" y="1189.5"/>
  <text dominant-baseline="alphabetic" fill="#8BAAC8" font-family="DejaVu Sans, Arial, Helvetica, sans-serif" font-size="13.33" font-weight="400" text-anchor="start" x="658" y="1215.65">31st May 2026</text>
  <text dominant-baseline="alphabetic" fill="#E8EEF5" font-family="DejaVu Sans, Arial, Helvetica, sans-serif" font-size="16" font-weight="600" text-anchor="start" x="658" y="1243.65">Cloud Migration Complete</text>
  <circle cx="958" cy="1209" fill="#607D8B" opacity="0.85" r="10"/>
  <path d="M 6 19 L 18 19 A 4 4 0 0 0 18 12 A 5 5 0 0 0 11 8 A 4 4 0 0 0 4 12 A 4 4 0 0 0 6 19 Z" fill="none" stroke="#0D1B2A" stroke-linecap="round" stroke-width="2" transform="translate(958,1209) scale(0.5417) translate(-12,-12)"/>
  <line opacity="0.8" stroke="#3A86C8" stroke-width="1.5" x1="589" x2="552" y1="1323" y2="1323"/>
  <rect fill="#1A2E44" height="67" opacity="0.95" rx="6" stroke="#3A86C8" stroke-width="1" width="330" x="222" y="1289.5"/>
  <text dominant-baseline="alphabetic" fill="#8BAAC8" font-family="DejaVu Sans, Arial, Helvetica, sans-serif" font-size="13.33" font-weight="400" text-anchor="end" x="542" y="1315.65">1st June 2026</text>
  <text dominant-baseline="alphabetic" fill="#E8EEF5" font-family="DejaVu Sans, Arial, Helvetica, sans-serif" font-size="16" font-weight="600" text-anchor="end" x="542" y="1343.65">Training Rollout</text>
  <line opacity="0.8" stroke="#3A86C8" stroke-width="1.5" x1="611" x2="648" y1="1423" y2="1423"/>
  <rect fill="#1A2E44" height="88" opacity="0.95" rx="6" stroke="#3A86C8" stroke-width="1" width="330" x="648" y="1379"/>
  <text dominant-baseline="alphabetic" fill="#8BAAC8" font-family="DejaVu Sans, Arial, Helvetica, sans-serif" font-size="13.33" font-weight="400" text-anchor="start" x="658" y="1405.15">30th June 2026</text>
  <text dominant-baseline="alphabetic" fill="#E8EEF5" font-family="DejaVu Sans, Arial, Helvetica, sans-serif" font-size="16" font-weight="600" text-anchor="start" x="658" y="1433.15">Mid-Year Executive Review</text>
  <text dominant-baseline="alphabetic" fill="#8BAAC8" font-family="DejaVu Sans, Arial, Helvetica, sans-serif" font-size="12" font-weight="400" opacity="0.85" text-anchor="start" x="658" y="1454.15">Dependent on API delivery</text>
  <circle cx="958" cy="1398.5" fill="#3A86C8" opacity="0.85" r="10"/>
  <path d="M 2 5 L 2 22 L 22 22 L 22 5 Z M 2 10 L 22 10 M 8 2 L 8 7 M 16 2 L 16 7 M 6 14 L 9 14 M 13 14 L 16 14 M 6 18 L 9 18 M 13 18 L 16 18" fill="none" stroke="#0D1B2A" stroke-linecap="round" stroke-width="2" transform="translate(958,1398.5) scale(0.5417) translate(-12,-12)"/>
  <line opacity="0.8" stroke="#3A86C8" stroke-width="1.5" x1="589" x2="552" y1="1523" y2="1523"/>
  <rect fill="#1A2E44" height="67" opacity="0.95" rx="6" stroke="#3A86C8" stroke-width="1" width="330" x="222" y="1489.5"/>
  <text dominant-baseline="alphabetic" fill="#8BAAC8" font-family="DejaVu Sans, Arial, Helvetica, sans-serif" font-size="13.33" font-weight="400" text-anchor="end" x="542" y="1515.65">1st July 2026</text>
  <text dominant-baseline="alphabetic" fill="#E8EEF5" font-family="DejaVu Sans, Arial, Helvetica, sans-serif" font-size="16" font-weight="600" text-anchor="end" x="542" y="1543.65">Market Analysis</text>
  <line opacity="0.8" stroke="#3A86C8" stroke-width="1.5" x1="611" x2="648" y1="1623" y2="1623"/>
  <rect fill="#1A2E44" height="67" opacity="0.95" rx="6" stroke="#3A86C8" stroke-width="1" width="330" x="648" y="1589.5"/>
  <text dominant-baseline="alphabetic" fill="#8BAAC8" font-family="DejaVu Sans, Arial, Helvetica, sans-serif" font-size="13.33" font-weight="400" text-anchor="start" x="658" y="1615.65">1st August 2026</text>
  <text dominant-baseline="alphabetic" fill="#E8EEF5" font-family="DejaVu Sans, Arial, Helvetica, sans-serif" font-size="16" font-weight="600" text-anchor="start" x="658" y="1643.65">Automation Wave 2</text>
  <line opacity="0.8" stroke="#3A86C8" stroke-width="1.5" x1="589" x2="552" y1="1723" y2="1723"/>
  <rect fill="#1A2E44" height="67" opacity="0.95" rx="6" stroke="#3A86C8" stroke-width="1" width="330" x="222" y="1689.5"/>
  <text dominant-baseline="alphabetic" fill="#8BAAC8" font-family="DejaVu Sans, Arial, Helvetica, sans-serif" font-size="13.33" font-weight="400" text-anchor="end" x="542" y="1715.65">1st August 2026</text>
  <text dominant-baseline="alphabetic" fill="#E8EEF5" font-family="DejaVu Sans, Arial, Helvetica, sans-serif" font-size="16" font-weight="600" text-anchor="end" x="542" y="1743.65">Data Platform v2</text>
  <line opacity="0.8" stroke="#3A86C8" stroke-width="1.5" x1="611" x2="648" y1="1823" y2="1823"/>
  <rect fill="#1A2E44" height="67" opacity="0.95" rx="6" stroke="#3A86C8" stroke-width="1" width="330" x="648" y="1789.5"/>
  <text dominant-baseline="alphabetic" fill="#8BAAC8" font-family="DejaVu Sans, Arial, Helvetica, sans-serif" font-size="13.33" font-weight="400" text-anchor="start" x="658" y="1815.65">1st September 2026</text>
  <text dominant-baseline="alphabetic" fill="#E8EEF5" font-family="DejaVu Sans, Arial, Helvetica, sans-serif" font-size="16" font-weight="600" text-anchor="start" x="658" y="1843.65">Leadership Development</text>
  <line opacity="0.8" stroke="#3A86C8" stroke-width="1.5" x1="589" x2="552" y1="1923" y2="1923"/>
  <rect fill="#1A2E44" height="67" opacity="0.95" rx="6" stroke="#3A86C8" stroke-width="1" width="330" x="222" y="1889.5"/>
  <text dominant-baseline="alphabetic" fill="#8BAAC8" font-family="DejaVu Sans, Arial, Helvetica, sans-serif" font-size="13.33" font-weight="400" text-anchor="end" x="542" y="1915.65">30th September 2026</text>
  <text dominant-baseline="alphabetic" fill="#E8EEF5" font-family="DejaVu Sans, Arial, Helvetica, sans-serif" font-size="16" font-weight="600" text-anchor="end" x="542" y="1943.65">Q3 Gate Review</text>
  <circle cx="242" cy="1909" fill="#3A86C8" opacity="0.85" r="10"/>
  <path d="M 4 12 L 9.5 17.5 L 20 7" fill="none" stroke="#0D1B2A" stroke-linecap="round" stroke-width="2" transform="translate(242,1909) scale(0.5417) translate(-12,-12)"/>
  <line opacity="0.8" stroke="#3A86C8" stroke-width="1.5" x1="611" x2="648" y1="2023" y2="2023"/>
  <rect fill="#1A2E44" height="67" opacity="0.95" rx="6" stroke="#3A86C8" stroke-width="1" width="330" x="648" y="1989.5"/>
  <text dominant-baseline="alphabetic" fill="#8BAAC8" font-family="DejaVu Sans, Arial, Helvetica, sans-serif" font-size="13.33" font-weight="400" text-anchor="start" x="658" y="2015.65">1st October 2026</text>
  <text dominant-baseline="alphabetic" fill="#E8EEF5" font-family="DejaVu Sans, Arial, Helvetica, sans-serif" font-size="16" font-weight="600" text-anchor="start" x="658" y="2043.65">Go-to-Market Strategy</text>
  <line opacity="0.8" stroke="#3A86C8" stroke-width="1.5" x1="589" x2="552" y1="2123" y2="2123"/>
  <rect fill="#1A2E44" height="67" opacity="0.95" rx="6" stroke="#3A86C8" stroke-width="1" width="330" x="222" y="2089.5"/>
  <text dominant-baseline="alphabetic" fill="#8BAAC8" font-family="DejaVu Sans, Arial, Helvetica, sans-serif" font-size="13.33" font-weight="400" text-anchor="end" x="542" y="2115.65">15th December 2026</text>
  <text dominant-baseline="alphabetic" fill="#E8EEF5" font-family="DejaVu Sans, Arial, Helvetica, sans-serif" font-size="16" font-weight="600" text-anchor="end" x="542" y="2143.65">Year-End Delivery</text>
  <circle cx="242" cy="2109" fill="#3A86C8" opacity="0.85" r="10"/>
  <path d="M 4 2 L 4 21 L 6 21 L 6 17 L 18 11 L 6 5 Z" fill="#0D1B2A" transform="translate(242,2109) scale(0.5417) translate(-12,-12)"/>
  <circle cx="600" cy="223" fill="#607D8B" r="11" stroke="#0D1B2A" stroke-width="1.5"/>
  <circle cx="600" cy="323" fill="#607D8B" r="11" stroke="#0D1B2A" stroke-width="1.5"/>
  <circle cx="600" cy="423" fill="#3A86C8" r="11" stroke="#0D1B2A" stroke-width="1.5"/>
  <path d="M 12 3 L 14.4 8.8 L 20.6 9.2 L 15.8 13.2 L 17.3 19.3 L 12 16 L 6.7 19.3 L 8.2 13.2 L 3.4 9.2 L 9.6 8.8 Z" fill="#0D1B2A" transform="translate(600,423) scale(0.5958) translate(-12,-12)"/>
  <circle cx="600" cy="523" fill="#607D8B" r="11" stroke="#0D1B2A" stroke-width="1.5"/>
  <circle cx="600" cy="623" fill="#00B4D8" r="11" stroke="#0D1B2A" stroke-width="1.5"/>
  <circle cx="600" cy="723" fill="#00B4D8" r="11" stroke="#0D1B2A" stroke-width="1.5"/>
  <circle cx="600" cy="823" fill="#F4A742" r="11" stroke="#0D1B2A" stroke-width="1.5"/>
  <circle cx="600" cy="923" fill="#3A86C8" r="11" stroke="#0D1B2A" stroke-width="1.5"/>
  <path d="M 4 12 L 9.5 17.5 L 20 7" fill="none" stroke="#0D1B2A" stroke-linecap="round" stroke-width="2" transform="translate(600,923) scale(0.5958) translate(-12,-12)"/>
  <circle cx="600" cy="1023" fill="#00B4D8" r="11" stroke="#0D1B2A" stroke-width="1.5"/>
  <circle cx="600" cy="1123" fill="#00B4D8" r="11" stroke="#0D1B2A" stroke-width="1.5"/>
  <circle cx="600" cy="1223" fill="#607D8B" r="11" stroke="#0D1B2A" stroke-width="1.5"/>
  <path d="M 6 19 L 18 19 A 4 4 0 0 0 18 12 A 5 5 0 0 0 11 8 A 4 4 0 0 0 4 12 A 4 4 0 0 0 6 19 Z" fill="none" stroke="#0D1B2A" stroke-linecap="round" stroke-width="2" transform="translate(600,1223) scale(0.5958) translate(-12,-12)"/>
  <circle cx="600" cy="1323" fill="#3A86C8" r="11" stroke="#0D1B2A" stroke-width="1.5"/>
  <circle cx="600" cy="1423" fill="#3A86C8" r="11" stroke="#0D1B2A" stroke-width="1.5"/>
  <path d="M 2 5 L 2 22 L 22 22 L 22 5 Z M 2 10 L 22 10 M 8 2 L 8 7 M 16 2 L 16 7 M 6 14 L 9 14 M 13 14 L 16 14 M 6 18 L 9 18 M 13 18 L 16 18" fill="none" stroke="#0D1B2A" stroke-linecap="round" stroke-width="2" transform="translate(600,1423) scale(0.5958) translate(-12,-12)"/>
  <circle cx="600" cy="1523" fill="#3A86C8" r="11" stroke="#0D1B2A" stroke-width="1.5"/>
  <circle cx="600" cy="1623" fill="#3A86C8" r="11" stroke="#0D1B2A" stroke-width="1.5"/>
  <circle cx="600" cy="1723" fill="#3A86C8" r="11" stroke="#0D1B2A" stroke-width="1.5"/>
  <circle cx="600" cy="1823" fill="#3A86C8" r="11" stroke="#0D1B2A" stroke-width="1.5"/>
  <circle cx="600" cy="1923" fill="#3A86C8" r="11" stroke="#0D1B2A" stroke-width="1.5"/>
  <path d="M 4 12 L 9.5 17.5 L 20 7" fill="none" stroke="#0D1B2A" stroke-linecap="round" stroke-width="2" transform="translate(600,1923) scale(0.5958) translate(-12,-12)"/>
  <circle cx="600" cy="2023" fill="#3A86C8" r="11" stroke="#0D1B2A" stroke-width="1.5"/>
  <circle cx="600" cy="2123" fill="#3A86C8" r="11" stroke="#0D1B2A" stroke-width="1.5"/>
  <path d="M 4 2 L 4 21 L 6 21 L 6 17 L 18 11 L 6 5 Z" fill="#0D1B2A" transform="translate(600,2123) scale(0.5958) translate(-12,-12)"/>
  <line opacity="0.5" stroke="#8BAAC8" stroke-dasharray="3,3" stroke-width="1" x1="600" x2="658" y1="1163" y2="1163"/>
  <rect fill="#0D1B2A" height="24" opacity="0.92" rx="3" stroke="#F4A742" stroke-width="1" width="110" x="658" y="1151"/>
  <text dominant-baseline="middle" fill="#8BAAC8" font-family="DejaVu Sans, Arial, Helvetica, sans-serif" font-size="12" font-weight="400" text-anchor="middle" x="713" y="1163">Review Gate</text>
  <rect fill="#1E3350" height="120.27" opacity="0.95" rx="4" stroke="#2A4060" stroke-width="1" width="170" x="970" y="2087.73"/>
  <text dominant-baseline="alphabetic" fill="#E8EEF5" font-family="DejaVu Sans, Arial, Helvetica, sans-serif" font-size="13.33" font-weight="700" text-anchor="start" x="980" y="2111.07">Status Legend</text>
  <rect fill="#607D8B" height="12" rx="2" width="12" x="980" y="2123.6"/>
  <text dominant-baseline="middle" fill="#8BAAC8" font-family="DejaVu Sans, Arial, Helvetica, sans-serif" font-size="12" font-weight="400" text-anchor="start" x="1000" y="2129.6">Done</text>
  <rect fill="#00B4D8" height="12" rx="2" width="12" x="980" y="2144"/>
  <text dominant-baseline="middle" fill="#8BAAC8" font-family="DejaVu Sans, Arial, Helvetica, sans-serif" font-size="12" font-weight="400" text-anchor="start" x="1000" y="2150">In Progress</text>
  <rect fill="#F4A742" height="12" rx="2" width="12" x="980" y="2164.4"/>
  <text dominant-baseline="middle" fill="#8BAAC8" font-family="DejaVu Sans, Arial, Helvetica, sans-serif" font-size="12" font-weight="400" text-anchor="start" x="1000" y="2170.4">At Risk</text>
  <rect fill="#3A86C8" height="12" rx="2" width="12" x="980" y="2184.8"/>
  <text dominant-baseline="middle" fill="#8BAAC8" font-family="DejaVu Sans, Arial, Helvetica, sans-serif" font-size="12" font-weight="400" text-anchor="start" x="1000" y="2190.8">Planned</text>
</svg>