<?xml version="1.0" encoding="UTF-8"?>
<svg height="1118" version="1.1" viewBox="0 0 1200 1118" width="1200" xmlns="http://www.w3.org/2000/svg">
  <rect fill="#0D1B2A" height="1118" width="1200" x="0" y="0"/>
  <text dominant-baseline="alphabetic" fill="#E8EEF5" font-family="DejaVu Sans, Arial, Helvetica, sans-serif" font-size="29.33" font-weight="700" text-anchor="middle" x="600" y="97.33">Founder Journey — From Idea to Series B</text>
  <text dominant-baseline="alphabetic" fill="#E8EEF5" font-family="DejaVu Sans, Arial, Helvetica, sans-serif" font-size="18.67" font-weight="400" opacity="0.75" text-anchor="middle" x="600" y="131.67">T1-style vertical spine: five milestones with subjects and descriptions</text>
  <line opacity="0.35" stroke="#2A4060" stroke-width="0.5" x1="0" x2="1156" y1="144" y2="144"/>
  <rect fill="#607D8B" height="215" opacity="0.6" width="6" x="597" y="174"/>
  <rect fill="#607D8B" height="305" opacity="0.6" width="6" x="597" y="474"/>
  <rect fill="#00B4D8" height="173" opacity="0.7" width="6" x="597" y="780"/>
  <line stroke="#2A4060" stroke-width="2" x1="600" x2="600" y1="174" y2="1012"/>
  <line opacity="0.5" stroke="#2A4060" stroke-width="1" x1="592" x2="608" y1="326" y2="326"/>
  <text dominant-baseline="alphabetic" fill="#8BAAC8" font-family="DejaVu Sans, Arial, Helvetica, sans-serif" font-size="12" font-weight="400" opacity="0.6" text-anchor="start" x="614" y="324">2022</text>
  <line opacity="0.5" stroke="#2A4060" stroke-width="1" x1="592" x2="608" y1="586" y2="586"/>
  <text dominant-baseline="alphabetic" fill="#8BAAC8" font-family="DejaVu Sans, Arial, Helvetica, sans-serif" font-size="12" font-weight="400" opacity="0.6" text-anchor="start" x="614" y="584">2023</text>
  <line opacity="0.5" stroke="#2A4060" stroke-width="1" x1="592" x2="608" y1="845" y2="845"/>
  <text dominant-baseline="alphabetic" fill="#8BAAC8" font-family="DejaVu Sans, Arial, Helvetica, sans-serif" font-size="12" font-weight="400" opacity="0.6" text-anchor="start" x="614" y="843">2024</text>
  <line opacity="0.8" stroke="#607D8B" stroke-width="1.5" x1="611" x2="648" y1="174" y2="174"/>
  <rect fill="#1A2E44" height="88" opacity="0.95" rx="6" stroke="#607D8B" stroke-width="1" width="330" x="648" y="130"/>
  <text dominant-baseline="alphabetic" fill="#8BAAC8" font-family="DejaVu Sans, Arial, Helvetica, sans-serif" font-size="13.33" font-weight="400" text-anchor="start" x="658" y="156.15">1st June 2021</text>
  <text dominant-baseline="alphabetic" fill="#E8EEF5" font-family="DejaVu Sans, Arial, Helvetica, sans-serif" font-size="16" font-weight="600" text-anchor="start" x="658" y="184.15">Stealth / Build Phase</text>
  <text dominant-baseline="alphabetic" fill="#8BAAC8" font-family="DejaVu Sans, Arial, Helvetica, sans-serif" font-size="12" font-weight="400" opacity="0.85" text-anchor="start" x="658" y="205.15">Core product development</text>
  <line opacity="0.8" stroke="#3A86C8" stroke-width="1.5" x1="589" x2="552" y1="274" y2="274"/>
  <rect fill="#1A2E44" height="88" opacity="0.95" rx="6" stroke="#3A86C8" stroke-width="1" width="330" x="222" y="230"/>
  <text dominant-baseline="alphabetic" fill="#8BAAC8" font-family="DejaVu Sans, Arial, Helvetica, sans-serif" font-size="13.33" font-weight="400" text-anchor="end" x="542" y="256.15">15th June 2021</text>
  <text dominant-baseline="alphabetic" fill="#E8EEF5" font-family="DejaVu Sans, Arial, Helvetica, sans-serif" font-size="16" font-weight="600" text-anchor="end" x="542" y="284.15">The Idea</text>
  <text dominant-baseline="alphabetic" fill="#8BAAC8" font-family="DejaVu Sans, Arial, Helvetica, sans-serif" font-size="12" font-weight="400" opacity="0.85" text-anchor="end" x="542" y="305.15">First whiteboard session; founding team aligned</text>
  <circle cx="242" cy="249.5" fill="#3A86C8" opacity="0.85" r="10"/>
  <path d="M 14 2 L 6 13 L 12 13 L 10 22 L 18 11 L 12 11 Z" fill="#0D1B2A" transform="translate(242,249.5) scale(0.5417) translate(-12,-12)"/>
  <line opacity="0.8" stroke="#3A86C8" stroke-width="1.5" x1="611" x2="648" y1="374" y2="374"/>
  <rect fill="#1A2E44" height="88" opacity="0.95" rx="6" stroke="#3A86C8" stroke-width="1" width="330" x="648" y="330"/>
  <text dominant-baseline="alphabetic" fill="#8BAAC8" font-family="DejaVu Sans, Arial, Helvetica, sans-serif" font-size="13.33" font-weight="400" text-anchor="start" x="658" y="356.15">20th January 2022</text>
  <text dominant-baseline="alphabetic" fill="#E8EEF5" font-family="DejaVu Sans, Arial, Helvetica, sans-serif" font-size="16" font-weight="600" text-anchor="start" x="658" y="384.15">First 10 Customers</text>
  <text dominant-baseline="alphabetic" fill="#8BAAC8" font-family="DejaVu Sans, Arial, Helvetica, sans-serif" font-size="12" font-weight="400" opacity="0.85" text-anchor="start" x="658" y="405.15">Initial design-partner cohort onboarded</text>
  <circle cx="958" cy="349.5" fill="#3A86C8" opacity="0.85" r="10"/>
  <path d="M 4 7 A 3 3 0 1 0 10 7 A 3 3 0 1 0 4 7 M 1 22 A 6 6 0 0 1 13 22 M 14.5 8 A 2.5 2.5 0 1 0 19.5 8 A 2.5 2.5 0 1 0 14.5 8 M 14 22 A 5 5 0 0 1 22 22" fill="none" stroke="#0D1B2A" stroke-linecap="round" stroke-width="2" transform="translate(958,349.5) scale(0.5417) translate(-12,-12)"/>
  <line opacity="0.8" stroke="#607D8B" stroke-width="1.5" x1="589" x2="552" y1="474" y2="474"/>
  <rect fill="#1A2E44" height="88" opacity="0.95" rx="6" stroke="#607D8B" stroke-width="1" width="330" x="222" y="430"/>
  <text dominant-baseline="alphabetic" fill="#8BAAC8" font-family="DejaVu Sans, Arial, Helvetica, sans-serif" font-size="13.33" font-weight="400" text-anchor="end" x="542" y="456.15">1st July 2022</text>
  <text dominant-baseline="alphabetic" fill="#E8EEF5" font-family="DejaVu Sans, Arial, Helvetica, sans-serif" font-size="16" font-weight="600" text-anchor="end" x="542" y="484.15">Seed-fuelled Growth</text>
  <text dominant-baseline="alphabetic" fill="#8BAAC8" font-family="DejaVu Sans, Arial, Helvetica, sans-serif" font-size="12" font-weight="400" opacity="0.85" text-anchor="end" x="542" y="505.15">Team scaling, GTM iteration</text>
  <line opacity="0.8" stroke="#3A86C8" stroke-width="1.5" x1="611" x2="648" y1="574" y2="574"/>
  <rect fill="#1A2E44" height="88" opacity="0.95" rx="6" stroke="#3A86C8" stroke-width="1" width="330" x="648" y="530"/>
  <text dominant-baseline="alphabetic" fill="#8BAAC8" font-family="DejaVu Sans, Arial, Helvetica, sans-serif" font-size="13.33" font-weight="400" text-anchor="start" x="658" y="556.15">1st July 2022</text>
  <text dominant-baseline="alphabetic" fill="#E8EEF5" font-family="DejaVu Sans, Arial, Helvetica, sans-serif" font-size="16" font-weight="600" text-anchor="start" x="658" y="584.15">Seed Round Closed</text>
  <text dominant-baseline="alphabetic" fill="#8BAAC8" font-family="DejaVu Sans, Arial, Helvetica, sans-serif" font-size="12" font-weight="400" opacity="0.85" text-anchor="start" x="658" y="605.15">$3.5M at $18M post-money valuation</text>
  <circle cx="958" cy="549.5" fill="#3A86C8" opacity="0.85" r="10"/>
  <path d="M 12 3 L 14.4 8.8 L 20.6 9.2 L 15.8 13.2 L 17.3 19.3 L 12 16 L 6.7 19.3 L 8.2 13.2 L 3.4 9.2 L 9.6 8.8 Z" fill="#0D1B2A" transform="translate(958,549.5) scale(0.5417) translate(-12,-12)"/>
  <line opacity="0.8" stroke="#00B4D8" stroke-width="1.5" x1="589" x2="552" y1="780" y2="780"/>
  <rect fill="#1A2E44" height="88" opacity="0.95" rx="6" stroke="#00B4D8" stroke-width="1" width="330" x="222" y="736"/>
  <text dominant-baseline="alphabetic" fill="#8BAAC8" font-family="DejaVu Sans, Arial, Helvetica, sans-serif" font-size="13.33" font-weight="400" text-anchor="end" x="542" y="762.15">1st October 2023</text>
  <text dominant-baseline="alphabetic" fill="#E8EEF5" font-family="DejaVu Sans, Arial, Helvetica, sans-serif" font-size="16" font-weight="600" text-anchor="end" x="542" y="790.15">Series A Deployment</text>
  <text dominant-baseline="alphabetic" fill="#8BAAC8" font-family="DejaVu Sans, Arial, Helvetica, sans-serif" font-size="12" font-weight="400" opacity="0.85" text-anchor="end" x="542" y="811.15">Enterprise motion, international</text>
  <line opacity="0.8" stroke="#3A86C8" stroke-width="1.5" x1="611" x2="648" y1="880" y2="880"/>
  <rect fill="#1A2E44" height="88" opacity="0.95" rx="6" stroke="#3A86C8" stroke-width="1" width="330" x="648" y="836"/>
  <text dominant-baseline="alphabetic" fill="#8BAAC8" font-family="DejaVu Sans, Arial, Helvetica, sans-serif" font-size="13.33" font-weight="400" text-anchor="start" x="658" y="862.15">1st October 2023</text>
  <text dominant-baseline="alphabetic" fill="#E8EEF5" font-family="DejaVu Sans, Arial, Helvetica, sans-serif" font-size="16" font-weight="600" text-anchor="start" x="658" y="890.15">Series A — $15M</text>
  <text dominant-baseline="alphabetic" fill="#8BAAC8" font-family="DejaVu Sans, Arial, Helvetica, sans-serif" font-size="12" font-weight="400" opacity="0.85" text-anchor="start" x="658" y="911.15">Led by Horizon Ventures</text>
  <circle cx="958" cy="855.5" fill="#3A86C8" opacity="0.85" r="10"/>
  <path d="M 12 2 L 16 11 L 15 11 L 15 18 L 9 18 L 9 11 L 8 11 Z M 9 18 L 6 22 L 9 16 Z M 15 18 L 18 22 L 15 16 Z" fill="#0D1B2A" transform="translate(958,855.5) scale(0.5417) translate(-12,-12)"/>
  <line opacity="0.8" stroke="#3A86C8" stroke-width="1.5" x1="589" x2="552" y1="980" y2="980"/>
  <rect fill="#1A2E44" height="88" opacity="0.95" rx="6" stroke="#3A86C8" stroke-width="1" width="330" x="222" y="936"/>
  <text dominant-baseline="alphabetic" fill="#8BAAC8" font-family="DejaVu Sans, Arial, Helvetica, sans-serif" font-size="13.33" font-weight="400" text-anchor="end" x="542" y="962.15">1st April 2024</text>
  <text dominant-baseline="alphabetic" fill="#E8EEF5" font-family="DejaVu Sans, Arial, Helvetica, sans-serif" font-size="16" font-weight="600" text-anchor="end" x="542" y="990.15">Series B — $42M</text>
  <text dominant-baseline="alphabetic" fill="#8BAAC8" font-family="DejaVu Sans, Arial, Helvetica, sans-serif" font-size="12" font-weight="400" opacity="0.85" text-anchor="end" x="542" y="1011.15">Targeting enterprise expansion</text>
  <circle cx="242" cy="955.5" fill="#3A86C8" opacity="0.85" r="10"/>
  <path d="M 3 12 A 9 9 0 1 0 21 12 A 9 9 0 1 0 3 12 M 7 12 A 5 5 0 1 0 17 12 A 5 5 0 1 0 7 12 M 10 12 A 2 2 0 1 0 14 12 A 2 2 0 1 0 10 12" fill="none" stroke="#0D1B2A" stroke-linecap="round" stroke-width="2" transform="translate(242,955.5) scale(0.5417) translate(-12,-12)"/>
  <circle cx="600" cy="174" fill="#607D8B" r="11" stroke="#0D1B2A" stroke-width="1.5"/>
  <circle cx="600" cy="274" fill="#3A86C8" r="11" stroke="#0D1B2A" stroke-width="1.5"/>
  <path d="M 14 2 L 6 13 L 12 13 L 10 22 L 18 11 L 12 11 Z" fill="#0D1B2A" transform="translate(600,274) scale(0.5958) translate(-12,-12)"/>
  <circle cx="600" cy="374" fill="#3A86C8" r="11" stroke="#0D1B2A" stroke-width="1.5"/>
  <path d="M 4 7 A 3 3 0 1 0 10 7 A 3 3 0 1 0 4 7 M 1 22 A 6 6 0 0 1 13 22 M 14.5 8 A 2.5 2.5 0 1 0 19.5 8 A 2.5 2.5 0 1 0 14.5 8 M 14 22 A 5 5 0 0 1 22 22" fill="none" stroke="#0D1B2A" stroke-linecap="round" stroke-width="2" transform="translate(600,374) scale(0.5958) translate(-12,-12)"/>
  <circle cx="600" cy="474" fill="#607D8B" r="11" stroke="#0D1B2A" stroke-width="1.5"/>
  <circle cx="600" cy="574" fill="#3A86C8" r="11" stroke="#0D1B2A" stroke-width="1.5"/>
  <path d="M 12 3 L 14.4 8.8 L 20.6 9.2 L 15.8 13.2 L 17.3 19.3 L 12 16 L 6.7 19.3 L 8.2 13.2 L 3.4 9.2 L 9.6 8.8 Z" fill="#0D1B2A" transform="translate(600,574) scale(0.5958) translate(-12,-12)"/>
  <circle cx="600" cy="780" fill="#00B4D8" r="11" stroke="#0D1B2A" stroke-width="1.5"/>
  <circle cx="600" cy="880" fill="#3A86C8" r="11" stroke="#0D1B2A" stroke-width="1.5"/>
  <path d="M 12 2 L 16 11 L 15 11 L 15 18 L 9 18 L 9 11 L 8 11 Z M 9 18 L 6 22 L 9 16 Z M 15 18 L 18 22 L 15 16 Z" fill="#0D1B2A" transform="translate(600,880) scale(0.5958) translate(-12,-12)"/>
  <circle cx="600" cy="980" fill="#3A86C8" r="11" stroke="#0D1B2A" stroke-width="1.5"/>
  <path d="M 3 12 A 9 9 0 1 0 21 12 A 9 9 0 1 0 3 12 M 7 12 A 5 5 0 1 0 17 12 A 5 5 0 1 0 7 12 M 10 12 A 2 2 0 1 0 14 12 A 2 2 0 1 0 10 12" fill="none" stroke="#0D1B2A" stroke-linecap="round" stroke-width="2" transform="translate(600,980) scale(0.5958) translate(-12,-12)"/>
  <rect fill="#1E3350" height="120.27" opacity="0.95" rx="4" stroke="#2A4060" stroke-width="1" width="170" x="970" y="925.73"/>
  <text dominant-baseline="alphabetic" fill="#E8EEF5" font-family="DejaVu Sans, Arial, Helvetica, sans-serif" font-size="13.33" font-weight="700" text-anchor="start" x="980" y="949.07">Legend</text>
  <rect fill="#607D8B" height="12" rx="2" width="12" x="980" y="961.6"/>
  <text dominant-baseline="middle" fill="#8BAAC8" font-family="DejaVu Sans, Arial, Helvetica, sans-serif" font-size="12" font-weight="400" text-anchor="start" x="1000" y="967.6">done</text>
  <rect fill="#00B4D8" height="12" rx="2" width="12" x="980" y="982"/>
  <text dominant-baseline="middle" fill="#8BAAC8" font-family="DejaVu Sans, Arial, Helvetica, sans-serif" font-size="12" font-weight="400" text-anchor="start" x="1000" y="988">in-progress</text>
  <rect fill="#3A86C8" height="12" rx="2" width="12" x="980" y="1002.4"/>
  <text dominant-baseline="middle" fill="#8BAAC8" font-family="DejaVu Sans, Arial, Helvetica, sans-serif" font-size="12" font-weight="400" text-anchor="start" x="1000" y="1008.4">planned</text>
  <rect fill="#3A86C8" height="12" rx="2" width="12" x="980" y="1022.8"/>
  <text dominant-baseline="middle" fill="#8BAAC8" font-family="DejaVu Sans, Arial, Helvetica, sans-serif" font-size="12" font-weight="400" text-anchor="start" x="1000" y="1028.8">standard-node</text>
</svg>