<?xml version="1.0" encoding="UTF-8"?>
<svg height="1096" version="1.1" viewBox="0 0 1200 1096" width="1200" xmlns="http://www.w3.org/2000/svg">
  <rect fill="#FFFFFF" height="1096" width="1200" x="0" y="0"/>
  <text dominant-baseline="alphabetic" fill="#111111" font-family="DejaVu Sans, Arial, Helvetica, sans-serif" font-size="26.67" font-weight="700" text-anchor="middle" x="600" y="86.67">Founder Journey — From Idea to Series B</text>
  <text dominant-baseline="alphabetic" fill="#111111" font-family="DejaVu Sans, Arial, Helvetica, sans-serif" font-size="17.33" font-weight="400" opacity="0.75" text-anchor="middle" x="600" y="118.33">T1-style vertical spine: five milestones with subjects and descriptions</text>
  <line opacity="0.35" stroke="#333333" stroke-width="0.5" x1="0" x2="1160" y1="130" y2="130"/>
  <rect fill="#888888" height="215" opacity="0.6" width="6" x="597" y="160"/>
  <rect fill="#888888" height="305" opacity="0.6" width="6" x="597" y="460"/>
  <rect fill="#1F497D" height="173" opacity="0.7" width="6" x="597" y="766"/>
  <line stroke="#333333" stroke-width="2" x1="600" x2="600" y1="160" y2="998"/>
  <line opacity="0.5" stroke="#333333" stroke-width="1" x1="592" x2="608" y1="312" y2="312"/>
  <text dominant-baseline="alphabetic" fill="#555555" font-family="DejaVu Sans, Arial, Helvetica, sans-serif" font-size="12" font-weight="400" opacity="0.6" text-anchor="start" x="614" y="310">2022</text>
  <line opacity="0.5" stroke="#333333" stroke-width="1" x1="592" x2="608" y1="572" y2="572"/>
  <text dominant-baseline="alphabetic" fill="#555555" font-family="DejaVu Sans, Arial, Helvetica, sans-serif" font-size="12" font-weight="400" opacity="0.6" text-anchor="start" x="614" y="570">2023</text>
  <line opacity="0.5" stroke="#333333" stroke-width="1" x1="592" x2="608" y1="831" y2="831"/>
  <text dominant-baseline="alphabetic" fill="#555555" font-family="DejaVu Sans, Arial, Helvetica, sans-serif" font-size="12" font-weight="400" opacity="0.6" text-anchor="start" x="614" y="829">2024</text>
  <line opacity="0.8" stroke="#888888" stroke-width="1.5" x1="611" x2="648" y1="160" y2="160"/>
  <text dominant-baseline="alphabetic" fill="#555555" font-family="DejaVu Sans, Arial, Helvetica, sans-serif" font-size="13.33" font-weight="400" text-anchor="start" x="658" y="142.15">1st June 2021</text>
  <text dominant-baseline="alphabetic" fill="#111111" font-family="DejaVu Sans, Arial, Helvetica, sans-serif" font-size="16" font-weight="600" text-anchor="start" x="658" y="170.15">Stealth / Build Phase</text>
  <text dominant-baseline="alphabetic" fill="#555555" font-family="DejaVu Sans, Arial, Helvetica, sans-serif" font-size="12" font-weight="400" opacity="0.85" text-anchor="start" x="658" y="191.15">Core product development</text>
  <line opacity="0.8" stroke="#1F497D" stroke-width="1.5" x1="589" x2="552" y1="260" y2="260"/>
  <text dominant-baseline="alphabetic" fill="#555555" font-family="DejaVu Sans, Arial, Helvetica, sans-serif" font-size="13.33" font-weight="400" text-anchor="end" x="542" y="242.15">15th June 2021</text>
  <text dominant-baseline="alphabetic" fill="#111111" font-family="DejaVu Sans, Arial, Helvetica, sans-serif" font-size="16" font-weight="600" text-anchor="end" x="542" y="270.15">The Idea</text>
  <text dominant-baseline="alphabetic" fill="#555555" font-family="DejaVu Sans, Arial, Helvetica, sans-serif" font-size="12" font-weight="400" opacity="0.85" text-anchor="end" x="542" y="291.15">First whiteboard session; founding team aligned</text>
  <circle cx="242" cy="235.5" fill="#1F497D" opacity="0.85" r="10"/>
  <path d="M 14 2 L 6 13 L 12 13 L 10 22 L 18 11 L 12 11 Z" fill="#FFFFFF" transform="translate(242,235.5) scale(0.5417) translate(-12,-12)"/>
  <line opacity="0.8" stroke="#1F497D" stroke-width="1.5" x1="611" x2="648" y1="360" y2="360"/>
  <text dominant-baseline="alphabetic" fill="#555555" font-family="DejaVu Sans, Arial, Helvetica, sans-serif" font-size="13.33" font-weight="400" text-anchor="start" x="658" y="342.15">20th January 2022</text>
  <text dominant-baseline="alphabetic" fill="#111111" font-family="DejaVu Sans, Arial, Helvetica, sans-serif" font-size="16" font-weight="600" text-anchor="start" x="658" y="370.15">First 10 Customers</text>
  <text dominant-baseline="alphabetic" fill="#555555" font-family="DejaVu Sans, Arial, Helvetica, sans-serif" font-size="12" font-weight="400" opacity="0.85" text-anchor="start" x="658" y="391.15">Initial design-partner cohort onboarded</text>
  <circle cx="958" cy="335.5" fill="#1F497D" opacity="0.85" r="10"/>
  <path d="M 4 7 A 3 3 0 1 0 10 7 A 3 3 0 1 0 4 7 M 1 22 A 6 6 0 0 1 13 22 M 14.5 8 A 2.5 2.5 0 1 0 19.5 8 A 2.5 2.5 0 1 0 14.5 8 M 14 22 A 5 5 0 0 1 22 22" fill="none" stroke="#FFFFFF" stroke-linecap="round" stroke-width="2" transform="translate(958,335.5) scale(0.5417) translate(-12,-12)"/>
  <line opacity="0.8" stroke="#888888" stroke-width="1.5" x1="589" x2="552" y1="460" y2="460"/>
  <text dominant-baseline="alphabetic" fill="#555555" font-family="DejaVu Sans, Arial, Helvetica, sans-serif" font-size="13.33" font-weight="400" text-anchor="end" x="542" y="442.15">1st July 2022</text>
  <text dominant-baseline="alphabetic" fill="#111111" font-family="DejaVu Sans, Arial, Helvetica, sans-serif" font-size="16" font-weight="600" text-anchor="end" x="542" y="470.15">Seed-fuelled Growth</text>
  <text dominant-baseline="alphabetic" fill="#555555" font-family="DejaVu Sans, Arial, Helvetica, sans-serif" font-size="12" font-weight="400" opacity="0.85" text-anchor="end" x="542" y="491.15">Team scaling, GTM iteration</text>
  <line opacity="0.8" stroke="#1F497D" stroke-width="1.5" x1="611" x2="648" y1="560" y2="560"/>
  <text dominant-baseline="alphabetic" fill="#555555" font-family="DejaVu Sans, Arial, Helvetica, sans-serif" font-size="13.33" font-weight="400" text-anchor="start" x="658" y="542.15">1st July 2022</text>
  <text dominant-baseline="alphabetic" fill="#111111" font-family="DejaVu Sans, Arial, Helvetica, sans-serif" font-size="16" font-weight="600" text-anchor="start" x="658" y="570.15">Seed Round Closed</text>
  <text dominant-baseline="alphabetic" fill="#555555" font-family="DejaVu Sans, Arial, Helvetica, sans-serif" font-size="12" font-weight="400" opacity="0.85" text-anchor="start" x="658" y="591.15">$3.5M at $18M post-money valuation</text>
  <circle cx="958" cy="535.5" fill="#1F497D" opacity="0.85" r="10"/>
  <path d="M 12 3 L 14.4 8.8 L 20.6 9.2 L 15.8 13.2 L 17.3 19.3 L 12 16 L 6.7 19.3 L 8.2 13.2 L 3.4 9.2 L 9.6 8.8 Z" fill="#FFFFFF" transform="translate(958,535.5) scale(0.5417) translate(-12,-12)"/>
  <line opacity="0.8" stroke="#1F497D" stroke-width="1.5" x1="589" x2="552" y1="766" y2="766"/>
  <text dominant-baseline="alphabetic" fill="#555555" font-family="DejaVu Sans, Arial, Helvetica, sans-serif" font-size="13.33" font-weight="400" text-anchor="end" x="542" y="748.15">1st October 2023</text>
  <text dominant-baseline="alphabetic" fill="#111111" font-family="DejaVu Sans, Arial, Helvetica, sans-serif" font-size="16" font-weight="600" text-anchor="end" x="542" y="776.15">Series A Deployment</text>
  <text dominant-baseline="alphabetic" fill="#555555" font-family="DejaVu Sans, Arial, Helvetica, sans-serif" font-size="12" font-weight="400" opacity="0.85" text-anchor="end" x="542" y="797.15">Enterprise motion, international</text>
  <line opacity="0.8" stroke="#1F497D" stroke-width="1.5" x1="611" x2="648" y1="866" y2="866"/>
  <text dominant-baseline="alphabetic" fill="#555555" font-family="DejaVu Sans, Arial, Helvetica, sans-serif" font-size="13.33" font-weight="400" text-anchor="start" x="658" y="848.15">1st October 2023</text>
  <text dominant-baseline="alphabetic" fill="#111111" font-family="DejaVu Sans, Arial, Helvetica, sans-serif" font-size="16" font-weight="600" text-anchor="start" x="658" y="876.15">Series A — $15M</text>
  <text dominant-baseline="alphabetic" fill="#555555" font-family="DejaVu Sans, Arial, Helvetica, sans-serif" font-size="12" font-weight="400" opacity="0.85" text-anchor="start" x="658" y="897.15">Led by Horizon Ventures</text>
  <circle cx="958" cy="841.5" fill="#1F497D" opacity="0.85" r="10"/>
  <path d="M 12 2 L 16 11 L 15 11 L 15 18 L 9 18 L 9 11 L 8 11 Z M 9 18 L 6 22 L 9 16 Z M 15 18 L 18 22 L 15 16 Z" fill="#FFFFFF" transform="translate(958,841.5) scale(0.5417) translate(-12,-12)"/>
  <line opacity="0.8" stroke="#1F497D" stroke-width="1.5" x1="589" x2="552" y1="966" y2="966"/>
  <text dominant-baseline="alphabetic" fill="#555555" font-family="DejaVu Sans, Arial, Helvetica, sans-serif" font-size="13.33" font-weight="400" text-anchor="end" x="542" y="948.15">1st April 2024</text>
  <text dominant-baseline="alphabetic" fill="#111111" font-family="DejaVu Sans, Arial, Helvetica, sans-serif" font-size="16" font-weight="600" text-anchor="end" x="542" y="976.15">Series B — $42M</text>
  <text dominant-baseline="alphabetic" fill="#555555" font-family="DejaVu Sans, Arial, Helvetica, sans-serif" font-size="12" font-weight="400" opacity="0.85" text-anchor="end" x="542" y="997.15">Targeting enterprise expansion</text>
  <circle cx="242" cy="941.5" fill="#1F497D" opacity="0.85" r="10"/>
  <path d="M 3 12 A 9 9 0 1 0 21 12 A 9 9 0 1 0 3 12 M 7 12 A 5 5 0 1 0 17 12 A 5 5 0 1 0 7 12 M 10 12 A 2 2 0 1 0 14 12 A 2 2 0 1 0 10 12" fill="none" stroke="#FFFFFF" stroke-linecap="round" stroke-width="2" transform="translate(242,941.5) scale(0.5417) translate(-12,-12)"/>
  <circle cx="600" cy="160" fill="#888888" r="11" stroke="#FFFFFF" stroke-width="1.5"/>
  <circle cx="600" cy="260" fill="#1F497D" r="11" stroke="#FFFFFF" stroke-width="1.5"/>
  <path d="M 14 2 L 6 13 L 12 13 L 10 22 L 18 11 L 12 11 Z" fill="#FFFFFF" transform="translate(600,260) scale(0.5958) translate(-12,-12)"/>
  <circle cx="600" cy="360" fill="#1F497D" r="11" stroke="#FFFFFF" stroke-width="1.5"/>
  <path d="M 4 7 A 3 3 0 1 0 10 7 A 3 3 0 1 0 4 7 M 1 22 A 6 6 0 0 1 13 22 M 14.5 8 A 2.5 2.5 0 1 0 19.5 8 A 2.5 2.5 0 1 0 14.5 8 M 14 22 A 5 5 0 0 1 22 22" fill="none" stroke="#FFFFFF" stroke-linecap="round" stroke-width="2" transform="translate(600,360) scale(0.5958) translate(-12,-12)"/>
  <circle cx="600" cy="460" fill="#888888" r="11" stroke="#FFFFFF" stroke-width="1.5"/>
  <circle cx="600" cy="560" fill="#1F497D" r="11" stroke="#FFFFFF" stroke-width="1.5"/>
  <path d="M 12 3 L 14.4 8.8 L 20.6 9.2 L 15.8 13.2 L 17.3 19.3 L 12 16 L 6.7 19.3 L 8.2 13.2 L 3.4 9.2 L 9.6 8.8 Z" fill="#FFFFFF" transform="translate(600,560) scale(0.5958) translate(-12,-12)"/>
  <circle cx="600" cy="766" fill="#1F497D" r="11" stroke="#FFFFFF" stroke-width="1.5"/>
  <circle cx="600" cy="866" fill="#1F497D" r="11" stroke="#FFFFFF" stroke-width="1.5"/>
  <path d="M 12 2 L 16 11 L 15 11 L 15 18 L 9 18 L 9 11 L 8 11 Z M 9 18 L 6 22 L 9 16 Z M 15 18 L 18 22 L 15 16 Z" fill="#FFFFFF" transform="translate(600,866) scale(0.5958) translate(-12,-12)"/>
  <circle cx="600" cy="966" fill="#1F497D" r="11" stroke="#FFFFFF" stroke-width="1.5"/>
  <path d="M 3 12 A 9 9 0 1 0 21 12 A 9 9 0 1 0 3 12 M 7 12 A 5 5 0 1 0 17 12 A 5 5 0 1 0 7 12 M 10 12 A 2 2 0 1 0 14 12 A 2 2 0 1 0 10 12" fill="none" stroke="#FFFFFF" stroke-linecap="round" stroke-width="2" transform="translate(600,966) scale(0.5958) translate(-12,-12)"/>
  <rect fill="#FFFFFF" height="120.27" opacity="0.95" rx="4" stroke="#CCCCCC" stroke-width="1" width="160" x="984" y="911.73"/>
  <text dominant-baseline="alphabetic" fill="#111111" font-family="DejaVu Sans, Arial, Helvetica, sans-serif" font-size="13.33" font-weight="700" text-anchor="start" x="994" y="935.07">Legend</text>
  <rect fill="#888888" height="12" rx="0" width="12" x="994" y="947.6"/>
  <text dominant-baseline="middle" fill="#333333" font-family="DejaVu Sans, Arial, Helvetica, sans-serif" font-size="12" font-weight="400" text-anchor="start" x="1014" y="953.6">done</text>
  <rect fill="#1F497D" height="12" rx="0" width="12" x="994" y="968"/>
  <text dominant-baseline="middle" fill="#333333" font-family="DejaVu Sans, Arial, Helvetica, sans-serif" font-size="12" font-weight="400" text-anchor="start" x="1014" y="974">in-progress</text>
  <rect fill="#1F497D" height="12" rx="0" width="12" x="994" y="988.4"/>
  <text dominant-baseline="middle" fill="#333333" font-family="DejaVu Sans, Arial, Helvetica, sans-serif" font-size="12" font-weight="400" text-anchor="start" x="1014" y="994.4">planned</text>
  <rect fill="#1F497D" height="12" rx="0" width="12" x="994" y="1008.8"/>
  <text dominant-baseline="middle" fill="#333333" font-family="DejaVu Sans, Arial, Helvetica, sans-serif" font-size="12" font-weight="400" text-anchor="start" x="1014" y="1014.8">standard-node</text>
</svg>