<?xml version="1.0" encoding="UTF-8"?>
<svg height="1758" version="1.1" viewBox="0 0 1200 1758" width="1200" xmlns="http://www.w3.org/2000/svg">
  <rect fill="#FFFFFF" height="1758" width="1200" x="0" y="0"/>
  <text dominant-baseline="alphabetic" fill="#111111" font-family="DejaVu Sans, Arial, Helvetica, sans-serif" font-size="26.67" font-weight="700" text-anchor="middle" x="600" y="86.67">Project Phoenix — Program Timeline</text>
  <text dominant-baseline="alphabetic" fill="#111111" font-family="DejaVu Sans, Arial, Helvetica, sans-serif" font-size="17.33" font-weight="400" opacity="0.75" text-anchor="middle" x="600" y="118.33">Discovery through General Availability, FY 2026</text>
  <line opacity="0.35" stroke="#333333" stroke-width="0.5" x1="0" x2="1160" y1="130" y2="130"/>
  <rect fill="#888888" height="8" opacity="0.6" width="6" x="597" y="276"/>
  <rect fill="#888888" height="23" opacity="0.6" width="6" x="597" y="376"/>
  <rect fill="#888888" height="113" opacity="0.6" width="6" x="597" y="476"/>
  <rect fill="#888888" height="13" opacity="0.6" width="6" x="597" y="576"/>
  <rect fill="#1F497D" height="64" opacity="0.7" width="6" x="597" y="776"/>
  <rect fill="#1F497D" height="26" opacity="0.7" width="6" x="597" y="876"/>
  <rect fill="#DC2626" height="181" opacity="0.7" width="6" x="597" y="976"/>
  <rect fill="#1F497D" height="205" opacity="0.7" width="6" x="597" y="1076"/>
  <rect fill="#1F497D" height="133" opacity="0.7" width="6" x="597" y="1276"/>
  <rect fill="#1F497D" height="156" opacity="0.7" width="6" x="597" y="1376"/>
  <line stroke="#333333" stroke-width="2" x1="600" x2="600" y1="160" y2="1660"/>
  <line opacity="0.5" stroke="#333333" stroke-width="1" x1="592" x2="608" y1="160" y2="160"/>
  <text dominant-baseline="alphabetic" fill="#555555" font-family="DejaVu Sans, Arial, Helvetica, sans-serif" font-size="12" font-weight="400" opacity="0.6" text-anchor="start" x="614" y="158">2026</text>
  <line opacity="0.5" stroke="#333333" stroke-width="1" x1="592" x2="608" y1="288" y2="288"/>
  <text dominant-baseline="alphabetic" fill="#555555" font-family="DejaVu Sans, Arial, Helvetica, sans-serif" font-size="12" font-weight="400" opacity="0.6" text-anchor="start" x="614" y="286">Feb</text>
  <line opacity="0.5" stroke="#333333" stroke-width="1" x1="592" x2="608" y1="403" y2="403"/>
  <text dominant-baseline="alphabetic" fill="#555555" font-family="DejaVu Sans, Arial, Helvetica, sans-serif" font-size="12" font-weight="400" opacity="0.6" text-anchor="start" x="614" y="401">Mar</text>
  <line opacity="0.5" stroke="#333333" stroke-width="1" x1="592" x2="608" y1="531" y2="531"/>
  <text dominant-baseline="alphabetic" fill="#555555" font-family="DejaVu Sans, Arial, Helvetica, sans-serif" font-size="12" font-weight="400" opacity="0.6" text-anchor="start" x="614" y="529">Apr</text>
  <line opacity="0.5" stroke="#333333" stroke-width="1" x1="592" x2="608" y1="655" y2="655"/>
  <text dominant-baseline="alphabetic" fill="#555555" font-family="DejaVu Sans, Arial, Helvetica, sans-serif" font-size="12" font-weight="400" opacity="0.6" text-anchor="start" x="614" y="653">May</text>
  <line opacity="0.5" stroke="#333333" stroke-width="1" x1="592" x2="608" y1="782" y2="782"/>
  <text dominant-baseline="alphabetic" fill="#555555" font-family="DejaVu Sans, Arial, Helvetica, sans-serif" font-size="12" font-weight="400" opacity="0.6" text-anchor="start" x="614" y="780">Jun</text>
  <line opacity="0.5" stroke="#333333" stroke-width="1" x1="592" x2="608" y1="906" y2="906"/>
  <text dominant-baseline="alphabetic" fill="#555555" font-family="DejaVu Sans, Arial, Helvetica, sans-serif" font-size="12" font-weight="400" opacity="0.6" text-anchor="start" x="614" y="904">Jul</text>
  <line opacity="0.5" stroke="#333333" stroke-width="1" x1="592" x2="608" y1="1034" y2="1034"/>
  <text dominant-baseline="alphabetic" fill="#555555" font-family="DejaVu Sans, Arial, Helvetica, sans-serif" font-size="12" font-weight="400" opacity="0.6" text-anchor="start" x="614" y="1032">Aug</text>
  <line opacity="0.5" stroke="#333333" stroke-width="1" x1="592" x2="608" y1="1161" y2="1161"/>
  <text dominant-baseline="alphabetic" fill="#555555" font-family="DejaVu Sans, Arial, Helvetica, sans-serif" font-size="12" font-weight="400" opacity="0.6" text-anchor="start" x="614" y="1159">Sep</text>
  <line opacity="0.5" stroke="#333333" stroke-width="1" x1="592" x2="608" y1="1285" y2="1285"/>
  <text dominant-baseline="alphabetic" fill="#555555" font-family="DejaVu Sans, Arial, Helvetica, sans-serif" font-size="12" font-weight="400" opacity="0.6" text-anchor="start" x="614" y="1283">Oct</text>
  <line opacity="0.5" stroke="#333333" stroke-width="1" x1="592" x2="608" y1="1413" y2="1413"/>
  <text dominant-baseline="alphabetic" fill="#555555" font-family="DejaVu Sans, Arial, Helvetica, sans-serif" font-size="12" font-weight="400" opacity="0.6" text-anchor="start" x="614" y="1411">Nov</text>
  <line opacity="0.5" stroke="#333333" stroke-width="1" x1="592" x2="608" y1="1536" y2="1536"/>
  <text dominant-baseline="alphabetic" fill="#555555" font-family="DejaVu Sans, Arial, Helvetica, sans-serif" font-size="12" font-weight="400" opacity="0.6" text-anchor="start" x="614" y="1534">Dec</text>
  <line opacity="0.8" stroke="#1F497D" stroke-width="1.5" x1="611" x2="648" y1="176" y2="176"/>
  <text dominant-baseline="alphabetic" fill="#555555" font-family="DejaVu Sans, Arial, Helvetica, sans-serif" font-size="13.33" font-weight="400" text-anchor="start" x="658" y="168.65">5th January 2026</text>
  <text dominant-baseline="alphabetic" fill="#111111" font-family="DejaVu Sans, Arial, Helvetica, sans-serif" font-size="16" font-weight="600" text-anchor="start" x="658" y="196.65">Project Kick-off</text>
  <circle cx="958" cy="162" fill="#1F497D" opacity="0.85" r="10"/>
  <path d="M 12 3 L 14.4 8.8 L 20.6 9.2 L 15.8 13.2 L 17.3 19.3 L 12 16 L 6.7 19.3 L 8.2 13.2 L 3.4 9.2 L 9.6 8.8 Z" fill="#FFFFFF" transform="translate(958,162) scale(0.5417) translate(-12,-12)"/>
  <line opacity="0.8" stroke="#888888" stroke-width="1.5" x1="589" x2="552" y1="276" y2="276"/>
  <text dominant-baseline="alphabetic" fill="#555555" font-family="DejaVu Sans, Arial, Helvetica, sans-serif" font-size="13.33" font-weight="400" text-anchor="end" x="542" y="268.65">5th January 2026</text>
  <text dominant-baseline="alphabetic" fill="#111111" font-family="DejaVu Sans, Arial, Helvetica, sans-serif" font-size="16" font-weight="600" text-anchor="end" x="542" y="296.65">Stakeholder Interviews</text>
  <line opacity="0.8" stroke="#888888" stroke-width="1.5" x1="611" x2="648" y1="376" y2="376"/>
  <text dominant-baseline="alphabetic" fill="#555555" font-family="DejaVu Sans, Arial, Helvetica, sans-serif" font-size="13.33" font-weight="400" text-anchor="start" x="658" y="368.65">1st February 2026</text>
  <text dominant-baseline="alphabetic" fill="#111111" font-family="DejaVu Sans, Arial, Helvetica, sans-serif" font-size="16" font-weight="600" text-anchor="start" x="658" y="396.65">Requirements</text>
  <line opacity="0.8" stroke="#888888" stroke-width="1.5" x1="589" x2="552" y1="476" y2="476"/>
  <text dominant-baseline="alphabetic" fill="#555555" font-family="DejaVu Sans, Arial, Helvetica, sans-serif" font-size="13.33" font-weight="400" text-anchor="end" x="542" y="468.65">1st March 2026</text>
  <text dominant-baseline="alphabetic" fill="#111111" font-family="DejaVu Sans, Arial, Helvetica, sans-serif" font-size="16" font-weight="600" text-anchor="end" x="542" y="496.65">Architecture Design</text>
  <line opacity="0.8" stroke="#888888" stroke-width="1.5" x1="611" x2="648" y1="576" y2="576"/>
  <text dominant-baseline="alphabetic" fill="#555555" font-family="DejaVu Sans, Arial, Helvetica, sans-serif" font-size="13.33" font-weight="400" text-anchor="start" x="658" y="568.65">1st March 2026</text>
  <text dominant-baseline="alphabetic" fill="#111111" font-family="DejaVu Sans, Arial, Helvetica, sans-serif" font-size="16" font-weight="600" text-anchor="start" x="658" y="596.65">Sprint 1 — Foundation</text>
  <line opacity="0.8" stroke="#1F497D" stroke-width="1.5" x1="589" x2="552" y1="676" y2="676"/>
  <text dominant-baseline="alphabetic" fill="#555555" font-family="DejaVu Sans, Arial, Helvetica, sans-serif" font-size="13.33" font-weight="400" text-anchor="end" x="542" y="668.65">15th April 2026</text>
  <text dominant-baseline="alphabetic" fill="#111111" font-family="DejaVu Sans, Arial, Helvetica, sans-serif" font-size="16" font-weight="600" text-anchor="end" x="542" y="696.65">Architecture Approval</text>
  <circle cx="242" cy="662" fill="#1F497D" opacity="0.85" r="10"/>
  <path d="M 4 12 L 9.5 17.5 L 20 7" fill="none" stroke="#FFFFFF" stroke-linecap="round" stroke-width="2" transform="translate(242,662) scale(0.5417) translate(-12,-12)"/>
  <line opacity="0.8" stroke="#1F497D" stroke-width="1.5" x1="611" x2="648" y1="776" y2="776"/>
  <text dominant-baseline="alphabetic" fill="#555555" font-family="DejaVu Sans, Arial, Helvetica, sans-serif" font-size="13.33" font-weight="400" text-anchor="start" x="658" y="768.65">16th April 2026</text>
  <text dominant-baseline="alphabetic" fill="#111111" font-family="DejaVu Sans, Arial, Helvetica, sans-serif" font-size="16" font-weight="600" text-anchor="start" x="658" y="796.65">Sprint 2 — Core Features</text>
  <line opacity="0.8" stroke="#1F497D" stroke-width="1.5" x1="589" x2="552" y1="876" y2="876"/>
  <text dominant-baseline="alphabetic" fill="#555555" font-family="DejaVu Sans, Arial, Helvetica, sans-serif" font-size="13.33" font-weight="400" text-anchor="end" x="542" y="868.65">1st May 2026</text>
  <text dominant-baseline="alphabetic" fill="#111111" font-family="DejaVu Sans, Arial, Helvetica, sans-serif" font-size="16" font-weight="600" text-anchor="end" x="542" y="896.65">Regression Testing</text>
  <line opacity="0.8" stroke="#DC2626" stroke-width="1.5" x1="611" x2="648" y1="976" y2="976"/>
  <text dominant-baseline="alphabetic" fill="#555555" font-family="DejaVu Sans, Arial, Helvetica, sans-serif" font-size="13.33" font-weight="400" text-anchor="start" x="658" y="968.65">16th June 2026</text>
  <text dominant-baseline="alphabetic" fill="#111111" font-family="DejaVu Sans, Arial, Helvetica, sans-serif" font-size="16" font-weight="600" text-anchor="start" x="658" y="996.65">Sprint 3 — Integrations</text>
  <line opacity="0.8" stroke="#1F497D" stroke-width="1.5" x1="589" x2="552" y1="1076" y2="1076"/>
  <text dominant-baseline="alphabetic" fill="#555555" font-family="DejaVu Sans, Arial, Helvetica, sans-serif" font-size="13.33" font-weight="400" text-anchor="end" x="542" y="1068.65">1st July 2026</text>
  <text dominant-baseline="alphabetic" fill="#111111" font-family="DejaVu Sans, Arial, Helvetica, sans-serif" font-size="16" font-weight="600" text-anchor="end" x="542" y="1096.65">Beta Program</text>
  <line opacity="0.8" stroke="#1F497D" stroke-width="1.5" x1="611" x2="648" y1="1176" y2="1176"/>
  <text dominant-baseline="alphabetic" fill="#555555" font-family="DejaVu Sans, Arial, Helvetica, sans-serif" font-size="13.33" font-weight="400" text-anchor="start" x="658" y="1168.65">31st August 2026</text>
  <text dominant-baseline="alphabetic" fill="#111111" font-family="DejaVu Sans, Arial, Helvetica, sans-serif" font-size="16" font-weight="600" text-anchor="start" x="658" y="1196.65">Feature Freeze</text>
  <circle cx="958" cy="1162" fill="#1F497D" opacity="0.85" r="10"/>
  <path d="M 12 2 L 22 12 L 12 22 L 2 12 Z" fill="#FFFFFF" transform="translate(958,1162) scale(0.5417) translate(-12,-12)"/>
  <line opacity="0.8" stroke="#1F497D" stroke-width="1.5" x1="589" x2="552" y1="1276" y2="1276"/>
  <text dominant-baseline="alphabetic" fill="#555555" font-family="DejaVu Sans, Arial, Helvetica, sans-serif" font-size="13.33" font-weight="400" text-anchor="end" x="542" y="1268.65">1st September 2026</text>
  <text dominant-baseline="alphabetic" fill="#111111" font-family="DejaVu Sans, Arial, Helvetica, sans-serif" font-size="16" font-weight="600" text-anchor="end" x="542" y="1296.65">Sprint 4 — Polish</text>
  <line opacity="0.8" stroke="#1F497D" stroke-width="1.5" x1="611" x2="648" y1="1376" y2="1376"/>
  <text dominant-baseline="alphabetic" fill="#555555" font-family="DejaVu Sans, Arial, Helvetica, sans-serif" font-size="13.33" font-weight="400" text-anchor="start" x="658" y="1368.65">1st October 2026</text>
  <text dominant-baseline="alphabetic" fill="#111111" font-family="DejaVu Sans, Arial, Helvetica, sans-serif" font-size="16" font-weight="600" text-anchor="start" x="658" y="1396.65">Launch Preparation</text>
  <line opacity="0.8" stroke="#1F497D" stroke-width="1.5" x1="589" x2="552" y1="1476" y2="1476"/>
  <text dominant-baseline="alphabetic" fill="#555555" font-family="DejaVu Sans, Arial, Helvetica, sans-serif" font-size="13.33" font-weight="400" text-anchor="end" x="542" y="1468.65">15th November 2026</text>
  <text dominant-baseline="alphabetic" fill="#111111" font-family="DejaVu Sans, Arial, Helvetica, sans-serif" font-size="16" font-weight="600" text-anchor="end" x="542" y="1496.65">Product Launch</text>
  <circle cx="242" cy="1462" fill="#1F497D" opacity="0.85" r="10"/>
  <path d="M 12 2 L 16 11 L 15 11 L 15 18 L 9 18 L 9 11 L 8 11 Z M 9 18 L 6 22 L 9 16 Z M 15 18 L 18 22 L 15 16 Z" fill="#FFFFFF" transform="translate(242,1462) scale(0.5417) translate(-12,-12)"/>
  <line opacity="0.8" stroke="#1F497D" stroke-width="1.5" x1="611" x2="648" y1="1576" y2="1576"/>
  <text dominant-baseline="alphabetic" fill="#555555" font-family="DejaVu Sans, Arial, Helvetica, sans-serif" font-size="13.33" font-weight="400" text-anchor="start" x="658" y="1568.65">1st December 2026</text>
  <text dominant-baseline="alphabetic" fill="#111111" font-family="DejaVu Sans, Arial, Helvetica, sans-serif" font-size="16" font-weight="600" text-anchor="start" x="658" y="1596.65">General Availability</text>
  <circle cx="958" cy="1562" fill="#1F497D" opacity="0.85" r="10"/>
  <path d="M 4 2 L 4 21 L 6 21 L 6 17 L 18 11 L 6 5 Z" fill="#FFFFFF" transform="translate(958,1562) scale(0.5417) translate(-12,-12)"/>
  <circle cx="600" cy="176" fill="#1F497D" r="11" stroke="#FFFFFF" stroke-width="1.5"/>
  <path d="M 12 3 L 14.4 8.8 L 20.6 9.2 L 15.8 13.2 L 17.3 19.3 L 12 16 L 6.7 19.3 L 8.2 13.2 L 3.4 9.2 L 9.6 8.8 Z" fill="#FFFFFF" transform="translate(600,176) scale(0.5958) translate(-12,-12)"/>
  <circle cx="600" cy="276" fill="#888888" r="11" stroke="#FFFFFF" stroke-width="1.5"/>
  <circle cx="600" cy="376" fill="#888888" r="11" stroke="#FFFFFF" stroke-width="1.5"/>
  <circle cx="600" cy="476" fill="#888888" r="11" stroke="#FFFFFF" stroke-width="1.5"/>
  <circle cx="600" cy="576" fill="#888888" r="11" stroke="#FFFFFF" stroke-width="1.5"/>
  <circle cx="600" cy="676" fill="#1F497D" r="11" stroke="#FFFFFF" stroke-width="1.5"/>
  <path d="M 4 12 L 9.5 17.5 L 20 7" fill="none" stroke="#FFFFFF" stroke-linecap="round" stroke-width="2" transform="translate(600,676) scale(0.5958) translate(-12,-12)"/>
  <circle cx="600" cy="776" fill="#1F497D" r="11" stroke="#FFFFFF" stroke-width="1.5"/>
  <circle cx="600" cy="876" fill="#1F497D" r="11" stroke="#FFFFFF" stroke-width="1.5"/>
  <circle cx="600" cy="976" fill="#DC2626" r="11" stroke="#FFFFFF" stroke-width="1.5"/>
  <circle cx="600" cy="1076" fill="#1F497D" r="11" stroke="#FFFFFF" stroke-width="1.5"/>
  <circle cx="600" cy="1176" fill="#1F497D" r="11" stroke="#FFFFFF" stroke-width="1.5"/>
  <path d="M 12 2 L 22 12 L 12 22 L 2 12 Z" fill="#FFFFFF" transform="translate(600,1176) scale(0.5958) translate(-12,-12)"/>
  <circle cx="600" cy="1276" fill="#1F497D" r="11" stroke="#FFFFFF" stroke-width="1.5"/>
  <circle cx="600" cy="1376" fill="#1F497D" r="11" stroke="#FFFFFF" stroke-width="1.5"/>
  <circle cx="600" cy="1476" fill="#1F497D" r="11" stroke="#FFFFFF" stroke-width="1.5"/>
  <path d="M 12 2 L 16 11 L 15 11 L 15 18 L 9 18 L 9 11 L 8 11 Z M 9 18 L 6 22 L 9 16 Z M 15 18 L 18 22 L 15 16 Z" fill="#FFFFFF" transform="translate(600,1476) scale(0.5958) translate(-12,-12)"/>
  <circle cx="600" cy="1576" fill="#1F497D" r="11" stroke="#FFFFFF" stroke-width="1.5"/>
  <path d="M 4 2 L 4 21 L 6 21 L 6 17 L 18 11 L 6 5 Z" fill="#FFFFFF" transform="translate(600,1576) scale(0.5958) translate(-12,-12)"/>
  <rect fill="#FFFFFF" height="140.67" opacity="0.95" rx="4" stroke="#CCCCCC" stroke-width="1" width="160" x="984" y="1553.33"/>
  <text dominant-baseline="alphabetic" fill="#111111" font-family="DejaVu Sans, Arial, Helvetica, sans-serif" font-size="13.33" font-weight="700" text-anchor="start" x="994" y="1576.67">Legend</text>
  <rect fill="#888888" height="12" rx="0" width="12" x="994" y="1589.2"/>
  <text dominant-baseline="middle" fill="#333333" font-family="DejaVu Sans, Arial, Helvetica, sans-serif" font-size="12" font-weight="400" text-anchor="start" x="1014" y="1595.2">done</text>
  <rect fill="#1F497D" height="12" rx="0" width="12" x="994" y="1609.6"/>
  <text dominant-baseline="middle" fill="#333333" font-family="DejaVu Sans, Arial, Helvetica, sans-serif" font-size="12" font-weight="400" text-anchor="start" x="1014" y="1615.6">in-progress</text>
  <rect fill="#DC2626" height="12" rx="0" width="12" x="994" y="1630"/>
  <text dominant-baseline="middle" fill="#333333" font-family="DejaVu Sans, Arial, Helvetica, sans-serif" font-size="12" font-weight="400" text-anchor="start" x="1014" y="1636">blocked</text>
  <rect fill="#1F497D" height="12" rx="0" width="12" x="994" y="1650.4"/>
  <text dominant-baseline="middle" fill="#333333" font-family="DejaVu Sans, Arial, Helvetica, sans-serif" font-size="12" font-weight="400" text-anchor="start" x="1014" y="1656.4">planned</text>
  <rect fill="#1F497D" height="12" rx="0" width="12" x="994" y="1670.8"/>
  <text dominant-baseline="middle" fill="#333333" font-family="DejaVu Sans, Arial, Helvetica, sans-serif" font-size="12" font-weight="400" text-anchor="start" x="1014" y="1676.8">standard-node</text>
</svg>