<?xml version="1.0" encoding="UTF-8"?>
<svg height="1780" version="1.1" viewBox="0 0 1200 1780" width="1200" xmlns="http://www.w3.org/2000/svg">
  <rect fill="#0D1B2A" height="1780" width="1200" x="0" y="0"/>
  <text dominant-baseline="alphabetic" fill="#E8EEF5" font-family="DejaVu Sans, Arial, Helvetica, sans-serif" font-size="29.33" font-weight="700" text-anchor="middle" x="600" y="97.33">Project Phoenix — Program Timeline</text>
  <text dominant-baseline="alphabetic" fill="#E8EEF5" font-family="DejaVu Sans, Arial, Helvetica, sans-serif" font-size="18.67" font-weight="400" opacity="0.75" text-anchor="middle" x="600" y="131.67">Discovery through General Availability, FY 2026</text>
  <line opacity="0.35" stroke="#2A4060" stroke-width="0.5" x1="0" x2="1156" y1="144" y2="144"/>
  <rect fill="#607D8B" height="8" opacity="0.6" width="6" x="597" y="290"/>
  <rect fill="#607D8B" height="23" opacity="0.6" width="6" x="597" y="390"/>
  <rect fill="#607D8B" height="113" opacity="0.6" width="6" x="597" y="490"/>
  <rect fill="#607D8B" height="13" opacity="0.6" width="6" x="597" y="590"/>
  <rect fill="#00B4D8" height="64" opacity="0.7" width="6" x="597" y="790"/>
  <rect fill="#00B4D8" height="26" opacity="0.7" width="6" x="597" y="890"/>
  <rect fill="#E05252" height="181" opacity="0.7" width="6" x="597" y="990"/>
  <rect fill="#3A86C8" height="205" opacity="0.7" width="6" x="597" y="1090"/>
  <rect fill="#3A86C8" height="133" opacity="0.7" width="6" x="597" y="1290"/>
  <rect fill="#3A86C8" height="156" opacity="0.7" width="6" x="597" y="1390"/>
  <line stroke="#2A4060" stroke-width="2" x1="600" x2="600" y1="174" y2="1674"/>
  <line opacity="0.5" stroke="#2A4060" stroke-width="1" x1="592" x2="608" y1="174" y2="174"/>
  <text dominant-baseline="alphabetic" fill="#8BAAC8" font-family="DejaVu Sans, Arial, Helvetica, sans-serif" font-size="12" font-weight="400" opacity="0.6" text-anchor="start" x="614" y="172">2026</text>
  <line opacity="0.5" stroke="#2A4060" stroke-width="1" x1="592" x2="608" y1="302" y2="302"/>
  <text dominant-baseline="alphabetic" fill="#8BAAC8" font-family="DejaVu Sans, Arial, Helvetica, sans-serif" font-size="12" font-weight="400" opacity="0.6" text-anchor="start" x="614" y="300">Feb</text>
  <line opacity="0.5" stroke="#2A4060" stroke-width="1" x1="592" x2="608" y1="417" y2="417"/>
  <text dominant-baseline="alphabetic" fill="#8BAAC8" font-family="DejaVu Sans, Arial, Helvetica, sans-serif" font-size="12" font-weight="400" opacity="0.6" text-anchor="start" x="614" y="415">Mar</text>
  <line opacity="0.5" stroke="#2A4060" stroke-width="1" x1="592" x2="608" y1="545" y2="545"/>
  <text dominant-baseline="alphabetic" fill="#8BAAC8" font-family="DejaVu Sans, Arial, Helvetica, sans-serif" font-size="12" font-weight="400" opacity="0.6" text-anchor="start" x="614" y="543">Apr</text>
  <line opacity="0.5" stroke="#2A4060" stroke-width="1" x1="592" x2="608" y1="669" y2="669"/>
  <text dominant-baseline="alphabetic" fill="#8BAAC8" font-family="DejaVu Sans, Arial, Helvetica, sans-serif" font-size="12" font-weight="400" opacity="0.6" text-anchor="start" x="614" y="667">May</text>
  <line opacity="0.5" stroke="#2A4060" stroke-width="1" x1="592" x2="608" y1="796" y2="796"/>
  <text dominant-baseline="alphabetic" fill="#8BAAC8" font-family="DejaVu Sans, Arial, Helvetica, sans-serif" font-size="12" font-weight="400" opacity="0.6" text-anchor="start" x="614" y="794">Jun</text>
  <line opacity="0.5" stroke="#2A4060" stroke-width="1" x1="592" x2="608" y1="920" y2="920"/>
  <text dominant-baseline="alphabetic" fill="#8BAAC8" font-family="DejaVu Sans, Arial, Helvetica, sans-serif" font-size="12" font-weight="400" opacity="0.6" text-anchor="start" x="614" y="918">Jul</text>
  <line opacity="0.5" stroke="#2A4060" stroke-width="1" x1="592" x2="608" y1="1048" y2="1048"/>
  <text dominant-baseline="alphabetic" fill="#8BAAC8" font-family="DejaVu Sans, Arial, Helvetica, sans-serif" font-size="12" font-weight="400" opacity="0.6" text-anchor="start" x="614" y="1046">Aug</text>
  <line opacity="0.5" stroke="#2A4060" stroke-width="1" x1="592" x2="608" y1="1175" y2="1175"/>
  <text dominant-baseline="alphabetic" fill="#8BAAC8" font-family="DejaVu Sans, Arial, Helvetica, sans-serif" font-size="12" font-weight="400" opacity="0.6" text-anchor="start" x="614" y="1173">Sep</text>
  <line opacity="0.5" stroke="#2A4060" stroke-width="1" x1="592" x2="608" y1="1299" y2="1299"/>
  <text dominant-baseline="alphabetic" fill="#8BAAC8" font-family="DejaVu Sans, Arial, Helvetica, sans-serif" font-size="12" font-weight="400" opacity="0.6" text-anchor="start" x="614" y="1297">Oct</text>
  <line opacity="0.5" stroke="#2A4060" stroke-width="1" x1="592" x2="608" y1="1427" y2="1427"/>
  <text dominant-baseline="alphabetic" fill="#8BAAC8" font-family="DejaVu Sans, Arial, Helvetica, sans-serif" font-size="12" font-weight="400" opacity="0.6" text-anchor="start" x="614" y="1425">Nov</text>
  <line opacity="0.5" stroke="#2A4060" stroke-width="1" x1="592" x2="608" y1="1550" y2="1550"/>
  <text dominant-baseline="alphabetic" fill="#8BAAC8" font-family="DejaVu Sans, Arial, Helvetica, sans-serif" font-size="12" font-weight="400" opacity="0.6" text-anchor="start" x="614" y="1548">Dec</text>
  <line opacity="0.8" stroke="#3A86C8" stroke-width="1.5" x1="611" x2="648" y1="190" y2="190"/>
  <rect fill="#1A2E44" height="67" opacity="0.95" rx="6" stroke="#3A86C8" stroke-width="1" width="330" x="648" y="156.5"/>
  <text dominant-baseline="alphabetic" fill="#8BAAC8" font-family="DejaVu Sans, Arial, Helvetica, sans-serif" font-size="13.33" font-weight="400" text-anchor="start" x="658" y="182.65">5th January 2026</text>
  <text dominant-baseline="alphabetic" fill="#E8EEF5" font-family="DejaVu Sans, Arial, Helvetica, sans-serif" font-size="16" font-weight="600" text-anchor="start" x="658" y="210.65">Project Kick-off</text>
  <circle cx="958" cy="176" fill="#3A86C8" opacity="0.85" r="10"/>
  <path d="M 12 3 L 14.4 8.8 L 20.6 9.2 L 15.8 13.2 L 17.3 19.3 L 12 16 L 6.7 19.3 L 8.2 13.2 L 3.4 9.2 L 9.6 8.8 Z" fill="#0D1B2A" transform="translate(958,176) scale(0.5417) translate(-12,-12)"/>
  <line opacity="0.8" stroke="#607D8B" stroke-width="1.5" x1="589" x2="552" y1="290" y2="290"/>
  <rect fill="#1A2E44" height="67" opacity="0.95" rx="6" stroke="#607D8B" stroke-width="1" width="330" x="222" y="256.5"/>
  <text dominant-baseline="alphabetic" fill="#8BAAC8" font-family="DejaVu Sans, Arial, Helvetica, sans-serif" font-size="13.33" font-weight="400" text-anchor="end" x="542" y="282.65">5th January 2026</text>
  <text dominant-baseline="alphabetic" fill="#E8EEF5" font-family="DejaVu Sans, Arial, Helvetica, sans-serif" font-size="16" font-weight="600" text-anchor="end" x="542" y="310.65">Stakeholder Interviews</text>
  <line opacity="0.8" stroke="#607D8B" stroke-width="1.5" x1="611" x2="648" y1="390" y2="390"/>
  <rect fill="#1A2E44" height="67" opacity="0.95" rx="6" stroke="#607D8B" stroke-width="1" width="330" x="648" y="356.5"/>
  <text dominant-baseline="alphabetic" fill="#8BAAC8" font-family="DejaVu Sans, Arial, Helvetica, sans-serif" font-size="13.33" font-weight="400" text-anchor="start" x="658" y="382.65">1st February 2026</text>
  <text dominant-baseline="alphabetic" fill="#E8EEF5" font-family="DejaVu Sans, Arial, Helvetica, sans-serif" font-size="16" font-weight="600" text-anchor="start" x="658" y="410.65">Requirements</text>
  <line opacity="0.8" stroke="#607D8B" stroke-width="1.5" x1="589" x2="552" y1="490" y2="490"/>
  <rect fill="#1A2E44" height="67" opacity="0.95" rx="6" stroke="#607D8B" stroke-width="1" width="330" x="222" y="456.5"/>
  <text dominant-baseline="alphabetic" fill="#8BAAC8" font-family="DejaVu Sans, Arial, Helvetica, sans-serif" font-size="13.33" font-weight="400" text-anchor="end" x="542" y="482.65">1st March 2026</text>
  <text dominant-baseline="alphabetic" fill="#E8EEF5" font-family="DejaVu Sans, Arial, Helvetica, sans-serif" font-size="16" font-weight="600" text-anchor="end" x="542" y="510.65">Architecture Design</text>
  <line opacity="0.8" stroke="#607D8B" stroke-width="1.5" x1="611" x2="648" y1="590" y2="590"/>
  <rect fill="#1A2E44" height="67" opacity="0.95" rx="6" stroke="#607D8B" stroke-width="1" width="330" x="648" y="556.5"/>
  <text dominant-baseline="alphabetic" fill="#8BAAC8" font-family="DejaVu Sans, Arial, Helvetica, sans-serif" font-size="13.33" font-weight="400" text-anchor="start" x="658" y="582.65">1st March 2026</text>
  <text dominant-baseline="alphabetic" fill="#E8EEF5" font-family="DejaVu Sans, Arial, Helvetica, sans-serif" font-size="16" font-weight="600" text-anchor="start" x="658" y="610.65">Sprint 1 — Foundation</text>
  <line opacity="0.8" stroke="#3A86C8" stroke-width="1.5" x1="589" x2="552" y1="690" y2="690"/>
  <rect fill="#1A2E44" height="67" opacity="0.95" rx="6" stroke="#3A86C8" stroke-width="1" width="330" x="222" y="656.5"/>
  <text dominant-baseline="alphabetic" fill="#8BAAC8" font-family="DejaVu Sans, Arial, Helvetica, sans-serif" font-size="13.33" font-weight="400" text-anchor="end" x="542" y="682.65">15th April 2026</text>
  <text dominant-baseline="alphabetic" fill="#E8EEF5" font-family="DejaVu Sans, Arial, Helvetica, sans-serif" font-size="16" font-weight="600" text-anchor="end" x="542" y="710.65">Architecture Approval</text>
  <circle cx="242" cy="676" fill="#3A86C8" opacity="0.85" r="10"/>
  <path d="M 4 12 L 9.5 17.5 L 20 7" fill="none" stroke="#0D1B2A" stroke-linecap="round" stroke-width="2" transform="translate(242,676) scale(0.5417) translate(-12,-12)"/>
  <line opacity="0.8" stroke="#00B4D8" stroke-width="1.5" x1="611" x2="648" y1="790" y2="790"/>
  <rect fill="#1A2E44" height="67" opacity="0.95" rx="6" stroke="#00B4D8" stroke-width="1" width="330" x="648" y="756.5"/>
  <text dominant-baseline="alphabetic" fill="#8BAAC8" font-family="DejaVu Sans, Arial, Helvetica, sans-serif" font-size="13.33" font-weight="400" text-anchor="start" x="658" y="782.65">16th April 2026</text>
  <text dominant-baseline="alphabetic" fill="#E8EEF5" font-family="DejaVu Sans, Arial, Helvetica, sans-serif" font-size="16" font-weight="600" text-anchor="start" x="658" y="810.65">Sprint 2 — Core Features</text>
  <line opacity="0.8" stroke="#00B4D8" stroke-width="1.5" x1="589" x2="552" y1="890" y2="890"/>
  <rect fill="#1A2E44" height="67" opacity="0.95" rx="6" stroke="#00B4D8" stroke-width="1" width="330" x="222" y="856.5"/>
  <text dominant-baseline="alphabetic" fill="#8BAAC8" font-family="DejaVu Sans, Arial, Helvetica, sans-serif" font-size="13.33" font-weight="400" text-anchor="end" x="542" y="882.65">1st May 2026</text>
  <text dominant-baseline="alphabetic" fill="#E8EEF5" font-family="DejaVu Sans, Arial, Helvetica, sans-serif" font-size="16" font-weight="600" text-anchor="end" x="542" y="910.65">Regression Testing</text>
  <line opacity="0.8" stroke="#E05252" stroke-width="1.5" x1="611" x2="648" y1="990" y2="990"/>
  <rect fill="#1A2E44" height="67" opacity="0.95" rx="6" stroke="#E05252" stroke-width="1" width="330" x="648" y="956.5"/>
  <text dominant-baseline="alphabetic" fill="#8BAAC8" font-family="DejaVu Sans, Arial, Helvetica, sans-serif" font-size="13.33" font-weight="400" text-anchor="start" x="658" y="982.65">16th June 2026</text>
  <text dominant-baseline="alphabetic" fill="#E8EEF5" font-family="DejaVu Sans, Arial, Helvetica, sans-serif" font-size="16" font-weight="600" text-anchor="start" x="658" y="1010.65">Sprint 3 — Integrations</text>
  <line opacity="0.8" stroke="#3A86C8" stroke-width="1.5" x1="589" x2="552" y1="1090" y2="1090"/>
  <rect fill="#1A2E44" height="67" opacity="0.95" rx="6" stroke="#3A86C8" stroke-width="1" width="330" x="222" y="1056.5"/>
  <text dominant-baseline="alphabetic" fill="#8BAAC8" font-family="DejaVu Sans, Arial, Helvetica, sans-serif" font-size="13.33" font-weight="400" text-anchor="end" x="542" y="1082.65">1st July 2026</text>
  <text dominant-baseline="alphabetic" fill="#E8EEF5" font-family="DejaVu Sans, Arial, Helvetica, sans-serif" font-size="16" font-weight="600" text-anchor="end" x="542" y="1110.65">Beta Program</text>
  <line opacity="0.8" stroke="#3A86C8" stroke-width="1.5" x1="611" x2="648" y1="1190" y2="1190"/>
  <rect fill="#1A2E44" height="67" opacity="0.95" rx="6" stroke="#3A86C8" stroke-width="1" width="330" x="648" y="1156.5"/>
  <text dominant-baseline="alphabetic" fill="#8BAAC8" font-family="DejaVu Sans, Arial, Helvetica, sans-serif" font-size="13.33" font-weight="400" text-anchor="start" x="658" y="1182.65">31st August 2026</text>
  <text dominant-baseline="alphabetic" fill="#E8EEF5" font-family="DejaVu Sans, Arial, Helvetica, sans-serif" font-size="16" font-weight="600" text-anchor="start" x="658" y="1210.65">Feature Freeze</text>
  <circle cx="958" cy="1176" fill="#3A86C8" opacity="0.85" r="10"/>
  <path d="M 12 2 L 22 12 L 12 22 L 2 12 Z" fill="#0D1B2A" transform="translate(958,1176) scale(0.5417) translate(-12,-12)"/>
  <line opacity="0.8" stroke="#3A86C8" stroke-width="1.5" x1="589" x2="552" y1="1290" y2="1290"/>
  <rect fill="#1A2E44" height="67" opacity="0.95" rx="6" stroke="#3A86C8" stroke-width="1" width="330" x="222" y="1256.5"/>
  <text dominant-baseline="alphabetic" fill="#8BAAC8" font-family="DejaVu Sans, Arial, Helvetica, sans-serif" font-size="13.33" font-weight="400" text-anchor="end" x="542" y="1282.65">1st September 2026</text>
  <text dominant-baseline="alphabetic" fill="#E8EEF5" font-family="DejaVu Sans, Arial, Helvetica, sans-serif" font-size="16" font-weight="600" text-anchor="end" x="542" y="1310.65">Sprint 4 — Polish</text>
  <line opacity="0.8" stroke="#3A86C8" stroke-width="1.5" x1="611" x2="648" y1="1390" y2="1390"/>
  <rect fill="#1A2E44" height="67" opacity="0.95" rx="6" stroke="#3A86C8" stroke-width="1" width="330" x="648" y="1356.5"/>
  <text dominant-baseline="alphabetic" fill="#8BAAC8" font-family="DejaVu Sans, Arial, Helvetica, sans-serif" font-size="13.33" font-weight="400" text-anchor="start" x="658" y="1382.65">1st October 2026</text>
  <text dominant-baseline="alphabetic" fill="#E8EEF5" font-family="DejaVu Sans, Arial, Helvetica, sans-serif" font-size="16" font-weight="600" text-anchor="start" x="658" y="1410.65">Launch Preparation</text>
  <line opacity="0.8" stroke="#3A86C8" stroke-width="1.5" x1="589" x2="552" y1="1490" y2="1490"/>
  <rect fill="#1A2E44" height="67" opacity="0.95" rx="6" stroke="#3A86C8" stroke-width="1" width="330" x="222" y="1456.5"/>
  <text dominant-baseline="alphabetic" fill="#8BAAC8" font-family="DejaVu Sans, Arial, Helvetica, sans-serif" font-size="13.33" font-weight="400" text-anchor="end" x="542" y="1482.65">15th November 2026</text>
  <text dominant-baseline="alphabetic" fill="#E8EEF5" font-family="DejaVu Sans, Arial, Helvetica, sans-serif" font-size="16" font-weight="600" text-anchor="end" x="542" y="1510.65">Product Launch</text>
  <circle cx="242" cy="1476" fill="#3A86C8" opacity="0.85" r="10"/>
  <path d="M 12 2 L 16 11 L 15 11 L 15 18 L 9 18 L 9 11 L 8 11 Z M 9 18 L 6 22 L 9 16 Z M 15 18 L 18 22 L 15 16 Z" fill="#0D1B2A" transform="translate(242,1476) scale(0.5417) translate(-12,-12)"/>
  <line opacity="0.8" stroke="#3A86C8" stroke-width="1.5" x1="611" x2="648" y1="1590" y2="1590"/>
  <rect fill="#1A2E44" height="67" opacity="0.95" rx="6" stroke="#3A86C8" stroke-width="1" width="330" x="648" y="1556.5"/>
  <text dominant-baseline="alphabetic" fill="#8BAAC8" font-family="DejaVu Sans, Arial, Helvetica, sans-serif" font-size="13.33" font-weight="400" text-anchor="start" x="658" y="1582.65">1st December 2026</text>
  <text dominant-baseline="alphabetic" fill="#E8EEF5" font-family="DejaVu Sans, Arial, Helvetica, sans-serif" font-size="16" font-weight="600" text-anchor="start" x="658" y="1610.65">General Availability</text>
  <circle cx="958" cy="1576" fill="#3A86C8" opacity="0.85" r="10"/>
  <path d="M 4 2 L 4 21 L 6 21 L 6 17 L 18 11 L 6 5 Z" fill="#0D1B2A" transform="translate(958,1576) scale(0.5417) translate(-12,-12)"/>
  <circle cx="600" cy="190" fill="#3A86C8" r="11" stroke="#0D1B2A" stroke-width="1.5"/>
  <path d="M 12 3 L 14.4 8.8 L 20.6 9.2 L 15.8 13.2 L 17.3 19.3 L 12 16 L 6.7 19.3 L 8.2 13.2 L 3.4 9.2 L 9.6 8.8 Z" fill="#0D1B2A" transform="translate(600,190) scale(0.5958) translate(-12,-12)"/>
  <circle cx="600" cy="290" fill="#607D8B" r="11" stroke="#0D1B2A" stroke-width="1.5"/>
  <circle cx="600" cy="390" fill="#607D8B" r="11" stroke="#0D1B2A" stroke-width="1.5"/>
  <circle cx="600" cy="490" fill="#607D8B" r="11" stroke="#0D1B2A" stroke-width="1.5"/>
  <circle cx="600" cy="590" fill="#607D8B" r="11" stroke="#0D1B2A" stroke-width="1.5"/>
  <circle cx="600" cy="690" fill="#3A86C8" r="11" stroke="#0D1B2A" stroke-width="1.5"/>
  <path d="M 4 12 L 9.5 17.5 L 20 7" fill="none" stroke="#0D1B2A" stroke-linecap="round" stroke-width="2" transform="translate(600,690) scale(0.5958) translate(-12,-12)"/>
  <circle cx="600" cy="790" fill="#00B4D8" r="11" stroke="#0D1B2A" stroke-width="1.5"/>
  <circle cx="600" cy="890" fill="#00B4D8" r="11" stroke="#0D1B2A" stroke-width="1.5"/>
  <circle cx="600" cy="990" fill="#E05252" r="11" stroke="#0D1B2A" stroke-width="1.5"/>
  <circle cx="600" cy="1090" fill="#3A86C8" r="11" stroke="#0D1B2A" stroke-width="1.5"/>
  <circle cx="600" cy="1190" fill="#3A86C8" r="11" stroke="#0D1B2A" stroke-width="1.5"/>
  <path d="M 12 2 L 22 12 L 12 22 L 2 12 Z" fill="#0D1B2A" transform="translate(600,1190) scale(0.5958) translate(-12,-12)"/>
  <circle cx="600" cy="1290" fill="#3A86C8" r="11" stroke="#0D1B2A" stroke-width="1.5"/>
  <circle cx="600" cy="1390" fill="#3A86C8" r="11" stroke="#0D1B2A" stroke-width="1.5"/>
  <circle cx="600" cy="1490" fill="#3A86C8" r="11" stroke="#0D1B2A" stroke-width="1.5"/>
  <path d="M 12 2 L 16 11 L 15 11 L 15 18 L 9 18 L 9 11 L 8 11 Z M 9 18 L 6 22 L 9 16 Z M 15 18 L 18 22 L 15 16 Z" fill="#0D1B2A" transform="translate(600,1490) scale(0.5958) translate(-12,-12)"/>
  <circle cx="600" cy="1590" fill="#3A86C8" r="11" stroke="#0D1B2A" stroke-width="1.5"/>
  <path d="M 4 2 L 4 21 L 6 21 L 6 17 L 18 11 L 6 5 Z" fill="#0D1B2A" transform="translate(600,1590) scale(0.5958) translate(-12,-12)"/>
  <rect fill="#1E3350" height="140.67" opacity="0.95" rx="4" stroke="#2A4060" stroke-width="1" width="170" x="970" y="1567.33"/>
  <text dominant-baseline="alphabetic" fill="#E8EEF5" font-family="DejaVu Sans, Arial, Helvetica, sans-serif" font-size="13.33" font-weight="700" text-anchor="start" x="980" y="1590.67">Legend</text>
  <rect fill="#607D8B" height="12" rx="2" width="12" x="980" y="1603.2"/>
  <text dominant-baseline="middle" fill="#8BAAC8" font-family="DejaVu Sans, Arial, Helvetica, sans-serif" font-size="12" font-weight="400" text-anchor="start" x="1000" y="1609.2">done</text>
  <rect fill="#00B4D8" height="12" rx="2" width="12" x="980" y="1623.6"/>
  <text dominant-baseline="middle" fill="#8BAAC8" font-family="DejaVu Sans, Arial, Helvetica, sans-serif" font-size="12" font-weight="400" text-anchor="start" x="1000" y="1629.6">in-progress</text>
  <rect fill="#E05252" height="12" rx="2" width="12" x="980" y="1644"/>
  <text dominant-baseline="middle" fill="#8BAAC8" font-family="DejaVu Sans, Arial, Helvetica, sans-serif" font-size="12" font-weight="400" text-anchor="start" x="1000" y="1650">blocked</text>
  <rect fill="#3A86C8" height="12" rx="2" width="12" x="980" y="1664.4"/>
  <text dominant-baseline="middle" fill="#8BAAC8" font-family="DejaVu Sans, Arial, Helvetica, sans-serif" font-size="12" font-weight="400" text-anchor="start" x="1000" y="1670.4">planned</text>
  <rect fill="#3A86C8" height="12" rx="2" width="12" x="980" y="1684.8"/>
  <text dominant-baseline="middle" fill="#8BAAC8" font-family="DejaVu Sans, Arial, Helvetica, sans-serif" font-size="12" font-weight="400" text-anchor="start" x="1000" y="1690.8">standard-node</text>
</svg>