<?xml version="1.0" encoding="UTF-8"?>
<svg height="1744" version="1.1" viewBox="0 0 1200 1744" width="1200" xmlns="http://www.w3.org/2000/svg">
  <rect fill="#FFFFFF" height="1744" width="1200" x="0" y="0"/>
  <text dominant-baseline="alphabetic" fill="#111111" font-family="DejaVu Sans, Arial, Helvetica, sans-serif" font-size="24" font-weight="700" text-anchor="middle" x="600" y="80">Project Phoenix — Program Timeline</text>
  <text dominant-baseline="alphabetic" fill="#111111" font-family="DejaVu Sans, Arial, Helvetica, sans-serif" font-size="14.67" font-weight="400" opacity="0.75" text-anchor="middle" x="600" y="108.67">Discovery through General Availability, FY 2026</text>
  <line opacity="0.35" stroke="#374151" stroke-width="0.5" x1="0" x2="1164" y1="120" y2="120"/>
  <rect fill="#4ADE80" height="8" opacity="0.6" width="6" x="597" y="266"/>
  <rect fill="#4ADE80" height="23" opacity="0.6" width="6" x="597" y="366"/>
  <rect fill="#4ADE80" height="113" opacity="0.6" width="6" x="597" y="466"/>
  <rect fill="#4ADE80" height="13" opacity="0.6" width="6" x="597" y="566"/>
  <rect fill="#3B82F6" height="64" opacity="0.7" width="6" x="597" y="766"/>
  <rect fill="#3B82F6" height="26" opacity="0.7" width="6" x="597" y="866"/>
  <rect fill="#F87171" height="181" opacity="0.7" width="6" x="597" y="966"/>
  <rect fill="#93C5FD" height="205" opacity="0.63" width="6" x="597" y="1066"/>
  <rect fill="#93C5FD" height="133" opacity="0.63" width="6" x="597" y="1266"/>
  <rect fill="#93C5FD" height="156" opacity="0.63" width="6" x="597" y="1366"/>
  <line stroke="#374151" stroke-width="2" x1="600" x2="600" y1="150" y2="1650"/>
  <line opacity="0.5" stroke="#374151" stroke-width="1" x1="592" x2="608" y1="150" y2="150"/>
  <text dominant-baseline="alphabetic" fill="#6B7280" font-family="DejaVu Sans, Arial, Helvetica, sans-serif" font-size="10.67" font-weight="400" opacity="0.6" text-anchor="start" x="614" y="148">2026</text>
  <line opacity="0.5" stroke="#374151" stroke-width="1" x1="592" x2="608" y1="278" y2="278"/>
  <text dominant-baseline="alphabetic" fill="#6B7280" font-family="DejaVu Sans, Arial, Helvetica, sans-serif" font-size="10.67" font-weight="400" opacity="0.6" text-anchor="start" x="614" y="276">Feb</text>
  <line opacity="0.5" stroke="#374151" stroke-width="1" x1="592" x2="608" y1="393" y2="393"/>
  <text dominant-baseline="alphabetic" fill="#6B7280" font-family="DejaVu Sans, Arial, Helvetica, sans-serif" font-size="10.67" font-weight="400" opacity="0.6" text-anchor="start" x="614" y="391">Mar</text>
  <line opacity="0.5" stroke="#374151" stroke-width="1" x1="592" x2="608" y1="521" y2="521"/>
  <text dominant-baseline="alphabetic" fill="#6B7280" font-family="DejaVu Sans, Arial, Helvetica, sans-serif" font-size="10.67" font-weight="400" opacity="0.6" text-anchor="start" x="614" y="519">Apr</text>
  <line opacity="0.5" stroke="#374151" stroke-width="1" x1="592" x2="608" y1="645" y2="645"/>
  <text dominant-baseline="alphabetic" fill="#6B7280" font-family="DejaVu Sans, Arial, Helvetica, sans-serif" font-size="10.67" font-weight="400" opacity="0.6" text-anchor="start" x="614" y="643">May</text>
  <line opacity="0.5" stroke="#374151" stroke-width="1" x1="592" x2="608" y1="772" y2="772"/>
  <text dominant-baseline="alphabetic" fill="#6B7280" font-family="DejaVu Sans, Arial, Helvetica, sans-serif" font-size="10.67" font-weight="400" opacity="0.6" text-anchor="start" x="614" y="770">Jun</text>
  <line opacity="0.5" stroke="#374151" stroke-width="1" x1="592" x2="608" y1="896" y2="896"/>
  <text dominant-baseline="alphabetic" fill="#6B7280" font-family="DejaVu Sans, Arial, Helvetica, sans-serif" font-size="10.67" font-weight="400" opacity="0.6" text-anchor="start" x="614" y="894">Jul</text>
  <line opacity="0.5" stroke="#374151" stroke-width="1" x1="592" x2="608" y1="1024" y2="1024"/>
  <text dominant-baseline="alphabetic" fill="#6B7280" font-family="DejaVu Sans, Arial, Helvetica, sans-serif" font-size="10.67" font-weight="400" opacity="0.6" text-anchor="start" x="614" y="1022">Aug</text>
  <line opacity="0.5" stroke="#374151" stroke-width="1" x1="592" x2="608" y1="1151" y2="1151"/>
  <text dominant-baseline="alphabetic" fill="#6B7280" font-family="DejaVu Sans, Arial, Helvetica, sans-serif" font-size="10.67" font-weight="400" opacity="0.6" text-anchor="start" x="614" y="1149">Sep</text>
  <line opacity="0.5" stroke="#374151" stroke-width="1" x1="592" x2="608" y1="1275" y2="1275"/>
  <text dominant-baseline="alphabetic" fill="#6B7280" font-family="DejaVu Sans, Arial, Helvetica, sans-serif" font-size="10.67" font-weight="400" opacity="0.6" text-anchor="start" x="614" y="1273">Oct</text>
  <line opacity="0.5" stroke="#374151" stroke-width="1" x1="592" x2="608" y1="1403" y2="1403"/>
  <text dominant-baseline="alphabetic" fill="#6B7280" font-family="DejaVu Sans, Arial, Helvetica, sans-serif" font-size="10.67" font-weight="400" opacity="0.6" text-anchor="start" x="614" y="1401">Nov</text>
  <line opacity="0.5" stroke="#374151" stroke-width="1" x1="592" x2="608" y1="1526" y2="1526"/>
  <text dominant-baseline="alphabetic" fill="#6B7280" font-family="DejaVu Sans, Arial, Helvetica, sans-serif" font-size="10.67" font-weight="400" opacity="0.6" text-anchor="start" x="614" y="1524">Dec</text>
  <line opacity="0.8" stroke="#3B82F6" stroke-width="1.5" x1="609.9" x2="648" y1="166" y2="166"/>
  <rect fill="#F4F6F8" height="63" opacity="0.95" rx="6" stroke="#3B82F6" stroke-width="1" width="330" x="648" y="134.5"/>
  <text dominant-baseline="alphabetic" fill="#6B7280" font-family="DejaVu Sans, Arial, Helvetica, sans-serif" font-size="12" font-weight="400" text-anchor="start" x="658" y="158.95">5th January 2026</text>
  <text dominant-baseline="alphabetic" fill="#111111" font-family="DejaVu Sans, Arial, Helvetica, sans-serif" font-size="14.67" font-weight="600" text-anchor="start" x="658" y="184.95">Project Kick-off</text>
  <circle cx="959" cy="153" fill="#3B82F6" opacity="0.85" r="9"/>
  <path d="M 12 3 L 14.4 8.8 L 20.6 9.2 L 15.8 13.2 L 17.3 19.3 L 12 16 L 6.7 19.3 L 8.2 13.2 L 3.4 9.2 L 9.6 8.8 Z" fill="#FFFFFF" transform="translate(959,153) scale(0.4875) translate(-12,-12)"/>
  <line opacity="0.8" stroke="#4ADE80" stroke-width="1.5" x1="590.1" x2="552" y1="266" y2="266"/>
  <rect fill="#F4F6F8" height="63" opacity="0.95" rx="6" stroke="#4ADE80" stroke-width="1" width="330" x="222" y="234.5"/>
  <text dominant-baseline="alphabetic" fill="#6B7280" font-family="DejaVu Sans, Arial, Helvetica, sans-serif" font-size="12" font-weight="400" text-anchor="end" x="542" y="258.95">5th January 2026</text>
  <text dominant-baseline="alphabetic" fill="#111111" font-family="DejaVu Sans, Arial, Helvetica, sans-serif" font-size="14.67" font-weight="600" text-anchor="end" x="542" y="284.95">Stakeholder Interviews</text>
  <line opacity="0.8" stroke="#4ADE80" stroke-width="1.5" x1="609.9" x2="648" y1="366" y2="366"/>
  <rect fill="#F4F6F8" height="63" opacity="0.95" rx="6" stroke="#4ADE80" stroke-width="1" width="330" x="648" y="334.5"/>
  <text dominant-baseline="alphabetic" fill="#6B7280" font-family="DejaVu Sans, Arial, Helvetica, sans-serif" font-size="12" font-weight="400" text-anchor="start" x="658" y="358.95">1st February 2026</text>
  <text dominant-baseline="alphabetic" fill="#111111" font-family="DejaVu Sans, Arial, Helvetica, sans-serif" font-size="14.67" font-weight="600" text-anchor="start" x="658" y="384.95">Requirements</text>
  <line opacity="0.8" stroke="#4ADE80" stroke-width="1.5" x1="590.1" x2="552" y1="466" y2="466"/>
  <rect fill="#F4F6F8" height="63" opacity="0.95" rx="6" stroke="#4ADE80" stroke-width="1" width="330" x="222" y="434.5"/>
  <text dominant-baseline="alphabetic" fill="#6B7280" font-family="DejaVu Sans, Arial, Helvetica, sans-serif" font-size="12" font-weight="400" text-anchor="end" x="542" y="458.95">1st March 2026</text>
  <text dominant-baseline="alphabetic" fill="#111111" font-family="DejaVu Sans, Arial, Helvetica, sans-serif" font-size="14.67" font-weight="600" text-anchor="end" x="542" y="484.95">Architecture Design</text>
  <line opacity="0.8" stroke="#4ADE80" stroke-width="1.5" x1="609.9" x2="648" y1="566" y2="566"/>
  <rect fill="#F4F6F8" height="63" opacity="0.95" rx="6" stroke="#4ADE80" stroke-width="1" width="330" x="648" y="534.5"/>
  <text dominant-baseline="alphabetic" fill="#6B7280" font-family="DejaVu Sans, Arial, Helvetica, sans-serif" font-size="12" font-weight="400" text-anchor="start" x="658" y="558.95">1st March 2026</text>
  <text dominant-baseline="alphabetic" fill="#111111" font-family="DejaVu Sans, Arial, Helvetica, sans-serif" font-size="14.67" font-weight="600" text-anchor="start" x="658" y="584.95">Sprint 1 — Foundation</text>
  <line opacity="0.8" stroke="#3B82F6" stroke-width="1.5" x1="590.1" x2="552" y1="666" y2="666"/>
  <rect fill="#F4F6F8" height="63" opacity="0.95" rx="6" stroke="#3B82F6" stroke-width="1" width="330" x="222" y="634.5"/>
  <text dominant-baseline="alphabetic" fill="#6B7280" font-family="DejaVu Sans, Arial, Helvetica, sans-serif" font-size="12" font-weight="400" text-anchor="end" x="542" y="658.95">15th April 2026</text>
  <text dominant-baseline="alphabetic" fill="#111111" font-family="DejaVu Sans, Arial, Helvetica, sans-serif" font-size="14.67" font-weight="600" text-anchor="end" x="542" y="684.95">Architecture Approval</text>
  <circle cx="241" cy="653" fill="#3B82F6" opacity="0.85" r="9"/>
  <path d="M 4 12 L 9.5 17.5 L 20 7" fill="none" stroke="#FFFFFF" stroke-linecap="round" stroke-width="2" transform="translate(241,653) scale(0.4875) translate(-12,-12)"/>
  <line opacity="0.8" stroke="#3B82F6" stroke-width="1.5" x1="609.9" x2="648" y1="766" y2="766"/>
  <rect fill="#F4F6F8" height="63" opacity="0.95" rx="6" stroke="#3B82F6" stroke-width="1" width="330" x="648" y="734.5"/>
  <text dominant-baseline="alphabetic" fill="#6B7280" font-family="DejaVu Sans, Arial, Helvetica, sans-serif" font-size="12" font-weight="400" text-anchor="start" x="658" y="758.95">16th April 2026</text>
  <text dominant-baseline="alphabetic" fill="#111111" font-family="DejaVu Sans, Arial, Helvetica, sans-serif" font-size="14.67" font-weight="600" text-anchor="start" x="658" y="784.95">Sprint 2 — Core Features</text>
  <line opacity="0.8" stroke="#3B82F6" stroke-width="1.5" x1="590.1" x2="552" y1="866" y2="866"/>
  <rect fill="#F4F6F8" height="63" opacity="0.95" rx="6" stroke="#3B82F6" stroke-width="1" width="330" x="222" y="834.5"/>
  <text dominant-baseline="alphabetic" fill="#6B7280" font-family="DejaVu Sans, Arial, Helvetica, sans-serif" font-size="12" font-weight="400" text-anchor="end" x="542" y="858.95">1st May 2026</text>
  <text dominant-baseline="alphabetic" fill="#111111" font-family="DejaVu Sans, Arial, Helvetica, sans-serif" font-size="14.67" font-weight="600" text-anchor="end" x="542" y="884.95">Regression Testing</text>
  <line opacity="0.8" stroke="#F87171" stroke-width="1.5" x1="609.9" x2="648" y1="966" y2="966"/>
  <rect fill="#F4F6F8" height="63" opacity="0.95" rx="6" stroke="#F87171" stroke-width="1" width="330" x="648" y="934.5"/>
  <text dominant-baseline="alphabetic" fill="#6B7280" font-family="DejaVu Sans, Arial, Helvetica, sans-serif" font-size="12" font-weight="400" text-anchor="start" x="658" y="958.95">16th June 2026</text>
  <text dominant-baseline="alphabetic" fill="#111111" font-family="DejaVu Sans, Arial, Helvetica, sans-serif" font-size="14.67" font-weight="600" text-anchor="start" x="658" y="984.95">Sprint 3 — Integrations</text>
  <line opacity="0.8" stroke="#93C5FD" stroke-width="1.5" x1="590.1" x2="552" y1="1066" y2="1066"/>
  <rect fill="#F4F6F8" height="63" opacity="0.95" rx="6" stroke="#93C5FD" stroke-width="1" width="330" x="222" y="1034.5"/>
  <text dominant-baseline="alphabetic" fill="#6B7280" font-family="DejaVu Sans, Arial, Helvetica, sans-serif" font-size="12" font-weight="400" text-anchor="end" x="542" y="1058.95">1st July 2026</text>
  <text dominant-baseline="alphabetic" fill="#111111" font-family="DejaVu Sans, Arial, Helvetica, sans-serif" font-size="14.67" font-weight="600" text-anchor="end" x="542" y="1084.95">Beta Program</text>
  <line opacity="0.8" stroke="#3B82F6" stroke-width="1.5" x1="609.9" x2="648" y1="1166" y2="1166"/>
  <rect fill="#F4F6F8" height="63" opacity="0.95" rx="6" stroke="#3B82F6" stroke-width="1" width="330" x="648" y="1134.5"/>
  <text dominant-baseline="alphabetic" fill="#6B7280" font-family="DejaVu Sans, Arial, Helvetica, sans-serif" font-size="12" font-weight="400" text-anchor="start" x="658" y="1158.95">31st August 2026</text>
  <text dominant-baseline="alphabetic" fill="#111111" font-family="DejaVu Sans, Arial, Helvetica, sans-serif" font-size="14.67" font-weight="600" text-anchor="start" x="658" y="1184.95">Feature Freeze</text>
  <circle cx="959" cy="1153" fill="#3B82F6" opacity="0.85" r="9"/>
  <path d="M 12 2 L 22 12 L 12 22 L 2 12 Z" fill="#FFFFFF" transform="translate(959,1153) scale(0.4875) translate(-12,-12)"/>
  <line opacity="0.8" stroke="#93C5FD" stroke-width="1.5" x1="590.1" x2="552" y1="1266" y2="1266"/>
  <rect fill="#F4F6F8" height="63" opacity="0.95" rx="6" stroke="#93C5FD" stroke-width="1" width="330" x="222" y="1234.5"/>
  <text dominant-baseline="alphabetic" fill="#6B7280" font-family="DejaVu Sans, Arial, Helvetica, sans-serif" font-size="12" font-weight="400" text-anchor="end" x="542" y="1258.95">1st September 2026</text>
  <text dominant-baseline="alphabetic" fill="#111111" font-family="DejaVu Sans, Arial, Helvetica, sans-serif" font-size="14.67" font-weight="600" text-anchor="end" x="542" y="1284.95">Sprint 4 — Polish</text>
  <line opacity="0.8" stroke="#93C5FD" stroke-width="1.5" x1="609.9" x2="648" y1="1366" y2="1366"/>
  <rect fill="#F4F6F8" height="63" opacity="0.95" rx="6" stroke="#93C5FD" stroke-width="1" width="330" x="648" y="1334.5"/>
  <text dominant-baseline="alphabetic" fill="#6B7280" font-family="DejaVu Sans, Arial, Helvetica, sans-serif" font-size="12" font-weight="400" text-anchor="start" x="658" y="1358.95">1st October 2026</text>
  <text dominant-baseline="alphabetic" fill="#111111" font-family="DejaVu Sans, Arial, Helvetica, sans-serif" font-size="14.67" font-weight="600" text-anchor="start" x="658" y="1384.95">Launch Preparation</text>
  <line opacity="0.8" stroke="#3B82F6" stroke-width="1.5" x1="590.1" x2="552" y1="1466" y2="1466"/>
  <rect fill="#F4F6F8" height="63" opacity="0.95" rx="6" stroke="#3B82F6" stroke-width="1" width="330" x="222" y="1434.5"/>
  <text dominant-baseline="alphabetic" fill="#6B7280" font-family="DejaVu Sans, Arial, Helvetica, sans-serif" font-size="12" font-weight="400" text-anchor="end" x="542" y="1458.95">15th November 2026</text>
  <text dominant-baseline="alphabetic" fill="#111111" font-family="DejaVu Sans, Arial, Helvetica, sans-serif" font-size="14.67" font-weight="600" text-anchor="end" x="542" y="1484.95">Product Launch</text>
  <circle cx="241" cy="1453" fill="#3B82F6" opacity="0.85" r="9"/>
  <path d="M 12 2 L 16 11 L 15 11 L 15 18 L 9 18 L 9 11 L 8 11 Z M 9 18 L 6 22 L 9 16 Z M 15 18 L 18 22 L 15 16 Z" fill="#FFFFFF" transform="translate(241,1453) scale(0.4875) translate(-12,-12)"/>
  <line opacity="0.8" stroke="#3B82F6" stroke-width="1.5" x1="609.9" x2="648" y1="1566" y2="1566"/>
  <rect fill="#F4F6F8" height="63" opacity="0.95" rx="6" stroke="#3B82F6" stroke-width="1" width="330" x="648" y="1534.5"/>
  <text dominant-baseline="alphabetic" fill="#6B7280" font-family="DejaVu Sans, Arial, Helvetica, sans-serif" font-size="12" font-weight="400" text-anchor="start" x="658" y="1558.95">1st December 2026</text>
  <text dominant-baseline="alphabetic" fill="#111111" font-family="DejaVu Sans, Arial, Helvetica, sans-serif" font-size="14.67" font-weight="600" text-anchor="start" x="658" y="1584.95">General Availability</text>
  <circle cx="959" cy="1553" fill="#3B82F6" opacity="0.85" r="9"/>
  <path d="M 4 2 L 4 21 L 6 21 L 6 17 L 18 11 L 6 5 Z" fill="#FFFFFF" transform="translate(959,1553) scale(0.4875) translate(-12,-12)"/>
  <circle cx="600" cy="166" fill="#3B82F6" r="9.9" stroke="#FFFFFF" stroke-width="1.5"/>
  <path d="M 12 3 L 14.4 8.8 L 20.6 9.2 L 15.8 13.2 L 17.3 19.3 L 12 16 L 6.7 19.3 L 8.2 13.2 L 3.4 9.2 L 9.6 8.8 Z" fill="#FFFFFF" transform="translate(600,166) scale(0.5363) translate(-12,-12)"/>
  <circle cx="600" cy="266" fill="#4ADE80" r="9.9" stroke="#FFFFFF" stroke-width="1.5"/>
  <circle cx="600" cy="366" fill="#4ADE80" r="9.9" stroke="#FFFFFF" stroke-width="1.5"/>
  <circle cx="600" cy="466" fill="#4ADE80" r="9.9" stroke="#FFFFFF" stroke-width="1.5"/>
  <circle cx="600" cy="566" fill="#4ADE80" r="9.9" stroke="#FFFFFF" stroke-width="1.5"/>
  <circle cx="600" cy="666" fill="#3B82F6" r="9.9" stroke="#FFFFFF" stroke-width="1.5"/>
  <path d="M 4 12 L 9.5 17.5 L 20 7" fill="none" stroke="#FFFFFF" stroke-linecap="round" stroke-width="2" transform="translate(600,666) scale(0.5363) translate(-12,-12)"/>
  <circle cx="600" cy="766" fill="#3B82F6" r="9.9" stroke="#FFFFFF" stroke-width="1.5"/>
  <circle cx="600" cy="866" fill="#3B82F6" r="9.9" stroke="#FFFFFF" stroke-width="1.5"/>
  <circle cx="600" cy="966" fill="#F87171" r="9.9" stroke="#FFFFFF" stroke-width="1.5"/>
  <circle cx="600" cy="1066" fill="#93C5FD" r="9.9" stroke="#FFFFFF" stroke-width="1.5"/>
  <circle cx="600" cy="1166" fill="#3B82F6" r="9.9" stroke="#FFFFFF" stroke-width="1.5"/>
  <path d="M 12 2 L 22 12 L 12 22 L 2 12 Z" fill="#FFFFFF" transform="translate(600,1166) scale(0.5363) translate(-12,-12)"/>
  <circle cx="600" cy="1266" fill="#93C5FD" r="9.9" stroke="#FFFFFF" stroke-width="1.5"/>
  <circle cx="600" cy="1366" fill="#93C5FD" r="9.9" stroke="#FFFFFF" stroke-width="1.5"/>
  <circle cx="600" cy="1466" fill="#3B82F6" r="9.9" stroke="#FFFFFF" stroke-width="1.5"/>
  <path d="M 12 2 L 16 11 L 15 11 L 15 18 L 9 18 L 9 11 L 8 11 Z M 9 18 L 6 22 L 9 16 Z M 15 18 L 18 22 L 15 16 Z" fill="#FFFFFF" transform="translate(600,1466) scale(0.5363) translate(-12,-12)"/>
  <circle cx="600" cy="1566" fill="#3B82F6" r="9.9" stroke="#FFFFFF" stroke-width="1.5"/>
  <path d="M 4 2 L 4 21 L 6 21 L 6 17 L 18 11 L 6 5 Z" fill="#FFFFFF" transform="translate(600,1566) scale(0.5363) translate(-12,-12)"/>
  <rect fill="#FFFFFF" height="129.8" opacity="0.95" rx="4" stroke="#E5E7EB" stroke-width="1" width="160" x="988" y="1554.2"/>
  <text dominant-baseline="alphabetic" fill="#111111" font-family="DejaVu Sans, Arial, Helvetica, sans-serif" font-size="12" font-weight="700" text-anchor="start" x="998" y="1576.2">Legend</text>
  <rect fill="#4ADE80" height="12" rx="3" width="12" x="998" y="1586.4"/>
  <text dominant-baseline="middle" fill="#6B7280" font-family="DejaVu Sans, Arial, Helvetica, sans-serif" font-size="10.67" font-weight="400" text-anchor="start" x="1018" y="1592.4">done</text>
  <rect fill="#3B82F6" height="12" rx="3" width="12" x="998" y="1605.2"/>
  <text dominant-baseline="middle" fill="#6B7280" font-family="DejaVu Sans, Arial, Helvetica, sans-serif" font-size="10.67" font-weight="400" text-anchor="start" x="1018" y="1611.2">in-progress</text>
  <rect fill="#F87171" height="12" rx="3" width="12" x="998" y="1624"/>
  <text dominant-baseline="middle" fill="#6B7280" font-family="DejaVu Sans, Arial, Helvetica, sans-serif" font-size="10.67" font-weight="400" text-anchor="start" x="1018" y="1630">blocked</text>
  <rect fill="#93C5FD" height="12" rx="3" width="12" x="998" y="1642.8"/>
  <text dominant-baseline="middle" fill="#6B7280" font-family="DejaVu Sans, Arial, Helvetica, sans-serif" font-size="10.67" font-weight="400" text-anchor="start" x="1018" y="1648.8">planned</text>
  <rect fill="#3B82F6" height="12" rx="3" width="12" x="998" y="1661.6"/>
  <text dominant-baseline="middle" fill="#6B7280" font-family="DejaVu Sans, Arial, Helvetica, sans-serif" font-size="10.67" font-weight="400" text-anchor="start" x="1018" y="1667.6">standard-node</text>
</svg>