<svg xmlns="http://www.w3.org/2000/svg" viewBox="0 0 359 952" width="359" height="952">
  <defs>
    <marker id="state-arrow" markerWidth="10" markerHeight="8" refX="9" refY="4" orient="auto"><polygon points="0 0, 10 4, 0 8" fill="#64748B" /></marker>
  </defs>
  <rect x="0" y="0" width="359" height="952" fill="#FFFFFF" />
  <text x="24" y="42" font-size="18" font-family="Inter, system-ui, -apple-system, sans-serif" fill="#1E293B" font-weight="bold">Order Payment Lifecycle</text>
  <rect x="204.84" y="104" width="122.4" height="178" fill="#F8FAFC" stroke="#4A90D9" stroke-width="1.4" rx="10" opacity="0.5" />
  <text x="216.84" y="120" font-size="11" font-family="Inter, system-ui, -apple-system, sans-serif" fill="#1E293B" font-weight="bold">Processing</text>
  <path d="M 192.3004034883721 78 L 149.72718488372095 134" stroke="#64748B" stroke-width="1.4" fill="none" marker-end="url(#state-arrow)" />
  <path d="M 135.2827 172 L 135.2827 228" stroke="#64748B" stroke-width="1.4" fill="none" marker-end="url(#state-arrow)" />
  <rect x="152.89" y="158.45" width="72.36" height="15" fill="#FFFFFF" stroke="#FFFFFF" stroke-width="0" />
  <text x="189" y="168.45" font-size="11" font-family="Inter, system-ui, -apple-system, sans-serif" fill="#64748B" text-anchor="middle">order_placed</text>
  <path d="M 122.5554085106383 266 L 85.04339148936171 322" stroke="#64748B" stroke-width="1.4" fill="none" marker-end="url(#state-arrow)" />
  <rect x="91.37" y="269.88" width="119.3" height="15" fill="#FFFFFF" stroke="#FFFFFF" stroke-width="0" />
  <text x="151" y="279.88" font-size="11" font-family="Inter, system-ui, -apple-system, sans-serif" fill="#64748B" text-anchor="middle">authorize [amount &gt; 0]</text>
  <path d="M 148.0099914893617 266 L 185.5220085106383 322" stroke="#64748B" stroke-width="1.4" fill="none" marker-end="url(#state-arrow)" />
  <rect x="153.24" y="291" width="125.74" height="15" fill="#FFFFFF" stroke="#FFFFFF" stroke-width="0" />
  <text x="216" y="301" font-size="11" font-family="Inter, system-ui, -apple-system, sans-serif" fill="#64748B" text-anchor="middle">authorize [amount &lt;= 0]</text>
  <path d="M 196.0819713768116 360 L 196.0819713768116 621 L 136.53746920289856 621 L 136.53746920289856 882" stroke="#64748B" stroke-width="1.4" fill="none" marker-end="url(#state-arrow)" />
  <path d="M 209.02559651162792 78 L 251.5988151162791 134" stroke="#64748B" stroke-width="1.4" fill="none" marker-end="url(#state-arrow)" />
  <path d="M 266.04330000000004 172 L 266.04330000000004 228" stroke="#64748B" stroke-width="1.4" fill="none" marker-end="url(#state-arrow)" />
  <rect x="250.72" y="189" width="30.64" height="15" fill="#FFFFFF" stroke="#FFFFFF" stroke-width="0" />
  <text x="266" y="199" font-size="11" font-family="Inter, system-ui, -apple-system, sans-serif" fill="#64748B" text-anchor="middle">valid</text>
  <path d="M 262.1974 266 L 262.1974 574 L 137.50927368421054 574 L 137.50927368421054 882" stroke="#64748B" stroke-width="1.4" fill="none" marker-end="url(#state-arrow)" />
  <path d="M 72.3161 360 L 72.3161 416" stroke="#64748B" stroke-width="1.4" fill="none" marker-end="url(#state-arrow)" />
  <path d="M 72.3161 450 L 72.3161 600" stroke="#64748B" stroke-width="1.4" fill="none" marker-end="url(#state-arrow)" />
  <rect x="35.21" y="514" width="74.2" height="15" fill="#FFFFFF" stroke="#FFFFFF" stroke-width="0" />
  <text x="72" y="524" font-size="11" font-family="Inter, system-ui, -apple-system, sans-serif" fill="#64748B" text-anchor="middle">[full payment]</text>
  <path d="M 72.3161 450 L 72.3161 506" stroke="#64748B" stroke-width="1.4" fill="none" marker-end="url(#state-arrow)" />
  <rect x="49.93" y="467" width="44.77" height="15" fill="#FFFFFF" stroke="#FFFFFF" stroke-width="0" />
  <text x="72" y="477" font-size="11" font-family="Inter, system-ui, -apple-system, sans-serif" fill="#64748B" text-anchor="middle">[partial]</text>
  <path d="M 72.3161 544 L 72.3161 600" stroke="#64748B" stroke-width="1.4" fill="none" marker-end="url(#state-arrow)" />
  <rect x="32.15" y="561" width="80.33" height="15" fill="#FFFFFF" stroke="#FFFFFF" stroke-width="0" />
  <text x="72" y="571" font-size="11" font-family="Inter, system-ui, -apple-system, sans-serif" fill="#64748B" text-anchor="middle">remaining paid</text>
  <path d="M 98.2585585106383 638 L 174.72054148936172 694" stroke="#64748B" stroke-width="1.4" fill="none" marker-end="url(#state-arrow)" />
  <rect x="88.96" y="655" width="95.06" height="15" fill="#FFFFFF" stroke="#FFFFFF" stroke-width="0" />
  <text x="136" y="665" font-size="11" font-family="Inter, system-ui, -apple-system, sans-serif" fill="#64748B" text-anchor="middle">refund_requested</text>
  <path d="M 200.663 732 L 200.663 788" stroke="#64748B" stroke-width="1.4" fill="none" marker-end="url(#state-arrow)" />
  <rect x="158.67" y="749" width="83.99" height="15" fill="#FFFFFF" stroke="#FFFFFF" stroke-width="0" />
  <text x="201" y="759" font-size="11" font-family="Inter, system-ui, -apple-system, sans-serif" fill="#64748B" text-anchor="middle">process_refund</text>
  <path d="M 186.2185151162791 826 L 143.64529651162792 882" stroke="#64748B" stroke-width="1.4" fill="none" marker-end="url(#state-arrow)" />
  <path d="M 76.68239708029198 638 L 132.75484379562045 882" stroke="#64748B" stroke-width="1.4" fill="none" marker-end="url(#state-arrow)" />
  <circle cx="200.66" cy="67" r="8" fill="#1E293B" stroke="#1E293B" stroke-width="0" />
  <rect x="97.28" y="134" width="76" height="38" fill="#F8FAFC" stroke="#4A90D9" stroke-width="1.4" rx="10" />
  <text x="135" y="157.9" font-size="14" font-family="Inter, system-ui, -apple-system, sans-serif" fill="#1E293B" text-anchor="middle" font-weight="bold">Idle</text>
  <rect x="24.38" y="322" width="95.87" height="38" fill="#F8FAFC" stroke="#4A90D9" stroke-width="1.4" rx="10" />
  <text x="72" y="345.9" font-size="14" font-family="Inter, system-ui, -apple-system, sans-serif" fill="#1E293B" text-anchor="middle" font-weight="bold">Authorized</text>
  <rect x="160.25" y="322" width="76" height="38" fill="#F8FAFC" stroke="#4A90D9" stroke-width="1.4" rx="10" />
  <text x="198" y="345.9" font-size="14" font-family="Inter, system-ui, -apple-system, sans-serif" fill="#1E293B" text-anchor="middle" font-weight="bold">Failed</text>
  <circle cx="135.28" cy="893" r="10" fill="none" stroke="#1E293B" stroke-width="1.5" />
  <circle cx="135.28" cy="893" r="5" fill="#1E293B" stroke="#1E293B" stroke-width="0" />
  <rect x="220.84" y="134" width="90.4" height="38" fill="#F8FAFC" stroke="#4A90D9" stroke-width="1.4" rx="10" />
  <text x="266" y="157.9" font-size="14" font-family="Inter, system-ui, -apple-system, sans-serif" fill="#1E293B" text-anchor="middle" font-weight="bold">Validating</text>
  <rect x="223.58" y="228" width="84.93" height="38" fill="#F8FAFC" stroke="#4A90D9" stroke-width="1.4" rx="10" />
  <text x="266" y="251.9" font-size="14" font-family="Inter, system-ui, -apple-system, sans-serif" fill="#1E293B" text-anchor="middle" font-weight="bold">Charging</text>
  <path d="M 72.32 416 L 89.32 433 L 72.32 450 L 55.32 433 Z" stroke="#CBD5E1" stroke-width="1.4" fill="#F8FAFC" />
  <rect x="24" y="600" width="96.63" height="38" fill="#F8FAFC" stroke="#4A90D9" stroke-width="1.4" rx="10" />
  <text x="72" y="623.9" font-size="14" font-family="Inter, system-ui, -apple-system, sans-serif" fill="#1E293B" text-anchor="middle" font-weight="bold">Completed</text>
  <rect x="26.74" y="506" width="91.15" height="38" fill="#F8FAFC" stroke="#4A90D9" stroke-width="1.4" rx="10" />
  <text x="72" y="529.9" font-size="14" font-family="Inter, system-ui, -apple-system, sans-serif" fill="#1E293B" text-anchor="middle" font-weight="bold">PartialPay</text>
  <rect x="154.68" y="694" width="91.97" height="38" fill="#F8FAFC" stroke="#4A90D9" stroke-width="1.4" rx="10" />
  <text x="201" y="717.9" font-size="14" font-family="Inter, system-ui, -apple-system, sans-serif" fill="#1E293B" text-anchor="middle" font-weight="bold">Refunding</text>
  <rect x="156.23" y="788" width="88.87" height="38" fill="#F8FAFC" stroke="#4A90D9" stroke-width="1.4" rx="10" />
  <text x="201" y="811.9" font-size="14" font-family="Inter, system-ui, -apple-system, sans-serif" fill="#1E293B" text-anchor="middle" font-weight="bold">Refunded</text>
</svg>