<svg xmlns="http://www.w3.org/2000/svg" viewBox="0 0 998 620" width="998" height="620">
  <rect width="100%" height="100%" fill="#FFFFFF" />
  <text x="24" y="42" font-size="18" font-family="Inter, system-ui, -apple-system, sans-serif" fill="#111827" font-weight="bold">Platform Modernisation Roadmap 2025</text>
  <path d="M 360.36 86 L 360.36 596" stroke="#E5E7EB" stroke-width="1" fill="none" opacity="0.4" />
  <text x="360.36" y="78" font-size="11" font-family="Inter, system-ui, -apple-system, sans-serif" fill="#6B7280" text-anchor="middle">2025</text>
  <path d="M 474.91 86 L 474.91 596" stroke="#E5E7EB" stroke-width="1" fill="none" opacity="0.4" />
  <text x="474.91" y="78" font-size="11" font-family="Inter, system-ui, -apple-system, sans-serif" fill="#6B7280" text-anchor="middle">Mar</text>
  <path d="M 601.73 86 L 601.73 596" stroke="#E5E7EB" stroke-width="1" fill="none" opacity="0.4" />
  <text x="601.73" y="78" font-size="11" font-family="Inter, system-ui, -apple-system, sans-serif" fill="#6B7280" text-anchor="middle">Apr</text>
  <path d="M 724.45 86 L 724.45 596" stroke="#E5E7EB" stroke-width="1" fill="none" opacity="0.4" />
  <text x="724.45" y="78" font-size="11" font-family="Inter, system-ui, -apple-system, sans-serif" fill="#6B7280" text-anchor="middle">May</text>
  <path d="M 851.27 86 L 851.27 596" stroke="#E5E7EB" stroke-width="1" fill="none" opacity="0.4" />
  <text x="851.27" y="78" font-size="11" font-family="Inter, system-ui, -apple-system, sans-serif" fill="#6B7280" text-anchor="middle">Jun</text>
  <path d="M 974 86 L 974 596" stroke="#E5E7EB" stroke-width="1" fill="none" opacity="0.4" />
  <text x="974" y="78" font-size="11" font-family="Inter, system-ui, -apple-system, sans-serif" fill="#6B7280" text-anchor="middle">Jul</text>
  <path d="M 254 86 L 974 86" stroke="#E5E7EB" stroke-width="1.5" fill="none" />
  <rect x="24" y="86" width="950" height="26" fill="#F9FAFB" stroke="#F9FAFB" stroke-width="0" />
  <text x="30" y="103.9" font-size="14" font-family="Inter, system-ui, -apple-system, sans-serif" fill="#111827" font-weight="bold">Infrastructure</text>
  <text x="28" y="132.85" font-size="11" font-family="Inter, system-ui, -apple-system, sans-serif" fill="#111827">Containerise services</text>
  <rect x="254" y="120" width="122.73" height="18" fill="#10B981" stroke="#10B981" stroke-width="0" rx="3" />
  <text x="28" y="162.85" font-size="11" font-family="Inter, system-ui, -apple-system, sans-serif" fill="#111827">Kubernetes migration</text>
  <rect x="376.73" y="150" width="184.09" height="18" fill="#10B981" stroke="#10B981" stroke-width="0" rx="3" />
  <text x="28" y="192.85" font-size="11" font-family="Inter, system-ui, -apple-system, sans-serif" fill="#111827">CI/CD pipeline upgrade</text>
  <rect x="560.82" y="180" width="81.82" height="18" fill="#3B82F6" stroke="#3B82F6" stroke-width="0" rx="3" />
  <text x="28" y="222.85" font-size="11" font-family="Inter, system-ui, -apple-system, sans-serif" fill="#111827">Monitoring &amp; alerting</text>
  <rect x="642.64" y="210" width="102.27" height="18" fill="#8B5CF6" stroke="#8B5CF6" stroke-width="0" rx="3" />
  <rect x="24" y="236" width="950" height="26" fill="#F9FAFB" stroke="#F9FAFB" stroke-width="0" />
  <text x="30" y="253.9" font-size="14" font-family="Inter, system-ui, -apple-system, sans-serif" fill="#111827" font-weight="bold">Backend</text>
  <text x="28" y="282.85" font-size="11" font-family="Inter, system-ui, -apple-system, sans-serif" fill="#111827">API gateway v2</text>
  <rect x="254" y="270" width="102.27" height="18" fill="#10B981" stroke="#10B981" stroke-width="0" rx="3" />
  <text x="28" y="312.85" font-size="11" font-family="Inter, system-ui, -apple-system, sans-serif" fill="#111827">Auth service refactor</text>
  <rect x="356.27" y="300" width="81.82" height="18" fill="#10B981" stroke="#10B981" stroke-width="0" rx="3" />
  <text x="28" y="342.85" font-size="11" font-family="Inter, system-ui, -apple-system, sans-serif" fill="#111827">Event streaming setup</text>
  <rect x="438.09" y="330" width="122.73" height="18" fill="#3B82F6" stroke="#3B82F6" stroke-width="0" rx="3" />
  <text x="28" y="372.85" font-size="11" font-family="Inter, system-ui, -apple-system, sans-serif" fill="#111827">GraphQL layer</text>
  <rect x="560.82" y="360" width="102.27" height="18" fill="#8B5CF6" stroke="#8B5CF6" stroke-width="0" rx="3" />
  <rect x="24" y="386" width="950" height="26" fill="#F9FAFB" stroke="#F9FAFB" stroke-width="0" />
  <text x="30" y="403.9" font-size="14" font-family="Inter, system-ui, -apple-system, sans-serif" fill="#111827" font-weight="bold">Frontend</text>
  <text x="28" y="432.85" font-size="11" font-family="Inter, system-ui, -apple-system, sans-serif" fill="#111827">Design system v2</text>
  <rect x="360.36" y="420" width="163.64" height="18" fill="#10B981" stroke="#10B981" stroke-width="0" rx="3" />
  <text x="28" y="462.85" font-size="11" font-family="Inter, system-ui, -apple-system, sans-serif" fill="#111827">Component migration</text>
  <rect x="524" y="450" width="143.18" height="18" fill="#3B82F6" stroke="#3B82F6" stroke-width="0" rx="3" />
  <text x="28" y="492.85" font-size="11" font-family="Inter, system-ui, -apple-system, sans-serif" fill="#111827">Performance audit</text>
  <rect x="667.18" y="480" width="61.37" height="18" fill="#8B5CF6" stroke="#8B5CF6" stroke-width="0" rx="3" />
  <rect x="24" y="506" width="950" height="26" fill="#F9FAFB" stroke="#F9FAFB" stroke-width="0" />
  <text x="30" y="523.9" font-size="14" font-family="Inter, system-ui, -apple-system, sans-serif" fill="#111827" font-weight="bold">Release</text>
  <text x="28" y="552.85" font-size="11" font-family="Inter, system-ui, -apple-system, sans-serif" fill="#111827">Beta launch</text>
  <path d="M 781.73 541 L 789.73 549 L 781.73 557 L 773.73 549 Z" stroke="#FFFFFF" stroke-width="1.5" fill="#EF4444" />
  <text x="28" y="582.85" font-size="11" font-family="Inter, system-ui, -apple-system, sans-serif" fill="#111827">Public GA</text>
  <path d="M 974 571 L 982 579 L 974 587 L 966 579 Z" stroke="#FFFFFF" stroke-width="1.5" fill="#EF4444" />
</svg>