<svg xmlns="http://www.w3.org/2000/svg" viewBox="0 0 644 397.0769230769231" width="644" height="397.0769230769231">
  <rect width="100%" height="100%" fill="#FFFFFF" />
  <text x="24" y="42" font-size="20" font-family="Inter, system-ui, -apple-system, sans-serif" fill="#1E293B" font-weight="bold">System Dashboard</text>
  <rect x="24" y="58" width="336" height="168" fill="#F8FAFC" stroke="#CBD5E1" stroke-width="1" rx="6" />
  <text x="32" y="76" font-size="14" font-family="Inter, system-ui, -apple-system, sans-serif" fill="#1E293B" font-weight="bold">Services</text>
  <g transform="translate(57.28571428571428, 84) scale(0.8214285714285714)">
    <path d="M 144 84 L 144 64 L 184 64 L 184 44" stroke="#4A90D9" stroke-width="1.5" fill="none" marker-end="url(#triton-arrow)" />
    <path d="M 144 84 L 144 104 L 184 104 L 184 124" stroke="#4A90D9" stroke-width="1.5" fill="none" marker-end="url(#triton-arrow)" />
    <g id="api">
      <rect x="24" y="64" width="120" height="40" fill="#F8FAFC" stroke="#CBD5E1" stroke-width="1.5" rx="2" />
      <text x="84" y="88.9" font-size="14" font-family="Inter, system-ui, -apple-system, sans-serif" fill="#1E293B" text-anchor="middle">API</text>
    </g>
    <g id="db">
      <rect x="184" y="24" width="120" height="40" fill="#F8FAFC" stroke="#CBD5E1" stroke-width="1.5" rx="2" />
      <text x="244" y="48.9" font-size="14" font-family="Inter, system-ui, -apple-system, sans-serif" fill="#1E293B" text-anchor="middle">Database</text>
    </g>
    <g id="cache">
      <rect x="184" y="104" width="120" height="40" fill="#F8FAFC" stroke="#CBD5E1" stroke-width="1.5" rx="2" />
      <text x="244" y="128.9" font-size="14" font-family="Inter, system-ui, -apple-system, sans-serif" fill="#1E293B" text-anchor="middle">Cache</text>
    </g>
  </g>
  <rect x="380" y="58" width="240" height="168" fill="#F8FAFC" stroke="#CBD5E1" stroke-width="1" rx="6" />
  <text x="388" y="76" font-size="14" font-family="Inter, system-ui, -apple-system, sans-serif" fill="#1E293B" font-weight="bold">Uptime</text>
  <g transform="translate(459.5, 120.7) scale(1)">
    <text x="40.5" y="33.6" font-size="27" font-family="Inter, system-ui, -apple-system, sans-serif" fill="#4A90D9" text-anchor="middle" font-weight="bold">99.95%</text>
    <text x="40.5" y="50.400000000000006" font-size="11" font-family="Inter, system-ui, -apple-system, sans-serif" fill="#64748B" text-anchor="middle">availability</text>
  </g>
  <rect x="24" y="246" width="336" height="127.07692307692307" fill="#F8FAFC" stroke="#CBD5E1" stroke-width="1" rx="6" />
  <text x="32" y="264" font-size="14" font-family="Inter, system-ui, -apple-system, sans-serif" fill="#1E293B" font-weight="bold">Roadmap</text>
  <g transform="translate(63.661016949152554, 272) scale(0.41134289439374183)">
    <text x="24" y="42" font-size="18" font-family="Inter, system-ui, -apple-system, sans-serif" fill="#1E293B" font-weight="bold">Milestones</text>
    <path d="M 44 118 L 600 118" stroke="#CBD5E1" stroke-width="2" fill="none" />
    <text x="24" y="156.4" font-size="11" font-family="Inter, system-ui, -apple-system, sans-serif" fill="#64748B">Default</text>
    <rect x="44" y="136" width="60" height="32" fill="#F8FAFC" stroke="#CBD5E1" stroke-width="1" rx="4" />
    <text x="74" y="156.4" font-size="11" font-family="Inter, system-ui, -apple-system, sans-serif" fill="#1E293B" text-anchor="middle">Alpha</text>
    <rect x="414.66666666666663" y="136" width="60" height="32" fill="#F8FAFC" stroke="#CBD5E1" stroke-width="1" rx="4" />
    <text x="444.66666666666663" y="156.4" font-size="11" font-family="Inter, system-ui, -apple-system, sans-serif" fill="#1E293B" text-anchor="middle">Beta</text>
    <rect x="600" y="136" width="60" height="32" fill="#F8FAFC" stroke="#CBD5E1" stroke-width="1" rx="4" />
    <text x="630" y="156.4" font-size="11" font-family="Inter, system-ui, -apple-system, sans-serif" fill="#1E293B" text-anchor="middle">GA</text>
  </g>
  <rect x="380" y="246" width="240" height="127.07692307692307" fill="#F8FAFC" stroke="#CBD5E1" stroke-width="1" rx="6" />
  <text x="388" y="264" font-size="14" font-family="Inter, system-ui, -apple-system, sans-serif" fill="#1E293B" font-weight="bold">Notes</text>
  <g transform="translate(384, 299.4651282051282) scale(0.9666666666666667)">
    <text x="12" y="23.200000000000003" font-size="14" font-family="Inter, system-ui, -apple-system, sans-serif" fill="#1E293B">All services operating normally.</text>
  </g>
</svg>