<svg xmlns="http://www.w3.org/2000/svg" viewBox="0 0 828 312" width="828" height="312">
  <rect width="100%" height="100%" fill="#0A1628" />
  <path d="M 94 48 L 724 48" stroke="#7C3AED" stroke-width="3" fill="none" opacity="0.55" />
  <text x="24" y="51.85" font-size="11" font-family="Inter, system-ui, -apple-system, sans-serif" fill="#7C3AED" font-weight="bold">main</text>
  <path d="M 164 108 L 584 108" stroke="#0EA5A8" stroke-width="3" fill="none" opacity="0.55" />
  <text x="24" y="111.85" font-size="11" font-family="Inter, system-ui, -apple-system, sans-serif" fill="#0EA5A8" font-weight="bold">develop</text>
  <path d="M 304 168 L 374 168" stroke="#D97706" stroke-width="3" fill="none" opacity="0.55" />
  <text x="24" y="171.85" font-size="11" font-family="Inter, system-ui, -apple-system, sans-serif" fill="#D97706" font-weight="bold">feature/auth</text>
  <path d="M 514 228 L 514 228" stroke="#5B4FCF" stroke-width="3" fill="none" opacity="0.55" />
  <text x="24" y="231.85" font-size="11" font-family="Inter, system-ui, -apple-system, sans-serif" fill="#5B4FCF" font-weight="bold">feature/payments</text>
  <path d="M 94 48 C 129 48, 129 108, 164 108" stroke="#0EA5A8" stroke-width="2.5" fill="none" opacity="0.55" />
  <path d="M 234 108 C 269 108, 269 168, 304 168" stroke="#D97706" stroke-width="2.5" fill="none" opacity="0.55" />
  <path d="M 444 108 C 479 108, 479 228, 514 228" stroke="#5B4FCF" stroke-width="2.5" fill="none" opacity="0.55" />
  <path d="M 374 168 C 409 168, 409 108, 444 108" stroke="#D97706" stroke-width="2.5" fill="none" opacity="0.6" />
  <path d="M 514 228 C 549 228, 549 108, 584 108" stroke="#5B4FCF" stroke-width="2.5" fill="none" opacity="0.6" />
  <path d="M 584 108 C 619 108, 619 48, 654 48" stroke="#0EA5A8" stroke-width="2.5" fill="none" opacity="0.6" />
  <circle cx="94" cy="48" r="8" fill="#7C3AED" stroke="#0A1628" stroke-width="2" />
  <text x="94" y="70" font-size="11" font-family="Inter, system-ui, -apple-system, sans-serif" fill="#6B8FAF" text-anchor="middle">initial</text>
  <rect x="77.58" y="14" width="32.84" height="17" fill="#D2992222" stroke="#D29922" stroke-width="1" rx="3" />
  <text x="94" y="26" font-size="11" font-family="Inter, system-ui, -apple-system, sans-serif" fill="#E8EDF5" text-anchor="middle" font-weight="bold">v0.1</text>
  <circle cx="164" cy="108" r="8" fill="#0EA5A8" stroke="#0A1628" stroke-width="2" />
  <text x="164" y="130" font-size="11" font-family="Inter, system-ui, -apple-system, sans-serif" fill="#6B8FAF" text-anchor="middle">setup-ci</text>
  <circle cx="234" cy="108" r="8" fill="#0EA5A8" stroke="#0A1628" stroke-width="2" />
  <text x="234" y="130" font-size="11" font-family="Inter, system-ui, -apple-system, sans-serif" fill="#6B8FAF" text-anchor="middle">add-tests</text>
  <circle cx="304" cy="168" r="8" fill="#D97706" stroke="#0A1628" stroke-width="2" />
  <text x="304" y="190" font-size="11" font-family="Inter, system-ui, -apple-system, sans-serif" fill="#6B8FAF" text-anchor="middle">auth-model</text>
  <circle cx="374" cy="168" r="8" fill="#D97706" stroke="#0A1628" stroke-width="2" />
  <text x="374" y="190" font-size="11" font-family="Inter, system-ui, -apple-system, sans-serif" fill="#6B8FAF" text-anchor="middle">auth-api</text>
  <circle cx="444" cy="108" r="9" fill="#0A1628" stroke="#0EA5A8" stroke-width="2.5" />
  <circle cx="444" cy="108" r="3.5" fill="#0EA5A8" stroke="#0EA5A8" stroke-width="0" />
  <text x="444" y="130" font-size="11" font-family="Inter, system-ui, -apple-system, sans-serif" fill="#6B8FAF" text-anchor="middle">merge-auth</text>
  <circle cx="514" cy="228" r="8" fill="#5B4FCF" stroke="#0A1628" stroke-width="2" />
  <text x="514" y="250" font-size="11" font-family="Inter, system-ui, -apple-system, sans-serif" fill="#6B8FAF" text-anchor="middle">payment-model</text>
  <circle cx="584" cy="108" r="9" fill="#0A1628" stroke="#0EA5A8" stroke-width="2.5" />
  <circle cx="584" cy="108" r="3.5" fill="#0EA5A8" stroke="#0EA5A8" stroke-width="0" />
  <text x="584" y="130" font-size="11" font-family="Inter, system-ui, -apple-system, sans-serif" fill="#6B8FAF" text-anchor="middle">merge-payments</text>
  <circle cx="654" cy="48" r="9" fill="#0A1628" stroke="#7C3AED" stroke-width="2.5" />
  <circle cx="654" cy="48" r="3.5" fill="#7C3AED" stroke="#7C3AED" stroke-width="0" />
  <text x="654" y="70" font-size="11" font-family="Inter, system-ui, -apple-system, sans-serif" fill="#6B8FAF" text-anchor="middle">release-1.0</text>
  <rect x="637.58" y="14" width="32.84" height="17" fill="#D2992222" stroke="#D29922" stroke-width="1" rx="3" />
  <text x="654" y="26" font-size="11" font-family="Inter, system-ui, -apple-system, sans-serif" fill="#E8EDF5" text-anchor="middle" font-weight="bold">v1.0</text>
  <rect x="715" y="39" width="18" height="18" fill="#D29922" stroke="#0A1628" stroke-width="2" rx="3" />
  <text x="724" y="70" font-size="11" font-family="Inter, system-ui, -apple-system, sans-serif" fill="#6B8FAF" text-anchor="middle">hotfix-typo</text>
</svg>