<svg xmlns="http://www.w3.org/2000/svg" viewBox="0 0 394 925" width="394" height="925">
  <rect width="100%" height="100%" fill="#FFFFFF" />
  <text x="24" y="42" font-size="18" font-family="Georgia, &quot;Times New Roman&quot;, serif" fill="#111111" font-weight="bold">E-Commerce Domain Model</text>
  <path d="M 112.33 184 L 169.3 419" stroke="#555555" stroke-width="1.3" fill="none" />
  <path d="M 171.24 407.16 L 169.3 419 L 162.16 409.36" stroke="#555555" stroke-width="1.4" fill="none" />
  <text x="141" y="298" font-size="11" font-family="Georgia, &quot;Times New Roman&quot;, serif" fill="#555555" text-anchor="middle">places</text>
  <text x="118.33" y="180" font-size="11" font-family="Georgia, &quot;Times New Roman&quot;, serif" fill="#555555">1</text>
  <text x="175.3" y="415" font-size="11" font-family="Georgia, &quot;Times New Roman&quot;, serif" fill="#555555">*</text>
  <path d="M 184.82 547 L 184.82 611" stroke="#555555" stroke-width="1.3" fill="none" />
  <path d="M 184.82 547 L 178.55 551.97 L 184.82 558 L 191.08 551.97 Z" stroke="#555555" stroke-width="1.3" fill="#555555" />
  <text x="185" y="575" font-size="11" font-family="Georgia, &quot;Times New Roman&quot;, serif" fill="#555555" text-anchor="middle">contains</text>
  <path d="M 184.82 703 L 184.82 767" stroke="#555555" stroke-width="1.3" fill="none" />
  <path d="M 189.49 755.95 L 184.82 767 L 180.14 755.95" stroke="#555555" stroke-width="1.4" fill="none" />
  <text x="185" y="731" font-size="11" font-family="Georgia, &quot;Times New Roman&quot;, serif" fill="#555555" text-anchor="middle">references</text>
  <path d="M 143.18 248 L 217.11 175" stroke="#555555" stroke-width="1.3" fill="none" stroke-dasharray="6 4" />
  <path d="M 143.18 248 L 156.43 243.48 L 147.87 234.81 Z" stroke="#555555" stroke-width="1.3" fill="#FFFFFF" />
  <path d="M 158.88 184 L 228.21 255.5" stroke="#555555" stroke-width="1.3" fill="none" />
  <path d="M 223.87 244.31 L 228.21 255.5 L 217.16 250.82" stroke="#555555" stroke-width="1.4" fill="none" />
  <text x="194" y="216" font-size="11" font-family="Georgia, &quot;Times New Roman&quot;, serif" fill="#555555" text-anchor="middle">has</text>
  <path d="M 250.51 347.5 L 215.85 419" stroke="#555555" stroke-width="1.3" fill="none" />
  <path d="M 224.87 411.09 L 215.85 419 L 216.46 407.02" stroke="#555555" stroke-width="1.4" fill="none" />
  <text x="233" y="379" font-size="11" font-family="Georgia, &quot;Times New Roman&quot;, serif" fill="#555555" text-anchor="middle">creates</text>
  <rect x="31.82" y="56" width="130" height="128" fill="#F4F6FA" stroke="#D6DEE8" stroke-width="1.4" rx="4" />
  <text x="97" y="76" font-size="14" font-family="Georgia, &quot;Times New Roman&quot;, serif" fill="#111111" text-anchor="middle" font-weight="bold">Customer</text>
  <path d="M 31.82 78 L 161.82 78" stroke="#D6DEE8" stroke-width="1" fill="none" />
  <text x="39.82" y="92" font-size="11" font-family="Georgia, &quot;Times New Roman&quot;, serif" fill="#111111">+String id</text>
  <text x="39.82" y="110" font-size="11" font-family="Georgia, &quot;Times New Roman&quot;, serif" fill="#111111">+String name</text>
  <text x="39.82" y="128" font-size="11" font-family="Georgia, &quot;Times New Roman&quot;, serif" fill="#111111">+String email</text>
  <path d="M 31.82 140 L 161.82 140" stroke="#D6DEE8" stroke-width="1" fill="none" />
  <text x="39.82" y="154" font-size="11" font-family="Georgia, &quot;Times New Roman&quot;, serif" fill="#111111">+register()</text>
  <text x="39.82" y="172" font-size="11" font-family="Georgia, &quot;Times New Roman&quot;, serif" fill="#111111">+login() bool</text>
  <rect x="119.82" y="419" width="130" height="128" fill="#F4F6FA" stroke="#D6DEE8" stroke-width="1.4" rx="4" />
  <text x="185" y="439" font-size="14" font-family="Georgia, &quot;Times New Roman&quot;, serif" fill="#111111" text-anchor="middle" font-weight="bold">Order</text>
  <path d="M 119.82 441 L 249.82 441" stroke="#D6DEE8" stroke-width="1" fill="none" />
  <text x="127.82" y="455" font-size="11" font-family="Georgia, &quot;Times New Roman&quot;, serif" fill="#111111">+String orderId</text>
  <text x="127.82" y="473" font-size="11" font-family="Georgia, &quot;Times New Roman&quot;, serif" fill="#111111">+Date createdAt</text>
  <text x="127.82" y="491" font-size="11" font-family="Georgia, &quot;Times New Roman&quot;, serif" fill="#111111">+float total</text>
  <path d="M 119.82 503 L 249.82 503" stroke="#D6DEE8" stroke-width="1" fill="none" />
  <text x="127.82" y="517" font-size="11" font-family="Georgia, &quot;Times New Roman&quot;, serif" fill="#111111">+submit()</text>
  <text x="127.82" y="535" font-size="11" font-family="Georgia, &quot;Times New Roman&quot;, serif" fill="#111111">+cancel() bool</text>
  <rect x="119.82" y="611" width="130" height="92" fill="#F4F6FA" stroke="#D6DEE8" stroke-width="1.4" rx="4" />
  <text x="185" y="631" font-size="14" font-family="Georgia, &quot;Times New Roman&quot;, serif" fill="#111111" text-anchor="middle" font-weight="bold">OrderItem</text>
  <path d="M 119.82 633 L 249.82 633" stroke="#D6DEE8" stroke-width="1" fill="none" />
  <text x="127.82" y="647" font-size="11" font-family="Georgia, &quot;Times New Roman&quot;, serif" fill="#111111">+int quantity</text>
  <text x="127.82" y="665" font-size="11" font-family="Georgia, &quot;Times New Roman&quot;, serif" fill="#111111">+float unitPrice</text>
  <path d="M 119.82 677 L 249.82 677" stroke="#D6DEE8" stroke-width="1" fill="none" />
  <text x="127.82" y="691" font-size="11" font-family="Georgia, &quot;Times New Roman&quot;, serif" fill="#111111">+float subtotal()</text>
  <rect x="119.82" y="767" width="130" height="110" fill="#F4F6FA" stroke="#D6DEE8" stroke-width="1.4" rx="4" />
  <text x="185" y="787" font-size="14" font-family="Georgia, &quot;Times New Roman&quot;, serif" fill="#111111" text-anchor="middle" font-weight="bold">Product</text>
  <path d="M 119.82 789 L 249.82 789" stroke="#D6DEE8" stroke-width="1" fill="none" />
  <text x="127.82" y="803" font-size="11" font-family="Georgia, &quot;Times New Roman&quot;, serif" fill="#111111">+String sku</text>
  <text x="127.82" y="821" font-size="11" font-family="Georgia, &quot;Times New Roman&quot;, serif" fill="#111111">+String name</text>
  <text x="127.82" y="839" font-size="11" font-family="Georgia, &quot;Times New Roman&quot;, serif" fill="#111111">+float price</text>
  <text x="127.82" y="857" font-size="11" font-family="Georgia, &quot;Times New Roman&quot;, serif" fill="#111111">+int stock</text>
  <path d="M 119.82 869 L 249.82 869" stroke="#D6DEE8" stroke-width="1" fill="none" />
  <rect x="24" y="248" width="130" height="107" fill="#F4F6FA" stroke="#D6DEE8" stroke-width="1.4" rx="4" />
  <text x="89" y="268" font-size="14" font-family="Georgia, &quot;Times New Roman&quot;, serif" fill="#111111" text-anchor="middle" font-weight="bold">Payment</text>
  <text x="89" y="281" font-size="11" font-family="Georgia, &quot;Times New Roman&quot;, serif" fill="#555555" text-anchor="middle">«interface»</text>
  <path d="M 24 285 L 154 285" stroke="#D6DEE8" stroke-width="1" fill="none" />
  <text x="32" y="299" font-size="11" font-family="Georgia, &quot;Times New Roman&quot;, serif" fill="#111111">+float amount</text>
  <path d="M 24 311 L 154 311" stroke="#D6DEE8" stroke-width="1" fill="none" />
  <text x="32" y="325" font-size="11" font-family="Georgia, &quot;Times New Roman&quot;, serif" fill="#111111">+process() bool</text>
  <text x="32" y="343" font-size="11" font-family="Georgia, &quot;Times New Roman&quot;, serif" fill="#111111">+refund() bool</text>
  <rect x="207.82" y="65" width="130" height="110" fill="#F4F6FA" stroke="#D6DEE8" stroke-width="1.4" rx="4" />
  <text x="273" y="85" font-size="14" font-family="Georgia, &quot;Times New Roman&quot;, serif" fill="#111111" text-anchor="middle" font-weight="bold">CreditCardPayment</text>
  <path d="M 207.82 87 L 337.82 87" stroke="#D6DEE8" stroke-width="1" fill="none" />
  <text x="215.82" y="101" font-size="11" font-family="Georgia, &quot;Times New Roman&quot;, serif" fill="#111111">+String cardNumber</text>
  <text x="215.82" y="119" font-size="11" font-family="Georgia, &quot;Times New Roman&quot;, serif" fill="#111111">+String expiry</text>
  <path d="M 207.82 131 L 337.82 131" stroke="#D6DEE8" stroke-width="1" fill="none" />
  <text x="215.82" y="145" font-size="11" font-family="Georgia, &quot;Times New Roman&quot;, serif" fill="#111111">+process() bool</text>
  <text x="215.82" y="163" font-size="11" font-family="Georgia, &quot;Times New Roman&quot;, serif" fill="#111111">+refund() bool</text>
  <rect x="200" y="255.5" width="145.63" height="92" fill="#F4F6FA" stroke="#D6DEE8" stroke-width="1.4" rx="4" />
  <text x="273" y="275.5" font-size="14" font-family="Georgia, &quot;Times New Roman&quot;, serif" fill="#111111" text-anchor="middle" font-weight="bold">ShoppingCart</text>
  <path d="M 200 277.5 L 345.63 277.5" stroke="#D6DEE8" stroke-width="1" fill="none" />
  <path d="M 200 285.5 L 345.63 285.5" stroke="#D6DEE8" stroke-width="1" fill="none" />
  <text x="208" y="299.5" font-size="11" font-family="Georgia, &quot;Times New Roman&quot;, serif" fill="#111111">+addItem(Product p)</text>
  <text x="208" y="317.5" font-size="11" font-family="Georgia, &quot;Times New Roman&quot;, serif" fill="#111111">+removeItem(String sku)</text>
  <text x="208" y="335.5" font-size="11" font-family="Georgia, &quot;Times New Roman&quot;, serif" fill="#111111">+checkout() Order</text>
</svg>