<svg xmlns="http://www.w3.org/2000/svg" viewBox="0 0 580 382" width="580" height="382">
  <rect width="100%" height="100%" fill="#0D1B2A" />
  <text x="24" y="42" font-size="18" font-family="Inter, system-ui, -apple-system, sans-serif" fill="#E8EEF5" font-weight="bold">Programming Language Popularity 2026</text>
  <path d="M 174 208 L 174 58 A 150 150 0 0 1 320.39 240.72 Z" stroke="#0D1B2A" stroke-width="1" fill="#7C3AED" />
  <text x="246.58" y="153.7" font-size="11" font-family="Inter, system-ui, -apple-system, sans-serif" fill="#FFFFFF" text-anchor="middle" font-weight="bold">28%</text>
  <path d="M 174 208 L 320.39 240.72 A 150 150 0 0 1 166.46 357.81 Z" stroke="#0D1B2A" stroke-width="1" fill="#0EA5A8" />
  <text x="230.31" y="285.87" font-size="11" font-family="Inter, system-ui, -apple-system, sans-serif" fill="#FFFFFF" text-anchor="middle" font-weight="bold">22%</text>
  <path d="M 174 208 L 166.46 357.81 A 150 150 0 0 1 65.3 311.37 Z" stroke="#0D1B2A" stroke-width="1" fill="#D97706" />
  <text x="135.2" y="296.37" font-size="11" font-family="Inter, system-ui, -apple-system, sans-serif" fill="#FFFFFF" text-anchor="middle" font-weight="bold">12%</text>
  <path d="M 174 208 L 65.3 311.37 A 150 150 0 0 1 24.5 220.24 Z" stroke="#0D1B2A" stroke-width="1" fill="#5B4FCF" />
  <text x="89.12" y="249.85" font-size="11" font-family="Inter, system-ui, -apple-system, sans-serif" fill="#FFFFFF" text-anchor="middle" font-weight="bold">11%</text>
  <path d="M 174 208 L 24.5 220.24 A 150 150 0 0 1 38.68 143.28 Z" stroke="#0D1B2A" stroke-width="1" fill="#DB2777" />
  <text x="82.54" y="195" font-size="11" font-family="Inter, system-ui, -apple-system, sans-serif" fill="#FFFFFF" text-anchor="middle" font-weight="bold">8%</text>
  <path d="M 174 208 L 38.68 143.28 A 150 150 0 0 1 73.4 96.74 Z" stroke="#0D1B2A" stroke-width="1" fill="#2563EB" />
  <text x="99.45" y="156.24" font-size="11" font-family="Inter, system-ui, -apple-system, sans-serif" fill="#FFFFFF" text-anchor="middle" font-weight="bold">6%</text>
  <path d="M 174 208 L 73.4 96.74 A 150 150 0 0 1 174 58 Z" stroke="#0D1B2A" stroke-width="1" fill="#16A34A" />
  <text x="140.58" y="125.06" font-size="11" font-family="Inter, system-ui, -apple-system, sans-serif" fill="#FFFFFF" text-anchor="middle" font-weight="bold">12%</text>
  <rect x="372" y="117" width="13" height="13" fill="#7C3AED" stroke="#7C3AED" stroke-width="0" rx="2" />
  <text x="393" y="128" font-size="14" font-family="Inter, system-ui, -apple-system, sans-serif" fill="#E8EEF5">Python — 28.5 (28.5%)</text>
  <rect x="372" y="143" width="13" height="13" fill="#0EA5A8" stroke="#0EA5A8" stroke-width="0" rx="2" />
  <text x="393" y="154" font-size="14" font-family="Inter, system-ui, -apple-system, sans-serif" fill="#E8EEF5">JavaScript — 22.3 (22.3%)</text>
  <rect x="372" y="169" width="13" height="13" fill="#D97706" stroke="#D97706" stroke-width="0" rx="2" />
  <text x="393" y="180" font-size="14" font-family="Inter, system-ui, -apple-system, sans-serif" fill="#E8EEF5">TypeScript — 12.1 (12.1%)</text>
  <rect x="372" y="195" width="13" height="13" fill="#5B4FCF" stroke="#5B4FCF" stroke-width="0" rx="2" />
  <text x="393" y="206" font-size="14" font-family="Inter, system-ui, -apple-system, sans-serif" fill="#E8EEF5">Java — 10.8 (10.8%)</text>
  <rect x="372" y="221" width="13" height="13" fill="#DB2777" stroke="#DB2777" stroke-width="0" rx="2" />
  <text x="393" y="232" font-size="14" font-family="Inter, system-ui, -apple-system, sans-serif" fill="#E8EEF5">Rust — 8.4 (8.4%)</text>
  <rect x="372" y="247" width="13" height="13" fill="#2563EB" stroke="#2563EB" stroke-width="0" rx="2" />
  <text x="393" y="258" font-size="14" font-family="Inter, system-ui, -apple-system, sans-serif" fill="#E8EEF5">Go — 6.2 (6.2%)</text>
  <rect x="372" y="273" width="13" height="13" fill="#16A34A" stroke="#16A34A" stroke-width="0" rx="2" />
  <text x="393" y="284" font-size="14" font-family="Inter, system-ui, -apple-system, sans-serif" fill="#E8EEF5">Other — 11.7 (11.7%)</text>
</svg>