<?xml version="1.0" encoding="UTF-8"?>
<svg height="556" version="1.1" viewBox="0 0 1200 556" width="1200" xmlns="http://www.w3.org/2000/svg">
<defs>
  <linearGradient gradientUnits="userSpaceOnUse" id="sg-90-164-1110-484-86efac-15803d" x1="90" x2="1110" y1="164" y2="484">
    <stop offset="0%" stop-color="#86EFAC"/>
    <stop offset="100%" stop-color="#15803D"/>
  </linearGradient>
</defs>

  <rect fill="#F7FBF7" height="556" width="1200" x="0" y="0"/>
  <text dominant-baseline="hanging" fill="#111827" font-family="DejaVu Sans, Arial, Helvetica, sans-serif" font-size="29.33" font-weight="700" text-anchor="middle" x="600" y="35.47">Project Journey</text>
  <text dominant-baseline="hanging" fill="#6B7280" font-family="DejaVu Sans, Arial, Helvetica, sans-serif" font-size="17.33" font-weight="400" text-anchor="middle" x="600" y="80.47">A winding path of milestones — 2020 to 2024</text>
  <path d="M 90 164 L 1110 164 A 80 80 0 1 1 1110 324 L 90 324 A 80 80 0 1 0 90 484 L 1110 484" fill="none" opacity="0.6" stroke="#86EFAC" stroke-linecap="round" stroke-width="18" transform="translate(0,0)"/>
  <path d="M 90 164 L 1110 164 A 80 80 0 1 1 1110 324 L 90 324 A 80 80 0 1 0 90 484 L 1110 484" fill="none" stroke="url(#sg-90-164-1110-484-86efac-15803d)" stroke-linecap="round" stroke-width="14"/>
  <circle cx="287.93" cy="164" fill="#FFFFFF" r="10" stroke="#15803D" stroke-width="3"/>
  <text dominant-baseline="hanging" fill="#374151" font-family="DejaVu Sans, Arial, Helvetica, sans-serif" font-size="12" font-weight="600" text-anchor="middle" x="287.93" y="187.6">Kickoff</text>
  <circle cx="683.78" cy="164" fill="#FFFFFF" r="10" stroke="#15803D" stroke-width="3"/>
  <text dominant-baseline="hanging" fill="#374151" font-family="DejaVu Sans, Arial, Helvetica, sans-serif" font-size="12" font-weight="600" text-anchor="middle" x="683.78" y="187.6">Alpha</text>
  <circle cx="1079.63" cy="164" fill="#FFFFFF" r="10" stroke="#15803D" stroke-width="3"/>
  <text dominant-baseline="hanging" fill="#374151" font-family="DejaVu Sans, Arial, Helvetica, sans-serif" font-size="12" font-weight="600" text-anchor="middle" x="1079.63" y="187.6">Beta Launch</text>
  <circle cx="995.85" cy="324" fill="#FFFFFF" r="10" stroke="#15803D" stroke-width="3"/>
  <text dominant-baseline="alphabetic" fill="#374151" font-family="DejaVu Sans, Arial, Helvetica, sans-serif" font-size="12" font-weight="600" text-anchor="middle" x="995.85" y="310">V1.0 Release</text>
  <circle cx="600" cy="324" fill="#FFFFFF" r="10" stroke="#15803D" stroke-width="3"/>
  <text dominant-baseline="alphabetic" fill="#374151" font-family="DejaVu Sans, Arial, Helvetica, sans-serif" font-size="12" font-weight="600" text-anchor="middle" x="600" y="310">Open Source</text>
  <circle cx="204.15" cy="324" fill="#FFFFFF" r="10" stroke="#15803D" stroke-width="3"/>
  <text dominant-baseline="alphabetic" fill="#374151" font-family="DejaVu Sans, Arial, Helvetica, sans-serif" font-size="12" font-weight="600" text-anchor="middle" x="204.15" y="310">Cloud Platform</text>
  <circle cx="120.38" cy="484" fill="#FFFFFF" r="10" stroke="#15803D" stroke-width="3"/>
  <text dominant-baseline="hanging" fill="#374151" font-family="DejaVu Sans, Arial, Helvetica, sans-serif" font-size="12" font-weight="600" text-anchor="middle" x="120.38" y="507.6">Enterprise V2</text>
  <circle cx="516.23" cy="484" fill="#FFFFFF" r="10" stroke="#15803D" stroke-width="3"/>
  <text dominant-baseline="hanging" fill="#374151" font-family="DejaVu Sans, Arial, Helvetica, sans-serif" font-size="12" font-weight="600" text-anchor="middle" x="516.23" y="507.6">API v3</text>
  <circle cx="912.08" cy="484" fill="#FFFFFF" r="10" stroke="#15803D" stroke-width="3"/>
  <text dominant-baseline="hanging" fill="#374151" font-family="DejaVu Sans, Arial, Helvetica, sans-serif" font-size="12" font-weight="600" text-anchor="middle" x="912.08" y="507.6">V4 Milestone</text>
  <circle cx="90" cy="164" fill="#15803D" r="22" stroke="#15803D" stroke-width="2"/>
  <path d="M 5 3 L 21 12 L 5 21 Z" fill="#FFFFFF" stroke-linecap="round" transform="translate(75.72,149.72) scale(1.19)"/>
  <circle cx="1110" cy="484" fill="#15803D" r="22" stroke="#15803D" stroke-width="2"/>
  <path d="M 3 12 A 9 9 0 1 0 21 12 A 9 9 0 1 0 3 12 M 7 12 A 5 5 0 1 0 17 12 A 5 5 0 1 0 7 12 M 10 12 A 2 2 0 1 0 14 12 A 2 2 0 1 0 10 12" fill="none" stroke="#FFFFFF" stroke-linecap="round" stroke-width="1.26" transform="translate(1095.72,469.72) scale(1.19)"/>
</svg>