<svg xmlns="http://www.w3.org/2000/svg" viewBox="0 0 1040 293" width="1040" height="293">
  <rect width="100%" height="100%" fill="#0D1B2A" />
  <text x="24" y="42" font-size="18" font-family="Inter, system-ui, -apple-system, sans-serif" fill="#E8EEF5" text-anchor="start" font-weight="bold">2026 Release Roadmap</text>
  <rect x="34" y="118" width="972" height="114" fill="#132035" stroke="#1E3A5A" stroke-width="1" rx="6" />
  <rect x="34" y="118" width="385" height="34" fill="#00CC88" stroke="#00CC88" stroke-width="0" rx="6" />
  <text x="226.5" y="138.85" font-size="11" font-family="Inter, system-ui, -apple-system, sans-serif" fill="#0D1B2A" text-anchor="middle" font-weight="bold">Design System</text>
  <rect x="34" y="158" width="385" height="34" fill="#00CC88" stroke="#00CC88" stroke-width="0" rx="6" />
  <text x="226.5" y="178.85" font-size="11" font-family="Inter, system-ui, -apple-system, sans-serif" fill="#0D1B2A" text-anchor="middle" font-weight="bold">Core API</text>
  <rect x="227" y="198" width="389" height="34" fill="#FF4D6D" stroke="#FF4D6D" stroke-width="0" rx="6" />
  <text x="421.5" y="218.85" font-size="11" font-family="Inter, system-ui, -apple-system, sans-serif" fill="#0D1B2A" text-anchor="middle" font-weight="bold">Performance Hardening</text>
  <rect x="422" y="118" width="391" height="34" fill="#00D4FF" stroke="#00D4FF" stroke-width="0" rx="6" />
  <text x="617.5" y="138.85" font-size="11" font-family="Inter, system-ui, -apple-system, sans-serif" fill="#0D1B2A" text-anchor="middle" font-weight="bold">Mobile App</text>
  <rect x="618" y="158" width="388" height="34" fill="#9B8FDF" stroke="#9B8FDF" stroke-width="0" rx="6" />
  <text x="812" y="178.85" font-size="11" font-family="Inter, system-ui, -apple-system, sans-serif" fill="#0D1B2A" text-anchor="middle" font-weight="bold">Analytics</text>
  <text x="34" y="76" font-size="14" font-family="Inter, system-ui, -apple-system, sans-serif" fill="#E8EEF5" text-anchor="middle" font-weight="bold">Kickoff</text>
  <text x="34" y="89" font-size="11" font-family="Inter, system-ui, -apple-system, sans-serif" fill="#7AACCC" text-anchor="middle">(Q1 2026)</text>
  <path d="M 34 93 L 34 118" stroke="#1E3A5A" stroke-width="1" fill="none" />
  <circle cx="34" cy="118" r="4" fill="#00D4FF" stroke="#0D1B2A" stroke-width="1.5" />
  <text x="227" y="76" font-size="14" font-family="Inter, system-ui, -apple-system, sans-serif" fill="#E8EEF5" text-anchor="middle" font-weight="bold">Beta</text>
  <text x="227" y="89" font-size="11" font-family="Inter, system-ui, -apple-system, sans-serif" fill="#7AACCC" text-anchor="middle">(Q2 2026)</text>
  <path d="M 227 93 L 227 118" stroke="#1E3A5A" stroke-width="1" fill="none" />
  <circle cx="227" cy="118" r="4" fill="#00D4FF" stroke="#0D1B2A" stroke-width="1.5" />
  <text x="422" y="76" font-size="14" font-family="Inter, system-ui, -apple-system, sans-serif" fill="#E8EEF5" text-anchor="middle" font-weight="bold">GA</text>
  <text x="422" y="89" font-size="11" font-family="Inter, system-ui, -apple-system, sans-serif" fill="#7AACCC" text-anchor="middle">(Q3 2026)</text>
  <path d="M 422 93 L 422 118" stroke="#1E3A5A" stroke-width="1" fill="none" />
  <circle cx="422" cy="118" r="4" fill="#00D4FF" stroke="#0D1B2A" stroke-width="1.5" />
  <path d="M 34 258 L 1006 258" stroke="#1E3A5A" stroke-width="1.5" fill="none" />
  <path d="M 34 255 L 34 261" stroke="#1E3A5A" stroke-width="1" fill="none" />
  <text x="34" y="271" font-size="11" font-family="Inter, system-ui, -apple-system, sans-serif" fill="#7AACCC" text-anchor="middle">Q1 2026</text>
  <path d="M 227 255 L 227 261" stroke="#1E3A5A" stroke-width="1" fill="none" />
  <text x="227" y="271" font-size="11" font-family="Inter, system-ui, -apple-system, sans-serif" fill="#7AACCC" text-anchor="middle">Q2 2026</text>
  <path d="M 422 255 L 422 261" stroke="#1E3A5A" stroke-width="1" fill="none" />
  <text x="422" y="271" font-size="11" font-family="Inter, system-ui, -apple-system, sans-serif" fill="#7AACCC" text-anchor="middle">Q3 2026</text>
  <path d="M 618 255 L 618 261" stroke="#1E3A5A" stroke-width="1" fill="none" />
  <text x="618" y="271" font-size="11" font-family="Inter, system-ui, -apple-system, sans-serif" fill="#7AACCC" text-anchor="middle">Q4 2026</text>
  <path d="M 815 255 L 815 261" stroke="#1E3A5A" stroke-width="1" fill="none" />
  <text x="815" y="271" font-size="11" font-family="Inter, system-ui, -apple-system, sans-serif" fill="#7AACCC" text-anchor="middle">Q1 2027</text>
</svg>