<?xml version="1.0" encoding="UTF-8"?>
<svg height="612.47" version="1.1" viewBox="0 0 1200 612.47" width="1200" xmlns="http://www.w3.org/2000/svg">
  <rect fill="#FFFFFF" height="612.47" width="1200" x="0" y="0"/>
  <rect fill="#3B82F6" height="364" opacity="0.04" width="250" x="140" y="204.47"/>
  <text dominant-baseline="alphabetic" fill="#374151" font-family="DejaVu Sans, Arial, Helvetica, sans-serif" font-size="10.67" font-weight="700" opacity="0.7" text-anchor="start" x="144" y="219.14">Foundation Phase</text>
  <rect fill="#8B5CF6" height="364" opacity="0.02" width="253" x="393" y="204.47"/>
  <text dominant-baseline="alphabetic" fill="#374151" font-family="DejaVu Sans, Arial, Helvetica, sans-serif" font-size="10.67" font-weight="700" opacity="0.7" text-anchor="start" x="397" y="219.14">Build Phase</text>
  <rect fill="#3B82F6" height="364" opacity="0.04" width="515" x="649" y="204.47"/>
  <text dominant-baseline="alphabetic" fill="#374151" font-family="DejaVu Sans, Arial, Helvetica, sans-serif" font-size="10.67" font-weight="700" opacity="0.7" text-anchor="start" x="653" y="219.14">Scale Phase</text>
  <text dominant-baseline="alphabetic" fill="#111111" font-family="DejaVu Sans, Arial, Helvetica, sans-serif" font-size="24" font-weight="700" text-anchor="middle" x="600" y="80">Enterprise Transformation Programme</text>
  <text dominant-baseline="alphabetic" fill="#111111" font-family="DejaVu Sans, Arial, Helvetica, sans-serif" font-size="14.67" font-weight="400" opacity="0.75" text-anchor="middle" x="600" y="108.67">2026 Execution Roadmap</text>
  <line opacity="0.35" stroke="#374151" stroke-width="0.5" x1="140" x2="1164" y1="120" y2="120"/>
  <line stroke="#374151" stroke-width="1" x1="140" x2="1164" y1="154" y2="154"/>
  <line stroke="#374151" stroke-width="1" x1="140" x2="140" y1="149" y2="154"/>
  <line opacity="0.9" stroke="#E5E7EB" stroke-width="0.75" x1="140" x2="140" y1="154" y2="568.47"/>
  <text dominant-baseline="alphabetic" fill="#6B7280" font-family="DejaVu Sans, Arial, Helvetica, sans-serif" font-size="12" font-weight="400" text-anchor="middle" x="140" y="142.4">Q1 2026</text>
  <line stroke="#374151" stroke-width="1" x1="393" x2="393" y1="149" y2="154"/>
  <line opacity="0.9" stroke="#E5E7EB" stroke-width="0.75" x1="393" x2="393" y1="154" y2="568.47"/>
  <text dominant-baseline="alphabetic" fill="#6B7280" font-family="DejaVu Sans, Arial, Helvetica, sans-serif" font-size="12" font-weight="400" text-anchor="middle" x="393" y="142.4">Q2</text>
  <line stroke="#374151" stroke-width="1" x1="649" x2="649" y1="149" y2="154"/>
  <line opacity="0.9" stroke="#E5E7EB" stroke-width="0.75" x1="649" x2="649" y1="154" y2="568.47"/>
  <text dominant-baseline="alphabetic" fill="#6B7280" font-family="DejaVu Sans, Arial, Helvetica, sans-serif" font-size="12" font-weight="400" text-anchor="middle" x="649" y="142.4">Q3</text>
  <line stroke="#374151" stroke-width="1" x1="908" x2="908" y1="149" y2="154"/>
  <line opacity="0.9" stroke="#E5E7EB" stroke-width="0.75" x1="908" x2="908" y1="154" y2="568.47"/>
  <text dominant-baseline="alphabetic" fill="#6B7280" font-family="DejaVu Sans, Arial, Helvetica, sans-serif" font-size="12" font-weight="400" text-anchor="middle" x="908" y="142.4">Q4</text>
  <line opacity="0.85" stroke="#EF4444" stroke-width="1.5" x1="590" x2="590" y1="204.47" y2="568.47"/>
  <text dominant-baseline="alphabetic" fill="#EF4444" font-family="DejaVu Sans, Arial, Helvetica, sans-serif" font-size="10.67" font-weight="600" opacity="0.9" text-anchor="start" x="593" y="219.14">Today</text>
  <line opacity="0.7" stroke="#EF4444" stroke-width="1.5" x1="140" x2="646" y1="580.47" y2="580.47"/>
  <line opacity="0.7" stroke="#EF4444" stroke-width="1.5" x1="140" x2="140" y1="576.47" y2="584.47"/>
  <line opacity="0.7" stroke="#EF4444" stroke-width="1.5" x1="646" x2="646" y1="576.47" y2="584.47"/>
  <text dominant-baseline="alphabetic" fill="#EF4444" font-family="DejaVu Sans, Arial, Helvetica, sans-serif" font-size="10.67" font-weight="400" opacity="0.75" text-anchor="middle" x="393" y="595.14">H1 Focus</text>
  <line opacity="0.3" stroke="#D1D5DB" stroke-width="1" x1="140" x2="1164" y1="268.47" y2="268.47"/>
  <text dominant-baseline="middle" fill="#111111" font-family="DejaVu Sans, Arial, Helvetica, sans-serif" font-size="13.33" font-weight="700" text-anchor="start" x="8" y="236.47">Strategy</text>
  <line opacity="0.3" stroke="#D1D5DB" stroke-width="1" x1="140" x2="1164" y1="394.47" y2="394.47"/>
  <text dominant-baseline="middle" fill="#111111" font-family="DejaVu Sans, Arial, Helvetica, sans-serif" font-size="13.33" font-weight="700" text-anchor="start" x="8" y="336.47">Technology</text>
  <line opacity="0.3" stroke="#D1D5DB" stroke-width="1" x1="140" x2="1164" y1="494.47" y2="494.47"/>
  <text dominant-baseline="middle" fill="#111111" font-family="DejaVu Sans, Arial, Helvetica, sans-serif" font-size="13.33" font-weight="700" text-anchor="start" x="8" y="449.47">People &amp; Change</text>
  <line opacity="0.3" stroke="#D1D5DB" stroke-width="1" x1="140" x2="1164" y1="568.47" y2="568.47"/>
  <text dominant-baseline="middle" fill="#111111" font-family="DejaVu Sans, Arial, Helvetica, sans-serif" font-size="13.33" font-weight="700" text-anchor="start" x="8" y="536.47">Operations</text>
  <rect fill="#6366F1" height="20" opacity="0.85" rx="4" stroke="#4F46E5" stroke-width="0.5" width="138" x="165" y="214.47"/>
  <rect fill="#FFFFFF" height="5" opacity="0.5" rx="4" width="138" x="165" y="229.47"/>
  <text dominant-baseline="middle" fill="#111111" font-family="DejaVu Sans, Arial, Helvetica, sans-serif" font-size="12" font-weight="600" text-anchor="start" x="169" y="224.47">Vision &amp; Alignment Wo…</text>
  <rect fill="#6366F1" height="20" opacity="1" rx="4" stroke="#4F46E5" stroke-width="0.5" width="340" x="306" y="214.47"/>
  <rect fill="#FFFFFF" height="5" opacity="0.5" rx="4" width="204" x="306" y="229.47"/>
  <text dominant-baseline="middle" fill="#111111" font-family="DejaVu Sans, Arial, Helvetica, sans-serif" font-size="12" font-weight="600" text-anchor="start" x="310" y="224.47">Operating Model Design</text>
  <rect fill="#6366F1" height="20" opacity="0.9" rx="4" stroke="#4F46E5" stroke-width="0.5" width="256" x="649" y="214.47"/>
  <text dominant-baseline="middle" fill="#111111" font-family="DejaVu Sans, Arial, Helvetica, sans-serif" font-size="12" font-weight="600" text-anchor="start" x="653" y="224.47">Market Analysis</text>
  <rect fill="#6366F1" height="20" opacity="0.9" rx="4" stroke="#4F46E5" stroke-width="0.5" width="256" x="908" y="214.47"/>
  <text dominant-baseline="middle" fill="#111111" font-family="DejaVu Sans, Arial, Helvetica, sans-serif" font-size="12" font-weight="600" text-anchor="start" x="912" y="224.47">Go-to-Market Strategy</text>
  <rect fill="#0EA5E9" height="20" opacity="0.85" rx="4" stroke="#0284C7" stroke-width="0.5" width="383" x="179" y="288.47"/>
  <rect fill="#FFFFFF" height="5" opacity="0.5" rx="4" width="383" x="179" y="303.47"/>
  <text dominant-baseline="middle" fill="#111111" font-family="DejaVu Sans, Arial, Helvetica, sans-serif" font-size="12" font-weight="600" text-anchor="start" x="183" y="298.47">Cloud Migration</text>
  <rect fill="#8B5CF6" height="20" opacity="1" rx="4" stroke="#7C3AED" stroke-width="0.5" width="169" x="306" y="314.47"/>
  <rect fill="#FFFFFF" height="5" opacity="0.5" rx="4" width="51" x="306" y="329.47"/>
  <text dominant-baseline="middle" fill="#111111" font-family="DejaVu Sans, Arial, Helvetica, sans-serif" font-size="12" font-weight="600" text-anchor="start" x="310" y="324.47">Security Hardening</text>
  <rect fill="#0EA5E9" height="20" opacity="1" rx="4" stroke="#0284C7" stroke-width="0.5" width="341" x="393" y="340.47"/>
  <rect fill="#FFFFFF" height="5" opacity="0.5" rx="4" width="153" x="393" y="355.47"/>
  <text dominant-baseline="middle" fill="#111111" font-family="DejaVu Sans, Arial, Helvetica, sans-serif" font-size="12" font-weight="600" text-anchor="start" x="397" y="350.47">API Modernization</text>
  <rect fill="#F59E0B" height="20" opacity="0.9" rx="4" stroke="#D97706" stroke-width="0.5" width="428" x="736" y="288.47"/>
  <text dominant-baseline="middle" fill="#111111" font-family="DejaVu Sans, Arial, Helvetica, sans-serif" font-size="12" font-weight="600" text-anchor="start" x="740" y="298.47">Data Platform v2</text>
  <rect fill="#3B82F6" height="20" opacity="1" rx="4" stroke="#2563EB" stroke-width="0.5" width="594" x="227" y="414.47"/>
  <rect fill="#FFFFFF" height="5" opacity="0.5" rx="4" width="297" x="227" y="429.47"/>
  <text dominant-baseline="middle" fill="#111111" font-family="DejaVu Sans, Arial, Helvetica, sans-serif" font-size="12" font-weight="600" text-anchor="start" x="231" y="424.47">Change Management Programme</text>
  <rect fill="#93C5FD" height="20" opacity="0.9" rx="4" stroke="#60A5FA" stroke-width="0.5" width="340" x="565" y="440.47"/>
  <text dominant-baseline="middle" fill="#111111" font-family="DejaVu Sans, Arial, Helvetica, sans-serif" font-size="12" font-weight="600" text-anchor="start" x="569" y="450.47">Training Rollout</text>
  <rect fill="#93C5FD" height="20" opacity="0.9" rx="4" stroke="#60A5FA" stroke-width="0.5" width="340" x="824" y="414.47"/>
  <text dominant-baseline="middle" fill="#111111" font-family="DejaVu Sans, Arial, Helvetica, sans-serif" font-size="12" font-weight="600" text-anchor="start" x="828" y="424.47">Leadership Development</text>
  <rect fill="#4ADE80" height="20" opacity="0.85" rx="4" stroke="#22C55E" stroke-width="0.5" width="197" x="193" y="514.47"/>
  <rect fill="#FFFFFF" height="5" opacity="0.5" rx="4" width="197" x="193" y="529.47"/>
  <text dominant-baseline="middle" fill="#111111" font-family="DejaVu Sans, Arial, Helvetica, sans-serif" font-size="12" font-weight="600" text-anchor="start" x="197" y="524.47">Process Mapping</text>
  <rect fill="#3B82F6" height="20" opacity="1" rx="4" stroke="#2563EB" stroke-width="0.5" width="341" x="393" y="514.47"/>
  <rect fill="#FFFFFF" height="5" opacity="0.5" rx="4" width="119" x="393" y="529.47"/>
  <text dominant-baseline="middle" fill="#111111" font-family="DejaVu Sans, Arial, Helvetica, sans-serif" font-size="12" font-weight="600" text-anchor="start" x="397" y="524.47">Automation Wave 1</text>
  <rect fill="#93C5FD" height="20" opacity="0.9" rx="4" stroke="#60A5FA" stroke-width="0.5" width="428" x="736" y="514.47"/>
  <text dominant-baseline="middle" fill="#111111" font-family="DejaVu Sans, Arial, Helvetica, sans-serif" font-size="12" font-weight="600" text-anchor="start" x="740" y="524.47">Automation Wave 2</text>
  <line opacity="0.45" stroke="#6B7280" stroke-width="0.75" x1="179" x2="179" y1="404.47" y2="410.47"/>
  <circle cx="179" cy="386.47" fill="#3B82F6" r="18" stroke="#FFFFFF" stroke-width="2"/>
  <path d="M 12 3 L 14.4 8.8 L 20.6 9.2 L 15.8 13.2 L 17.3 19.3 L 12 16 L 6.7 19.3 L 8.2 13.2 L 3.4 9.2 L 9.6 8.8 Z" fill="#FFFFFF" transform="translate(179,386.47) scale(0.975) translate(-12,-12)"/>
  <text dominant-baseline="alphabetic" fill="#111111" font-family="DejaVu Sans, Arial, Helvetica, sans-serif" font-size="12" font-weight="600" text-anchor="middle" x="179" y="423.73">Programme Kickoff</text>
  <text dominant-baseline="alphabetic" fill="#6B7280" font-family="DejaVu Sans, Arial, Helvetica, sans-serif" font-size="10.67" font-weight="400" text-anchor="middle" x="179" y="439.14">January 2026</text>
  <line opacity="0.45" stroke="#6B7280" stroke-width="0.75" x1="390" x2="390" y1="198.47" y2="368.47"/>
  <circle cx="390" cy="386.47" fill="#3B82F6" r="18" stroke="#FFFFFF" stroke-width="2"/>
  <path d="M 4 12 L 9.5 17.5 L 20 7" fill="none" stroke="#FFFFFF" stroke-linecap="round" stroke-width="2" transform="translate(390,386.47) scale(0.975) translate(-12,-12)"/>
  <text dominant-baseline="alphabetic" fill="#111111" font-family="DejaVu Sans, Arial, Helvetica, sans-serif" font-size="12" font-weight="600" text-anchor="middle" x="390" y="178.26">Q1 Gate Review</text>
  <text dominant-baseline="alphabetic" fill="#6B7280" font-family="DejaVu Sans, Arial, Helvetica, sans-serif" font-size="10.67" font-weight="400" text-anchor="middle" x="390" y="193.67">March 2026</text>
  <line opacity="0.45" stroke="#6B7280" stroke-width="0.75" x1="562" x2="562" y1="404.47" y2="410.47"/>
  <circle cx="562" cy="386.47" fill="#6366F1" r="18" stroke="#FFFFFF" stroke-width="2"/>
  <path d="M 6 19 L 18 19 A 4 4 0 0 0 18 12 A 5 5 0 0 0 11 8 A 4 4 0 0 0 4 12 A 4 4 0 0 0 6 19 Z" fill="none" stroke="#FFFFFF" stroke-linecap="round" stroke-width="2" transform="translate(562,386.47) scale(0.975) translate(-12,-12)"/>
  <text dominant-baseline="alphabetic" fill="#111111" font-family="DejaVu Sans, Arial, Helvetica, sans-serif" font-size="12" font-weight="600" text-anchor="middle" x="562" y="423.73">Cloud Migration C…</text>
  <text dominant-baseline="alphabetic" fill="#6B7280" font-family="DejaVu Sans, Arial, Helvetica, sans-serif" font-size="10.67" font-weight="400" text-anchor="middle" x="562" y="439.14">May 2026</text>
  <line opacity="0.45" stroke="#6B7280" stroke-width="0.75" x1="646" x2="646" y1="198.47" y2="368.47"/>
  <circle cx="646" cy="386.47" fill="#3B82F6" r="18" stroke="#FFFFFF" stroke-width="2"/>
  <path d="M 2 5 L 2 22 L 22 22 L 22 5 Z M 2 10 L 22 10 M 8 2 L 8 7 M 16 2 L 16 7 M 6 14 L 9 14 M 13 14 L 16 14 M 6 18 L 9 18 M 13 18 L 16 18" fill="none" stroke="#FFFFFF" stroke-linecap="round" stroke-width="2" transform="translate(646,386.47) scale(0.975) translate(-12,-12)"/>
  <text dominant-baseline="alphabetic" fill="#111111" font-family="DejaVu Sans, Arial, Helvetica, sans-serif" font-size="12" font-weight="600" text-anchor="middle" x="646" y="178.26">Mid-Year Executiv…</text>
  <text dominant-baseline="alphabetic" fill="#6B7280" font-family="DejaVu Sans, Arial, Helvetica, sans-serif" font-size="10.67" font-weight="400" text-anchor="middle" x="646" y="193.67">June 2026</text>
  <line opacity="0.45" stroke="#6B7280" stroke-width="0.75" x1="905" x2="905" y1="404.47" y2="410.47"/>
  <circle cx="905" cy="386.47" fill="#3B82F6" r="18" stroke="#FFFFFF" stroke-width="2"/>
  <path d="M 4 12 L 9.5 17.5 L 20 7" fill="none" stroke="#FFFFFF" stroke-linecap="round" stroke-width="2" transform="translate(905,386.47) scale(0.975) translate(-12,-12)"/>
  <text dominant-baseline="alphabetic" fill="#111111" font-family="DejaVu Sans, Arial, Helvetica, sans-serif" font-size="12" font-weight="600" text-anchor="middle" x="905" y="423.73">Q3 Gate Review</text>
  <text dominant-baseline="alphabetic" fill="#6B7280" font-family="DejaVu Sans, Arial, Helvetica, sans-serif" font-size="10.67" font-weight="400" text-anchor="middle" x="905" y="439.14">September 2026</text>
  <line opacity="0.45" stroke="#6B7280" stroke-width="0.75" x1="1119" x2="1119" y1="198.47" y2="368.47"/>
  <circle cx="1119" cy="386.47" fill="#3B82F6" r="18" stroke="#FFFFFF" stroke-width="2"/>
  <path d="M 4 2 L 4 21 L 6 21 L 6 17 L 18 11 L 6 5 Z" fill="#FFFFFF" transform="translate(1119,386.47) scale(0.975) translate(-12,-12)"/>
  <text dominant-baseline="alphabetic" fill="#111111" font-family="DejaVu Sans, Arial, Helvetica, sans-serif" font-size="12" font-weight="600" text-anchor="middle" x="1119" y="178.26">Year-End Delivery</text>
  <text dominant-baseline="alphabetic" fill="#6B7280" font-family="DejaVu Sans, Arial, Helvetica, sans-serif" font-size="10.67" font-weight="400" text-anchor="middle" x="1119" y="193.67">December 2026</text>
  <line opacity="0.5" stroke="#6B7280" stroke-dasharray="3,3" stroke-width="1" x1="646" x2="646" y1="376.47" y2="386.47"/>
  <rect fill="#FFFFFF" height="28" opacity="0.92" rx="3" stroke="#EF4444" stroke-width="1" width="120" x="586" y="348.47"/>
  <text dominant-baseline="middle" fill="#6B7280" font-family="DejaVu Sans, Arial, Helvetica, sans-serif" font-size="10.67" font-weight="400" text-anchor="middle" x="646" y="362.47">Review Gate</text>
  <rect fill="#FFFFFF" height="111" opacity="0.95" rx="4" stroke="#E5E7EB" stroke-width="1" width="160" x="988" y="441.47"/>
  <text dominant-baseline="alphabetic" fill="#111111" font-family="DejaVu Sans, Arial, Helvetica, sans-serif" font-size="12" font-weight="700" text-anchor="start" x="998" y="463.47">Status Legend</text>
  <rect fill="#4ADE80" height="12" rx="3" width="12" x="998" y="473.67"/>
  <text dominant-baseline="middle" fill="#6B7280" font-family="DejaVu Sans, Arial, Helvetica, sans-serif" font-size="10.67" font-weight="400" text-anchor="start" x="1018" y="479.67">Done</text>
  <rect fill="#3B82F6" height="12" rx="3" width="12" x="998" y="492.47"/>
  <text dominant-baseline="middle" fill="#6B7280" font-family="DejaVu Sans, Arial, Helvetica, sans-serif" font-size="10.67" font-weight="400" text-anchor="start" x="1018" y="498.47">In Progress</text>
  <rect fill="#FCD34D" height="12" rx="3" width="12" x="998" y="511.27"/>
  <text dominant-baseline="middle" fill="#6B7280" font-family="DejaVu Sans, Arial, Helvetica, sans-serif" font-size="10.67" font-weight="400" text-anchor="start" x="1018" y="517.27">At Risk</text>
  <rect fill="#93C5FD" height="12" rx="3" width="12" x="998" y="530.07"/>
  <text dominant-baseline="middle" fill="#6B7280" font-family="DejaVu Sans, Arial, Helvetica, sans-serif" font-size="10.67" font-weight="400" text-anchor="start" x="1018" y="536.07">Planned</text>
</svg>