<?xml version="1.0" encoding="UTF-8"?>
<svg height="777.94" version="1.1" viewBox="0 0 1200 777.94" width="1200" xmlns="http://www.w3.org/2000/svg">
  <rect fill="#FFFFFF" height="777.94" width="1200" x="0" y="0"/>
  <rect fill="#3B82F6" height="364" opacity="0.04" width="250" x="140" y="242.94"/>
  <text dominant-baseline="alphabetic" fill="#374151" font-family="DejaVu Sans, Arial, Helvetica, sans-serif" font-size="10.67" font-weight="700" opacity="0.7" text-anchor="start" x="144" y="257.61">Foundation Phase</text>
  <rect fill="#8B5CF6" height="364" opacity="0.02" width="253" x="393" y="242.94"/>
  <text dominant-baseline="alphabetic" fill="#374151" font-family="DejaVu Sans, Arial, Helvetica, sans-serif" font-size="10.67" font-weight="700" opacity="0.7" text-anchor="start" x="397" y="257.61">Build Phase</text>
  <rect fill="#3B82F6" height="364" opacity="0.04" width="515" x="649" y="242.94"/>
  <text dominant-baseline="alphabetic" fill="#374151" font-family="DejaVu Sans, Arial, Helvetica, sans-serif" font-size="10.67" font-weight="700" opacity="0.7" text-anchor="start" x="653" y="257.61">Scale Phase</text>
  <text dominant-baseline="alphabetic" fill="#111111" font-family="DejaVu Sans, Arial, Helvetica, sans-serif" font-size="24" font-weight="700" text-anchor="middle" x="600" y="80">Enterprise Transformation Programme</text>
  <text dominant-baseline="alphabetic" fill="#111111" font-family="DejaVu Sans, Arial, Helvetica, sans-serif" font-size="14.67" font-weight="400" opacity="0.75" text-anchor="middle" x="600" y="108.67">2026 Execution Roadmap</text>
  <line opacity="0.35" stroke="#374151" stroke-width="0.5" x1="140" x2="1164" y1="120" y2="120"/>
  <line stroke="#374151" stroke-width="1" x1="140" x2="1164" y1="154" y2="154"/>
  <line stroke="#374151" stroke-width="1" x1="140" x2="140" y1="149" y2="154"/>
  <line opacity="0.9" stroke="#E5E7EB" stroke-width="0.75" x1="140" x2="140" y1="154" y2="606.94"/>
  <text dominant-baseline="alphabetic" fill="#6B7280" font-family="DejaVu Sans, Arial, Helvetica, sans-serif" font-size="12" font-weight="400" text-anchor="middle" x="140" y="142.4">Q1 2026</text>
  <line stroke="#374151" stroke-width="1" x1="393" x2="393" y1="149" y2="154"/>
  <line opacity="0.9" stroke="#E5E7EB" stroke-width="0.75" x1="393" x2="393" y1="154" y2="606.94"/>
  <text dominant-baseline="alphabetic" fill="#6B7280" font-family="DejaVu Sans, Arial, Helvetica, sans-serif" font-size="12" font-weight="400" text-anchor="middle" x="393" y="142.4">Q2</text>
  <line stroke="#374151" stroke-width="1" x1="649" x2="649" y1="149" y2="154"/>
  <line opacity="0.9" stroke="#E5E7EB" stroke-width="0.75" x1="649" x2="649" y1="154" y2="606.94"/>
  <text dominant-baseline="alphabetic" fill="#6B7280" font-family="DejaVu Sans, Arial, Helvetica, sans-serif" font-size="12" font-weight="400" text-anchor="middle" x="649" y="142.4">Q3</text>
  <line stroke="#374151" stroke-width="1" x1="908" x2="908" y1="149" y2="154"/>
  <line opacity="0.9" stroke="#E5E7EB" stroke-width="0.75" x1="908" x2="908" y1="154" y2="606.94"/>
  <text dominant-baseline="alphabetic" fill="#6B7280" font-family="DejaVu Sans, Arial, Helvetica, sans-serif" font-size="12" font-weight="400" text-anchor="middle" x="908" y="142.4">Q4</text>
  <line opacity="0.85" stroke="#EF4444" stroke-width="1.5" x1="590" x2="590" y1="242.94" y2="606.94"/>
  <text dominant-baseline="alphabetic" fill="#EF4444" font-family="DejaVu Sans, Arial, Helvetica, sans-serif" font-size="10.67" font-weight="600" opacity="0.9" text-anchor="start" x="593" y="257.61">Today</text>
  <line opacity="0.7" stroke="#EF4444" stroke-width="1.5" x1="140" x2="646" y1="618.94" y2="618.94"/>
  <line opacity="0.7" stroke="#EF4444" stroke-width="1.5" x1="140" x2="140" y1="614.94" y2="622.94"/>
  <line opacity="0.7" stroke="#EF4444" stroke-width="1.5" x1="646" x2="646" y1="614.94" y2="622.94"/>
  <text dominant-baseline="alphabetic" fill="#EF4444" font-family="DejaVu Sans, Arial, Helvetica, sans-serif" font-size="10.67" font-weight="400" opacity="0.75" text-anchor="middle" x="393" y="633.61">H1 Focus</text>
  <line opacity="0.3" stroke="#D1D5DB" stroke-width="1" x1="140" x2="1164" y1="306.94" y2="306.94"/>
  <text dominant-baseline="middle" fill="#111111" font-family="DejaVu Sans, Arial, Helvetica, sans-serif" font-size="13.33" font-weight="700" text-anchor="start" x="8" y="274.94">Strategy</text>
  <line opacity="0.3" stroke="#D1D5DB" stroke-width="1" x1="140" x2="1164" y1="432.94" y2="432.94"/>
  <text dominant-baseline="middle" fill="#111111" font-family="DejaVu Sans, Arial, Helvetica, sans-serif" font-size="13.33" font-weight="700" text-anchor="start" x="8" y="374.94">Technology</text>
  <line opacity="0.3" stroke="#D1D5DB" stroke-width="1" x1="140" x2="1164" y1="532.94" y2="532.94"/>
  <text dominant-baseline="middle" fill="#111111" font-family="DejaVu Sans, Arial, Helvetica, sans-serif" font-size="13.33" font-weight="700" text-anchor="start" x="8" y="487.94">People &amp; Change</text>
  <line opacity="0.3" stroke="#D1D5DB" stroke-width="1" x1="140" x2="1164" y1="606.94" y2="606.94"/>
  <text dominant-baseline="middle" fill="#111111" font-family="DejaVu Sans, Arial, Helvetica, sans-serif" font-size="13.33" font-weight="700" text-anchor="start" x="8" y="574.94">Operations</text>
  <rect fill="#6366F1" height="20" opacity="0.85" rx="4" stroke="#4F46E5" stroke-width="0.5" width="138" x="165" y="252.94"/>
  <rect fill="#FFFFFF" height="5" opacity="0.5" rx="4" width="138" x="165" y="267.94"/>
  <text dominant-baseline="middle" fill="#111111" font-family="DejaVu Sans, Arial, Helvetica, sans-serif" font-size="12" font-weight="600" text-anchor="start" x="169" y="262.94">Vision &amp; Alignment Wo…</text>
  <rect fill="#6366F1" height="20" opacity="1" rx="4" stroke="#4F46E5" stroke-width="0.5" width="340" x="306" y="252.94"/>
  <rect fill="#FFFFFF" height="5" opacity="0.5" rx="4" width="204" x="306" y="267.94"/>
  <text dominant-baseline="middle" fill="#111111" font-family="DejaVu Sans, Arial, Helvetica, sans-serif" font-size="12" font-weight="600" text-anchor="start" x="310" y="262.94">Operating Model Design</text>
  <rect fill="#6366F1" height="20" opacity="0.9" rx="4" stroke="#4F46E5" stroke-width="0.5" width="256" x="649" y="252.94"/>
  <text dominant-baseline="middle" fill="#111111" font-family="DejaVu Sans, Arial, Helvetica, sans-serif" font-size="12" font-weight="600" text-anchor="start" x="653" y="262.94">Market Analysis</text>
  <rect fill="#6366F1" height="20" opacity="0.9" rx="4" stroke="#4F46E5" stroke-width="0.5" width="256" x="908" y="252.94"/>
  <text dominant-baseline="middle" fill="#111111" font-family="DejaVu Sans, Arial, Helvetica, sans-serif" font-size="12" font-weight="600" text-anchor="start" x="912" y="262.94">Go-to-Market Strategy</text>
  <rect fill="#0EA5E9" height="20" opacity="0.85" rx="4" stroke="#0284C7" stroke-width="0.5" width="383" x="179" y="326.94"/>
  <rect fill="#FFFFFF" height="5" opacity="0.5" rx="4" width="383" x="179" y="341.94"/>
  <text dominant-baseline="middle" fill="#111111" font-family="DejaVu Sans, Arial, Helvetica, sans-serif" font-size="12" font-weight="600" text-anchor="start" x="183" y="336.94">Cloud Migration</text>
  <rect fill="#8B5CF6" height="20" opacity="1" rx="4" stroke="#7C3AED" stroke-width="0.5" width="169" x="306" y="352.94"/>
  <rect fill="#FFFFFF" height="5" opacity="0.5" rx="4" width="51" x="306" y="367.94"/>
  <text dominant-baseline="middle" fill="#111111" font-family="DejaVu Sans, Arial, Helvetica, sans-serif" font-size="12" font-weight="600" text-anchor="start" x="310" y="362.94">Security Hardening</text>
  <rect fill="#0EA5E9" height="20" opacity="1" rx="4" stroke="#0284C7" stroke-width="0.5" width="341" x="393" y="378.94"/>
  <rect fill="#FFFFFF" height="5" opacity="0.5" rx="4" width="153" x="393" y="393.94"/>
  <text dominant-baseline="middle" fill="#111111" font-family="DejaVu Sans, Arial, Helvetica, sans-serif" font-size="12" font-weight="600" text-anchor="start" x="397" y="388.94">API Modernization</text>
  <rect fill="#F59E0B" height="20" opacity="0.9" rx="4" stroke="#D97706" stroke-width="0.5" width="428" x="736" y="326.94"/>
  <text dominant-baseline="middle" fill="#111111" font-family="DejaVu Sans, Arial, Helvetica, sans-serif" font-size="12" font-weight="600" text-anchor="start" x="740" y="336.94">Data Platform v2</text>
  <rect fill="#3B82F6" height="20" opacity="1" rx="4" stroke="#2563EB" stroke-width="0.5" width="594" x="227" y="452.94"/>
  <rect fill="#FFFFFF" height="5" opacity="0.5" rx="4" width="297" x="227" y="467.94"/>
  <text dominant-baseline="middle" fill="#111111" font-family="DejaVu Sans, Arial, Helvetica, sans-serif" font-size="12" font-weight="600" text-anchor="start" x="231" y="462.94">Change Management Programme</text>
  <rect fill="#93C5FD" height="20" opacity="0.9" rx="4" stroke="#60A5FA" stroke-width="0.5" width="340" x="565" y="478.94"/>
  <text dominant-baseline="middle" fill="#111111" font-family="DejaVu Sans, Arial, Helvetica, sans-serif" font-size="12" font-weight="600" text-anchor="start" x="569" y="488.94">Training Rollout</text>
  <rect fill="#93C5FD" height="20" opacity="0.9" rx="4" stroke="#60A5FA" stroke-width="0.5" width="340" x="824" y="452.94"/>
  <text dominant-baseline="middle" fill="#111111" font-family="DejaVu Sans, Arial, Helvetica, sans-serif" font-size="12" font-weight="600" text-anchor="start" x="828" y="462.94">Leadership Development</text>
  <rect fill="#4ADE80" height="20" opacity="0.85" rx="4" stroke="#22C55E" stroke-width="0.5" width="197" x="193" y="552.94"/>
  <rect fill="#FFFFFF" height="5" opacity="0.5" rx="4" width="197" x="193" y="567.94"/>
  <text dominant-baseline="middle" fill="#111111" font-family="DejaVu Sans, Arial, Helvetica, sans-serif" font-size="12" font-weight="600" text-anchor="start" x="197" y="562.94">Process Mapping</text>
  <rect fill="#3B82F6" height="20" opacity="1" rx="4" stroke="#2563EB" stroke-width="0.5" width="341" x="393" y="552.94"/>
  <rect fill="#FFFFFF" height="5" opacity="0.5" rx="4" width="119" x="393" y="567.94"/>
  <text dominant-baseline="middle" fill="#111111" font-family="DejaVu Sans, Arial, Helvetica, sans-serif" font-size="12" font-weight="600" text-anchor="start" x="397" y="562.94">Automation Wave 1</text>
  <rect fill="#93C5FD" height="20" opacity="0.9" rx="4" stroke="#60A5FA" stroke-width="0.5" width="428" x="736" y="552.94"/>
  <text dominant-baseline="middle" fill="#111111" font-family="DejaVu Sans, Arial, Helvetica, sans-serif" font-size="12" font-weight="600" text-anchor="start" x="740" y="562.94">Automation Wave 2</text>
  <line opacity="0.45" stroke="#6B7280" stroke-width="0.75" x1="179" x2="179" y1="236.94" y2="406.94"/>
  <circle cx="179" cy="424.94" fill="#3B82F6" r="18" stroke="#FFFFFF" stroke-width="2"/>
  <path d="M 12 3 L 14.4 8.8 L 20.6 9.2 L 15.8 13.2 L 17.3 19.3 L 12 16 L 6.7 19.3 L 8.2 13.2 L 3.4 9.2 L 9.6 8.8 Z" fill="#FFFFFF" transform="translate(179,424.94) scale(0.975) translate(-12,-12)"/>
  <text dominant-baseline="alphabetic" fill="#111111" font-family="DejaVu Sans, Arial, Helvetica, sans-serif" font-size="12" font-weight="600" text-anchor="middle" x="179" y="216.73">Programme Kickoff</text>
  <text dominant-baseline="alphabetic" fill="#6B7280" font-family="DejaVu Sans, Arial, Helvetica, sans-serif" font-size="10.67" font-weight="400" text-anchor="middle" x="179" y="232.14">January 2026</text>
  <line opacity="0.45" stroke="#6B7280" stroke-width="0.75" x1="390" x2="390" y1="236.94" y2="406.94"/>
  <circle cx="390" cy="424.94" fill="#3B82F6" r="18" stroke="#FFFFFF" stroke-width="2"/>
  <path d="M 4 12 L 9.5 17.5 L 20 7" fill="none" stroke="#FFFFFF" stroke-linecap="round" stroke-width="2" transform="translate(390,424.94) scale(0.975) translate(-12,-12)"/>
  <text dominant-baseline="alphabetic" fill="#111111" font-family="DejaVu Sans, Arial, Helvetica, sans-serif" font-size="12" font-weight="600" text-anchor="middle" x="390" y="216.73">Q1 Gate Review</text>
  <text dominant-baseline="alphabetic" fill="#6B7280" font-family="DejaVu Sans, Arial, Helvetica, sans-serif" font-size="10.67" font-weight="400" text-anchor="middle" x="390" y="232.14">March 2026</text>
  <line opacity="0.45" stroke="#6B7280" stroke-width="0.75" x1="562" x2="562" y1="236.94" y2="406.94"/>
  <circle cx="562" cy="424.94" fill="#6366F1" r="18" stroke="#FFFFFF" stroke-width="2"/>
  <path d="M 6 19 L 18 19 A 4 4 0 0 0 18 12 A 5 5 0 0 0 11 8 A 4 4 0 0 0 4 12 A 4 4 0 0 0 6 19 Z" fill="none" stroke="#FFFFFF" stroke-linecap="round" stroke-width="2" transform="translate(562,424.94) scale(0.975) translate(-12,-12)"/>
  <text dominant-baseline="alphabetic" fill="#111111" font-family="DejaVu Sans, Arial, Helvetica, sans-serif" font-size="12" font-weight="600" text-anchor="middle" x="562" y="216.73">Cloud Migration C…</text>
  <text dominant-baseline="alphabetic" fill="#6B7280" font-family="DejaVu Sans, Arial, Helvetica, sans-serif" font-size="10.67" font-weight="400" text-anchor="middle" x="562" y="232.14">May 2026</text>
  <line opacity="0.45" stroke="#6B7280" stroke-width="0.75" x1="646" x2="646" y1="198.47" y2="406.94"/>
  <circle cx="646" cy="424.94" fill="#3B82F6" r="18" stroke="#FFFFFF" stroke-width="2"/>
  <path d="M 2 5 L 2 22 L 22 22 L 22 5 Z M 2 10 L 22 10 M 8 2 L 8 7 M 16 2 L 16 7 M 6 14 L 9 14 M 13 14 L 16 14 M 6 18 L 9 18 M 13 18 L 16 18" fill="none" stroke="#FFFFFF" stroke-linecap="round" stroke-width="2" transform="translate(646,424.94) scale(0.975) translate(-12,-12)"/>
  <text dominant-baseline="alphabetic" fill="#111111" font-family="DejaVu Sans, Arial, Helvetica, sans-serif" font-size="12" font-weight="600" text-anchor="middle" x="646" y="178.26">Mid-Year Executiv…</text>
  <text dominant-baseline="alphabetic" fill="#6B7280" font-family="DejaVu Sans, Arial, Helvetica, sans-serif" font-size="10.67" font-weight="400" text-anchor="middle" x="646" y="193.67">June 2026</text>
  <line opacity="0.45" stroke="#6B7280" stroke-width="0.75" x1="905" x2="905" y1="236.94" y2="406.94"/>
  <circle cx="905" cy="424.94" fill="#3B82F6" r="18" stroke="#FFFFFF" stroke-width="2"/>
  <path d="M 4 12 L 9.5 17.5 L 20 7" fill="none" stroke="#FFFFFF" stroke-linecap="round" stroke-width="2" transform="translate(905,424.94) scale(0.975) translate(-12,-12)"/>
  <text dominant-baseline="alphabetic" fill="#111111" font-family="DejaVu Sans, Arial, Helvetica, sans-serif" font-size="12" font-weight="600" text-anchor="middle" x="905" y="216.73">Q3 Gate Review</text>
  <text dominant-baseline="alphabetic" fill="#6B7280" font-family="DejaVu Sans, Arial, Helvetica, sans-serif" font-size="10.67" font-weight="400" text-anchor="middle" x="905" y="232.14">September 2026</text>
  <line opacity="0.45" stroke="#6B7280" stroke-width="0.75" x1="1119" x2="1119" y1="149" y2="158"/>
  <line opacity="0.25" stroke="#6B7280" stroke-dasharray="2,3" stroke-width="0.75" x1="1119" x2="1107" y1="154" y2="154"/>
  <line opacity="0.45" stroke="#6B7280" stroke-width="0.75" x1="1107" x2="1107" y1="236.94" y2="406.94"/>
  <circle cx="1107" cy="424.94" fill="#3B82F6" r="18" stroke="#FFFFFF" stroke-width="2"/>
  <path d="M 4 2 L 4 21 L 6 21 L 6 17 L 18 11 L 6 5 Z" fill="#FFFFFF" transform="translate(1107,424.94) scale(0.975) translate(-12,-12)"/>
  <text dominant-baseline="alphabetic" fill="#111111" font-family="DejaVu Sans, Arial, Helvetica, sans-serif" font-size="12" font-weight="600" text-anchor="middle" x="1107" y="216.73">Year-End Delivery</text>
  <text dominant-baseline="alphabetic" fill="#6B7280" font-family="DejaVu Sans, Arial, Helvetica, sans-serif" font-size="10.67" font-weight="400" text-anchor="middle" x="1107" y="232.14">December 2026</text>
  <line opacity="0.5" stroke="#6B7280" stroke-dasharray="3,3" stroke-width="1" x1="646" x2="646" y1="414.94" y2="424.94"/>
  <rect fill="#FFFFFF" height="28" opacity="0.92" rx="3" stroke="#EF4444" stroke-width="1" width="120" x="586" y="386.94"/>
  <text dominant-baseline="middle" fill="#6B7280" font-family="DejaVu Sans, Arial, Helvetica, sans-serif" font-size="10.67" font-weight="400" text-anchor="middle" x="646" y="400.94">Review Gate</text>
  <rect fill="#FFFFFF" height="111" opacity="0.95" rx="4" stroke="#E5E7EB" stroke-width="1" width="160" x="988" y="622.94"/>
  <text dominant-baseline="alphabetic" fill="#111111" font-family="DejaVu Sans, Arial, Helvetica, sans-serif" font-size="12" font-weight="700" text-anchor="start" x="998" y="644.94">Status Legend</text>
  <rect fill="#4ADE80" height="12" rx="3" width="12" x="998" y="655.14"/>
  <text dominant-baseline="middle" fill="#6B7280" font-family="DejaVu Sans, Arial, Helvetica, sans-serif" font-size="10.67" font-weight="400" text-anchor="start" x="1018" y="661.14">Done</text>
  <rect fill="#3B82F6" height="12" rx="3" width="12" x="998" y="673.94"/>
  <text dominant-baseline="middle" fill="#6B7280" font-family="DejaVu Sans, Arial, Helvetica, sans-serif" font-size="10.67" font-weight="400" text-anchor="start" x="1018" y="679.94">In Progress</text>
  <rect fill="#FCD34D" height="12" rx="3" width="12" x="998" y="692.74"/>
  <text dominant-baseline="middle" fill="#6B7280" font-family="DejaVu Sans, Arial, Helvetica, sans-serif" font-size="10.67" font-weight="400" text-anchor="start" x="1018" y="698.74">At Risk</text>
  <rect fill="#93C5FD" height="12" rx="3" width="12" x="998" y="711.54"/>
  <text dominant-baseline="middle" fill="#6B7280" font-family="DejaVu Sans, Arial, Helvetica, sans-serif" font-size="10.67" font-weight="400" text-anchor="start" x="1018" y="717.54">Planned</text>
</svg>