<?xml version="1.0" encoding="UTF-8"?>
<svg height="342.94" version="1.1" viewBox="0 0 1200 342.94" width="1200" xmlns="http://www.w3.org/2000/svg">
  <rect fill="#FFFFFF" height="342.94" width="1200" x="0" y="0"/>
  <text dominant-baseline="alphabetic" fill="#111111" font-family="DejaVu Sans, Arial, Helvetica, sans-serif" font-size="24" font-weight="700" text-anchor="middle" x="600" y="80">Founder Journey — From Idea to Series B</text>
  <text dominant-baseline="alphabetic" fill="#111111" font-family="DejaVu Sans, Arial, Helvetica, sans-serif" font-size="14.67" font-weight="400" opacity="0.75" text-anchor="middle" x="600" y="108.67">T1-style vertical spine: five milestones with subjects and descriptions</text>
  <line opacity="0.35" stroke="#374151" stroke-width="0.5" x1="140" x2="1164" y1="120" y2="120"/>
  <line stroke="#374151" stroke-width="1" x1="140" x2="1164" y1="154" y2="154"/>
  <line stroke="#374151" stroke-width="1" x1="335" x2="335" y1="149" y2="154"/>
  <line opacity="0.9" stroke="#E5E7EB" stroke-width="0.75" x1="335" x2="335" y1="154" y2="268.47"/>
  <text dominant-baseline="alphabetic" fill="#6B7280" font-family="DejaVu Sans, Arial, Helvetica, sans-serif" font-size="12" font-weight="400" text-anchor="middle" x="335" y="142.4">2022</text>
  <line stroke="#374151" stroke-width="1" x1="667" x2="667" y1="149" y2="154"/>
  <line opacity="0.9" stroke="#E5E7EB" stroke-width="0.75" x1="667" x2="667" y1="154" y2="268.47"/>
  <text dominant-baseline="alphabetic" fill="#6B7280" font-family="DejaVu Sans, Arial, Helvetica, sans-serif" font-size="12" font-weight="400" text-anchor="middle" x="667" y="142.4">2023</text>
  <line stroke="#374151" stroke-width="1" x1="999" x2="999" y1="149" y2="154"/>
  <line opacity="0.9" stroke="#E5E7EB" stroke-width="0.75" x1="999" x2="999" y1="154" y2="268.47"/>
  <text dominant-baseline="alphabetic" fill="#6B7280" font-family="DejaVu Sans, Arial, Helvetica, sans-serif" font-size="12" font-weight="400" text-anchor="middle" x="999" y="142.4">2024</text>
  <line opacity="0.3" stroke="#D1D5DB" stroke-width="1" x1="140" x2="1164" y1="268.47" y2="268.47"/>
  <text dominant-baseline="middle" fill="#111111" font-family="DejaVu Sans, Arial, Helvetica, sans-serif" font-size="13.33" font-weight="700" text-anchor="start" x="8" y="236.47">Company Journey</text>
  <rect fill="#4ADE80" height="20" opacity="0.85" rx="4" stroke="#22C55E" stroke-width="0.5" width="276" x="140" y="214.47"/>
  <text dominant-baseline="middle" fill="#111111" font-family="DejaVu Sans, Arial, Helvetica, sans-serif" font-size="12" font-weight="600" text-anchor="start" x="144" y="224.47">Stealth / Build Phase</text>
  <rect fill="#4ADE80" height="20" opacity="0.85" rx="4" stroke="#22C55E" stroke-width="0.5" width="415" x="500" y="214.47"/>
  <text dominant-baseline="middle" fill="#111111" font-family="DejaVu Sans, Arial, Helvetica, sans-serif" font-size="12" font-weight="600" text-anchor="start" x="504" y="224.47">Seed-fuelled Growth</text>
  <rect fill="#3B82F6" height="20" opacity="1" rx="4" stroke="#2563EB" stroke-width="0.5" width="222" x="916" y="214.47"/>
  <text dominant-baseline="middle" fill="#111111" font-family="DejaVu Sans, Arial, Helvetica, sans-serif" font-size="12" font-weight="600" text-anchor="start" x="920" y="224.47">Series A Deployment</text>
  <line opacity="0.45" stroke="#6B7280" stroke-width="0.75" x1="153" x2="153" y1="254.47" y2="260.47"/>
  <circle cx="153" cy="236.47" fill="#3B82F6" r="18" stroke="#FFFFFF" stroke-width="2"/>
  <path d="M 14 2 L 6 13 L 12 13 L 10 22 L 18 11 L 12 11 Z" fill="#FFFFFF" transform="translate(153,236.47) scale(0.975) translate(-12,-12)"/>
  <text dominant-baseline="alphabetic" fill="#111111" font-family="DejaVu Sans, Arial, Helvetica, sans-serif" font-size="12" font-weight="600" text-anchor="middle" x="153" y="273.73">The Idea</text>
  <text dominant-baseline="alphabetic" fill="#6B7280" font-family="DejaVu Sans, Arial, Helvetica, sans-serif" font-size="10.67" font-weight="400" text-anchor="middle" x="153" y="289.14">June 2021</text>
  <line opacity="0.45" stroke="#6B7280" stroke-width="0.75" x1="352" x2="352" y1="198.47" y2="218.47"/>
  <circle cx="352" cy="236.47" fill="#3B82F6" r="18" stroke="#FFFFFF" stroke-width="2"/>
  <path d="M 4 7 A 3 3 0 1 0 10 7 A 3 3 0 1 0 4 7 M 1 22 A 6 6 0 0 1 13 22 M 14.5 8 A 2.5 2.5 0 1 0 19.5 8 A 2.5 2.5 0 1 0 14.5 8 M 14 22 A 5 5 0 0 1 22 22" fill="none" stroke="#FFFFFF" stroke-linecap="round" stroke-width="2" transform="translate(352,236.47) scale(0.975) translate(-12,-12)"/>
  <text dominant-baseline="alphabetic" fill="#111111" font-family="DejaVu Sans, Arial, Helvetica, sans-serif" font-size="12" font-weight="600" text-anchor="middle" x="352" y="178.26">First 10 Customers</text>
  <text dominant-baseline="alphabetic" fill="#6B7280" font-family="DejaVu Sans, Arial, Helvetica, sans-serif" font-size="10.67" font-weight="400" text-anchor="middle" x="352" y="193.67">January 2022</text>
  <line opacity="0.45" stroke="#6B7280" stroke-width="0.75" x1="500" x2="500" y1="254.47" y2="260.47"/>
  <circle cx="500" cy="236.47" fill="#3B82F6" r="18" stroke="#FFFFFF" stroke-width="2"/>
  <path d="M 12 3 L 14.4 8.8 L 20.6 9.2 L 15.8 13.2 L 17.3 19.3 L 12 16 L 6.7 19.3 L 8.2 13.2 L 3.4 9.2 L 9.6 8.8 Z" fill="#FFFFFF" transform="translate(500,236.47) scale(0.975) translate(-12,-12)"/>
  <text dominant-baseline="alphabetic" fill="#111111" font-family="DejaVu Sans, Arial, Helvetica, sans-serif" font-size="12" font-weight="600" text-anchor="middle" x="500" y="273.73">Seed Round Closed</text>
  <text dominant-baseline="alphabetic" fill="#6B7280" font-family="DejaVu Sans, Arial, Helvetica, sans-serif" font-size="10.67" font-weight="400" text-anchor="middle" x="500" y="289.14">July 2022</text>
  <line opacity="0.45" stroke="#6B7280" stroke-width="0.75" x1="916" x2="916" y1="198.47" y2="218.47"/>
  <circle cx="916" cy="236.47" fill="#3B82F6" r="18" stroke="#FFFFFF" stroke-width="2"/>
  <path d="M 12 2 L 16 11 L 15 11 L 15 18 L 9 18 L 9 11 L 8 11 Z M 9 18 L 6 22 L 9 16 Z M 15 18 L 18 22 L 15 16 Z" fill="#FFFFFF" transform="translate(916,236.47) scale(0.975) translate(-12,-12)"/>
  <text dominant-baseline="alphabetic" fill="#111111" font-family="DejaVu Sans, Arial, Helvetica, sans-serif" font-size="12" font-weight="600" text-anchor="middle" x="916" y="178.26">Series A — $15M</text>
  <text dominant-baseline="alphabetic" fill="#6B7280" font-family="DejaVu Sans, Arial, Helvetica, sans-serif" font-size="10.67" font-weight="400" text-anchor="middle" x="916" y="193.67">October 2023</text>
  <line opacity="0.45" stroke="#6B7280" stroke-width="0.75" x1="1082" x2="1082" y1="254.47" y2="260.47"/>
  <circle cx="1082" cy="236.47" fill="#3B82F6" r="18" stroke="#FFFFFF" stroke-width="2"/>
  <path d="M 3 12 A 9 9 0 1 0 21 12 A 9 9 0 1 0 3 12 M 7 12 A 5 5 0 1 0 17 12 A 5 5 0 1 0 7 12 M 10 12 A 2 2 0 1 0 14 12 A 2 2 0 1 0 10 12" fill="none" stroke="#FFFFFF" stroke-linecap="round" stroke-width="2" transform="translate(1082,236.47) scale(0.975) translate(-12,-12)"/>
  <text dominant-baseline="alphabetic" fill="#111111" font-family="DejaVu Sans, Arial, Helvetica, sans-serif" font-size="12" font-weight="600" text-anchor="middle" x="1082" y="273.73">Series B — $42M</text>
  <text dominant-baseline="alphabetic" fill="#6B7280" font-family="DejaVu Sans, Arial, Helvetica, sans-serif" font-size="10.67" font-weight="400" text-anchor="middle" x="1082" y="289.14">April 2024</text>
  <rect fill="#FFFFFF" height="111" opacity="0.95" rx="4" stroke="#E5E7EB" stroke-width="1" width="160" x="988" y="171.94"/>
  <text dominant-baseline="alphabetic" fill="#111111" font-family="DejaVu Sans, Arial, Helvetica, sans-serif" font-size="12" font-weight="700" text-anchor="start" x="998" y="193.94">Legend</text>
  <rect fill="#4ADE80" height="12" rx="3" width="12" x="998" y="204.14"/>
  <text dominant-baseline="middle" fill="#6B7280" font-family="DejaVu Sans, Arial, Helvetica, sans-serif" font-size="10.67" font-weight="400" text-anchor="start" x="1018" y="210.14">done</text>
  <rect fill="#3B82F6" height="12" rx="3" width="12" x="998" y="222.94"/>
  <text dominant-baseline="middle" fill="#6B7280" font-family="DejaVu Sans, Arial, Helvetica, sans-serif" font-size="10.67" font-weight="400" text-anchor="start" x="1018" y="228.94">in-progress</text>
  <rect fill="#93C5FD" height="12" rx="3" width="12" x="998" y="241.74"/>
  <text dominant-baseline="middle" fill="#6B7280" font-family="DejaVu Sans, Arial, Helvetica, sans-serif" font-size="10.67" font-weight="400" text-anchor="start" x="1018" y="247.74">planned</text>
  <rect fill="#3B82F6" height="12" rx="3" width="12" x="998" y="260.54"/>
  <text dominant-baseline="middle" fill="#6B7280" font-family="DejaVu Sans, Arial, Helvetica, sans-serif" font-size="10.67" font-weight="400" text-anchor="start" x="1018" y="266.54">standard-node</text>
</svg>