<?xml version="1.0" encoding="UTF-8"?>
<svg height="314" version="1.1" viewBox="0 0 1200 314" width="1200" xmlns="http://www.w3.org/2000/svg">
  <rect fill="#FFFFFF" height="314" width="1200" x="0" y="0"/>
  <text dominant-baseline="middle" fill="#111111" font-family="DejaVu Sans, Arial, Helvetica, sans-serif" font-size="24" font-weight="700" text-anchor="middle" x="600" y="34">Open-Ended &amp; Span Activity Behaviours</text>
  <line stroke="#374151" stroke-width="1" x1="140" x2="1164" y1="72" y2="72"/>
  <line stroke="#374151" stroke-width="1" x1="140" x2="140" y1="67" y2="72"/>
  <line opacity="0.9" stroke="#E5E7EB" stroke-width="0.75" x1="140" x2="140" y1="72" y2="270"/>
  <text dominant-baseline="alphabetic" fill="#6B7280" font-family="DejaVu Sans, Arial, Helvetica, sans-serif" font-size="12" font-weight="400" text-anchor="middle" x="140" y="60.4">2026</text>
  <line stroke="#374151" stroke-width="1" x1="227" x2="227" y1="67" y2="72"/>
  <line opacity="0.9" stroke="#E5E7EB" stroke-width="0.75" x1="227" x2="227" y1="72" y2="270"/>
  <text dominant-baseline="alphabetic" fill="#6B7280" font-family="DejaVu Sans, Arial, Helvetica, sans-serif" font-size="12" font-weight="400" text-anchor="middle" x="227" y="60.4">Feb</text>
  <line stroke="#374151" stroke-width="1" x1="306" x2="306" y1="67" y2="72"/>
  <line opacity="0.9" stroke="#E5E7EB" stroke-width="0.75" x1="306" x2="306" y1="72" y2="270"/>
  <text dominant-baseline="alphabetic" fill="#6B7280" font-family="DejaVu Sans, Arial, Helvetica, sans-serif" font-size="12" font-weight="400" text-anchor="middle" x="306" y="60.4">Mar</text>
  <line stroke="#374151" stroke-width="1" x1="393" x2="393" y1="67" y2="72"/>
  <line opacity="0.9" stroke="#E5E7EB" stroke-width="0.75" x1="393" x2="393" y1="72" y2="270"/>
  <text dominant-baseline="alphabetic" fill="#6B7280" font-family="DejaVu Sans, Arial, Helvetica, sans-serif" font-size="12" font-weight="400" text-anchor="middle" x="393" y="60.4">Apr</text>
  <line stroke="#374151" stroke-width="1" x1="478" x2="478" y1="67" y2="72"/>
  <line opacity="0.9" stroke="#E5E7EB" stroke-width="0.75" x1="478" x2="478" y1="72" y2="270"/>
  <text dominant-baseline="alphabetic" fill="#6B7280" font-family="DejaVu Sans, Arial, Helvetica, sans-serif" font-size="12" font-weight="400" text-anchor="middle" x="478" y="60.4">May</text>
  <line stroke="#374151" stroke-width="1" x1="565" x2="565" y1="67" y2="72"/>
  <line opacity="0.9" stroke="#E5E7EB" stroke-width="0.75" x1="565" x2="565" y1="72" y2="270"/>
  <text dominant-baseline="alphabetic" fill="#6B7280" font-family="DejaVu Sans, Arial, Helvetica, sans-serif" font-size="12" font-weight="400" text-anchor="middle" x="565" y="60.4">Jun</text>
  <line stroke="#374151" stroke-width="1" x1="649" x2="649" y1="67" y2="72"/>
  <line opacity="0.9" stroke="#E5E7EB" stroke-width="0.75" x1="649" x2="649" y1="72" y2="270"/>
  <text dominant-baseline="alphabetic" fill="#6B7280" font-family="DejaVu Sans, Arial, Helvetica, sans-serif" font-size="12" font-weight="400" text-anchor="middle" x="649" y="60.4">Jul</text>
  <line stroke="#374151" stroke-width="1" x1="736" x2="736" y1="67" y2="72"/>
  <line opacity="0.9" stroke="#E5E7EB" stroke-width="0.75" x1="736" x2="736" y1="72" y2="270"/>
  <text dominant-baseline="alphabetic" fill="#6B7280" font-family="DejaVu Sans, Arial, Helvetica, sans-serif" font-size="12" font-weight="400" text-anchor="middle" x="736" y="60.4">Aug</text>
  <line stroke="#374151" stroke-width="1" x1="824" x2="824" y1="67" y2="72"/>
  <line opacity="0.9" stroke="#E5E7EB" stroke-width="0.75" x1="824" x2="824" y1="72" y2="270"/>
  <text dominant-baseline="alphabetic" fill="#6B7280" font-family="DejaVu Sans, Arial, Helvetica, sans-serif" font-size="12" font-weight="400" text-anchor="middle" x="824" y="60.4">Sep</text>
  <line stroke="#374151" stroke-width="1" x1="908" x2="908" y1="67" y2="72"/>
  <line opacity="0.9" stroke="#E5E7EB" stroke-width="0.75" x1="908" x2="908" y1="72" y2="270"/>
  <text dominant-baseline="alphabetic" fill="#6B7280" font-family="DejaVu Sans, Arial, Helvetica, sans-serif" font-size="12" font-weight="400" text-anchor="middle" x="908" y="60.4">Oct</text>
  <line stroke="#374151" stroke-width="1" x1="995" x2="995" y1="67" y2="72"/>
  <line opacity="0.9" stroke="#E5E7EB" stroke-width="0.75" x1="995" x2="995" y1="72" y2="270"/>
  <text dominant-baseline="alphabetic" fill="#6B7280" font-family="DejaVu Sans, Arial, Helvetica, sans-serif" font-size="12" font-weight="400" text-anchor="middle" x="995" y="60.4">Nov</text>
  <line stroke="#374151" stroke-width="1" x1="1080" x2="1080" y1="67" y2="72"/>
  <line opacity="0.9" stroke="#E5E7EB" stroke-width="0.75" x1="1080" x2="1080" y1="72" y2="270"/>
  <text dominant-baseline="alphabetic" fill="#6B7280" font-family="DejaVu Sans, Arial, Helvetica, sans-serif" font-size="12" font-weight="400" text-anchor="middle" x="1080" y="60.4">Dec</text>
  <line opacity="0.3" stroke="#D1D5DB" stroke-width="1" x1="140" x2="1164" y1="176" y2="176"/>
  <text dominant-baseline="middle" fill="#111111" font-family="DejaVu Sans, Arial, Helvetica, sans-serif" font-size="13.33" font-weight="700" text-anchor="start" x="8" y="124">Live Services</text>
  <line opacity="0.3" stroke="#D1D5DB" stroke-width="1" x1="140" x2="1164" y1="270" y2="270"/>
  <text dominant-baseline="middle" fill="#111111" font-family="DejaVu Sans, Arial, Helvetica, sans-serif" font-size="13.33" font-weight="700" text-anchor="start" x="8" y="228">Projects</text>
  <rect fill="#3B82F6" height="20" opacity="1" rx="4" stroke="#2563EB" stroke-width="0.5" width="1024" x="140" y="82"/>
  <text dominant-baseline="middle" fill="#FFFFFF" font-family="DejaVu Sans, Arial, Helvetica, sans-serif" font-size="12" font-weight="600" text-anchor="middle" x="652" y="92">Production Monitoring</text>
  <path d="M 1164 82 L 1174 92 L 1164 102 Z" fill="#3B82F6" opacity="1"/>
  <rect fill="#3B82F6" height="20" opacity="1" rx="4" stroke="#2563EB" stroke-width="0.5" width="858" x="306" y="102"/>
  <text dominant-baseline="middle" fill="#FFFFFF" font-family="DejaVu Sans, Arial, Helvetica, sans-serif" font-size="12" font-weight="600" text-anchor="middle" x="735" y="112">On-Call Rotation</text>
  <path d="M 1164 102 L 1174 112 L 1164 122 Z" fill="#3B82F6" opacity="1"/>
  <rect fill="#93C5FD" height="20" opacity="0.9" rx="4" stroke="#60A5FA" stroke-width="0.5" width="599" x="565" y="122"/>
  <text dominant-baseline="middle" fill="#FFFFFF" font-family="DejaVu Sans, Arial, Helvetica, sans-serif" font-size="12" font-weight="600" text-anchor="middle" x="864.5" y="132">SLA Management</text>
  <path d="M 1164 122 L 1174 132 L 1164 142 Z" fill="#93C5FD" opacity="0.9"/>
  <rect fill="#4ADE80" height="20" opacity="0.85" rx="4" stroke="#22C55E" stroke-width="0.5" width="250" x="140" y="196"/>
  <rect fill="#FFFFFF" height="5" opacity="0.5" rx="4" width="250" x="140" y="211"/>
  <text dominant-baseline="middle" fill="#FFFFFF" font-family="DejaVu Sans, Arial, Helvetica, sans-serif" font-size="12" font-weight="600" text-anchor="middle" x="265" y="206">Q1 Sprint</text>
  <rect fill="#3B82F6" height="20" opacity="1" rx="4" stroke="#2563EB" stroke-width="0.5" width="253" x="393" y="196"/>
  <rect fill="#FFFFFF" height="5" opacity="0.5" rx="4" width="152" x="393" y="211"/>
  <text dominant-baseline="middle" fill="#FFFFFF" font-family="DejaVu Sans, Arial, Helvetica, sans-serif" font-size="12" font-weight="600" text-anchor="middle" x="519.5" y="206">Q2 Sprint</text>
  <rect fill="#93C5FD" height="20" opacity="0.9" rx="4" stroke="#60A5FA" stroke-width="0.5" width="256" x="649" y="196"/>
  <text dominant-baseline="middle" fill="#FFFFFF" font-family="DejaVu Sans, Arial, Helvetica, sans-serif" font-size="12" font-weight="600" text-anchor="middle" x="777" y="206">Q3 Sprint</text>
  <rect fill="#E0E7FF" height="20" opacity="0.75" rx="4" stroke="#818CF8" stroke-width="0.5" width="256" x="908" y="196"/>
  <text dominant-baseline="middle" fill="#FFFFFF" font-family="DejaVu Sans, Arial, Helvetica, sans-serif" font-size="12" font-weight="600" text-anchor="middle" x="1036" y="206">Future Project (TBD)</text>
  <line opacity="0.5" stroke="#818CF8" stroke-dasharray="3,3" stroke-width="2" x1="1164" x2="1164" y1="196" y2="216"/>
  <rect fill="#93C5FD" height="20" opacity="0.9" rx="4" stroke="#60A5FA" stroke-width="0.5" width="256" x="908" y="216"/>
  <text dominant-baseline="middle" fill="#FFFFFF" font-family="DejaVu Sans, Arial, Helvetica, sans-serif" font-size="12" font-weight="600" text-anchor="middle" x="1036" y="226">Q4 Sprint</text>
  <circle cx="393" cy="124" fill="#3B82F6" r="18" stroke="#FFFFFF" stroke-width="2"/>
  <text dominant-baseline="middle" fill="#FFFFFF" font-family="DejaVu Sans, Arial, Helvetica, sans-serif" font-size="13.33" font-weight="700" text-anchor="middle" x="393" y="124">01</text>
  <text dominant-baseline="alphabetic" fill="#6B7280" font-family="DejaVu Sans, Arial, Helvetica, sans-serif" font-size="10.67" font-weight="400" text-anchor="middle" x="393" y="100.21">1st April 2026</text>
  <text dominant-baseline="alphabetic" fill="#111111" font-family="DejaVu Sans, Arial, Helvetica, sans-serif" font-size="12" font-weight="600" text-anchor="middle" x="393" y="160">Service v2 GA</text>
  <circle cx="824" cy="228" fill="#3B82F6" r="18" stroke="#FFFFFF" stroke-width="2"/>
  <text dominant-baseline="middle" fill="#FFFFFF" font-family="DejaVu Sans, Arial, Helvetica, sans-serif" font-size="13.33" font-weight="700" text-anchor="middle" x="824" y="228">02</text>
  <text dominant-baseline="alphabetic" fill="#6B7280" font-family="DejaVu Sans, Arial, Helvetica, sans-serif" font-size="10.67" font-weight="400" text-anchor="middle" x="824" y="204.21">1st September 2026</text>
  <text dominant-baseline="alphabetic" fill="#111111" font-family="DejaVu Sans, Arial, Helvetica, sans-serif" font-size="12" font-weight="600" text-anchor="middle" x="824" y="264">Roadmap Review</text>
  <rect fill="#FFFFFF" height="129.8" opacity="0.95" rx="4" stroke="#E5E7EB" stroke-width="1" width="160" x="988" y="124.2"/>
  <text dominant-baseline="alphabetic" fill="#111111" font-family="DejaVu Sans, Arial, Helvetica, sans-serif" font-size="12" font-weight="700" text-anchor="start" x="998" y="146.2">Legend</text>
  <rect fill="#3B82F6" height="12" rx="3" width="12" x="998" y="156.4"/>
  <text dominant-baseline="middle" fill="#6B7280" font-family="DejaVu Sans, Arial, Helvetica, sans-serif" font-size="10.67" font-weight="400" text-anchor="start" x="1018" y="162.4">in-progress</text>
  <rect fill="#93C5FD" height="12" rx="3" width="12" x="998" y="175.2"/>
  <text dominant-baseline="middle" fill="#6B7280" font-family="DejaVu Sans, Arial, Helvetica, sans-serif" font-size="10.67" font-weight="400" text-anchor="start" x="1018" y="181.2">planned</text>
  <rect fill="#4ADE80" height="12" rx="3" width="12" x="998" y="194"/>
  <text dominant-baseline="middle" fill="#6B7280" font-family="DejaVu Sans, Arial, Helvetica, sans-serif" font-size="10.67" font-weight="400" text-anchor="start" x="1018" y="200">done</text>
  <rect fill="#E0E7FF" height="12" rx="3" width="12" x="998" y="212.8"/>
  <text dominant-baseline="middle" fill="#6B7280" font-family="DejaVu Sans, Arial, Helvetica, sans-serif" font-size="10.67" font-weight="400" text-anchor="start" x="1018" y="218.8">tentative</text>
  <rect fill="#3B82F6" height="12" rx="3" width="12" x="998" y="231.6"/>
  <text dominant-baseline="middle" fill="#6B7280" font-family="DejaVu Sans, Arial, Helvetica, sans-serif" font-size="10.67" font-weight="400" text-anchor="start" x="1018" y="237.6">standard-node</text>
</svg>