<svg xmlns="http://www.w3.org/2000/svg" viewBox="0 0 258.1904 442" width="258.1904" height="442">
  <rect x="0" y="0" width="258.1904" height="442" fill="#FFFFFF" />
  <path d="M 120.92 64.34 L 97.56 119.66" stroke="#64748B" stroke-width="1.5" fill="none" />
  <rect x="102.49000000000001" y="83" width="13.5" height="16" fill="#FFFFFF" stroke="#FFFFFF" stroke-width="0" rx="3" />
  <text x="109.24000000000001" y="95" font-size="11" font-family="Inter, system-ui, -apple-system, sans-serif" fill="#64748B" text-anchor="middle" font-weight="bold">c</text>
  <path d="M 142.64 61.04 L 194.93 122.96" stroke="#64748B" stroke-width="1.5" fill="none" />
  <rect x="161.7182" y="83" width="14.1336" height="16" fill="#FFFFFF" stroke="#FFFFFF" stroke-width="0" rx="3" />
  <text x="168.785" y="95" font-size="11" font-family="Inter, system-ui, -apple-system, sans-serif" fill="#64748B" text-anchor="middle" font-weight="bold">d</text>
  <path d="M 89.39 160 L 89.39 212" stroke="#64748B" stroke-width="1.5" fill="none" />
  <rect x="82.3232" y="177" width="14.1336" height="16" fill="#FFFFFF" stroke="#FFFFFF" stroke-width="0" rx="3" />
  <text x="89.39" y="189" font-size="11" font-family="Inter, system-ui, -apple-system, sans-serif" fill="#64748B" text-anchor="middle" font-weight="bold">a</text>
  <path d="M 80.4 251.98 L 54.84 306" stroke="#64748B" stroke-width="1.5" fill="none" />
  <rect x="61.782838636363635" y="269.99" width="11.674" height="16" fill="#FFFFFF" stroke="#FFFFFF" stroke-width="0" rx="3" />
  <text x="67.61983863636364" y="281.99" font-size="11" font-family="Inter, system-ui, -apple-system, sans-serif" fill="#64748B" text-anchor="middle" font-weight="bold">t</text>
  <path d="M 97.66 252.3 L 120.69 306" stroke="#64748B" stroke-width="1.5" fill="none" />
  <rect x="103.33982045454546" y="270.15" width="11.674" height="16" fill="#FFFFFF" stroke="#FFFFFF" stroke-width="0" rx="3" />
  <text x="109.17682045454546" y="282.15" font-size="11" font-family="Inter, system-ui, -apple-system, sans-serif" fill="#64748B" text-anchor="middle" font-weight="bold">r</text>
  <path d="M 127.13 336 L 127.13 388" stroke="#64748B" stroke-width="1.5" fill="none" />
  <rect x="120.06" y="353" width="14.1336" height="16" fill="#FFFFFF" stroke="#FFFFFF" stroke-width="0" rx="3" />
  <text x="127.1268" y="365" font-size="11" font-family="Inter, system-ui, -apple-system, sans-serif" fill="#64748B" text-anchor="middle" font-weight="bold">d</text>
  <path d="M 208.48 160 L 208.48 218" stroke="#64748B" stroke-width="1.5" fill="none" />
  <rect x="201.41359999999997" y="180" width="14.1336" height="16" fill="#FFFFFF" stroke="#FFFFFF" stroke-width="0" rx="3" />
  <text x="208.48039999999997" y="192" font-size="11" font-family="Inter, system-ui, -apple-system, sans-serif" fill="#64748B" text-anchor="middle" font-weight="bold">o</text>
  <path d="M 208.48 248 L 208.48 306" stroke="#64748B" stroke-width="1.5" fill="none" />
  <rect x="201.414" y="268" width="14.1336" height="16" fill="#FFFFFF" stroke="#FFFFFF" stroke-width="0" rx="3" />
  <text x="208.4808" y="280" font-size="11" font-family="Inter, system-ui, -apple-system, sans-serif" fill="#64748B" text-anchor="middle" font-weight="bold">g</text>
  <circle cx="129.0952" cy="45" r="21" fill="#F8FAFC" stroke="#4A90D9" stroke-width="2" />
  <text x="129.0952" y="49.9" font-size="14" font-family="Inter, system-ui, -apple-system, sans-serif" fill="#1E293B" text-anchor="middle" font-weight="bold"></text>
  <circle cx="89.3856" cy="139" r="21" fill="#F8FAFC" stroke="#4A90D9" stroke-width="2" />
  <text x="89.3856" y="143.9" font-size="14" font-family="Inter, system-ui, -apple-system, sans-serif" fill="#1E293B" text-anchor="middle" font-weight="bold"></text>
  <circle cx="89.3856" cy="233" r="21" fill="#F8FAFC" stroke="#4A90D9" stroke-width="2" />
  <text x="89.3856" y="237.9" font-size="14" font-family="Inter, system-ui, -apple-system, sans-serif" fill="#1E293B" text-anchor="middle" font-weight="bold"></text>
  <rect x="24" y="306" width="47.4824" height="30" fill="#4A90D9" stroke="#4A90D9" stroke-width="2" rx="15" />
  <text x="47.7412" y="325.9" font-size="14" font-family="Inter, system-ui, -apple-system, sans-serif" fill="#000000" text-anchor="middle" font-weight="bold">cat</text>
  <rect x="103.38560000000001" y="306" width="47.4824" height="30" fill="#4A90D9" stroke="#4A90D9" stroke-width="2" rx="15" />
  <text x="127.1268" y="325.9" font-size="14" font-family="Inter, system-ui, -apple-system, sans-serif" fill="#000000" text-anchor="middle" font-weight="bold">car</text>
  <rect x="99.48240000000001" y="388" width="55.288799999999995" height="30" fill="#4A90D9" stroke="#4A90D9" stroke-width="2" rx="15" />
  <text x="127.1268" y="407.9" font-size="14" font-family="Inter, system-ui, -apple-system, sans-serif" fill="#000000" text-anchor="middle" font-weight="bold">card</text>
  <circle cx="208.4808" cy="139" r="21" fill="#F8FAFC" stroke="#4A90D9" stroke-width="2" />
  <text x="208.4808" y="143.9" font-size="14" font-family="Inter, system-ui, -apple-system, sans-serif" fill="#1E293B" text-anchor="middle" font-weight="bold"></text>
  <rect x="186.6744" y="218" width="43.6128" height="30" fill="#4A90D9" stroke="#4A90D9" stroke-width="2" rx="15" />
  <text x="208.4808" y="237.9" font-size="14" font-family="Inter, system-ui, -apple-system, sans-serif" fill="#000000" text-anchor="middle" font-weight="bold">do</text>
  <rect x="182.7712" y="306" width="51.419200000000004" height="30" fill="#4A90D9" stroke="#4A90D9" stroke-width="2" rx="15" />
  <text x="208.4808" y="325.9" font-size="14" font-family="Inter, system-ui, -apple-system, sans-serif" fill="#000000" text-anchor="middle" font-weight="bold">dog</text>
</svg>