<svg xmlns="http://www.w3.org/2000/svg" viewBox="0 0 704.19664 342" width="704.19664" height="342">
  <defs>
    <marker id="struct-arrow" markerWidth="8" markerHeight="8" refX="7" refY="4" orient="auto"><path d="M0 0 L8 4 L0 8 z" fill="#4A90D9" /></marker>
  </defs>
  <rect width="100%" height="100%" fill="#FFFFFF" />
  <text x="24" y="42" font-size="20" font-family="Inter, system-ui, -apple-system, sans-serif" fill="#1E293B" font-weight="bold">Row Spanning</text>
  <rect x="24" y="58" width="203" height="260" fill="#FFFFFF" stroke="#CBD5E1" stroke-width="1" rx="6" />
  <rect x="247" y="58" width="160" height="120" fill="#FFFFFF" stroke="#CBD5E1" stroke-width="1" rx="6" />
  <rect x="427" y="58" width="253.19664" height="120" fill="#FFFFFF" stroke="#CBD5E1" stroke-width="1" rx="6" />
  <rect x="247" y="198" width="160" height="120" fill="#FFFFFF" stroke="#CBD5E1" stroke-width="1" rx="6" />
  <rect x="427" y="198" width="253.19664" height="120" fill="#FFFFFF" stroke="#CBD5E1" stroke-width="1" rx="6" />
  <text x="32" y="73.2" font-size="14" font-family="Inter, system-ui, -apple-system, sans-serif" fill="#1E293B" text-anchor="start" font-weight="bold">AVL — spans 2 rows</text>
  <g transform="translate(32.758064516129025, 84) scale(0.6182795698924731)">
    <path d="M 134.36 66 L 95.64 118" stroke="#64748B" stroke-width="1.5" fill="none" />
    <path d="M 165.64 66 L 204.36 118" stroke="#64748B" stroke-width="1.5" fill="none" />
    <path d="M 72.18 160 L 52.82 212" stroke="#64748B" stroke-width="1.5" fill="none" />
    <path d="M 87.82 160 L 107.18 212" stroke="#64748B" stroke-width="1.5" fill="none" />
    <path d="M 45 254 L 45 306" stroke="#64748B" stroke-width="1.5" fill="none" />
    <path d="M 212.18 160 L 192.82 212" stroke="#64748B" stroke-width="1.5" fill="none" />
    <path d="M 227.82 160 L 247.18 212" stroke="#64748B" stroke-width="1.5" fill="none" />
    <circle cx="150" cy="45" r="21" fill="#F8FAFC" stroke="#4A90D9" stroke-width="2" />
    <text x="150" y="49.9" font-size="14" font-family="Inter, system-ui, -apple-system, sans-serif" fill="#1E293B" text-anchor="middle" font-weight="bold">50</text>
    <circle cx="168" cy="27" r="9" fill="#FFFFFF" stroke="#4A90D9" stroke-width="1.5" />
    <text x="168" y="31" font-size="11" font-family="Inter, system-ui, -apple-system, sans-serif" fill="#4A90D9" text-anchor="middle" font-weight="bold">1</text>
    <circle cx="80" cy="139" r="21" fill="#F8FAFC" stroke="#4A90D9" stroke-width="2" />
    <text x="80" y="143.9" font-size="14" font-family="Inter, system-ui, -apple-system, sans-serif" fill="#1E293B" text-anchor="middle" font-weight="bold">30</text>
    <circle cx="98" cy="121" r="9" fill="#FFFFFF" stroke="#4A90D9" stroke-width="1.5" />
    <text x="98" y="125" font-size="11" font-family="Inter, system-ui, -apple-system, sans-serif" fill="#4A90D9" text-anchor="middle" font-weight="bold">1</text>
    <circle cx="45" cy="233" r="21" fill="#F8FAFC" stroke="#4A90D9" stroke-width="2" />
    <text x="45" y="237.9" font-size="14" font-family="Inter, system-ui, -apple-system, sans-serif" fill="#1E293B" text-anchor="middle" font-weight="bold">20</text>
    <circle cx="63" cy="215" r="9" fill="#FFFFFF" stroke="#4A90D9" stroke-width="1.5" />
    <text x="63" y="219" font-size="11" font-family="Inter, system-ui, -apple-system, sans-serif" fill="#4A90D9" text-anchor="middle" font-weight="bold">1</text>
    <circle cx="45" cy="327" r="21" fill="#F8FAFC" stroke="#4A90D9" stroke-width="2" />
    <text x="45" y="331.9" font-size="14" font-family="Inter, system-ui, -apple-system, sans-serif" fill="#1E293B" text-anchor="middle" font-weight="bold">10</text>
    <circle cx="63" cy="309" r="9" fill="#FFFFFF" stroke="#22C55E" stroke-width="1.5" />
    <text x="63" y="313" font-size="11" font-family="Inter, system-ui, -apple-system, sans-serif" fill="#22C55E" text-anchor="middle" font-weight="bold">0</text>
    <circle cx="115" cy="233" r="21" fill="#F8FAFC" stroke="#4A90D9" stroke-width="2" />
    <text x="115" y="237.9" font-size="14" font-family="Inter, system-ui, -apple-system, sans-serif" fill="#1E293B" text-anchor="middle" font-weight="bold">40</text>
    <circle cx="133" cy="215" r="9" fill="#FFFFFF" stroke="#22C55E" stroke-width="1.5" />
    <text x="133" y="219" font-size="11" font-family="Inter, system-ui, -apple-system, sans-serif" fill="#22C55E" text-anchor="middle" font-weight="bold">0</text>
    <circle cx="220" cy="139" r="21" fill="#F8FAFC" stroke="#4A90D9" stroke-width="2" />
    <text x="220" y="143.9" font-size="14" font-family="Inter, system-ui, -apple-system, sans-serif" fill="#1E293B" text-anchor="middle" font-weight="bold">70</text>
    <circle cx="238" cy="121" r="9" fill="#FFFFFF" stroke="#22C55E" stroke-width="1.5" />
    <text x="238" y="125" font-size="11" font-family="Inter, system-ui, -apple-system, sans-serif" fill="#22C55E" text-anchor="middle" font-weight="bold">0</text>
    <circle cx="185" cy="233" r="21" fill="#F8FAFC" stroke="#4A90D9" stroke-width="2" />
    <text x="185" y="237.9" font-size="14" font-family="Inter, system-ui, -apple-system, sans-serif" fill="#1E293B" text-anchor="middle" font-weight="bold">60</text>
    <circle cx="203" cy="215" r="9" fill="#FFFFFF" stroke="#22C55E" stroke-width="1.5" />
    <text x="203" y="219" font-size="11" font-family="Inter, system-ui, -apple-system, sans-serif" fill="#22C55E" text-anchor="middle" font-weight="bold">0</text>
    <circle cx="255" cy="233" r="21" fill="#F8FAFC" stroke="#4A90D9" stroke-width="2" />
    <text x="255" y="237.9" font-size="14" font-family="Inter, system-ui, -apple-system, sans-serif" fill="#1E293B" text-anchor="middle" font-weight="bold">80</text>
    <circle cx="273" cy="215" r="9" fill="#FFFFFF" stroke="#22C55E" stroke-width="1.5" />
    <text x="273" y="219" font-size="11" font-family="Inter, system-ui, -apple-system, sans-serif" fill="#22C55E" text-anchor="middle" font-weight="bold">0</text>
  </g>
  <text x="255" y="73.2" font-size="14" font-family="Inter, system-ui, -apple-system, sans-serif" fill="#1E293B" text-anchor="start" font-weight="bold">Uptime</text>
  <g transform="translate(286.5, 96.7) scale(1)">
    <text x="40.5" y="33.6" font-size="27" font-family="Inter, system-ui, -apple-system, sans-serif" fill="#4A90D9" text-anchor="middle" font-weight="bold">99.9%</text>
    <text x="40.5" y="50.400000000000006" font-size="11" font-family="Inter, system-ui, -apple-system, sans-serif" fill="#64748B" text-anchor="middle">uptime</text>
  </g>
  <text x="435" y="73.2" font-size="14" font-family="Inter, system-ui, -apple-system, sans-serif" fill="#1E293B" text-anchor="start" font-weight="bold">Latency</text>
  <g transform="translate(513.0983200000001, 96.7) scale(1)">
    <text x="40.5" y="33.6" font-size="27" font-family="Inter, system-ui, -apple-system, sans-serif" fill="#4A90D9" text-anchor="middle" font-weight="bold">42ms</text>
    <text x="40.5" y="50.400000000000006" font-size="11" font-family="Inter, system-ui, -apple-system, sans-serif" fill="#64748B" text-anchor="middle">p99</text>
  </g>
  <text x="255" y="213.2" font-size="14" font-family="Inter, system-ui, -apple-system, sans-serif" fill="#1E293B" text-anchor="start" font-weight="bold">Array</text>
  <g transform="translate(251, 236.84615384615384) scale(0.7307692307692307)">
    <rect x="24" y="24" width="40" height="40" fill="#F8FAFC" stroke="#CBD5E1" stroke-width="1.5" rx="3" />
    <text x="44" y="49" font-size="14" font-family="Inter, system-ui, -apple-system, sans-serif" fill="#1E293B" text-anchor="middle" font-weight="bold">5</text>
    <rect x="64" y="24" width="40" height="40" fill="#F8FAFC" stroke="#CBD5E1" stroke-width="1.5" rx="3" />
    <text x="84" y="49" font-size="14" font-family="Inter, system-ui, -apple-system, sans-serif" fill="#1E293B" text-anchor="middle" font-weight="bold">8</text>
    <rect x="104" y="24" width="40" height="40" fill="#F8FAFC" stroke="#CBD5E1" stroke-width="1.5" rx="3" />
    <text x="124" y="49" font-size="14" font-family="Inter, system-ui, -apple-system, sans-serif" fill="#1E293B" text-anchor="middle" font-weight="bold">13</text>
    <rect x="144" y="24" width="40" height="40" fill="#F8FAFC" stroke="#CBD5E1" stroke-width="1.5" rx="3" />
    <text x="164" y="49" font-size="14" font-family="Inter, system-ui, -apple-system, sans-serif" fill="#1E293B" text-anchor="middle" font-weight="bold">21</text>
  </g>
  <text x="435" y="213.2" font-size="14" font-family="Inter, system-ui, -apple-system, sans-serif" fill="#1E293B" text-anchor="start" font-weight="bold">Linked list</text>
  <g transform="translate(431, 240.4) scale(0.65)">
    <text x="24" y="48.9" font-size="14" font-family="Inter, system-ui, -apple-system, sans-serif" fill="#64748B" font-weight="bold">head</text>
    <path d="M 61.23 44 L 89.23 44" stroke="#4A90D9" stroke-width="1.5" fill="none" marker-end="url(#struct-arrow)" />
    <rect x="93.2256" y="24" width="30" height="40" fill="#F8FAFC" stroke="#CBD5E1" stroke-width="1.5" rx="4" />
    <rect x="123.2256" y="24" width="26" height="40" fill="#f1f3f5" stroke="#CBD5E1" stroke-width="1.5" rx="4" />
    <path d="M 123.23 24 L 123.23 64" stroke="#CBD5E1" stroke-width="1.5" fill="none" />
    <text x="108.23" y="48.9" font-size="14" font-family="Inter, system-ui, -apple-system, sans-serif" fill="#1E293B" text-anchor="middle" font-weight="bold">3</text>
    <circle cx="136.2256" cy="44" r="3" fill="#4A90D9" stroke="#4A90D9" stroke-width="1" />
    <path d="M 136.23 44 L 191.23 44" stroke="#4A90D9" stroke-width="1.5" fill="none" marker-end="url(#struct-arrow)" />
    <rect x="195.2256" y="24" width="30" height="40" fill="#F8FAFC" stroke="#CBD5E1" stroke-width="1.5" rx="4" />
    <rect x="225.2256" y="24" width="26" height="40" fill="#f1f3f5" stroke="#CBD5E1" stroke-width="1.5" rx="4" />
    <path d="M 225.23 24 L 225.23 64" stroke="#CBD5E1" stroke-width="1.5" fill="none" />
    <text x="210.23" y="48.9" font-size="14" font-family="Inter, system-ui, -apple-system, sans-serif" fill="#1E293B" text-anchor="middle" font-weight="bold">7</text>
    <circle cx="238.2256" cy="44" r="3" fill="#4A90D9" stroke="#4A90D9" stroke-width="1" />
    <path d="M 238.23 44 L 293.23 44" stroke="#4A90D9" stroke-width="1.5" fill="none" marker-end="url(#struct-arrow)" />
    <rect x="297.2256" y="24" width="30" height="40" fill="#F8FAFC" stroke="#CBD5E1" stroke-width="1.5" rx="4" />
    <rect x="327.2256" y="24" width="26" height="40" fill="#f1f3f5" stroke="#CBD5E1" stroke-width="1.5" rx="4" />
    <path d="M 327.23 24 L 327.23 64" stroke="#CBD5E1" stroke-width="1.5" fill="none" />
    <text x="312.23" y="48.9" font-size="14" font-family="Inter, system-ui, -apple-system, sans-serif" fill="#1E293B" text-anchor="middle" font-weight="bold">9</text>
    <path d="M 327.23 64 L 353.23 24" stroke="#64748B" stroke-width="1.5" fill="none" />
  </g>
</svg>