<svg xmlns="http://www.w3.org/2000/svg" viewBox="0 0 530 248" width="530" height="248">
  <defs>
    <marker id="block-arrow" markerWidth="10" markerHeight="8" refX="9" refY="4" orient="auto"><polygon points="0 0, 10 4, 0 8" fill="#00D4FF" /></marker>
  </defs>
  <rect width="100%" height="100%" fill="#0D1B2A" />
  <path d="M 174 52 L 190 52" stroke="#00D4FF" stroke-width="1.6" fill="none" marker-end="url(#block-arrow)" />
  <path d="M 348 80 L 348 96" stroke="#00D4FF" stroke-width="1.6" fill="none" marker-end="url(#block-arrow)" />
  <path d="M 174 124 L 190 124" stroke="#00D4FF" stroke-width="1.6" fill="none" marker-end="url(#block-arrow)" />
  <path d="M 174 196 L 190 196" stroke="#00D4FF" stroke-width="1.6" fill="none" marker-end="url(#block-arrow)" />
  <rect x="24" y="24" width="150" height="56" fill="#132035" stroke="#7C3AED" stroke-width="1.6" rx="8" />
  <text x="99" y="57" font-size="14" font-family="Inter, system-ui, -apple-system, sans-serif" fill="#E8EEF5" text-anchor="middle" font-weight="bold">Frontend</text>
  <rect x="190" y="24" width="316" height="56" fill="#132035" stroke="#0EA5A8" stroke-width="1.6" rx="8" />
  <text x="348" y="57" font-size="14" font-family="Inter, system-ui, -apple-system, sans-serif" fill="#E8EEF5" text-anchor="middle" font-weight="bold">API Layer</text>
  <rect x="24" y="96" width="150" height="56" fill="#132035" stroke="#D97706" stroke-width="1.6" rx="8" />
  <text x="99" y="129" font-size="14" font-family="Inter, system-ui, -apple-system, sans-serif" fill="#E8EEF5" text-anchor="middle" font-weight="bold">Auth</text>
  <rect x="190" y="96" width="316" height="56" fill="#132035" stroke="#5B4FCF" stroke-width="1.6" rx="8" />
  <text x="348" y="129" font-size="14" font-family="Inter, system-ui, -apple-system, sans-serif" fill="#E8EEF5" text-anchor="middle" font-weight="bold">Database</text>
  <rect x="24" y="168" width="150" height="56" fill="#132035" stroke="#DB2777" stroke-width="1.6" rx="8" />
  <text x="99" y="201" font-size="14" font-family="Inter, system-ui, -apple-system, sans-serif" fill="#E8EEF5" text-anchor="middle" font-weight="bold">Cache</text>
  <rect x="190" y="168" width="150" height="56" fill="#132035" stroke="#2563EB" stroke-width="1.6" rx="8" />
  <text x="265" y="201" font-size="14" font-family="Inter, system-ui, -apple-system, sans-serif" fill="#E8EEF5" text-anchor="middle" font-weight="bold">Queue</text>
  <rect x="356" y="168" width="150" height="56" fill="#132035" stroke="#16A34A" stroke-width="1.6" rx="8" />
  <text x="431" y="201" font-size="14" font-family="Inter, system-ui, -apple-system, sans-serif" fill="#E8EEF5" text-anchor="middle" font-weight="bold">Worker</text>
</svg>