<?xml version="1.0" encoding="UTF-8"?>
<svg height="832.94" version="1.1" viewBox="0 0 1200 832.94" width="1200" xmlns="http://www.w3.org/2000/svg">
  <rect fill="#FFFFFF" height="832.94" width="1200" x="0" y="0"/>
  <rect fill="#888888" height="408" opacity="0.03" width="247" x="140" y="252.94"/>
  <text dominant-baseline="alphabetic" fill="#555555" font-family="DejaVu Sans, Arial, Helvetica, sans-serif" font-size="10.67" font-weight="600" opacity="0.6" text-anchor="start" x="144" y="267.61">Foundation Phase</text>
  <text dominant-baseline="alphabetic" fill="#555555" font-family="DejaVu Sans, Arial, Helvetica, sans-serif" font-size="10.67" font-weight="600" opacity="0.6" text-anchor="start" x="394" y="267.61">Build Phase</text>
  <rect fill="#888888" height="408" opacity="0.03" width="509" x="643" y="252.94"/>
  <text dominant-baseline="alphabetic" fill="#555555" font-family="DejaVu Sans, Arial, Helvetica, sans-serif" font-size="10.67" font-weight="600" opacity="0.6" text-anchor="start" x="647" y="267.61">Scale Phase</text>
  <text dominant-baseline="alphabetic" fill="#1A1A1A" font-family="DejaVu Sans, Arial, Helvetica, sans-serif" font-size="24" font-weight="600" text-anchor="middle" x="600" y="88">Enterprise Transformation Programme</text>
  <text dominant-baseline="alphabetic" fill="#1A1A1A" font-family="DejaVu Sans, Arial, Helvetica, sans-serif" font-size="16" font-weight="400" opacity="0.75" text-anchor="middle" x="600" y="118">2026 Execution Roadmap</text>
  <line opacity="0.35" stroke="#AAAAAA" stroke-width="0.5" x1="140" x2="1152" y1="130" y2="130"/>
  <line stroke="#AAAAAA" stroke-width="1" x1="140" x2="1152" y1="164" y2="164"/>
  <line stroke="#AAAAAA" stroke-width="1" x1="140" x2="140" y1="160" y2="164"/>
  <line opacity="0.8" stroke="#CCCCCC" stroke-dasharray="4,4" stroke-width="0.5" x1="140" x2="140" y1="164" y2="660.94"/>
  <text dominant-baseline="alphabetic" fill="#888888" font-family="DejaVu Sans, Arial, Helvetica, sans-serif" font-size="12" font-weight="400" text-anchor="middle" x="140" y="152.4">Q1 2026</text>
  <line stroke="#AAAAAA" stroke-width="1" x1="390" x2="390" y1="160" y2="164"/>
  <line opacity="0.8" stroke="#CCCCCC" stroke-dasharray="4,4" stroke-width="0.5" x1="390" x2="390" y1="164" y2="660.94"/>
  <text dominant-baseline="alphabetic" fill="#888888" font-family="DejaVu Sans, Arial, Helvetica, sans-serif" font-size="12" font-weight="400" text-anchor="middle" x="390" y="152.4">Q2</text>
  <line stroke="#AAAAAA" stroke-width="1" x1="643" x2="643" y1="160" y2="164"/>
  <line opacity="0.8" stroke="#CCCCCC" stroke-dasharray="4,4" stroke-width="0.5" x1="643" x2="643" y1="164" y2="660.94"/>
  <text dominant-baseline="alphabetic" fill="#888888" font-family="DejaVu Sans, Arial, Helvetica, sans-serif" font-size="12" font-weight="400" text-anchor="middle" x="643" y="152.4">Q3</text>
  <line stroke="#AAAAAA" stroke-width="1" x1="899" x2="899" y1="160" y2="164"/>
  <line opacity="0.8" stroke="#CCCCCC" stroke-dasharray="4,4" stroke-width="0.5" x1="899" x2="899" y1="164" y2="660.94"/>
  <text dominant-baseline="alphabetic" fill="#888888" font-family="DejaVu Sans, Arial, Helvetica, sans-serif" font-size="12" font-weight="400" text-anchor="middle" x="899" y="152.4">Q4</text>
  <line opacity="0.85" stroke="#555555" stroke-dasharray="6,4" stroke-width="1" x1="585" x2="585" y1="252.94" y2="660.94"/>
  <text dominant-baseline="alphabetic" fill="#555555" font-family="DejaVu Sans, Arial, Helvetica, sans-serif" font-size="10.67" font-weight="600" opacity="0.9" text-anchor="start" x="588" y="267.61">Today</text>
  <line opacity="0.7" stroke="#555555" stroke-width="1.5" x1="140" x2="640" y1="672.94" y2="672.94"/>
  <line opacity="0.7" stroke="#555555" stroke-width="1.5" x1="140" x2="140" y1="668.94" y2="676.94"/>
  <line opacity="0.7" stroke="#555555" stroke-width="1.5" x1="640" x2="640" y1="668.94" y2="676.94"/>
  <text dominant-baseline="alphabetic" fill="#555555" font-family="DejaVu Sans, Arial, Helvetica, sans-serif" font-size="10.67" font-weight="400" opacity="0.75" text-anchor="middle" x="390" y="687.61">H1 Focus</text>
  <line opacity="0.3" stroke="#CCCCCC" stroke-width="1" x1="140" x2="1152" y1="324.94" y2="324.94"/>
  <text dominant-baseline="middle" fill="#555555" font-family="DejaVu Sans, Arial, Helvetica, sans-serif" font-size="13.33" font-weight="600" text-anchor="start" x="8" y="288.94">Strategy</text>
  <line opacity="0.3" stroke="#CCCCCC" stroke-width="1" x1="140" x2="1152" y1="464.94" y2="464.94"/>
  <text dominant-baseline="middle" fill="#555555" font-family="DejaVu Sans, Arial, Helvetica, sans-serif" font-size="13.33" font-weight="600" text-anchor="start" x="8" y="400.94">Technology</text>
  <line opacity="0.3" stroke="#CCCCCC" stroke-width="1" x1="140" x2="1152" y1="576.94" y2="576.94"/>
  <text dominant-baseline="middle" fill="#555555" font-family="DejaVu Sans, Arial, Helvetica, sans-serif" font-size="13.33" font-weight="600" text-anchor="start" x="8" y="526.94">People &amp; Change</text>
  <line opacity="0.3" stroke="#CCCCCC" stroke-width="1" x1="140" x2="1152" y1="660.94" y2="660.94"/>
  <text dominant-baseline="middle" fill="#555555" font-family="DejaVu Sans, Arial, Helvetica, sans-serif" font-size="13.33" font-weight="600" text-anchor="start" x="8" y="624.94">Operations</text>
  <rect fill="#9A9A9A" height="20" opacity="0.75" rx="2" stroke="#AAAAAA" stroke-width="0.5" width="136" x="165" y="264.94"/>
  <rect fill="#FFFFFF" height="3" opacity="0.55" rx="2" width="136" x="165" y="281.94"/>
  <text dominant-baseline="middle" fill="#555555" font-family="DejaVu Sans, Arial, Helvetica, sans-serif" font-size="12" font-weight="400" text-anchor="start" x="169" y="274.94">Vision &amp; Alignment W…</text>
  <rect fill="#666666" height="20" opacity="0.9" rx="2" stroke="#555555" stroke-width="0.5" width="336" x="304" y="264.94"/>
  <rect fill="#FFFFFF" height="3" opacity="0.55" rx="2" width="202" x="304" y="281.94"/>
  <text dominant-baseline="middle" fill="#FFFFFF" font-family="DejaVu Sans, Arial, Helvetica, sans-serif" font-size="12" font-weight="400" text-anchor="start" x="308" y="274.94">Operating Model Design</text>
  <rect fill="#BBBBBB" height="20" opacity="1" rx="2" stroke="#AAAAAA" stroke-width="0.5" width="253" x="643" y="264.94"/>
  <text dominant-baseline="middle" fill="#555555" font-family="DejaVu Sans, Arial, Helvetica, sans-serif" font-size="12" font-weight="400" text-anchor="start" x="647" y="274.94">Market Analysis</text>
  <rect fill="#BBBBBB" height="20" opacity="1" rx="2" stroke="#AAAAAA" stroke-width="0.5" width="253" x="899" y="264.94"/>
  <text dominant-baseline="middle" fill="#555555" font-family="DejaVu Sans, Arial, Helvetica, sans-serif" font-size="12" font-weight="400" text-anchor="start" x="903" y="274.94">Go-to-Market Strategy</text>
  <rect fill="#9A9A9A" height="20" opacity="0.75" rx="2" stroke="#AAAAAA" stroke-width="0.5" width="378" x="179" y="348.94"/>
  <rect fill="#FFFFFF" height="3" opacity="0.55" rx="2" width="378" x="179" y="365.94"/>
  <text dominant-baseline="middle" fill="#555555" font-family="DejaVu Sans, Arial, Helvetica, sans-serif" font-size="12" font-weight="400" text-anchor="start" x="183" y="358.94">Cloud Migration</text>
  <rect fill="#777777" height="20" opacity="0.9" rx="2" stroke="#888888" stroke-width="0.5" width="167" x="304" y="376.94"/>
  <rect fill="#FFFFFF" height="3" opacity="0.55" rx="2" width="50" x="304" y="393.94"/>
  <text dominant-baseline="middle" fill="#555555" font-family="DejaVu Sans, Arial, Helvetica, sans-serif" font-size="12" font-weight="400" text-anchor="start" x="308" y="386.94">Security Hardening</text>
  <rect fill="#666666" height="20" opacity="0.9" rx="2" stroke="#555555" stroke-width="0.5" width="337" x="390" y="404.94"/>
  <rect fill="#FFFFFF" height="3" opacity="0.55" rx="2" width="152" x="390" y="421.94"/>
  <text dominant-baseline="middle" fill="#FFFFFF" font-family="DejaVu Sans, Arial, Helvetica, sans-serif" font-size="12" font-weight="400" text-anchor="start" x="394" y="414.94">API Modernization</text>
  <rect fill="#BBBBBB" height="20" opacity="1" rx="2" stroke="#AAAAAA" stroke-width="0.5" width="423" x="729" y="348.94"/>
  <text dominant-baseline="middle" fill="#555555" font-family="DejaVu Sans, Arial, Helvetica, sans-serif" font-size="12" font-weight="400" text-anchor="start" x="733" y="358.94">Data Platform v2</text>
  <rect fill="#666666" height="20" opacity="0.9" rx="2" stroke="#555555" stroke-width="0.5" width="587" x="226" y="488.94"/>
  <rect fill="#FFFFFF" height="3" opacity="0.55" rx="2" width="294" x="226" y="505.94"/>
  <text dominant-baseline="middle" fill="#FFFFFF" font-family="DejaVu Sans, Arial, Helvetica, sans-serif" font-size="12" font-weight="400" text-anchor="start" x="230" y="498.94">Change Management Programme</text>
  <rect fill="#BBBBBB" height="20" opacity="1" rx="2" stroke="#AAAAAA" stroke-width="0.5" width="336" x="560" y="516.94"/>
  <text dominant-baseline="middle" fill="#555555" font-family="DejaVu Sans, Arial, Helvetica, sans-serif" font-size="12" font-weight="400" text-anchor="start" x="564" y="526.94">Training Rollout</text>
  <rect fill="#BBBBBB" height="20" opacity="1" rx="2" stroke="#AAAAAA" stroke-width="0.5" width="336" x="816" y="488.94"/>
  <text dominant-baseline="middle" fill="#555555" font-family="DejaVu Sans, Arial, Helvetica, sans-serif" font-size="12" font-weight="400" text-anchor="start" x="820" y="498.94">Leadership Development</text>
  <rect fill="#9A9A9A" height="20" opacity="0.75" rx="2" stroke="#AAAAAA" stroke-width="0.5" width="194" x="193" y="600.94"/>
  <rect fill="#FFFFFF" height="3" opacity="0.55" rx="2" width="194" x="193" y="617.94"/>
  <text dominant-baseline="middle" fill="#555555" font-family="DejaVu Sans, Arial, Helvetica, sans-serif" font-size="12" font-weight="400" text-anchor="start" x="197" y="610.94">Process Mapping</text>
  <rect fill="#666666" height="20" opacity="0.9" rx="2" stroke="#555555" stroke-width="0.5" width="337" x="390" y="600.94"/>
  <rect fill="#FFFFFF" height="3" opacity="0.55" rx="2" width="118" x="390" y="617.94"/>
  <text dominant-baseline="middle" fill="#FFFFFF" font-family="DejaVu Sans, Arial, Helvetica, sans-serif" font-size="12" font-weight="400" text-anchor="start" x="394" y="610.94">Automation Wave 1</text>
  <rect fill="#BBBBBB" height="20" opacity="1" rx="2" stroke="#AAAAAA" stroke-width="0.5" width="423" x="729" y="600.94"/>
  <text dominant-baseline="middle" fill="#555555" font-family="DejaVu Sans, Arial, Helvetica, sans-serif" font-size="12" font-weight="400" text-anchor="start" x="733" y="610.94">Automation Wave 2</text>
  <line opacity="0.45" stroke="#888888" stroke-width="0.75" x1="179" x2="179" y1="246.94" y2="438.94"/>
  <circle cx="179" cy="456.94" fill="#666666" r="18" stroke="#AAAAAA" stroke-width="1.5"/>
  <path d="M 12 3 L 14.4 8.8 L 20.6 9.2 L 15.8 13.2 L 17.3 19.3 L 12 16 L 6.7 19.3 L 8.2 13.2 L 3.4 9.2 L 9.6 8.8 Z" fill="#FFFFFF" transform="translate(179,456.94) scale(0.975) translate(-12,-12)"/>
  <text dominant-baseline="alphabetic" fill="#555555" font-family="DejaVu Sans, Arial, Helvetica, sans-serif" font-size="12" font-weight="400" text-anchor="middle" x="179" y="226.73">Programme Kickoff</text>
  <text dominant-baseline="alphabetic" fill="#888888" font-family="DejaVu Sans, Arial, Helvetica, sans-serif" font-size="10.67" font-weight="400" text-anchor="middle" x="179" y="242.14">January 2026</text>
  <line opacity="0.45" stroke="#888888" stroke-width="0.75" x1="387" x2="387" y1="246.94" y2="438.94"/>
  <circle cx="387" cy="456.94" fill="#666666" r="18" stroke="#AAAAAA" stroke-width="1.5"/>
  <path d="M 4 12 L 9.5 17.5 L 20 7" fill="none" stroke="#FFFFFF" stroke-linecap="round" stroke-width="2" transform="translate(387,456.94) scale(0.975) translate(-12,-12)"/>
  <text dominant-baseline="alphabetic" fill="#555555" font-family="DejaVu Sans, Arial, Helvetica, sans-serif" font-size="12" font-weight="400" text-anchor="middle" x="387" y="226.73">Q1 Gate Review</text>
  <text dominant-baseline="alphabetic" fill="#888888" font-family="DejaVu Sans, Arial, Helvetica, sans-serif" font-size="10.67" font-weight="400" text-anchor="middle" x="387" y="242.14">March 2026</text>
  <line opacity="0.45" stroke="#888888" stroke-width="0.75" x1="557" x2="557" y1="246.94" y2="438.94"/>
  <circle cx="557" cy="456.94" fill="#9A9A9A" r="18" stroke="#AAAAAA" stroke-width="1.5"/>
  <path d="M 6 19 L 18 19 A 4 4 0 0 0 18 12 A 5 5 0 0 0 11 8 A 4 4 0 0 0 4 12 A 4 4 0 0 0 6 19 Z" fill="none" stroke="#FFFFFF" stroke-linecap="round" stroke-width="2" transform="translate(557,456.94) scale(0.975) translate(-12,-12)"/>
  <text dominant-baseline="alphabetic" fill="#555555" font-family="DejaVu Sans, Arial, Helvetica, sans-serif" font-size="12" font-weight="400" text-anchor="middle" x="557" y="226.73">Cloud Migration Co…</text>
  <text dominant-baseline="alphabetic" fill="#888888" font-family="DejaVu Sans, Arial, Helvetica, sans-serif" font-size="10.67" font-weight="400" text-anchor="middle" x="557" y="242.14">May 2026</text>
  <line opacity="0.45" stroke="#888888" stroke-width="0.75" x1="640" x2="640" y1="208.47" y2="438.94"/>
  <circle cx="640" cy="456.94" fill="#666666" r="18" stroke="#AAAAAA" stroke-width="1.5"/>
  <path d="M 2 5 L 2 22 L 22 22 L 22 5 Z M 2 10 L 22 10 M 8 2 L 8 7 M 16 2 L 16 7 M 6 14 L 9 14 M 13 14 L 16 14 M 6 18 L 9 18 M 13 18 L 16 18" fill="none" stroke="#FFFFFF" stroke-linecap="round" stroke-width="2" transform="translate(640,456.94) scale(0.975) translate(-12,-12)"/>
  <text dominant-baseline="alphabetic" fill="#555555" font-family="DejaVu Sans, Arial, Helvetica, sans-serif" font-size="12" font-weight="400" text-anchor="middle" x="640" y="188.26">Mid-Year Executive …</text>
  <text dominant-baseline="alphabetic" fill="#888888" font-family="DejaVu Sans, Arial, Helvetica, sans-serif" font-size="10.67" font-weight="400" text-anchor="middle" x="640" y="203.67">June 2026</text>
  <line opacity="0.45" stroke="#888888" stroke-width="0.75" x1="896" x2="896" y1="246.94" y2="438.94"/>
  <circle cx="896" cy="456.94" fill="#666666" r="18" stroke="#AAAAAA" stroke-width="1.5"/>
  <path d="M 4 12 L 9.5 17.5 L 20 7" fill="none" stroke="#FFFFFF" stroke-linecap="round" stroke-width="2" transform="translate(896,456.94) scale(0.975) translate(-12,-12)"/>
  <text dominant-baseline="alphabetic" fill="#555555" font-family="DejaVu Sans, Arial, Helvetica, sans-serif" font-size="12" font-weight="400" text-anchor="middle" x="896" y="226.73">Q3 Gate Review</text>
  <text dominant-baseline="alphabetic" fill="#888888" font-family="DejaVu Sans, Arial, Helvetica, sans-serif" font-size="10.67" font-weight="400" text-anchor="middle" x="896" y="242.14">September 2026</text>
  <line opacity="0.45" stroke="#888888" stroke-width="0.75" x1="1108" x2="1108" y1="160" y2="168"/>
  <line opacity="0.25" stroke="#888888" stroke-dasharray="2,3" stroke-width="0.75" x1="1108" x2="1090" y1="164" y2="164"/>
  <line opacity="0.45" stroke="#888888" stroke-width="0.75" x1="1090" x2="1090" y1="246.94" y2="438.94"/>
  <circle cx="1090" cy="456.94" fill="#666666" r="18" stroke="#AAAAAA" stroke-width="1.5"/>
  <path d="M 4 2 L 4 21 L 6 21 L 6 17 L 18 11 L 6 5 Z" fill="#FFFFFF" transform="translate(1090,456.94) scale(0.975) translate(-12,-12)"/>
  <text dominant-baseline="alphabetic" fill="#555555" font-family="DejaVu Sans, Arial, Helvetica, sans-serif" font-size="12" font-weight="400" text-anchor="middle" x="1090" y="226.73">Year-End Delivery</text>
  <text dominant-baseline="alphabetic" fill="#888888" font-family="DejaVu Sans, Arial, Helvetica, sans-serif" font-size="10.67" font-weight="400" text-anchor="middle" x="1090" y="242.14">December 2026</text>
  <line opacity="0.5" stroke="#888888" stroke-dasharray="3,3" stroke-width="1" x1="640" x2="640" y1="446.94" y2="456.94"/>
  <rect fill="#FFFFFF" height="28" opacity="0.92" rx="3" stroke="#555555" stroke-width="1" width="120" x="580" y="418.94"/>
  <text dominant-baseline="middle" fill="#888888" font-family="DejaVu Sans, Arial, Helvetica, sans-serif" font-size="10.67" font-weight="400" text-anchor="middle" x="640" y="432.94">Review Gate</text>
  <rect fill="#FFFFFF" height="104" opacity="0.95" rx="4" stroke="#CCCCCC" stroke-width="0.5" width="150" x="986" y="676.94"/>
  <text dominant-baseline="alphabetic" fill="#1A1A1A" font-family="DejaVu Sans, Arial, Helvetica, sans-serif" font-size="12" font-weight="600" text-anchor="start" x="994" y="696.94">Status Legend</text>
  <rect fill="#9A9A9A" height="10" rx="0" width="10" x="994" y="708.14"/>
  <text dominant-baseline="middle" fill="#555555" font-family="DejaVu Sans, Arial, Helvetica, sans-serif" font-size="10.67" font-weight="400" text-anchor="start" x="1011" y="713.14">Done</text>
  <rect fill="#666666" height="10" rx="0" width="10" x="994" y="725.94"/>
  <text dominant-baseline="middle" fill="#555555" font-family="DejaVu Sans, Arial, Helvetica, sans-serif" font-size="10.67" font-weight="400" text-anchor="start" x="1011" y="730.94">In Progress</text>
  <rect fill="#777777" height="10" rx="0" width="10" x="994" y="743.74"/>
  <text dominant-baseline="middle" fill="#555555" font-family="DejaVu Sans, Arial, Helvetica, sans-serif" font-size="10.67" font-weight="400" text-anchor="start" x="1011" y="748.74">At Risk</text>
  <rect fill="#BBBBBB" height="10" rx="0" width="10" x="994" y="761.54"/>
  <text dominant-baseline="middle" fill="#555555" font-family="DejaVu Sans, Arial, Helvetica, sans-serif" font-size="10.67" font-weight="400" text-anchor="start" x="1011" y="766.54">Planned</text>
</svg>