<?xml version="1.0" encoding="UTF-8"?>
<svg height="456" version="1.1" viewBox="0 0 1200 456" width="1200" xmlns="http://www.w3.org/2000/svg">
  <rect fill="#FFFFFF" height="456" width="1200" x="0" y="0"/>
  <text dominant-baseline="alphabetic" fill="#1A1A1A" font-family="DejaVu Sans, Arial, Helvetica, sans-serif" font-size="24" font-weight="600" text-anchor="middle" x="600" y="88">Project Phoenix — Program Timeline</text>
  <text dominant-baseline="alphabetic" fill="#1A1A1A" font-family="DejaVu Sans, Arial, Helvetica, sans-serif" font-size="16" font-weight="400" opacity="0.75" text-anchor="middle" x="600" y="118">Discovery through General Availability, FY 2026</text>
  <line opacity="0.35" stroke="#AAAAAA" stroke-width="0.5" x1="140" x2="1152" y1="130" y2="130"/>
  <line stroke="#AAAAAA" stroke-width="1" x1="140" x2="1152" y1="164" y2="164"/>
  <line stroke="#AAAAAA" stroke-width="1" x1="140" x2="140" y1="160" y2="164"/>
  <line opacity="0.8" stroke="#CCCCCC" stroke-dasharray="4,4" stroke-width="0.5" x1="140" x2="140" y1="164" y2="404"/>
  <text dominant-baseline="alphabetic" fill="#888888" font-family="DejaVu Sans, Arial, Helvetica, sans-serif" font-size="12" font-weight="400" text-anchor="middle" x="140" y="152.4">2026</text>
  <line stroke="#AAAAAA" stroke-width="1" x1="226" x2="226" y1="160" y2="164"/>
  <line opacity="0.8" stroke="#CCCCCC" stroke-dasharray="4,4" stroke-width="0.5" x1="226" x2="226" y1="164" y2="404"/>
  <text dominant-baseline="alphabetic" fill="#888888" font-family="DejaVu Sans, Arial, Helvetica, sans-serif" font-size="12" font-weight="400" text-anchor="middle" x="226" y="152.4">Feb</text>
  <line stroke="#AAAAAA" stroke-width="1" x1="304" x2="304" y1="160" y2="164"/>
  <line opacity="0.8" stroke="#CCCCCC" stroke-dasharray="4,4" stroke-width="0.5" x1="304" x2="304" y1="164" y2="404"/>
  <text dominant-baseline="alphabetic" fill="#888888" font-family="DejaVu Sans, Arial, Helvetica, sans-serif" font-size="12" font-weight="400" text-anchor="middle" x="304" y="152.4">Mar</text>
  <line stroke="#AAAAAA" stroke-width="1" x1="390" x2="390" y1="160" y2="164"/>
  <line opacity="0.8" stroke="#CCCCCC" stroke-dasharray="4,4" stroke-width="0.5" x1="390" x2="390" y1="164" y2="404"/>
  <text dominant-baseline="alphabetic" fill="#888888" font-family="DejaVu Sans, Arial, Helvetica, sans-serif" font-size="12" font-weight="400" text-anchor="middle" x="390" y="152.4">Apr</text>
  <line stroke="#AAAAAA" stroke-width="1" x1="474" x2="474" y1="160" y2="164"/>
  <line opacity="0.8" stroke="#CCCCCC" stroke-dasharray="4,4" stroke-width="0.5" x1="474" x2="474" y1="164" y2="404"/>
  <text dominant-baseline="alphabetic" fill="#888888" font-family="DejaVu Sans, Arial, Helvetica, sans-serif" font-size="12" font-weight="400" text-anchor="middle" x="474" y="152.4">May</text>
  <line stroke="#AAAAAA" stroke-width="1" x1="560" x2="560" y1="160" y2="164"/>
  <line opacity="0.8" stroke="#CCCCCC" stroke-dasharray="4,4" stroke-width="0.5" x1="560" x2="560" y1="164" y2="404"/>
  <text dominant-baseline="alphabetic" fill="#888888" font-family="DejaVu Sans, Arial, Helvetica, sans-serif" font-size="12" font-weight="400" text-anchor="middle" x="560" y="152.4">Jun</text>
  <line stroke="#AAAAAA" stroke-width="1" x1="643" x2="643" y1="160" y2="164"/>
  <line opacity="0.8" stroke="#CCCCCC" stroke-dasharray="4,4" stroke-width="0.5" x1="643" x2="643" y1="164" y2="404"/>
  <text dominant-baseline="alphabetic" fill="#888888" font-family="DejaVu Sans, Arial, Helvetica, sans-serif" font-size="12" font-weight="400" text-anchor="middle" x="643" y="152.4">Jul</text>
  <line stroke="#AAAAAA" stroke-width="1" x1="729" x2="729" y1="160" y2="164"/>
  <line opacity="0.8" stroke="#CCCCCC" stroke-dasharray="4,4" stroke-width="0.5" x1="729" x2="729" y1="164" y2="404"/>
  <text dominant-baseline="alphabetic" fill="#888888" font-family="DejaVu Sans, Arial, Helvetica, sans-serif" font-size="12" font-weight="400" text-anchor="middle" x="729" y="152.4">Aug</text>
  <line stroke="#AAAAAA" stroke-width="1" x1="816" x2="816" y1="160" y2="164"/>
  <line opacity="0.8" stroke="#CCCCCC" stroke-dasharray="4,4" stroke-width="0.5" x1="816" x2="816" y1="164" y2="404"/>
  <text dominant-baseline="alphabetic" fill="#888888" font-family="DejaVu Sans, Arial, Helvetica, sans-serif" font-size="12" font-weight="400" text-anchor="middle" x="816" y="152.4">Sep</text>
  <line stroke="#AAAAAA" stroke-width="1" x1="899" x2="899" y1="160" y2="164"/>
  <line opacity="0.8" stroke="#CCCCCC" stroke-dasharray="4,4" stroke-width="0.5" x1="899" x2="899" y1="164" y2="404"/>
  <text dominant-baseline="alphabetic" fill="#888888" font-family="DejaVu Sans, Arial, Helvetica, sans-serif" font-size="12" font-weight="400" text-anchor="middle" x="899" y="152.4">Oct</text>
  <line stroke="#AAAAAA" stroke-width="1" x1="985" x2="985" y1="160" y2="164"/>
  <line opacity="0.8" stroke="#CCCCCC" stroke-dasharray="4,4" stroke-width="0.5" x1="985" x2="985" y1="164" y2="404"/>
  <text dominant-baseline="alphabetic" fill="#888888" font-family="DejaVu Sans, Arial, Helvetica, sans-serif" font-size="12" font-weight="400" text-anchor="middle" x="985" y="152.4">Nov</text>
  <line stroke="#AAAAAA" stroke-width="1" x1="1069" x2="1069" y1="160" y2="164"/>
  <line opacity="0.8" stroke="#CCCCCC" stroke-dasharray="4,4" stroke-width="0.5" x1="1069" x2="1069" y1="164" y2="404"/>
  <text dominant-baseline="alphabetic" fill="#888888" font-family="DejaVu Sans, Arial, Helvetica, sans-serif" font-size="12" font-weight="400" text-anchor="middle" x="1069" y="152.4">Dec</text>
  <line opacity="0.3" stroke="#CCCCCC" stroke-width="1" x1="140" x2="1152" y1="236" y2="236"/>
  <text dominant-baseline="middle" fill="#555555" font-family="DejaVu Sans, Arial, Helvetica, sans-serif" font-size="13.33" font-weight="600" text-anchor="start" x="8" y="200">Discovery</text>
  <line opacity="0.3" stroke="#CCCCCC" stroke-width="1" x1="140" x2="1152" y1="320" y2="320"/>
  <text dominant-baseline="middle" fill="#555555" font-family="DejaVu Sans, Arial, Helvetica, sans-serif" font-size="13.33" font-weight="600" text-anchor="start" x="8" y="284">Development</text>
  <line opacity="0.3" stroke="#CCCCCC" stroke-width="1" x1="140" x2="1152" y1="404" y2="404"/>
  <text dominant-baseline="middle" fill="#555555" font-family="DejaVu Sans, Arial, Helvetica, sans-serif" font-size="13.33" font-weight="600" text-anchor="start" x="8" y="368">Quality &amp; Release</text>
  <rect fill="#9A9A9A" height="20" opacity="0.75" rx="2" stroke="#AAAAAA" stroke-width="0.5" width="72" x="151" y="176"/>
  <rect fill="#FFFFFF" height="3" opacity="0.55" rx="2" width="72" x="151" y="193"/>
  <text dominant-baseline="middle" fill="#555555" font-family="DejaVu Sans, Arial, Helvetica, sans-serif" font-size="12" font-weight="400" text-anchor="start" x="155" y="186">Stakehold…</text>
  <rect fill="#9A9A9A" height="20" opacity="0.75" rx="2" stroke="#AAAAAA" stroke-width="0.5" width="75" x="226" y="176"/>
  <rect fill="#FFFFFF" height="3" opacity="0.55" rx="2" width="75" x="226" y="193"/>
  <text dominant-baseline="middle" fill="#555555" font-family="DejaVu Sans, Arial, Helvetica, sans-serif" font-size="12" font-weight="400" text-anchor="start" x="230" y="186">Requireme…</text>
  <rect fill="#9A9A9A" height="20" opacity="0.75" rx="2" stroke="#AAAAAA" stroke-width="0.5" width="125" x="304" y="176"/>
  <rect fill="#FFFFFF" height="3" opacity="0.55" rx="2" width="125" x="304" y="193"/>
  <text dominant-baseline="middle" fill="#555555" font-family="DejaVu Sans, Arial, Helvetica, sans-serif" font-size="12" font-weight="400" text-anchor="start" x="308" y="186">Architecture Design</text>
  <rect fill="#9A9A9A" height="20" opacity="0.75" rx="2" stroke="#AAAAAA" stroke-width="0.5" width="125" x="304" y="260"/>
  <rect fill="#FFFFFF" height="3" opacity="0.55" rx="2" width="125" x="304" y="277"/>
  <text dominant-baseline="middle" fill="#555555" font-family="DejaVu Sans, Arial, Helvetica, sans-serif" font-size="12" font-weight="400" text-anchor="start" x="308" y="270">Sprint 1 — Foundation</text>
  <rect fill="#666666" height="20" opacity="0.9" rx="2" stroke="#555555" stroke-width="0.5" width="167" x="432" y="260"/>
  <rect fill="#FFFFFF" height="3" opacity="0.55" rx="2" width="109" x="432" y="277"/>
  <text dominant-baseline="middle" fill="#FFFFFF" font-family="DejaVu Sans, Arial, Helvetica, sans-serif" font-size="12" font-weight="400" text-anchor="start" x="436" y="270">Sprint 2 — Core Features</text>
  <rect fill="#444444" height="20" opacity="0.85" rx="2" stroke="#1A1A1A" stroke-width="0.5" width="211" x="602" y="260"/>
  <text dominant-baseline="middle" fill="#FFFFFF" font-family="DejaVu Sans, Arial, Helvetica, sans-serif" font-size="12" font-weight="400" text-anchor="start" x="606" y="270">Sprint 3 — Integrations</text>
  <rect fill="#BBBBBB" height="20" opacity="1" rx="2" stroke="#AAAAAA" stroke-width="0.5" width="166" x="816" y="260"/>
  <text dominant-baseline="middle" fill="#555555" font-family="DejaVu Sans, Arial, Helvetica, sans-serif" font-size="12" font-weight="400" text-anchor="start" x="820" y="270">Sprint 4 — Polish</text>
  <rect fill="#666666" height="20" opacity="0.9" rx="2" stroke="#555555" stroke-width="0.5" width="166" x="474" y="344"/>
  <rect fill="#FFFFFF" height="3" opacity="0.55" rx="2" width="66" x="474" y="361"/>
  <text dominant-baseline="middle" fill="#FFFFFF" font-family="DejaVu Sans, Arial, Helvetica, sans-serif" font-size="12" font-weight="400" text-anchor="start" x="478" y="354">Regression Testing</text>
  <rect fill="#BBBBBB" height="20" opacity="1" rx="2" stroke="#AAAAAA" stroke-width="0.5" width="253" x="643" y="344"/>
  <text dominant-baseline="middle" fill="#555555" font-family="DejaVu Sans, Arial, Helvetica, sans-serif" font-size="12" font-weight="400" text-anchor="start" x="647" y="354">Beta Program</text>
  <rect fill="#BBBBBB" height="20" opacity="1" rx="2" stroke="#AAAAAA" stroke-width="0.5" width="167" x="899" y="344"/>
  <text dominant-baseline="middle" fill="#555555" font-family="DejaVu Sans, Arial, Helvetica, sans-serif" font-size="12" font-weight="400" text-anchor="start" x="903" y="354">Launch Preparation</text>
  <circle cx="151" cy="200" fill="#666666" r="18" stroke="#AAAAAA" stroke-width="1.5"/>
  <path d="M 12 3 L 14.4 8.8 L 20.6 9.2 L 15.8 13.2 L 17.3 19.3 L 12 16 L 6.7 19.3 L 8.2 13.2 L 3.4 9.2 L 9.6 8.8 Z" fill="#FFFFFF" transform="translate(151,200) scale(0.975) translate(-12,-12)"/>
  <text dominant-baseline="alphabetic" fill="#888888" font-family="DejaVu Sans, Arial, Helvetica, sans-serif" font-size="10.67" font-weight="400" text-anchor="middle" x="151.01" y="176.21">5th January 2026</text>
  <text dominant-baseline="alphabetic" fill="#555555" font-family="DejaVu Sans, Arial, Helvetica, sans-serif" font-size="12" font-weight="400" text-anchor="middle" x="151" y="236">Project Kick-off</text>
  <circle cx="429" cy="284" fill="#666666" r="18" stroke="#AAAAAA" stroke-width="1.5"/>
  <path d="M 4 12 L 9.5 17.5 L 20 7" fill="none" stroke="#FFFFFF" stroke-linecap="round" stroke-width="2" transform="translate(429,284) scale(0.975) translate(-12,-12)"/>
  <text dominant-baseline="alphabetic" fill="#888888" font-family="DejaVu Sans, Arial, Helvetica, sans-serif" font-size="10.67" font-weight="400" text-anchor="middle" x="429" y="260.21">15th April 2026</text>
  <text dominant-baseline="alphabetic" fill="#555555" font-family="DejaVu Sans, Arial, Helvetica, sans-serif" font-size="12" font-weight="400" text-anchor="middle" x="429" y="320">Architecture Approval</text>
  <circle cx="813" cy="284" fill="#666666" r="18" stroke="#AAAAAA" stroke-width="1.5"/>
  <path d="M 12 2 L 22 12 L 12 22 L 2 12 Z" fill="#FFFFFF" transform="translate(813,284) scale(0.975) translate(-12,-12)"/>
  <text dominant-baseline="alphabetic" fill="#888888" font-family="DejaVu Sans, Arial, Helvetica, sans-serif" font-size="10.67" font-weight="400" text-anchor="middle" x="813.01" y="260.21">31st August 2026</text>
  <text dominant-baseline="alphabetic" fill="#555555" font-family="DejaVu Sans, Arial, Helvetica, sans-serif" font-size="12" font-weight="400" text-anchor="middle" x="813" y="320">Feature Freeze</text>
  <circle cx="1024" cy="368" fill="#666666" r="18" stroke="#AAAAAA" stroke-width="1.5"/>
  <path d="M 12 2 L 16 11 L 15 11 L 15 18 L 9 18 L 9 11 L 8 11 Z M 9 18 L 6 22 L 9 16 Z M 15 18 L 18 22 L 15 16 Z" fill="#FFFFFF" transform="translate(1024,368) scale(0.975) translate(-12,-12)"/>
  <text dominant-baseline="alphabetic" fill="#888888" font-family="DejaVu Sans, Arial, Helvetica, sans-serif" font-size="10.67" font-weight="400" text-anchor="middle" x="1024" y="344.21">15th November 2026</text>
  <text dominant-baseline="alphabetic" fill="#555555" font-family="DejaVu Sans, Arial, Helvetica, sans-serif" font-size="12" font-weight="400" text-anchor="middle" x="1024" y="404">Product Launch</text>
  <circle cx="1069" cy="368" fill="#666666" r="18" stroke="#AAAAAA" stroke-width="1.5"/>
  <path d="M 4 2 L 4 21 L 6 21 L 6 17 L 18 11 L 6 5 Z" fill="#FFFFFF" transform="translate(1069,368) scale(0.975) translate(-12,-12)"/>
  <text dominant-baseline="alphabetic" fill="#888888" font-family="DejaVu Sans, Arial, Helvetica, sans-serif" font-size="10.67" font-weight="400" text-anchor="middle" x="1069" y="329.54">1st December 2026</text>
  <text dominant-baseline="alphabetic" fill="#555555" font-family="DejaVu Sans, Arial, Helvetica, sans-serif" font-size="12" font-weight="400" text-anchor="middle" x="1069" y="428">General Availability</text>
  <rect fill="#FFFFFF" height="121.8" opacity="0.95" rx="4" stroke="#CCCCCC" stroke-width="0.5" width="150" x="986" y="266.2"/>
  <text dominant-baseline="alphabetic" fill="#1A1A1A" font-family="DejaVu Sans, Arial, Helvetica, sans-serif" font-size="12" font-weight="600" text-anchor="start" x="994" y="286.2">Legend</text>
  <rect fill="#9A9A9A" height="10" rx="0" width="10" x="994" y="297.4"/>
  <text dominant-baseline="middle" fill="#555555" font-family="DejaVu Sans, Arial, Helvetica, sans-serif" font-size="10.67" font-weight="400" text-anchor="start" x="1011" y="302.4">done</text>
  <rect fill="#666666" height="10" rx="0" width="10" x="994" y="315.2"/>
  <text dominant-baseline="middle" fill="#555555" font-family="DejaVu Sans, Arial, Helvetica, sans-serif" font-size="10.67" font-weight="400" text-anchor="start" x="1011" y="320.2">in-progress</text>
  <rect fill="#444444" height="10" rx="0" width="10" x="994" y="333"/>
  <text dominant-baseline="middle" fill="#555555" font-family="DejaVu Sans, Arial, Helvetica, sans-serif" font-size="10.67" font-weight="400" text-anchor="start" x="1011" y="338">blocked</text>
  <rect fill="#BBBBBB" height="10" rx="0" width="10" x="994" y="350.8"/>
  <text dominant-baseline="middle" fill="#555555" font-family="DejaVu Sans, Arial, Helvetica, sans-serif" font-size="10.67" font-weight="400" text-anchor="start" x="1011" y="355.8">planned</text>
  <rect fill="#666666" height="10" rx="0" width="10" x="994" y="368.6"/>
  <text dominant-baseline="middle" fill="#555555" font-family="DejaVu Sans, Arial, Helvetica, sans-serif" font-size="10.67" font-weight="400" text-anchor="start" x="1011" y="373.6">standard-node</text>
</svg>