<?xml version="1.0" encoding="UTF-8"?>
<svg height="548" version="1.1" viewBox="0 0 1200 548" width="1200" xmlns="http://www.w3.org/2000/svg">
<defs>
  <linearGradient gradientUnits="userSpaceOnUse" id="sg-90-156-1110-476-9c9c9c-575757" x1="90" x2="1110" y1="156" y2="476">
    <stop offset="0%" stop-color="#9c9c9c"/>
    <stop offset="100%" stop-color="#575757"/>
  </linearGradient>
</defs>

  <rect fill="#FFFFFF" height="548" width="1200" x="0" y="0"/>
  <text dominant-baseline="hanging" fill="#1A1A1A" font-family="DejaVu Sans, Arial, Helvetica, sans-serif" font-size="24" font-weight="600" text-anchor="middle" x="600" y="31.2">Project Journey</text>
  <text dominant-baseline="hanging" fill="#888888" font-family="DejaVu Sans, Arial, Helvetica, sans-serif" font-size="16" font-weight="400" text-anchor="middle" x="600" y="69.2">A winding path of milestones — 2020 to 2024</text>
  <path d="M 90 156 L 1110 156 A 80 80 0 1 1 1110 316 L 90 316 A 80 80 0 1 0 90 476 L 1110 476" fill="none" opacity="0.6" stroke="#9c9c9c" stroke-linecap="round" stroke-width="18" transform="translate(0,0)"/>
  <path d="M 90 156 L 1110 156 A 80 80 0 1 1 1110 316 L 90 316 A 80 80 0 1 0 90 476 L 1110 476" fill="none" stroke="url(#sg-90-156-1110-476-9c9c9c-575757)" stroke-linecap="round" stroke-width="14"/>
  <circle cx="287.93" cy="156" fill="#FFFFFF" r="10" stroke="#666666" stroke-width="3"/>
  <text dominant-baseline="hanging" fill="#555555" font-family="DejaVu Sans, Arial, Helvetica, sans-serif" font-size="12" font-weight="400" text-anchor="middle" x="287.93" y="179.6">Kickoff</text>
  <circle cx="683.78" cy="156" fill="#FFFFFF" r="10" stroke="#666666" stroke-width="3"/>
  <text dominant-baseline="hanging" fill="#555555" font-family="DejaVu Sans, Arial, Helvetica, sans-serif" font-size="12" font-weight="400" text-anchor="middle" x="683.78" y="179.6">Alpha</text>
  <circle cx="1079.63" cy="156" fill="#FFFFFF" r="10" stroke="#666666" stroke-width="3"/>
  <text dominant-baseline="hanging" fill="#555555" font-family="DejaVu Sans, Arial, Helvetica, sans-serif" font-size="12" font-weight="400" text-anchor="middle" x="1079.63" y="179.6">Beta Launch</text>
  <circle cx="995.85" cy="316" fill="#FFFFFF" r="10" stroke="#666666" stroke-width="3"/>
  <text dominant-baseline="alphabetic" fill="#555555" font-family="DejaVu Sans, Arial, Helvetica, sans-serif" font-size="12" font-weight="400" text-anchor="middle" x="995.85" y="302">V1.0 Release</text>
  <circle cx="600" cy="316" fill="#FFFFFF" r="10" stroke="#666666" stroke-width="3"/>
  <text dominant-baseline="alphabetic" fill="#555555" font-family="DejaVu Sans, Arial, Helvetica, sans-serif" font-size="12" font-weight="400" text-anchor="middle" x="600" y="302">Open Source</text>
  <circle cx="204.15" cy="316" fill="#FFFFFF" r="10" stroke="#666666" stroke-width="3"/>
  <text dominant-baseline="alphabetic" fill="#555555" font-family="DejaVu Sans, Arial, Helvetica, sans-serif" font-size="12" font-weight="400" text-anchor="middle" x="204.15" y="302">Cloud Platform</text>
  <circle cx="120.38" cy="476" fill="#FFFFFF" r="10" stroke="#666666" stroke-width="3"/>
  <text dominant-baseline="hanging" fill="#555555" font-family="DejaVu Sans, Arial, Helvetica, sans-serif" font-size="12" font-weight="400" text-anchor="middle" x="120.38" y="499.6">Enterprise V2</text>
  <circle cx="516.23" cy="476" fill="#FFFFFF" r="10" stroke="#666666" stroke-width="3"/>
  <text dominant-baseline="hanging" fill="#555555" font-family="DejaVu Sans, Arial, Helvetica, sans-serif" font-size="12" font-weight="400" text-anchor="middle" x="516.23" y="499.6">API v3</text>
  <circle cx="912.08" cy="476" fill="#FFFFFF" r="10" stroke="#666666" stroke-width="3"/>
  <text dominant-baseline="hanging" fill="#555555" font-family="DejaVu Sans, Arial, Helvetica, sans-serif" font-size="12" font-weight="400" text-anchor="middle" x="912.08" y="499.6">V4 Milestone</text>
  <circle cx="90" cy="156" fill="#525252" r="22" stroke="#525252" stroke-width="2"/>
  <path d="M 5 3 L 21 12 L 5 21 Z" fill="#FFFFFF" stroke-linecap="round" transform="translate(75.72,141.72) scale(1.19)"/>
  <circle cx="1110" cy="476" fill="#525252" r="22" stroke="#525252" stroke-width="2"/>
  <path d="M 3 12 A 9 9 0 1 0 21 12 A 9 9 0 1 0 3 12 M 7 12 A 5 5 0 1 0 17 12 A 5 5 0 1 0 7 12 M 10 12 A 2 2 0 1 0 14 12 A 2 2 0 1 0 10 12" fill="none" stroke="#FFFFFF" stroke-linecap="round" stroke-width="1.26" transform="translate(1095.72,461.72) scale(1.19)"/>
</svg>