<svg xmlns="http://www.w3.org/2000/svg" viewBox="0 0 681 368" width="681" height="368">
  <rect width="100%" height="100%" fill="#F8F9FF" />
  <text x="24" y="42" font-size="18" font-family="Inter, system-ui, -apple-system, sans-serif" fill="#1A1A2E" font-weight="bold">2026 Product Roadmap</text>
  <rect x="36" y="68" width="415.59999999999997" height="266" fill="#5B4FCF0A" stroke="#5B4FCF33" stroke-width="1" rx="4" />
  <text x="42" y="82" font-size="11" font-family="Inter, system-ui, -apple-system, sans-serif" fill="#5B4FCF" font-weight="bold">H1</text>
  <rect x="340.4" y="68" width="320.6" height="266" fill="#5B4FCF0A" stroke="#5B4FCF33" stroke-width="1" rx="4" />
  <text x="346.4" y="82" font-size="11" font-family="Inter, system-ui, -apple-system, sans-serif" fill="#5B4FCF" font-weight="bold">H2</text>
  <path d="M 44 118 L 657 118" stroke="#C0C4DF" stroke-width="2" fill="none" />
  <text x="24" y="156.4" font-size="11" font-family="Inter, system-ui, -apple-system, sans-serif" fill="#4A4A6A">Design</text>
  <text x="24" y="200.4" font-size="11" font-family="Inter, system-ui, -apple-system, sans-serif" fill="#4A4A6A">Platform</text>
  <text x="24" y="244.4" font-size="11" font-family="Inter, system-ui, -apple-system, sans-serif" fill="#4A4A6A">Mobile</text>
  <text x="24" y="288.4" font-size="11" font-family="Inter, system-ui, -apple-system, sans-serif" fill="#4A4A6A">Data</text>
  <rect x="44" y="136" width="145.6" height="32" fill="#2D9E6733" stroke="#C0C4DF" stroke-width="1" rx="4" />
  <text x="116.8" y="156.4" font-size="11" font-family="Inter, system-ui, -apple-system, sans-serif" fill="#1A1A2E" text-anchor="middle">Design System v2</text>
  <rect x="44" y="180" width="145.6" height="32" fill="#2D9E6733" stroke="#C0C4DF" stroke-width="1" rx="4" />
  <text x="116.8" y="200.4" font-size="11" font-family="Inter, system-ui, -apple-system, sans-serif" fill="#1A1A2E" text-anchor="middle">Core API v2</text>
  <rect x="189.6" y="180" width="158.79999999999998" height="32" fill="#E05B5B33" stroke="#C0C4DF" stroke-width="1" rx="4" />
  <text x="269" y="200.4" font-size="11" font-family="Inter, system-ui, -apple-system, sans-serif" fill="#1A1A2E" text-anchor="middle">Performance Sprint</text>
  <rect x="348.4" y="224" width="119.19999999999999" height="32" fill="#5B4FCF33" stroke="#C0C4DF" stroke-width="1" rx="4" />
  <text x="408" y="244.4" font-size="11" font-family="Inter, system-ui, -apple-system, sans-serif" fill="#1A1A2E" text-anchor="middle">Mobile App</text>
  <rect x="348.4" y="268" width="119.19999999999999" height="32" fill="#5B4FCF33" stroke="#C0C4DF" stroke-width="1" rx="4" />
  <text x="408" y="288.4" font-size="11" font-family="Inter, system-ui, -apple-system, sans-serif" fill="#1A1A2E" text-anchor="middle">Dashboard v2</text>
  <rect x="467.59999999999997" y="268" width="165.40000000000003" height="32" fill="#FFFFFF" stroke="#C0C4DF" stroke-width="1" rx="4" />
  <text x="550.3" y="288.4" font-size="11" font-family="Inter, system-ui, -apple-system, sans-serif" fill="#1A1A2E" text-anchor="middle">Real-Time Analytics</text>
  <path d="M 44 110 L 52 118 L 44 126 L 36 118 Z" stroke="#F8F9FF" stroke-width="1" fill="#5B4FCF" />
  <text x="44" y="104" font-size="11" font-family="Inter, system-ui, -apple-system, sans-serif" fill="#4A4A6A" text-anchor="middle">2026-Q1</text>
  <text x="44" y="142" font-size="14" font-family="Inter, system-ui, -apple-system, sans-serif" fill="#1A1A2E" text-anchor="middle">Kickoff</text>
  <path d="M 189.6 110 L 197.6 118 L 189.6 126 L 181.6 118 Z" stroke="#F8F9FF" stroke-width="1" fill="#5B4FCF" />
  <text x="189.6" y="104" font-size="11" font-family="Inter, system-ui, -apple-system, sans-serif" fill="#4A4A6A" text-anchor="middle">2026-Q2</text>
  <text x="189.6" y="142" font-size="14" font-family="Inter, system-ui, -apple-system, sans-serif" fill="#1A1A2E" text-anchor="middle">Platform Launch</text>
  <path d="M 348.4 110 L 356.4 118 L 348.4 126 L 340.4 118 Z" stroke="#F8F9FF" stroke-width="1" fill="#5B4FCF" />
  <text x="348.4" y="104" font-size="11" font-family="Inter, system-ui, -apple-system, sans-serif" fill="#4A4A6A" text-anchor="middle">2026-Q3</text>
  <text x="348.4" y="142" font-size="14" font-family="Inter, system-ui, -apple-system, sans-serif" fill="#1A1A2E" text-anchor="middle">Mobile GA</text>
  <path d="M 467.59999999999997 110 L 475.59999999999997 118 L 467.59999999999997 126 L 459.59999999999997 118 Z" stroke="#F8F9FF" stroke-width="1" fill="#5B4FCF" />
  <text x="467.59999999999997" y="104" font-size="11" font-family="Inter, system-ui, -apple-system, sans-serif" fill="#4A4A6A" text-anchor="middle">2026-Q4</text>
  <text x="467.59999999999997" y="142" font-size="14" font-family="Inter, system-ui, -apple-system, sans-serif" fill="#1A1A2E" text-anchor="middle">Year-End Release</text>
</svg>