<svg xmlns="http://www.w3.org/2000/svg" viewBox="0 0 482.8384 120" width="482.8384" height="120">
  <defs>
    <marker id="struct-arrow" markerWidth="8" markerHeight="8" refX="7" refY="4" orient="auto"><path d="M0 0 L8 4 L0 8 z" fill="#4A90D9" /></marker>
  </defs>
  <rect width="100%" height="100%" fill="#FFFFFF" />
  <text x="24" y="42" font-size="18" font-family="Inter, system-ui, -apple-system, sans-serif" fill="#1E293B" font-weight="bold">task queue</text>
  <text x="24" y="80.9" font-size="14" font-family="Inter, system-ui, -apple-system, sans-serif" fill="#64748B" font-weight="bold">head</text>
  <path d="M 61.23 76 L 89.23 76" stroke="#4A90D9" stroke-width="1.5" fill="none" marker-end="url(#struct-arrow)" />
  <rect x="93.2256" y="56" width="30" height="40" fill="#F8FAFC" stroke="#CBD5E1" stroke-width="1.5" rx="4" />
  <rect x="123.2256" y="56" width="26" height="40" fill="#f1f3f5" stroke="#CBD5E1" stroke-width="1.5" rx="4" />
  <path d="M 123.23 56 L 123.23 96" stroke="#CBD5E1" stroke-width="1.5" fill="none" />
  <text x="108.23" y="80.9" font-size="14" font-family="Inter, system-ui, -apple-system, sans-serif" fill="#1E293B" text-anchor="middle" font-weight="bold">3</text>
  <circle cx="136.2256" cy="76" r="3" fill="#4A90D9" stroke="#4A90D9" stroke-width="1" />
  <path d="M 136.23 76 L 191.23 76" stroke="#4A90D9" stroke-width="1.5" fill="none" marker-end="url(#struct-arrow)" />
  <rect x="195.2256" y="56" width="30" height="40" fill="#F8FAFC" stroke="#CBD5E1" stroke-width="1.5" rx="4" />
  <rect x="225.2256" y="56" width="26" height="40" fill="#f1f3f5" stroke="#CBD5E1" stroke-width="1.5" rx="4" />
  <path d="M 225.23 56 L 225.23 96" stroke="#CBD5E1" stroke-width="1.5" fill="none" />
  <text x="210.23" y="80.9" font-size="14" font-family="Inter, system-ui, -apple-system, sans-serif" fill="#1E293B" text-anchor="middle" font-weight="bold">7</text>
  <circle cx="238.2256" cy="76" r="3" fill="#4A90D9" stroke="#4A90D9" stroke-width="1" />
  <path d="M 238.23 76 L 293.23 76" stroke="#4A90D9" stroke-width="1.5" fill="none" marker-end="url(#struct-arrow)" />
  <rect x="297.2256" y="56" width="30" height="40" fill="#F8FAFC" stroke="#CBD5E1" stroke-width="1.5" rx="4" />
  <rect x="327.2256" y="56" width="26" height="40" fill="#f1f3f5" stroke="#CBD5E1" stroke-width="1.5" rx="4" />
  <path d="M 327.23 56 L 327.23 96" stroke="#CBD5E1" stroke-width="1.5" fill="none" />
  <text x="312.23" y="80.9" font-size="14" font-family="Inter, system-ui, -apple-system, sans-serif" fill="#1E293B" text-anchor="middle" font-weight="bold">9</text>
  <circle cx="340.2256" cy="76" r="3" fill="#4A90D9" stroke="#4A90D9" stroke-width="1" />
  <path d="M 340.23 76 L 395.23 76" stroke="#4A90D9" stroke-width="1.5" fill="none" marker-end="url(#struct-arrow)" />
  <rect x="399.2256" y="56" width="33.6128" height="40" fill="#F8FAFC" stroke="#CBD5E1" stroke-width="1.5" rx="4" />
  <rect x="432.8384" y="56" width="26" height="40" fill="#f1f3f5" stroke="#CBD5E1" stroke-width="1.5" rx="4" />
  <path d="M 432.84 56 L 432.84 96" stroke="#CBD5E1" stroke-width="1.5" fill="none" />
  <text x="416.03" y="80.9" font-size="14" font-family="Inter, system-ui, -apple-system, sans-serif" fill="#1E293B" text-anchor="middle" font-weight="bold">12</text>
  <path d="M 432.84 96 L 458.84 56" stroke="#64748B" stroke-width="1.5" fill="none" />
</svg>