<svg xmlns="http://www.w3.org/2000/svg" viewBox="0 0 442 254" width="442" height="254">
  <defs>
    <marker id="struct-arrow" markerWidth="8" markerHeight="8" refX="7" refY="4" orient="auto"><path d="M0 0 L8 4 L0 8 z" fill="#64748B" /></marker>
  </defs>
  <rect width="100%" height="100%" fill="#FFFFFF" />
  <text x="24" y="42" font-size="18" font-family="Inter, system-ui, -apple-system, sans-serif" fill="#1E293B" font-weight="bold">heap page</text>
  <rect x="24" y="56" width="394" height="174" fill="#fbfbfd" stroke="#CBD5E1" stroke-width="1.5" rx="6" />
  <rect x="24" y="56" width="394" height="26" fill="#4A90D9" stroke="#4A90D9" stroke-width="0" rx="0" />
  <text x="36" y="73" font-size="11" font-family="Inter, system-ui, -apple-system, sans-serif" fill="#ffffff" font-weight="bold">PageHeader    freeStart →        ← freeEnd</text>
  <rect x="38" y="92" width="54" height="22" fill="#eef2ff" stroke="#4A90D9" stroke-width="1.5" rx="3" />
  <text x="65" y="107" font-size="11" font-family="Inter, system-ui, -apple-system, sans-serif" fill="#4A90D9" text-anchor="middle" font-weight="bold">slot0</text>
  <rect x="100" y="92" width="54" height="22" fill="#eef2ff" stroke="#4A90D9" stroke-width="1.5" rx="3" />
  <text x="127" y="107" font-size="11" font-family="Inter, system-ui, -apple-system, sans-serif" fill="#4A90D9" text-anchor="middle" font-weight="bold">slot1</text>
  <rect x="162" y="92" width="54" height="22" fill="#eef2ff" stroke="#4A90D9" stroke-width="1.5" rx="3" />
  <text x="189" y="107" font-size="11" font-family="Inter, system-ui, -apple-system, sans-serif" fill="#4A90D9" text-anchor="middle" font-weight="bold">slot2</text>
  <text x="221" y="152" font-size="14" font-family="Inter, system-ui, -apple-system, sans-serif" fill="#64748B" text-anchor="middle">free space</text>
  <rect x="38" y="188" width="110" height="28" fill="#F8FAFC" stroke="#CBD5E1" stroke-width="1.5" rx="3" />
  <text x="93" y="206.9" font-size="14" font-family="Inter, system-ui, -apple-system, sans-serif" fill="#1E293B" text-anchor="middle" font-weight="bold">(10,Ann)</text>
  <path d="M 65 114 L 93 188" stroke="#64748B" stroke-width="1.5" fill="none" marker-end="url(#struct-arrow)" />
  <rect x="166" y="188" width="110" height="28" fill="#F8FAFC" stroke="#CBD5E1" stroke-width="1.5" rx="3" />
  <text x="221" y="206.9" font-size="14" font-family="Inter, system-ui, -apple-system, sans-serif" fill="#1E293B" text-anchor="middle" font-weight="bold">(40,Bob)</text>
  <path d="M 127 114 L 221 188" stroke="#64748B" stroke-width="1.5" fill="none" marker-end="url(#struct-arrow)" />
  <rect x="294" y="188" width="110" height="28" fill="#F8FAFC" stroke="#CBD5E1" stroke-width="1.5" rx="3" />
  <text x="349" y="206.9" font-size="14" font-family="Inter, system-ui, -apple-system, sans-serif" fill="#1E293B" text-anchor="middle" font-weight="bold">(50,Cy)</text>
  <path d="M 189 114 L 349 188" stroke="#64748B" stroke-width="1.5" fill="none" marker-end="url(#struct-arrow)" />
</svg>