<svg xmlns="http://www.w3.org/2000/svg" viewBox="0 0 300 372" width="300" height="372">
  <rect x="0" y="0" width="300" height="372" fill="#FFFFFF" />
  <path d="M 134.36 66 L 95.64 118" stroke="#64748B" stroke-width="1.5" fill="none" />
  <path d="M 165.64 66 L 204.36 118" stroke="#64748B" stroke-width="1.5" fill="none" />
  <path d="M 72.18 160 L 52.82 212" stroke="#64748B" stroke-width="1.5" fill="none" />
  <path d="M 87.82 160 L 107.18 212" stroke="#64748B" stroke-width="1.5" fill="none" />
  <path d="M 45 254 L 45 306" stroke="#64748B" stroke-width="1.5" fill="none" />
  <path d="M 212.18 160 L 192.82 212" stroke="#64748B" stroke-width="1.5" fill="none" />
  <path d="M 227.82 160 L 247.18 212" stroke="#64748B" stroke-width="1.5" fill="none" />
  <circle cx="150" cy="45" r="21" fill="#F8FAFC" stroke="#1E293B" stroke-width="2" />
  <text x="150" y="49.9" font-size="14" font-family="Inter, system-ui, -apple-system, sans-serif" fill="#1E293B" text-anchor="middle" font-weight="bold">80</text>
  <circle cx="80" cy="139" r="21" fill="#F8FAFC" stroke="#1E293B" stroke-width="2" />
  <text x="80" y="143.9" font-size="14" font-family="Inter, system-ui, -apple-system, sans-serif" fill="#1E293B" text-anchor="middle" font-weight="bold">40</text>
  <circle cx="45" cy="233" r="21" fill="#F8FAFC" stroke="#1E293B" stroke-width="2" />
  <text x="45" y="237.9" font-size="14" font-family="Inter, system-ui, -apple-system, sans-serif" fill="#1E293B" text-anchor="middle" font-weight="bold">20</text>
  <circle cx="45" cy="327" r="21" fill="#F8FAFC" stroke="#1E293B" stroke-width="2" />
  <text x="45" y="331.9" font-size="14" font-family="Inter, system-ui, -apple-system, sans-serif" fill="#1E293B" text-anchor="middle" font-weight="bold">10</text>
  <circle cx="115" cy="233" r="21" fill="#F8FAFC" stroke="#1E293B" stroke-width="2" />
  <text x="115" y="237.9" font-size="14" font-family="Inter, system-ui, -apple-system, sans-serif" fill="#1E293B" text-anchor="middle" font-weight="bold">30</text>
  <circle cx="220" cy="139" r="21" fill="#F8FAFC" stroke="#1E293B" stroke-width="2" />
  <text x="220" y="143.9" font-size="14" font-family="Inter, system-ui, -apple-system, sans-serif" fill="#1E293B" text-anchor="middle" font-weight="bold">70</text>
  <circle cx="185" cy="233" r="21" fill="#F8FAFC" stroke="#1E293B" stroke-width="2" />
  <text x="185" y="237.9" font-size="14" font-family="Inter, system-ui, -apple-system, sans-serif" fill="#1E293B" text-anchor="middle" font-weight="bold">50</text>
  <circle cx="255" cy="233" r="21" fill="#F8FAFC" stroke="#1E293B" stroke-width="2" />
  <text x="255" y="237.9" font-size="14" font-family="Inter, system-ui, -apple-system, sans-serif" fill="#1E293B" text-anchor="middle" font-weight="bold">60</text>
</svg>