<svg xmlns="http://www.w3.org/2000/svg" viewBox="0 0 258.1904 348" width="258.1904" height="348">
  <rect x="0" y="0" width="258.1904" height="348" fill="#FFFFFF" />
  <path d="M 120.22 66 L 98.26 118" stroke="#64748B" stroke-width="1.5" fill="none" />
  <rect x="99.4236" y="83" width="19.633599999999998" height="16" fill="#FFFFFF" stroke="#FFFFFF" stroke-width="0" rx="3" />
  <text x="109.2404" y="95" font-size="11" font-family="Inter, system-ui, -apple-system, sans-serif" fill="#4A90D9" text-anchor="middle" font-weight="bold">ca</text>
  <path d="M 146.83 66 L 195.81 124" stroke="#64748B" stroke-width="1.5" fill="none" />
  <rect x="161.1879829787234" y="86" width="20.2672" height="16" fill="#FFFFFF" stroke="#FFFFFF" stroke-width="0" rx="3" />
  <text x="171.3215829787234" y="98" font-size="11" font-family="Inter, system-ui, -apple-system, sans-serif" fill="#4A90D9" text-anchor="middle" font-weight="bold">do</text>
  <path d="M 79.45 160 L 54.84 212" stroke="#64748B" stroke-width="1.5" fill="none" />
  <rect x="61.30670454545454" y="177" width="11.674" height="16" fill="#FFFFFF" stroke="#FFFFFF" stroke-width="0" rx="3" />
  <text x="67.14370454545454" y="189" font-size="11" font-family="Inter, system-ui, -apple-system, sans-serif" fill="#4A90D9" text-anchor="middle" font-weight="bold">t</text>
  <path d="M 98.39 160 L 120.69 212" stroke="#64748B" stroke-width="1.5" fill="none" />
  <rect x="103.7058318181818" y="177" width="11.674" height="16" fill="#FFFFFF" stroke="#FFFFFF" stroke-width="0" rx="3" />
  <text x="109.54283181818181" y="189" font-size="11" font-family="Inter, system-ui, -apple-system, sans-serif" fill="#4A90D9" text-anchor="middle" font-weight="bold">r</text>
  <path d="M 127.13 242 L 127.13 294" stroke="#64748B" stroke-width="1.5" fill="none" />
  <rect x="120.06" y="259" width="14.1336" height="16" fill="#FFFFFF" stroke="#FFFFFF" stroke-width="0" rx="3" />
  <text x="127.1268" y="271" font-size="11" font-family="Inter, system-ui, -apple-system, sans-serif" fill="#4A90D9" text-anchor="middle" font-weight="bold">d</text>
  <path d="M 208.48 154 L 208.48 212" stroke="#64748B" stroke-width="1.5" fill="none" />
  <rect x="201.414" y="174" width="14.1336" height="16" fill="#FFFFFF" stroke="#FFFFFF" stroke-width="0" rx="3" />
  <text x="208.4808" y="186" font-size="11" font-family="Inter, system-ui, -apple-system, sans-serif" fill="#4A90D9" text-anchor="middle" font-weight="bold">g</text>
  <circle cx="129.0952" cy="45" r="21" fill="#F8FAFC" stroke="#1E293B" stroke-width="2" />
  <text x="129.0952" y="49.9" font-size="14" font-family="Inter, system-ui, -apple-system, sans-serif" fill="#1E293B" text-anchor="middle" font-weight="bold"></text>
  <circle cx="89.3856" cy="139" r="21" fill="#F8FAFC" stroke="#1E293B" stroke-width="2" />
  <text x="89.3856" y="143.9" font-size="14" font-family="Inter, system-ui, -apple-system, sans-serif" fill="#1E293B" text-anchor="middle" font-weight="bold"></text>
  <rect x="24" y="212" width="47.4824" height="30" fill="#4A90D9" stroke="#4A90D9" stroke-width="2" rx="15" />
  <text x="47.7412" y="231.9" font-size="14" font-family="Inter, system-ui, -apple-system, sans-serif" fill="#000000" text-anchor="middle" font-weight="bold">cat</text>
  <rect x="103.38560000000001" y="212" width="47.4824" height="30" fill="#4A90D9" stroke="#4A90D9" stroke-width="2" rx="15" />
  <text x="127.1268" y="231.9" font-size="14" font-family="Inter, system-ui, -apple-system, sans-serif" fill="#000000" text-anchor="middle" font-weight="bold">car</text>
  <rect x="99.48240000000001" y="294" width="55.288799999999995" height="30" fill="#4A90D9" stroke="#4A90D9" stroke-width="2" rx="15" />
  <text x="127.1268" y="313.9" font-size="14" font-family="Inter, system-ui, -apple-system, sans-serif" fill="#000000" text-anchor="middle" font-weight="bold">card</text>
  <rect x="186.6744" y="124" width="43.6128" height="30" fill="#4A90D9" stroke="#4A90D9" stroke-width="2" rx="15" />
  <text x="208.4808" y="143.9" font-size="14" font-family="Inter, system-ui, -apple-system, sans-serif" fill="#000000" text-anchor="middle" font-weight="bold">do</text>
  <rect x="182.7712" y="212" width="51.419200000000004" height="30" fill="#4A90D9" stroke="#4A90D9" stroke-width="2" rx="15" />
  <text x="208.4808" y="231.9" font-size="14" font-family="Inter, system-ui, -apple-system, sans-serif" fill="#000000" text-anchor="middle" font-weight="bold">dog</text>
</svg>