<svg xmlns="http://www.w3.org/2000/svg" viewBox="0 0 647 624" width="647" height="624">
  <rect width="100%" height="100%" fill="#FFFFFF" />
  <text x="294" y="42" font-size="18" font-family="Georgia, &quot;Times New Roman&quot;, serif" fill="#111111" text-anchor="middle" font-weight="bold">Developer Profile Comparison</text>
  <path d="M 294 285 L 332.97 307.5 L 332.97 352.5 L 294 375 L 255.03 352.5 L 255.03 307.5 Z" stroke="#D6DEE8" stroke-width="1" fill="none" opacity="0.5" />
  <path d="M 294 240 L 371.94 285 L 371.94 375 L 294 420 L 216.06 375 L 216.06 285 Z" stroke="#D6DEE8" stroke-width="1" fill="none" opacity="0.5" />
  <path d="M 294 195 L 410.91 262.5 L 410.91 397.5 L 294 465 L 177.09 397.5 L 177.09 262.5 Z" stroke="#D6DEE8" stroke-width="1" fill="none" opacity="0.5" />
  <path d="M 294 150 L 449.88 240 L 449.88 420 L 294 510 L 138.12 420 L 138.12 240 Z" stroke="#D6DEE8" stroke-width="1" fill="none" opacity="0.5" />
  <path d="M 294 330 L 294 150" stroke="#D6DEE8" stroke-width="1" fill="none" opacity="0.6" />
  <text x="294" y="132.25" font-size="11" font-family="Georgia, &quot;Times New Roman&quot;, serif" fill="#111111" text-anchor="middle">Speed</text>
  <path d="M 294 330 L 449.88 240" stroke="#D6DEE8" stroke-width="1" fill="none" opacity="0.6" />
  <text x="468.59" y="233.05" font-size="11" font-family="Georgia, &quot;Times New Roman&quot;, serif" fill="#111111" text-anchor="start">Reliability</text>
  <path d="M 294 330 L 449.88 420" stroke="#D6DEE8" stroke-width="1" fill="none" opacity="0.6" />
  <text x="468.59" y="434.65" font-size="11" font-family="Georgia, &quot;Times New Roman&quot;, serif" fill="#111111" text-anchor="start">Communication</text>
  <path d="M 294 330 L 294 510" stroke="#D6DEE8" stroke-width="1" fill="none" opacity="0.6" />
  <text x="294" y="535.45" font-size="11" font-family="Georgia, &quot;Times New Roman&quot;, serif" fill="#111111" text-anchor="middle">Leadership</text>
  <path d="M 294 330 L 138.12 420" stroke="#D6DEE8" stroke-width="1" fill="none" opacity="0.6" />
  <text x="119.41" y="434.65" font-size="11" font-family="Georgia, &quot;Times New Roman&quot;, serif" fill="#111111" text-anchor="end">Debugging</text>
  <path d="M 294 330 L 138.12 240" stroke="#D6DEE8" stroke-width="1" fill="none" opacity="0.6" />
  <text x="119.41" y="233.05" font-size="11" font-family="Georgia, &quot;Times New Roman&quot;, serif" fill="#111111" text-anchor="end">Documentation</text>
  <path d="M 294 168 L 418.71 258 L 403.12 393 L 294 474 L 153.7 411 L 200.47 276 Z" stroke="#7C3AED" stroke-width="2" fill="#7C3AED" opacity="0.18" />
  <path d="M 294 168 L 418.71 258 L 403.12 393 L 294 474 L 153.7 411 L 200.47 276 Z" stroke="#7C3AED" stroke-width="2" fill="none" />
  <path d="M 294 222 L 371.94 285 L 371.94 375 L 294 384 L 200.47 384 L 231.65 294 Z" stroke="#0EA5A8" stroke-width="2" fill="#0EA5A8" opacity="0.18" />
  <path d="M 294 222 L 371.94 285 L 371.94 375 L 294 384 L 200.47 384 L 231.65 294 Z" stroke="#0EA5A8" stroke-width="2" fill="none" />
  <rect x="534" y="60" width="12" height="12" fill="#7C3AED" stroke="#7C3AED" stroke-width="0" rx="2" />
  <text x="554" y="70" font-size="14" font-family="Georgia, &quot;Times New Roman&quot;, serif" fill="#111111">Senior Dev</text>
  <rect x="534" y="84" width="12" height="12" fill="#0EA5A8" stroke="#0EA5A8" stroke-width="0" rx="2" />
  <text x="554" y="94" font-size="14" font-family="Georgia, &quot;Times New Roman&quot;, serif" fill="#111111">Junior Dev</text>
</svg>