<svg xmlns="http://www.w3.org/2000/svg" viewBox="0 0 524 366" width="524" height="366">
  <rect width="100%" height="100%" fill="#FFFFFF" />
  <text x="262" y="42" font-size="18" font-family="Georgia, &quot;Times New Roman&quot;, serif" fill="#111111" text-anchor="middle" font-weight="bold">Our Timeline</text>
  <text x="262" y="64" font-size="14" font-family="Georgia, &quot;Times New Roman&quot;, serif" fill="#555555" text-anchor="middle">Admissions journey</text>
  <path d="M 24 215 L 43 215 A 39 39 0 0 1 121 215 L 223 215 A 39 39 0 0 0 301 215 L 403 215 A 39 39 0 0 1 481 215 L 500 215" stroke="#D6DEE8" stroke-width="2" fill="none" />
  <circle cx="82" cy="176" r="4" fill="#1F497D" stroke="#FFFFFF" stroke-width="1.5" />
  <circle cx="262" cy="254" r="4" fill="#1F497D" stroke="#FFFFFF" stroke-width="1.5" />
  <circle cx="442" cy="176" r="4" fill="#1F497D" stroke="#FFFFFF" stroke-width="1.5" />
  <circle cx="82" cy="215" r="34" fill="#FFFFFF" stroke="#1F497D" stroke-width="3" />
  <text x="82" y="222" font-size="20" font-family="Georgia, &quot;Times New Roman&quot;, serif" fill="#1F497D" text-anchor="middle" font-weight="bold">01</text>
  <text x="82" y="263" font-size="11" font-family="Georgia, &quot;Times New Roman&quot;, serif" fill="#555555" text-anchor="middle">15th May 2021</text>
  <text x="82" y="281" font-size="14" font-family="Georgia, &quot;Times New Roman&quot;, serif" fill="#1F497D" text-anchor="middle" font-weight="bold">Application Deadline</text>
  <circle cx="262" cy="215" r="34" fill="#1F497D" stroke="#1F497D" stroke-width="3" />
  <text x="262" y="222" font-size="20" font-family="Georgia, &quot;Times New Roman&quot;, serif" fill="#FFFFFF" text-anchor="middle" font-weight="bold">02</text>
  <text x="262" y="167" font-size="11" font-family="Georgia, &quot;Times New Roman&quot;, serif" fill="#555555" text-anchor="middle">15th May 2021</text>
  <text x="262" y="150" font-size="14" font-family="Georgia, &quot;Times New Roman&quot;, serif" fill="#1F497D" text-anchor="middle" font-weight="bold">Qualifying Exam</text>
  <circle cx="442" cy="215" r="34" fill="#FFFFFF" stroke="#1F497D" stroke-width="3" />
  <text x="442" y="222" font-size="20" font-family="Georgia, &quot;Times New Roman&quot;, serif" fill="#1F497D" text-anchor="middle" font-weight="bold">03</text>
  <text x="442" y="263" font-size="11" font-family="Georgia, &quot;Times New Roman&quot;, serif" fill="#555555" text-anchor="middle">18th May 2021</text>
  <text x="442" y="281" font-size="14" font-family="Georgia, &quot;Times New Roman&quot;, serif" fill="#1F497D" text-anchor="middle" font-weight="bold">Training Starts</text>
</svg>