<?xml version="1.0" encoding="UTF-8"?>
<svg height="512" version="1.1" viewBox="0 0 1008 512" width="1008" xmlns="http://www.w3.org/2000/svg">
<defs>
  <linearGradient gradientUnits="userSpaceOnUse" id="fg-211-50-391-181-00bfff-e8f0ff" x1="211" x2="391" y1="50" y2="181">
    <stop offset="0%" stop-color="#00BFFF"/>
    <stop offset="100%" stop-color="#E8F0FF"/>
  </linearGradient>
  <linearGradient gradientUnits="userSpaceOnUse" id="fg-211-165-391-239-93c5fd-e8f0ff" x1="211" x2="391" y1="165" y2="239">
    <stop offset="0%" stop-color="#93C5FD"/>
    <stop offset="100%" stop-color="#E8F0FF"/>
  </linearGradient>
  <linearGradient gradientUnits="userSpaceOnUse" id="fg-211-284-391-284-38bdf8-e8f0ff" x1="211" x2="391" y1="284" y2="284">
    <stop offset="0%" stop-color="#38BDF8"/>
    <stop offset="100%" stop-color="#E8F0FF"/>
  </linearGradient>
  <linearGradient gradientUnits="userSpaceOnUse" id="fg-211-347-391-335-6cb4e4-e8f0ff" x1="211" x2="391" y1="347" y2="335">
    <stop offset="0%" stop-color="#6CB4E4"/>
    <stop offset="100%" stop-color="#E8F0FF"/>
  </linearGradient>
  <linearGradient gradientUnits="userSpaceOnUse" id="fg-211-106-598-112-00bfff-bae6fd" x1="211" x2="598" y1="106" y2="112">
    <stop offset="0%" stop-color="#00BFFF"/>
    <stop offset="100%" stop-color="#BAE6FD"/>
  </linearGradient>
  <linearGradient gradientUnits="userSpaceOnUse" id="fg-211-206-598-152-93c5fd-bae6fd" x1="211" x2="598" y1="206" y2="152">
    <stop offset="0%" stop-color="#93C5FD"/>
    <stop offset="100%" stop-color="#BAE6FD"/>
  </linearGradient>
  <linearGradient gradientUnits="userSpaceOnUse" id="fg-211-445-598-286-0ea5e9-7dd3fc" x1="211" x2="598" y1="445" y2="286">
    <stop offset="0%" stop-color="#0EA5E9"/>
    <stop offset="100%" stop-color="#7DD3FC"/>
  </linearGradient>
  <linearGradient gradientUnits="userSpaceOnUse" id="fg-211-237-598-368-93c5fd-2a7ab5" x1="211" x2="598" y1="237" y2="368">
    <stop offset="0%" stop-color="#93C5FD"/>
    <stop offset="100%" stop-color="#2A7AB5"/>
  </linearGradient>
  <linearGradient gradientUnits="userSpaceOnUse" id="fg-211-381-598-387-6cb4e4-2a7ab5" x1="211" x2="598" y1="381" y2="387">
    <stop offset="0%" stop-color="#6CB4E4"/>
    <stop offset="100%" stop-color="#2A7AB5"/>
  </linearGradient>
  <linearGradient gradientUnits="userSpaceOnUse" id="fg-418-177-598-197-e8f0ff-bae6fd" x1="418" x2="598" y1="177" y2="197">
    <stop offset="0%" stop-color="#E8F0FF"/>
    <stop offset="100%" stop-color="#BAE6FD"/>
  </linearGradient>
  <linearGradient gradientUnits="userSpaceOnUse" id="fg-418-223-598-408-e8f0ff-2a7ab5" x1="418" x2="598" y1="223" y2="408">
    <stop offset="0%" stop-color="#E8F0FF"/>
    <stop offset="100%" stop-color="#2A7AB5"/>
  </linearGradient>
  <linearGradient gradientUnits="userSpaceOnUse" id="fg-418-243-598-339-e8f0ff-7dd3fc" x1="418" x2="598" y1="243" y2="339">
    <stop offset="0%" stop-color="#E8F0FF"/>
    <stop offset="100%" stop-color="#7DD3FC"/>
  </linearGradient>
  <linearGradient gradientUnits="userSpaceOnUse" id="fg-625-98-805-189-bae6fd-00bfff" x1="625" x2="805" y1="98" y2="189">
    <stop offset="0%" stop-color="#BAE6FD"/>
    <stop offset="100%" stop-color="#00BFFF"/>
  </linearGradient>
  <linearGradient gradientUnits="userSpaceOnUse" id="fg-625-357-805-201-2a7ab5-00bfff" x1="625" x2="805" y1="357" y2="201">
    <stop offset="0%" stop-color="#2A7AB5"/>
    <stop offset="100%" stop-color="#00BFFF"/>
  </linearGradient>
  <linearGradient gradientUnits="userSpaceOnUse" id="fg-418-287-805-247-e8f0ff-00bfff" x1="418" x2="805" y1="287" y2="247">
    <stop offset="0%" stop-color="#E8F0FF"/>
    <stop offset="100%" stop-color="#00BFFF"/>
  </linearGradient>
  <linearGradient gradientUnits="userSpaceOnUse" id="fg-625-258-805-310-7dd3fc-00bfff" x1="625" x2="805" y1="258" y2="310">
    <stop offset="0%" stop-color="#7DD3FC"/>
    <stop offset="100%" stop-color="#00BFFF"/>
  </linearGradient>
</defs>

  <path d="M 211 17 C 271 17 331 148 391 148 L 391 214 C 331 214 271 83 211 83 Z" fill="url(#fg-211-50-391-181-00bfff-e8f0ff)" opacity="0.45" stroke="#00BFFF" stroke-width="0.8"/>
  <path d="M 211 140 C 271 140 331 214 391 214 L 391 263 C 331 263 271 189 211 189 Z" fill="url(#fg-211-165-391-239-93c5fd-e8f0ff)" opacity="0.45" stroke="#93C5FD" stroke-width="0.8"/>
  <path d="M 211 263 C 271 263 331 263 391 263 L 391 305 C 331 305 271 305 211 305 Z" fill="url(#fg-211-284-391-284-38bdf8-e8f0ff)" opacity="0.45" stroke="#38BDF8" stroke-width="0.8"/>
  <path d="M 211 317 C 271 317 331 305 391 305 L 391 365 C 331 365 271 377 211 377 Z" fill="url(#fg-211-347-391-335-6cb4e4-e8f0ff)" opacity="0.45" stroke="#6CB4E4" stroke-width="0.8"/>
  <path d="M 211 83 C 340 83 469 89 598 89 L 598 135 C 469 135 340 129 211 129 Z" fill="url(#fg-211-106-598-112-00bfff-bae6fd)" opacity="0.45" stroke="#00BFFF" stroke-width="0.8"/>
  <path d="M 211 189 C 340 189 469 135 598 135 L 598 168 C 469 168 340 222 211 222 Z" fill="url(#fg-211-206-598-152-93c5fd-bae6fd)" opacity="0.45" stroke="#93C5FD" stroke-width="0.8"/>
  <path d="M 211 395 C 340 395 469 236 598 236 L 598 336 C 469 336 340 495 211 495 Z" fill="url(#fg-211-445-598-286-0ea5e9-7dd3fc)" opacity="0.45" stroke="#0EA5E9" stroke-width="0.8"/>
  <path d="M 211 222 C 340 222 469 353 598 353 L 598 383 C 469 383 340 252 211 252 Z" fill="url(#fg-211-237-598-368-93c5fd-2a7ab5)" opacity="0.45" stroke="#93C5FD" stroke-width="0.8"/>
  <path d="M 211 377 C 340 377 469 383 598 383 L 598 390 C 469 390 340 384 211 384 Z" fill="url(#fg-211-381-598-387-6cb4e4-2a7ab5)" opacity="0.45" stroke="#6CB4E4" stroke-width="0.8"/>
  <path d="M 418 148 C 478 148 538 168 598 168 L 598 225 C 538 225 478 205 418 205 Z" fill="url(#fg-418-177-598-197-e8f0ff-bae6fd)" opacity="0.45" stroke="#E8F0FF" stroke-width="0.8"/>
  <path d="M 418 205 C 478 205 538 390 598 390 L 598 425 C 538 425 478 240 418 240 Z" fill="url(#fg-418-223-598-408-e8f0ff-2a7ab5)" opacity="0.45" stroke="#E8F0FF" stroke-width="0.8"/>
  <path d="M 418 240 C 478 240 538 336 598 336 L 598 341 C 538 341 478 245 418 245 Z" fill="url(#fg-418-243-598-339-e8f0ff-7dd3fc)" opacity="0.45" stroke="#E8F0FF" stroke-width="0.8"/>
  <path d="M 625 89 C 685 89 745 180 805 180 L 805 197 C 745 197 685 106 625 106 Z" fill="url(#fg-625-98-805-189-bae6fd-00bfff)" opacity="0.45" stroke="#BAE6FD" stroke-width="0.8"/>
  <path d="M 625 353 C 685 353 745 197 805 197 L 805 205 C 745 205 685 361 625 361 Z" fill="url(#fg-625-357-805-201-2a7ab5-00bfff)" opacity="0.45" stroke="#2A7AB5" stroke-width="0.8"/>
  <path d="M 418 245 C 547 245 676 205 805 205 L 805 288 C 676 288 547 328 418 328 Z" fill="url(#fg-418-287-805-247-e8f0ff-00bfff)" opacity="0.45" stroke="#E8F0FF" stroke-width="0.8"/>
  <path d="M 625 236 C 685 236 745 288 805 288 L 805 332 C 745 332 685 280 625 280 Z" fill="url(#fg-625-258-805-310-7dd3fc-00bfff)" opacity="0.45" stroke="#7DD3FC" stroke-width="0.8"/>
  <rect fill="#00BFFF" height="111" opacity="1" rx="3" width="27" x="184" y="17"/>
  <rect fill="#93C5FD" height="111" opacity="1" rx="3" width="27" x="184" y="140"/>
  <rect fill="#38BDF8" height="42" opacity="1" rx="3" width="27" x="184" y="263"/>
  <rect fill="#6CB4E4" height="66" opacity="1" rx="3" width="27" x="184" y="317"/>
  <rect fill="#0EA5E9" height="100" opacity="1" rx="3" width="27" x="184" y="395"/>
  <rect fill="#E8F0FF" height="217" opacity="1" rx="3" width="27" x="391" y="148"/>
  <rect fill="#BAE6FD" height="135" opacity="1" rx="3" width="27" x="598" y="89"/>
  <rect fill="#7DD3FC" height="105" opacity="1" rx="3" width="27" x="598" y="236"/>
  <rect fill="#2A7AB5" height="71" opacity="1" rx="3" width="27" x="598" y="353"/>
  <rect fill="#00BFFF" height="152" opacity="1" rx="3" width="27" x="805" y="180"/>
  <text dominant-baseline="middle" fill="#E8F0FF" font-family="JetBrains Mono, 'Courier New', 'Lucida Console', monospace" font-size="11" font-weight="600" text-anchor="end" x="176" y="73">Coal 7100</text>
  <text dominant-baseline="middle" fill="#E8F0FF" font-family="JetBrains Mono, 'Courier New', 'Lucida Console', monospace" font-size="11" font-weight="600" text-anchor="end" x="176" y="196">Natural Gas 7100</text>
  <text dominant-baseline="middle" fill="#E8F0FF" font-family="JetBrains Mono, 'Courier New', 'Lucida Console', monospace" font-size="11" font-weight="600" text-anchor="end" x="176" y="284">Nuclear 2700</text>
  <text dominant-baseline="middle" fill="#E8F0FF" font-family="JetBrains Mono, 'Courier New', 'Lucida Console', monospace" font-size="11" font-weight="600" text-anchor="end" x="176" y="350">Renewables 4220</text>
  <text dominant-baseline="middle" fill="#E8F0FF" font-family="JetBrains Mono, 'Courier New', 'Lucida Console', monospace" font-size="11" font-weight="600" text-anchor="end" x="176" y="445">Oil 6400</text>
  <text dominant-baseline="middle" fill="#E8F0FF" font-family="JetBrains Mono, 'Courier New', 'Lucida Console', monospace" font-size="11" font-weight="600" text-anchor="start" x="426" y="257">Electricity Generation 13800</text>
  <text dominant-baseline="middle" fill="#E8F0FF" font-family="JetBrains Mono, 'Courier New', 'Lucida Console', monospace" font-size="11" font-weight="600" text-anchor="start" x="633" y="157">Industry 8600</text>
  <text dominant-baseline="middle" fill="#E8F0FF" font-family="JetBrains Mono, 'Courier New', 'Lucida Console', monospace" font-size="11" font-weight="600" text-anchor="start" x="633" y="289">Transport 6710</text>
  <text dominant-baseline="middle" fill="#E8F0FF" font-family="JetBrains Mono, 'Courier New', 'Lucida Console', monospace" font-size="11" font-weight="600" text-anchor="start" x="633" y="389">Buildings 4520</text>
  <text dominant-baseline="middle" fill="#E8F0FF" font-family="JetBrains Mono, 'Courier New', 'Lucida Console', monospace" font-size="11" font-weight="600" text-anchor="start" x="840" y="256">Heat Losses 9680</text>
</svg>