<?xml version="1.0" encoding="UTF-8"?>
<svg height="560" version="1.1" viewBox="0 0 920 560" width="920" xmlns="http://www.w3.org/2000/svg">
  <rect fill="#1A2B47" height="560" width="920" x="0" y="0"/>
  <text dominant-baseline="alphabetic" fill="#E8F0FF" font-family="JetBrains Mono, 'Courier New', 'Lucida Console', monospace" font-size="18" font-weight="700" text-anchor="middle" x="460" y="42">Monthly Revenue vs Target 2026</text>
  <line opacity="0.9" stroke="#2A3F62" stroke-dasharray="4,4" stroke-width="1" x1="96" x2="876" y1="464" y2="464"/>
  <line opacity="0.9" stroke="#2A3F62" stroke-dasharray="4,4" stroke-width="1" x1="96" x2="876" y1="334.67" y2="334.67"/>
  <line opacity="0.9" stroke="#2A3F62" stroke-dasharray="4,4" stroke-width="1" x1="96" x2="876" y1="205.33" y2="205.33"/>
  <line opacity="0.9" stroke="#2A3F62" stroke-dasharray="4,4" stroke-width="1" x1="96" x2="876" y1="76" y2="76"/>
  <rect fill="#00BFFF" height="116.4" rx="3" stroke="#1A2B47" stroke-width="1.5" width="106.6" x="107.7" y="347.6"/>
  <rect fill="#00BFFF" height="168.13" rx="3" stroke="#1A2B47" stroke-width="1.5" width="106.6" x="237.7" y="295.87"/>
  <rect fill="#00BFFF" height="219.87" rx="3" stroke="#1A2B47" stroke-width="1.5" width="106.6" x="367.7" y="244.13"/>
  <rect fill="#00BFFF" height="200.47" rx="3" stroke="#1A2B47" stroke-width="1.5" width="106.6" x="497.7" y="263.53"/>
  <rect fill="#00BFFF" height="291" rx="3" stroke="#1A2B47" stroke-width="1.5" width="106.6" x="627.7" y="173"/>
  <rect fill="#00BFFF" height="336.27" rx="3" stroke="#1A2B47" stroke-width="1.5" width="106.6" x="757.7" y="127.73"/>
  <path d="M 161 334.67 L 291 302.33 L 421 270 L 551 257.07 L 681 205.33 L 811 140.67" fill="none" stroke="#E8F0FF" stroke-linecap="round" stroke-width="3.8"/>
  <circle cx="161" cy="334.67" fill="#E8F0FF" r="6" stroke="#1A2B47" stroke-width="1"/>
  <circle cx="291" cy="302.33" fill="#E8F0FF" r="6" stroke="#1A2B47" stroke-width="1"/>
  <circle cx="421" cy="270" fill="#E8F0FF" r="6" stroke="#1A2B47" stroke-width="1"/>
  <circle cx="551" cy="257.07" fill="#E8F0FF" r="6" stroke="#1A2B47" stroke-width="1"/>
  <circle cx="681" cy="205.33" fill="#E8F0FF" r="6" stroke="#1A2B47" stroke-width="1"/>
  <circle cx="811" cy="140.67" fill="#E8F0FF" r="6" stroke="#1A2B47" stroke-width="1"/>
  <line stroke="#E8F0FF" stroke-width="2.3" x1="96" x2="876" y1="464" y2="464"/>
  <line stroke="#E8F0FF" stroke-width="2.3" x1="161" x2="161" y1="464" y2="470"/>
  <text dominant-baseline="alphabetic" fill="#93C5FD" font-family="JetBrains Mono, 'Courier New', 'Lucida Console', monospace" font-size="9" font-weight="400" text-anchor="middle" x="161" y="483">Jan</text>
  <line stroke="#E8F0FF" stroke-width="2.3" x1="291" x2="291" y1="464" y2="470"/>
  <text dominant-baseline="alphabetic" fill="#93C5FD" font-family="JetBrains Mono, 'Courier New', 'Lucida Console', monospace" font-size="9" font-weight="400" text-anchor="middle" x="291" y="483">Feb</text>
  <line stroke="#E8F0FF" stroke-width="2.3" x1="421" x2="421" y1="464" y2="470"/>
  <text dominant-baseline="alphabetic" fill="#93C5FD" font-family="JetBrains Mono, 'Courier New', 'Lucida Console', monospace" font-size="9" font-weight="400" text-anchor="middle" x="421" y="483">Mar</text>
  <line stroke="#E8F0FF" stroke-width="2.3" x1="551" x2="551" y1="464" y2="470"/>
  <text dominant-baseline="alphabetic" fill="#93C5FD" font-family="JetBrains Mono, 'Courier New', 'Lucida Console', monospace" font-size="9" font-weight="400" text-anchor="middle" x="551" y="483">Apr</text>
  <line stroke="#E8F0FF" stroke-width="2.3" x1="681" x2="681" y1="464" y2="470"/>
  <text dominant-baseline="alphabetic" fill="#93C5FD" font-family="JetBrains Mono, 'Courier New', 'Lucida Console', monospace" font-size="9" font-weight="400" text-anchor="middle" x="681" y="483">May</text>
  <line stroke="#E8F0FF" stroke-width="2.3" x1="811" x2="811" y1="464" y2="470"/>
  <text dominant-baseline="alphabetic" fill="#93C5FD" font-family="JetBrains Mono, 'Courier New', 'Lucida Console', monospace" font-size="9" font-weight="400" text-anchor="middle" x="811" y="483">Jun</text>
  <line stroke="#E8F0FF" stroke-width="2.3" x1="96" x2="96" y1="76" y2="464"/>
  <line stroke="#E8F0FF" stroke-width="2.3" x1="90" x2="96" y1="464" y2="464"/>
  <text dominant-baseline="middle" fill="#93C5FD" font-family="JetBrains Mono, 'Courier New', 'Lucida Console', monospace" font-size="9" font-weight="400" text-anchor="end" x="84" y="464">0</text>
  <line stroke="#E8F0FF" stroke-width="2.3" x1="90" x2="96" y1="334.67" y2="334.67"/>
  <text dominant-baseline="middle" fill="#93C5FD" font-family="JetBrains Mono, 'Courier New', 'Lucida Console', monospace" font-size="9" font-weight="400" text-anchor="end" x="84" y="334.67">2000</text>
  <line stroke="#E8F0FF" stroke-width="2.3" x1="90" x2="96" y1="205.33" y2="205.33"/>
  <text dominant-baseline="middle" fill="#93C5FD" font-family="JetBrains Mono, 'Courier New', 'Lucida Console', monospace" font-size="9" font-weight="400" text-anchor="end" x="84" y="205.33">4000</text>
  <line stroke="#E8F0FF" stroke-width="2.3" x1="90" x2="96" y1="76" y2="76"/>
  <text dominant-baseline="middle" fill="#93C5FD" font-family="JetBrains Mono, 'Courier New', 'Lucida Console', monospace" font-size="9" font-weight="400" text-anchor="end" x="84" y="76">6000</text>
  <text dominant-baseline="alphabetic" fill="#E8F0FF" font-family="JetBrains Mono, 'Courier New', 'Lucida Console', monospace" font-size="11" font-weight="600" text-anchor="start" x="96" y="66">Revenue (USD k)</text>
  <rect fill="#00BFFF" height="12" rx="2" stroke="#1A2B47" stroke-width="1" width="12" x="766" y="86"/>
  <text dominant-baseline="middle" fill="#93C5FD" font-family="JetBrains Mono, 'Courier New', 'Lucida Console', monospace" font-size="9" font-weight="400" text-anchor="start" x="786" y="93">bar 0</text>
  <rect fill="#E8F0FF" height="12" rx="2" stroke="#1A2B47" stroke-width="1" width="12" x="766" y="110"/>
  <text dominant-baseline="middle" fill="#93C5FD" font-family="JetBrains Mono, 'Courier New', 'Lucida Console', monospace" font-size="9" font-weight="400" text-anchor="start" x="786" y="117">line 0</text>
</svg>