<?xml version="1.0" encoding="UTF-8"?>
<svg height="400" version="1.1" viewBox="0 0 1104 400" width="1104" xmlns="http://www.w3.org/2000/svg">
  <line opacity="1" stroke="#00BFFF" stroke-width="4.5" x1="206" x2="1034" y1="68" y2="68"/>
  <line opacity="1" stroke="#E8F0FF" stroke-width="4.5" x1="298" x2="850" y1="156" y2="156"/>
  <line opacity="1" stroke="#93C5FD" stroke-width="4.5" x1="482" x2="574" y1="244" y2="244"/>
  <line opacity="1" stroke="#38BDF8" stroke-width="4.5" x1="758" x2="758" y1="332" y2="332"/>
  <path d="M 206 68 C 206 112 298 112 298 156" fill="none" opacity="1" stroke="#E8F0FF" stroke-linecap="round" stroke-width="4.5"/>
  <path d="M 390 156 C 390 200 482 200 482 244" fill="none" opacity="1" stroke="#93C5FD" stroke-linecap="round" stroke-width="4.5"/>
  <path d="M 666 156 C 666 244 758 244 758 332" fill="none" opacity="1" stroke="#38BDF8" stroke-linecap="round" stroke-width="4.5"/>
  <path d="M 574 244 C 574 200 666 200 666 156" fill="none" opacity="1" stroke="#93C5FD" stroke-linecap="round" stroke-width="4.5"/>
  <path d="M 758 332 C 758 244 850 244 850 156" fill="none" opacity="1" stroke="#38BDF8" stroke-linecap="round" stroke-width="4.5"/>
  <path d="M 850 156 C 850 112 942 112 942 68" fill="none" opacity="1" stroke="#E8F0FF" stroke-linecap="round" stroke-width="4.5"/>
  <circle cx="206" cy="68" fill="#00BFFF" r="12" stroke="#00BFFF" stroke-width="3"/>
  <circle cx="298" cy="156" fill="#E8F0FF" r="12" stroke="#E8F0FF" stroke-width="3"/>
  <circle cx="390" cy="156" fill="#E8F0FF" r="12" stroke="#E8F0FF" stroke-width="3"/>
  <circle cx="482" cy="244" fill="#93C5FD" r="12" stroke="#93C5FD" stroke-width="3"/>
  <circle cx="574" cy="244" fill="#93C5FD" r="12" stroke="#93C5FD" stroke-width="3"/>
  <circle cx="666" cy="156" fill="#1A2B47" r="12" stroke="#E8F0FF" stroke-width="5"/>
  <circle cx="758" cy="332" fill="#38BDF8" r="12" stroke="#38BDF8" stroke-width="3"/>
  <circle cx="850" cy="156" fill="#1A2B47" r="12" stroke="#E8F0FF" stroke-width="5"/>
  <circle cx="942" cy="68" fill="#1A2B47" r="12" stroke="#00BFFF" stroke-width="5"/>
  <rect fill="#00BFFF" height="26" rx="2" stroke="#00BFFF" stroke-width="3" width="26" x="1021" y="55"/>
  <rect fill="#00BFFF" height="21" rx="11" width="48" x="68" y="58"/>
  <text dominant-baseline="middle" fill="#ffffff" font-family="JetBrains Mono, 'Courier New', 'Lucida Console', monospace" font-size="11" font-weight="700" text-anchor="middle" x="92" y="68">main</text>
  <rect fill="#E8F0FF" height="21" rx="11" width="63" x="61" y="146"/>
  <text dominant-baseline="middle" fill="#ffffff" font-family="JetBrains Mono, 'Courier New', 'Lucida Console', monospace" font-size="11" font-weight="700" text-anchor="middle" x="93" y="156">develop</text>
  <rect fill="#93C5FD" height="21" rx="11" width="84" x="50" y="234"/>
  <text dominant-baseline="middle" fill="#ffffff" font-family="JetBrains Mono, 'Courier New', 'Lucida Console', monospace" font-size="11" font-weight="700" text-anchor="middle" x="92" y="244">feature/auth</text>
  <rect fill="#38BDF8" height="21" rx="11" width="111" x="37" y="322"/>
  <text dominant-baseline="middle" fill="#ffffff" font-family="JetBrains Mono, 'Courier New', 'Lucida Console', monospace" font-size="11" font-weight="700" text-anchor="middle" x="93" y="332">feature/payments</text>
  <text dominant-baseline="alphabetic" fill="#93C5FD" font-family="JetBrains Mono, 'Courier New', 'Lucida Console', monospace" font-size="9" font-weight="500" text-anchor="middle" x="206" y="92">initial</text>
  <path d="M 203 40 L 196 40 Q 192 40 192 36 L 192 29 Q 192 25 196 25 L 217 25 Q 221 25 221 29 L 221 36 Q 221 40 217 40 L 209 40 L 206 46 Z" fill="#1E3159" stroke="#3A5482" stroke-width="1"/>
  <text dominant-baseline="middle" fill="#E8F0FF" font-family="JetBrains Mono, 'Courier New', 'Lucida Console', monospace" font-size="7" font-weight="700" text-anchor="middle" x="206" y="33">v0.1</text>
  <text dominant-baseline="alphabetic" fill="#93C5FD" font-family="JetBrains Mono, 'Courier New', 'Lucida Console', monospace" font-size="9" font-weight="500" text-anchor="middle" x="298" y="180">setup-ci</text>
  <text dominant-baseline="alphabetic" fill="#93C5FD" font-family="JetBrains Mono, 'Courier New', 'Lucida Console', monospace" font-size="9" font-weight="500" text-anchor="middle" x="390" y="180">add-tests</text>
  <text dominant-baseline="alphabetic" fill="#93C5FD" font-family="JetBrains Mono, 'Courier New', 'Lucida Console', monospace" font-size="9" font-weight="500" text-anchor="middle" x="482" y="268">auth-model</text>
  <text dominant-baseline="alphabetic" fill="#93C5FD" font-family="JetBrains Mono, 'Courier New', 'Lucida Console', monospace" font-size="9" font-weight="500" text-anchor="middle" x="574" y="268">auth-api</text>
  <text dominant-baseline="alphabetic" fill="#93C5FD" font-family="JetBrains Mono, 'Courier New', 'Lucida Console', monospace" font-size="9" font-weight="500" text-anchor="middle" x="666" y="180">merge-auth</text>
  <text dominant-baseline="alphabetic" fill="#93C5FD" font-family="JetBrains Mono, 'Courier New', 'Lucida Console', monospace" font-size="9" font-weight="500" text-anchor="middle" x="758" y="356">payment-model</text>
  <text dominant-baseline="alphabetic" fill="#93C5FD" font-family="JetBrains Mono, 'Courier New', 'Lucida Console', monospace" font-size="9" font-weight="500" text-anchor="middle" x="850" y="180">merge-payments</text>
  <text dominant-baseline="alphabetic" fill="#93C5FD" font-family="JetBrains Mono, 'Courier New', 'Lucida Console', monospace" font-size="9" font-weight="500" text-anchor="middle" x="942" y="92">release-1.0</text>
  <path d="M 939 40 L 932 40 Q 928 40 928 36 L 928 29 Q 928 25 932 25 L 953 25 Q 957 25 957 29 L 957 36 Q 957 40 953 40 L 945 40 L 942 46 Z" fill="#1E3159" stroke="#3A5482" stroke-width="1"/>
  <text dominant-baseline="middle" fill="#E8F0FF" font-family="JetBrains Mono, 'Courier New', 'Lucida Console', monospace" font-size="7" font-weight="700" text-anchor="middle" x="942" y="33">v1.0</text>
  <text dominant-baseline="alphabetic" fill="#93C5FD" font-family="JetBrains Mono, 'Courier New', 'Lucida Console', monospace" font-size="9" font-weight="500" text-anchor="middle" x="1034" y="92">hotfix-typo</text>
</svg>