<?xml version="1.0" encoding="UTF-8"?>
<svg height="162" version="1.1" viewBox="0 0 921 162" width="921" xmlns="http://www.w3.org/2000/svg">
  <rect fill="#FFFFFF" height="162" width="921" x="0" y="0"/>
  <path d="M 159 74 L 190 74 L 190 74 L 213 74" fill="none" stroke="#E2E8F0" stroke-width="1.5"/>
  <path d="M 340 74 L 371 74 L 371 98 L 394 98" fill="none" stroke="#E2E8F0" stroke-width="1.5"/>
  <path d="M 340 74 L 370 74 L 370 49 L 393 49" fill="none" stroke="#E2E8F0" stroke-width="1.5"/>
  <path d="M 521 98 L 552 98 L 552 49 L 575 49" fill="none" stroke="#E2E8F0" stroke-width="1.5"/>
  <path d="M 521 98 L 549 98 L 549 98 L 569 98" fill="none" stroke="#E2E8F0" stroke-width="1.5"/>
  <path d="M 702 49 L 730 49 L 730 74 L 751 74" fill="none" stroke="#E2E8F0" stroke-width="1.5"/>
  <rect fill="#F8F9FA" height="33" rx="17" stroke="#1F497D" stroke-width="1.5" width="120" x="39" y="57"/>
  <text dominant-baseline="central" fill="#1E293B" font-family="Georgia, 'Times New Roman', serif" font-size="12" font-weight="600" text-anchor="middle" x="99" y="74">Code Push</text>
  <rect fill="#F8F9FA" height="33" rx="0" stroke="#1F497D" stroke-width="1.5" width="120" x="220" y="57"/>
  <text dominant-baseline="central" fill="#1E293B" font-family="Georgia, 'Times New Roman', serif" font-size="12" font-weight="600" text-anchor="middle" x="280" y="74">Lint</text>
  <rect fill="#F8F9FA" height="33" rx="0" stroke="#1F497D" stroke-width="1.5" width="123" x="400" y="32"/>
  <text dominant-baseline="central" fill="#1E293B" font-family="Georgia, 'Times New Roman', serif" font-size="12" font-weight="600" text-anchor="middle" x="461" y="49">Notify Lint Failed</text>
  <rect fill="#F8F9FA" height="33" rx="0" stroke="#1F497D" stroke-width="1.5" width="120" x="401" y="81"/>
  <text dominant-baseline="central" fill="#1E293B" font-family="Georgia, 'Times New Roman', serif" font-size="12" font-weight="600" text-anchor="middle" x="461" y="98">Unit Tests</text>
  <rect fill="#F8F9FA" height="33" rx="0" stroke="#1F497D" stroke-width="1.5" width="120" x="582" y="32"/>
  <text dominant-baseline="central" fill="#1E293B" font-family="Georgia, 'Times New Roman', serif" font-size="12" font-weight="600" text-anchor="middle" x="642" y="49">Docker Build</text>
  <rect fill="#F8F9FA" height="33" rx="0" stroke="#1F497D" stroke-width="1.5" width="133" x="576" y="81"/>
  <text dominant-baseline="central" fill="#1E293B" font-family="Georgia, 'Times New Roman', serif" font-size="12" font-weight="600" text-anchor="middle" x="642" y="98">Notify Tests Failed</text>
  <rect fill="#F8F9FA" height="33" rx="17" stroke="#1F497D" stroke-width="1.5" width="131" x="758" y="57"/>
  <text dominant-baseline="central" fill="#1E293B" font-family="Georgia, 'Times New Roman', serif" font-size="12" font-weight="600" text-anchor="middle" x="823" y="74">Deploy Production</text>
  <path d="M 220 74 L 213 70 L 213 78 Z" fill="#64748B" stroke="none" stroke-width="0"/>
  <path d="M 401 98 L 394 94 L 394 102 Z" fill="#64748B" stroke="none" stroke-width="0"/>
  <path d="M 400 49 L 393 45 L 393 53 Z" fill="#64748B" stroke="none" stroke-width="0"/>
  <path d="M 582 49 L 575 45 L 575 53 Z" fill="#64748B" stroke="none" stroke-width="0"/>
  <path d="M 576 98 L 569 94 L 569 102 Z" fill="#64748B" stroke="none" stroke-width="0"/>
  <path d="M 758 74 L 751 70 L 751 78 Z" fill="#64748B" stroke="none" stroke-width="0"/>
  <text dominant-baseline="auto" fill="#64748B" font-family="Georgia, 'Times New Roman', serif" font-size="10" font-weight="400" text-anchor="middle" x="371" y="78">pass</text>
  <text dominant-baseline="auto" fill="#64748B" font-family="Georgia, 'Times New Roman', serif" font-size="10" font-weight="400" text-anchor="middle" x="370" y="54">fail</text>
  <text dominant-baseline="auto" fill="#64748B" font-family="Georgia, 'Times New Roman', serif" font-size="10" font-weight="400" text-anchor="middle" x="552" y="66">pass</text>
  <text dominant-baseline="auto" fill="#64748B" font-family="Georgia, 'Times New Roman', serif" font-size="10" font-weight="400" text-anchor="middle" x="549" y="90">fail</text>
</svg>