<?xml version="1.0" encoding="UTF-8"?>
<svg height="600" version="1.1" viewBox="0 0 920 600" width="920" xmlns="http://www.w3.org/2000/svg">
  <rect fill="#FAF6EF" height="600" width="920" x="0" y="0"/>
  <text dominant-baseline="alphabetic" fill="#1A1208" font-family="Lora, Georgia, 'Times New Roman', serif" font-size="22" font-weight="700" text-anchor="middle" x="460" y="62">Monthly Revenue vs Target 2026</text>
  <line opacity="0.9" stroke="#D9CFC0" stroke-dasharray="4,4" stroke-width="1" x1="124" x2="860" y1="488" y2="488"/>
  <line opacity="0.9" stroke="#D9CFC0" stroke-dasharray="4,4" stroke-width="1" x1="124" x2="860" y1="357.33" y2="357.33"/>
  <line opacity="0.9" stroke="#D9CFC0" stroke-dasharray="4,4" stroke-width="1" x1="124" x2="860" y1="226.67" y2="226.67"/>
  <line opacity="0.9" stroke="#D9CFC0" stroke-dasharray="4,4" stroke-width="1" x1="124" x2="860" y1="96" y2="96"/>
  <rect fill="#8B2635" height="117.6" rx="3" stroke="#FAF6EF" stroke-width="0.9" width="100.59" x="135.04" y="370.4"/>
  <rect fill="#8B2635" height="169.87" rx="3" stroke="#FAF6EF" stroke-width="0.9" width="100.59" x="257.71" y="318.13"/>
  <rect fill="#8B2635" height="222.13" rx="3" stroke="#FAF6EF" stroke-width="0.9" width="100.59" x="380.37" y="265.87"/>
  <rect fill="#8B2635" height="202.53" rx="3" stroke="#FAF6EF" stroke-width="0.9" width="100.59" x="503.04" y="285.47"/>
  <rect fill="#8B2635" height="294" rx="3" stroke="#FAF6EF" stroke-width="0.9" width="100.59" x="625.71" y="194"/>
  <rect fill="#8B2635" height="339.73" rx="3" stroke="#FAF6EF" stroke-width="0.9" width="100.59" x="748.37" y="148.27"/>
  <path d="M 185.33 357.33 L 308 324.67 L 430.67 292 L 553.33 278.93 L 676 226.67 L 798.67 161.33" fill="none" stroke="#4A7C59" stroke-linecap="round" stroke-width="2.3"/>
  <circle cx="185.33" cy="357.33" fill="#4A7C59" r="4" stroke="#FAF6EF" stroke-width="1"/>
  <circle cx="308" cy="324.67" fill="#4A7C59" r="4" stroke="#FAF6EF" stroke-width="1"/>
  <circle cx="430.67" cy="292" fill="#4A7C59" r="4" stroke="#FAF6EF" stroke-width="1"/>
  <circle cx="553.33" cy="278.93" fill="#4A7C59" r="4" stroke="#FAF6EF" stroke-width="1"/>
  <circle cx="676" cy="226.67" fill="#4A7C59" r="4" stroke="#FAF6EF" stroke-width="1"/>
  <circle cx="798.67" cy="161.33" fill="#4A7C59" r="4" stroke="#FAF6EF" stroke-width="1"/>
  <line stroke="#1A1208" stroke-width="1.4" x1="124" x2="860" y1="488" y2="488"/>
  <line stroke="#1A1208" stroke-width="1.4" x1="185.33" x2="185.33" y1="488" y2="494"/>
  <text dominant-baseline="alphabetic" fill="#8B7355" font-family="Lora, Georgia, 'Times New Roman', serif" font-size="10" font-weight="400" text-anchor="middle" x="185.33" y="508">Jan</text>
  <line stroke="#1A1208" stroke-width="1.4" x1="308" x2="308" y1="488" y2="494"/>
  <text dominant-baseline="alphabetic" fill="#8B7355" font-family="Lora, Georgia, 'Times New Roman', serif" font-size="10" font-weight="400" text-anchor="middle" x="308" y="508">Feb</text>
  <line stroke="#1A1208" stroke-width="1.4" x1="430.67" x2="430.67" y1="488" y2="494"/>
  <text dominant-baseline="alphabetic" fill="#8B7355" font-family="Lora, Georgia, 'Times New Roman', serif" font-size="10" font-weight="400" text-anchor="middle" x="430.67" y="508">Mar</text>
  <line stroke="#1A1208" stroke-width="1.4" x1="553.33" x2="553.33" y1="488" y2="494"/>
  <text dominant-baseline="alphabetic" fill="#8B7355" font-family="Lora, Georgia, 'Times New Roman', serif" font-size="10" font-weight="400" text-anchor="middle" x="553.33" y="508">Apr</text>
  <line stroke="#1A1208" stroke-width="1.4" x1="676" x2="676" y1="488" y2="494"/>
  <text dominant-baseline="alphabetic" fill="#8B7355" font-family="Lora, Georgia, 'Times New Roman', serif" font-size="10" font-weight="400" text-anchor="middle" x="676" y="508">May</text>
  <line stroke="#1A1208" stroke-width="1.4" x1="798.67" x2="798.67" y1="488" y2="494"/>
  <text dominant-baseline="alphabetic" fill="#8B7355" font-family="Lora, Georgia, 'Times New Roman', serif" font-size="10" font-weight="400" text-anchor="middle" x="798.67" y="508">Jun</text>
  <line stroke="#1A1208" stroke-width="1.4" x1="124" x2="124" y1="96" y2="488"/>
  <line stroke="#1A1208" stroke-width="1.4" x1="118" x2="124" y1="488" y2="488"/>
  <text dominant-baseline="middle" fill="#8B7355" font-family="Lora, Georgia, 'Times New Roman', serif" font-size="10" font-weight="400" text-anchor="end" x="112" y="488">0</text>
  <line stroke="#1A1208" stroke-width="1.4" x1="118" x2="124" y1="357.33" y2="357.33"/>
  <text dominant-baseline="middle" fill="#8B7355" font-family="Lora, Georgia, 'Times New Roman', serif" font-size="10" font-weight="400" text-anchor="end" x="112" y="357.33">2000</text>
  <line stroke="#1A1208" stroke-width="1.4" x1="118" x2="124" y1="226.67" y2="226.67"/>
  <text dominant-baseline="middle" fill="#8B7355" font-family="Lora, Georgia, 'Times New Roman', serif" font-size="10" font-weight="400" text-anchor="end" x="112" y="226.67">4000</text>
  <line stroke="#1A1208" stroke-width="1.4" x1="118" x2="124" y1="96" y2="96"/>
  <text dominant-baseline="middle" fill="#8B7355" font-family="Lora, Georgia, 'Times New Roman', serif" font-size="10" font-weight="400" text-anchor="end" x="112" y="96">6000</text>
  <text dominant-baseline="alphabetic" fill="#1A1208" font-family="Lora, Georgia, 'Times New Roman', serif" font-size="12" font-weight="600" text-anchor="start" x="124" y="86">Revenue (USD k)</text>
  <rect fill="#8B2635" height="16" rx="2" stroke="#FAF6EF" stroke-width="1" width="16" x="750" y="106"/>
  <text dominant-baseline="middle" fill="#8B7355" font-family="Lora, Georgia, 'Times New Roman', serif" font-size="10" font-weight="400" text-anchor="start" x="774" y="115">bar 0</text>
  <rect fill="#4A7C59" height="16" rx="2" stroke="#FAF6EF" stroke-width="1" width="16" x="750" y="134"/>
  <text dominant-baseline="middle" fill="#8B7355" font-family="Lora, Georgia, 'Times New Roman', serif" font-size="10" font-weight="400" text-anchor="start" x="774" y="143">line 0</text>
</svg>