<?xml version="1.0" encoding="UTF-8"?>
<svg height="580" version="1.1" viewBox="0 0 1040 580" width="1040" xmlns="http://www.w3.org/2000/svg">
<defs>
  <linearGradient gradientUnits="userSpaceOnUse" id="fg-204-76-404-218-8b2635-4a7c59" x1="204" x2="404" y1="76" y2="218">
    <stop offset="0%" stop-color="#8B2635"/>
    <stop offset="100%" stop-color="#4A7C59"/>
  </linearGradient>
  <linearGradient gradientUnits="userSpaceOnUse" id="fg-204-201-404-281-b87333-4a7c59" x1="204" x2="404" y1="201" y2="281">
    <stop offset="0%" stop-color="#B87333"/>
    <stop offset="100%" stop-color="#4A7C59"/>
  </linearGradient>
  <linearGradient gradientUnits="userSpaceOnUse" id="fg-204-331-404-330-4a5a6b-4a7c59" x1="204" x2="404" y1="331" y2="330">
    <stop offset="0%" stop-color="#4A5A6B"/>
    <stop offset="100%" stop-color="#4A7C59"/>
  </linearGradient>
  <linearGradient gradientUnits="userSpaceOnUse" id="fg-204-399-404-386-7b5e3a-4a7c59" x1="204" x2="404" y1="399" y2="386">
    <stop offset="0%" stop-color="#7B5E3A"/>
    <stop offset="100%" stop-color="#4A7C59"/>
  </linearGradient>
  <linearGradient gradientUnits="userSpaceOnUse" id="fg-204-137-620-143-8b2635-8b5cf6" x1="204" x2="620" y1="137" y2="143">
    <stop offset="0%" stop-color="#8B2635"/>
    <stop offset="100%" stop-color="#8B5CF6"/>
  </linearGradient>
  <linearGradient gradientUnits="userSpaceOnUse" id="fg-204-245-620-186-b87333-8b5cf6" x1="204" x2="620" y1="245" y2="186">
    <stop offset="0%" stop-color="#B87333"/>
    <stop offset="100%" stop-color="#8B5CF6"/>
  </linearGradient>
  <linearGradient gradientUnits="userSpaceOnUse" id="fg-204-505-620-333-2d6a3f-9c6b3c" x1="204" x2="620" y1="505" y2="333">
    <stop offset="0%" stop-color="#2D6A3F"/>
    <stop offset="100%" stop-color="#9C6B3C"/>
  </linearGradient>
  <linearGradient gradientUnits="userSpaceOnUse" id="fg-204-280-620-422-b87333-b5606f" x1="204" x2="620" y1="280" y2="422">
    <stop offset="0%" stop-color="#B87333"/>
    <stop offset="100%" stop-color="#B5606F"/>
  </linearGradient>
  <linearGradient gradientUnits="userSpaceOnUse" id="fg-204-435-620-442-7b5e3a-b5606f" x1="204" x2="620" y1="435" y2="442">
    <stop offset="0%" stop-color="#7B5E3A"/>
    <stop offset="100%" stop-color="#B5606F"/>
  </linearGradient>
  <linearGradient gradientUnits="userSpaceOnUse" id="fg-420-213-620-235-4a7c59-8b5cf6" x1="420" x2="620" y1="213" y2="235">
    <stop offset="0%" stop-color="#4A7C59"/>
    <stop offset="100%" stop-color="#8B5CF6"/>
  </linearGradient>
  <linearGradient gradientUnits="userSpaceOnUse" id="fg-420-263-620-464-4a7c59-b5606f" x1="420" x2="620" y1="263" y2="464">
    <stop offset="0%" stop-color="#4A7C59"/>
    <stop offset="100%" stop-color="#B5606F"/>
  </linearGradient>
  <linearGradient gradientUnits="userSpaceOnUse" id="fg-420-285-620-391-4a7c59-9c6b3c" x1="420" x2="620" y1="285" y2="391">
    <stop offset="0%" stop-color="#4A7C59"/>
    <stop offset="100%" stop-color="#9C6B3C"/>
  </linearGradient>
  <linearGradient gradientUnits="userSpaceOnUse" id="fg-636-128-836-227-8b5cf6-8b2635" x1="636" x2="836" y1="128" y2="227">
    <stop offset="0%" stop-color="#8B5CF6"/>
    <stop offset="100%" stop-color="#8B2635"/>
  </linearGradient>
  <linearGradient gradientUnits="userSpaceOnUse" id="fg-636-409-836-240-b5606f-8b2635" x1="636" x2="836" y1="409" y2="240">
    <stop offset="0%" stop-color="#B5606F"/>
    <stop offset="100%" stop-color="#8B2635"/>
  </linearGradient>
  <linearGradient gradientUnits="userSpaceOnUse" id="fg-420-333-836-290-4a7c59-8b2635" x1="420" x2="836" y1="333" y2="290">
    <stop offset="0%" stop-color="#4A7C59"/>
    <stop offset="100%" stop-color="#8B2635"/>
  </linearGradient>
  <linearGradient gradientUnits="userSpaceOnUse" id="fg-636-302-836-359-9c6b3c-8b2635" x1="636" x2="836" y1="302" y2="359">
    <stop offset="0%" stop-color="#9C6B3C"/>
    <stop offset="100%" stop-color="#8B2635"/>
  </linearGradient>
</defs>

  <path d="M 204 40 C 271 40 337 182 404 182 L 404 254 C 337 254 271 112 204 112 Z" fill="url(#fg-204-76-404-218-8b2635-4a7c59)" opacity="0.45" stroke="#8B2635" stroke-width="0.5"/>
  <path d="M 204 174 C 271 174 337 254 404 254 L 404 307 C 337 307 271 227 204 227 Z" fill="url(#fg-204-201-404-281-b87333-4a7c59)" opacity="0.45" stroke="#B87333" stroke-width="0.5"/>
  <path d="M 204 308 C 271 308 337 307 404 307 L 404 353 C 337 353 271 354 204 354 Z" fill="url(#fg-204-331-404-330-4a5a6b-4a7c59)" opacity="0.45" stroke="#4A5A6B" stroke-width="0.5"/>
  <path d="M 204 366 C 271 366 337 353 404 353 L 404 418 C 337 418 271 431 204 431 Z" fill="url(#fg-204-399-404-386-7b5e3a-4a7c59)" opacity="0.45" stroke="#7B5E3A" stroke-width="0.5"/>
  <path d="M 204 112 C 343 112 481 118 620 118 L 620 168 C 481 168 343 162 204 162 Z" fill="url(#fg-204-137-620-143-8b2635-8b5cf6)" opacity="0.45" stroke="#8B2635" stroke-width="0.5"/>
  <path d="M 204 227 C 343 227 481 168 620 168 L 620 204 C 481 204 343 263 204 263 Z" fill="url(#fg-204-245-620-186-b87333-8b5cf6)" opacity="0.45" stroke="#B87333" stroke-width="0.5"/>
  <path d="M 204 450 C 343 450 481 278 620 278 L 620 388 C 481 388 343 560 204 560 Z" fill="url(#fg-204-505-620-333-2d6a3f-9c6b3c)" opacity="0.45" stroke="#2D6A3F" stroke-width="0.5"/>
  <path d="M 204 263 C 343 263 481 405 620 405 L 620 438 C 481 438 343 296 204 296 Z" fill="url(#fg-204-280-620-422-b87333-b5606f)" opacity="0.45" stroke="#B87333" stroke-width="0.5"/>
  <path d="M 204 431 C 343 431 481 438 620 438 L 620 445 C 481 445 343 438 204 438 Z" fill="url(#fg-204-435-620-442-7b5e3a-b5606f)" opacity="0.45" stroke="#7B5E3A" stroke-width="0.5"/>
  <path d="M 420 182 C 487 182 553 204 620 204 L 620 266 C 553 266 487 244 420 244 Z" fill="url(#fg-420-213-620-235-4a7c59-8b5cf6)" opacity="0.45" stroke="#4A7C59" stroke-width="0.5"/>
  <path d="M 420 244 C 487 244 553 445 620 445 L 620 483 C 553 483 487 282 420 282 Z" fill="url(#fg-420-263-620-464-4a7c59-b5606f)" opacity="0.45" stroke="#4A7C59" stroke-width="0.5"/>
  <path d="M 420 282 C 487 282 553 388 620 388 L 620 393 C 553 393 487 287 420 287 Z" fill="url(#fg-420-285-620-391-4a7c59-9c6b3c)" opacity="0.45" stroke="#4A7C59" stroke-width="0.5"/>
  <path d="M 636 118 C 703 118 769 217 836 217 L 836 236 C 769 236 703 137 636 137 Z" fill="url(#fg-636-128-836-227-8b5cf6-8b2635)" opacity="0.45" stroke="#8B5CF6" stroke-width="0.5"/>
  <path d="M 636 405 C 703 405 769 236 836 236 L 836 244 C 769 244 703 413 636 413 Z" fill="url(#fg-636-409-836-240-b5606f-8b2635)" opacity="0.45" stroke="#B5606F" stroke-width="0.5"/>
  <path d="M 420 287 C 559 287 697 244 836 244 L 836 335 C 697 335 559 378 420 378 Z" fill="url(#fg-420-333-836-290-4a7c59-8b2635)" opacity="0.45" stroke="#4A7C59" stroke-width="0.5"/>
  <path d="M 636 278 C 703 278 769 335 836 335 L 836 383 C 769 383 703 326 636 326 Z" fill="url(#fg-636-302-836-359-9c6b3c-8b2635)" opacity="0.45" stroke="#9C6B3C" stroke-width="0.5"/>
  <rect fill="#8B2635" height="122" opacity="1" rx="3" width="16" x="188" y="40"/>
  <rect fill="#B87333" height="122" opacity="1" rx="3" width="16" x="188" y="174"/>
  <rect fill="#4A5A6B" height="46" opacity="1" rx="3" width="16" x="188" y="308"/>
  <rect fill="#7B5E3A" height="72" opacity="1" rx="3" width="16" x="188" y="366"/>
  <rect fill="#2D6A3F" height="110" opacity="1" rx="3" width="16" x="188" y="450"/>
  <rect fill="#4A7C59" height="237" opacity="1" rx="3" width="16" x="404" y="182"/>
  <rect fill="#8B5CF6" height="148" opacity="1" rx="3" width="16" x="620" y="118"/>
  <rect fill="#9C6B3C" height="115" opacity="1" rx="3" width="16" x="620" y="278"/>
  <rect fill="#B5606F" height="78" opacity="1" rx="3" width="16" x="620" y="405"/>
  <rect fill="#8B2635" height="166" opacity="1" rx="3" width="16" x="836" y="217"/>
  <text dominant-baseline="middle" fill="#1A1208" font-family="Lora, Georgia, 'Times New Roman', serif" font-size="12" font-weight="600" text-anchor="end" x="180" y="101">Coal 7100</text>
  <text dominant-baseline="middle" fill="#1A1208" font-family="Lora, Georgia, 'Times New Roman', serif" font-size="12" font-weight="600" text-anchor="end" x="180" y="235">Natural Gas 7100</text>
  <text dominant-baseline="middle" fill="#1A1208" font-family="Lora, Georgia, 'Times New Roman', serif" font-size="12" font-weight="600" text-anchor="end" x="180" y="331">Nuclear 2700</text>
  <text dominant-baseline="middle" fill="#1A1208" font-family="Lora, Georgia, 'Times New Roman', serif" font-size="12" font-weight="600" text-anchor="end" x="180" y="402">Renewables 4220</text>
  <text dominant-baseline="middle" fill="#1A1208" font-family="Lora, Georgia, 'Times New Roman', serif" font-size="12" font-weight="600" text-anchor="end" x="180" y="505">Oil 6400</text>
  <text dominant-baseline="middle" fill="#1A1208" font-family="Lora, Georgia, 'Times New Roman', serif" font-size="12" font-weight="600" text-anchor="start" x="428" y="301">Electricity Generation 13800</text>
  <text dominant-baseline="middle" fill="#1A1208" font-family="Lora, Georgia, 'Times New Roman', serif" font-size="12" font-weight="600" text-anchor="start" x="644" y="192">Industry 8600</text>
  <text dominant-baseline="middle" fill="#1A1208" font-family="Lora, Georgia, 'Times New Roman', serif" font-size="12" font-weight="600" text-anchor="start" x="644" y="336">Transport 6710</text>
  <text dominant-baseline="middle" fill="#1A1208" font-family="Lora, Georgia, 'Times New Roman', serif" font-size="12" font-weight="600" text-anchor="start" x="644" y="444">Buildings 4520</text>
  <text dominant-baseline="middle" fill="#1A1208" font-family="Lora, Georgia, 'Times New Roman', serif" font-size="12" font-weight="600" text-anchor="start" x="860" y="300">Heat Losses 9680</text>
</svg>