<?xml version="1.0" encoding="UTF-8"?>
<svg height="1000" version="1.1" viewBox="0 0 1400 1000" width="1400" xmlns="http://www.w3.org/2000/svg">
  <rect fill="#FFFFFF" height="1000" width="1400" x="0" y="0"/>
  <path d="M 700 500 C 742 542 794 594 820 620" fill="none" stroke="#1F497D" stroke-linecap="round" stroke-width="3"/>
  <path d="M 820 620 C 912 712 864 544 990 578" fill="none" stroke="#1F497D" stroke-linecap="round" stroke-width="2"/>
  <path d="M 820 620 C 912 712 820 620 912 712" fill="none" stroke="#1F497D" stroke-linecap="round" stroke-width="2"/>
  <path d="M 820 620 C 912 712 744 664 778 790" fill="none" stroke="#1F497D" stroke-linecap="round" stroke-width="2"/>
  <path d="M 700 500 C 658 542 606 594 580 620" fill="none" stroke="#2E86AB" stroke-linecap="round" stroke-width="3"/>
  <path d="M 580 620 C 488 712 635 657 585 777" fill="none" stroke="#2E86AB" stroke-linecap="round" stroke-width="2"/>
  <path d="M 585 777 C 535 897 641 794 616 922" fill="none" stroke="#2E86AB" stroke-linecap="round" stroke-width="1.5"/>
  <path d="M 585 777 C 535 897 533 749 461 858" fill="none" stroke="#2E86AB" stroke-linecap="round" stroke-width="1.5"/>
  <path d="M 580 620 C 488 712 543 565 423 615" fill="none" stroke="#2E86AB" stroke-linecap="round" stroke-width="2"/>
  <path d="M 423 615 C 303 665 451 667 342 739" fill="none" stroke="#2E86AB" stroke-linecap="round" stroke-width="1.5"/>
  <path d="M 423 615 C 303 665 406 559 278 584" fill="none" stroke="#2E86AB" stroke-linecap="round" stroke-width="1.5"/>
  <path d="M 700 500 C 658 458 606 406 580 380" fill="none" stroke="#4CAF82" stroke-linecap="round" stroke-width="3"/>
  <path d="M 580 380 C 488 288 538 447 415 407" fill="none" stroke="#4CAF82" stroke-linecap="round" stroke-width="2"/>
  <path d="M 415 407 C 291 367 404 453 275 433" fill="none" stroke="#4CAF82" stroke-linecap="round" stroke-width="1.5"/>
  <path d="M 415 407 C 291 367 433 364 317 305" fill="none" stroke="#4CAF82" stroke-linecap="round" stroke-width="1.5"/>
  <path d="M 580 380 C 488 288 623 349 564 233" fill="none" stroke="#4CAF82" stroke-linecap="round" stroke-width="2"/>
  <path d="M 564 233 C 505 117 488 288 396 196" fill="none" stroke="#4CAF82" stroke-linecap="round" stroke-width="1.5"/>
  <path d="M 564 233 C 505 117 564 233 505 117" fill="none" stroke="#4CAF82" stroke-linecap="round" stroke-width="1.5"/>
  <path d="M 564 233 C 505 117 653 204 633 75" fill="none" stroke="#4CAF82" stroke-linecap="round" stroke-width="1.5"/>
  <path d="M 700 500 C 742 458 794 406 820 380" fill="none" stroke="#D97706" stroke-linecap="round" stroke-width="3"/>
  <path d="M 820 380 C 912 288 733 333 759 206" fill="none" stroke="#D97706" stroke-linecap="round" stroke-width="2"/>
  <path d="M 759 206 C 784 78 759 206 784 78" fill="none" stroke="#D97706" stroke-linecap="round" stroke-width="1.5"/>
  <path d="M 820 380 C 912 288 820 380 912 288" fill="none" stroke="#D97706" stroke-linecap="round" stroke-width="2"/>
  <path d="M 912 288 C 1004 196 867 251 939 142" fill="none" stroke="#D97706" stroke-linecap="round" stroke-width="1.5"/>
  <path d="M 912 288 C 1004 196 949 333 1058 261" fill="none" stroke="#D97706" stroke-linecap="round" stroke-width="1.5"/>
  <path d="M 820 380 C 912 288 867 467 994 441" fill="none" stroke="#D97706" stroke-linecap="round" stroke-width="2"/>
  <path d="M 994 441 C 1122 416 994 441 1122 416" fill="none" stroke="#D97706" stroke-linecap="round" stroke-width="1.5"/>
  <rect fill="#d7dee8" height="34" rx="8" stroke="#1F497D" stroke-width="1" width="68" x="956" y="561"/>
  <text dominant-baseline="central" fill="#142f51" font-family="Georgia, 'Times New Roman', serif" font-size="13" font-weight="600" text-anchor="middle" x="990" y="578">Raft</text>
  <rect fill="#d7dee8" height="34" rx="8" stroke="#1F497D" stroke-width="1" width="68" x="878" y="695"/>
  <text dominant-baseline="central" fill="#142f51" font-family="Georgia, 'Times New Roman', serif" font-size="13" font-weight="600" text-anchor="middle" x="912" y="712">Paxos</text>
  <rect fill="#d7dee8" height="34" rx="8" stroke="#1F497D" stroke-width="1" width="68" x="744" y="773"/>
  <text dominant-baseline="central" fill="#142f51" font-family="Georgia, 'Times New Roman', serif" font-size="13" font-weight="600" text-anchor="middle" x="778" y="790">ZAB</text>
  <rect fill="#d7dee8" height="37" rx="10" stroke="#1F497D" stroke-width="1" width="100" x="770" y="602"/>
  <text dominant-baseline="central" fill="#142f51" font-family="Georgia, 'Times New Roman', serif" font-size="14" font-weight="700" text-anchor="middle" x="820" y="620">Consensus</text>
  <rect fill="#d9e9f0" height="30" rx="7" stroke="#2E86AB" stroke-width="1" width="58" x="587" y="907"/>
  <text dominant-baseline="central" fill="#1e576f" font-family="Georgia, 'Times New Roman', serif" font-size="12" font-weight="600" text-anchor="middle" x="616" y="922">gRPC</text>
  <rect fill="#d9e9f0" height="30" rx="7" stroke="#2E86AB" stroke-width="1" width="58" x="432" y="843"/>
  <text dominant-baseline="central" fill="#1e576f" font-family="Georgia, 'Times New Roman', serif" font-size="12" font-weight="600" text-anchor="middle" x="461" y="858">REST</text>
  <rect fill="#d9e9f0" height="34" rx="8" stroke="#2E86AB" stroke-width="1" width="68" x="551" y="760"/>
  <text dominant-baseline="central" fill="#1e576f" font-family="Georgia, 'Times New Roman', serif" font-size="13" font-weight="600" text-anchor="middle" x="585" y="777">RPC</text>
  <rect fill="#d9e9f0" height="30" rx="7" stroke="#2E86AB" stroke-width="1" width="58" x="313" y="724"/>
  <text dominant-baseline="central" fill="#1e576f" font-family="Georgia, 'Times New Roman', serif" font-size="12" font-weight="600" text-anchor="middle" x="342" y="739">Kafka</text>
  <rect fill="#d9e9f0" height="30" rx="7" stroke="#2E86AB" stroke-width="1" width="75" x="241" y="569"/>
  <text dominant-baseline="central" fill="#1e576f" font-family="Georgia, 'Times New Roman', serif" font-size="12" font-weight="600" text-anchor="middle" x="278" y="584">RabbitMQ</text>
  <rect fill="#d9e9f0" height="34" rx="8" stroke="#2E86AB" stroke-width="1" width="87" x="380" y="598"/>
  <text dominant-baseline="central" fill="#1e576f" font-family="Georgia, 'Times New Roman', serif" font-size="13" font-weight="600" text-anchor="middle" x="423" y="615">Messaging</text>
  <rect fill="#d9e9f0" height="37" rx="10" stroke="#2E86AB" stroke-width="1" width="128" x="516" y="602"/>
  <text dominant-baseline="central" fill="#1e576f" font-family="Georgia, 'Times New Roman', serif" font-size="14" font-weight="700" text-anchor="middle" x="580" y="620">Communication</text>
  <rect fill="#dff1e9" height="30" rx="7" stroke="#4CAF82" stroke-width="1" width="85" x="233" y="418"/>
  <text dominant-baseline="central" fill="#317255" font-family="Georgia, 'Times New Roman', serif" font-size="12" font-weight="600" text-anchor="middle" x="275" y="433">PostgreSQL</text>
  <rect fill="#dff1e9" height="30" rx="7" stroke="#4CAF82" stroke-width="1" width="59" x="288" y="290"/>
  <text dominant-baseline="central" fill="#317255" font-family="Georgia, 'Times New Roman', serif" font-size="12" font-weight="600" text-anchor="middle" x="317" y="305">MySQL</text>
  <rect fill="#dff1e9" height="34" rx="8" stroke="#4CAF82" stroke-width="1" width="83" x="374" y="390"/>
  <text dominant-baseline="central" fill="#317255" font-family="Georgia, 'Times New Roman', serif" font-size="13" font-weight="600" text-anchor="middle" x="415" y="407">Relational</text>
  <rect fill="#dff1e9" height="30" rx="7" stroke="#4CAF82" stroke-width="1" width="74" x="359" y="181"/>
  <text dominant-baseline="central" fill="#317255" font-family="Georgia, 'Times New Roman', serif" font-size="12" font-weight="600" text-anchor="middle" x="396" y="196">MongoDB</text>
  <rect fill="#dff1e9" height="30" rx="7" stroke="#4CAF82" stroke-width="1" width="78" x="466" y="102"/>
  <text dominant-baseline="central" fill="#317255" font-family="Georgia, 'Times New Roman', serif" font-size="12" font-weight="600" text-anchor="middle" x="505" y="117">Cassandra</text>
  <rect fill="#dff1e9" height="30" rx="7" stroke="#4CAF82" stroke-width="1" width="58" x="604" y="60"/>
  <text dominant-baseline="central" fill="#317255" font-family="Georgia, 'Times New Roman', serif" font-size="12" font-weight="600" text-anchor="middle" x="633" y="75">Redis</text>
  <rect fill="#dff1e9" height="34" rx="8" stroke="#4CAF82" stroke-width="1" width="68" x="530" y="216"/>
  <text dominant-baseline="central" fill="#317255" font-family="Georgia, 'Times New Roman', serif" font-size="13" font-weight="600" text-anchor="middle" x="564" y="233">NoSQL</text>
  <rect fill="#dff1e9" height="37" rx="10" stroke="#4CAF82" stroke-width="1" width="80" x="540" y="362"/>
  <text dominant-baseline="central" fill="#317255" font-family="Georgia, 'Times New Roman', serif" font-size="14" font-weight="700" text-anchor="middle" x="580" y="380">Storage</text>
  <rect fill="#f8e7d2" height="30" rx="7" stroke="#D97706" stroke-width="1" width="85" x="742" y="63"/>
  <text dominant-baseline="central" fill="#8d4d04" font-family="Georgia, 'Times New Roman', serif" font-size="12" font-weight="600" text-anchor="middle" x="784" y="78">Prometheus</text>
  <rect fill="#f8e7d2" height="34" rx="8" stroke="#D97706" stroke-width="1" width="68" x="725" y="189"/>
  <text dominant-baseline="central" fill="#8d4d04" font-family="Georgia, 'Times New Roman', serif" font-size="13" font-weight="600" text-anchor="middle" x="759" y="206">Metrics</text>
  <rect fill="#f8e7d2" height="30" rx="7" stroke="#D97706" stroke-width="1" width="58" x="910" y="127"/>
  <text dominant-baseline="central" fill="#8d4d04" font-family="Georgia, 'Times New Roman', serif" font-size="12" font-weight="600" text-anchor="middle" x="939" y="142">Jaeger</text>
  <rect fill="#f8e7d2" height="30" rx="7" stroke="#D97706" stroke-width="1" width="58" x="1029" y="246"/>
  <text dominant-baseline="central" fill="#8d4d04" font-family="Georgia, 'Times New Roman', serif" font-size="12" font-weight="600" text-anchor="middle" x="1058" y="261">Zipkin</text>
  <rect fill="#f8e7d2" height="34" rx="8" stroke="#D97706" stroke-width="1" width="68" x="878" y="271"/>
  <text dominant-baseline="central" fill="#8d4d04" font-family="Georgia, 'Times New Roman', serif" font-size="13" font-weight="600" text-anchor="middle" x="912" y="288">Tracing</text>
  <rect fill="#f8e7d2" height="30" rx="7" stroke="#D97706" stroke-width="1" width="76" x="1084" y="401"/>
  <text dominant-baseline="central" fill="#8d4d04" font-family="Georgia, 'Times New Roman', serif" font-size="12" font-weight="600" text-anchor="middle" x="1122" y="416">ELK Stack</text>
  <rect fill="#f8e7d2" height="34" rx="8" stroke="#D97706" stroke-width="1" width="70" x="959" y="424"/>
  <text dominant-baseline="central" fill="#8d4d04" font-family="Georgia, 'Times New Roman', serif" font-size="13" font-weight="600" text-anchor="middle" x="994" y="441">Logging</text>
  <rect fill="#f8e7d2" height="37" rx="10" stroke="#D97706" stroke-width="1" width="112" x="764" y="362"/>
  <text dominant-baseline="central" fill="#8d4d04" font-family="Georgia, 'Times New Roman', serif" font-size="14" font-weight="700" text-anchor="middle" x="820" y="380">Observability</text>
  <circle cx="700" cy="500" fill="#1F497D" r="77"/>
  <text dominant-baseline="central" fill="#F8FAFC" font-family="Georgia, 'Times New Roman', serif" font-size="13" font-weight="700" text-anchor="middle" x="700" y="500">Distributed Systems</text>
</svg>