<?xml version="1.0" encoding="UTF-8"?>
<svg height="568" version="1.1" viewBox="0 0 1040 568" width="1040" xmlns="http://www.w3.org/2000/svg">
<defs>
  <linearGradient gradientUnits="userSpaceOnUse" id="fg-202-68-402-210-1f497d-2e86ab" x1="202" x2="402" y1="68" y2="210">
    <stop offset="0%" stop-color="#1F497D"/>
    <stop offset="100%" stop-color="#2E86AB"/>
  </linearGradient>
  <linearGradient gradientUnits="userSpaceOnUse" id="fg-202-193-402-273-4caf82-2e86ab" x1="202" x2="402" y1="193" y2="273">
    <stop offset="0%" stop-color="#4CAF82"/>
    <stop offset="100%" stop-color="#2E86AB"/>
  </linearGradient>
  <linearGradient gradientUnits="userSpaceOnUse" id="fg-202-323-402-322-d97706-2e86ab" x1="202" x2="402" y1="323" y2="322">
    <stop offset="0%" stop-color="#D97706"/>
    <stop offset="100%" stop-color="#2E86AB"/>
  </linearGradient>
  <linearGradient gradientUnits="userSpaceOnUse" id="fg-202-391-402-378-7c3aed-2e86ab" x1="202" x2="402" y1="391" y2="378">
    <stop offset="0%" stop-color="#7C3AED"/>
    <stop offset="100%" stop-color="#2E86AB"/>
  </linearGradient>
  <linearGradient gradientUnits="userSpaceOnUse" id="fg-202-129-620-135-1f497d-0891b2" x1="202" x2="620" y1="129" y2="135">
    <stop offset="0%" stop-color="#1F497D"/>
    <stop offset="100%" stop-color="#0891B2"/>
  </linearGradient>
  <linearGradient gradientUnits="userSpaceOnUse" id="fg-202-237-620-178-4caf82-0891b2" x1="202" x2="620" y1="237" y2="178">
    <stop offset="0%" stop-color="#4CAF82"/>
    <stop offset="100%" stop-color="#0891B2"/>
  </linearGradient>
  <linearGradient gradientUnits="userSpaceOnUse" id="fg-202-497-620-325-b45309-0d2b4e" x1="202" x2="620" y1="497" y2="325">
    <stop offset="0%" stop-color="#B45309"/>
    <stop offset="100%" stop-color="#0D2B4E"/>
  </linearGradient>
  <linearGradient gradientUnits="userSpaceOnUse" id="fg-202-272-620-414-4caf82-6b92bf" x1="202" x2="620" y1="272" y2="414">
    <stop offset="0%" stop-color="#4CAF82"/>
    <stop offset="100%" stop-color="#6B92BF"/>
  </linearGradient>
  <linearGradient gradientUnits="userSpaceOnUse" id="fg-202-427-620-434-7c3aed-6b92bf" x1="202" x2="620" y1="427" y2="434">
    <stop offset="0%" stop-color="#7C3AED"/>
    <stop offset="100%" stop-color="#6B92BF"/>
  </linearGradient>
  <linearGradient gradientUnits="userSpaceOnUse" id="fg-420-205-620-227-2e86ab-0891b2" x1="420" x2="620" y1="205" y2="227">
    <stop offset="0%" stop-color="#2E86AB"/>
    <stop offset="100%" stop-color="#0891B2"/>
  </linearGradient>
  <linearGradient gradientUnits="userSpaceOnUse" id="fg-420-255-620-456-2e86ab-6b92bf" x1="420" x2="620" y1="255" y2="456">
    <stop offset="0%" stop-color="#2E86AB"/>
    <stop offset="100%" stop-color="#6B92BF"/>
  </linearGradient>
  <linearGradient gradientUnits="userSpaceOnUse" id="fg-420-277-620-383-2e86ab-0d2b4e" x1="420" x2="620" y1="277" y2="383">
    <stop offset="0%" stop-color="#2E86AB"/>
    <stop offset="100%" stop-color="#0D2B4E"/>
  </linearGradient>
  <linearGradient gradientUnits="userSpaceOnUse" id="fg-638-120-838-219-0891b2-0d2b4e" x1="638" x2="838" y1="120" y2="219">
    <stop offset="0%" stop-color="#0891B2"/>
    <stop offset="100%" stop-color="#0D2B4E"/>
  </linearGradient>
  <linearGradient gradientUnits="userSpaceOnUse" id="fg-638-401-838-232-6b92bf-0d2b4e" x1="638" x2="838" y1="401" y2="232">
    <stop offset="0%" stop-color="#6B92BF"/>
    <stop offset="100%" stop-color="#0D2B4E"/>
  </linearGradient>
  <linearGradient gradientUnits="userSpaceOnUse" id="fg-420-325-838-282-2e86ab-0d2b4e" x1="420" x2="838" y1="325" y2="282">
    <stop offset="0%" stop-color="#2E86AB"/>
    <stop offset="100%" stop-color="#0D2B4E"/>
  </linearGradient>
  <linearGradient gradientUnits="userSpaceOnUse" id="fg-638-294-838-351-0d2b4e-0d2b4e" x1="638" x2="838" y1="294" y2="351">
    <stop offset="0%" stop-color="#0D2B4E"/>
    <stop offset="100%" stop-color="#0D2B4E"/>
  </linearGradient>
</defs>

  <path d="M 202 32 C 269 32 335 174 402 174 L 402 246 C 335 246 269 104 202 104 Z" fill="url(#fg-202-68-402-210-1f497d-2e86ab)" opacity="0.45" stroke="#1F497D" stroke-width="0.5"/>
  <path d="M 202 166 C 269 166 335 246 402 246 L 402 299 C 335 299 269 219 202 219 Z" fill="url(#fg-202-193-402-273-4caf82-2e86ab)" opacity="0.45" stroke="#4CAF82" stroke-width="0.5"/>
  <path d="M 202 300 C 269 300 335 299 402 299 L 402 345 C 335 345 269 346 202 346 Z" fill="url(#fg-202-323-402-322-d97706-2e86ab)" opacity="0.45" stroke="#D97706" stroke-width="0.5"/>
  <path d="M 202 358 C 269 358 335 345 402 345 L 402 410 C 335 410 269 423 202 423 Z" fill="url(#fg-202-391-402-378-7c3aed-2e86ab)" opacity="0.45" stroke="#7C3AED" stroke-width="0.5"/>
  <path d="M 202 104 C 341 104 481 110 620 110 L 620 160 C 481 160 341 154 202 154 Z" fill="url(#fg-202-129-620-135-1f497d-0891b2)" opacity="0.45" stroke="#1F497D" stroke-width="0.5"/>
  <path d="M 202 219 C 341 219 481 160 620 160 L 620 196 C 481 196 341 255 202 255 Z" fill="url(#fg-202-237-620-178-4caf82-0891b2)" opacity="0.45" stroke="#4CAF82" stroke-width="0.5"/>
  <path d="M 202 442 C 341 442 481 270 620 270 L 620 380 C 481 380 341 552 202 552 Z" fill="url(#fg-202-497-620-325-b45309-0d2b4e)" opacity="0.45" stroke="#B45309" stroke-width="0.5"/>
  <path d="M 202 255 C 341 255 481 397 620 397 L 620 430 C 481 430 341 288 202 288 Z" fill="url(#fg-202-272-620-414-4caf82-6b92bf)" opacity="0.45" stroke="#4CAF82" stroke-width="0.5"/>
  <path d="M 202 423 C 341 423 481 430 620 430 L 620 437 C 481 437 341 430 202 430 Z" fill="url(#fg-202-427-620-434-7c3aed-6b92bf)" opacity="0.45" stroke="#7C3AED" stroke-width="0.5"/>
  <path d="M 420 174 C 487 174 553 196 620 196 L 620 258 C 553 258 487 236 420 236 Z" fill="url(#fg-420-205-620-227-2e86ab-0891b2)" opacity="0.45" stroke="#2E86AB" stroke-width="0.5"/>
  <path d="M 420 236 C 487 236 553 437 620 437 L 620 475 C 553 475 487 274 420 274 Z" fill="url(#fg-420-255-620-456-2e86ab-6b92bf)" opacity="0.45" stroke="#2E86AB" stroke-width="0.5"/>
  <path d="M 420 274 C 487 274 553 380 620 380 L 620 385 C 553 385 487 279 420 279 Z" fill="url(#fg-420-277-620-383-2e86ab-0d2b4e)" opacity="0.45" stroke="#2E86AB" stroke-width="0.5"/>
  <path d="M 638 110 C 705 110 771 209 838 209 L 838 228 C 771 228 705 129 638 129 Z" fill="url(#fg-638-120-838-219-0891b2-0d2b4e)" opacity="0.45" stroke="#0891B2" stroke-width="0.5"/>
  <path d="M 638 397 C 705 397 771 228 838 228 L 838 236 C 771 236 705 405 638 405 Z" fill="url(#fg-638-401-838-232-6b92bf-0d2b4e)" opacity="0.45" stroke="#6B92BF" stroke-width="0.5"/>
  <path d="M 420 279 C 559 279 699 236 838 236 L 838 327 C 699 327 559 370 420 370 Z" fill="url(#fg-420-325-838-282-2e86ab-0d2b4e)" opacity="0.45" stroke="#2E86AB" stroke-width="0.5"/>
  <path d="M 638 270 C 705 270 771 327 838 327 L 838 375 C 771 375 705 318 638 318 Z" fill="url(#fg-638-294-838-351-0d2b4e-0d2b4e)" opacity="0.45" stroke="#0D2B4E" stroke-width="0.5"/>
  <rect fill="#1F497D" height="122" opacity="1" rx="3" width="18" x="184" y="32"/>
  <rect fill="#4CAF82" height="122" opacity="1" rx="3" width="18" x="184" y="166"/>
  <rect fill="#D97706" height="46" opacity="1" rx="3" width="18" x="184" y="300"/>
  <rect fill="#7C3AED" height="72" opacity="1" rx="3" width="18" x="184" y="358"/>
  <rect fill="#B45309" height="110" opacity="1" rx="3" width="18" x="184" y="442"/>
  <rect fill="#2E86AB" height="237" opacity="1" rx="3" width="18" x="402" y="174"/>
  <rect fill="#0891B2" height="148" opacity="1" rx="3" width="18" x="620" y="110"/>
  <rect fill="#0D2B4E" height="115" opacity="1" rx="3" width="18" x="620" y="270"/>
  <rect fill="#6B92BF" height="78" opacity="1" rx="3" width="18" x="620" y="397"/>
  <rect fill="#0D2B4E" height="166" opacity="1" rx="3" width="18" x="838" y="209"/>
  <text dominant-baseline="middle" fill="#1E293B" font-family="Georgia, 'Times New Roman', serif" font-size="12" font-weight="600" text-anchor="end" x="176" y="93">Coal 7100</text>
  <text dominant-baseline="middle" fill="#1E293B" font-family="Georgia, 'Times New Roman', serif" font-size="12" font-weight="600" text-anchor="end" x="176" y="227">Natural Gas 7100</text>
  <text dominant-baseline="middle" fill="#1E293B" font-family="Georgia, 'Times New Roman', serif" font-size="12" font-weight="600" text-anchor="end" x="176" y="323">Nuclear 2700</text>
  <text dominant-baseline="middle" fill="#1E293B" font-family="Georgia, 'Times New Roman', serif" font-size="12" font-weight="600" text-anchor="end" x="176" y="394">Renewables 4220</text>
  <text dominant-baseline="middle" fill="#1E293B" font-family="Georgia, 'Times New Roman', serif" font-size="12" font-weight="600" text-anchor="end" x="176" y="497">Oil 6400</text>
  <text dominant-baseline="middle" fill="#1E293B" font-family="Georgia, 'Times New Roman', serif" font-size="12" font-weight="600" text-anchor="start" x="428" y="293">Electricity Generation 13800</text>
  <text dominant-baseline="middle" fill="#1E293B" font-family="Georgia, 'Times New Roman', serif" font-size="12" font-weight="600" text-anchor="start" x="646" y="184">Industry 8600</text>
  <text dominant-baseline="middle" fill="#1E293B" font-family="Georgia, 'Times New Roman', serif" font-size="12" font-weight="600" text-anchor="start" x="646" y="328">Transport 6710</text>
  <text dominant-baseline="middle" fill="#1E293B" font-family="Georgia, 'Times New Roman', serif" font-size="12" font-weight="600" text-anchor="start" x="646" y="436">Buildings 4520</text>
  <text dominant-baseline="middle" fill="#1E293B" font-family="Georgia, 'Times New Roman', serif" font-size="12" font-weight="600" text-anchor="start" x="864" y="292">Heat Losses 9680</text>
</svg>