<?xml version="1.0" encoding="UTF-8"?>
<svg height="1201" version="1.1" viewBox="0 0 852 1201" width="852" xmlns="http://www.w3.org/2000/svg">
  <rect fill="#FFFFFF" height="1201" width="852" x="0" y="0"/>
  <rect fill="#F1F5F9" height="244" rx="6" stroke="#1F497D" stroke-width="1.5" width="780" x="36" y="443"/>
  <rect fill="#1F497D" height="22" rx="6" width="23" x="36" y="443"/>
  <text dominant-baseline="middle" fill="#F8FAFC" font-family="Georgia, 'Times New Roman', serif" font-size="10" font-weight="700" text-anchor="middle" x="48" y="454">alt</text>
  <text dominant-baseline="middle" fill="#64748B" font-family="Georgia, 'Times New Roman', serif" font-size="10" font-weight="400" text-anchor="start" x="67" y="454">Valid credentials</text>
  <line stroke="#1F497D" stroke-dasharray="6,4" stroke-width="1.5" x1="36" x2="816" y1="594" y2="594"/>
  <text dominant-baseline="alphabetic" fill="#64748B" font-family="Georgia, 'Times New Roman', serif" font-size="10" font-weight="400" text-anchor="start" x="42" y="606">Invalid credentials</text>
  <rect fill="#F1F5F9" height="100" rx="6" stroke="#1F497D" stroke-width="1.5" width="780" x="36" y="731"/>
  <rect fill="#1F497D" height="22" rx="6" width="31" x="36" y="731"/>
  <text dominant-baseline="middle" fill="#F8FAFC" font-family="Georgia, 'Times New Roman', serif" font-size="10" font-weight="700" text-anchor="middle" x="52" y="742">loop</text>
  <text dominant-baseline="middle" fill="#64748B" font-family="Georgia, 'Times New Roman', serif" font-size="10" font-weight="400" text-anchor="start" x="75" y="742">Token refresh (every 15 min)</text>
  <rect fill="#F1F5F9" height="100" rx="6" stroke="#1F497D" stroke-width="1.5" width="780" x="36" y="875"/>
  <rect fill="#1F497D" height="22" rx="6" width="26" x="36" y="875"/>
  <text dominant-baseline="middle" fill="#F8FAFC" font-family="Georgia, 'Times New Roman', serif" font-size="10" font-weight="700" text-anchor="middle" x="49" y="886">opt</text>
  <text dominant-baseline="middle" fill="#64748B" font-family="Georgia, 'Times New Roman', serif" font-size="10" font-weight="400" text-anchor="start" x="70" y="886">Access protected resource</text>
  <rect fill="#F8F9FA" height="89" rx="4" stroke="#1F497D" stroke-width="1.5" width="140" x="48" y="32"/>
  <path d="M 118 50 A 7 7 0 1 1 117.9 50 Z M 118 64 L 118 77 M 109 68 L 127 68 M 118 77 L 110 90 M 118 77 L 126 90" fill="none" stroke="#1F497D" stroke-width="1.5"/>
  <text dominant-baseline="alphabetic" fill="#1E293B" font-family="Georgia, 'Times New Roman', serif" font-size="14" font-weight="700" text-anchor="middle" x="118" y="102">User</text>
  <line stroke="#E2E8F0" stroke-dasharray="6,4" stroke-width="1" x1="118" x2="118" y1="121" y2="1153"/>
  <rect fill="#F8F9FA" height="49" rx="4" stroke="#1F497D" stroke-width="1.5" width="140" x="252" y="32"/>
  <text dominant-baseline="middle" fill="#1E293B" font-family="Georgia, 'Times New Roman', serif" font-size="14" font-weight="700" text-anchor="middle" x="322" y="57">Web Client</text>
  <line stroke="#E2E8F0" stroke-dasharray="6,4" stroke-width="1" x1="322" x2="322" y1="121" y2="1153"/>
  <rect fill="#F8F9FA" height="49" rx="4" stroke="#1F497D" stroke-width="1.5" width="144" x="456" y="32"/>
  <text dominant-baseline="middle" fill="#1E293B" font-family="Georgia, 'Times New Roman', serif" font-size="14" font-weight="700" text-anchor="middle" x="528" y="57">Auth Service</text>
  <line stroke="#E2E8F0" stroke-dasharray="6,4" stroke-width="1" x1="528" x2="528" y1="121" y2="1153"/>
  <rect fill="#F8F9FA" height="49" rx="4" stroke="#1F497D" stroke-width="1.5" width="140" x="664" y="32"/>
  <text dominant-baseline="middle" fill="#1E293B" font-family="Georgia, 'Times New Roman', serif" font-size="14" font-weight="700" text-anchor="middle" x="734" y="57">Database</text>
  <line stroke="#E2E8F0" stroke-dasharray="6,4" stroke-width="1" x1="734" x2="734" y1="121" y2="1153"/>
  <rect fill="#6B92BF44" height="72" rx="2" stroke="#1F497D" stroke-width="1.5" width="10" x="729" y="313"/>
  <rect fill="#6B92BF44" height="216" rx="2" stroke="#1F497D" stroke-width="1.5" width="10" x="523" y="241"/>
  <rect fill="#6B92BF44" height="360" rx="2" stroke="#1F497D" stroke-width="1.5" width="10" x="317" y="169"/>
  <line stroke="#1E293B" stroke-width="1.5" x1="118" x2="309" y1="169" y2="169"/>
  <path d="M 317 169 L 309 165 L 309 173 Z" fill="#1E293B" stroke="none" stroke-width="0"/>
  <circle cx="168" cy="169" fill="#1F497D" r="10"/>
  <text dominant-baseline="middle" fill="#F8FAFC" font-family="Georgia, 'Times New Roman', serif" font-size="8" font-weight="700" text-anchor="middle" x="168" y="169">1</text>
  <text dominant-baseline="alphabetic" fill="#1E293B" font-family="Georgia, 'Times New Roman', serif" font-size="12" font-weight="400" text-anchor="middle" x="218" y="163">Enter credentials</text>
  <line stroke="#1E293B" stroke-width="1.5" x1="327" x2="515" y1="241" y2="241"/>
  <path d="M 523 241 L 515 237 L 515 245 Z" fill="#1E293B" stroke="none" stroke-width="0"/>
  <circle cx="376" cy="241" fill="#1F497D" r="10"/>
  <text dominant-baseline="middle" fill="#F8FAFC" font-family="Georgia, 'Times New Roman', serif" font-size="8" font-weight="700" text-anchor="middle" x="376" y="241">2</text>
  <text dominant-baseline="alphabetic" fill="#1E293B" font-family="Georgia, 'Times New Roman', serif" font-size="12" font-weight="400" text-anchor="middle" x="425" y="235">POST /login</text>
  <line stroke="#1E293B" stroke-width="1.5" x1="533" x2="721" y1="313" y2="313"/>
  <path d="M 729 313 L 721 309 L 721 317 Z" fill="#1E293B" stroke="none" stroke-width="0"/>
  <circle cx="582" cy="313" fill="#1F497D" r="10"/>
  <text dominant-baseline="middle" fill="#F8FAFC" font-family="Georgia, 'Times New Roman', serif" font-size="8" font-weight="700" text-anchor="middle" x="582" y="313">3</text>
  <text dominant-baseline="alphabetic" fill="#1E293B" font-family="Georgia, 'Times New Roman', serif" font-size="12" font-weight="400" text-anchor="middle" x="631" y="307">Query user record</text>
  <line stroke="#1E293B" stroke-dasharray="6,4" stroke-width="1.5" x1="729" x2="541" y1="385" y2="385"/>
  <path d="M 541 381 L 533 385 L 541 389" fill="none" stroke="#1E293B" stroke-linecap="round" stroke-width="1.5"/>
  <circle cx="680" cy="385" fill="#1F497D" r="10"/>
  <text dominant-baseline="middle" fill="#F8FAFC" font-family="Georgia, 'Times New Roman', serif" font-size="8" font-weight="700" text-anchor="middle" x="680" y="385">4</text>
  <text dominant-baseline="alphabetic" fill="#1E293B" font-family="Georgia, 'Times New Roman', serif" font-size="12" font-weight="400" text-anchor="middle" x="631" y="379">User data + hash</text>
  <line stroke="#1E293B" stroke-dasharray="6,4" stroke-width="1.5" x1="523" x2="335" y1="457" y2="457"/>
  <path d="M 335 453 L 327 457 L 335 461" fill="none" stroke="#1E293B" stroke-linecap="round" stroke-width="1.5"/>
  <circle cx="474" cy="457" fill="#1F497D" r="10"/>
  <text dominant-baseline="middle" fill="#F8FAFC" font-family="Georgia, 'Times New Roman', serif" font-size="8" font-weight="700" text-anchor="middle" x="474" y="457">5</text>
  <text dominant-baseline="alphabetic" fill="#1E293B" font-family="Georgia, 'Times New Roman', serif" font-size="12" font-weight="400" text-anchor="middle" x="425" y="451">200 JWT token</text>
  <line stroke="#1E293B" stroke-dasharray="6,4" stroke-width="1.5" x1="317" x2="126" y1="529" y2="529"/>
  <path d="M 126 525 L 118 529 L 126 533" fill="none" stroke="#1E293B" stroke-linecap="round" stroke-width="1.5"/>
  <circle cx="267" cy="529" fill="#1F497D" r="10"/>
  <text dominant-baseline="middle" fill="#F8FAFC" font-family="Georgia, 'Times New Roman', serif" font-size="8" font-weight="700" text-anchor="middle" x="267" y="529">6</text>
  <text dominant-baseline="alphabetic" fill="#1E293B" font-family="Georgia, 'Times New Roman', serif" font-size="12" font-weight="400" text-anchor="middle" x="218" y="523">Login successful</text>
  <line stroke="#1E293B" stroke-dasharray="6,4" stroke-width="1.5" x1="528" x2="330" y1="601" y2="601"/>
  <path d="M 330 597 L 322 601 L 330 605" fill="none" stroke="#1E293B" stroke-linecap="round" stroke-width="1.5"/>
  <circle cx="477" cy="601" fill="#1F497D" r="10"/>
  <text dominant-baseline="middle" fill="#F8FAFC" font-family="Georgia, 'Times New Roman', serif" font-size="8" font-weight="700" text-anchor="middle" x="477" y="601">7</text>
  <text dominant-baseline="alphabetic" fill="#1E293B" font-family="Georgia, 'Times New Roman', serif" font-size="12" font-weight="400" text-anchor="middle" x="425" y="595">401 Unauthorized</text>
  <line stroke="#1E293B" stroke-dasharray="6,4" stroke-width="1.5" x1="322" x2="126" y1="673" y2="673"/>
  <path d="M 126 669 L 118 673 L 126 677" fill="none" stroke="#1E293B" stroke-linecap="round" stroke-width="1.5"/>
  <circle cx="271" cy="673" fill="#1F497D" r="10"/>
  <text dominant-baseline="middle" fill="#F8FAFC" font-family="Georgia, 'Times New Roman', serif" font-size="8" font-weight="700" text-anchor="middle" x="271" y="673">8</text>
  <text dominant-baseline="alphabetic" fill="#1E293B" font-family="Georgia, 'Times New Roman', serif" font-size="12" font-weight="400" text-anchor="middle" x="220" y="667">Show error message</text>
  <line stroke="#1E293B" stroke-width="1.5" x1="322" x2="520" y1="745" y2="745"/>
  <path d="M 528 745 L 520 741 L 520 749 Z" fill="#1E293B" stroke="none" stroke-width="0"/>
  <circle cx="374" cy="745" fill="#1F497D" r="10"/>
  <text dominant-baseline="middle" fill="#F8FAFC" font-family="Georgia, 'Times New Roman', serif" font-size="8" font-weight="700" text-anchor="middle" x="374" y="745">9</text>
  <text dominant-baseline="alphabetic" fill="#1E293B" font-family="Georgia, 'Times New Roman', serif" font-size="12" font-weight="400" text-anchor="middle" x="425" y="739">POST /refresh</text>
  <line stroke="#1E293B" stroke-dasharray="6,4" stroke-width="1.5" x1="528" x2="330" y1="817" y2="817"/>
  <path d="M 330 813 L 322 817 L 330 821" fill="none" stroke="#1E293B" stroke-linecap="round" stroke-width="1.5"/>
  <circle cx="477" cy="817" fill="#1F497D" r="10"/>
  <text dominant-baseline="middle" fill="#F8FAFC" font-family="Georgia, 'Times New Roman', serif" font-size="8" font-weight="700" text-anchor="middle" x="477" y="817">10</text>
  <text dominant-baseline="alphabetic" fill="#1E293B" font-family="Georgia, 'Times New Roman', serif" font-size="12" font-weight="400" text-anchor="middle" x="425" y="811">New JWT token</text>
  <line stroke="#1E293B" stroke-width="1.5" x1="322" x2="520" y1="889" y2="889"/>
  <path d="M 528 889 L 520 885 L 520 893 Z" fill="#1E293B" stroke="none" stroke-width="0"/>
  <circle cx="374" cy="889" fill="#1F497D" r="10"/>
  <text dominant-baseline="middle" fill="#F8FAFC" font-family="Georgia, 'Times New Roman', serif" font-size="8" font-weight="700" text-anchor="middle" x="374" y="889">11</text>
  <text dominant-baseline="alphabetic" fill="#1E293B" font-family="Georgia, 'Times New Roman', serif" font-size="12" font-weight="400" text-anchor="middle" x="425" y="883">GET /api/data</text>
  <line stroke="#1E293B" stroke-dasharray="6,4" stroke-width="1.5" x1="528" x2="330" y1="961" y2="961"/>
  <path d="M 330 957 L 322 961 L 330 965" fill="none" stroke="#1E293B" stroke-linecap="round" stroke-width="1.5"/>
  <circle cx="477" cy="961" fill="#1F497D" r="10"/>
  <text dominant-baseline="middle" fill="#F8FAFC" font-family="Georgia, 'Times New Roman', serif" font-size="8" font-weight="700" text-anchor="middle" x="477" y="961">12</text>
  <text dominant-baseline="alphabetic" fill="#1E293B" font-family="Georgia, 'Times New Roman', serif" font-size="12" font-weight="400" text-anchor="middle" x="425" y="955">200 Protected data</text>
  <rect fill="#F8F9FA" height="31" rx="2" stroke="#E2E8F0" stroke-width="1.5" width="348" x="456" y="1018"/>
  <text dominant-baseline="middle" fill="#1E293B" font-family="Georgia, 'Times New Roman', serif" font-size="10" font-weight="400" text-anchor="middle" x="630" y="1034">All DB queries use TLS</text>
</svg>