<?xml version="1.0" encoding="UTF-8"?>
<svg height="314" version="1.1" viewBox="0 0 532 314" width="532" xmlns="http://www.w3.org/2000/svg">
  <rect fill="#F1F5F9" height="140" opacity="0.9" width="296" x="188" y="24"/>
  <path d="M 188 24 L 484 24 L 484 164 L 188 164 Z" fill="none" stroke="#E2E8F0" stroke-dasharray="6,4" stroke-width="1.25"/>
  <path d="M 6 19 L 18 19 A 4 4 0 0 0 18 12 A 5 5 0 0 0 11 8 A 4 4 0 0 0 4 12 A 4 4 0 0 0 6 19 Z" fill="none" stroke="#64748B" stroke-width="1.35" transform="translate(200,32) scale(0.5833)"/>
  <text dominant-baseline="alphabetic" fill="#64748B" font-family="Georgia, 'Times New Roman', serif" font-size="12" font-weight="700" text-anchor="start" x="222" y="48">Cloud Services</text>
  <path d="M 178 108 L 192 108 L 206 108" fill="none" stroke="#94A3B8" stroke-linecap="round" stroke-width="1.5"/>
  <path d="M 206 108 L 199 112 L 199 104 Z" fill="#94A3B8" stroke="#94A3B8" stroke-width="1"/>
  <path d="M 322 108 L 336 108 L 350 108" fill="none" stroke="#94A3B8" stroke-linecap="round" stroke-width="1.5"/>
  <path d="M 350 108 L 343 112 L 343 104 Z" fill="#94A3B8" stroke="#94A3B8" stroke-width="1"/>
  <path d="M 264 146 L 264 160 L 264 168 L 264 176 L 264 190" fill="none" stroke="#94A3B8" stroke-linecap="round" stroke-width="1.5"/>
  <path d="M 264 190 L 260 183 L 268 183 Z" fill="#94A3B8" stroke="#94A3B8" stroke-width="1"/>
  <rect fill="#F8F9FA" height="76" rx="12" stroke="#E2E8F0" stroke-width="1.5" width="116" x="206" y="70"/>
  <path d="M 4 4 L 20 4 L 20 10 L 4 10 Z M 4 14 L 20 14 L 20 20 L 4 20 Z M 7 7 L 14 7 M 7 17 L 14 17 M 16.5 7 A 1 1 0 1 0 18.5 7 A 1 1 0 1 0 16.5 7 M 16.5 17 A 1 1 0 1 0 18.5 17 A 1 1 0 1 0 16.5 17" fill="none" stroke="#1F497D" stroke-width="1.35" transform="translate(252,84) scale(1.0000)"/>
  <text dominant-baseline="alphabetic" fill="#1E293B" font-family="Georgia, 'Times New Roman', serif" font-size="12" font-weight="600" text-anchor="middle" x="264" y="132">API Server</text>
  <rect fill="#F8F9FA" height="76" rx="12" stroke="#E2E8F0" stroke-width="1.5" width="116" x="350" y="70"/>
  <path d="M 4 7 A 8 2.5 0 0 1 20 7 A 8 2.5 0 0 1 4 7 L 4 17 A 8 2.5 0 0 0 20 17 L 20 7 M 4 12 A 8 2.5 0 0 1 20 12" fill="none" stroke="#1F497D" stroke-width="1.35" transform="translate(396,84) scale(1.0000)"/>
  <text dominant-baseline="alphabetic" fill="#1E293B" font-family="Georgia, 'Times New Roman', serif" font-size="12" font-weight="600" text-anchor="middle" x="408" y="132">Database</text>
  <rect fill="#F8F9FA" height="76" rx="12" stroke="#E2E8F0" stroke-width="1.5" width="116" x="62" y="70"/>
  <path d="M 2 12 A 10 10 0 1 0 22 12 A 10 10 0 1 0 2 12 M 12 2 A 15 10 0 0 1 12 22 A 15 10 0 0 1 12 2 M 4 8 L 20 8 M 4 16 L 20 16 M 12 2 L 12 22" fill="none" stroke="#1F497D" stroke-width="1.35" transform="translate(108,84) scale(1.0000)"/>
  <text dominant-baseline="alphabetic" fill="#1E293B" font-family="Georgia, 'Times New Roman', serif" font-size="12" font-weight="600" text-anchor="middle" x="120" y="132">Client</text>
  <rect fill="#F8F9FA" height="76" rx="12" stroke="#E2E8F0" stroke-width="1.5" width="116" x="206" y="190"/>
  <path d="M 4 5 L 20 5 L 20 19 L 4 19 Z M 8 12 A 4 4 0 1 0 16 12 A 4 4 0 1 0 8 12 M 10.5 12 A 1.5 1.5 0 1 0 13.5 12 A 1.5 1.5 0 1 0 10.5 12 M 6 16 L 10 16" fill="none" stroke="#1F497D" stroke-width="1.35" transform="translate(252,204) scale(1.0000)"/>
  <text dominant-baseline="alphabetic" fill="#1E293B" font-family="Georgia, 'Times New Roman', serif" font-size="12" font-weight="600" text-anchor="middle" x="264" y="252">Storage</text>
</svg>