<?xml version="1.0" encoding="UTF-8"?>
<svg height="310" version="1.1" viewBox="0 0 936 310" width="936" xmlns="http://www.w3.org/2000/svg">
  <rect fill="#F1F5F9" height="246" rx="8" stroke="#E2E8F0" stroke-width="1" width="200" x="32" y="32"/>
  <rect fill="#1F497D" height="48" rx="8" stroke="none" stroke-width="0" width="200" x="32" y="32"/>
  <rect fill="#1F497D" height="8" rx="0" stroke="none" stroke-width="0" width="200" x="32" y="72"/>
  <text dominant-baseline="alphabetic" fill="#F8FAFC" font-family="Georgia, 'Times New Roman', serif" font-size="12" font-weight="700" text-anchor="middle" x="132" y="60">Todo</text>
  <rect fill="#FFFFFF" height="34" rx="4" stroke="#E2E8F0" stroke-width="1" width="176" x="44" y="90"/>
  <text dominant-baseline="alphabetic" fill="#1E293B" font-family="Georgia, 'Times New Roman', serif" font-size="10" font-weight="400" text-anchor="start" x="58" y="109">Design API endpoints</text>
  <rect fill="#FFFFFF" height="34" rx="4" stroke="#E2E8F0" stroke-width="1" width="176" x="44" y="134"/>
  <text dominant-baseline="alphabetic" fill="#1E293B" font-family="Georgia, 'Times New Roman', serif" font-size="10" font-weight="400" text-anchor="start" x="58" y="153">Setup CI pipeline</text>
  <rect fill="#FFFFFF" height="34" rx="4" stroke="#E2E8F0" stroke-width="1" width="176" x="44" y="178"/>
  <text dominant-baseline="alphabetic" fill="#1E293B" font-family="Georgia, 'Times New Roman', serif" font-size="10" font-weight="400" text-anchor="start" x="58" y="197">Write test plan</text>
  <rect fill="#FFFFFF" height="34" rx="4" stroke="#E2E8F0" stroke-width="1" width="176" x="44" y="222"/>
  <text dominant-baseline="alphabetic" fill="#1E293B" font-family="Georgia, 'Times New Roman', serif" font-size="10" font-weight="400" text-anchor="start" x="58" y="241">Database schema</text>
  <rect fill="#F1F5F9" height="246" rx="8" stroke="#E2E8F0" stroke-width="1" width="200" x="256" y="32"/>
  <rect fill="#2E86AB" height="48" rx="8" stroke="none" stroke-width="0" width="200" x="256" y="32"/>
  <rect fill="#2E86AB" height="8" rx="0" stroke="none" stroke-width="0" width="200" x="256" y="72"/>
  <text dominant-baseline="alphabetic" fill="#F8FAFC" font-family="Georgia, 'Times New Roman', serif" font-size="12" font-weight="700" text-anchor="middle" x="356" y="60">In Progress</text>
  <rect fill="#FFFFFF" height="34" rx="4" stroke="#E2E8F0" stroke-width="1" width="176" x="268" y="90"/>
  <text dominant-baseline="alphabetic" fill="#1E293B" font-family="Georgia, 'Times New Roman', serif" font-size="10" font-weight="400" text-anchor="start" x="282" y="109">Build auth service</text>
  <rect fill="#FFFFFF" height="34" rx="4" stroke="#E2E8F0" stroke-width="1" width="176" x="268" y="134"/>
  <text dominant-baseline="alphabetic" fill="#1E293B" font-family="Georgia, 'Times New Roman', serif" font-size="10" font-weight="400" text-anchor="start" x="282" y="153">Implement logging</text>
  <rect fill="#F1F5F9" height="246" rx="8" stroke="#E2E8F0" stroke-width="1" width="200" x="480" y="32"/>
  <rect fill="#4CAF82" height="48" rx="8" stroke="none" stroke-width="0" width="200" x="480" y="32"/>
  <rect fill="#4CAF82" height="8" rx="0" stroke="none" stroke-width="0" width="200" x="480" y="72"/>
  <text dominant-baseline="alphabetic" fill="#F8FAFC" font-family="Georgia, 'Times New Roman', serif" font-size="12" font-weight="700" text-anchor="middle" x="580" y="60">Review</text>
  <rect fill="#FFFFFF" height="34" rx="4" stroke="#E2E8F0" stroke-width="1" width="176" x="492" y="90"/>
  <text dominant-baseline="alphabetic" fill="#1E293B" font-family="Georgia, 'Times New Roman', serif" font-size="10" font-weight="400" text-anchor="start" x="506" y="109">Code review — auth</text>
  <rect fill="#FFFFFF" height="34" rx="4" stroke="#E2E8F0" stroke-width="1" width="176" x="492" y="134"/>
  <text dominant-baseline="alphabetic" fill="#1E293B" font-family="Georgia, 'Times New Roman', serif" font-size="10" font-weight="400" text-anchor="start" x="506" y="153">Security audit</text>
  <rect fill="#F1F5F9" height="246" rx="8" stroke="#E2E8F0" stroke-width="1" width="200" x="704" y="32"/>
  <rect fill="#D97706" height="48" rx="8" stroke="none" stroke-width="0" width="200" x="704" y="32"/>
  <rect fill="#D97706" height="8" rx="0" stroke="none" stroke-width="0" width="200" x="704" y="72"/>
  <text dominant-baseline="alphabetic" fill="#F8FAFC" font-family="Georgia, 'Times New Roman', serif" font-size="12" font-weight="700" text-anchor="middle" x="804" y="60">Done</text>
  <rect fill="#FFFFFF" height="34" rx="4" stroke="#E2E8F0" stroke-width="1" width="176" x="716" y="90"/>
  <text dominant-baseline="alphabetic" fill="#1E293B" font-family="Georgia, 'Times New Roman', serif" font-size="10" font-weight="400" text-anchor="start" x="730" y="109">Write project spec</text>
  <rect fill="#FFFFFF" height="34" rx="4" stroke="#E2E8F0" stroke-width="1" width="176" x="716" y="134"/>
  <text dominant-baseline="alphabetic" fill="#1E293B" font-family="Georgia, 'Times New Roman', serif" font-size="10" font-weight="400" text-anchor="start" x="730" y="153">Plan sprint 1</text>
  <rect fill="#FFFFFF" height="34" rx="4" stroke="#E2E8F0" stroke-width="1" width="176" x="716" y="178"/>
  <text dominant-baseline="alphabetic" fill="#1E293B" font-family="Georgia, 'Times New Roman', serif" font-size="10" font-weight="400" text-anchor="start" x="730" y="197">Setup repo</text>
</svg>