<?xml version="1.0" encoding="UTF-8"?>
<svg height="464" version="1.1" viewBox="0 0 1219 464" width="1219" xmlns="http://www.w3.org/2000/svg">
  <line opacity="1" stroke="#1F497D" stroke-width="3" x1="237" x2="1137" y1="82" y2="82"/>
  <line opacity="1" stroke="#2E86AB" stroke-width="3" x1="337" x2="937" y1="182" y2="182"/>
  <line opacity="1" stroke="#4CAF82" stroke-width="3" x1="537" x2="637" y1="282" y2="282"/>
  <line opacity="1" stroke="#D97706" stroke-width="3" x1="837" x2="837" y1="382" y2="382"/>
  <path d="M 237 82 C 237 132 337 132 337 182" fill="none" opacity="1" stroke="#2E86AB" stroke-linecap="round" stroke-width="3"/>
  <path d="M 437 182 C 437 232 537 232 537 282" fill="none" opacity="1" stroke="#4CAF82" stroke-linecap="round" stroke-width="3"/>
  <path d="M 737 182 C 737 282 837 282 837 382" fill="none" opacity="1" stroke="#D97706" stroke-linecap="round" stroke-width="3"/>
  <path d="M 637 282 C 637 232 737 232 737 182" fill="none" opacity="1" stroke="#4CAF82" stroke-linecap="round" stroke-width="3"/>
  <path d="M 837 382 C 837 282 937 282 937 182" fill="none" opacity="1" stroke="#D97706" stroke-linecap="round" stroke-width="3"/>
  <path d="M 937 182 C 937 132 1037 132 1037 82" fill="none" opacity="1" stroke="#2E86AB" stroke-linecap="round" stroke-width="3"/>
  <circle cx="237" cy="82" fill="#1F497D" r="8" stroke="#1F497D" stroke-width="2"/>
  <circle cx="337" cy="182" fill="#2E86AB" r="8" stroke="#2E86AB" stroke-width="2"/>
  <circle cx="437" cy="182" fill="#2E86AB" r="8" stroke="#2E86AB" stroke-width="2"/>
  <circle cx="537" cy="282" fill="#4CAF82" r="8" stroke="#4CAF82" stroke-width="2"/>
  <circle cx="637" cy="282" fill="#4CAF82" r="8" stroke="#4CAF82" stroke-width="2"/>
  <circle cx="737" cy="182" fill="#FFFFFF" r="8" stroke="#2E86AB" stroke-width="4"/>
  <circle cx="837" cy="382" fill="#D97706" r="8" stroke="#D97706" stroke-width="2"/>
  <circle cx="937" cy="182" fill="#FFFFFF" r="8" stroke="#2E86AB" stroke-width="4"/>
  <circle cx="1037" cy="82" fill="#FFFFFF" r="8" stroke="#1F497D" stroke-width="4"/>
  <rect fill="#1F497D" height="18" rx="2" stroke="#1F497D" stroke-width="2" width="18" x="1128" y="73"/>
  <rect fill="#1F497D" height="22" rx="11" width="50" x="85" y="71"/>
  <text dominant-baseline="middle" fill="#ffffff" font-family="Georgia, 'Times New Roman', serif" font-size="12" font-weight="700" text-anchor="middle" x="110" y="82">main</text>
  <rect fill="#2E86AB" height="22" rx="11" width="66" x="77" y="171"/>
  <text dominant-baseline="middle" fill="#ffffff" font-family="Georgia, 'Times New Roman', serif" font-size="12" font-weight="700" text-anchor="middle" x="110" y="182">develop</text>
  <rect fill="#4CAF82" height="22" rx="11" width="90" x="65" y="271"/>
  <text dominant-baseline="middle" fill="#ffffff" font-family="Georgia, 'Times New Roman', serif" font-size="12" font-weight="700" text-anchor="middle" x="110" y="282">feature/auth</text>
  <rect fill="#D97706" height="22" rx="11" width="119" x="50" y="371"/>
  <text dominant-baseline="middle" fill="#ffffff" font-family="Georgia, 'Times New Roman', serif" font-size="12" font-weight="700" text-anchor="middle" x="110" y="382">feature/payments</text>
  <text dominant-baseline="alphabetic" fill="#64748B" font-family="Georgia, 'Times New Roman', serif" font-size="10" font-weight="500" text-anchor="middle" x="237" y="106">initial</text>
  <path d="M 234 54 L 226 54 Q 222 54 222 50 L 222 42 Q 222 38 226 38 L 249 38 Q 253 38 253 42 L 253 50 Q 253 54 249 54 L 240 54 L 237 60 Z" fill="#F1F5F9" stroke="#94A3B8" stroke-width="1"/>
  <text dominant-baseline="middle" fill="#1E293B" font-family="Georgia, 'Times New Roman', serif" font-size="8" font-weight="700" text-anchor="middle" x="237" y="46">v0.1</text>
  <text dominant-baseline="alphabetic" fill="#64748B" font-family="Georgia, 'Times New Roman', serif" font-size="10" font-weight="500" text-anchor="middle" x="337" y="206">setup-ci</text>
  <text dominant-baseline="alphabetic" fill="#64748B" font-family="Georgia, 'Times New Roman', serif" font-size="10" font-weight="500" text-anchor="middle" x="437" y="206">add-tests</text>
  <text dominant-baseline="alphabetic" fill="#64748B" font-family="Georgia, 'Times New Roman', serif" font-size="10" font-weight="500" text-anchor="middle" x="537" y="306">auth-model</text>
  <text dominant-baseline="alphabetic" fill="#64748B" font-family="Georgia, 'Times New Roman', serif" font-size="10" font-weight="500" text-anchor="middle" x="637" y="306">auth-api</text>
  <text dominant-baseline="alphabetic" fill="#64748B" font-family="Georgia, 'Times New Roman', serif" font-size="10" font-weight="500" text-anchor="middle" x="737" y="206">merge-auth</text>
  <text dominant-baseline="alphabetic" fill="#64748B" font-family="Georgia, 'Times New Roman', serif" font-size="10" font-weight="500" text-anchor="middle" x="837" y="406">payment-model</text>
  <text dominant-baseline="alphabetic" fill="#64748B" font-family="Georgia, 'Times New Roman', serif" font-size="10" font-weight="500" text-anchor="middle" x="937" y="206">merge-payments</text>
  <text dominant-baseline="alphabetic" fill="#64748B" font-family="Georgia, 'Times New Roman', serif" font-size="10" font-weight="500" text-anchor="middle" x="1037" y="106">release-1.0</text>
  <path d="M 1034 54 L 1026 54 Q 1022 54 1022 50 L 1022 42 Q 1022 38 1026 38 L 1049 38 Q 1053 38 1053 42 L 1053 50 Q 1053 54 1049 54 L 1040 54 L 1037 60 Z" fill="#F1F5F9" stroke="#94A3B8" stroke-width="1"/>
  <text dominant-baseline="middle" fill="#1E293B" font-family="Georgia, 'Times New Roman', serif" font-size="8" font-weight="700" text-anchor="middle" x="1037" y="46">v1.0</text>
  <text dominant-baseline="alphabetic" fill="#64748B" font-family="Georgia, 'Times New Roman', serif" font-size="10" font-weight="500" text-anchor="middle" x="1137" y="106">hotfix-typo</text>
</svg>