<?xml version="1.0" encoding="UTF-8"?>
<svg height="298" version="1.1" viewBox="0 0 520 298" width="520" xmlns="http://www.w3.org/2000/svg">
  <rect fill="#F1F5F9" height="54" rx="4" stroke="#1F497D" stroke-width="1.5" width="128" x="48" y="48"/>
  <text dominant-baseline="alphabetic" fill="#1E293B" font-family="Georgia, 'Times New Roman', serif" font-size="14" font-weight="600" text-anchor="middle" x="112" y="79">Frontend</text>
  <rect fill="#F1F5F9" height="54" rx="4" stroke="#1F497D" stroke-width="1.5" width="276" x="196" y="48"/>
  <text dominant-baseline="alphabetic" fill="#1E293B" font-family="Georgia, 'Times New Roman', serif" font-size="14" font-weight="600" text-anchor="middle" x="334" y="79">API Layer</text>
  <rect fill="#F1F5F9" height="54" rx="4" stroke="#1F497D" stroke-width="1.5" width="128" x="48" y="122"/>
  <text dominant-baseline="alphabetic" fill="#1E293B" font-family="Georgia, 'Times New Roman', serif" font-size="14" font-weight="600" text-anchor="middle" x="112" y="153">Auth</text>
  <rect fill="#F1F5F9" height="54" rx="4" stroke="#1F497D" stroke-width="1.5" width="276" x="196" y="122"/>
  <text dominant-baseline="alphabetic" fill="#1E293B" font-family="Georgia, 'Times New Roman', serif" font-size="14" font-weight="600" text-anchor="middle" x="334" y="153">Database</text>
  <rect fill="#F1F5F9" height="54" rx="4" stroke="#1F497D" stroke-width="1.5" width="128" x="48" y="196"/>
  <text dominant-baseline="alphabetic" fill="#1E293B" font-family="Georgia, 'Times New Roman', serif" font-size="14" font-weight="600" text-anchor="middle" x="112" y="227">Cache</text>
  <rect fill="#F1F5F9" height="54" rx="4" stroke="#1F497D" stroke-width="1.5" width="128" x="196" y="196"/>
  <text dominant-baseline="alphabetic" fill="#1E293B" font-family="Georgia, 'Times New Roman', serif" font-size="14" font-weight="600" text-anchor="middle" x="260" y="227">Queue</text>
  <rect fill="#F1F5F9" height="54" rx="4" stroke="#1F497D" stroke-width="1.5" width="128" x="344" y="196"/>
  <text dominant-baseline="alphabetic" fill="#1E293B" font-family="Georgia, 'Times New Roman', serif" font-size="14" font-weight="600" text-anchor="middle" x="408" y="227">Worker</text>
  <line stroke="#94A3B8" stroke-width="1.5" x1="186" x2="186" y1="75" y2="75"/>
  <path d="M 196 75 L 189 79 L 189 71 Z" fill="#94A3B8" stroke="#94A3B8" stroke-width="1"/>
  <line stroke="#94A3B8" stroke-width="1.5" x1="334" x2="334" y1="112" y2="112"/>
  <path d="M 334 122 L 330 115 L 338 115 Z" fill="#94A3B8" stroke="#94A3B8" stroke-width="1"/>
  <line stroke="#94A3B8" stroke-width="1.5" x1="186" x2="186" y1="149" y2="149"/>
  <path d="M 196 149 L 189 153 L 189 145 Z" fill="#94A3B8" stroke="#94A3B8" stroke-width="1"/>
  <line stroke="#94A3B8" stroke-width="1.5" x1="186" x2="186" y1="223" y2="223"/>
  <path d="M 196 223 L 189 227 L 189 219 Z" fill="#94A3B8" stroke="#94A3B8" stroke-width="1"/>
</svg>