<?xml version="1.0" encoding="UTF-8"?>
<svg height="690" version="1.1" viewBox="0 0 1120 690" width="1120" xmlns="http://www.w3.org/2000/svg">
  <rect fill="#F1F5F9" height="432" opacity="0.45" rx="12" width="1024" x="48" y="48"/>
  <path d="M 60 48 L 1060 48 A 12 12 0 0 1 1072 60 L 1072 468 A 12 12 0 0 1 1060 480 L 60 480 A 12 12 0 0 1 48 468 L 48 60 A 12 12 0 0 1 60 48 Z" fill="none" stroke="#94A3B8" stroke-dasharray="8,5" stroke-linecap="round" stroke-width="1.5"/>
  <text dominant-baseline="middle" fill="#1E293B" font-family="Georgia, 'Times New Roman', serif" font-size="13" font-weight="700" text-anchor="start" x="72" y="66">BankBoundary0</text>
  <rect fill="#0D2B4E" height="102" rx="8" stroke="#1F497D" stroke-width="1.5" width="172" x="230" y="104"/>
  <text dominant-baseline="alphabetic" fill="#6B92BF" font-family="Georgia, 'Times New Roman', serif" font-size="8" font-weight="500" text-anchor="middle" x="316" y="126">«Person»</text>
  <text dominant-baseline="alphabetic" fill="#F8FAFC" font-family="Georgia, 'Times New Roman', serif" font-size="12" font-weight="700" text-anchor="middle" x="316" y="149">Banking Customer A</text>
  <text dominant-baseline="alphabetic" fill="#F8FAFC" font-family="Georgia, 'Times New Roman', serif" font-size="8" font-weight="500" text-anchor="middle" x="316" y="168">A customer of the bank, with personal</text>
  <text dominant-baseline="alphabetic" fill="#F8FAFC" font-family="Georgia, 'Times New Roman', serif" font-size="8" font-weight="500" text-anchor="middle" x="316" y="184">bank accounts.</text>
  <rect fill="#0D2B4E" height="66" rx="8" stroke="#1F497D" stroke-width="1.5" width="160" x="644" y="122"/>
  <text dominant-baseline="alphabetic" fill="#6B92BF" font-family="Georgia, 'Times New Roman', serif" font-size="8" font-weight="500" text-anchor="middle" x="724" y="144">«Person»</text>
  <text dominant-baseline="alphabetic" fill="#F8FAFC" font-family="Georgia, 'Times New Roman', serif" font-size="12" font-weight="700" text-anchor="middle" x="724" y="167">Banking Customer B</text>
  <rect fill="#CBD5E1" height="102" rx="8" stroke="#94A3B8" stroke-width="1.5" width="160" x="888" y="104"/>
  <text dominant-baseline="alphabetic" fill="#1E293B" font-family="Georgia, 'Times New Roman', serif" font-size="8" font-weight="500" text-anchor="middle" x="968" y="126">«Person»</text>
  <text dominant-baseline="alphabetic" fill="#1E293B" font-family="Georgia, 'Times New Roman', serif" font-size="12" font-weight="700" text-anchor="middle" x="968" y="149">Banking Customer C</text>
  <text dominant-baseline="alphabetic" fill="#1E293B" font-family="Georgia, 'Times New Roman', serif" font-size="8" font-weight="500" text-anchor="middle" x="968" y="168">A customer of the bank using an</text>
  <text dominant-baseline="alphabetic" fill="#1E293B" font-family="Georgia, 'Times New Roman', serif" font-size="8" font-weight="500" text-anchor="middle" x="968" y="184">external partner portal.</text>
  <rect fill="#F1F5F9" height="194" opacity="0.45" rx="12" width="487" x="72" y="266"/>
  <path d="M 84 266 L 547 266 A 12 12 0 0 1 559 278 L 559 448 A 12 12 0 0 1 547 460 L 84 460 A 12 12 0 0 1 72 448 L 72 278 A 12 12 0 0 1 84 266 Z" fill="none" stroke="#94A3B8" stroke-dasharray="8,5" stroke-linecap="round" stroke-width="1.5"/>
  <text dominant-baseline="middle" fill="#1E293B" font-family="Georgia, 'Times New Roman', serif" font-size="13" font-weight="700" text-anchor="start" x="96" y="284">BankBoundary</text>
  <rect fill="#1F497D" height="102" rx="8" stroke="#0D2B4E" stroke-width="1.5" width="176" x="96" y="330"/>
  <text dominant-baseline="alphabetic" fill="#6B92BF" font-family="Georgia, 'Times New Roman', serif" font-size="8" font-weight="500" text-anchor="middle" x="184" y="352">«System»</text>
  <text dominant-baseline="alphabetic" fill="#F8FAFC" font-family="Georgia, 'Times New Roman', serif" font-size="12" font-weight="700" text-anchor="middle" x="184" y="375">Email System</text>
  <text dominant-baseline="alphabetic" fill="#F8FAFC" font-family="Georgia, 'Times New Roman', serif" font-size="8" font-weight="500" text-anchor="middle" x="184" y="394">The internal Microsoft Exchange e-mail</text>
  <text dominant-baseline="alphabetic" fill="#F8FAFC" font-family="Georgia, 'Times New Roman', serif" font-size="8" font-weight="500" text-anchor="middle" x="184" y="410">system.</text>
  <rect fill="#CBD5E1" height="118" rx="8" stroke="#94A3B8" stroke-width="1.5" width="183" x="352" y="322"/>
  <text dominant-baseline="alphabetic" fill="#1E293B" font-family="Georgia, 'Times New Roman', serif" font-size="8" font-weight="500" text-anchor="middle" x="444" y="344">«System»</text>
  <text dominant-baseline="alphabetic" fill="#1E293B" font-family="Georgia, 'Times New Roman', serif" font-size="12" font-weight="700" text-anchor="middle" x="444" y="367">Mainframe Banking System</text>
  <text dominant-baseline="alphabetic" fill="#1E293B" font-family="Georgia, 'Times New Roman', serif" font-size="8" font-weight="500" text-anchor="middle" x="444" y="386">Stores all of the core banking</text>
  <text dominant-baseline="alphabetic" fill="#1E293B" font-family="Georgia, 'Times New Roman', serif" font-size="8" font-weight="500" text-anchor="middle" x="444" y="402">information about customers,</text>
  <text dominant-baseline="alphabetic" fill="#1E293B" font-family="Georgia, 'Times New Roman', serif" font-size="8" font-weight="500" text-anchor="middle" x="444" y="418">accounts, transactions, etc.</text>
  <rect fill="#1F497D" height="118" rx="8" stroke="#0D2B4E" stroke-width="1.5" width="169" x="639" y="304"/>
  <text dominant-baseline="alphabetic" fill="#6B92BF" font-family="Georgia, 'Times New Roman', serif" font-size="8" font-weight="500" text-anchor="middle" x="724" y="326">«System»</text>
  <text dominant-baseline="alphabetic" fill="#F8FAFC" font-family="Georgia, 'Times New Roman', serif" font-size="12" font-weight="700" text-anchor="middle" x="724" y="349">Internet Banking System</text>
  <text dominant-baseline="alphabetic" fill="#F8FAFC" font-family="Georgia, 'Times New Roman', serif" font-size="8" font-weight="500" text-anchor="middle" x="724" y="368">Allows customers to view information</text>
  <text dominant-baseline="alphabetic" fill="#F8FAFC" font-family="Georgia, 'Times New Roman', serif" font-size="8" font-weight="500" text-anchor="middle" x="724" y="384">about their bank accounts, and make</text>
  <text dominant-baseline="alphabetic" fill="#F8FAFC" font-family="Georgia, 'Times New Roman', serif" font-size="8" font-weight="500" text-anchor="middle" x="724" y="400">payments.</text>
  <rect fill="#CBD5E1" height="102" rx="8" stroke="#94A3B8" stroke-width="1.5" width="160" x="356" y="540"/>
  <text dominant-baseline="alphabetic" fill="#1E293B" font-family="Georgia, 'Times New Roman', serif" font-size="8" font-weight="500" text-anchor="middle" x="436" y="562">«Person»</text>
  <text dominant-baseline="alphabetic" fill="#1E293B" font-family="Georgia, 'Times New Roman', serif" font-size="12" font-weight="700" text-anchor="middle" x="436" y="585">Banking Customer D</text>
  <text dominant-baseline="alphabetic" fill="#1E293B" font-family="Georgia, 'Times New Roman', serif" font-size="8" font-weight="500" text-anchor="middle" x="436" y="604">A customer of the bank,</text>
  <text dominant-baseline="alphabetic" fill="#1E293B" font-family="Georgia, 'Times New Roman', serif" font-size="8" font-weight="500" text-anchor="middle" x="436" y="620">with personal bank accounts.</text>
  <rect fill="#CBD5E1" height="102" rx="8" stroke="#94A3B8" stroke-width="1.5" width="169" x="596" y="540"/>
  <text dominant-baseline="alphabetic" fill="#1E293B" font-family="Georgia, 'Times New Roman', serif" font-size="8" font-weight="500" text-anchor="middle" x="681" y="562">«System»</text>
  <text dominant-baseline="alphabetic" fill="#1E293B" font-family="Georgia, 'Times New Roman', serif" font-size="12" font-weight="700" text-anchor="middle" x="681" y="585">Authentication Provider</text>
  <text dominant-baseline="alphabetic" fill="#1E293B" font-family="Georgia, 'Times New Roman', serif" font-size="8" font-weight="500" text-anchor="middle" x="681" y="604">The external Authentication Provider,</text>
  <text dominant-baseline="alphabetic" fill="#1E293B" font-family="Georgia, 'Times New Roman', serif" font-size="8" font-weight="500" text-anchor="middle" x="681" y="620">Okta.</text>
  <path d="M 316 206 V 255 H 700 V 292" fill="none" stroke="#94A3B8" stroke-linecap="round" stroke-width="1.5"/>
  <path d="M 724 188 V 292" fill="none" stroke="#94A3B8" stroke-linecap="round" stroke-width="1.5"/>
  <path d="M 888 155 H 848 V 363 H 820" fill="none" stroke="#94A3B8" stroke-linecap="round" stroke-width="1.5"/>
  <path d="M 748 304 V 317 H 184 V 318" fill="none" stroke="#94A3B8" stroke-linecap="round" stroke-width="1.5"/>
  <path d="M 639 363 H 587 V 381 H 547" fill="none" stroke="#94A3B8" stroke-linecap="round" stroke-width="1.5"/>
  <path d="M 516 591 H 584" fill="none" stroke="#94A3B8" stroke-linecap="round" stroke-width="1.5"/>
  <path d="M 693 292 L 700 304 L 707 292" fill="none" stroke="#94A3B8" stroke-linecap="round" stroke-width="1.5"/>
  <path d="M 717 292 L 724 304 L 731 292" fill="none" stroke="#94A3B8" stroke-linecap="round" stroke-width="1.5"/>
  <path d="M 820 356 L 808 363 L 820 370" fill="none" stroke="#94A3B8" stroke-linecap="round" stroke-width="1.5"/>
  <path d="M 177 318 L 184 330 L 191 318" fill="none" stroke="#94A3B8" stroke-linecap="round" stroke-width="1.5"/>
  <path d="M 547 374 L 535 381 L 547 388" fill="none" stroke="#94A3B8" stroke-linecap="round" stroke-width="1.5"/>
  <path d="M 584 598 L 596 591 L 584 584" fill="none" stroke="#94A3B8" stroke-linecap="round" stroke-width="1.5"/>
  <rect fill="#ffffff" height="20" opacity="0.95" rx="4" stroke="none" stroke-width="0" width="33" x="492" y="223"/>
  <text dominant-baseline="middle" fill="#64748B" font-family="Georgia, 'Times New Roman', serif" font-size="10" font-weight="600" text-anchor="middle" x="508" y="233">Uses</text>
  <rect fill="#ffffff" height="20" opacity="0.95" rx="4" stroke="none" stroke-width="0" width="33" x="730" y="236"/>
  <text dominant-baseline="middle" fill="#64748B" font-family="Georgia, 'Times New Roman', serif" font-size="10" font-weight="600" text-anchor="middle" x="746" y="246">Uses</text>
  <rect fill="#ffffff" height="20" opacity="0.95" rx="4" stroke="none" stroke-width="0" width="33" x="854" y="249"/>
  <text dominant-baseline="middle" fill="#64748B" font-family="Georgia, 'Times New Roman', serif" font-size="10" font-weight="600" text-anchor="middle" x="870" y="259">Uses</text>
  <rect fill="#ffffff" height="32" opacity="0.95" rx="4" stroke="none" stroke-width="0" width="73" x="430" y="284"/>
  <text dominant-baseline="middle" fill="#64748B" font-family="Georgia, 'Times New Roman', serif" font-size="10" font-weight="600" text-anchor="middle" x="466" y="295">Sends e-mails</text>
  <text dominant-baseline="middle" fill="#64748B" font-family="Georgia, 'Times New Roman', serif" font-size="8" font-weight="500" text-anchor="middle" x="466" y="309">SMTP</text>
  <rect fill="#ffffff" height="20" opacity="0.95" rx="4" stroke="none" stroke-width="0" width="33" x="597" y="331"/>
  <text dominant-baseline="middle" fill="#64748B" font-family="Georgia, 'Times New Roman', serif" font-size="10" font-weight="600" text-anchor="middle" x="613" y="341">Uses</text>
  <rect fill="#ffffff" height="32" opacity="0.95" rx="4" stroke="none" stroke-width="0" width="67" x="523" y="553"/>
  <text dominant-baseline="middle" fill="#64748B" font-family="Georgia, 'Times New Roman', serif" font-size="10" font-weight="600" text-anchor="middle" x="556" y="564">Authenticate</text>
  <text dominant-baseline="middle" fill="#64748B" font-family="Georgia, 'Times New Roman', serif" font-size="8" font-weight="500" text-anchor="middle" x="556" y="578">REST</text>
</svg>