<?xml version="1.0" encoding="UTF-8"?>
<svg height="515" version="1.1" viewBox="0 0 1400 515" width="1400" xmlns="http://www.w3.org/2000/svg">
  <rect fill="#FFFFFF" height="515" width="1400" x="0" y="0"/>
  <text dominant-baseline="alphabetic" fill="#1E293B" font-family="Georgia, 'Times New Roman', serif" font-size="26.67" font-weight="700" text-anchor="middle" x="700" y="48">Platform Modernisation Roadmap 2025</text>
  <rect fill="#EEF2FF" height="124" opacity="1" width="1256" x="120" y="75"/>
  <text dominant-baseline="middle" fill="#374151" font-family="Georgia, 'Times New Roman', serif" font-size="13.33" font-weight="400" text-anchor="end" x="112" y="137">Infrastructure</text>
  <rect fill="#FAFAFA" height="124" opacity="1" width="1256" x="120" y="199"/>
  <text dominant-baseline="middle" fill="#374151" font-family="Georgia, 'Times New Roman', serif" font-size="13.33" font-weight="400" text-anchor="end" x="112" y="261">Backend</text>
  <rect fill="#EEF2FF" height="96" opacity="1" width="1256" x="120" y="323"/>
  <text dominant-baseline="middle" fill="#374151" font-family="Georgia, 'Times New Roman', serif" font-size="13.33" font-weight="400" text-anchor="end" x="112" y="371">Frontend</text>
  <rect fill="#FAFAFA" height="40" opacity="1" width="1256" x="120" y="419"/>
  <text dominant-baseline="middle" fill="#374151" font-family="Georgia, 'Times New Roman', serif" font-size="13.33" font-weight="400" text-anchor="end" x="112" y="439">Release</text>
  <line opacity="0.5" stroke="#AAAACC" stroke-width="0.75" x1="306" x2="306" y1="75" y2="459"/>
  <line opacity="0.5" stroke="#AAAACC" stroke-width="0.75" x1="505" x2="505" y1="75" y2="459"/>
  <line opacity="0.5" stroke="#AAAACC" stroke-width="0.75" x1="727" x2="727" y1="75" y2="459"/>
  <line opacity="0.5" stroke="#AAAACC" stroke-width="0.75" x1="941" x2="941" y1="75" y2="459"/>
  <line opacity="0.5" stroke="#AAAACC" stroke-width="0.75" x1="1162" x2="1162" y1="75" y2="459"/>
  <line opacity="0.5" stroke="#AAAACC" stroke-width="0.75" x1="1376" x2="1376" y1="75" y2="459"/>
  <line opacity="0.5" stroke="#9999BB" stroke-width="1" x1="120" x2="120" y1="75" y2="459"/>
  <rect fill="#C0C7D4" height="20" rx="3" stroke="#8E9AAF" stroke-width="0.5" width="214" x="120" y="85"/>
  <text dominant-baseline="middle" fill="#374151" font-family="Georgia, 'Times New Roman', serif" font-size="11.33" font-weight="600" text-anchor="start" x="124" y="95">Containerise services</text>
  <rect fill="#C0C7D4" height="20" rx="3" stroke="#8E9AAF" stroke-width="0.5" width="321" x="334" y="113"/>
  <text dominant-baseline="middle" fill="#374151" font-family="Georgia, 'Times New Roman', serif" font-size="11.33" font-weight="600" text-anchor="start" x="338" y="123">Kubernetes migration</text>
  <rect fill="#7B9FE0" height="20" rx="3" stroke="#3B5FC0" stroke-width="0.5" width="143" x="655" y="141"/>
  <text dominant-baseline="middle" fill="#0E2F68" font-family="Georgia, 'Times New Roman', serif" font-size="11.33" font-weight="600" text-anchor="start" x="659" y="151">CI/CD pipeline upgrade</text>
  <rect fill="#C8D9F5" height="20" rx="3" stroke="#7B9FE0" stroke-width="0.5" width="178" x="798" y="169"/>
  <text dominant-baseline="middle" fill="#1E3A6E" font-family="Georgia, 'Times New Roman', serif" font-size="11.33" font-weight="600" text-anchor="start" x="802" y="179">Monitoring &amp; alerting</text>
  <rect fill="#C0C7D4" height="20" rx="3" stroke="#8E9AAF" stroke-width="0.5" width="178" x="120" y="209"/>
  <text dominant-baseline="middle" fill="#374151" font-family="Georgia, 'Times New Roman', serif" font-size="11.33" font-weight="600" text-anchor="start" x="124" y="219">API gateway v2</text>
  <rect fill="#C0C7D4" height="20" rx="3" stroke="#8E9AAF" stroke-width="0.5" width="143" x="298" y="237"/>
  <text dominant-baseline="middle" fill="#374151" font-family="Georgia, 'Times New Roman', serif" font-size="11.33" font-weight="600" text-anchor="start" x="302" y="247">Auth service refactor</text>
  <rect fill="#7B9FE0" height="20" rx="3" stroke="#3B5FC0" stroke-width="0.5" width="214" x="441" y="265"/>
  <text dominant-baseline="middle" fill="#0E2F68" font-family="Georgia, 'Times New Roman', serif" font-size="11.33" font-weight="600" text-anchor="start" x="445" y="275">Event streaming setup</text>
  <rect fill="#C8D9F5" height="20" rx="3" stroke="#7B9FE0" stroke-width="0.5" width="179" x="655" y="293"/>
  <text dominant-baseline="middle" fill="#1E3A6E" font-family="Georgia, 'Times New Roman', serif" font-size="11.33" font-weight="600" text-anchor="start" x="659" y="303">GraphQL layer</text>
  <rect fill="#C0C7D4" height="20" rx="3" stroke="#8E9AAF" stroke-width="0.5" width="285" x="306" y="333"/>
  <text dominant-baseline="middle" fill="#374151" font-family="Georgia, 'Times New Roman', serif" font-size="11.33" font-weight="600" text-anchor="start" x="310" y="343">Design system v2</text>
  <rect fill="#7B9FE0" height="20" rx="3" stroke="#3B5FC0" stroke-width="0.5" width="250" x="591" y="361"/>
  <text dominant-baseline="middle" fill="#0E2F68" font-family="Georgia, 'Times New Roman', serif" font-size="11.33" font-weight="600" text-anchor="start" x="595" y="371">Component migration</text>
  <rect fill="#C8D9F5" height="20" rx="3" stroke="#7B9FE0" stroke-width="0.5" width="107" x="841" y="389"/>
  <text dominant-baseline="middle" fill="#1E3A6E" font-family="Georgia, 'Times New Roman', serif" font-size="11.33" font-weight="600" text-anchor="start" x="845" y="399">Performance audit</text>
  <path d="M 1041 431 L 1049 439 L 1041 447 L 1033 439 Z" fill="#E53E3E" stroke="#9B2C2C" stroke-width="1.5"/>
  <text dominant-baseline="middle" fill="#1A0000" font-family="Georgia, 'Times New Roman', serif" font-size="11.33" font-weight="600" text-anchor="start" x="1057" y="439">Beta launch</text>
  <path d="M 1376 431 L 1384 439 L 1376 447 L 1368 439 Z" fill="#E53E3E" stroke="#9B2C2C" stroke-width="1.5"/>
  <text dominant-baseline="middle" fill="#1A0000" font-family="Georgia, 'Times New Roman', serif" font-size="11.33" font-weight="600" text-anchor="end" x="1360" y="439">Public GA</text>
  <line stroke="#374151" stroke-width="1" x1="120" x2="1376" y1="459" y2="459"/>
  <line stroke="#374151" stroke-width="1" x1="306" x2="306" y1="459" y2="464"/>
  <text dominant-baseline="alphabetic" fill="#64748B" font-family="Georgia, 'Times New Roman', serif" font-size="10.67" font-weight="400" text-anchor="middle" x="306" y="477">2025-02-01</text>
  <line stroke="#374151" stroke-width="1" x1="505" x2="505" y1="459" y2="464"/>
  <text dominant-baseline="alphabetic" fill="#64748B" font-family="Georgia, 'Times New Roman', serif" font-size="10.67" font-weight="400" text-anchor="middle" x="505" y="477">2025-03-01</text>
  <line stroke="#374151" stroke-width="1" x1="727" x2="727" y1="459" y2="464"/>
  <text dominant-baseline="alphabetic" fill="#64748B" font-family="Georgia, 'Times New Roman', serif" font-size="10.67" font-weight="400" text-anchor="middle" x="727" y="477">2025-04-01</text>
  <line stroke="#374151" stroke-width="1" x1="941" x2="941" y1="459" y2="464"/>
  <text dominant-baseline="alphabetic" fill="#64748B" font-family="Georgia, 'Times New Roman', serif" font-size="10.67" font-weight="400" text-anchor="middle" x="941" y="477">2025-05-01</text>
  <line stroke="#374151" stroke-width="1" x1="1162" x2="1162" y1="459" y2="464"/>
  <text dominant-baseline="alphabetic" fill="#64748B" font-family="Georgia, 'Times New Roman', serif" font-size="10.67" font-weight="400" text-anchor="middle" x="1162" y="477">2025-06-01</text>
  <line stroke="#374151" stroke-width="1" x1="1376" x2="1376" y1="459" y2="464"/>
  <text dominant-baseline="alphabetic" fill="#64748B" font-family="Georgia, 'Times New Roman', serif" font-size="10.67" font-weight="400" text-anchor="middle" x="1376" y="477">2025-07-01</text>
</svg>