<?xml version="1.0" encoding="UTF-8"?>
<svg height="910.13" version="1.1" viewBox="0 0 1200 910.13" width="1200" xmlns="http://www.w3.org/2000/svg">
  <rect fill="#FFFFFF" height="910.13" width="1200" x="0" y="0"/>
  <rect fill="#1F497D" height="458" opacity="0.04" width="249" x="140" y="267.86"/>
  <text dominant-baseline="alphabetic" fill="#1F497D" font-family="DejaVu Sans, Arial, Helvetica, sans-serif" font-size="12" font-weight="700" opacity="0.7" text-anchor="start" x="144" y="283.86">Foundation Phase</text>
  <text dominant-baseline="alphabetic" fill="#1F497D" font-family="DejaVu Sans, Arial, Helvetica, sans-serif" font-size="12" font-weight="700" opacity="0.7" text-anchor="start" x="396" y="283.86">Build Phase</text>
  <rect fill="#1F497D" height="458" opacity="0.04" width="513" x="647" y="267.86"/>
  <text dominant-baseline="alphabetic" fill="#1F497D" font-family="DejaVu Sans, Arial, Helvetica, sans-serif" font-size="12" font-weight="700" opacity="0.7" text-anchor="start" x="651" y="283.86">Scale Phase</text>
  <text dominant-baseline="alphabetic" fill="#111111" font-family="DejaVu Sans, Arial, Helvetica, sans-serif" font-size="26.67" font-weight="700" text-anchor="middle" x="600" y="86.67">Enterprise Transformation Programme</text>
  <text dominant-baseline="alphabetic" fill="#111111" font-family="DejaVu Sans, Arial, Helvetica, sans-serif" font-size="17.33" font-weight="400" opacity="0.75" text-anchor="middle" x="600" y="118.33">2026 Execution Roadmap</text>
  <line opacity="0.35" stroke="#333333" stroke-width="0.5" x1="140" x2="1160" y1="130" y2="130"/>
  <line stroke="#333333" stroke-width="1" x1="140" x2="1160" y1="168" y2="168"/>
  <line stroke="#333333" stroke-width="1" x1="140" x2="140" y1="162" y2="168"/>
  <text dominant-baseline="alphabetic" fill="#555555" font-family="DejaVu Sans, Arial, Helvetica, sans-serif" font-size="13.33" font-weight="400" text-anchor="middle" x="140" y="154">Q1 2026</text>
  <line stroke="#333333" stroke-width="1" x1="392" x2="392" y1="162" y2="168"/>
  <text dominant-baseline="alphabetic" fill="#555555" font-family="DejaVu Sans, Arial, Helvetica, sans-serif" font-size="13.33" font-weight="400" text-anchor="middle" x="392" y="154">Q2</text>
  <line stroke="#333333" stroke-width="1" x1="647" x2="647" y1="162" y2="168"/>
  <text dominant-baseline="alphabetic" fill="#555555" font-family="DejaVu Sans, Arial, Helvetica, sans-serif" font-size="13.33" font-weight="400" text-anchor="middle" x="647" y="154">Q3</text>
  <line stroke="#333333" stroke-width="1" x1="905" x2="905" y1="162" y2="168"/>
  <text dominant-baseline="alphabetic" fill="#555555" font-family="DejaVu Sans, Arial, Helvetica, sans-serif" font-size="13.33" font-weight="400" text-anchor="middle" x="905" y="154">Q4</text>
  <line opacity="0.85" stroke="#DC2626" stroke-width="1.5" x1="588" x2="588" y1="267.86" y2="725.86"/>
  <text dominant-baseline="alphabetic" fill="#DC2626" font-family="DejaVu Sans, Arial, Helvetica, sans-serif" font-size="12" font-weight="600" opacity="0.9" text-anchor="start" x="591" y="283.86">Today</text>
  <line opacity="0.7" stroke="#DC2626" stroke-width="1.5" x1="140" x2="644" y1="737.86" y2="737.86"/>
  <line opacity="0.7" stroke="#DC2626" stroke-width="1.5" x1="140" x2="140" y1="733.86" y2="741.86"/>
  <line opacity="0.7" stroke="#DC2626" stroke-width="1.5" x1="644" x2="644" y1="733.86" y2="741.86"/>
  <text dominant-baseline="alphabetic" fill="#DC2626" font-family="DejaVu Sans, Arial, Helvetica, sans-serif" font-size="12" font-weight="400" opacity="0.75" text-anchor="middle" x="392" y="753.86">H1 Focus</text>
  <line opacity="0.3" stroke="#333333" stroke-width="1" x1="140" x2="1160" y1="347.86" y2="347.86"/>
  <text dominant-baseline="middle" fill="#111111" font-family="DejaVu Sans, Arial, Helvetica, sans-serif" font-size="14.67" font-weight="600" text-anchor="start" x="8" y="307.86">Strategy</text>
  <line opacity="0.3" stroke="#333333" stroke-width="1" x1="140" x2="1160" y1="503.86" y2="503.86"/>
  <text dominant-baseline="middle" fill="#111111" font-family="DejaVu Sans, Arial, Helvetica, sans-serif" font-size="14.67" font-weight="600" text-anchor="start" x="8" y="433.86">Technology</text>
  <line opacity="0.3" stroke="#333333" stroke-width="1" x1="140" x2="1160" y1="629.86" y2="629.86"/>
  <text dominant-baseline="middle" fill="#111111" font-family="DejaVu Sans, Arial, Helvetica, sans-serif" font-size="14.67" font-weight="600" text-anchor="start" x="8" y="574.86">People &amp; Change</text>
  <line opacity="0.3" stroke="#333333" stroke-width="1" x1="140" x2="1160" y1="725.86" y2="725.86"/>
  <text dominant-baseline="middle" fill="#111111" font-family="DejaVu Sans, Arial, Helvetica, sans-serif" font-size="14.67" font-weight="600" text-anchor="start" x="8" y="685.86">Operations</text>
  <rect fill="#888888" height="24" opacity="0.85" rx="0" stroke="#666666" stroke-width="0.5" width="138" x="165" y="279.86"/>
  <rect fill="#FFFFFF" height="4" opacity="0.45" rx="0" width="138" x="165" y="299.86"/>
  <text dominant-baseline="middle" fill="#111111" font-family="DejaVu Sans, Arial, Helvetica, sans-serif" font-size="13.33" font-weight="600" text-anchor="start" x="169" y="291.86">Vision &amp; Alignment …</text>
  <rect fill="#1F497D" height="24" opacity="1" rx="0" stroke="#163760" stroke-width="0.5" width="339" x="305" y="279.86"/>
  <rect fill="#FFFFFF" height="4" opacity="0.45" rx="0" width="203" x="305" y="299.86"/>
  <text dominant-baseline="middle" fill="#FFFFFF" font-family="DejaVu Sans, Arial, Helvetica, sans-serif" font-size="13.33" font-weight="600" text-anchor="start" x="309" y="291.86">Operating Model Design</text>
  <rect fill="#1F497D" height="24" opacity="1" rx="0" stroke="#163760" stroke-width="0.5" width="255" x="647" y="279.86"/>
  <text dominant-baseline="middle" fill="#FFFFFF" font-family="DejaVu Sans, Arial, Helvetica, sans-serif" font-size="13.33" font-weight="600" text-anchor="start" x="651" y="291.86">Market Analysis</text>
  <rect fill="#1F497D" height="24" opacity="1" rx="0" stroke="#163760" stroke-width="0.5" width="255" x="905" y="279.86"/>
  <text dominant-baseline="middle" fill="#FFFFFF" font-family="DejaVu Sans, Arial, Helvetica, sans-serif" font-size="13.33" font-weight="600" text-anchor="start" x="909" y="291.86">Go-to-Market Strategy</text>
  <rect fill="#888888" height="24" opacity="0.85" rx="0" stroke="#666666" stroke-width="0.5" width="381" x="179" y="375.86"/>
  <rect fill="#FFFFFF" height="4" opacity="0.45" rx="0" width="381" x="179" y="395.86"/>
  <text dominant-baseline="middle" fill="#111111" font-family="DejaVu Sans, Arial, Helvetica, sans-serif" font-size="13.33" font-weight="600" text-anchor="start" x="183" y="387.86">Cloud Migration</text>
  <rect fill="#D97706" height="24" opacity="1" rx="0" stroke="#B45309" stroke-width="0.5" width="168" x="305" y="405.86"/>
  <rect fill="#FFFFFF" height="4" opacity="0.45" rx="0" width="50" x="305" y="425.86"/>
  <text dominant-baseline="middle" fill="#111111" font-family="DejaVu Sans, Arial, Helvetica, sans-serif" font-size="13.33" font-weight="600" text-anchor="start" x="309" y="417.86">Security Hardening</text>
  <rect fill="#1F497D" height="24" opacity="1" rx="0" stroke="#163760" stroke-width="0.5" width="339" x="392" y="435.86"/>
  <rect fill="#FFFFFF" height="4" opacity="0.45" rx="0" width="153" x="392" y="455.86"/>
  <text dominant-baseline="middle" fill="#FFFFFF" font-family="DejaVu Sans, Arial, Helvetica, sans-serif" font-size="13.33" font-weight="600" text-anchor="start" x="396" y="447.86">API Modernization</text>
  <rect fill="#1F497D" height="24" opacity="1" rx="0" stroke="#163760" stroke-width="0.5" width="426" x="734" y="375.86"/>
  <text dominant-baseline="middle" fill="#FFFFFF" font-family="DejaVu Sans, Arial, Helvetica, sans-serif" font-size="13.33" font-weight="600" text-anchor="start" x="738" y="387.86">Data Platform v2</text>
  <rect fill="#1F497D" height="24" opacity="1" rx="0" stroke="#163760" stroke-width="0.5" width="591" x="227" y="531.86"/>
  <rect fill="#FFFFFF" height="4" opacity="0.45" rx="0" width="296" x="227" y="551.86"/>
  <text dominant-baseline="middle" fill="#FFFFFF" font-family="DejaVu Sans, Arial, Helvetica, sans-serif" font-size="13.33" font-weight="600" text-anchor="start" x="231" y="543.86">Change Management Programme</text>
  <rect fill="#1F497D" height="24" opacity="1" rx="0" stroke="#163760" stroke-width="0.5" width="339" x="563" y="561.86"/>
  <text dominant-baseline="middle" fill="#FFFFFF" font-family="DejaVu Sans, Arial, Helvetica, sans-serif" font-size="13.33" font-weight="600" text-anchor="start" x="567" y="573.86">Training Rollout</text>
  <rect fill="#1F497D" height="24" opacity="1" rx="0" stroke="#163760" stroke-width="0.5" width="339" x="821" y="531.86"/>
  <text dominant-baseline="middle" fill="#FFFFFF" font-family="DejaVu Sans, Arial, Helvetica, sans-serif" font-size="13.33" font-weight="600" text-anchor="start" x="825" y="543.86">Leadership Development</text>
  <rect fill="#888888" height="24" opacity="0.85" rx="0" stroke="#666666" stroke-width="0.5" width="196" x="193" y="657.86"/>
  <rect fill="#FFFFFF" height="4" opacity="0.45" rx="0" width="196" x="193" y="677.86"/>
  <text dominant-baseline="middle" fill="#111111" font-family="DejaVu Sans, Arial, Helvetica, sans-serif" font-size="13.33" font-weight="600" text-anchor="start" x="197" y="669.86">Process Mapping</text>
  <rect fill="#1F497D" height="24" opacity="1" rx="0" stroke="#163760" stroke-width="0.5" width="339" x="392" y="657.86"/>
  <rect fill="#FFFFFF" height="4" opacity="0.45" rx="0" width="119" x="392" y="677.86"/>
  <text dominant-baseline="middle" fill="#FFFFFF" font-family="DejaVu Sans, Arial, Helvetica, sans-serif" font-size="13.33" font-weight="600" text-anchor="start" x="396" y="669.86">Automation Wave 1</text>
  <rect fill="#1F497D" height="24" opacity="1" rx="0" stroke="#163760" stroke-width="0.5" width="426" x="734" y="657.86"/>
  <text dominant-baseline="middle" fill="#FFFFFF" font-family="DejaVu Sans, Arial, Helvetica, sans-serif" font-size="13.33" font-weight="600" text-anchor="start" x="738" y="669.86">Automation Wave 2</text>
  <line opacity="0.45" stroke="#888888" stroke-width="0.75" x1="179" x2="179" y1="261.86" y2="474.86"/>
  <circle cx="179" cy="496.86" fill="#1F497D" r="22" stroke="#FFFFFF" stroke-width="2"/>
  <path d="M 12 3 L 14.4 8.8 L 20.6 9.2 L 15.8 13.2 L 17.3 19.3 L 12 16 L 6.7 19.3 L 8.2 13.2 L 3.4 9.2 L 9.6 8.8 Z" fill="#FFFFFF" transform="translate(179,496.86) scale(1.1917) translate(-12,-12)"/>
  <text dominant-baseline="alphabetic" fill="#111111" font-family="DejaVu Sans, Arial, Helvetica, sans-serif" font-size="13.33" font-weight="600" text-anchor="middle" x="179" y="239.66">Programme Kickoff</text>
  <text dominant-baseline="alphabetic" fill="#555555" font-family="DejaVu Sans, Arial, Helvetica, sans-serif" font-size="12" font-weight="400" text-anchor="middle" x="179" y="256.46">January 2026</text>
  <line opacity="0.45" stroke="#888888" stroke-width="0.75" x1="389" x2="389" y1="261.86" y2="474.86"/>
  <circle cx="389" cy="496.86" fill="#1F497D" r="22" stroke="#FFFFFF" stroke-width="2"/>
  <path d="M 4 12 L 9.5 17.5 L 20 7" fill="none" stroke="#FFFFFF" stroke-linecap="round" stroke-width="2" transform="translate(389,496.86) scale(1.1917) translate(-12,-12)"/>
  <text dominant-baseline="alphabetic" fill="#111111" font-family="DejaVu Sans, Arial, Helvetica, sans-serif" font-size="13.33" font-weight="600" text-anchor="middle" x="389" y="239.66">Q1 Gate Review</text>
  <text dominant-baseline="alphabetic" fill="#555555" font-family="DejaVu Sans, Arial, Helvetica, sans-serif" font-size="12" font-weight="400" text-anchor="middle" x="389" y="256.46">March 2026</text>
  <line opacity="0.45" stroke="#888888" stroke-width="0.75" x1="560" x2="560" y1="261.86" y2="474.86"/>
  <circle cx="560" cy="496.86" fill="#888888" r="22" stroke="#FFFFFF" stroke-width="2"/>
  <path d="M 6 19 L 18 19 A 4 4 0 0 0 18 12 A 5 5 0 0 0 11 8 A 4 4 0 0 0 4 12 A 4 4 0 0 0 6 19 Z" fill="none" stroke="#FFFFFF" stroke-linecap="round" stroke-width="2" transform="translate(560,496.86) scale(1.1917) translate(-12,-12)"/>
  <text dominant-baseline="alphabetic" fill="#111111" font-family="DejaVu Sans, Arial, Helvetica, sans-serif" font-size="13.33" font-weight="600" text-anchor="middle" x="560" y="239.66">Cloud Migration C…</text>
  <text dominant-baseline="alphabetic" fill="#555555" font-family="DejaVu Sans, Arial, Helvetica, sans-serif" font-size="12" font-weight="400" text-anchor="middle" x="560" y="256.46">May 2026</text>
  <line opacity="0.45" stroke="#888888" stroke-width="0.75" x1="644" x2="644" y1="218.93" y2="474.86"/>
  <circle cx="644" cy="496.86" fill="#1F497D" r="22" stroke="#FFFFFF" stroke-width="2"/>
  <path d="M 2 5 L 2 22 L 22 22 L 22 5 Z M 2 10 L 22 10 M 8 2 L 8 7 M 16 2 L 16 7 M 6 14 L 9 14 M 13 14 L 16 14 M 6 18 L 9 18 M 13 18 L 16 18" fill="none" stroke="#FFFFFF" stroke-linecap="round" stroke-width="2" transform="translate(644,496.86) scale(1.1917) translate(-12,-12)"/>
  <text dominant-baseline="alphabetic" fill="#111111" font-family="DejaVu Sans, Arial, Helvetica, sans-serif" font-size="13.33" font-weight="600" text-anchor="middle" x="644" y="196.73">Mid-Year Executiv…</text>
  <text dominant-baseline="alphabetic" fill="#555555" font-family="DejaVu Sans, Arial, Helvetica, sans-serif" font-size="12" font-weight="400" text-anchor="middle" x="644" y="213.53">June 2026</text>
  <line opacity="0.45" stroke="#888888" stroke-width="0.75" x1="902" x2="902" y1="261.86" y2="474.86"/>
  <circle cx="902" cy="496.86" fill="#1F497D" r="22" stroke="#FFFFFF" stroke-width="2"/>
  <path d="M 4 12 L 9.5 17.5 L 20 7" fill="none" stroke="#FFFFFF" stroke-linecap="round" stroke-width="2" transform="translate(902,496.86) scale(1.1917) translate(-12,-12)"/>
  <text dominant-baseline="alphabetic" fill="#111111" font-family="DejaVu Sans, Arial, Helvetica, sans-serif" font-size="13.33" font-weight="600" text-anchor="middle" x="902" y="239.66">Q3 Gate Review</text>
  <text dominant-baseline="alphabetic" fill="#555555" font-family="DejaVu Sans, Arial, Helvetica, sans-serif" font-size="12" font-weight="400" text-anchor="middle" x="902" y="256.46">September 2026</text>
  <line opacity="0.45" stroke="#888888" stroke-width="0.75" x1="1115" x2="1115" y1="162" y2="172"/>
  <line opacity="0.25" stroke="#888888" stroke-dasharray="2,3" stroke-width="0.75" x1="1115" x2="1098" y1="168" y2="168"/>
  <line opacity="0.45" stroke="#888888" stroke-width="0.75" x1="1098" x2="1098" y1="261.86" y2="474.86"/>
  <circle cx="1098" cy="496.86" fill="#1F497D" r="22" stroke="#FFFFFF" stroke-width="2"/>
  <path d="M 4 2 L 4 21 L 6 21 L 6 17 L 18 11 L 6 5 Z" fill="#FFFFFF" transform="translate(1098,496.86) scale(1.1917) translate(-12,-12)"/>
  <text dominant-baseline="alphabetic" fill="#111111" font-family="DejaVu Sans, Arial, Helvetica, sans-serif" font-size="13.33" font-weight="600" text-anchor="middle" x="1098" y="239.66">Year-End Delivery</text>
  <text dominant-baseline="alphabetic" fill="#555555" font-family="DejaVu Sans, Arial, Helvetica, sans-serif" font-size="12" font-weight="400" text-anchor="middle" x="1098" y="256.46">December 2026</text>
  <line opacity="0.5" stroke="#555555" stroke-dasharray="3,3" stroke-width="1" x1="644" x2="644" y1="486.86" y2="496.86"/>
  <rect fill="#FFFFFF" height="28" opacity="0.92" rx="3" stroke="#DC2626" stroke-width="1" width="120" x="584" y="458.86"/>
  <text dominant-baseline="middle" fill="#555555" font-family="DejaVu Sans, Arial, Helvetica, sans-serif" font-size="12" font-weight="400" text-anchor="middle" x="644" y="472.86">Review Gate</text>
  <rect fill="#FFFFFF" height="120.27" opacity="0.95" rx="4" stroke="#CCCCCC" stroke-width="1" width="160" x="984" y="741.86"/>
  <text dominant-baseline="alphabetic" fill="#111111" font-family="DejaVu Sans, Arial, Helvetica, sans-serif" font-size="13.33" font-weight="700" text-anchor="start" x="994" y="765.19">Status Legend</text>
  <rect fill="#888888" height="12" rx="0" width="12" x="994" y="777.73"/>
  <text dominant-baseline="middle" fill="#333333" font-family="DejaVu Sans, Arial, Helvetica, sans-serif" font-size="12" font-weight="400" text-anchor="start" x="1014" y="783.73">Done</text>
  <rect fill="#1F497D" height="12" rx="0" width="12" x="994" y="798.13"/>
  <text dominant-baseline="middle" fill="#333333" font-family="DejaVu Sans, Arial, Helvetica, sans-serif" font-size="12" font-weight="400" text-anchor="start" x="1014" y="804.13">In Progress</text>
  <rect fill="#D97706" height="12" rx="0" width="12" x="994" y="818.53"/>
  <text dominant-baseline="middle" fill="#333333" font-family="DejaVu Sans, Arial, Helvetica, sans-serif" font-size="12" font-weight="400" text-anchor="start" x="1014" y="824.53">At Risk</text>
  <rect fill="#1F497D" height="12" rx="0" width="12" x="994" y="838.93"/>
  <text dominant-baseline="middle" fill="#333333" font-family="DejaVu Sans, Arial, Helvetica, sans-serif" font-size="12" font-weight="400" text-anchor="start" x="1014" y="844.93">Planned</text>
</svg>