<?xml version="1.0" encoding="UTF-8"?>
<svg height="208" version="1.1" viewBox="0 0 1356 208" width="1356" xmlns="http://www.w3.org/2000/svg">
  <rect fill="#ffffff" height="208" width="1356" x="0" y="0"/>
  <path d="M 175 94 C 210 94 244 94 272 94" fill="none" stroke="#6b7280" stroke-width="1.5"/>
  <path d="M 399 94 C 434 94 470 61 498 61" fill="none" stroke="#6b7280" stroke-width="1.5"/>
  <path d="M 399 94 C 434 94 470 127 498 127" fill="none" stroke="#6b7280" stroke-dasharray="6,4" stroke-width="1.5"/>
  <path d="M 625 61 C 660 61 696 94 724 94" fill="none" stroke="#6b7280" stroke-width="1.5"/>
  <path d="M 625 127 C 660 127 696 94 724 94" fill="none" stroke="#6b7280" stroke-width="1.5"/>
  <path d="M 851 94 C 886 94 920 94 948 94" fill="none" stroke="#4a6cf7" stroke-dasharray="8,5" stroke-width="1.5"/>
  <path d="M 1080 94 C 1110 94 1140 94 1163 94" fill="none" stroke="#4a6cf7" stroke-dasharray="8,5" stroke-width="1.5"/>
  <rect fill="#e8f0fe" height="42" rx="21" stroke="#4a6cf7" stroke-width="1.5" width="124" x="51" y="73"/>
  <text dominant-baseline="central" fill="#1a1a2e" font-family="DejaVu Sans, sans-serif" font-size="13" font-weight="600" text-anchor="middle" x="113" y="94">User Question</text>
  <rect fill="#e8f0fe" height="42" rx="8" stroke="#4a6cf7" stroke-width="1.5" width="120" x="279" y="73"/>
  <path d="M 4 7 A 8 2.5 0 0 1 20 7 A 8 2.5 0 0 1 4 7 L 4 17 A 8 2.5 0 0 0 20 17 L 20 7 M 4 12 A 8 2.5 0 0 1 20 12" fill="none" opacity="0.85" stroke="#1a1a2e" stroke-width="1" transform="translate(299,87) scale(0.5833)"/>
  <text dominant-baseline="central" fill="#1a1a2e" font-family="DejaVu Sans, sans-serif" font-size="13" font-weight="600" text-anchor="middle" x="349" y="94">Retrieve</text>
  <rect fill="#e8f0fe" height="42" rx="8" stroke="#4a6cf7" stroke-width="1.5" width="120" x="505" y="40"/>
  <text dominant-baseline="central" fill="#1a1a2e" font-family="DejaVu Sans, sans-serif" font-size="13" font-weight="600" text-anchor="middle" x="565" y="61">Re-rank</text>
  <rect fill="#d1fae5" height="42" rx="8" stroke="#4a6cf7" stroke-width="1.5" width="120" x="505" y="106"/>
  <text dominant-baseline="central" fill="#065f46" font-family="DejaVu Sans, sans-serif" font-size="13" font-weight="600" text-anchor="middle" x="565" y="127">Direct Match</text>
  <rect fill="#e8f0fe" height="42" rx="8" stroke="#4a6cf7" stroke-width="1.5" width="120" x="731" y="73"/>
  <text dominant-baseline="central" fill="#1a1a2e" font-family="DejaVu Sans, sans-serif" font-size="13" font-weight="600" text-anchor="middle" x="791" y="94">Augment</text>
  <rect fill="#e8f0fe" height="42" rx="8" stroke="#4a6cf7" stroke-width="1.5" width="125" x="955" y="73"/>
  <text dominant-baseline="central" fill="#1a1a2e" font-family="DejaVu Sans, sans-serif" font-size="13" font-weight="600" text-anchor="middle" x="1017" y="94">LLM Generate</text>
  <rect fill="#d1fae5" height="42" rx="21" stroke="#4a6cf7" stroke-width="1.5" width="146" x="1170" y="73"/>
  <text dominant-baseline="central" fill="#065f46" font-family="DejaVu Sans, sans-serif" font-size="13" font-weight="600" text-anchor="middle" x="1243" y="94">Grounded Answer</text>
  <path d="M 279 94 L 272 90 L 272 98 Z" fill="#6b7280" stroke="none" stroke-width="0"/>
  <path d="M 505 61 L 498 57 L 498 65 Z" fill="#6b7280" stroke="none" stroke-width="0"/>
  <path d="M 505 127 L 498 123 L 498 131 Z" fill="#6b7280" stroke="none" stroke-width="0"/>
  <path d="M 731 94 L 724 90 L 724 98 Z" fill="#6b7280" stroke="none" stroke-width="0"/>
  <path d="M 731 94 L 724 90 L 724 98 Z" fill="#6b7280" stroke="none" stroke-width="0"/>
  <path d="M 955 94 L 948 90 L 948 98 Z" fill="#4a6cf7" stroke="none" stroke-width="0"/>
  <path d="M 1170 94 L 1163 90 L 1163 98 Z" fill="#4a6cf7" stroke="none" stroke-width="0"/>
  <text dominant-baseline="auto" fill="#4b5563" font-family="DejaVu Sans, sans-serif" font-size="11" font-weight="400" text-anchor="middle" x="452" y="70">top-k</text>
  <text dominant-baseline="auto" fill="#4b5563" font-family="DejaVu Sans, sans-serif" font-size="11" font-weight="400" text-anchor="middle" x="452" y="103">exact match</text>
</svg>