<?xml version="1.0" encoding="UTF-8"?>
<svg height="1008" version="1.1" viewBox="0 0 1200 1008" width="1200" xmlns="http://www.w3.org/2000/svg">
  <rect fill="#0A1628" height="1008" width="1200" x="0" y="0"/>
  <text dominant-baseline="alphabetic" fill="#E8EDF5" font-family="DejaVu Sans, Arial, Helvetica, sans-serif" font-size="29.33" font-weight="700" text-anchor="middle" x="600" y="89.33">Releases</text>
  <line opacity="0.35" stroke="#1C3558" stroke-width="0.5" x1="0" x2="1160" y1="107" y2="107"/>
  <line stroke="#1C3558" stroke-width="2" x1="600" x2="600" y1="137" y2="894"/>
  <line opacity="0.3" stroke="#1C3558" stroke-width="1" x1="592" x2="608" y1="137" y2="137"/>
  <text dominant-baseline="alphabetic" fill="#4D9AFF" font-family="DejaVu Sans, Arial, Helvetica, sans-serif" font-size="12" font-weight="400" opacity="0.6" text-anchor="end" x="586" y="135">2024</text>
  <line opacity="0.3" stroke="#1C3558" stroke-width="1" x1="592" x2="608" y1="282" y2="282"/>
  <text dominant-baseline="alphabetic" fill="#4D9AFF" font-family="DejaVu Sans, Arial, Helvetica, sans-serif" font-size="12" font-weight="400" opacity="0.6" text-anchor="end" x="586" y="280">2024</text>
  <line opacity="0.3" stroke="#1C3558" stroke-width="1" x1="592" x2="608" y1="427" y2="427"/>
  <text dominant-baseline="alphabetic" fill="#4D9AFF" font-family="DejaVu Sans, Arial, Helvetica, sans-serif" font-size="12" font-weight="400" opacity="0.6" text-anchor="end" x="586" y="425">2024</text>
  <line opacity="0.3" stroke="#1C3558" stroke-width="1" x1="592" x2="608" y1="572" y2="572"/>
  <text dominant-baseline="alphabetic" fill="#4D9AFF" font-family="DejaVu Sans, Arial, Helvetica, sans-serif" font-size="12" font-weight="400" opacity="0.6" text-anchor="end" x="586" y="570">2025</text>
  <line opacity="0.3" stroke="#1C3558" stroke-width="1" x1="592" x2="608" y1="717" y2="717"/>
  <text dominant-baseline="alphabetic" fill="#4D9AFF" font-family="DejaVu Sans, Arial, Helvetica, sans-serif" font-size="12" font-weight="400" opacity="0.6" text-anchor="end" x="586" y="715">2025</text>
  <line opacity="0.3" stroke="#1C3558" stroke-width="1" x1="592" x2="608" y1="862" y2="862"/>
  <text dominant-baseline="alphabetic" fill="#4D9AFF" font-family="DejaVu Sans, Arial, Helvetica, sans-serif" font-size="12" font-weight="400" opacity="0.6" text-anchor="end" x="586" y="860">2026</text>
  <line opacity="0.8" stroke="#2C6EA8" stroke-width="1.5" x1="607.15" x2="658" y1="137" y2="137"/>
  <rect fill="#1A2E44" height="125" opacity="0.95" rx="6" stroke="#2C6EA8" stroke-width="1" width="330" x="658" y="74.5"/>
  <path d="M 2 12 A 10 10 0 1 0 22 12 A 10 10 0 1 0 2 12 M 12 7 L 12 12 L 17 14" fill="none" stroke="#6B8FAF" stroke-linecap="round" stroke-width="1.5" transform="translate(674,95.58) scale(0.5) translate(-12,-12)"/>
  <text dominant-baseline="alphabetic" fill="#6B8FAF" font-family="DejaVu Sans, Arial, Helvetica, sans-serif" font-size="13.33" font-weight="400" text-anchor="start" x="684" y="100.65">15th March 2024</text>
  <text dominant-baseline="alphabetic" fill="#E8EDF5" font-family="DejaVu Sans, Arial, Helvetica, sans-serif" font-size="17.33" font-weight="700" text-anchor="start" x="668" y="130.65">v0.1.0 — Initial Release</text>
  <text dominant-baseline="alphabetic" fill="#6B8FAF" font-family="DejaVu Sans, Arial, Helvetica, sans-serif" font-size="12" font-weight="400" opacity="0.85" text-anchor="start" x="668" y="151.65">First public release. SVG backend, horizontal layout, five…</text>
  <rect fill="transparent" height="27" rx="13" stroke="#9DBDD8" stroke-width="1" width="119" x="668" y="159.65"/>
  <text dominant-baseline="alphabetic" fill="#9DBDD8" font-family="DejaVu Sans, Arial, Helvetica, sans-serif" font-size="11.33" font-weight="400" text-anchor="middle" x="727.5" y="177.2">VIEW REPOSITORY</text>
  <line opacity="0.8" stroke="#2C6EA8" stroke-width="1.5" x1="592.85" x2="542" y1="282" y2="282"/>
  <rect fill="#1A2E44" height="125" opacity="0.95" rx="6" stroke="#2C6EA8" stroke-width="1" width="330" x="212" y="219.5"/>
  <path d="M 2 12 A 10 10 0 1 0 22 12 A 10 10 0 1 0 2 12 M 12 7 L 12 12 L 17 14" fill="none" stroke="#6B8FAF" stroke-linecap="round" stroke-width="1.5" transform="translate(526,240.58) scale(0.5) translate(-12,-12)"/>
  <text dominant-baseline="alphabetic" fill="#6B8FAF" font-family="DejaVu Sans, Arial, Helvetica, sans-serif" font-size="13.33" font-weight="400" text-anchor="end" x="516" y="245.65">20th June 2024</text>
  <text dominant-baseline="alphabetic" fill="#E8EDF5" font-family="DejaVu Sans, Arial, Helvetica, sans-serif" font-size="17.33" font-weight="700" text-anchor="end" x="532" y="275.65">v0.2.0 — Vertical Spine</text>
  <text dominant-baseline="alphabetic" fill="#6B8FAF" font-family="DejaVu Sans, Arial, Helvetica, sans-serif" font-size="12" font-weight="400" opacity="0.85" text-anchor="end" x="532" y="296.65">Introduced the vertical-spine layout family with card and …</text>
  <rect fill="transparent" height="27" rx="13" stroke="#9DBDD8" stroke-width="1" width="119" x="413" y="304.65"/>
  <text dominant-baseline="alphabetic" fill="#9DBDD8" font-family="DejaVu Sans, Arial, Helvetica, sans-serif" font-size="11.33" font-weight="400" text-anchor="middle" x="472.5" y="322.2">VIEW REPOSITORY</text>
  <line opacity="0.8" stroke="#2C6EA8" stroke-width="1.5" x1="607.15" x2="658" y1="427" y2="427"/>
  <rect fill="#1A2E44" height="125" opacity="0.95" rx="6" stroke="#2C6EA8" stroke-width="1" width="330" x="658" y="364.5"/>
  <path d="M 2 12 A 10 10 0 1 0 22 12 A 10 10 0 1 0 2 12 M 12 7 L 12 12 L 17 14" fill="none" stroke="#6B8FAF" stroke-linecap="round" stroke-width="1.5" transform="translate(674,385.58) scale(0.5) translate(-12,-12)"/>
  <text dominant-baseline="alphabetic" fill="#6B8FAF" font-family="DejaVu Sans, Arial, Helvetica, sans-serif" font-size="13.33" font-weight="400" text-anchor="start" x="684" y="390.65">8th October 2024</text>
  <text dominant-baseline="alphabetic" fill="#E8EDF5" font-family="DejaVu Sans, Arial, Helvetica, sans-serif" font-size="17.33" font-weight="700" text-anchor="start" x="668" y="420.65">v0.3.0 — Skia Backend</text>
  <text dominant-baseline="alphabetic" fill="#6B8FAF" font-family="DejaVu Sans, Arial, Helvetica, sans-serif" font-size="12" font-weight="400" opacity="0.85" text-anchor="start" x="668" y="441.65">Added the Skia raster backend (canvaskit-wasm) with gl…</text>
  <rect fill="transparent" height="27" rx="13" stroke="#9DBDD8" stroke-width="1" width="119" x="668" y="449.65"/>
  <text dominant-baseline="alphabetic" fill="#9DBDD8" font-family="DejaVu Sans, Arial, Helvetica, sans-serif" font-size="11.33" font-weight="400" text-anchor="middle" x="727.5" y="467.2">VIEW REPOSITORY</text>
  <line opacity="0.8" stroke="#2C6EA8" stroke-width="1.5" x1="592.85" x2="542" y1="572" y2="572"/>
  <rect fill="#1A2E44" height="125" opacity="0.95" rx="6" stroke="#2C6EA8" stroke-width="1" width="330" x="212" y="509.5"/>
  <path d="M 2 12 A 10 10 0 1 0 22 12 A 10 10 0 1 0 2 12 M 12 7 L 12 12 L 17 14" fill="none" stroke="#6B8FAF" stroke-linecap="round" stroke-width="1.5" transform="translate(526,530.58) scale(0.5) translate(-12,-12)"/>
  <text dominant-baseline="alphabetic" fill="#6B8FAF" font-family="DejaVu Sans, Arial, Helvetica, sans-serif" font-size="13.33" font-weight="400" text-anchor="end" x="516" y="535.65">14th February 2025</text>
  <text dominant-baseline="alphabetic" fill="#E8EDF5" font-family="DejaVu Sans, Arial, Helvetica, sans-serif" font-size="17.33" font-weight="700" text-anchor="end" x="532" y="565.65">v0.4.0 — Icon Registry</text>
  <text dominant-baseline="alphabetic" fill="#6B8FAF" font-family="DejaVu Sans, Arial, Helvetica, sans-serif" font-size="12" font-weight="400" opacity="0.85" text-anchor="end" x="532" y="586.65">Built-in SVG icon registry (20+ icons). Milestone and acti…</text>
  <rect fill="transparent" height="27" rx="13" stroke="#9DBDD8" stroke-width="1" width="119" x="413" y="594.65"/>
  <text dominant-baseline="alphabetic" fill="#9DBDD8" font-family="DejaVu Sans, Arial, Helvetica, sans-serif" font-size="11.33" font-weight="400" text-anchor="middle" x="472.5" y="612.2">VIEW REPOSITORY</text>
  <line opacity="0.8" stroke="#2C6EA8" stroke-width="1.5" x1="607.15" x2="658" y1="717" y2="717"/>
  <rect fill="#1A2E44" height="125" opacity="0.95" rx="6" stroke="#2C6EA8" stroke-width="1" width="330" x="658" y="654.5"/>
  <path d="M 2 12 A 10 10 0 1 0 22 12 A 10 10 0 1 0 2 12 M 12 7 L 12 12 L 17 14" fill="none" stroke="#6B8FAF" stroke-linecap="round" stroke-width="1.5" transform="translate(674,675.58) scale(0.5) translate(-12,-12)"/>
  <text dominant-baseline="alphabetic" fill="#6B8FAF" font-family="DejaVu Sans, Arial, Helvetica, sans-serif" font-size="13.33" font-weight="400" text-anchor="start" x="684" y="680.65">1st July 2025</text>
  <text dominant-baseline="alphabetic" fill="#E8EDF5" font-family="DejaVu Sans, Arial, Helvetica, sans-serif" font-size="17.33" font-weight="700" text-anchor="start" x="668" y="710.65">v0.5.0 — AI Timeline Theme</text>
  <text dominant-baseline="alphabetic" fill="#6B8FAF" font-family="DejaVu Sans, Arial, Helvetica, sans-serif" font-size="12" font-weight="400" opacity="0.85" text-anchor="start" x="668" y="731.65">New ai-timeline Tier-2 theme with gradient background …</text>
  <rect fill="transparent" height="27" rx="13" stroke="#9DBDD8" stroke-width="1" width="119" x="668" y="739.65"/>
  <text dominant-baseline="alphabetic" fill="#9DBDD8" font-family="DejaVu Sans, Arial, Helvetica, sans-serif" font-size="11.33" font-weight="400" text-anchor="middle" x="727.5" y="757.2">VIEW REPOSITORY</text>
  <line opacity="0.8" stroke="#4D9AFF" stroke-width="1.5" x1="592.85" x2="542" y1="862" y2="862"/>
  <rect fill="#1A2E44" height="125" opacity="0.95" rx="6" stroke="#4D9AFF" stroke-width="1" width="330" x="212" y="799.5"/>
  <path d="M 2 12 A 10 10 0 1 0 22 12 A 10 10 0 1 0 2 12 M 12 7 L 12 12 L 17 14" fill="none" stroke="#6B8FAF" stroke-linecap="round" stroke-width="1.5" transform="translate(526,820.58) scale(0.5) translate(-12,-12)"/>
  <text dominant-baseline="alphabetic" fill="#6B8FAF" font-family="DejaVu Sans, Arial, Helvetica, sans-serif" font-size="13.33" font-weight="400" text-anchor="end" x="516" y="825.65">20th March 2026</text>
  <text dominant-baseline="alphabetic" fill="#E8EDF5" font-family="DejaVu Sans, Arial, Helvetica, sans-serif" font-size="17.33" font-weight="700" text-anchor="end" x="532" y="855.65">v1.0.0 — Stable Release</text>
  <text dominant-baseline="alphabetic" fill="#6B8FAF" font-family="DejaVu Sans, Arial, Helvetica, sans-serif" font-size="12" font-weight="400" opacity="0.85" text-anchor="end" x="532" y="876.65">First stable release. CTA buttons, inline date icons, and …</text>
  <rect fill="transparent" height="27" rx="13" stroke="#9DBDD8" stroke-width="1" width="119" x="413" y="884.65"/>
  <text dominant-baseline="alphabetic" fill="#9DBDD8" font-family="DejaVu Sans, Arial, Helvetica, sans-serif" font-size="11.33" font-weight="400" text-anchor="middle" x="472.5" y="902.2">VIEW REPOSITORY</text>
  <circle cx="600" cy="137" fill="#2C6EA8" r="7.15" stroke="#0A1628" stroke-width="1.5"/>
  <circle cx="600" cy="282" fill="#2C6EA8" r="7.15" stroke="#0A1628" stroke-width="1.5"/>
  <circle cx="600" cy="427" fill="#2C6EA8" r="7.15" stroke="#0A1628" stroke-width="1.5"/>
  <circle cx="600" cy="572" fill="#2C6EA8" r="7.15" stroke="#0A1628" stroke-width="1.5"/>
  <circle cx="600" cy="717" fill="#2C6EA8" r="7.15" stroke="#0A1628" stroke-width="1.5"/>
  <circle cx="600" cy="862" fill="#4D9AFF" r="7.15" stroke="#0A1628" stroke-width="1.5"/>
</svg>