<?xml version="1.0" encoding="UTF-8"?>
<svg height="428.79" version="1.1" viewBox="0 0 1200 428.79" width="1200" xmlns="http://www.w3.org/2000/svg">
  <rect fill="#FFFFFF" height="428.79" width="1200" x="0" y="0"/>
  <text dominant-baseline="alphabetic" fill="#111111" font-family="DejaVu Sans, Arial, Helvetica, sans-serif" font-size="26.67" font-weight="700" text-anchor="middle" x="600" y="86.67">Icon Set Showcase</text>
  <text dominant-baseline="alphabetic" fill="#111111" font-family="DejaVu Sans, Arial, Helvetica, sans-serif" font-size="17.33" font-weight="400" opacity="0.75" text-anchor="middle" x="600" y="118.33">All 20 built-in icons rendered in milestone nodes</text>
  <line opacity="0.35" stroke="#333333" stroke-width="0.5" x1="140" x2="1160" y1="130" y2="130"/>
  <line stroke="#333333" stroke-width="1" x1="140" x2="1160" y1="168" y2="168"/>
  <line stroke="#333333" stroke-width="1" x1="140" x2="140" y1="162" y2="168"/>
  <text dominant-baseline="alphabetic" fill="#555555" font-family="DejaVu Sans, Arial, Helvetica, sans-serif" font-size="13.33" font-weight="400" text-anchor="middle" x="140" y="154">Q1 2026</text>
  <line stroke="#333333" stroke-width="1" x1="308" x2="308" y1="162" y2="168"/>
  <text dominant-baseline="alphabetic" fill="#555555" font-family="DejaVu Sans, Arial, Helvetica, sans-serif" font-size="13.33" font-weight="400" text-anchor="middle" x="308" y="154">Q2</text>
  <line stroke="#333333" stroke-width="1" x1="479" x2="479" y1="162" y2="168"/>
  <text dominant-baseline="alphabetic" fill="#555555" font-family="DejaVu Sans, Arial, Helvetica, sans-serif" font-size="13.33" font-weight="400" text-anchor="middle" x="479" y="154">Q3</text>
  <line stroke="#333333" stroke-width="1" x1="651" x2="651" y1="162" y2="168"/>
  <text dominant-baseline="alphabetic" fill="#555555" font-family="DejaVu Sans, Arial, Helvetica, sans-serif" font-size="13.33" font-weight="400" text-anchor="middle" x="651" y="154">Q4</text>
  <line stroke="#333333" stroke-width="1" x1="823" x2="823" y1="162" y2="168"/>
  <text dominant-baseline="alphabetic" fill="#555555" font-family="DejaVu Sans, Arial, Helvetica, sans-serif" font-size="13.33" font-weight="400" text-anchor="middle" x="823" y="154">Q1 2027</text>
  <line stroke="#333333" stroke-width="1" x1="992" x2="992" y1="162" y2="168"/>
  <text dominant-baseline="alphabetic" fill="#555555" font-family="DejaVu Sans, Arial, Helvetica, sans-serif" font-size="13.33" font-weight="400" text-anchor="middle" x="992" y="154">Q2</text>
  <line opacity="0.3" stroke="#333333" stroke-width="1" x1="140" x2="1160" y1="347.86" y2="347.86"/>
  <text dominant-baseline="middle" fill="#111111" font-family="DejaVu Sans, Arial, Helvetica, sans-serif" font-size="14.67" font-weight="600" text-anchor="start" x="8" y="307.86">Icons</text>
  <line opacity="0.45" stroke="#888888" stroke-width="0.75" x1="166" x2="166" y1="329.86" y2="337.86"/>
  <circle cx="166" cy="307.86" fill="#1F497D" r="22" stroke="#FFFFFF" stroke-width="2"/>
  <path d="M 4 2 L 4 21 L 6 21 L 6 17 L 18 11 L 6 5 Z" fill="#FFFFFF" transform="translate(166,307.86) scale(1.1917) translate(-12,-12)"/>
  <text dominant-baseline="alphabetic" fill="#111111" font-family="DejaVu Sans, Arial, Helvetica, sans-serif" font-size="13.33" font-weight="600" text-anchor="middle" x="166" y="352.59">flag</text>
  <text dominant-baseline="alphabetic" fill="#555555" font-family="DejaVu Sans, Arial, Helvetica, sans-serif" font-size="12" font-weight="400" text-anchor="middle" x="166" y="369.39">January 2026</text>
  <line opacity="0.45" stroke="#888888" stroke-width="0.75" x1="224" x2="224" y1="261.86" y2="285.86"/>
  <circle cx="224" cy="307.86" fill="#1F497D" r="22" stroke="#FFFFFF" stroke-width="2"/>
  <path d="M 12 3 L 14.4 8.8 L 20.6 9.2 L 15.8 13.2 L 17.3 19.3 L 12 16 L 6.7 19.3 L 8.2 13.2 L 3.4 9.2 L 9.6 8.8 Z" fill="#FFFFFF" transform="translate(224,307.86) scale(1.1917) translate(-12,-12)"/>
  <text dominant-baseline="alphabetic" fill="#111111" font-family="DejaVu Sans, Arial, Helvetica, sans-serif" font-size="13.33" font-weight="600" text-anchor="middle" x="224" y="239.66">star</text>
  <text dominant-baseline="alphabetic" fill="#555555" font-family="DejaVu Sans, Arial, Helvetica, sans-serif" font-size="12" font-weight="400" text-anchor="middle" x="224" y="256.46">February 2026</text>
  <line opacity="0.45" stroke="#888888" stroke-width="0.75" x1="277" x2="277" y1="329.86" y2="337.86"/>
  <circle cx="277" cy="307.86" fill="#1F497D" r="22" stroke="#FFFFFF" stroke-width="2"/>
  <path d="M 4 12 L 9.5 17.5 L 20 7" fill="none" stroke="#FFFFFF" stroke-linecap="round" stroke-width="2" transform="translate(277,307.86) scale(1.1917) translate(-12,-12)"/>
  <text dominant-baseline="alphabetic" fill="#111111" font-family="DejaVu Sans, Arial, Helvetica, sans-serif" font-size="13.33" font-weight="600" text-anchor="middle" x="277" y="352.59">check</text>
  <text dominant-baseline="alphabetic" fill="#555555" font-family="DejaVu Sans, Arial, Helvetica, sans-serif" font-size="12" font-weight="400" text-anchor="middle" x="277" y="369.39">March 2026</text>
  <line opacity="0.45" stroke="#888888" stroke-width="0.75" x1="335" x2="335" y1="261.86" y2="285.86"/>
  <circle cx="335" cy="307.86" fill="#1F497D" r="22" stroke="#FFFFFF" stroke-width="2"/>
  <path d="M 5 5 L 19 19 M 5 19 L 19 5" fill="none" stroke="#FFFFFF" stroke-linecap="round" stroke-width="2" transform="translate(335,307.86) scale(1.1917) translate(-12,-12)"/>
  <text dominant-baseline="alphabetic" fill="#111111" font-family="DejaVu Sans, Arial, Helvetica, sans-serif" font-size="13.33" font-weight="600" text-anchor="middle" x="335" y="239.66">x</text>
  <text dominant-baseline="alphabetic" fill="#555555" font-family="DejaVu Sans, Arial, Helvetica, sans-serif" font-size="12" font-weight="400" text-anchor="middle" x="335" y="256.46">April 2026</text>
  <line opacity="0.45" stroke="#888888" stroke-width="0.75" x1="391" x2="391" y1="329.86" y2="337.86"/>
  <circle cx="391" cy="307.86" fill="#1F497D" r="22" stroke="#FFFFFF" stroke-width="2"/>
  <path d="M 12 3 L 22 21 L 2 21 Z M 12 9 L 12 15" fill="none" stroke="#FFFFFF" stroke-linecap="round" stroke-width="2" transform="translate(391,307.86) scale(1.1917) translate(-12,-12)"/>
  <text dominant-baseline="alphabetic" fill="#111111" font-family="DejaVu Sans, Arial, Helvetica, sans-serif" font-size="13.33" font-weight="600" text-anchor="middle" x="391" y="352.59">warning</text>
  <text dominant-baseline="alphabetic" fill="#555555" font-family="DejaVu Sans, Arial, Helvetica, sans-serif" font-size="12" font-weight="400" text-anchor="middle" x="391" y="369.39">May 2026</text>
  <line opacity="0.45" stroke="#888888" stroke-width="0.75" x1="449" x2="449" y1="261.86" y2="285.86"/>
  <circle cx="449" cy="307.86" fill="#1F497D" r="22" stroke="#FFFFFF" stroke-width="2"/>
  <path d="M 12 2 L 16 11 L 15 11 L 15 18 L 9 18 L 9 11 L 8 11 Z M 9 18 L 6 22 L 9 16 Z M 15 18 L 18 22 L 15 16 Z" fill="#FFFFFF" transform="translate(449,307.86) scale(1.1917) translate(-12,-12)"/>
  <text dominant-baseline="alphabetic" fill="#111111" font-family="DejaVu Sans, Arial, Helvetica, sans-serif" font-size="13.33" font-weight="600" text-anchor="middle" x="449" y="239.66">rocket</text>
  <text dominant-baseline="alphabetic" fill="#555555" font-family="DejaVu Sans, Arial, Helvetica, sans-serif" font-size="12" font-weight="400" text-anchor="middle" x="449" y="256.46">June 2026</text>
  <line opacity="0.45" stroke="#888888" stroke-width="0.75" x1="505" x2="505" y1="329.86" y2="337.86"/>
  <circle cx="505" cy="307.86" fill="#1F497D" r="22" stroke="#FFFFFF" stroke-width="2"/>
  <path d="M 3 12 A 9 9 0 1 0 21 12 A 9 9 0 1 0 3 12 M 7 12 A 5 5 0 1 0 17 12 A 5 5 0 1 0 7 12 M 10 12 A 2 2 0 1 0 14 12 A 2 2 0 1 0 10 12" fill="none" stroke="#FFFFFF" stroke-linecap="round" stroke-width="2" transform="translate(505,307.86) scale(1.1917) translate(-12,-12)"/>
  <text dominant-baseline="alphabetic" fill="#111111" font-family="DejaVu Sans, Arial, Helvetica, sans-serif" font-size="13.33" font-weight="600" text-anchor="middle" x="505" y="352.59">target</text>
  <text dominant-baseline="alphabetic" fill="#555555" font-family="DejaVu Sans, Arial, Helvetica, sans-serif" font-size="12" font-weight="400" text-anchor="middle" x="505" y="369.39">July 2026</text>
  <line opacity="0.45" stroke="#888888" stroke-width="0.75" x1="563" x2="563" y1="261.86" y2="285.86"/>
  <circle cx="563" cy="307.86" fill="#1F497D" r="22" stroke="#FFFFFF" stroke-width="2"/>
  <path d="M 2 5 L 2 22 L 22 22 L 22 5 Z M 2 10 L 22 10 M 8 2 L 8 7 M 16 2 L 16 7 M 6 14 L 9 14 M 13 14 L 16 14 M 6 18 L 9 18 M 13 18 L 16 18" fill="none" stroke="#FFFFFF" stroke-linecap="round" stroke-width="2" transform="translate(563,307.86) scale(1.1917) translate(-12,-12)"/>
  <text dominant-baseline="alphabetic" fill="#111111" font-family="DejaVu Sans, Arial, Helvetica, sans-serif" font-size="13.33" font-weight="600" text-anchor="middle" x="563" y="239.66">calendar</text>
  <text dominant-baseline="alphabetic" fill="#555555" font-family="DejaVu Sans, Arial, Helvetica, sans-serif" font-size="12" font-weight="400" text-anchor="middle" x="563" y="256.46">August 2026</text>
  <line opacity="0.45" stroke="#888888" stroke-width="0.75" x1="621" x2="621" y1="329.86" y2="337.86"/>
  <circle cx="621" cy="307.86" fill="#1F497D" r="22" stroke="#FFFFFF" stroke-width="2"/>
  <path d="M 2 12 A 10 10 0 1 0 22 12 A 10 10 0 1 0 2 12 M 12 7 L 12 12 L 17 14" fill="none" stroke="#FFFFFF" stroke-linecap="round" stroke-width="2" transform="translate(621,307.86) scale(1.1917) translate(-12,-12)"/>
  <text dominant-baseline="alphabetic" fill="#111111" font-family="DejaVu Sans, Arial, Helvetica, sans-serif" font-size="13.33" font-weight="600" text-anchor="middle" x="621" y="352.59">clock</text>
  <text dominant-baseline="alphabetic" fill="#555555" font-family="DejaVu Sans, Arial, Helvetica, sans-serif" font-size="12" font-weight="400" text-anchor="middle" x="621" y="369.39">September 2026</text>
  <line opacity="0.45" stroke="#888888" stroke-width="0.75" x1="677" x2="677" y1="261.86" y2="285.86"/>
  <circle cx="677" cy="307.86" fill="#1F497D" r="22" stroke="#FFFFFF" stroke-width="2"/>
  <path d="M 8 12 A 4 4 0 1 0 16 12 A 4 4 0 1 0 8 12 M 22 12 L 20 12 M 19.1 4.9 L 17.7 6.3 M 12 2 L 12 4 M 4.9 4.9 L 6.3 6.3 M 2 12 L 4 12 M 4.9 19.1 L 6.3 17.7 M 12 22 L 12 20 M 19.1 19.1 L 17.7 17.7" fill="none" stroke="#FFFFFF" stroke-linecap="round" stroke-width="2" transform="translate(677,307.86) scale(1.1917) translate(-12,-12)"/>
  <text dominant-baseline="alphabetic" fill="#111111" font-family="DejaVu Sans, Arial, Helvetica, sans-serif" font-size="13.33" font-weight="600" text-anchor="middle" x="677" y="239.66">gear</text>
  <text dominant-baseline="alphabetic" fill="#555555" font-family="DejaVu Sans, Arial, Helvetica, sans-serif" font-size="12" font-weight="400" text-anchor="middle" x="677" y="256.46">October 2026</text>
  <line opacity="0.45" stroke="#888888" stroke-width="0.75" x1="735" x2="735" y1="329.86" y2="337.86"/>
  <circle cx="735" cy="307.86" fill="#1F497D" r="22" stroke="#FFFFFF" stroke-width="2"/>
  <path d="M 8 11 L 8 8 A 4 4 0 0 1 16 8 L 16 11 M 4 11 L 4 22 L 20 22 L 20 11 Z M 10 15 A 2 2 0 1 0 14 15 A 2 2 0 1 0 10 15" fill="none" stroke="#FFFFFF" stroke-linecap="round" stroke-width="2" transform="translate(735,307.86) scale(1.1917) translate(-12,-12)"/>
  <text dominant-baseline="alphabetic" fill="#111111" font-family="DejaVu Sans, Arial, Helvetica, sans-serif" font-size="13.33" font-weight="600" text-anchor="middle" x="735" y="352.59">lock</text>
  <text dominant-baseline="alphabetic" fill="#555555" font-family="DejaVu Sans, Arial, Helvetica, sans-serif" font-size="12" font-weight="400" text-anchor="middle" x="735" y="369.39">November 2026</text>
  <line opacity="0.45" stroke="#888888" stroke-width="0.75" x1="791" x2="791" y1="261.86" y2="285.86"/>
  <circle cx="791" cy="307.86" fill="#1F497D" r="22" stroke="#FFFFFF" stroke-width="2"/>
  <path d="M 6 19 L 18 19 A 4 4 0 0 0 18 12 A 5 5 0 0 0 11 8 A 4 4 0 0 0 4 12 A 4 4 0 0 0 6 19 Z" fill="none" stroke="#FFFFFF" stroke-linecap="round" stroke-width="2" transform="translate(791,307.86) scale(1.1917) translate(-12,-12)"/>
  <text dominant-baseline="alphabetic" fill="#111111" font-family="DejaVu Sans, Arial, Helvetica, sans-serif" font-size="13.33" font-weight="600" text-anchor="middle" x="791" y="239.66">cloud</text>
  <text dominant-baseline="alphabetic" fill="#555555" font-family="DejaVu Sans, Arial, Helvetica, sans-serif" font-size="12" font-weight="400" text-anchor="middle" x="791" y="256.46">December 2026</text>
  <line opacity="0.45" stroke="#888888" stroke-width="0.75" x1="849" x2="849" y1="329.86" y2="337.86"/>
  <circle cx="849" cy="307.86" fill="#1F497D" r="22" stroke="#FFFFFF" stroke-width="2"/>
  <path d="M 4 7 A 8 2.5 0 0 1 20 7 A 8 2.5 0 0 1 4 7 L 4 17 A 8 2.5 0 0 0 20 17 L 20 7 M 4 12 A 8 2.5 0 0 1 20 12" fill="none" stroke="#FFFFFF" stroke-linecap="round" stroke-width="2" transform="translate(849,307.86) scale(1.1917) translate(-12,-12)"/>
  <text dominant-baseline="alphabetic" fill="#111111" font-family="DejaVu Sans, Arial, Helvetica, sans-serif" font-size="13.33" font-weight="600" text-anchor="middle" x="849" y="352.59">database</text>
  <text dominant-baseline="alphabetic" fill="#555555" font-family="DejaVu Sans, Arial, Helvetica, sans-serif" font-size="12" font-weight="400" text-anchor="middle" x="849" y="369.39">January 2027</text>
  <line opacity="0.45" stroke="#888888" stroke-width="0.75" x1="881" x2="881" y1="162" y2="172"/>
  <line opacity="0.25" stroke="#888888" stroke-dasharray="2,3" stroke-width="0.75" x1="881" x2="899" y1="168" y2="168"/>
  <line opacity="0.45" stroke="#888888" stroke-width="0.75" x1="899" x2="899" y1="261.86" y2="285.86"/>
  <circle cx="899" cy="307.86" fill="#1F497D" r="22" stroke="#FFFFFF" stroke-width="2"/>
  <path d="M 9 7 L 3 12 L 9 17 M 15 7 L 21 12 L 15 17 M 13 5 L 11 19" fill="none" stroke="#FFFFFF" stroke-linecap="round" stroke-width="2" transform="translate(899,307.86) scale(1.1917) translate(-12,-12)"/>
  <text dominant-baseline="alphabetic" fill="#111111" font-family="DejaVu Sans, Arial, Helvetica, sans-serif" font-size="13.33" font-weight="600" text-anchor="middle" x="899" y="239.66">code</text>
  <text dominant-baseline="alphabetic" fill="#555555" font-family="DejaVu Sans, Arial, Helvetica, sans-serif" font-size="12" font-weight="400" text-anchor="middle" x="899" y="256.46">February 2027</text>
  <line opacity="0.45" stroke="#888888" stroke-width="0.75" x1="907" x2="907" y1="162" y2="172"/>
  <line opacity="0.25" stroke="#888888" stroke-dasharray="2,3" stroke-width="0.75" x1="907" x2="949" y1="168" y2="168"/>
  <line opacity="0.45" stroke="#888888" stroke-width="0.75" x1="949" x2="949" y1="329.86" y2="337.86"/>
  <circle cx="949" cy="307.86" fill="#1F497D" r="22" stroke="#FFFFFF" stroke-width="2"/>
  <path d="M 12 2 L 22 12 L 12 22 L 2 12 Z" fill="#FFFFFF" transform="translate(949,307.86) scale(1.1917) translate(-12,-12)"/>
  <text dominant-baseline="alphabetic" fill="#111111" font-family="DejaVu Sans, Arial, Helvetica, sans-serif" font-size="13.33" font-weight="600" text-anchor="middle" x="949" y="352.59">milestone</text>
  <text dominant-baseline="alphabetic" fill="#555555" font-family="DejaVu Sans, Arial, Helvetica, sans-serif" font-size="12" font-weight="400" text-anchor="middle" x="949" y="369.39">February 2027</text>
  <line opacity="0.45" stroke="#888888" stroke-width="0.75" x1="960" x2="960" y1="162" y2="172"/>
  <line opacity="0.25" stroke="#888888" stroke-dasharray="2,3" stroke-width="0.75" x1="960" x2="999" y1="168" y2="168"/>
  <line opacity="0.45" stroke="#888888" stroke-width="0.75" x1="999" x2="999" y1="261.86" y2="285.86"/>
  <circle cx="999" cy="307.86" fill="#1F497D" r="22" stroke="#FFFFFF" stroke-width="2"/>
  <path d="M 5 3 L 21 12 L 5 21 Z" fill="#FFFFFF" transform="translate(999,307.86) scale(1.1917) translate(-12,-12)"/>
  <text dominant-baseline="alphabetic" fill="#111111" font-family="DejaVu Sans, Arial, Helvetica, sans-serif" font-size="13.33" font-weight="600" text-anchor="middle" x="999" y="239.66">play</text>
  <text dominant-baseline="alphabetic" fill="#555555" font-family="DejaVu Sans, Arial, Helvetica, sans-serif" font-size="12" font-weight="400" text-anchor="middle" x="999" y="256.46">March 2027</text>
  <line opacity="0.45" stroke="#888888" stroke-width="0.75" x1="1018" x2="1018" y1="162" y2="172"/>
  <line opacity="0.25" stroke="#888888" stroke-dasharray="2,3" stroke-width="0.75" x1="1018" x2="1049" y1="168" y2="168"/>
  <line opacity="0.45" stroke="#888888" stroke-width="0.75" x1="1049" x2="1049" y1="329.86" y2="337.86"/>
  <circle cx="1049" cy="307.86" fill="#1F497D" r="22" stroke="#FFFFFF" stroke-width="2"/>
  <path d="M 14 2 L 6 13 L 12 13 L 10 22 L 18 11 L 12 11 Z" fill="#FFFFFF" transform="translate(1049,307.86) scale(1.1917) translate(-12,-12)"/>
  <text dominant-baseline="alphabetic" fill="#111111" font-family="DejaVu Sans, Arial, Helvetica, sans-serif" font-size="13.33" font-weight="600" text-anchor="middle" x="1049" y="352.59">bolt</text>
  <text dominant-baseline="alphabetic" fill="#555555" font-family="DejaVu Sans, Arial, Helvetica, sans-serif" font-size="12" font-weight="400" text-anchor="middle" x="1049" y="369.39">April 2027</text>
  <line opacity="0.45" stroke="#888888" stroke-width="0.75" x1="1048" x2="1048" y1="162" y2="172"/>
  <line opacity="0.25" stroke="#888888" stroke-dasharray="2,3" stroke-width="0.75" x1="1048" x2="1099" y1="168" y2="168"/>
  <line opacity="0.45" stroke="#888888" stroke-width="0.75" x1="1099" x2="1099" y1="261.86" y2="285.86"/>
  <circle cx="1099" cy="307.86" fill="#1F497D" r="22" stroke="#FFFFFF" stroke-width="2"/>
  <path d="M 4 7 A 3 3 0 1 0 10 7 A 3 3 0 1 0 4 7 M 1 22 A 6 6 0 0 1 13 22 M 14.5 8 A 2.5 2.5 0 1 0 19.5 8 A 2.5 2.5 0 1 0 14.5 8 M 14 22 A 5 5 0 0 1 22 22" fill="none" stroke="#FFFFFF" stroke-linecap="round" stroke-width="2" transform="translate(1099,307.86) scale(1.1917) translate(-12,-12)"/>
  <text dominant-baseline="alphabetic" fill="#111111" font-family="DejaVu Sans, Arial, Helvetica, sans-serif" font-size="13.33" font-weight="600" text-anchor="middle" x="1099" y="239.66">people</text>
  <text dominant-baseline="alphabetic" fill="#555555" font-family="DejaVu Sans, Arial, Helvetica, sans-serif" font-size="12" font-weight="400" text-anchor="middle" x="1099" y="256.46">May 2027</text>
  <line opacity="0.45" stroke="#888888" stroke-width="0.75" x1="1074" x2="1074" y1="162" y2="172"/>
  <line opacity="0.25" stroke="#888888" stroke-dasharray="2,3" stroke-width="0.75" x1="1074" x2="1138" y1="168" y2="168"/>
  <line opacity="0.45" stroke="#888888" stroke-width="0.75" x1="1138" x2="1138" y1="329.86" y2="337.86"/>
  <circle cx="1138" cy="307.86" fill="#1F497D" r="22" stroke="#FFFFFF" stroke-width="2"/>
  <path d="M 4 2 L 15 2 L 20 7 L 20 22 L 4 22 Z M 15 2 L 15 7 L 20 7 M 7 11 L 17 11 M 7 15 L 17 15 M 7 19 L 13 19" fill="none" stroke="#FFFFFF" stroke-linecap="round" stroke-width="2" transform="translate(1138,307.86) scale(1.1917) translate(-12,-12)"/>
  <text dominant-baseline="alphabetic" fill="#111111" font-family="DejaVu Sans, Arial, Helvetica, sans-serif" font-size="13.33" font-weight="600" text-anchor="middle" x="1138" y="352.59">doc</text>
  <text dominant-baseline="alphabetic" fill="#555555" font-family="DejaVu Sans, Arial, Helvetica, sans-serif" font-size="12" font-weight="400" text-anchor="middle" x="1138" y="369.39">May 2027</text>
  <line opacity="0.45" stroke="#888888" stroke-width="0.75" x1="1106" x2="1106" y1="162" y2="172"/>
  <line opacity="0.25" stroke="#888888" stroke-dasharray="2,3" stroke-width="0.75" x1="1106" x2="1138" y1="168" y2="168"/>
  <line opacity="0.45" stroke="#888888" stroke-width="0.75" x1="1138" x2="1138" y1="218.93" y2="285.86"/>
  <circle cx="1138" cy="307.86" fill="#1F497D" r="22" stroke="#FFFFFF" stroke-width="2"/>
  <path d="M 6 9 A 6 6 0 0 1 18 9 C 18 15 12 22 12 22 C 12 22 6 15 6 9 Z M 10 9 A 2 2 0 1 0 14 9 A 2 2 0 1 0 10 9" fill="none" stroke="#FFFFFF" stroke-linecap="round" stroke-width="2" transform="translate(1138,307.86) scale(1.1917) translate(-12,-12)"/>
  <text dominant-baseline="alphabetic" fill="#111111" font-family="DejaVu Sans, Arial, Helvetica, sans-serif" font-size="13.33" font-weight="600" text-anchor="middle" x="1138" y="196.73">pin</text>
  <text dominant-baseline="alphabetic" fill="#555555" font-family="DejaVu Sans, Arial, Helvetica, sans-serif" font-size="12" font-weight="400" text-anchor="middle" x="1138" y="213.53">June 2027</text>
  <rect fill="#FFFFFF" height="161.07" opacity="0.95" rx="4" stroke="#CCCCCC" stroke-width="1" width="160" x="984" y="203.72"/>
  <text dominant-baseline="alphabetic" fill="#111111" font-family="DejaVu Sans, Arial, Helvetica, sans-serif" font-size="13.33" font-weight="700" text-anchor="start" x="994" y="227.06">Legend</text>
  <rect fill="#888888" height="12" rx="0" width="12" x="994" y="239.59"/>
  <text dominant-baseline="middle" fill="#333333" font-family="DejaVu Sans, Arial, Helvetica, sans-serif" font-size="12" font-weight="400" text-anchor="start" x="1014" y="245.59">done</text>
  <rect fill="#CCCCCC" height="12" rx="0" width="12" x="994" y="259.99"/>
  <text dominant-baseline="middle" fill="#333333" font-family="DejaVu Sans, Arial, Helvetica, sans-serif" font-size="12" font-weight="400" text-anchor="start" x="1014" y="265.99">cancelled</text>
  <rect fill="#D97706" height="12" rx="0" width="12" x="994" y="280.39"/>
  <text dominant-baseline="middle" fill="#333333" font-family="DejaVu Sans, Arial, Helvetica, sans-serif" font-size="12" font-weight="400" text-anchor="start" x="1014" y="286.39">at-risk</text>
  <rect fill="#1F497D" height="12" rx="0" width="12" x="994" y="300.79"/>
  <text dominant-baseline="middle" fill="#333333" font-family="DejaVu Sans, Arial, Helvetica, sans-serif" font-size="12" font-weight="400" text-anchor="start" x="1014" y="306.79">in-progress</text>
  <rect fill="#1F497D" height="12" rx="0" width="12" x="994" y="321.19"/>
  <text dominant-baseline="middle" fill="#333333" font-family="DejaVu Sans, Arial, Helvetica, sans-serif" font-size="12" font-weight="400" text-anchor="start" x="1014" y="327.19">planned</text>
  <rect fill="#1F497D" height="12" rx="0" width="12" x="994" y="341.59"/>
  <text dominant-baseline="middle" fill="#333333" font-family="DejaVu Sans, Arial, Helvetica, sans-serif" font-size="12" font-weight="400" text-anchor="start" x="1014" y="347.59">standard-node</text>
</svg>