<?xml version="1.0" encoding="UTF-8"?>
<svg height="1008" version="1.1" viewBox="0 0 1200 1008" width="1200" xmlns="http://www.w3.org/2000/svg">
  <rect fill="#FFFFFF" height="1008" width="1200" x="0" y="0"/>
  <text dominant-baseline="middle" fill="#111111" font-family="DejaVu Sans, Arial, Helvetica, sans-serif" font-size="26.67" font-weight="700" text-anchor="middle" x="600" y="37.33">Founder Journey — From Idea to Series B</text>
  <rect fill="#888888" height="215" opacity="0.6" width="6" x="597" y="72"/>
  <rect fill="#888888" height="305" opacity="0.6" width="6" x="597" y="372"/>
  <rect fill="#1F497D" height="173" opacity="0.7" width="6" x="597" y="678"/>
  <line stroke="#333333" stroke-width="2" x1="600" x2="600" y1="72" y2="910"/>
  <line opacity="0.5" stroke="#333333" stroke-width="1" x1="592" x2="608" y1="224" y2="224"/>
  <text dominant-baseline="alphabetic" fill="#555555" font-family="DejaVu Sans, Arial, Helvetica, sans-serif" font-size="12" font-weight="400" opacity="0.6" text-anchor="start" x="614" y="222">2022</text>
  <line opacity="0.5" stroke="#333333" stroke-width="1" x1="592" x2="608" y1="484" y2="484"/>
  <text dominant-baseline="alphabetic" fill="#555555" font-family="DejaVu Sans, Arial, Helvetica, sans-serif" font-size="12" font-weight="400" opacity="0.6" text-anchor="start" x="614" y="482">2023</text>
  <line opacity="0.5" stroke="#333333" stroke-width="1" x1="592" x2="608" y1="743" y2="743"/>
  <text dominant-baseline="alphabetic" fill="#555555" font-family="DejaVu Sans, Arial, Helvetica, sans-serif" font-size="12" font-weight="400" opacity="0.6" text-anchor="start" x="614" y="741">2024</text>
  <line opacity="0.8" stroke="#888888" stroke-width="1.5" x1="611" x2="648" y1="72" y2="72"/>
  <text dominant-baseline="alphabetic" fill="#555555" font-family="DejaVu Sans, Arial, Helvetica, sans-serif" font-size="13.33" font-weight="400" text-anchor="start" x="658" y="54.15">1st June 2021</text>
  <text dominant-baseline="alphabetic" fill="#111111" font-family="DejaVu Sans, Arial, Helvetica, sans-serif" font-size="16" font-weight="600" text-anchor="start" x="658" y="82.15">Stealth / Build Phase</text>
  <text dominant-baseline="alphabetic" fill="#555555" font-family="DejaVu Sans, Arial, Helvetica, sans-serif" font-size="12" font-weight="400" opacity="0.85" text-anchor="start" x="658" y="103.15">Core product development</text>
  <line opacity="0.8" stroke="#1F497D" stroke-width="1.5" x1="589" x2="552" y1="172" y2="172"/>
  <text dominant-baseline="alphabetic" fill="#555555" font-family="DejaVu Sans, Arial, Helvetica, sans-serif" font-size="13.33" font-weight="400" text-anchor="end" x="542" y="154.15">15th June 2021</text>
  <text dominant-baseline="alphabetic" fill="#111111" font-family="DejaVu Sans, Arial, Helvetica, sans-serif" font-size="16" font-weight="600" text-anchor="end" x="542" y="182.15">The Idea</text>
  <text dominant-baseline="alphabetic" fill="#555555" font-family="DejaVu Sans, Arial, Helvetica, sans-serif" font-size="12" font-weight="400" opacity="0.85" text-anchor="end" x="542" y="203.15">First whiteboard session; founding team aligned</text>
  <circle cx="242" cy="147.5" fill="#1F497D" opacity="0.85" r="10"/>
  <path d="M 14 2 L 6 13 L 12 13 L 10 22 L 18 11 L 12 11 Z" fill="#FFFFFF" transform="translate(242,147.5) scale(0.5417) translate(-12,-12)"/>
  <line opacity="0.8" stroke="#1F497D" stroke-width="1.5" x1="611" x2="648" y1="272" y2="272"/>
  <text dominant-baseline="alphabetic" fill="#555555" font-family="DejaVu Sans, Arial, Helvetica, sans-serif" font-size="13.33" font-weight="400" text-anchor="start" x="658" y="254.15">20th January 2022</text>
  <text dominant-baseline="alphabetic" fill="#111111" font-family="DejaVu Sans, Arial, Helvetica, sans-serif" font-size="16" font-weight="600" text-anchor="start" x="658" y="282.15">First 10 Customers</text>
  <text dominant-baseline="alphabetic" fill="#555555" font-family="DejaVu Sans, Arial, Helvetica, sans-serif" font-size="12" font-weight="400" opacity="0.85" text-anchor="start" x="658" y="303.15">Initial design-partner cohort onboarded</text>
  <circle cx="958" cy="247.5" fill="#1F497D" opacity="0.85" r="10"/>
  <path d="M 4 7 A 3 3 0 1 0 10 7 A 3 3 0 1 0 4 7 M 1 22 A 6 6 0 0 1 13 22 M 14.5 8 A 2.5 2.5 0 1 0 19.5 8 A 2.5 2.5 0 1 0 14.5 8 M 14 22 A 5 5 0 0 1 22 22" fill="none" stroke="#FFFFFF" stroke-linecap="round" stroke-width="2" transform="translate(958,247.5) scale(0.5417) translate(-12,-12)"/>
  <line opacity="0.8" stroke="#888888" stroke-width="1.5" x1="589" x2="552" y1="372" y2="372"/>
  <text dominant-baseline="alphabetic" fill="#555555" font-family="DejaVu Sans, Arial, Helvetica, sans-serif" font-size="13.33" font-weight="400" text-anchor="end" x="542" y="354.15">1st July 2022</text>
  <text dominant-baseline="alphabetic" fill="#111111" font-family="DejaVu Sans, Arial, Helvetica, sans-serif" font-size="16" font-weight="600" text-anchor="end" x="542" y="382.15">Seed-fuelled Growth</text>
  <text dominant-baseline="alphabetic" fill="#555555" font-family="DejaVu Sans, Arial, Helvetica, sans-serif" font-size="12" font-weight="400" opacity="0.85" text-anchor="end" x="542" y="403.15">Team scaling, GTM iteration</text>
  <line opacity="0.8" stroke="#1F497D" stroke-width="1.5" x1="611" x2="648" y1="472" y2="472"/>
  <text dominant-baseline="alphabetic" fill="#555555" font-family="DejaVu Sans, Arial, Helvetica, sans-serif" font-size="13.33" font-weight="400" text-anchor="start" x="658" y="454.15">1st July 2022</text>
  <text dominant-baseline="alphabetic" fill="#111111" font-family="DejaVu Sans, Arial, Helvetica, sans-serif" font-size="16" font-weight="600" text-anchor="start" x="658" y="482.15">Seed Round Closed</text>
  <text dominant-baseline="alphabetic" fill="#555555" font-family="DejaVu Sans, Arial, Helvetica, sans-serif" font-size="12" font-weight="400" opacity="0.85" text-anchor="start" x="658" y="503.15">$3.5M at $18M post-money valuation</text>
  <circle cx="958" cy="447.5" fill="#1F497D" opacity="0.85" r="10"/>
  <path d="M 12 3 L 14.4 8.8 L 20.6 9.2 L 15.8 13.2 L 17.3 19.3 L 12 16 L 6.7 19.3 L 8.2 13.2 L 3.4 9.2 L 9.6 8.8 Z" fill="#FFFFFF" transform="translate(958,447.5) scale(0.5417) translate(-12,-12)"/>
  <line opacity="0.8" stroke="#1F497D" stroke-width="1.5" x1="589" x2="552" y1="678" y2="678"/>
  <text dominant-baseline="alphabetic" fill="#555555" font-family="DejaVu Sans, Arial, Helvetica, sans-serif" font-size="13.33" font-weight="400" text-anchor="end" x="542" y="660.15">1st October 2023</text>
  <text dominant-baseline="alphabetic" fill="#111111" font-family="DejaVu Sans, Arial, Helvetica, sans-serif" font-size="16" font-weight="600" text-anchor="end" x="542" y="688.15">Series A Deployment</text>
  <text dominant-baseline="alphabetic" fill="#555555" font-family="DejaVu Sans, Arial, Helvetica, sans-serif" font-size="12" font-weight="400" opacity="0.85" text-anchor="end" x="542" y="709.15">Enterprise motion, international</text>
  <line opacity="0.8" stroke="#1F497D" stroke-width="1.5" x1="611" x2="648" y1="778" y2="778"/>
  <text dominant-baseline="alphabetic" fill="#555555" font-family="DejaVu Sans, Arial, Helvetica, sans-serif" font-size="13.33" font-weight="400" text-anchor="start" x="658" y="760.15">1st October 2023</text>
  <text dominant-baseline="alphabetic" fill="#111111" font-family="DejaVu Sans, Arial, Helvetica, sans-serif" font-size="16" font-weight="600" text-anchor="start" x="658" y="788.15">Series A — $15M</text>
  <text dominant-baseline="alphabetic" fill="#555555" font-family="DejaVu Sans, Arial, Helvetica, sans-serif" font-size="12" font-weight="400" opacity="0.85" text-anchor="start" x="658" y="809.15">Led by Horizon Ventures</text>
  <circle cx="958" cy="753.5" fill="#1F497D" opacity="0.85" r="10"/>
  <path d="M 12 2 L 16 11 L 15 11 L 15 18 L 9 18 L 9 11 L 8 11 Z M 9 18 L 6 22 L 9 16 Z M 15 18 L 18 22 L 15 16 Z" fill="#FFFFFF" transform="translate(958,753.5) scale(0.5417) translate(-12,-12)"/>
  <line opacity="0.8" stroke="#1F497D" stroke-width="1.5" x1="589" x2="552" y1="878" y2="878"/>
  <text dominant-baseline="alphabetic" fill="#555555" font-family="DejaVu Sans, Arial, Helvetica, sans-serif" font-size="13.33" font-weight="400" text-anchor="end" x="542" y="860.15">1st April 2024</text>
  <text dominant-baseline="alphabetic" fill="#111111" font-family="DejaVu Sans, Arial, Helvetica, sans-serif" font-size="16" font-weight="600" text-anchor="end" x="542" y="888.15">Series B — $42M</text>
  <text dominant-baseline="alphabetic" fill="#555555" font-family="DejaVu Sans, Arial, Helvetica, sans-serif" font-size="12" font-weight="400" opacity="0.85" text-anchor="end" x="542" y="909.15">Targeting enterprise expansion</text>
  <circle cx="242" cy="853.5" fill="#1F497D" opacity="0.85" r="10"/>
  <path d="M 3 12 A 9 9 0 1 0 21 12 A 9 9 0 1 0 3 12 M 7 12 A 5 5 0 1 0 17 12 A 5 5 0 1 0 7 12 M 10 12 A 2 2 0 1 0 14 12 A 2 2 0 1 0 10 12" fill="none" stroke="#FFFFFF" stroke-linecap="round" stroke-width="2" transform="translate(242,853.5) scale(0.5417) translate(-12,-12)"/>
  <circle cx="600" cy="72" fill="#888888" r="11" stroke="#FFFFFF" stroke-width="1.5"/>
  <circle cx="600" cy="172" fill="#1F497D" r="11" stroke="#FFFFFF" stroke-width="1.5"/>
  <path d="M 14 2 L 6 13 L 12 13 L 10 22 L 18 11 L 12 11 Z" fill="#FFFFFF" transform="translate(600,172) scale(0.5958) translate(-12,-12)"/>
  <circle cx="600" cy="272" fill="#1F497D" r="11" stroke="#FFFFFF" stroke-width="1.5"/>
  <path d="M 4 7 A 3 3 0 1 0 10 7 A 3 3 0 1 0 4 7 M 1 22 A 6 6 0 0 1 13 22 M 14.5 8 A 2.5 2.5 0 1 0 19.5 8 A 2.5 2.5 0 1 0 14.5 8 M 14 22 A 5 5 0 0 1 22 22" fill="none" stroke="#FFFFFF" stroke-linecap="round" stroke-width="2" transform="translate(600,272) scale(0.5958) translate(-12,-12)"/>
  <circle cx="600" cy="372" fill="#888888" r="11" stroke="#FFFFFF" stroke-width="1.5"/>
  <circle cx="600" cy="472" fill="#1F497D" r="11" stroke="#FFFFFF" stroke-width="1.5"/>
  <path d="M 12 3 L 14.4 8.8 L 20.6 9.2 L 15.8 13.2 L 17.3 19.3 L 12 16 L 6.7 19.3 L 8.2 13.2 L 3.4 9.2 L 9.6 8.8 Z" fill="#FFFFFF" transform="translate(600,472) scale(0.5958) translate(-12,-12)"/>
  <circle cx="600" cy="678" fill="#1F497D" r="11" stroke="#FFFFFF" stroke-width="1.5"/>
  <circle cx="600" cy="778" fill="#1F497D" r="11" stroke="#FFFFFF" stroke-width="1.5"/>
  <path d="M 12 2 L 16 11 L 15 11 L 15 18 L 9 18 L 9 11 L 8 11 Z M 9 18 L 6 22 L 9 16 Z M 15 18 L 18 22 L 15 16 Z" fill="#FFFFFF" transform="translate(600,778) scale(0.5958) translate(-12,-12)"/>
  <circle cx="600" cy="878" fill="#1F497D" r="11" stroke="#FFFFFF" stroke-width="1.5"/>
  <path d="M 3 12 A 9 9 0 1 0 21 12 A 9 9 0 1 0 3 12 M 7 12 A 5 5 0 1 0 17 12 A 5 5 0 1 0 7 12 M 10 12 A 2 2 0 1 0 14 12 A 2 2 0 1 0 10 12" fill="none" stroke="#FFFFFF" stroke-linecap="round" stroke-width="2" transform="translate(600,878) scale(0.5958) translate(-12,-12)"/>
  <rect fill="#FFFFFF" height="120.27" opacity="0.95" rx="4" stroke="#CCCCCC" stroke-width="1" width="160" x="984" y="823.73"/>
  <text dominant-baseline="alphabetic" fill="#111111" font-family="DejaVu Sans, Arial, Helvetica, sans-serif" font-size="13.33" font-weight="700" text-anchor="start" x="994" y="847.07">Legend</text>
  <rect fill="#888888" height="12" rx="0" width="12" x="994" y="859.6"/>
  <text dominant-baseline="middle" fill="#333333" font-family="DejaVu Sans, Arial, Helvetica, sans-serif" font-size="12" font-weight="400" text-anchor="start" x="1014" y="865.6">done</text>
  <rect fill="#1F497D" height="12" rx="0" width="12" x="994" y="880"/>
  <text dominant-baseline="middle" fill="#333333" font-family="DejaVu Sans, Arial, Helvetica, sans-serif" font-size="12" font-weight="400" text-anchor="start" x="1014" y="886">in-progress</text>
  <rect fill="#1F497D" height="12" rx="0" width="12" x="994" y="900.4"/>
  <text dominant-baseline="middle" fill="#333333" font-family="DejaVu Sans, Arial, Helvetica, sans-serif" font-size="12" font-weight="400" text-anchor="start" x="1014" y="906.4">planned</text>
  <rect fill="#1F497D" height="12" rx="0" width="12" x="994" y="920.8"/>
  <text dominant-baseline="middle" fill="#333333" font-family="DejaVu Sans, Arial, Helvetica, sans-serif" font-size="12" font-weight="400" text-anchor="start" x="1014" y="926.8">standard-node</text>
</svg>