<?xml version="1.0" encoding="UTF-8"?>
<svg height="304" version="1.1" viewBox="0 0 860 304" width="860" xmlns="http://www.w3.org/2000/svg">
  <rect fill="#f8fafc" height="224" rx="8" stroke="#e2e8f0" stroke-width="1" width="180" x="40" y="40"/>
  <rect fill="#22c55e" height="40" rx="8" stroke="none" stroke-width="0" width="180" x="40" y="40"/>
  <rect fill="#22c55e" height="8" rx="0" stroke="none" stroke-width="0" width="180" x="40" y="72"/>
  <text dominant-baseline="alphabetic" fill="#ffffff" font-family="DejaVu Sans, sans-serif" font-size="14" font-weight="700" text-anchor="middle" x="130" y="65">Todo</text>
  <rect fill="#ffffff" height="33" rx="6" stroke="#e2e8f0" stroke-width="1" width="164" x="48" y="88"/>
  <text dominant-baseline="alphabetic" fill="#0f172a" font-family="DejaVu Sans, sans-serif" font-size="12" font-weight="400" text-anchor="start" x="58" y="106">Design API endpoints</text>
  <rect fill="#ffffff" height="33" rx="6" stroke="#e2e8f0" stroke-width="1" width="164" x="48" y="129"/>
  <text dominant-baseline="alphabetic" fill="#0f172a" font-family="DejaVu Sans, sans-serif" font-size="12" font-weight="400" text-anchor="start" x="58" y="147">Setup CI pipeline</text>
  <rect fill="#ffffff" height="33" rx="6" stroke="#e2e8f0" stroke-width="1" width="164" x="48" y="170"/>
  <text dominant-baseline="alphabetic" fill="#0f172a" font-family="DejaVu Sans, sans-serif" font-size="12" font-weight="400" text-anchor="start" x="58" y="188">Write test plan</text>
  <rect fill="#ffffff" height="33" rx="6" stroke="#e2e8f0" stroke-width="1" width="164" x="48" y="211"/>
  <text dominant-baseline="alphabetic" fill="#0f172a" font-family="DejaVu Sans, sans-serif" font-size="12" font-weight="400" text-anchor="start" x="58" y="229">Database schema</text>
  <rect fill="#f8fafc" height="224" rx="8" stroke="#e2e8f0" stroke-width="1" width="180" x="240" y="40"/>
  <rect fill="#a855f7" height="40" rx="8" stroke="none" stroke-width="0" width="180" x="240" y="40"/>
  <rect fill="#a855f7" height="8" rx="0" stroke="none" stroke-width="0" width="180" x="240" y="72"/>
  <text dominant-baseline="alphabetic" fill="#ffffff" font-family="DejaVu Sans, sans-serif" font-size="14" font-weight="700" text-anchor="middle" x="330" y="65">In Progress</text>
  <rect fill="#ffffff" height="33" rx="6" stroke="#e2e8f0" stroke-width="1" width="164" x="248" y="88"/>
  <text dominant-baseline="alphabetic" fill="#0f172a" font-family="DejaVu Sans, sans-serif" font-size="12" font-weight="400" text-anchor="start" x="258" y="106">Build auth service</text>
  <rect fill="#ffffff" height="33" rx="6" stroke="#e2e8f0" stroke-width="1" width="164" x="248" y="129"/>
  <text dominant-baseline="alphabetic" fill="#0f172a" font-family="DejaVu Sans, sans-serif" font-size="12" font-weight="400" text-anchor="start" x="258" y="147">Implement logging</text>
  <rect fill="#f8fafc" height="224" rx="8" stroke="#e2e8f0" stroke-width="1" width="180" x="440" y="40"/>
  <rect fill="#f43f5e" height="40" rx="8" stroke="none" stroke-width="0" width="180" x="440" y="40"/>
  <rect fill="#f43f5e" height="8" rx="0" stroke="none" stroke-width="0" width="180" x="440" y="72"/>
  <text dominant-baseline="alphabetic" fill="#ffffff" font-family="DejaVu Sans, sans-serif" font-size="14" font-weight="700" text-anchor="middle" x="530" y="65">Review</text>
  <rect fill="#ffffff" height="33" rx="6" stroke="#e2e8f0" stroke-width="1" width="164" x="448" y="88"/>
  <text dominant-baseline="alphabetic" fill="#0f172a" font-family="DejaVu Sans, sans-serif" font-size="12" font-weight="400" text-anchor="start" x="458" y="106">Code review — auth</text>
  <rect fill="#ffffff" height="33" rx="6" stroke="#e2e8f0" stroke-width="1" width="164" x="448" y="129"/>
  <text dominant-baseline="alphabetic" fill="#0f172a" font-family="DejaVu Sans, sans-serif" font-size="12" font-weight="400" text-anchor="start" x="458" y="147">Security audit</text>
  <rect fill="#f8fafc" height="224" rx="8" stroke="#e2e8f0" stroke-width="1" width="180" x="640" y="40"/>
  <rect fill="#3b82f6" height="40" rx="8" stroke="none" stroke-width="0" width="180" x="640" y="40"/>
  <rect fill="#3b82f6" height="8" rx="0" stroke="none" stroke-width="0" width="180" x="640" y="72"/>
  <text dominant-baseline="alphabetic" fill="#ffffff" font-family="DejaVu Sans, sans-serif" font-size="14" font-weight="700" text-anchor="middle" x="730" y="65">Done</text>
  <rect fill="#ffffff" height="33" rx="6" stroke="#e2e8f0" stroke-width="1" width="164" x="648" y="88"/>
  <text dominant-baseline="alphabetic" fill="#0f172a" font-family="DejaVu Sans, sans-serif" font-size="12" font-weight="400" text-anchor="start" x="658" y="106">Write project spec</text>
  <rect fill="#ffffff" height="33" rx="6" stroke="#e2e8f0" stroke-width="1" width="164" x="648" y="129"/>
  <text dominant-baseline="alphabetic" fill="#0f172a" font-family="DejaVu Sans, sans-serif" font-size="12" font-weight="400" text-anchor="start" x="658" y="147">Plan sprint 1</text>
  <rect fill="#ffffff" height="33" rx="6" stroke="#e2e8f0" stroke-width="1" width="164" x="648" y="170"/>
  <text dominant-baseline="alphabetic" fill="#0f172a" font-family="DejaVu Sans, sans-serif" font-size="12" font-weight="400" text-anchor="start" x="658" y="188">Setup repo</text>
</svg>