<?xml version="1.0" encoding="UTF-8"?>
<svg height="298" version="1.1" viewBox="0 0 506 298" width="506" xmlns="http://www.w3.org/2000/svg">
  <rect fill="#f8fafc" height="140" opacity="0.9" width="292" x="174" y="16"/>
  <path d="M 174 16 L 466 16 L 466 156 L 174 156 Z" fill="none" stroke="#94a3b8" stroke-dasharray="6,4" stroke-width="1.25"/>
  <path d="M 6 19 L 18 19 A 4 4 0 0 0 18 12 A 5 5 0 0 0 11 8 A 4 4 0 0 0 4 12 A 4 4 0 0 0 6 19 Z" fill="none" stroke="#475569" stroke-width="1.35" transform="translate(186,24) scale(0.5833)"/>
  <text dominant-baseline="alphabetic" fill="#475569" font-family="DejaVu Sans, sans-serif" font-size="12" font-weight="700" text-anchor="start" x="208" y="40">Cloud Services</text>
  <path d="M 168 100 L 182 100 L 180 100 L 178 100 L 192 100" fill="none" stroke="#64748b" stroke-linecap="round" stroke-width="1.5"/>
  <path d="M 192 100 L 185 104 L 185 96 Z" fill="#64748b" stroke="#64748b" stroke-width="1"/>
  <path d="M 308 100 L 322 100 L 320 100 L 318 100 L 332 100" fill="none" stroke="#64748b" stroke-linecap="round" stroke-width="1.5"/>
  <path d="M 332 100 L 325 104 L 325 96 Z" fill="#64748b" stroke="#64748b" stroke-width="1"/>
  <path d="M 250 138 L 250 152 L 250 160 L 250 168 L 250 182" fill="none" stroke="#64748b" stroke-linecap="round" stroke-width="1.5"/>
  <path d="M 250 182 L 246 175 L 254 175 Z" fill="#64748b" stroke="#64748b" stroke-width="1"/>
  <rect fill="#f8fafc" height="76" rx="12" stroke="#94a3b8" stroke-width="1.5" width="116" x="192" y="62"/>
  <path d="M 4 4 L 20 4 L 20 10 L 4 10 Z M 4 14 L 20 14 L 20 20 L 4 20 Z M 7 7 L 14 7 M 7 17 L 14 17 M 16.5 7 A 1 1 0 1 0 18.5 7 A 1 1 0 1 0 16.5 7 M 16.5 17 A 1 1 0 1 0 18.5 17 A 1 1 0 1 0 16.5 17" fill="none" stroke="#475569" stroke-width="1.35" transform="translate(238,76) scale(1.0000)"/>
  <text dominant-baseline="alphabetic" fill="#334155" font-family="DejaVu Sans, sans-serif" font-size="12" font-weight="600" text-anchor="middle" x="250" y="124">API Server</text>
  <rect fill="#f8fafc" height="76" rx="12" stroke="#94a3b8" stroke-width="1.5" width="116" x="332" y="62"/>
  <path d="M 4 7 A 8 2.5 0 0 1 20 7 A 8 2.5 0 0 1 4 7 L 4 17 A 8 2.5 0 0 0 20 17 L 20 7 M 4 12 A 8 2.5 0 0 1 20 12" fill="none" stroke="#475569" stroke-width="1.35" transform="translate(378,76) scale(1.0000)"/>
  <text dominant-baseline="alphabetic" fill="#334155" font-family="DejaVu Sans, sans-serif" font-size="12" font-weight="600" text-anchor="middle" x="390" y="124">Database</text>
  <rect fill="#f8fafc" height="76" rx="12" stroke="#94a3b8" stroke-width="1.5" width="116" x="52" y="62"/>
  <path d="M 2 12 A 10 10 0 1 0 22 12 A 10 10 0 1 0 2 12 M 12 2 A 15 10 0 0 1 12 22 A 15 10 0 0 1 12 2 M 4 8 L 20 8 M 4 16 L 20 16 M 12 2 L 12 22" fill="none" stroke="#475569" stroke-width="1.35" transform="translate(98,76) scale(1.0000)"/>
  <text dominant-baseline="alphabetic" fill="#334155" font-family="DejaVu Sans, sans-serif" font-size="12" font-weight="600" text-anchor="middle" x="110" y="124">Client</text>
  <rect fill="#f8fafc" height="76" rx="12" stroke="#94a3b8" stroke-width="1.5" width="116" x="192" y="182"/>
  <path d="M 4 5 L 20 5 L 20 19 L 4 19 Z M 8 12 A 4 4 0 1 0 16 12 A 4 4 0 1 0 8 12 M 10.5 12 A 1.5 1.5 0 1 0 13.5 12 A 1.5 1.5 0 1 0 10.5 12 M 6 16 L 10 16" fill="none" stroke="#475569" stroke-width="1.35" transform="translate(238,196) scale(1.0000)"/>
  <text dominant-baseline="alphabetic" fill="#334155" font-family="DejaVu Sans, sans-serif" font-size="12" font-weight="600" text-anchor="middle" x="250" y="244">Storage</text>
</svg>