<?xml version="1.0" encoding="UTF-8"?>
<svg height="560" version="1.1" viewBox="0 0 920 560" width="920" xmlns="http://www.w3.org/2000/svg">
  <rect fill="#ffffff" height="560" width="920" x="0" y="0"/>
  <text dominant-baseline="alphabetic" fill="#1a1a2e" font-family="DejaVu Sans, sans-serif" font-size="22" font-weight="700" text-anchor="middle" x="460" y="50">Programming Language Popularity 2026</text>
  <path d="M 370 303 L 370 94 A 209 209 0 0 1 573.97 348.59 Z" fill="#4C72B0" stroke="#ffffff" stroke-width="1"/>
  <path d="M 370 303 L 573.97 348.59 A 209 209 0 0 1 359.5 511.74 Z" fill="#DD8452" stroke="#ffffff" stroke-width="1"/>
  <path d="M 370 303 L 359.5 511.74 A 209 209 0 0 1 218.55 447.02 Z" fill="#55A868" stroke="#ffffff" stroke-width="1"/>
  <path d="M 370 303 L 218.55 447.02 A 209 209 0 0 1 161.7 320.05 Z" fill="#C44E52" stroke="#ffffff" stroke-width="1"/>
  <path d="M 370 303 L 161.7 320.05 A 209 209 0 0 1 181.45 212.83 Z" fill="#8172B3" stroke="#ffffff" stroke-width="1"/>
  <path d="M 370 303 L 181.45 212.83 A 209 209 0 0 1 229.83 147.98 Z" fill="#937860" stroke="#ffffff" stroke-width="1"/>
  <path d="M 370 303 L 229.83 147.98 A 209 209 0 0 1 370 94 Z" fill="#DA8BC3" stroke="#ffffff" stroke-width="1"/>
  <text dominant-baseline="middle" fill="#1f2937" font-family="DejaVu Sans, sans-serif" font-size="12" font-weight="500" text-anchor="middle" x="484.18" y="211.53">Python</text>
  <text dominant-baseline="middle" fill="#1f2937" font-family="DejaVu Sans, sans-serif" font-size="12" font-weight="500" text-anchor="middle" x="458.57" y="419.44">JavaScript</text>
  <text dominant-baseline="middle" fill="#1f2937" font-family="DejaVu Sans, sans-serif" font-size="12" font-weight="500" text-anchor="middle" x="308.96" y="435.96">TypeScript</text>
  <text dominant-baseline="middle" fill="#1f2937" font-family="DejaVu Sans, sans-serif" font-size="12" font-weight="500" text-anchor="middle" x="317.43" y="166.47">Other</text>
  <text dominant-baseline="middle" fill="#1f2937" font-family="DejaVu Sans, sans-serif" font-size="12" font-weight="500" text-anchor="middle" x="236.47" y="362.79">Java</text>
  <text dominant-baseline="middle" fill="#1f2937" font-family="DejaVu Sans, sans-serif" font-size="12" font-weight="500" text-anchor="middle" x="226.12" y="276.49">Rust</text>
  <text dominant-baseline="middle" fill="#1f2937" font-family="DejaVu Sans, sans-serif" font-size="12" font-weight="500" text-anchor="end" x="167.34" y="159.29">Go</text>
  <rect fill="#4C72B0" height="12" rx="2" stroke="#ffffff" stroke-width="1" width="12" x="736" y="94"/>
  <text dominant-baseline="middle" fill="#475569" font-family="DejaVu Sans, sans-serif" font-size="12" font-weight="400" text-anchor="start" x="756" y="101">Python</text>
  <rect fill="#DD8452" height="12" rx="2" stroke="#ffffff" stroke-width="1" width="12" x="736" y="118"/>
  <text dominant-baseline="middle" fill="#475569" font-family="DejaVu Sans, sans-serif" font-size="12" font-weight="400" text-anchor="start" x="756" y="125">JavaScript</text>
  <rect fill="#55A868" height="12" rx="2" stroke="#ffffff" stroke-width="1" width="12" x="736" y="142"/>
  <text dominant-baseline="middle" fill="#475569" font-family="DejaVu Sans, sans-serif" font-size="12" font-weight="400" text-anchor="start" x="756" y="149">TypeScript</text>
  <rect fill="#C44E52" height="12" rx="2" stroke="#ffffff" stroke-width="1" width="12" x="736" y="166"/>
  <text dominant-baseline="middle" fill="#475569" font-family="DejaVu Sans, sans-serif" font-size="12" font-weight="400" text-anchor="start" x="756" y="173">Java</text>
  <rect fill="#8172B3" height="12" rx="2" stroke="#ffffff" stroke-width="1" width="12" x="736" y="190"/>
  <text dominant-baseline="middle" fill="#475569" font-family="DejaVu Sans, sans-serif" font-size="12" font-weight="400" text-anchor="start" x="756" y="197">Rust</text>
  <rect fill="#937860" height="12" rx="2" stroke="#ffffff" stroke-width="1" width="12" x="736" y="214"/>
  <text dominant-baseline="middle" fill="#475569" font-family="DejaVu Sans, sans-serif" font-size="12" font-weight="400" text-anchor="start" x="756" y="221">Go</text>
  <rect fill="#DA8BC3" height="12" rx="2" stroke="#ffffff" stroke-width="1" width="12" x="736" y="238"/>
  <text dominant-baseline="middle" fill="#475569" font-family="DejaVu Sans, sans-serif" font-size="12" font-weight="400" text-anchor="start" x="756" y="245">Other</text>
</svg>