<?xml version="1.0" encoding="UTF-8"?>
<svg height="234" version="1.1" viewBox="0 0 1856 234" width="1856" xmlns="http://www.w3.org/2000/svg">
  <rect fill="#111827" height="234" width="1856" x="0" y="0"/>
  <path d="M 1279 97 C 1279 147 1045 199 1045 149" fill="none" stroke="#475569" stroke-dasharray="5,4" stroke-width="1.5"/>
  <path d="M 169 110 C 206 110 243 110 273 110" fill="none" stroke="#2dd4bf" stroke-width="1.5"/>
  <path d="M 406 110 C 443 110 480 154 510 154" fill="none" stroke="#2dd4bf" stroke-width="1.5"/>
  <path d="M 406 110 C 441 110 477 65 505 65" fill="none" stroke="#2dd4bf" stroke-width="1.5"/>
  <path d="M 638 154 C 676 154 713 65 744 65" fill="none" stroke="#2dd4bf" stroke-width="1.5"/>
  <path d="M 638 154 C 672 154 707 154 734 154" fill="none" stroke="#2dd4bf" stroke-width="1.5"/>
  <path d="M 871 65 C 903 65 936 110 961 110" fill="none" stroke="#2dd4bf" stroke-width="1.5"/>
  <path d="M 1122 110 C 1154 110 1186 154 1211 154" fill="none" stroke="#2dd4bf" stroke-width="1.5"/>
  <path d="M 1122 110 C 1154 110 1185 65 1210 65" fill="none" stroke="#2dd4bf" stroke-width="1.5"/>
  <path d="M 1340 154 C 1378 154 1415 110 1446 110" fill="none" stroke="#2dd4bf" stroke-dasharray="2,4" stroke-width="1.5"/>
  <path d="M 1573 110 C 1608 110 1643 65 1671 65" fill="none" stroke="#2dd4bf" stroke-width="1.5"/>
  <path d="M 1573 110 C 1611 110 1649 154 1680 154" fill="none" stroke="#2dd4bf" stroke-width="1.5"/>
  <rect fill="#0d9488" height="65" rx="33" stroke="#2dd4bf" stroke-width="1.5" width="120" x="49" y="77"/>
  <text dominant-baseline="central" fill="#ffffff" font-family="DejaVu Sans, sans-serif" font-size="12" font-weight="600" text-anchor="middle" x="109" y="110">Code Push</text>
  <rect fill="#1e293b" height="65" rx="0" stroke="#2dd4bf" stroke-width="1.5" width="126" x="280" y="77"/>
  <text dominant-baseline="central" fill="#f1f5f9" font-family="DejaVu Sans, sans-serif" font-size="12" font-weight="600" text-anchor="middle" x="343" y="110">Lint and Format</text>
  <rect fill="#1e293b" height="65" rx="0" stroke="#2dd4bf" stroke-width="1.5" width="131" x="512" y="32"/>
  <text dominant-baseline="central" fill="#f1f5f9" font-family="DejaVu Sans, sans-serif" font-size="12" font-weight="600" text-anchor="middle" x="577" y="65">Notify Lint Failed</text>
  <rect fill="#1e293b" height="65" rx="0" stroke="#2dd4bf" stroke-width="1.5" width="121" x="517" y="121"/>
  <text dominant-baseline="central" fill="#f1f5f9" font-family="DejaVu Sans, sans-serif" font-size="12" font-weight="600" text-anchor="middle" x="577" y="154">Run Unit Tests</text>
  <rect fill="#1e293b" height="65" rx="0" stroke="#2dd4bf" stroke-width="1.5" width="120" x="751" y="32"/>
  <text dominant-baseline="central" fill="#f1f5f9" font-family="DejaVu Sans, sans-serif" font-size="12" font-weight="600" text-anchor="middle" x="811" y="65">Docker Build</text>
  <rect fill="#1e293b" height="65" rx="0" stroke="#2dd4bf" stroke-width="1.5" width="141" x="741" y="121"/>
  <text dominant-baseline="central" fill="#f1f5f9" font-family="DejaVu Sans, sans-serif" font-size="12" font-weight="600" text-anchor="middle" x="811" y="154">Notify Tests Failed</text>
  <path d="M 1045 77 L 1122 110 L 1045 142 L 968 110 Z" fill="#7c3aed" stroke="#2dd4bf" stroke-width="1.5"/>
  <text dominant-baseline="central" fill="#ede9fe" font-family="DejaVu Sans, sans-serif" font-size="12" font-weight="600" text-anchor="middle" x="1045" y="110">Security Scan</text>
  <rect fill="#1e293b" height="65" rx="0" stroke="#2dd4bf" stroke-width="1.5" width="125" x="1217" y="32"/>
  <text dominant-baseline="central" fill="#f1f5f9" font-family="DejaVu Sans, sans-serif" font-size="12" font-weight="600" text-anchor="middle" x="1279" y="65">Hold for Review</text>
  <rect fill="#0d9488" height="65" rx="33" stroke="#2dd4bf" stroke-width="1.5" width="122" x="1218" y="121"/>
  <text dominant-baseline="central" fill="#ffffff" font-family="DejaVu Sans, sans-serif" font-size="12" font-weight="600" text-anchor="middle" x="1279" y="154">Deploy Staging</text>
  <rect fill="#1e293b" height="65" rx="0" stroke="#2dd4bf" stroke-width="1.5" width="120" x="1453" y="77"/>
  <text dominant-baseline="central" fill="#f1f5f9" font-family="DejaVu Sans, sans-serif" font-size="12" font-weight="600" text-anchor="middle" x="1513" y="110">Smoke Tests</text>
  <rect fill="#0d9488" height="65" rx="33" stroke="#2dd4bf" stroke-width="1.5" width="139" x="1678" y="32"/>
  <text dominant-baseline="central" fill="#ffffff" font-family="DejaVu Sans, sans-serif" font-size="12" font-weight="600" text-anchor="middle" x="1747" y="65">Deploy Production</text>
  <rect fill="#1e293b" height="65" rx="0" stroke="#2dd4bf" stroke-width="1.5" width="120" x="1687" y="121"/>
  <text dominant-baseline="central" fill="#f1f5f9" font-family="DejaVu Sans, sans-serif" font-size="12" font-weight="600" text-anchor="middle" x="1747" y="154">Rollback</text>
  <path d="M 1045 142 L 1041 149 L 1049 149 Z" fill="#475569" stroke="none" stroke-width="0"/>
  <path d="M 280 110 L 273 106 L 273 114 Z" fill="#2dd4bf" stroke="none" stroke-width="0"/>
  <path d="M 517 154 L 510 150 L 510 158 Z" fill="#2dd4bf" stroke="none" stroke-width="0"/>
  <path d="M 512 65 L 505 61 L 505 69 Z" fill="#2dd4bf" stroke="none" stroke-width="0"/>
  <path d="M 751 65 L 744 61 L 744 69 Z" fill="#2dd4bf" stroke="none" stroke-width="0"/>
  <path d="M 741 154 L 734 150 L 734 158 Z" fill="#2dd4bf" stroke="none" stroke-width="0"/>
  <path d="M 968 110 L 961 106 L 961 114 Z" fill="#2dd4bf" stroke="none" stroke-width="0"/>
  <path d="M 1218 154 L 1211 150 L 1211 158 Z" fill="#2dd4bf" stroke="none" stroke-width="0"/>
  <path d="M 1217 65 L 1210 61 L 1210 69 Z" fill="#2dd4bf" stroke="none" stroke-width="0"/>
  <path d="M 1453 110 L 1446 106 L 1446 114 Z" fill="#2dd4bf" stroke="none" stroke-width="0"/>
  <path d="M 1678 65 L 1671 61 L 1671 69 Z" fill="#2dd4bf" stroke="none" stroke-width="0"/>
  <path d="M 1687 154 L 1680 150 L 1680 158 Z" fill="#2dd4bf" stroke="none" stroke-width="0"/>
  <text dominant-baseline="auto" fill="#94a3b8" font-family="DejaVu Sans, sans-serif" font-size="10" font-weight="400" text-anchor="middle" x="462" y="124">pass</text>
  <text dominant-baseline="auto" fill="#94a3b8" font-family="DejaVu Sans, sans-serif" font-size="10" font-weight="400" text-anchor="middle" x="459" y="80">fail</text>
  <text dominant-baseline="auto" fill="#94a3b8" font-family="DejaVu Sans, sans-serif" font-size="10" font-weight="400" text-anchor="middle" x="695" y="102">pass</text>
  <text dominant-baseline="auto" fill="#94a3b8" font-family="DejaVu Sans, sans-serif" font-size="10" font-weight="400" text-anchor="middle" x="690" y="146">fail</text>
  <text dominant-baseline="auto" fill="#94a3b8" font-family="DejaVu Sans, sans-serif" font-size="10" font-weight="400" text-anchor="middle" x="1170" y="124">clean</text>
  <text dominant-baseline="auto" fill="#94a3b8" font-family="DejaVu Sans, sans-serif" font-size="10" font-weight="400" text-anchor="middle" x="1170" y="80">issues</text>
  <text dominant-baseline="auto" fill="#94a3b8" font-family="DejaVu Sans, sans-serif" font-size="10" font-weight="400" text-anchor="middle" x="1626" y="80">pass</text>
  <text dominant-baseline="auto" fill="#94a3b8" font-family="DejaVu Sans, sans-serif" font-size="10" font-weight="400" text-anchor="middle" x="1630" y="124">fail</text>
</svg>