<?xml version="1.0" encoding="UTF-8"?>
<svg height="744" version="1.1" viewBox="0 0 1189 744" width="1189" xmlns="http://www.w3.org/2000/svg">
  <rect fill="#f8fafc" height="468" opacity="0.45" rx="12" width="1093" x="48" y="48"/>
  <path d="M 60 48 L 1129 48 A 12 12 0 0 1 1141 60 L 1141 504 A 12 12 0 0 1 1129 516 L 60 516 A 12 12 0 0 1 48 504 L 48 60 A 12 12 0 0 1 60 48 Z" fill="none" stroke="#64748b" stroke-dasharray="8,5" stroke-linecap="round" stroke-width="1.5"/>
  <text dominant-baseline="middle" fill="#334155" font-family="DejaVu Sans, sans-serif" font-size="13" font-weight="700" text-anchor="start" x="72" y="66">BankBoundary0</text>
  <rect fill="#1168bd" height="120" rx="8" stroke="#0b4f92" stroke-width="1.5" width="175" x="239" y="104"/>
  <text dominant-baseline="alphabetic" fill="#dbeafe" font-family="DejaVu Sans, sans-serif" font-size="11" font-weight="500" text-anchor="middle" x="327" y="129">«Person»</text>
  <text dominant-baseline="alphabetic" fill="#ffffff" font-family="DejaVu Sans, sans-serif" font-size="15" font-weight="700" text-anchor="middle" x="327" y="153">Banking Customer A</text>
  <text dominant-baseline="alphabetic" fill="#ffffff" font-family="DejaVu Sans, sans-serif" font-size="11" font-weight="500" text-anchor="middle" x="327" y="173">A customer of the bank,</text>
  <text dominant-baseline="alphabetic" fill="#ffffff" font-family="DejaVu Sans, sans-serif" font-size="11" font-weight="500" text-anchor="middle" x="327" y="189">with personal bank</text>
  <text dominant-baseline="alphabetic" fill="#ffffff" font-family="DejaVu Sans, sans-serif" font-size="11" font-weight="500" text-anchor="middle" x="327" y="205">accounts.</text>
  <rect fill="#1168bd" height="68" rx="8" stroke="#0b4f92" stroke-width="1.5" width="175" x="673" y="130"/>
  <text dominant-baseline="alphabetic" fill="#dbeafe" font-family="DejaVu Sans, sans-serif" font-size="11" font-weight="500" text-anchor="middle" x="761" y="155">«Person»</text>
  <text dominant-baseline="alphabetic" fill="#ffffff" font-family="DejaVu Sans, sans-serif" font-size="15" font-weight="700" text-anchor="middle" x="761" y="179">Banking Customer B</text>
  <rect fill="#9ca3af" height="120" rx="8" stroke="#6b7280" stroke-width="1.5" width="176" x="941" y="104"/>
  <text dominant-baseline="alphabetic" fill="#ffffff" font-family="DejaVu Sans, sans-serif" font-size="11" font-weight="500" text-anchor="middle" x="1029" y="129">«Person»</text>
  <text dominant-baseline="alphabetic" fill="#ffffff" font-family="DejaVu Sans, sans-serif" font-size="15" font-weight="700" text-anchor="middle" x="1029" y="153">Banking Customer C</text>
  <text dominant-baseline="alphabetic" fill="#ffffff" font-family="DejaVu Sans, sans-serif" font-size="11" font-weight="500" text-anchor="middle" x="1029" y="173">A customer of the bank</text>
  <text dominant-baseline="alphabetic" fill="#ffffff" font-family="DejaVu Sans, sans-serif" font-size="11" font-weight="500" text-anchor="middle" x="1029" y="189">using an external partner</text>
  <text dominant-baseline="alphabetic" fill="#ffffff" font-family="DejaVu Sans, sans-serif" font-size="11" font-weight="500" text-anchor="middle" x="1029" y="205">portal.</text>
  <rect fill="#f8fafc" height="212" opacity="0.45" rx="12" width="508" x="72" y="284"/>
  <path d="M 84 284 L 568 284 A 12 12 0 0 1 580 296 L 580 484 A 12 12 0 0 1 568 496 L 84 496 A 12 12 0 0 1 72 484 L 72 296 A 12 12 0 0 1 84 284 Z" fill="none" stroke="#64748b" stroke-dasharray="8,5" stroke-linecap="round" stroke-width="1.5"/>
  <text dominant-baseline="middle" fill="#334155" font-family="DejaVu Sans, sans-serif" font-size="13" font-weight="700" text-anchor="start" x="96" y="302">BankBoundary</text>
  <rect fill="#0f5aa7" height="104" rx="8" stroke="#0b3d73" stroke-width="1.5" width="160" x="96" y="356"/>
  <text dominant-baseline="alphabetic" fill="#dbeafe" font-family="DejaVu Sans, sans-serif" font-size="11" font-weight="500" text-anchor="middle" x="176" y="381">«System»</text>
  <text dominant-baseline="alphabetic" fill="#ffffff" font-family="DejaVu Sans, sans-serif" font-size="15" font-weight="700" text-anchor="middle" x="176" y="405">Email System</text>
  <text dominant-baseline="alphabetic" fill="#ffffff" font-family="DejaVu Sans, sans-serif" font-size="11" font-weight="500" text-anchor="middle" x="176" y="425">The internal Microsoft</text>
  <text dominant-baseline="alphabetic" fill="#ffffff" font-family="DejaVu Sans, sans-serif" font-size="11" font-weight="500" text-anchor="middle" x="176" y="441">Exchange e-mail system.</text>
  <rect fill="#9ca3af" height="136" rx="8" stroke="#6b7280" stroke-width="1.5" width="220" x="336" y="340"/>
  <text dominant-baseline="alphabetic" fill="#ffffff" font-family="DejaVu Sans, sans-serif" font-size="11" font-weight="500" text-anchor="middle" x="446" y="365">«System»</text>
  <text dominant-baseline="alphabetic" fill="#ffffff" font-family="DejaVu Sans, sans-serif" font-size="15" font-weight="700" text-anchor="middle" x="446" y="389">Mainframe Banking System</text>
  <text dominant-baseline="alphabetic" fill="#ffffff" font-family="DejaVu Sans, sans-serif" font-size="11" font-weight="500" text-anchor="middle" x="446" y="409">Stores all of the core</text>
  <text dominant-baseline="alphabetic" fill="#ffffff" font-family="DejaVu Sans, sans-serif" font-size="11" font-weight="500" text-anchor="middle" x="446" y="425">banking information about</text>
  <text dominant-baseline="alphabetic" fill="#ffffff" font-family="DejaVu Sans, sans-serif" font-size="11" font-weight="500" text-anchor="middle" x="446" y="441">customers, accounts,</text>
  <text dominant-baseline="alphabetic" fill="#ffffff" font-family="DejaVu Sans, sans-serif" font-size="11" font-weight="500" text-anchor="middle" x="446" y="457">transactions, etc.</text>
  <rect fill="#0f5aa7" height="136" rx="8" stroke="#0b3d73" stroke-width="1.5" width="201" x="660" y="322"/>
  <text dominant-baseline="alphabetic" fill="#dbeafe" font-family="DejaVu Sans, sans-serif" font-size="11" font-weight="500" text-anchor="middle" x="761" y="347">«System»</text>
  <text dominant-baseline="alphabetic" fill="#ffffff" font-family="DejaVu Sans, sans-serif" font-size="15" font-weight="700" text-anchor="middle" x="761" y="371">Internet Banking System</text>
  <text dominant-baseline="alphabetic" fill="#ffffff" font-family="DejaVu Sans, sans-serif" font-size="11" font-weight="500" text-anchor="middle" x="761" y="391">Allows customers to view</text>
  <text dominant-baseline="alphabetic" fill="#ffffff" font-family="DejaVu Sans, sans-serif" font-size="11" font-weight="500" text-anchor="middle" x="761" y="407">information about their bank</text>
  <text dominant-baseline="alphabetic" fill="#ffffff" font-family="DejaVu Sans, sans-serif" font-size="11" font-weight="500" text-anchor="middle" x="761" y="423">accounts, and make</text>
  <text dominant-baseline="alphabetic" fill="#ffffff" font-family="DejaVu Sans, sans-serif" font-size="11" font-weight="500" text-anchor="middle" x="761" y="439">payments.</text>
  <rect fill="#9ca3af" height="120" rx="8" stroke="#6b7280" stroke-width="1.5" width="176" x="370" y="576"/>
  <text dominant-baseline="alphabetic" fill="#ffffff" font-family="DejaVu Sans, sans-serif" font-size="11" font-weight="500" text-anchor="middle" x="458" y="601">«Person»</text>
  <text dominant-baseline="alphabetic" fill="#ffffff" font-family="DejaVu Sans, sans-serif" font-size="15" font-weight="700" text-anchor="middle" x="458" y="625">Banking Customer D</text>
  <text dominant-baseline="alphabetic" fill="#ffffff" font-family="DejaVu Sans, sans-serif" font-size="11" font-weight="500" text-anchor="middle" x="458" y="645">A customer of the bank,</text>
  <text dominant-baseline="alphabetic" fill="#ffffff" font-family="DejaVu Sans, sans-serif" font-size="11" font-weight="500" text-anchor="middle" x="458" y="661">with personal bank</text>
  <text dominant-baseline="alphabetic" fill="#ffffff" font-family="DejaVu Sans, sans-serif" font-size="11" font-weight="500" text-anchor="middle" x="458" y="677">accounts.</text>
  <rect fill="#9ca3af" height="104" rx="8" stroke="#6b7280" stroke-width="1.5" width="193" x="626" y="584"/>
  <text dominant-baseline="alphabetic" fill="#ffffff" font-family="DejaVu Sans, sans-serif" font-size="11" font-weight="500" text-anchor="middle" x="723" y="609">«System»</text>
  <text dominant-baseline="alphabetic" fill="#ffffff" font-family="DejaVu Sans, sans-serif" font-size="15" font-weight="700" text-anchor="middle" x="723" y="633">Authentication Provider</text>
  <text dominant-baseline="alphabetic" fill="#ffffff" font-family="DejaVu Sans, sans-serif" font-size="11" font-weight="500" text-anchor="middle" x="723" y="653">The external Authentication</text>
  <text dominant-baseline="alphabetic" fill="#ffffff" font-family="DejaVu Sans, sans-serif" font-size="11" font-weight="500" text-anchor="middle" x="723" y="669">Provider, Okta.</text>
  <path d="M 327 224 V 273 H 737 V 310" fill="none" stroke="#334155" stroke-linecap="round" stroke-width="1.5"/>
  <path d="M 761 198 V 310" fill="none" stroke="#334155" stroke-linecap="round" stroke-width="1.5"/>
  <path d="M 941 164 H 901 V 390 H 873" fill="none" stroke="#334155" stroke-linecap="round" stroke-width="1.5"/>
  <path d="M 785 322 V 282 H 176 V 344" fill="none" stroke="#334155" stroke-linecap="round" stroke-width="1.5"/>
  <path d="M 660 390 H 608 V 408 H 568" fill="none" stroke="#334155" stroke-linecap="round" stroke-width="1.5"/>
  <path d="M 546 636 H 614" fill="none" stroke="#334155" stroke-linecap="round" stroke-width="1.5"/>
  <path d="M 730 310 L 737 322 L 744 310" fill="none" stroke="#334155" stroke-linecap="round" stroke-width="1.5"/>
  <path d="M 754 310 L 761 322 L 768 310" fill="none" stroke="#334155" stroke-linecap="round" stroke-width="1.5"/>
  <path d="M 873 383 L 861 390 L 873 397" fill="none" stroke="#334155" stroke-linecap="round" stroke-width="1.5"/>
  <path d="M 169 344 L 176 356 L 183 344" fill="none" stroke="#334155" stroke-linecap="round" stroke-width="1.5"/>
  <path d="M 568 401 L 556 408 L 568 415" fill="none" stroke="#334155" stroke-linecap="round" stroke-width="1.5"/>
  <path d="M 614 643 L 626 636 L 614 629" fill="none" stroke="#334155" stroke-linecap="round" stroke-width="1.5"/>
  <rect fill="#ffffff" height="20" opacity="0.95" rx="4" stroke="none" stroke-width="0" width="37" x="514" y="241"/>
  <text dominant-baseline="middle" fill="#0f172a" font-family="DejaVu Sans, sans-serif" font-size="12" font-weight="600" text-anchor="middle" x="532" y="251">Uses</text>
  <rect fill="#ffffff" height="20" opacity="0.95" rx="4" stroke="none" stroke-width="0" width="37" x="765" y="250"/>
  <text dominant-baseline="middle" fill="#0f172a" font-family="DejaVu Sans, sans-serif" font-size="12" font-weight="600" text-anchor="middle" x="783" y="260">Uses</text>
  <rect fill="#ffffff" height="20" opacity="0.95" rx="4" stroke="none" stroke-width="0" width="37" x="905" y="267"/>
  <text dominant-baseline="middle" fill="#0f172a" font-family="DejaVu Sans, sans-serif" font-size="12" font-weight="600" text-anchor="middle" x="923" y="277">Uses</text>
  <rect fill="#ffffff" height="32" opacity="0.95" rx="4" stroke="none" stroke-width="0" width="86" x="438" y="288"/>
  <text dominant-baseline="middle" fill="#0f172a" font-family="DejaVu Sans, sans-serif" font-size="12" font-weight="600" text-anchor="middle" x="481" y="299">Sends e-mails</text>
  <text dominant-baseline="middle" fill="#475569" font-family="DejaVu Sans, sans-serif" font-size="10" font-weight="500" text-anchor="middle" x="481" y="313">SMTP</text>
  <rect fill="#ffffff" height="20" opacity="0.95" rx="4" stroke="none" stroke-width="0" width="37" x="616" y="358"/>
  <text dominant-baseline="middle" fill="#0f172a" font-family="DejaVu Sans, sans-serif" font-size="12" font-weight="600" text-anchor="middle" x="634" y="368">Uses</text>
  <rect fill="#ffffff" height="32" opacity="0.95" rx="4" stroke="none" stroke-width="0" width="79" x="547" y="598"/>
  <text dominant-baseline="middle" fill="#0f172a" font-family="DejaVu Sans, sans-serif" font-size="12" font-weight="600" text-anchor="middle" x="586" y="609">Authenticate</text>
  <text dominant-baseline="middle" fill="#475569" font-family="DejaVu Sans, sans-serif" font-size="10" font-weight="500" text-anchor="middle" x="586" y="623">REST</text>
</svg>