<?xml version="1.0" encoding="UTF-8"?>
<svg height="402" version="1.1" viewBox="0 0 1932 402" width="1932" xmlns="http://www.w3.org/2000/svg">
  <rect fill="#111827" height="402" width="1932" x="0" y="0"/>
  <line stroke="#2dd4bf" stroke-width="1.5" x1="935" x2="210" y1="38" y2="108"/>
  <line stroke="#2dd4bf" stroke-width="1.5" x1="210" x2="90" y1="146" y2="216"/>
  <line stroke="#2dd4bf" stroke-width="1.5" x1="210" x2="210" y1="146" y2="216"/>
  <line stroke="#2dd4bf" stroke-width="1.5" x1="210" x2="330" y1="146" y2="216"/>
  <line stroke="#2dd4bf" stroke-width="1.5" x1="935" x2="570" y1="38" y2="108"/>
  <line stroke="#2dd4bf" stroke-width="1.5" x1="570" x2="450" y1="146" y2="216"/>
  <line stroke="#2dd4bf" stroke-width="1.5" x1="450" x2="390" y1="254" y2="324"/>
  <line stroke="#2dd4bf" stroke-width="1.5" x1="450" x2="510" y1="254" y2="324"/>
  <line stroke="#2dd4bf" stroke-width="1.5" x1="570" x2="690" y1="146" y2="216"/>
  <line stroke="#2dd4bf" stroke-width="1.5" x1="690" x2="630" y1="254" y2="324"/>
  <line stroke="#2dd4bf" stroke-width="1.5" x1="690" x2="750" y1="254" y2="324"/>
  <line stroke="#2dd4bf" stroke-width="1.5" x1="935" x2="1085" y1="38" y2="108"/>
  <line stroke="#2dd4bf" stroke-width="1.5" x1="1085" x2="935" y1="146" y2="216"/>
  <line stroke="#2dd4bf" stroke-width="1.5" x1="935" x2="873" y1="254" y2="324"/>
  <line stroke="#2dd4bf" stroke-width="1.5" x1="935" x2="996" y1="254" y2="324"/>
  <line stroke="#2dd4bf" stroke-width="1.5" x1="1085" x2="1236" y1="146" y2="216"/>
  <line stroke="#2dd4bf" stroke-width="1.5" x1="1236" x2="1116" y1="254" y2="324"/>
  <line stroke="#2dd4bf" stroke-width="1.5" x1="1236" x2="1236" y1="254" y2="324"/>
  <line stroke="#2dd4bf" stroke-width="1.5" x1="1236" x2="1356" y1="254" y2="324"/>
  <line stroke="#2dd4bf" stroke-width="1.5" x1="935" x2="1661" y1="38" y2="108"/>
  <line stroke="#2dd4bf" stroke-width="1.5" x1="1661" x2="1479" y1="146" y2="216"/>
  <line stroke="#2dd4bf" stroke-width="1.5" x1="1479" x2="1479" y1="254" y2="324"/>
  <line stroke="#2dd4bf" stroke-width="1.5" x1="1661" x2="1662" y1="146" y2="216"/>
  <line stroke="#2dd4bf" stroke-width="1.5" x1="1662" x2="1602" y1="254" y2="324"/>
  <line stroke="#2dd4bf" stroke-width="1.5" x1="1662" x2="1722" y1="254" y2="324"/>
  <line stroke="#2dd4bf" stroke-width="1.5" x1="1661" x2="1842" y1="146" y2="216"/>
  <line stroke="#2dd4bf" stroke-width="1.5" x1="1842" x2="1842" y1="254" y2="324"/>
  <rect fill="#1e293b" height="38" rx="8" stroke="#2dd4bf" stroke-width="1.5" width="100" x="40" y="216"/>
  <text dominant-baseline="central" fill="#f1f5f9" font-family="DejaVu Sans, sans-serif" font-size="13" font-weight="600" text-anchor="middle" x="90" y="235">Raft</text>
  <rect fill="#1e293b" height="38" rx="8" stroke="#2dd4bf" stroke-width="1.5" width="100" x="160" y="216"/>
  <text dominant-baseline="central" fill="#f1f5f9" font-family="DejaVu Sans, sans-serif" font-size="13" font-weight="600" text-anchor="middle" x="210" y="235">Paxos</text>
  <rect fill="#1e293b" height="38" rx="8" stroke="#2dd4bf" stroke-width="1.5" width="100" x="280" y="216"/>
  <text dominant-baseline="central" fill="#f1f5f9" font-family="DejaVu Sans, sans-serif" font-size="13" font-weight="600" text-anchor="middle" x="330" y="235">ZAB</text>
  <rect fill="#1e293b" height="38" rx="8" stroke="#2dd4bf" stroke-width="1.5" width="101" x="160" y="108"/>
  <text dominant-baseline="central" fill="#f1f5f9" font-family="DejaVu Sans, sans-serif" font-size="13" font-weight="600" text-anchor="middle" x="210" y="127">Consensus</text>
  <rect fill="#1e293b" height="38" rx="8" stroke="#2dd4bf" stroke-width="1.5" width="100" x="340" y="324"/>
  <text dominant-baseline="central" fill="#f1f5f9" font-family="DejaVu Sans, sans-serif" font-size="13" font-weight="600" text-anchor="middle" x="390" y="343">gRPC</text>
  <rect fill="#1e293b" height="38" rx="8" stroke="#2dd4bf" stroke-width="1.5" width="100" x="460" y="324"/>
  <text dominant-baseline="central" fill="#f1f5f9" font-family="DejaVu Sans, sans-serif" font-size="13" font-weight="600" text-anchor="middle" x="510" y="343">REST</text>
  <rect fill="#1e293b" height="38" rx="8" stroke="#2dd4bf" stroke-width="1.5" width="100" x="400" y="216"/>
  <text dominant-baseline="central" fill="#f1f5f9" font-family="DejaVu Sans, sans-serif" font-size="13" font-weight="600" text-anchor="middle" x="450" y="235">RPC</text>
  <rect fill="#1e293b" height="38" rx="8" stroke="#2dd4bf" stroke-width="1.5" width="100" x="580" y="324"/>
  <text dominant-baseline="central" fill="#f1f5f9" font-family="DejaVu Sans, sans-serif" font-size="13" font-weight="600" text-anchor="middle" x="630" y="343">Kafka</text>
  <rect fill="#1e293b" height="38" rx="8" stroke="#2dd4bf" stroke-width="1.5" width="100" x="700" y="324"/>
  <text dominant-baseline="central" fill="#f1f5f9" font-family="DejaVu Sans, sans-serif" font-size="13" font-weight="600" text-anchor="middle" x="750" y="343">RabbitMQ</text>
  <rect fill="#1e293b" height="38" rx="8" stroke="#2dd4bf" stroke-width="1.5" width="100" x="640" y="216"/>
  <text dominant-baseline="central" fill="#f1f5f9" font-family="DejaVu Sans, sans-serif" font-size="13" font-weight="600" text-anchor="middle" x="690" y="235">Messaging</text>
  <rect fill="#1e293b" height="38" rx="8" stroke="#2dd4bf" stroke-width="1.5" width="127" x="507" y="108"/>
  <text dominant-baseline="central" fill="#f1f5f9" font-family="DejaVu Sans, sans-serif" font-size="13" font-weight="600" text-anchor="middle" x="570" y="127">Communication</text>
  <rect fill="#1e293b" height="38" rx="8" stroke="#2dd4bf" stroke-width="1.5" width="106" x="820" y="324"/>
  <text dominant-baseline="central" fill="#f1f5f9" font-family="DejaVu Sans, sans-serif" font-size="13" font-weight="600" text-anchor="middle" x="873" y="343">PostgreSQL</text>
  <rect fill="#1e293b" height="38" rx="8" stroke="#2dd4bf" stroke-width="1.5" width="100" x="946" y="324"/>
  <text dominant-baseline="central" fill="#f1f5f9" font-family="DejaVu Sans, sans-serif" font-size="13" font-weight="600" text-anchor="middle" x="996" y="343">MySQL</text>
  <rect fill="#1e293b" height="38" rx="8" stroke="#2dd4bf" stroke-width="1.5" width="100" x="885" y="216"/>
  <text dominant-baseline="central" fill="#f1f5f9" font-family="DejaVu Sans, sans-serif" font-size="13" font-weight="600" text-anchor="middle" x="935" y="235">Relational</text>
  <rect fill="#1e293b" height="38" rx="8" stroke="#2dd4bf" stroke-width="1.5" width="100" x="1066" y="324"/>
  <text dominant-baseline="central" fill="#f1f5f9" font-family="DejaVu Sans, sans-serif" font-size="13" font-weight="600" text-anchor="middle" x="1116" y="343">MongoDB</text>
  <rect fill="#1e293b" height="38" rx="8" stroke="#2dd4bf" stroke-width="1.5" width="100" x="1186" y="324"/>
  <text dominant-baseline="central" fill="#f1f5f9" font-family="DejaVu Sans, sans-serif" font-size="13" font-weight="600" text-anchor="middle" x="1236" y="343">Cassandra</text>
  <rect fill="#1e293b" height="38" rx="8" stroke="#2dd4bf" stroke-width="1.5" width="100" x="1306" y="324"/>
  <text dominant-baseline="central" fill="#f1f5f9" font-family="DejaVu Sans, sans-serif" font-size="13" font-weight="600" text-anchor="middle" x="1356" y="343">Redis</text>
  <rect fill="#1e293b" height="38" rx="8" stroke="#2dd4bf" stroke-width="1.5" width="100" x="1186" y="216"/>
  <text dominant-baseline="central" fill="#f1f5f9" font-family="DejaVu Sans, sans-serif" font-size="13" font-weight="600" text-anchor="middle" x="1236" y="235">NoSQL</text>
  <rect fill="#1e293b" height="38" rx="8" stroke="#2dd4bf" stroke-width="1.5" width="100" x="1035" y="108"/>
  <text dominant-baseline="central" fill="#f1f5f9" font-family="DejaVu Sans, sans-serif" font-size="13" font-weight="600" text-anchor="middle" x="1085" y="127">Storage</text>
  <rect fill="#1e293b" height="38" rx="8" stroke="#2dd4bf" stroke-width="1.5" width="106" x="1426" y="324"/>
  <text dominant-baseline="central" fill="#f1f5f9" font-family="DejaVu Sans, sans-serif" font-size="13" font-weight="600" text-anchor="middle" x="1479" y="343">Prometheus</text>
  <rect fill="#1e293b" height="38" rx="8" stroke="#2dd4bf" stroke-width="1.5" width="100" x="1429" y="216"/>
  <text dominant-baseline="central" fill="#f1f5f9" font-family="DejaVu Sans, sans-serif" font-size="13" font-weight="600" text-anchor="middle" x="1479" y="235">Metrics</text>
  <rect fill="#1e293b" height="38" rx="8" stroke="#2dd4bf" stroke-width="1.5" width="100" x="1552" y="324"/>
  <text dominant-baseline="central" fill="#f1f5f9" font-family="DejaVu Sans, sans-serif" font-size="13" font-weight="600" text-anchor="middle" x="1602" y="343">Jaeger</text>
  <rect fill="#1e293b" height="38" rx="8" stroke="#2dd4bf" stroke-width="1.5" width="100" x="1672" y="324"/>
  <text dominant-baseline="central" fill="#f1f5f9" font-family="DejaVu Sans, sans-serif" font-size="13" font-weight="600" text-anchor="middle" x="1722" y="343">Zipkin</text>
  <rect fill="#1e293b" height="38" rx="8" stroke="#2dd4bf" stroke-width="1.5" width="100" x="1612" y="216"/>
  <text dominant-baseline="central" fill="#f1f5f9" font-family="DejaVu Sans, sans-serif" font-size="13" font-weight="600" text-anchor="middle" x="1662" y="235">Tracing</text>
  <rect fill="#1e293b" height="38" rx="8" stroke="#2dd4bf" stroke-width="1.5" width="100" x="1792" y="324"/>
  <text dominant-baseline="central" fill="#f1f5f9" font-family="DejaVu Sans, sans-serif" font-size="13" font-weight="600" text-anchor="middle" x="1842" y="343">ELK Stack</text>
  <rect fill="#1e293b" height="38" rx="8" stroke="#2dd4bf" stroke-width="1.5" width="100" x="1792" y="216"/>
  <text dominant-baseline="central" fill="#f1f5f9" font-family="DejaVu Sans, sans-serif" font-size="13" font-weight="600" text-anchor="middle" x="1842" y="235">Logging</text>
  <rect fill="#1e293b" height="38" rx="8" stroke="#2dd4bf" stroke-width="1.5" width="112" x="1605" y="108"/>
  <text dominant-baseline="central" fill="#f1f5f9" font-family="DejaVu Sans, sans-serif" font-size="13" font-weight="600" text-anchor="middle" x="1661" y="127">Observability</text>
  <rect fill="#0d9488" height="38" rx="8" stroke="#2dd4bf" stroke-width="1.5" width="153" x="859" y="0"/>
  <text dominant-baseline="central" fill="#ffffff" font-family="DejaVu Sans, sans-serif" font-size="13" font-weight="600" text-anchor="middle" x="935" y="19">Distributed Systems</text>
</svg>