<?xml version="1.0" encoding="UTF-8"?>
<svg height="538" version="1.1" viewBox="0 0 1752 538" width="1752" xmlns="http://www.w3.org/2000/svg">
  <text dominant-baseline="alphabetic" fill="#0f172a" font-family="DejaVu Sans, sans-serif" font-size="20" font-weight="700" text-anchor="middle" x="876" y="68">E-commerce Customer Journey 2026</text>
  <rect fill="#f8fafc" height="152" rx="12" stroke="none" width="384" x="48" y="86"/>
  <text dominant-baseline="alphabetic" fill="#0f172a" font-family="DejaVu Sans, sans-serif" font-size="14" font-weight="700" text-anchor="middle" x="240" y="108">Discovery</text>
  <rect fill="#eef2ff" height="152" rx="12" stroke="none" width="504" x="432" y="86"/>
  <text dominant-baseline="alphabetic" fill="#0f172a" font-family="DejaVu Sans, sans-serif" font-size="14" font-weight="700" text-anchor="middle" x="684" y="108">Purchase</text>
  <rect fill="#f8fafc" height="152" rx="12" stroke="none" width="384" x="936" y="86"/>
  <text dominant-baseline="alphabetic" fill="#0f172a" font-family="DejaVu Sans, sans-serif" font-size="14" font-weight="700" text-anchor="middle" x="1128" y="108">Fulfillment</text>
  <rect fill="#eef2ff" height="152" rx="12" stroke="none" width="384" x="1320" y="86"/>
  <text dominant-baseline="alphabetic" fill="#0f172a" font-family="DejaVu Sans, sans-serif" font-size="14" font-weight="700" text-anchor="middle" x="1512" y="108">Post-purchase</text>
  <line stroke="#64748b" stroke-width="2" x1="48" x2="1718" y1="238" y2="238"/>
  <path d="M 1718 238 L 1708 233 L 1708 243 Z" fill="#64748b" stroke="none"/>
  <path d="M 120 285 C 140 290 200 311 240 316 C 280 321 316 321 360 316 C 404 311 460 280 504 285 C 548 290 584 352 624 347 C 664 342 704 264 744 254 C 784 244 820 285 864 285 C 908 285 964 254 1008 254 C 1052 254 1088 285 1128 285 C 1168 285 1204 249 1248 254 C 1292 259 1348 295 1392 316 C 1436 337 1472 388 1512 378 C 1552 368 1612 275 1632 254" fill="none" stroke="#94a3b8" stroke-width="1.5"/>
  <line stroke="#94a3b8" stroke-dasharray="4,4" stroke-width="1" x1="120" x2="120" y1="238" y2="265"/>
  <circle cx="120" cy="285" fill="#84cc16" r="20" stroke="#4d7c0f" stroke-width="2"/>
  <circle cx="114" cy="279" fill="#4d7c0f" r="3" stroke="none"/>
  <circle cx="126" cy="279" fill="#4d7c0f" r="3" stroke="none"/>
  <path d="M 112 289 Q 120 295 128 289" fill="none" stroke="#4d7c0f" stroke-linecap="round" stroke-width="2"/>
  <line stroke="#94a3b8" stroke-dasharray="4,4" stroke-width="1" x1="240" x2="240" y1="238" y2="296"/>
  <circle cx="240" cy="316" fill="#eab308" r="20" stroke="#a16207" stroke-width="2"/>
  <circle cx="234" cy="310" fill="#a16207" r="3" stroke="none"/>
  <circle cx="246" cy="310" fill="#a16207" r="3" stroke="none"/>
  <path d="M 232 322 L 248 322" fill="none" stroke="#a16207" stroke-linecap="round" stroke-width="2"/>
  <line stroke="#94a3b8" stroke-dasharray="4,4" stroke-width="1" x1="360" x2="360" y1="238" y2="296"/>
  <circle cx="360" cy="316" fill="#eab308" r="20" stroke="#a16207" stroke-width="2"/>
  <circle cx="354" cy="310" fill="#a16207" r="3" stroke="none"/>
  <circle cx="366" cy="310" fill="#a16207" r="3" stroke="none"/>
  <path d="M 352 322 L 368 322" fill="none" stroke="#a16207" stroke-linecap="round" stroke-width="2"/>
  <line stroke="#94a3b8" stroke-dasharray="4,4" stroke-width="1" x1="504" x2="504" y1="238" y2="265"/>
  <circle cx="504" cy="285" fill="#84cc16" r="20" stroke="#4d7c0f" stroke-width="2"/>
  <circle cx="498" cy="279" fill="#4d7c0f" r="3" stroke="none"/>
  <circle cx="510" cy="279" fill="#4d7c0f" r="3" stroke="none"/>
  <path d="M 496 289 Q 504 295 512 289" fill="none" stroke="#4d7c0f" stroke-linecap="round" stroke-width="2"/>
  <line stroke="#94a3b8" stroke-dasharray="4,4" stroke-width="1" x1="624" x2="624" y1="238" y2="327"/>
  <circle cx="624" cy="347" fill="#f97316" r="20" stroke="#c2410c" stroke-width="2"/>
  <circle cx="618" cy="341" fill="#c2410c" r="3" stroke="none"/>
  <circle cx="630" cy="341" fill="#c2410c" r="3" stroke="none"/>
  <path d="M 616 356 Q 624 350 632 356" fill="none" stroke="#c2410c" stroke-linecap="round" stroke-width="2"/>
  <line stroke="#94a3b8" stroke-dasharray="4,4" stroke-width="1" x1="744" x2="744" y1="238" y2="234"/>
  <circle cx="744" cy="254" fill="#22c55e" r="20" stroke="#15803d" stroke-width="2"/>
  <circle cx="738" cy="248" fill="#15803d" r="3" stroke="none"/>
  <circle cx="750" cy="248" fill="#15803d" r="3" stroke="none"/>
  <path d="M 736 258 Q 744 264 752 258" fill="none" stroke="#15803d" stroke-linecap="round" stroke-width="2"/>
  <line stroke="#94a3b8" stroke-dasharray="4,4" stroke-width="1" x1="864" x2="864" y1="238" y2="265"/>
  <circle cx="864" cy="285" fill="#84cc16" r="20" stroke="#4d7c0f" stroke-width="2"/>
  <circle cx="858" cy="279" fill="#4d7c0f" r="3" stroke="none"/>
  <circle cx="870" cy="279" fill="#4d7c0f" r="3" stroke="none"/>
  <path d="M 856 289 Q 864 295 872 289" fill="none" stroke="#4d7c0f" stroke-linecap="round" stroke-width="2"/>
  <line stroke="#94a3b8" stroke-dasharray="4,4" stroke-width="1" x1="1008" x2="1008" y1="238" y2="234"/>
  <circle cx="1008" cy="254" fill="#22c55e" r="20" stroke="#15803d" stroke-width="2"/>
  <circle cx="1002" cy="248" fill="#15803d" r="3" stroke="none"/>
  <circle cx="1014" cy="248" fill="#15803d" r="3" stroke="none"/>
  <path d="M 1000 258 Q 1008 264 1016 258" fill="none" stroke="#15803d" stroke-linecap="round" stroke-width="2"/>
  <line stroke="#94a3b8" stroke-dasharray="4,4" stroke-width="1" x1="1128" x2="1128" y1="238" y2="265"/>
  <circle cx="1128" cy="285" fill="#84cc16" r="20" stroke="#4d7c0f" stroke-width="2"/>
  <circle cx="1122" cy="279" fill="#4d7c0f" r="3" stroke="none"/>
  <circle cx="1134" cy="279" fill="#4d7c0f" r="3" stroke="none"/>
  <path d="M 1120 289 Q 1128 295 1136 289" fill="none" stroke="#4d7c0f" stroke-linecap="round" stroke-width="2"/>
  <line stroke="#94a3b8" stroke-dasharray="4,4" stroke-width="1" x1="1248" x2="1248" y1="238" y2="234"/>
  <circle cx="1248" cy="254" fill="#22c55e" r="20" stroke="#15803d" stroke-width="2"/>
  <circle cx="1242" cy="248" fill="#15803d" r="3" stroke="none"/>
  <circle cx="1254" cy="248" fill="#15803d" r="3" stroke="none"/>
  <path d="M 1240 258 Q 1248 264 1256 258" fill="none" stroke="#15803d" stroke-linecap="round" stroke-width="2"/>
  <line stroke="#94a3b8" stroke-dasharray="4,4" stroke-width="1" x1="1392" x2="1392" y1="238" y2="296"/>
  <circle cx="1392" cy="316" fill="#eab308" r="20" stroke="#a16207" stroke-width="2"/>
  <circle cx="1386" cy="310" fill="#a16207" r="3" stroke="none"/>
  <circle cx="1398" cy="310" fill="#a16207" r="3" stroke="none"/>
  <path d="M 1384 322 L 1400 322" fill="none" stroke="#a16207" stroke-linecap="round" stroke-width="2"/>
  <line stroke="#94a3b8" stroke-dasharray="4,4" stroke-width="1" x1="1512" x2="1512" y1="238" y2="358"/>
  <circle cx="1512" cy="378" fill="#ef4444" r="20" stroke="#b91c1c" stroke-width="2"/>
  <circle cx="1506" cy="372" fill="#b91c1c" r="3" stroke="none"/>
  <circle cx="1518" cy="372" fill="#b91c1c" r="3" stroke="none"/>
  <path d="M 1504 387 Q 1512 381 1520 387" fill="none" stroke="#b91c1c" stroke-linecap="round" stroke-width="2"/>
  <line stroke="#94a3b8" stroke-dasharray="4,4" stroke-width="1" x1="1632" x2="1632" y1="238" y2="234"/>
  <circle cx="1632" cy="254" fill="#22c55e" r="20" stroke="#15803d" stroke-width="2"/>
  <circle cx="1626" cy="248" fill="#15803d" r="3" stroke="none"/>
  <circle cx="1638" cy="248" fill="#15803d" r="3" stroke="none"/>
  <path d="M 1624 258 Q 1632 264 1640 258" fill="none" stroke="#15803d" stroke-linecap="round" stroke-width="2"/>
  <rect fill="#ffffff" height="54" rx="6" stroke="#cbd5e1" stroke-width="1" width="108" x="66" y="178"/>
  <text dominant-baseline="alphabetic" fill="#0f172a" font-family="DejaVu Sans, sans-serif" font-size="12" font-weight="600" text-anchor="middle" x="120" y="198">Search online</text>
  <circle cx="113" cy="217" fill="#4ade80" r="5" stroke="none"/>
  <circle cx="127" cy="217" fill="#60a5fa" r="5" stroke="none"/>
  <rect fill="#ffffff" height="54" rx="6" stroke="#cbd5e1" stroke-width="1" width="108" x="186" y="178"/>
  <text dominant-baseline="alphabetic" fill="#0f172a" font-family="DejaVu Sans, sans-serif" font-size="12" font-weight="600" text-anchor="middle" x="240" y="198">Read reviews</text>
  <circle cx="240" cy="217" fill="#4ade80" r="5" stroke="none"/>
  <rect fill="#ffffff" height="54" rx="6" stroke="#cbd5e1" stroke-width="1" width="108" x="306" y="178"/>
  <text dominant-baseline="alphabetic" fill="#0f172a" font-family="DejaVu Sans, sans-serif" font-size="12" font-weight="600" text-anchor="middle" x="360" y="198">Compare prices</text>
  <circle cx="353" cy="217" fill="#4ade80" r="5" stroke="none"/>
  <circle cx="367" cy="217" fill="#60a5fa" r="5" stroke="none"/>
  <rect fill="#ffffff" height="54" rx="6" stroke="#cbd5e1" stroke-width="1" width="108" x="450" y="178"/>
  <text dominant-baseline="alphabetic" fill="#0f172a" font-family="DejaVu Sans, sans-serif" font-size="12" font-weight="600" text-anchor="middle" x="504" y="198">Add to cart</text>
  <circle cx="504" cy="217" fill="#4ade80" r="5" stroke="none"/>
  <rect fill="#ffffff" height="54" rx="6" stroke="#cbd5e1" stroke-width="1" width="108" x="570" y="178"/>
  <text dominant-baseline="alphabetic" fill="#0f172a" font-family="DejaVu Sans, sans-serif" font-size="12" font-weight="600" text-anchor="middle" x="624" y="198">Apply coupon</text>
  <circle cx="624" cy="217" fill="#4ade80" r="5" stroke="none"/>
  <rect fill="#ffffff" height="54" rx="6" stroke="#cbd5e1" stroke-width="1" width="108" x="690" y="178"/>
  <text dominant-baseline="alphabetic" fill="#0f172a" font-family="DejaVu Sans, sans-serif" font-size="12" font-weight="600" text-anchor="middle" x="744" y="198">Checkout</text>
  <circle cx="744" cy="217" fill="#4ade80" r="5" stroke="none"/>
  <rect fill="#ffffff" height="54" rx="6" stroke="#cbd5e1" stroke-width="1" width="108" x="810" y="178"/>
  <text dominant-baseline="alphabetic" fill="#0f172a" font-family="DejaVu Sans, sans-serif" font-size="12" font-weight="600" text-anchor="middle" x="864" y="198">Payment</text>
  <circle cx="857" cy="217" fill="#4ade80" r="5" stroke="none"/>
  <circle cx="871" cy="217" fill="#f59e0b" r="5" stroke="none"/>
  <rect fill="#ffffff" height="54" rx="6" stroke="#cbd5e1" stroke-width="1" width="108" x="954" y="178"/>
  <text dominant-baseline="alphabetic" fill="#0f172a" font-family="DejaVu Sans, sans-serif" font-size="12" font-weight="600" text-anchor="middle" x="1008" y="198">Order confirmed</text>
  <circle cx="1001" cy="217" fill="#4ade80" r="5" stroke="none"/>
  <circle cx="1015" cy="217" fill="#f472b6" r="5" stroke="none"/>
  <rect fill="#ffffff" height="54" rx="6" stroke="#cbd5e1" stroke-width="1" width="108" x="1074" y="178"/>
  <text dominant-baseline="alphabetic" fill="#0f172a" font-family="DejaVu Sans, sans-serif" font-size="12" font-weight="600" text-anchor="middle" x="1128" y="198">Package shipped</text>
  <circle cx="1121" cy="217" fill="#4ade80" r="5" stroke="none"/>
  <circle cx="1135" cy="217" fill="#a78bfa" r="5" stroke="none"/>
  <rect fill="#ffffff" height="54" rx="6" stroke="#cbd5e1" stroke-width="1" width="108" x="1194" y="178"/>
  <text dominant-baseline="alphabetic" fill="#0f172a" font-family="DejaVu Sans, sans-serif" font-size="12" font-weight="600" text-anchor="middle" x="1248" y="198">Delivered</text>
  <circle cx="1248" cy="217" fill="#4ade80" r="5" stroke="none"/>
  <rect fill="#ffffff" height="54" rx="6" stroke="#cbd5e1" stroke-width="1" width="108" x="1338" y="178"/>
  <text dominant-baseline="alphabetic" fill="#0f172a" font-family="DejaVu Sans, sans-serif" font-size="12" font-weight="600" text-anchor="middle" x="1392" y="198">Leave review</text>
  <circle cx="1392" cy="217" fill="#4ade80" r="5" stroke="none"/>
  <rect fill="#ffffff" height="54" rx="6" stroke="#cbd5e1" stroke-width="1" width="108" x="1458" y="178"/>
  <text dominant-baseline="alphabetic" fill="#0f172a" font-family="DejaVu Sans, sans-serif" font-size="12" font-weight="600" text-anchor="middle" x="1512" y="198">Return item</text>
  <circle cx="1505" cy="217" fill="#4ade80" r="5" stroke="none"/>
  <circle cx="1519" cy="217" fill="#34d399" r="5" stroke="none"/>
  <rect fill="#ffffff" height="54" rx="6" stroke="#cbd5e1" stroke-width="1" width="108" x="1578" y="178"/>
  <text dominant-baseline="alphabetic" fill="#0f172a" font-family="DejaVu Sans, sans-serif" font-size="12" font-weight="600" text-anchor="middle" x="1632" y="198">Repurchase</text>
  <circle cx="1632" cy="217" fill="#4ade80" r="5" stroke="none"/>
  <text dominant-baseline="alphabetic" fill="#0f172a" font-family="DejaVu Sans, sans-serif" font-size="14" font-weight="700" text-anchor="start" x="48" y="442">Actors</text>
  <circle cx="53" cy="462" fill="#4ade80" r="5" stroke="none"/>
  <text dominant-baseline="middle" fill="#1f2937" font-family="DejaVu Sans, sans-serif" font-size="11" font-weight="400" text-anchor="start" x="64" y="463">Customer</text>
  <circle cx="180" cy="462" fill="#60a5fa" r="5" stroke="none"/>
  <text dominant-baseline="middle" fill="#1f2937" font-family="DejaVu Sans, sans-serif" font-size="11" font-weight="400" text-anchor="start" x="191" y="463">Analytics</text>
  <circle cx="307" cy="462" fill="#f59e0b" r="5" stroke="none"/>
  <text dominant-baseline="middle" fill="#1f2937" font-family="DejaVu Sans, sans-serif" font-size="11" font-weight="400" text-anchor="start" x="318" y="463">Payment Service</text>
  <circle cx="434" cy="462" fill="#f472b6" r="5" stroke="none"/>
  <text dominant-baseline="middle" fill="#1f2937" font-family="DejaVu Sans, sans-serif" font-size="11" font-weight="400" text-anchor="start" x="445" y="463">System</text>
  <circle cx="53" cy="481" fill="#a78bfa" r="5" stroke="none"/>
  <text dominant-baseline="middle" fill="#1f2937" font-family="DejaVu Sans, sans-serif" font-size="11" font-weight="400" text-anchor="start" x="64" y="482">Warehouse</text>
  <circle cx="180" cy="481" fill="#34d399" r="5" stroke="none"/>
  <text dominant-baseline="middle" fill="#1f2937" font-family="DejaVu Sans, sans-serif" font-size="11" font-weight="400" text-anchor="start" x="191" y="482">Support</text>
</svg>