<?xml version="1.0" encoding="UTF-8"?>
<svg height="448" version="1.1" viewBox="0 0 1152 448" width="1152" xmlns="http://www.w3.org/2000/svg">
  <line opacity="1" stroke="#4a6cf7" stroke-width="4" x1="230" x2="1058" y1="92" y2="92"/>
  <line opacity="1" stroke="#f97316" stroke-width="4" x1="322" x2="874" y1="180" y2="180"/>
  <line opacity="1" stroke="#22c55e" stroke-width="4" x1="506" x2="598" y1="268" y2="268"/>
  <line opacity="1" stroke="#a855f7" stroke-width="4" x1="782" x2="782" y1="356" y2="356"/>
  <path d="M 230 92 C 230 136 322 136 322 180" fill="none" opacity="1" stroke="#f97316" stroke-linecap="round" stroke-width="4"/>
  <path d="M 414 180 C 414 224 506 224 506 268" fill="none" opacity="1" stroke="#22c55e" stroke-linecap="round" stroke-width="4"/>
  <path d="M 690 180 C 690 268 782 268 782 356" fill="none" opacity="1" stroke="#a855f7" stroke-linecap="round" stroke-width="4"/>
  <path d="M 598 268 C 598 224 690 224 690 180" fill="none" opacity="1" stroke="#22c55e" stroke-linecap="round" stroke-width="4"/>
  <path d="M 782 356 C 782 268 874 268 874 180" fill="none" opacity="1" stroke="#a855f7" stroke-linecap="round" stroke-width="4"/>
  <path d="M 874 180 C 874 136 966 136 966 92" fill="none" opacity="1" stroke="#f97316" stroke-linecap="round" stroke-width="4"/>
  <circle cx="230" cy="92" fill="#4a6cf7" r="10" stroke="#4a6cf7" stroke-width="2"/>
  <circle cx="322" cy="180" fill="#f97316" r="10" stroke="#f97316" stroke-width="2"/>
  <circle cx="414" cy="180" fill="#f97316" r="10" stroke="#f97316" stroke-width="2"/>
  <circle cx="506" cy="268" fill="#22c55e" r="10" stroke="#22c55e" stroke-width="2"/>
  <circle cx="598" cy="268" fill="#22c55e" r="10" stroke="#22c55e" stroke-width="2"/>
  <circle cx="690" cy="180" fill="#ffffff" r="10" stroke="#f97316" stroke-width="4"/>
  <circle cx="782" cy="356" fill="#a855f7" r="10" stroke="#a855f7" stroke-width="2"/>
  <circle cx="874" cy="180" fill="#ffffff" r="10" stroke="#f97316" stroke-width="4"/>
  <circle cx="966" cy="92" fill="#ffffff" r="10" stroke="#4a6cf7" stroke-width="4"/>
  <rect fill="#fde047" height="22" rx="2" stroke="#4a6cf7" stroke-width="2" width="22" x="1047" y="81"/>
  <rect fill="#4a6cf7" height="23" rx="12" width="52" x="90" y="81"/>
  <text dominant-baseline="middle" fill="#ffffff" font-family="DejaVu Sans, sans-serif" font-size="13" font-weight="700" text-anchor="middle" x="116" y="92">main</text>
  <rect fill="#f97316" height="23" rx="12" width="70" x="81" y="169"/>
  <text dominant-baseline="middle" fill="#ffffff" font-family="DejaVu Sans, sans-serif" font-size="13" font-weight="700" text-anchor="middle" x="116" y="180">develop</text>
  <rect fill="#22c55e" height="23" rx="12" width="95" x="69" y="257"/>
  <text dominant-baseline="middle" fill="#ffffff" font-family="DejaVu Sans, sans-serif" font-size="13" font-weight="700" text-anchor="middle" x="117" y="268">feature/auth</text>
  <rect fill="#a855f7" height="23" rx="12" width="127" x="53" y="345"/>
  <text dominant-baseline="middle" fill="#ffffff" font-family="DejaVu Sans, sans-serif" font-size="13" font-weight="700" text-anchor="middle" x="117" y="356">feature/payments</text>
  <text dominant-baseline="alphabetic" fill="#0f172a" font-family="DejaVu Sans, sans-serif" font-size="11" font-weight="500" text-anchor="middle" x="230" y="116">initial</text>
  <path d="M 227 64 L 217 64 Q 213 64 213 60 L 213 50 Q 213 46 217 46 L 244 46 Q 248 46 248 50 L 248 60 Q 248 64 244 64 L 233 64 L 230 70 Z" fill="#fef3c7" stroke="#f59e0b" stroke-width="1"/>
  <text dominant-baseline="middle" fill="#92400e" font-family="DejaVu Sans, sans-serif" font-size="10" font-weight="700" text-anchor="middle" x="230" y="55">v0.1</text>
  <text dominant-baseline="alphabetic" fill="#0f172a" font-family="DejaVu Sans, sans-serif" font-size="11" font-weight="500" text-anchor="middle" x="322" y="204">setup-ci</text>
  <text dominant-baseline="alphabetic" fill="#0f172a" font-family="DejaVu Sans, sans-serif" font-size="11" font-weight="500" text-anchor="middle" x="414" y="204">add-tests</text>
  <text dominant-baseline="alphabetic" fill="#0f172a" font-family="DejaVu Sans, sans-serif" font-size="11" font-weight="500" text-anchor="middle" x="506" y="292">auth-model</text>
  <text dominant-baseline="alphabetic" fill="#0f172a" font-family="DejaVu Sans, sans-serif" font-size="11" font-weight="500" text-anchor="middle" x="598" y="292">auth-api</text>
  <text dominant-baseline="alphabetic" fill="#0f172a" font-family="DejaVu Sans, sans-serif" font-size="11" font-weight="500" text-anchor="middle" x="690" y="204">merge-auth</text>
  <text dominant-baseline="alphabetic" fill="#0f172a" font-family="DejaVu Sans, sans-serif" font-size="11" font-weight="500" text-anchor="middle" x="782" y="380">payment-model</text>
  <text dominant-baseline="alphabetic" fill="#0f172a" font-family="DejaVu Sans, sans-serif" font-size="11" font-weight="500" text-anchor="middle" x="874" y="204">merge-payments</text>
  <text dominant-baseline="alphabetic" fill="#0f172a" font-family="DejaVu Sans, sans-serif" font-size="11" font-weight="500" text-anchor="middle" x="966" y="116">release-1.0</text>
  <path d="M 963 64 L 953 64 Q 949 64 949 60 L 949 50 Q 949 46 953 46 L 980 46 Q 984 46 984 50 L 984 60 Q 984 64 980 64 L 969 64 L 966 70 Z" fill="#fef3c7" stroke="#f59e0b" stroke-width="1"/>
  <text dominant-baseline="middle" fill="#92400e" font-family="DejaVu Sans, sans-serif" font-size="10" font-weight="700" text-anchor="middle" x="966" y="55">v1.0</text>
  <text dominant-baseline="alphabetic" fill="#0f172a" font-family="DejaVu Sans, sans-serif" font-size="11" font-weight="500" text-anchor="middle" x="1058" y="116">hotfix-typo</text>
</svg>