<?xml version="1.0" encoding="UTF-8"?>
<svg height="1074" version="1.1" viewBox="0 0 848 1074" width="848" xmlns="http://www.w3.org/2000/svg">
  <rect fill="#111827" height="1074" width="848" x="0" y="0"/>
  <rect fill="#1e2433" height="220" rx="6" stroke="#4b5563" stroke-width="1.5" width="776" x="36" y="392"/>
  <rect fill="#4b5563" height="23" rx="6" width="24" x="36" y="392"/>
  <text dominant-baseline="middle" fill="#f3f4f6" font-family="DejaVu Sans" font-size="11" font-weight="700" text-anchor="middle" x="48" y="404">alt</text>
  <text dominant-baseline="middle" fill="#9ca3af" font-family="DejaVu Sans" font-size="11" font-weight="400" text-anchor="start" x="68" y="404">Valid credentials</text>
  <line stroke="#4b5563" stroke-dasharray="6,4" stroke-width="1.5" x1="36" x2="812" y1="527" y2="527"/>
  <text dominant-baseline="alphabetic" fill="#9ca3af" font-family="DejaVu Sans" font-size="11" font-weight="400" text-anchor="start" x="42" y="540">Invalid credentials</text>
  <rect fill="#1e2433" height="92" rx="6" stroke="#4b5563" stroke-width="1.5" width="776" x="36" y="648"/>
  <rect fill="#4b5563" height="23" rx="6" width="33" x="36" y="648"/>
  <text dominant-baseline="middle" fill="#f3f4f6" font-family="DejaVu Sans" font-size="11" font-weight="700" text-anchor="middle" x="53" y="660">loop</text>
  <text dominant-baseline="middle" fill="#9ca3af" font-family="DejaVu Sans" font-size="11" font-weight="400" text-anchor="start" x="77" y="660">Token refresh (every 15 min)</text>
  <rect fill="#1e2433" height="92" rx="6" stroke="#4b5563" stroke-width="1.5" width="776" x="36" y="776"/>
  <rect fill="#4b5563" height="23" rx="6" width="28" x="36" y="776"/>
  <text dominant-baseline="middle" fill="#f3f4f6" font-family="DejaVu Sans" font-size="11" font-weight="700" text-anchor="middle" x="50" y="788">opt</text>
  <text dominant-baseline="middle" fill="#9ca3af" font-family="DejaVu Sans" font-size="11" font-weight="400" text-anchor="start" x="72" y="788">Access protected resource</text>
  <rect fill="#2563eb" height="78" rx="14" width="140" x="48" y="28"/>
  <path d="M 4 7 A 3 3 0 1 0 10 7 A 3 3 0 1 0 4 7 M 1 22 A 6 6 0 0 1 13 22 M 14.5 8 A 2.5 2.5 0 1 0 19.5 8 A 2.5 2.5 0 1 0 14.5 8 M 14 22 A 5 5 0 0 1 22 22" fill="none" stroke="#bfdbfe" stroke-width="0.95" transform="translate(99,40) scale(1.5833333333333333)"/>
  <text dominant-baseline="alphabetic" fill="#ffffff" font-family="DejaVu Sans" font-size="13" font-weight="700" text-anchor="middle" x="118" y="90">User</text>
  <rect fill="#7c3aed" height="78" rx="14" width="140" x="252" y="28"/>
  <path d="M 8 12 A 4 4 0 1 0 16 12 A 4 4 0 1 0 8 12 M 22 12 L 20 12 M 19.1 4.9 L 17.7 6.3 M 12 2 L 12 4 M 4.9 4.9 L 6.3 6.3 M 2 12 L 4 12 M 4.9 19.1 L 6.3 17.7 M 12 22 L 12 20 M 19.1 19.1 L 17.7 17.7" fill="none" stroke="#ddd6fe" stroke-width="0.95" transform="translate(303,40) scale(1.5833333333333333)"/>
  <text dominant-baseline="alphabetic" fill="#ffffff" font-family="DejaVu Sans" font-size="13" font-weight="700" text-anchor="middle" x="322" y="90">Web Client</text>
  <rect fill="#7c3aed" height="78" rx="14" width="140" x="456" y="28"/>
  <path d="M 8 12 A 4 4 0 1 0 16 12 A 4 4 0 1 0 8 12 M 22 12 L 20 12 M 19.1 4.9 L 17.7 6.3 M 12 2 L 12 4 M 4.9 4.9 L 6.3 6.3 M 2 12 L 4 12 M 4.9 19.1 L 6.3 17.7 M 12 22 L 12 20 M 19.1 19.1 L 17.7 17.7" fill="none" stroke="#ddd6fe" stroke-width="0.95" transform="translate(507,40) scale(1.5833333333333333)"/>
  <text dominant-baseline="alphabetic" fill="#ffffff" font-family="DejaVu Sans" font-size="13" font-weight="700" text-anchor="middle" x="526" y="90">Auth Service</text>
  <rect fill="#7c3aed" height="78" rx="14" width="140" x="660" y="28"/>
  <path d="M 8 12 A 4 4 0 1 0 16 12 A 4 4 0 1 0 8 12 M 22 12 L 20 12 M 19.1 4.9 L 17.7 6.3 M 12 2 L 12 4 M 4.9 4.9 L 6.3 6.3 M 2 12 L 4 12 M 4.9 19.1 L 6.3 17.7 M 12 22 L 12 20 M 19.1 19.1 L 17.7 17.7" fill="none" stroke="#ddd6fe" stroke-width="0.95" transform="translate(711,40) scale(1.5833333333333333)"/>
  <text dominant-baseline="alphabetic" fill="#ffffff" font-family="DejaVu Sans" font-size="13" font-weight="700" text-anchor="middle" x="730" y="90">Database</text>
  <rect fill="#4b5563" height="64" rx="2" stroke="#94a3b8" stroke-width="1.5" width="10" x="725" y="278"/>
  <rect fill="#4b5563" height="192" rx="2" stroke="#94a3b8" stroke-width="1.5" width="10" x="521" y="214"/>
  <rect fill="#4b5563" height="320" rx="2" stroke="#94a3b8" stroke-width="1.5" width="10" x="317" y="150"/>
  <line stroke="#94a3b8" stroke-width="1.5" x1="118" x2="309" y1="150" y2="150"/>
  <path d="M 317 150 L 309 146 L 309 154 Z" fill="#94a3b8" stroke="none" stroke-width="0"/>
  <circle cx="202" cy="150" fill="#2563eb" r="11"/>
  <text dominant-baseline="middle" fill="#ffffff" font-family="DejaVu Sans" font-size="10" font-weight="700" text-anchor="middle" x="202" y="150">1</text>
  <text dominant-baseline="alphabetic" fill="#e2e8f0" font-family="DejaVu Sans" font-size="12" font-weight="400" text-anchor="middle" x="218" y="130">Enter credentials</text>
  <line stroke="#94a3b8" stroke-width="1.5" x1="327" x2="513" y1="214" y2="214"/>
  <path d="M 521 214 L 513 210 L 513 218 Z" fill="#94a3b8" stroke="none" stroke-width="0"/>
  <circle cx="406" cy="214" fill="#2563eb" r="11"/>
  <text dominant-baseline="middle" fill="#ffffff" font-family="DejaVu Sans" font-size="10" font-weight="700" text-anchor="middle" x="406" y="214">2</text>
  <text dominant-baseline="alphabetic" fill="#e2e8f0" font-family="DejaVu Sans" font-size="12" font-weight="400" text-anchor="middle" x="424" y="194">POST /login</text>
  <line stroke="#94a3b8" stroke-width="1.5" x1="531" x2="717" y1="278" y2="278"/>
  <path d="M 725 278 L 717 274 L 717 282 Z" fill="#94a3b8" stroke="none" stroke-width="0"/>
  <circle cx="610" cy="278" fill="#2563eb" r="11"/>
  <text dominant-baseline="middle" fill="#ffffff" font-family="DejaVu Sans" font-size="10" font-weight="700" text-anchor="middle" x="610" y="278">3</text>
  <text dominant-baseline="alphabetic" fill="#e2e8f0" font-family="DejaVu Sans" font-size="12" font-weight="400" text-anchor="middle" x="628" y="258">Query user record</text>
  <line stroke="#94a3b8" stroke-dasharray="8,5" stroke-width="1.5" x1="725" x2="539" y1="342" y2="342"/>
  <path d="M 539 338 L 531 342 L 539 346" fill="none" stroke="#94a3b8" stroke-linecap="round" stroke-width="1.5"/>
  <circle cx="646" cy="342" fill="#2563eb" r="11"/>
  <text dominant-baseline="middle" fill="#ffffff" font-family="DejaVu Sans" font-size="10" font-weight="700" text-anchor="middle" x="646" y="342">4</text>
  <text dominant-baseline="alphabetic" fill="#e2e8f0" font-family="DejaVu Sans" font-size="12" font-weight="400" text-anchor="middle" x="628" y="322">User data + hash</text>
  <line stroke="#94a3b8" stroke-dasharray="8,5" stroke-width="1.5" x1="521" x2="335" y1="406" y2="406"/>
  <path d="M 335 402 L 327 406 L 335 410" fill="none" stroke="#94a3b8" stroke-linecap="round" stroke-width="1.5"/>
  <circle cx="442" cy="406" fill="#2563eb" r="11"/>
  <text dominant-baseline="middle" fill="#ffffff" font-family="DejaVu Sans" font-size="10" font-weight="700" text-anchor="middle" x="442" y="406">5</text>
  <text dominant-baseline="alphabetic" fill="#e2e8f0" font-family="DejaVu Sans" font-size="12" font-weight="400" text-anchor="middle" x="424" y="386">200 JWT token</text>
  <line stroke="#94a3b8" stroke-dasharray="8,5" stroke-width="1.5" x1="317" x2="126" y1="470" y2="470"/>
  <path d="M 126 466 L 118 470 L 126 474" fill="none" stroke="#94a3b8" stroke-linecap="round" stroke-width="1.5"/>
  <circle cx="238" cy="470" fill="#2563eb" r="11"/>
  <text dominant-baseline="middle" fill="#ffffff" font-family="DejaVu Sans" font-size="10" font-weight="700" text-anchor="middle" x="238" y="470">6</text>
  <text dominant-baseline="alphabetic" fill="#e2e8f0" font-family="DejaVu Sans" font-size="12" font-weight="400" text-anchor="middle" x="218" y="450">Login successful</text>
  <line stroke="#94a3b8" stroke-dasharray="8,5" stroke-width="1.5" x1="526" x2="330" y1="534" y2="534"/>
  <path d="M 330 530 L 322 534 L 330 538" fill="none" stroke="#94a3b8" stroke-linecap="round" stroke-width="1.5"/>
  <circle cx="442" cy="534" fill="#2563eb" r="11"/>
  <text dominant-baseline="middle" fill="#ffffff" font-family="DejaVu Sans" font-size="10" font-weight="700" text-anchor="middle" x="442" y="534">7</text>
  <text dominant-baseline="alphabetic" fill="#e2e8f0" font-family="DejaVu Sans" font-size="12" font-weight="400" text-anchor="middle" x="424" y="514">401 Unauthorized</text>
  <line stroke="#94a3b8" stroke-dasharray="8,5" stroke-width="1.5" x1="322" x2="126" y1="598" y2="598"/>
  <path d="M 126 594 L 118 598 L 126 602" fill="none" stroke="#94a3b8" stroke-linecap="round" stroke-width="1.5"/>
  <circle cx="238" cy="598" fill="#2563eb" r="11"/>
  <text dominant-baseline="middle" fill="#ffffff" font-family="DejaVu Sans" font-size="10" font-weight="700" text-anchor="middle" x="238" y="598">8</text>
  <text dominant-baseline="alphabetic" fill="#e2e8f0" font-family="DejaVu Sans" font-size="12" font-weight="400" text-anchor="middle" x="220" y="578">Show error message</text>
  <line stroke="#94a3b8" stroke-width="1.5" x1="322" x2="518" y1="662" y2="662"/>
  <path d="M 526 662 L 518 658 L 518 666 Z" fill="#94a3b8" stroke="none" stroke-width="0"/>
  <circle cx="406" cy="662" fill="#2563eb" r="11"/>
  <text dominant-baseline="middle" fill="#ffffff" font-family="DejaVu Sans" font-size="10" font-weight="700" text-anchor="middle" x="406" y="662">9</text>
  <text dominant-baseline="alphabetic" fill="#e2e8f0" font-family="DejaVu Sans" font-size="12" font-weight="400" text-anchor="middle" x="424" y="642">POST /refresh</text>
  <line stroke="#94a3b8" stroke-dasharray="8,5" stroke-width="1.5" x1="526" x2="330" y1="726" y2="726"/>
  <path d="M 330 722 L 322 726 L 330 730" fill="none" stroke="#94a3b8" stroke-linecap="round" stroke-width="1.5"/>
  <circle cx="442" cy="726" fill="#2563eb" r="11"/>
  <text dominant-baseline="middle" fill="#ffffff" font-family="DejaVu Sans" font-size="10" font-weight="700" text-anchor="middle" x="442" y="726">10</text>
  <text dominant-baseline="alphabetic" fill="#e2e8f0" font-family="DejaVu Sans" font-size="12" font-weight="400" text-anchor="middle" x="424" y="706">New JWT token</text>
  <line stroke="#94a3b8" stroke-width="1.5" x1="322" x2="518" y1="790" y2="790"/>
  <path d="M 526 790 L 518 786 L 518 794 Z" fill="#94a3b8" stroke="none" stroke-width="0"/>
  <circle cx="406" cy="790" fill="#2563eb" r="11"/>
  <text dominant-baseline="middle" fill="#ffffff" font-family="DejaVu Sans" font-size="10" font-weight="700" text-anchor="middle" x="406" y="790">11</text>
  <text dominant-baseline="alphabetic" fill="#e2e8f0" font-family="DejaVu Sans" font-size="12" font-weight="400" text-anchor="middle" x="424" y="770">GET /api/data</text>
  <line stroke="#94a3b8" stroke-dasharray="8,5" stroke-width="1.5" x1="526" x2="330" y1="854" y2="854"/>
  <path d="M 330 850 L 322 854 L 330 858" fill="none" stroke="#94a3b8" stroke-linecap="round" stroke-width="1.5"/>
  <circle cx="442" cy="854" fill="#2563eb" r="11"/>
  <text dominant-baseline="middle" fill="#ffffff" font-family="DejaVu Sans" font-size="10" font-weight="700" text-anchor="middle" x="442" y="854">12</text>
  <text dominant-baseline="alphabetic" fill="#e2e8f0" font-family="DejaVu Sans" font-size="12" font-weight="400" text-anchor="middle" x="424" y="834">200 Protected data</text>
  <rect fill="#1e2433" height="34" rx="2" stroke="#4b5563" stroke-width="1.5" width="344" x="456" y="901"/>
  <text dominant-baseline="middle" fill="#e2e8f0" font-family="DejaVu Sans" font-size="12" font-weight="400" text-anchor="middle" x="628" y="918">All DB queries use TLS</text>
</svg>