<?xml version="1.0" encoding="UTF-8"?>
<svg height="262" version="1.1" viewBox="0 0 472 262" width="472" xmlns="http://www.w3.org/2000/svg">
  <rect fill="#f0f4ff" height="50" rx="4" stroke="#5b7fde" stroke-width="1.5" width="120" x="40" y="40"/>
  <text dominant-baseline="alphabetic" fill="#1e293b" font-family="DejaVu Sans, sans-serif" font-size="14" font-weight="600" text-anchor="middle" x="100" y="69">Frontend</text>
  <rect fill="#f0f4ff" height="50" rx="4" stroke="#5b7fde" stroke-width="1.5" width="256" x="176" y="40"/>
  <text dominant-baseline="alphabetic" fill="#1e293b" font-family="DejaVu Sans, sans-serif" font-size="14" font-weight="600" text-anchor="middle" x="304" y="69">API Layer</text>
  <rect fill="#f0f4ff" height="50" rx="4" stroke="#5b7fde" stroke-width="1.5" width="120" x="40" y="106"/>
  <text dominant-baseline="alphabetic" fill="#1e293b" font-family="DejaVu Sans, sans-serif" font-size="14" font-weight="600" text-anchor="middle" x="100" y="135">Auth</text>
  <rect fill="#f0f4ff" height="50" rx="4" stroke="#5b7fde" stroke-width="1.5" width="256" x="176" y="106"/>
  <text dominant-baseline="alphabetic" fill="#1e293b" font-family="DejaVu Sans, sans-serif" font-size="14" font-weight="600" text-anchor="middle" x="304" y="135">Database</text>
  <rect fill="#f0f4ff" height="50" rx="4" stroke="#5b7fde" stroke-width="1.5" width="120" x="40" y="172"/>
  <text dominant-baseline="alphabetic" fill="#1e293b" font-family="DejaVu Sans, sans-serif" font-size="14" font-weight="600" text-anchor="middle" x="100" y="201">Cache</text>
  <rect fill="#f0f4ff" height="50" rx="4" stroke="#5b7fde" stroke-width="1.5" width="120" x="176" y="172"/>
  <text dominant-baseline="alphabetic" fill="#1e293b" font-family="DejaVu Sans, sans-serif" font-size="14" font-weight="600" text-anchor="middle" x="236" y="201">Queue</text>
  <rect fill="#f0f4ff" height="50" rx="4" stroke="#5b7fde" stroke-width="1.5" width="120" x="312" y="172"/>
  <text dominant-baseline="alphabetic" fill="#1e293b" font-family="DejaVu Sans, sans-serif" font-size="14" font-weight="600" text-anchor="middle" x="372" y="201">Worker</text>
  <line stroke="#334155" stroke-width="1.5" x1="170" x2="166" y1="65" y2="65"/>
  <path d="M 176 65 L 169 69 L 169 61 Z" fill="#334155" stroke="#334155" stroke-width="1"/>
  <line stroke="#334155" stroke-width="1.5" x1="304" x2="304" y1="100" y2="96"/>
  <path d="M 304 106 L 300 99 L 308 99 Z" fill="#334155" stroke="#334155" stroke-width="1"/>
  <line stroke="#334155" stroke-width="1.5" x1="170" x2="166" y1="131" y2="131"/>
  <path d="M 176 131 L 169 135 L 169 127 Z" fill="#334155" stroke="#334155" stroke-width="1"/>
  <line stroke="#334155" stroke-width="1.5" x1="170" x2="166" y1="197" y2="197"/>
  <path d="M 176 197 L 169 201 L 169 193 Z" fill="#334155" stroke="#334155" stroke-width="1"/>
</svg>