<?xml version="1.0" encoding="UTF-8"?>
<svg height="568" version="1.1" viewBox="0 0 1040 568" width="1040" xmlns="http://www.w3.org/2000/svg">
<defs>
  <linearGradient gradientUnits="userSpaceOnUse" id="fg-202-68-402-210-00d4ff-f59e0b" x1="202" x2="402" y1="68" y2="210">
    <stop offset="0%" stop-color="#00D4FF"/>
    <stop offset="100%" stop-color="#F59E0B"/>
  </linearGradient>
  <linearGradient gradientUnits="userSpaceOnUse" id="fg-202-193-402-273-34d399-f59e0b" x1="202" x2="402" y1="193" y2="273">
    <stop offset="0%" stop-color="#34D399"/>
    <stop offset="100%" stop-color="#F59E0B"/>
  </linearGradient>
  <linearGradient gradientUnits="userSpaceOnUse" id="fg-202-323-402-322-a78bfa-f59e0b" x1="202" x2="402" y1="323" y2="322">
    <stop offset="0%" stop-color="#A78BFA"/>
    <stop offset="100%" stop-color="#F59E0B"/>
  </linearGradient>
  <linearGradient gradientUnits="userSpaceOnUse" id="fg-202-391-402-378-f87171-f59e0b" x1="202" x2="402" y1="391" y2="378">
    <stop offset="0%" stop-color="#F87171"/>
    <stop offset="100%" stop-color="#F59E0B"/>
  </linearGradient>
  <linearGradient gradientUnits="userSpaceOnUse" id="fg-202-129-620-135-00d4ff-38bdf8" x1="202" x2="620" y1="129" y2="135">
    <stop offset="0%" stop-color="#00D4FF"/>
    <stop offset="100%" stop-color="#38BDF8"/>
  </linearGradient>
  <linearGradient gradientUnits="userSpaceOnUse" id="fg-202-237-620-178-34d399-38bdf8" x1="202" x2="620" y1="237" y2="178">
    <stop offset="0%" stop-color="#34D399"/>
    <stop offset="100%" stop-color="#38BDF8"/>
  </linearGradient>
  <linearGradient gradientUnits="userSpaceOnUse" id="fg-202-497-620-325-fb923c-4ade80" x1="202" x2="620" y1="497" y2="325">
    <stop offset="0%" stop-color="#FB923C"/>
    <stop offset="100%" stop-color="#4ADE80"/>
  </linearGradient>
  <linearGradient gradientUnits="userSpaceOnUse" id="fg-202-272-620-414-34d399-0ea5c4" x1="202" x2="620" y1="272" y2="414">
    <stop offset="0%" stop-color="#34D399"/>
    <stop offset="100%" stop-color="#0EA5C4"/>
  </linearGradient>
  <linearGradient gradientUnits="userSpaceOnUse" id="fg-202-427-620-434-f87171-0ea5c4" x1="202" x2="620" y1="427" y2="434">
    <stop offset="0%" stop-color="#F87171"/>
    <stop offset="100%" stop-color="#0EA5C4"/>
  </linearGradient>
  <linearGradient gradientUnits="userSpaceOnUse" id="fg-420-205-620-227-f59e0b-38bdf8" x1="420" x2="620" y1="205" y2="227">
    <stop offset="0%" stop-color="#F59E0B"/>
    <stop offset="100%" stop-color="#38BDF8"/>
  </linearGradient>
  <linearGradient gradientUnits="userSpaceOnUse" id="fg-420-255-620-456-f59e0b-0ea5c4" x1="420" x2="620" y1="255" y2="456">
    <stop offset="0%" stop-color="#F59E0B"/>
    <stop offset="100%" stop-color="#0EA5C4"/>
  </linearGradient>
  <linearGradient gradientUnits="userSpaceOnUse" id="fg-420-277-620-383-f59e0b-4ade80" x1="420" x2="620" y1="277" y2="383">
    <stop offset="0%" stop-color="#F59E0B"/>
    <stop offset="100%" stop-color="#4ADE80"/>
  </linearGradient>
  <linearGradient gradientUnits="userSpaceOnUse" id="fg-638-120-838-219-38bdf8-00d4ff" x1="638" x2="838" y1="120" y2="219">
    <stop offset="0%" stop-color="#38BDF8"/>
    <stop offset="100%" stop-color="#00D4FF"/>
  </linearGradient>
  <linearGradient gradientUnits="userSpaceOnUse" id="fg-638-401-838-232-0ea5c4-00d4ff" x1="638" x2="838" y1="401" y2="232">
    <stop offset="0%" stop-color="#0EA5C4"/>
    <stop offset="100%" stop-color="#00D4FF"/>
  </linearGradient>
  <linearGradient gradientUnits="userSpaceOnUse" id="fg-420-325-838-282-f59e0b-00d4ff" x1="420" x2="838" y1="325" y2="282">
    <stop offset="0%" stop-color="#F59E0B"/>
    <stop offset="100%" stop-color="#00D4FF"/>
  </linearGradient>
  <linearGradient gradientUnits="userSpaceOnUse" id="fg-638-294-838-351-4ade80-00d4ff" x1="638" x2="838" y1="294" y2="351">
    <stop offset="0%" stop-color="#4ADE80"/>
    <stop offset="100%" stop-color="#00D4FF"/>
  </linearGradient>
</defs>

  <path d="M 202 32 C 269 32 335 174 402 174 L 402 246 C 335 246 269 104 202 104 Z" fill="url(#fg-202-68-402-210-00d4ff-f59e0b)" opacity="0.45" stroke="#00D4FF" stroke-width="0.5"/>
  <path d="M 202 166 C 269 166 335 246 402 246 L 402 299 C 335 299 269 219 202 219 Z" fill="url(#fg-202-193-402-273-34d399-f59e0b)" opacity="0.45" stroke="#34D399" stroke-width="0.5"/>
  <path d="M 202 300 C 269 300 335 299 402 299 L 402 345 C 335 345 269 346 202 346 Z" fill="url(#fg-202-323-402-322-a78bfa-f59e0b)" opacity="0.45" stroke="#A78BFA" stroke-width="0.5"/>
  <path d="M 202 358 C 269 358 335 345 402 345 L 402 410 C 335 410 269 423 202 423 Z" fill="url(#fg-202-391-402-378-f87171-f59e0b)" opacity="0.45" stroke="#F87171" stroke-width="0.5"/>
  <path d="M 202 104 C 341 104 481 110 620 110 L 620 160 C 481 160 341 154 202 154 Z" fill="url(#fg-202-129-620-135-00d4ff-38bdf8)" opacity="0.45" stroke="#00D4FF" stroke-width="0.5"/>
  <path d="M 202 219 C 341 219 481 160 620 160 L 620 196 C 481 196 341 255 202 255 Z" fill="url(#fg-202-237-620-178-34d399-38bdf8)" opacity="0.45" stroke="#34D399" stroke-width="0.5"/>
  <path d="M 202 442 C 341 442 481 270 620 270 L 620 380 C 481 380 341 552 202 552 Z" fill="url(#fg-202-497-620-325-fb923c-4ade80)" opacity="0.45" stroke="#FB923C" stroke-width="0.5"/>
  <path d="M 202 255 C 341 255 481 397 620 397 L 620 430 C 481 430 341 288 202 288 Z" fill="url(#fg-202-272-620-414-34d399-0ea5c4)" opacity="0.45" stroke="#34D399" stroke-width="0.5"/>
  <path d="M 202 423 C 341 423 481 430 620 430 L 620 437 C 481 437 341 430 202 430 Z" fill="url(#fg-202-427-620-434-f87171-0ea5c4)" opacity="0.45" stroke="#F87171" stroke-width="0.5"/>
  <path d="M 420 174 C 487 174 553 196 620 196 L 620 258 C 553 258 487 236 420 236 Z" fill="url(#fg-420-205-620-227-f59e0b-38bdf8)" opacity="0.45" stroke="#F59E0B" stroke-width="0.5"/>
  <path d="M 420 236 C 487 236 553 437 620 437 L 620 475 C 553 475 487 274 420 274 Z" fill="url(#fg-420-255-620-456-f59e0b-0ea5c4)" opacity="0.45" stroke="#F59E0B" stroke-width="0.5"/>
  <path d="M 420 274 C 487 274 553 380 620 380 L 620 385 C 553 385 487 279 420 279 Z" fill="url(#fg-420-277-620-383-f59e0b-4ade80)" opacity="0.45" stroke="#F59E0B" stroke-width="0.5"/>
  <path d="M 638 110 C 705 110 771 209 838 209 L 838 228 C 771 228 705 129 638 129 Z" fill="url(#fg-638-120-838-219-38bdf8-00d4ff)" opacity="0.45" stroke="#38BDF8" stroke-width="0.5"/>
  <path d="M 638 397 C 705 397 771 228 838 228 L 838 236 C 771 236 705 405 638 405 Z" fill="url(#fg-638-401-838-232-0ea5c4-00d4ff)" opacity="0.45" stroke="#0EA5C4" stroke-width="0.5"/>
  <path d="M 420 279 C 559 279 699 236 838 236 L 838 327 C 699 327 559 370 420 370 Z" fill="url(#fg-420-325-838-282-f59e0b-00d4ff)" opacity="0.45" stroke="#F59E0B" stroke-width="0.5"/>
  <path d="M 638 270 C 705 270 771 327 838 327 L 838 375 C 771 375 705 318 638 318 Z" fill="url(#fg-638-294-838-351-4ade80-00d4ff)" opacity="0.45" stroke="#4ADE80" stroke-width="0.5"/>
  <rect fill="#00D4FF" height="122" opacity="1" rx="3" width="18" x="184" y="32"/>
  <rect fill="#34D399" height="122" opacity="1" rx="3" width="18" x="184" y="166"/>
  <rect fill="#A78BFA" height="46" opacity="1" rx="3" width="18" x="184" y="300"/>
  <rect fill="#F87171" height="72" opacity="1" rx="3" width="18" x="184" y="358"/>
  <rect fill="#FB923C" height="110" opacity="1" rx="3" width="18" x="184" y="442"/>
  <rect fill="#F59E0B" height="237" opacity="1" rx="3" width="18" x="402" y="174"/>
  <rect fill="#38BDF8" height="148" opacity="1" rx="3" width="18" x="620" y="110"/>
  <rect fill="#4ADE80" height="115" opacity="1" rx="3" width="18" x="620" y="270"/>
  <rect fill="#0EA5C4" height="78" opacity="1" rx="3" width="18" x="620" y="397"/>
  <rect fill="#00D4FF" height="166" opacity="1" rx="3" width="18" x="838" y="209"/>
  <text dominant-baseline="middle" fill="#E2E8F0" font-family="Inter, system-ui, -apple-system, 'Segoe UI', sans-serif" font-size="12" font-weight="600" text-anchor="end" x="176" y="93">Coal 7100</text>
  <text dominant-baseline="middle" fill="#E2E8F0" font-family="Inter, system-ui, -apple-system, 'Segoe UI', sans-serif" font-size="12" font-weight="600" text-anchor="end" x="176" y="227">Natural Gas 7100</text>
  <text dominant-baseline="middle" fill="#E2E8F0" font-family="Inter, system-ui, -apple-system, 'Segoe UI', sans-serif" font-size="12" font-weight="600" text-anchor="end" x="176" y="323">Nuclear 2700</text>
  <text dominant-baseline="middle" fill="#E2E8F0" font-family="Inter, system-ui, -apple-system, 'Segoe UI', sans-serif" font-size="12" font-weight="600" text-anchor="end" x="176" y="394">Renewables 4220</text>
  <text dominant-baseline="middle" fill="#E2E8F0" font-family="Inter, system-ui, -apple-system, 'Segoe UI', sans-serif" font-size="12" font-weight="600" text-anchor="end" x="176" y="497">Oil 6400</text>
  <text dominant-baseline="middle" fill="#E2E8F0" font-family="Inter, system-ui, -apple-system, 'Segoe UI', sans-serif" font-size="12" font-weight="600" text-anchor="start" x="428" y="293">Electricity Generation 13800</text>
  <text dominant-baseline="middle" fill="#E2E8F0" font-family="Inter, system-ui, -apple-system, 'Segoe UI', sans-serif" font-size="12" font-weight="600" text-anchor="start" x="646" y="184">Industry 8600</text>
  <text dominant-baseline="middle" fill="#E2E8F0" font-family="Inter, system-ui, -apple-system, 'Segoe UI', sans-serif" font-size="12" font-weight="600" text-anchor="start" x="646" y="328">Transport 6710</text>
  <text dominant-baseline="middle" fill="#E2E8F0" font-family="Inter, system-ui, -apple-system, 'Segoe UI', sans-serif" font-size="12" font-weight="600" text-anchor="start" x="646" y="436">Buildings 4520</text>
  <text dominant-baseline="middle" fill="#E2E8F0" font-family="Inter, system-ui, -apple-system, 'Segoe UI', sans-serif" font-size="12" font-weight="600" text-anchor="start" x="864" y="292">Heat Losses 9680</text>
</svg>