<?xml version="1.0" encoding="UTF-8"?>
<svg height="600" version="1.1" viewBox="0 0 920 600" width="920" xmlns="http://www.w3.org/2000/svg">
  <rect fill="#0F1620" height="600" width="920" x="0" y="0"/>
  <text dominant-baseline="alphabetic" fill="#E2E8F0" font-family="Inter, system-ui, -apple-system, 'Segoe UI', sans-serif" font-size="20" font-weight="700" text-anchor="middle" x="460" y="52">Monthly Revenue vs Target 2026</text>
  <line opacity="0.9" stroke="#1E2D40" stroke-dasharray="4,4" stroke-width="1" x1="112" x2="868" y1="496" y2="496"/>
  <line opacity="0.9" stroke="#1E2D40" stroke-dasharray="4,4" stroke-width="1" x1="112" x2="868" y1="359.33" y2="359.33"/>
  <line opacity="0.9" stroke="#1E2D40" stroke-dasharray="4,4" stroke-width="1" x1="112" x2="868" y1="222.67" y2="222.67"/>
  <line opacity="0.9" stroke="#1E2D40" stroke-dasharray="4,4" stroke-width="1" x1="112" x2="868" y1="86" y2="86"/>
  <rect fill="#00D4FF" height="123" rx="3" stroke="#0F1620" stroke-width="1" width="103.32" x="123.34" y="373"/>
  <rect fill="#00D4FF" height="177.67" rx="3" stroke="#0F1620" stroke-width="1" width="103.32" x="249.34" y="318.33"/>
  <rect fill="#00D4FF" height="232.33" rx="3" stroke="#0F1620" stroke-width="1" width="103.32" x="375.34" y="263.67"/>
  <rect fill="#00D4FF" height="211.83" rx="3" stroke="#0F1620" stroke-width="1" width="103.32" x="501.34" y="284.17"/>
  <rect fill="#00D4FF" height="307.5" rx="3" stroke="#0F1620" stroke-width="1" width="103.32" x="627.34" y="188.5"/>
  <rect fill="#00D4FF" height="355.33" rx="3" stroke="#0F1620" stroke-width="1" width="103.32" x="753.34" y="140.67"/>
  <path d="M 175 359.33 L 301 325.17 L 427 291 L 553 277.33 L 679 222.67 L 805 154.33" fill="none" stroke="#F59E0B" stroke-linecap="round" stroke-width="2.5"/>
  <circle cx="175" cy="359.33" fill="#F59E0B" r="4" stroke="#0F1620" stroke-width="1"/>
  <circle cx="301" cy="325.17" fill="#F59E0B" r="4" stroke="#0F1620" stroke-width="1"/>
  <circle cx="427" cy="291" fill="#F59E0B" r="4" stroke="#0F1620" stroke-width="1"/>
  <circle cx="553" cy="277.33" fill="#F59E0B" r="4" stroke="#0F1620" stroke-width="1"/>
  <circle cx="679" cy="222.67" fill="#F59E0B" r="4" stroke="#0F1620" stroke-width="1"/>
  <circle cx="805" cy="154.33" fill="#F59E0B" r="4" stroke="#0F1620" stroke-width="1"/>
  <line stroke="#E2E8F0" stroke-width="1.5" x1="112" x2="868" y1="496" y2="496"/>
  <line stroke="#E2E8F0" stroke-width="1.5" x1="175" x2="175" y1="496" y2="502"/>
  <text dominant-baseline="alphabetic" fill="#64748B" font-family="Inter, system-ui, -apple-system, 'Segoe UI', sans-serif" font-size="10" font-weight="400" text-anchor="middle" x="175" y="516">Jan</text>
  <line stroke="#E2E8F0" stroke-width="1.5" x1="301" x2="301" y1="496" y2="502"/>
  <text dominant-baseline="alphabetic" fill="#64748B" font-family="Inter, system-ui, -apple-system, 'Segoe UI', sans-serif" font-size="10" font-weight="400" text-anchor="middle" x="301" y="516">Feb</text>
  <line stroke="#E2E8F0" stroke-width="1.5" x1="427" x2="427" y1="496" y2="502"/>
  <text dominant-baseline="alphabetic" fill="#64748B" font-family="Inter, system-ui, -apple-system, 'Segoe UI', sans-serif" font-size="10" font-weight="400" text-anchor="middle" x="427" y="516">Mar</text>
  <line stroke="#E2E8F0" stroke-width="1.5" x1="553" x2="553" y1="496" y2="502"/>
  <text dominant-baseline="alphabetic" fill="#64748B" font-family="Inter, system-ui, -apple-system, 'Segoe UI', sans-serif" font-size="10" font-weight="400" text-anchor="middle" x="553" y="516">Apr</text>
  <line stroke="#E2E8F0" stroke-width="1.5" x1="679" x2="679" y1="496" y2="502"/>
  <text dominant-baseline="alphabetic" fill="#64748B" font-family="Inter, system-ui, -apple-system, 'Segoe UI', sans-serif" font-size="10" font-weight="400" text-anchor="middle" x="679" y="516">May</text>
  <line stroke="#E2E8F0" stroke-width="1.5" x1="805" x2="805" y1="496" y2="502"/>
  <text dominant-baseline="alphabetic" fill="#64748B" font-family="Inter, system-ui, -apple-system, 'Segoe UI', sans-serif" font-size="10" font-weight="400" text-anchor="middle" x="805" y="516">Jun</text>
  <line stroke="#E2E8F0" stroke-width="1.5" x1="112" x2="112" y1="86" y2="496"/>
  <line stroke="#E2E8F0" stroke-width="1.5" x1="106" x2="112" y1="496" y2="496"/>
  <text dominant-baseline="middle" fill="#64748B" font-family="Inter, system-ui, -apple-system, 'Segoe UI', sans-serif" font-size="10" font-weight="400" text-anchor="end" x="100" y="496">0</text>
  <line stroke="#E2E8F0" stroke-width="1.5" x1="106" x2="112" y1="359.33" y2="359.33"/>
  <text dominant-baseline="middle" fill="#64748B" font-family="Inter, system-ui, -apple-system, 'Segoe UI', sans-serif" font-size="10" font-weight="400" text-anchor="end" x="100" y="359.33">2000</text>
  <line stroke="#E2E8F0" stroke-width="1.5" x1="106" x2="112" y1="222.67" y2="222.67"/>
  <text dominant-baseline="middle" fill="#64748B" font-family="Inter, system-ui, -apple-system, 'Segoe UI', sans-serif" font-size="10" font-weight="400" text-anchor="end" x="100" y="222.67">4000</text>
  <line stroke="#E2E8F0" stroke-width="1.5" x1="106" x2="112" y1="86" y2="86"/>
  <text dominant-baseline="middle" fill="#64748B" font-family="Inter, system-ui, -apple-system, 'Segoe UI', sans-serif" font-size="10" font-weight="400" text-anchor="end" x="100" y="86">6000</text>
  <text dominant-baseline="alphabetic" fill="#E2E8F0" font-family="Inter, system-ui, -apple-system, 'Segoe UI', sans-serif" font-size="12" font-weight="600" text-anchor="start" x="112" y="76">Revenue (USD k)</text>
  <rect fill="#00D4FF" height="12" rx="2" stroke="#0F1620" stroke-width="1" width="12" x="758" y="96"/>
  <text dominant-baseline="middle" fill="#64748B" font-family="Inter, system-ui, -apple-system, 'Segoe UI', sans-serif" font-size="10" font-weight="400" text-anchor="start" x="778" y="103">bar 0</text>
  <rect fill="#F59E0B" height="12" rx="2" stroke="#0F1620" stroke-width="1" width="12" x="758" y="120"/>
  <text dominant-baseline="middle" fill="#64748B" font-family="Inter, system-ui, -apple-system, 'Segoe UI', sans-serif" font-size="10" font-weight="400" text-anchor="start" x="778" y="127">line 0</text>
</svg>