<?xml version="1.0" encoding="UTF-8"?>
<svg height="242" version="1.1" viewBox="0 0 1824 242" width="1824" xmlns="http://www.w3.org/2000/svg">
  <rect fill="#FFFFFF" height="242" width="1824" x="0" y="0"/>
  <path d="M 1251 97 C 1251 145 1025 197 1025 149" fill="none" stroke="#9E9E9E" stroke-dasharray="5,4" stroke-width="1.5"/>
  <path d="M 181 110 L 230 110 L 230 110 L 271 110" fill="none" stroke="#D4D4D4" stroke-width="1.5"/>
  <path d="M 416 110 L 462 110 L 462 154 L 500 154" fill="none" stroke="#D4D4D4" stroke-width="1.5"/>
  <path d="M 416 110 L 459 110 L 459 65 L 495 65" fill="none" stroke="#D4D4D4" stroke-width="1.5"/>
  <path d="M 640 154 L 690 154 L 690 65 L 732 65" fill="none" stroke="#D4D4D4" stroke-width="1.5"/>
  <path d="M 640 154 L 682 154 L 682 154 L 716 154" fill="none" stroke="#D4D4D4" stroke-width="1.5"/>
  <path d="M 860 65 L 898 65 L 898 110 L 929 110" fill="none" stroke="#D4D4D4" stroke-width="1.5"/>
  <path d="M 1114 110 L 1149 110 L 1149 154 L 1177 154" fill="none" stroke="#D4D4D4" stroke-width="1.5"/>
  <path d="M 1114 110 L 1149 110 L 1149 65 L 1176 65" fill="none" stroke="#D4D4D4" stroke-width="1.5"/>
  <path d="M 1318 154 L 1367 154 L 1367 110 L 1409 110" fill="none" stroke="#D4D4D4" stroke-dasharray="2,4" stroke-width="1.5"/>
  <path d="M 1539 110 L 1584 110 L 1584 65 L 1621 65" fill="none" stroke="#D4D4D4" stroke-width="1.5"/>
  <path d="M 1539 110 L 1591 110 L 1591 154 L 1636 154" fill="none" stroke="#D4D4D4" stroke-width="1.5"/>
  <rect fill="#F5F5F5" height="65" rx="33" stroke="#595959" stroke-width="1.5" width="120" x="61" y="77"/>
  <text dominant-baseline="central" fill="#1A1A1A" font-family="Helvetica Neue, Helvetica, Arial, system-ui, sans-serif" font-size="12" font-weight="600" text-anchor="middle" x="121" y="110">Code Push</text>
  <rect fill="#F5F5F5" height="65" rx="0" stroke="#595959" stroke-width="1.5" width="138" x="278" y="77"/>
  <text dominant-baseline="central" fill="#1A1A1A" font-family="Helvetica Neue, Helvetica, Arial, system-ui, sans-serif" font-size="12" font-weight="600" text-anchor="middle" x="347" y="110">Lint and Format</text>
  <rect fill="#F5F5F5" height="65" rx="0" stroke="#595959" stroke-width="1.5" width="143" x="502" y="32"/>
  <text dominant-baseline="central" fill="#1A1A1A" font-family="Helvetica Neue, Helvetica, Arial, system-ui, sans-serif" font-size="12" font-weight="600" text-anchor="middle" x="573" y="65">Notify Lint Failed</text>
  <rect fill="#F5F5F5" height="65" rx="0" stroke="#595959" stroke-width="1.5" width="133" x="507" y="121"/>
  <text dominant-baseline="central" fill="#1A1A1A" font-family="Helvetica Neue, Helvetica, Arial, system-ui, sans-serif" font-size="12" font-weight="600" text-anchor="middle" x="573" y="154">Run Unit Tests</text>
  <rect fill="#F5F5F5" height="65" rx="0" stroke="#595959" stroke-width="1.5" width="121" x="739" y="32"/>
  <text dominant-baseline="central" fill="#1A1A1A" font-family="Helvetica Neue, Helvetica, Arial, system-ui, sans-serif" font-size="12" font-weight="600" text-anchor="middle" x="799" y="65">Docker Build</text>
  <rect fill="#F5F5F5" height="65" rx="0" stroke="#595959" stroke-width="1.5" width="153" x="723" y="121"/>
  <text dominant-baseline="central" fill="#1A1A1A" font-family="Helvetica Neue, Helvetica, Arial, system-ui, sans-serif" font-size="12" font-weight="600" text-anchor="middle" x="799" y="154">Notify Tests Failed</text>
  <path d="M 1025 77 L 1114 110 L 1025 142 L 936 110 Z" fill="#F5F5F5" stroke="#595959" stroke-width="1.5"/>
  <text dominant-baseline="central" fill="#1A1A1A" font-family="Helvetica Neue, Helvetica, Arial, system-ui, sans-serif" font-size="12" font-weight="600" text-anchor="middle" x="1025" y="110">Security Scan</text>
  <rect fill="#F5F5F5" height="65" rx="0" stroke="#595959" stroke-width="1.5" width="137" x="1183" y="32"/>
  <text dominant-baseline="central" fill="#1A1A1A" font-family="Helvetica Neue, Helvetica, Arial, system-ui, sans-serif" font-size="12" font-weight="600" text-anchor="middle" x="1251" y="65">Hold for Review</text>
  <rect fill="#F5F5F5" height="65" rx="33" stroke="#595959" stroke-width="1.5" width="134" x="1184" y="121"/>
  <text dominant-baseline="central" fill="#1A1A1A" font-family="Helvetica Neue, Helvetica, Arial, system-ui, sans-serif" font-size="12" font-weight="600" text-anchor="middle" x="1251" y="154">Deploy Staging</text>
  <rect fill="#F5F5F5" height="65" rx="0" stroke="#595959" stroke-width="1.5" width="123" x="1416" y="77"/>
  <text dominant-baseline="central" fill="#1A1A1A" font-family="Helvetica Neue, Helvetica, Arial, system-ui, sans-serif" font-size="12" font-weight="600" text-anchor="middle" x="1477" y="110">Smoke Tests</text>
  <rect fill="#F5F5F5" height="65" rx="33" stroke="#595959" stroke-width="1.5" width="151" x="1628" y="32"/>
  <text dominant-baseline="central" fill="#1A1A1A" font-family="Helvetica Neue, Helvetica, Arial, system-ui, sans-serif" font-size="12" font-weight="600" text-anchor="middle" x="1703" y="65">Deploy Production</text>
  <rect fill="#F5F5F5" height="65" rx="0" stroke="#595959" stroke-width="1.5" width="120" x="1643" y="121"/>
  <text dominant-baseline="central" fill="#1A1A1A" font-family="Helvetica Neue, Helvetica, Arial, system-ui, sans-serif" font-size="12" font-weight="600" text-anchor="middle" x="1703" y="154">Rollback</text>
  <path d="M 1025 142 L 1021 149 L 1029 149 Z" fill="#9E9E9E" stroke="none" stroke-width="0"/>
  <path d="M 278 110 L 271 106 L 271 114 Z" fill="#767676" stroke="none" stroke-width="0"/>
  <path d="M 507 154 L 500 150 L 500 158 Z" fill="#767676" stroke="none" stroke-width="0"/>
  <path d="M 502 65 L 495 61 L 495 69 Z" fill="#767676" stroke="none" stroke-width="0"/>
  <path d="M 739 65 L 732 61 L 732 69 Z" fill="#767676" stroke="none" stroke-width="0"/>
  <path d="M 723 154 L 716 150 L 716 158 Z" fill="#767676" stroke="none" stroke-width="0"/>
  <path d="M 936 110 L 929 106 L 929 114 Z" fill="#767676" stroke="none" stroke-width="0"/>
  <path d="M 1184 154 L 1177 150 L 1177 158 Z" fill="#767676" stroke="none" stroke-width="0"/>
  <path d="M 1183 65 L 1176 61 L 1176 69 Z" fill="#767676" stroke="none" stroke-width="0"/>
  <path d="M 1416 110 L 1409 106 L 1409 114 Z" fill="#767676" stroke="none" stroke-width="0"/>
  <path d="M 1628 65 L 1621 61 L 1621 69 Z" fill="#767676" stroke="none" stroke-width="0"/>
  <path d="M 1643 154 L 1636 150 L 1636 158 Z" fill="#767676" stroke="none" stroke-width="0"/>
  <text dominant-baseline="auto" fill="#767676" font-family="Helvetica Neue, Helvetica, Arial, system-ui, sans-serif" font-size="10" font-weight="400" text-anchor="middle" x="462" y="124">pass</text>
  <text dominant-baseline="auto" fill="#767676" font-family="Helvetica Neue, Helvetica, Arial, system-ui, sans-serif" font-size="10" font-weight="400" text-anchor="middle" x="459" y="80">fail</text>
  <text dominant-baseline="auto" fill="#767676" font-family="Helvetica Neue, Helvetica, Arial, system-ui, sans-serif" font-size="10" font-weight="400" text-anchor="middle" x="690" y="102">pass</text>
  <text dominant-baseline="auto" fill="#767676" font-family="Helvetica Neue, Helvetica, Arial, system-ui, sans-serif" font-size="10" font-weight="400" text-anchor="middle" x="682" y="146">fail</text>
  <text dominant-baseline="auto" fill="#767676" font-family="Helvetica Neue, Helvetica, Arial, system-ui, sans-serif" font-size="10" font-weight="400" text-anchor="middle" x="1149" y="124">clean</text>
  <text dominant-baseline="auto" fill="#767676" font-family="Helvetica Neue, Helvetica, Arial, system-ui, sans-serif" font-size="10" font-weight="400" text-anchor="middle" x="1149" y="80">issues</text>
  <text dominant-baseline="auto" fill="#767676" font-family="Helvetica Neue, Helvetica, Arial, system-ui, sans-serif" font-size="10" font-weight="400" text-anchor="middle" x="1584" y="80">pass</text>
  <text dominant-baseline="auto" fill="#767676" font-family="Helvetica Neue, Helvetica, Arial, system-ui, sans-serif" font-size="10" font-weight="400" text-anchor="middle" x="1591" y="124">fail</text>
</svg>