<?xml version="1.0" encoding="UTF-8"?>
<svg height="512" version="1.1" viewBox="0 0 972 512" width="972" xmlns="http://www.w3.org/2000/svg">
<defs>
  <linearGradient gradientUnits="userSpaceOnUse" id="fg-202-50-382-181-595959-2e2e2e" x1="202" x2="382" y1="50" y2="181">
    <stop offset="0%" stop-color="#595959"/>
    <stop offset="100%" stop-color="#2E2E2E"/>
  </linearGradient>
  <linearGradient gradientUnits="userSpaceOnUse" id="fg-202-165-382-239-9e9e9e-2e2e2e" x1="202" x2="382" y1="165" y2="239">
    <stop offset="0%" stop-color="#9E9E9E"/>
    <stop offset="100%" stop-color="#2E2E2E"/>
  </linearGradient>
  <linearGradient gradientUnits="userSpaceOnUse" id="fg-202-284-382-284-1a1a1a-2e2e2e" x1="202" x2="382" y1="284" y2="284">
    <stop offset="0%" stop-color="#1A1A1A"/>
    <stop offset="100%" stop-color="#2E2E2E"/>
  </linearGradient>
  <linearGradient gradientUnits="userSpaceOnUse" id="fg-202-347-382-335-bdbdbd-2e2e2e" x1="202" x2="382" y1="347" y2="335">
    <stop offset="0%" stop-color="#BDBDBD"/>
    <stop offset="100%" stop-color="#2E2E2E"/>
  </linearGradient>
  <linearGradient gradientUnits="userSpaceOnUse" id="fg-202-106-580-112-595959-424242" x1="202" x2="580" y1="106" y2="112">
    <stop offset="0%" stop-color="#595959"/>
    <stop offset="100%" stop-color="#424242"/>
  </linearGradient>
  <linearGradient gradientUnits="userSpaceOnUse" id="fg-202-206-580-152-9e9e9e-424242" x1="202" x2="580" y1="206" y2="152">
    <stop offset="0%" stop-color="#9E9E9E"/>
    <stop offset="100%" stop-color="#424242"/>
  </linearGradient>
  <linearGradient gradientUnits="userSpaceOnUse" id="fg-202-445-580-286-d4d4d4-757575" x1="202" x2="580" y1="445" y2="286">
    <stop offset="0%" stop-color="#D4D4D4"/>
    <stop offset="100%" stop-color="#757575"/>
  </linearGradient>
  <linearGradient gradientUnits="userSpaceOnUse" id="fg-202-237-580-368-9e9e9e-9e9e9e" x1="202" x2="580" y1="237" y2="368">
    <stop offset="0%" stop-color="#9E9E9E"/>
    <stop offset="100%" stop-color="#9E9E9E"/>
  </linearGradient>
  <linearGradient gradientUnits="userSpaceOnUse" id="fg-202-381-580-387-bdbdbd-9e9e9e" x1="202" x2="580" y1="381" y2="387">
    <stop offset="0%" stop-color="#BDBDBD"/>
    <stop offset="100%" stop-color="#9E9E9E"/>
  </linearGradient>
  <linearGradient gradientUnits="userSpaceOnUse" id="fg-400-177-580-197-2e2e2e-424242" x1="400" x2="580" y1="177" y2="197">
    <stop offset="0%" stop-color="#2E2E2E"/>
    <stop offset="100%" stop-color="#424242"/>
  </linearGradient>
  <linearGradient gradientUnits="userSpaceOnUse" id="fg-400-223-580-408-2e2e2e-9e9e9e" x1="400" x2="580" y1="223" y2="408">
    <stop offset="0%" stop-color="#2E2E2E"/>
    <stop offset="100%" stop-color="#9E9E9E"/>
  </linearGradient>
  <linearGradient gradientUnits="userSpaceOnUse" id="fg-400-243-580-339-2e2e2e-757575" x1="400" x2="580" y1="243" y2="339">
    <stop offset="0%" stop-color="#2E2E2E"/>
    <stop offset="100%" stop-color="#757575"/>
  </linearGradient>
  <linearGradient gradientUnits="userSpaceOnUse" id="fg-598-98-778-189-424242-1a1a1a" x1="598" x2="778" y1="98" y2="189">
    <stop offset="0%" stop-color="#424242"/>
    <stop offset="100%" stop-color="#1A1A1A"/>
  </linearGradient>
  <linearGradient gradientUnits="userSpaceOnUse" id="fg-598-357-778-201-9e9e9e-1a1a1a" x1="598" x2="778" y1="357" y2="201">
    <stop offset="0%" stop-color="#9E9E9E"/>
    <stop offset="100%" stop-color="#1A1A1A"/>
  </linearGradient>
  <linearGradient gradientUnits="userSpaceOnUse" id="fg-400-287-778-247-2e2e2e-1a1a1a" x1="400" x2="778" y1="287" y2="247">
    <stop offset="0%" stop-color="#2E2E2E"/>
    <stop offset="100%" stop-color="#1A1A1A"/>
  </linearGradient>
  <linearGradient gradientUnits="userSpaceOnUse" id="fg-598-258-778-310-757575-1a1a1a" x1="598" x2="778" y1="258" y2="310">
    <stop offset="0%" stop-color="#757575"/>
    <stop offset="100%" stop-color="#1A1A1A"/>
  </linearGradient>
</defs>

  <path d="M 202 17 C 262 17 322 148 382 148 L 382 214 C 322 214 262 83 202 83 Z" fill="url(#fg-202-50-382-181-595959-2e2e2e)" opacity="0.45" stroke="#595959" stroke-width="0.5"/>
  <path d="M 202 140 C 262 140 322 214 382 214 L 382 263 C 322 263 262 189 202 189 Z" fill="url(#fg-202-165-382-239-9e9e9e-2e2e2e)" opacity="0.45" stroke="#9E9E9E" stroke-width="0.5"/>
  <path d="M 202 263 C 262 263 322 263 382 263 L 382 305 C 322 305 262 305 202 305 Z" fill="url(#fg-202-284-382-284-1a1a1a-2e2e2e)" opacity="0.45" stroke="#1A1A1A" stroke-width="0.5"/>
  <path d="M 202 317 C 262 317 322 305 382 305 L 382 365 C 322 365 262 377 202 377 Z" fill="url(#fg-202-347-382-335-bdbdbd-2e2e2e)" opacity="0.45" stroke="#BDBDBD" stroke-width="0.5"/>
  <path d="M 202 83 C 328 83 454 89 580 89 L 580 135 C 454 135 328 129 202 129 Z" fill="url(#fg-202-106-580-112-595959-424242)" opacity="0.45" stroke="#595959" stroke-width="0.5"/>
  <path d="M 202 189 C 328 189 454 135 580 135 L 580 168 C 454 168 328 222 202 222 Z" fill="url(#fg-202-206-580-152-9e9e9e-424242)" opacity="0.45" stroke="#9E9E9E" stroke-width="0.5"/>
  <path d="M 202 395 C 328 395 454 236 580 236 L 580 336 C 454 336 328 495 202 495 Z" fill="url(#fg-202-445-580-286-d4d4d4-757575)" opacity="0.45" stroke="#D4D4D4" stroke-width="0.5"/>
  <path d="M 202 222 C 328 222 454 353 580 353 L 580 383 C 454 383 328 252 202 252 Z" fill="url(#fg-202-237-580-368-9e9e9e-9e9e9e)" opacity="0.45" stroke="#9E9E9E" stroke-width="0.5"/>
  <path d="M 202 377 C 328 377 454 383 580 383 L 580 390 C 454 390 328 384 202 384 Z" fill="url(#fg-202-381-580-387-bdbdbd-9e9e9e)" opacity="0.45" stroke="#BDBDBD" stroke-width="0.5"/>
  <path d="M 400 148 C 460 148 520 168 580 168 L 580 225 C 520 225 460 205 400 205 Z" fill="url(#fg-400-177-580-197-2e2e2e-424242)" opacity="0.45" stroke="#2E2E2E" stroke-width="0.5"/>
  <path d="M 400 205 C 460 205 520 390 580 390 L 580 425 C 520 425 460 240 400 240 Z" fill="url(#fg-400-223-580-408-2e2e2e-9e9e9e)" opacity="0.45" stroke="#2E2E2E" stroke-width="0.5"/>
  <path d="M 400 240 C 460 240 520 336 580 336 L 580 341 C 520 341 460 245 400 245 Z" fill="url(#fg-400-243-580-339-2e2e2e-757575)" opacity="0.45" stroke="#2E2E2E" stroke-width="0.5"/>
  <path d="M 598 89 C 658 89 718 180 778 180 L 778 197 C 718 197 658 106 598 106 Z" fill="url(#fg-598-98-778-189-424242-1a1a1a)" opacity="0.45" stroke="#424242" stroke-width="0.5"/>
  <path d="M 598 353 C 658 353 718 197 778 197 L 778 205 C 718 205 658 361 598 361 Z" fill="url(#fg-598-357-778-201-9e9e9e-1a1a1a)" opacity="0.45" stroke="#9E9E9E" stroke-width="0.5"/>
  <path d="M 400 245 C 526 245 652 205 778 205 L 778 288 C 652 288 526 328 400 328 Z" fill="url(#fg-400-287-778-247-2e2e2e-1a1a1a)" opacity="0.45" stroke="#2E2E2E" stroke-width="0.5"/>
  <path d="M 598 236 C 658 236 718 288 778 288 L 778 332 C 718 332 658 280 598 280 Z" fill="url(#fg-598-258-778-310-757575-1a1a1a)" opacity="0.45" stroke="#757575" stroke-width="0.5"/>
  <rect fill="#595959" height="111" opacity="1" rx="3" width="18" x="184" y="17"/>
  <rect fill="#9E9E9E" height="111" opacity="1" rx="3" width="18" x="184" y="140"/>
  <rect fill="#1A1A1A" height="42" opacity="1" rx="3" width="18" x="184" y="263"/>
  <rect fill="#BDBDBD" height="66" opacity="1" rx="3" width="18" x="184" y="317"/>
  <rect fill="#D4D4D4" height="100" opacity="1" rx="3" width="18" x="184" y="395"/>
  <rect fill="#2E2E2E" height="217" opacity="1" rx="3" width="18" x="382" y="148"/>
  <rect fill="#424242" height="135" opacity="1" rx="3" width="18" x="580" y="89"/>
  <rect fill="#757575" height="105" opacity="1" rx="3" width="18" x="580" y="236"/>
  <rect fill="#9E9E9E" height="71" opacity="1" rx="3" width="18" x="580" y="353"/>
  <rect fill="#1A1A1A" height="152" opacity="1" rx="3" width="18" x="778" y="180"/>
  <text dominant-baseline="middle" fill="#1A1A1A" font-family="Helvetica Neue, Helvetica, Arial, system-ui, sans-serif" font-size="12" font-weight="600" text-anchor="end" x="176" y="73">Coal 7100</text>
  <text dominant-baseline="middle" fill="#1A1A1A" font-family="Helvetica Neue, Helvetica, Arial, system-ui, sans-serif" font-size="12" font-weight="600" text-anchor="end" x="176" y="196">Natural Gas 7100</text>
  <text dominant-baseline="middle" fill="#1A1A1A" font-family="Helvetica Neue, Helvetica, Arial, system-ui, sans-serif" font-size="12" font-weight="600" text-anchor="end" x="176" y="284">Nuclear 2700</text>
  <text dominant-baseline="middle" fill="#1A1A1A" font-family="Helvetica Neue, Helvetica, Arial, system-ui, sans-serif" font-size="12" font-weight="600" text-anchor="end" x="176" y="350">Renewables 4220</text>
  <text dominant-baseline="middle" fill="#1A1A1A" font-family="Helvetica Neue, Helvetica, Arial, system-ui, sans-serif" font-size="12" font-weight="600" text-anchor="end" x="176" y="445">Oil 6400</text>
  <text dominant-baseline="middle" fill="#1A1A1A" font-family="Helvetica Neue, Helvetica, Arial, system-ui, sans-serif" font-size="12" font-weight="600" text-anchor="start" x="408" y="257">Electricity Generation 13800</text>
  <text dominant-baseline="middle" fill="#1A1A1A" font-family="Helvetica Neue, Helvetica, Arial, system-ui, sans-serif" font-size="12" font-weight="600" text-anchor="start" x="606" y="157">Industry 8600</text>
  <text dominant-baseline="middle" fill="#1A1A1A" font-family="Helvetica Neue, Helvetica, Arial, system-ui, sans-serif" font-size="12" font-weight="600" text-anchor="start" x="606" y="289">Transport 6710</text>
  <text dominant-baseline="middle" fill="#1A1A1A" font-family="Helvetica Neue, Helvetica, Arial, system-ui, sans-serif" font-size="12" font-weight="600" text-anchor="start" x="606" y="389">Buildings 4520</text>
  <text dominant-baseline="middle" fill="#1A1A1A" font-family="Helvetica Neue, Helvetica, Arial, system-ui, sans-serif" font-size="12" font-weight="600" text-anchor="start" x="804" y="256">Heat Losses 9680</text>
</svg>