<?xml version="1.0" encoding="UTF-8"?>
<svg height="600" version="1.1" viewBox="0 0 920 600" width="920" xmlns="http://www.w3.org/2000/svg">
  <rect fill="#FFF8F6" height="600" width="920" x="0" y="0"/>
  <text dominant-baseline="alphabetic" fill="#2D2540" font-family="Nunito, Poppins, 'Segoe UI', system-ui, sans-serif" font-size="22" font-weight="700" text-anchor="middle" x="460" y="62">Monthly Revenue vs Target 2026</text>
  <line opacity="0.9" stroke="#E8E0F0" stroke-dasharray="4,4" stroke-width="1" x1="120" x2="860" y1="488" y2="488"/>
  <line opacity="0.9" stroke="#E8E0F0" stroke-dasharray="4,4" stroke-width="1" x1="120" x2="860" y1="357.33" y2="357.33"/>
  <line opacity="0.9" stroke="#E8E0F0" stroke-dasharray="4,4" stroke-width="1" x1="120" x2="860" y1="226.67" y2="226.67"/>
  <line opacity="0.9" stroke="#E8E0F0" stroke-dasharray="4,4" stroke-width="1" x1="120" x2="860" y1="96" y2="96"/>
  <rect fill="#8B7ED8" height="117.6" rx="3" stroke="#FFF8F6" stroke-width="0.9" width="101.13" x="131.1" y="370.4"/>
  <rect fill="#8B7ED8" height="169.87" rx="3" stroke="#FFF8F6" stroke-width="0.9" width="101.13" x="254.43" y="318.13"/>
  <rect fill="#8B7ED8" height="222.13" rx="3" stroke="#FFF8F6" stroke-width="0.9" width="101.13" x="377.77" y="265.87"/>
  <rect fill="#8B7ED8" height="202.53" rx="3" stroke="#FFF8F6" stroke-width="0.9" width="101.13" x="501.1" y="285.47"/>
  <rect fill="#8B7ED8" height="294" rx="3" stroke="#FFF8F6" stroke-width="0.9" width="101.13" x="624.43" y="194"/>
  <rect fill="#8B7ED8" height="339.73" rx="3" stroke="#FFF8F6" stroke-width="0.9" width="101.13" x="747.77" y="148.27"/>
  <path d="M 181.67 357.33 L 305 324.67 L 428.33 292 L 551.67 278.93 L 675 226.67 L 798.33 161.33" fill="none" stroke="#E8948C" stroke-linecap="round" stroke-width="2.1"/>
  <circle cx="181.67" cy="357.33" fill="#E8948C" r="3" stroke="#FFF8F6" stroke-width="1"/>
  <circle cx="305" cy="324.67" fill="#E8948C" r="3" stroke="#FFF8F6" stroke-width="1"/>
  <circle cx="428.33" cy="292" fill="#E8948C" r="3" stroke="#FFF8F6" stroke-width="1"/>
  <circle cx="551.67" cy="278.93" fill="#E8948C" r="3" stroke="#FFF8F6" stroke-width="1"/>
  <circle cx="675" cy="226.67" fill="#E8948C" r="3" stroke="#FFF8F6" stroke-width="1"/>
  <circle cx="798.33" cy="161.33" fill="#E8948C" r="3" stroke="#FFF8F6" stroke-width="1"/>
  <line stroke="#2D2540" stroke-width="1.3" x1="120" x2="860" y1="488" y2="488"/>
  <line stroke="#2D2540" stroke-width="1.3" x1="181.67" x2="181.67" y1="488" y2="494"/>
  <text dominant-baseline="alphabetic" fill="#7B6F8E" font-family="Nunito, Poppins, 'Segoe UI', system-ui, sans-serif" font-size="11" font-weight="400" text-anchor="middle" x="181.67" y="509">Jan</text>
  <line stroke="#2D2540" stroke-width="1.3" x1="305" x2="305" y1="488" y2="494"/>
  <text dominant-baseline="alphabetic" fill="#7B6F8E" font-family="Nunito, Poppins, 'Segoe UI', system-ui, sans-serif" font-size="11" font-weight="400" text-anchor="middle" x="305" y="509">Feb</text>
  <line stroke="#2D2540" stroke-width="1.3" x1="428.33" x2="428.33" y1="488" y2="494"/>
  <text dominant-baseline="alphabetic" fill="#7B6F8E" font-family="Nunito, Poppins, 'Segoe UI', system-ui, sans-serif" font-size="11" font-weight="400" text-anchor="middle" x="428.33" y="509">Mar</text>
  <line stroke="#2D2540" stroke-width="1.3" x1="551.67" x2="551.67" y1="488" y2="494"/>
  <text dominant-baseline="alphabetic" fill="#7B6F8E" font-family="Nunito, Poppins, 'Segoe UI', system-ui, sans-serif" font-size="11" font-weight="400" text-anchor="middle" x="551.67" y="509">Apr</text>
  <line stroke="#2D2540" stroke-width="1.3" x1="675" x2="675" y1="488" y2="494"/>
  <text dominant-baseline="alphabetic" fill="#7B6F8E" font-family="Nunito, Poppins, 'Segoe UI', system-ui, sans-serif" font-size="11" font-weight="400" text-anchor="middle" x="675" y="509">May</text>
  <line stroke="#2D2540" stroke-width="1.3" x1="798.33" x2="798.33" y1="488" y2="494"/>
  <text dominant-baseline="alphabetic" fill="#7B6F8E" font-family="Nunito, Poppins, 'Segoe UI', system-ui, sans-serif" font-size="11" font-weight="400" text-anchor="middle" x="798.33" y="509">Jun</text>
  <line stroke="#2D2540" stroke-width="1.3" x1="120" x2="120" y1="96" y2="488"/>
  <line stroke="#2D2540" stroke-width="1.3" x1="114" x2="120" y1="488" y2="488"/>
  <text dominant-baseline="middle" fill="#7B6F8E" font-family="Nunito, Poppins, 'Segoe UI', system-ui, sans-serif" font-size="11" font-weight="400" text-anchor="end" x="108" y="488">0</text>
  <line stroke="#2D2540" stroke-width="1.3" x1="114" x2="120" y1="357.33" y2="357.33"/>
  <text dominant-baseline="middle" fill="#7B6F8E" font-family="Nunito, Poppins, 'Segoe UI', system-ui, sans-serif" font-size="11" font-weight="400" text-anchor="end" x="108" y="357.33">2000</text>
  <line stroke="#2D2540" stroke-width="1.3" x1="114" x2="120" y1="226.67" y2="226.67"/>
  <text dominant-baseline="middle" fill="#7B6F8E" font-family="Nunito, Poppins, 'Segoe UI', system-ui, sans-serif" font-size="11" font-weight="400" text-anchor="end" x="108" y="226.67">4000</text>
  <line stroke="#2D2540" stroke-width="1.3" x1="114" x2="120" y1="96" y2="96"/>
  <text dominant-baseline="middle" fill="#7B6F8E" font-family="Nunito, Poppins, 'Segoe UI', system-ui, sans-serif" font-size="11" font-weight="400" text-anchor="end" x="108" y="96">6000</text>
  <text dominant-baseline="alphabetic" fill="#2D2540" font-family="Nunito, Poppins, 'Segoe UI', system-ui, sans-serif" font-size="13" font-weight="600" text-anchor="start" x="120" y="86">Revenue (USD k)</text>
  <rect fill="#8B7ED8" height="12" rx="2" stroke="#FFF8F6" stroke-width="1" width="12" x="750" y="106"/>
  <text dominant-baseline="middle" fill="#7B6F8E" font-family="Nunito, Poppins, 'Segoe UI', system-ui, sans-serif" font-size="11" font-weight="400" text-anchor="start" x="770" y="113">bar 0</text>
  <rect fill="#E8948C" height="12" rx="2" stroke="#FFF8F6" stroke-width="1" width="12" x="750" y="130"/>
  <text dominant-baseline="middle" fill="#7B6F8E" font-family="Nunito, Poppins, 'Segoe UI', system-ui, sans-serif" font-size="11" font-weight="400" text-anchor="start" x="770" y="137">line 0</text>
</svg>