<?xml version="1.0" encoding="UTF-8"?>
<svg height="324" version="1.1" viewBox="0 0 2448 324" width="2448" xmlns="http://www.w3.org/2000/svg">
  <rect fill="#FFF8F6" height="324" width="2448" x="0" y="0"/>
  <path d="M 1680 122 C 1680 178 1376 246 1376 190" fill="none" stroke="#C8BCDC" stroke-dasharray="5,4" stroke-width="1.3"/>
  <path d="M 228 142 C 279 142 331 142 375 142" fill="none" stroke="#E8E0F0" stroke-width="1.3"/>
  <path d="M 547 142 C 594 142 641 203 681 203" fill="none" stroke="#E8E0F0" stroke-width="1.3"/>
  <path d="M 547 142 C 592 142 638 81 676 81" fill="none" stroke="#E8E0F0" stroke-width="1.3"/>
  <path d="M 848 203 C 898 203 949 81 992 81" fill="none" stroke="#E8E0F0" stroke-width="1.3"/>
  <path d="M 848 203 C 892 203 937 203 974 203" fill="none" stroke="#E8E0F0" stroke-width="1.3"/>
  <path d="M 1145 81 C 1185 81 1224 142 1257 142" fill="none" stroke="#E8E0F0" stroke-width="1.3"/>
  <path d="M 1488 142 C 1525 142 1563 203 1593 203" fill="none" stroke="#E8E0F0" stroke-width="1.3"/>
  <path d="M 1488 142 C 1525 142 1561 81 1591 81" fill="none" stroke="#E8E0F0" stroke-width="1.3"/>
  <path d="M 1761 203 C 1811 203 1860 142 1903 142" fill="none" stroke="#E8E0F0" stroke-dasharray="2,4" stroke-width="1.3"/>
  <path d="M 2059 142 C 2106 142 2152 81 2192 81" fill="none" stroke="#E8E0F0" stroke-width="1.3"/>
  <path d="M 2059 142 C 2115 142 2171 203 2220 203" fill="none" stroke="#E8E0F0" stroke-width="1.3"/>
  <rect fill="#FFF0ED" height="82" rx="41" stroke="#8B7ED8" stroke-width="1.3" width="136" x="92" y="101"/>
  <text dominant-baseline="central" fill="#2D2540" font-family="Nunito, Poppins, 'Segoe UI', system-ui, sans-serif" font-size="13" font-weight="600" text-anchor="middle" x="160" y="142">Code Push</text>
  <rect fill="#FFF0ED" height="82" rx="0" stroke="#8B7ED8" stroke-width="1.3" width="165" x="382" y="101"/>
  <text dominant-baseline="central" fill="#2D2540" font-family="Nunito, Poppins, 'Segoe UI', system-ui, sans-serif" font-size="13" font-weight="600" text-anchor="middle" x="464" y="142">Lint and Format</text>
  <rect fill="#FFF0ED" height="82" rx="0" stroke="#8B7ED8" stroke-width="1.3" width="171" x="683" y="40"/>
  <text dominant-baseline="central" fill="#2D2540" font-family="Nunito, Poppins, 'Segoe UI', system-ui, sans-serif" font-size="13" font-weight="600" text-anchor="middle" x="768" y="81">Notify Lint Failed</text>
  <rect fill="#FFF0ED" height="82" rx="0" stroke="#8B7ED8" stroke-width="1.3" width="160" x="688" y="162"/>
  <text dominant-baseline="central" fill="#2D2540" font-family="Nunito, Poppins, 'Segoe UI', system-ui, sans-serif" font-size="13" font-weight="600" text-anchor="middle" x="768" y="203">Run Unit Tests</text>
  <rect fill="#FFF0ED" height="82" rx="0" stroke="#8B7ED8" stroke-width="1.3" width="146" x="999" y="40"/>
  <text dominant-baseline="central" fill="#2D2540" font-family="Nunito, Poppins, 'Segoe UI', system-ui, sans-serif" font-size="13" font-weight="600" text-anchor="middle" x="1072" y="81">Docker Build</text>
  <rect fill="#FFF0ED" height="82" rx="0" stroke="#8B7ED8" stroke-width="1.3" width="182" x="981" y="162"/>
  <text dominant-baseline="central" fill="#2D2540" font-family="Nunito, Poppins, 'Segoe UI', system-ui, sans-serif" font-size="13" font-weight="600" text-anchor="middle" x="1072" y="203">Notify Tests Failed</text>
  <path d="M 1376 101 L 1488 142 L 1376 183 L 1264 142 Z" fill="#FFF0ED" stroke="#8B7ED8" stroke-width="1.3"/>
  <text dominant-baseline="central" fill="#2D2540" font-family="Nunito, Poppins, 'Segoe UI', system-ui, sans-serif" font-size="13" font-weight="600" text-anchor="middle" x="1376" y="142">Security Scan</text>
  <rect fill="#FFF0ED" height="82" rx="0" stroke="#8B7ED8" stroke-width="1.3" width="164" x="1598" y="40"/>
  <text dominant-baseline="central" fill="#2D2540" font-family="Nunito, Poppins, 'Segoe UI', system-ui, sans-serif" font-size="13" font-weight="600" text-anchor="middle" x="1680" y="81">Hold for Review</text>
  <rect fill="#FFF0ED" height="82" rx="41" stroke="#8B7ED8" stroke-width="1.3" width="161" x="1600" y="162"/>
  <text dominant-baseline="central" fill="#2D2540" font-family="Nunito, Poppins, 'Segoe UI', system-ui, sans-serif" font-size="13" font-weight="600" text-anchor="middle" x="1680" y="203">Deploy Staging</text>
  <rect fill="#FFF0ED" height="82" rx="0" stroke="#8B7ED8" stroke-width="1.3" width="149" x="1910" y="101"/>
  <text dominant-baseline="central" fill="#2D2540" font-family="Nunito, Poppins, 'Segoe UI', system-ui, sans-serif" font-size="13" font-weight="600" text-anchor="middle" x="1984" y="142">Smoke Tests</text>
  <rect fill="#FFF0ED" height="82" rx="41" stroke="#8B7ED8" stroke-width="1.3" width="179" x="2199" y="40"/>
  <text dominant-baseline="central" fill="#2D2540" font-family="Nunito, Poppins, 'Segoe UI', system-ui, sans-serif" font-size="13" font-weight="600" text-anchor="middle" x="2288" y="81">Deploy Production</text>
  <rect fill="#FFF0ED" height="82" rx="0" stroke="#8B7ED8" stroke-width="1.3" width="122" x="2227" y="162"/>
  <text dominant-baseline="central" fill="#2D2540" font-family="Nunito, Poppins, 'Segoe UI', system-ui, sans-serif" font-size="13" font-weight="600" text-anchor="middle" x="2288" y="203">Rollback</text>
  <path d="M 1376 183 L 1372 190 L 1380 190 Z" fill="#C8BCDC" stroke="none" stroke-width="0"/>
  <path d="M 382 142 L 375 138 L 375 146 Z" fill="#7B6F8E" stroke="none" stroke-width="0"/>
  <path d="M 688 203 L 681 199 L 681 207 Z" fill="#7B6F8E" stroke="none" stroke-width="0"/>
  <path d="M 683 81 L 676 77 L 676 85 Z" fill="#7B6F8E" stroke="none" stroke-width="0"/>
  <path d="M 999 81 L 992 77 L 992 85 Z" fill="#7B6F8E" stroke="none" stroke-width="0"/>
  <path d="M 981 203 L 974 199 L 974 207 Z" fill="#7B6F8E" stroke="none" stroke-width="0"/>
  <path d="M 1264 142 L 1257 138 L 1257 146 Z" fill="#7B6F8E" stroke="none" stroke-width="0"/>
  <path d="M 1600 203 L 1593 199 L 1593 207 Z" fill="#7B6F8E" stroke="none" stroke-width="0"/>
  <path d="M 1598 81 L 1591 77 L 1591 85 Z" fill="#7B6F8E" stroke="none" stroke-width="0"/>
  <path d="M 1910 142 L 1903 138 L 1903 146 Z" fill="#7B6F8E" stroke="none" stroke-width="0"/>
  <path d="M 2199 81 L 2192 77 L 2192 85 Z" fill="#7B6F8E" stroke="none" stroke-width="0"/>
  <path d="M 2227 203 L 2220 199 L 2220 207 Z" fill="#7B6F8E" stroke="none" stroke-width="0"/>
  <text dominant-baseline="auto" fill="#7B6F8E" font-family="Nunito, Poppins, 'Segoe UI', system-ui, sans-serif" font-size="11" font-weight="400" text-anchor="middle" x="618" y="165">pass</text>
  <text dominant-baseline="auto" fill="#7B6F8E" font-family="Nunito, Poppins, 'Segoe UI', system-ui, sans-serif" font-size="11" font-weight="400" text-anchor="middle" x="615" y="104">fail</text>
  <text dominant-baseline="auto" fill="#7B6F8E" font-family="Nunito, Poppins, 'Segoe UI', system-ui, sans-serif" font-size="11" font-weight="400" text-anchor="middle" x="924" y="134">pass</text>
  <text dominant-baseline="auto" fill="#7B6F8E" font-family="Nunito, Poppins, 'Segoe UI', system-ui, sans-serif" font-size="11" font-weight="400" text-anchor="middle" x="915" y="195">fail</text>
  <text dominant-baseline="auto" fill="#7B6F8E" font-family="Nunito, Poppins, 'Segoe UI', system-ui, sans-serif" font-size="11" font-weight="400" text-anchor="middle" x="1544" y="165">clean</text>
  <text dominant-baseline="auto" fill="#7B6F8E" font-family="Nunito, Poppins, 'Segoe UI', system-ui, sans-serif" font-size="11" font-weight="400" text-anchor="middle" x="1543" y="104">issues</text>
  <text dominant-baseline="auto" fill="#7B6F8E" font-family="Nunito, Poppins, 'Segoe UI', system-ui, sans-serif" font-size="11" font-weight="400" text-anchor="middle" x="2129" y="104">pass</text>
  <text dominant-baseline="auto" fill="#7B6F8E" font-family="Nunito, Poppins, 'Segoe UI', system-ui, sans-serif" font-size="11" font-weight="400" text-anchor="middle" x="2143" y="165">fail</text>
</svg>