<?xml version="1.0" encoding="UTF-8"?>
<svg height="480" version="1.1" viewBox="0 0 1235 480" width="1235" xmlns="http://www.w3.org/2000/svg">
  <line opacity="1" stroke="#8B7ED8" stroke-width="2.6" x1="245" x2="1145" y1="90" y2="90"/>
  <line opacity="1" stroke="#E8948C" stroke-width="2.6" x1="345" x2="945" y1="190" y2="190"/>
  <line opacity="1" stroke="#7EB89C" stroke-width="2.6" x1="545" x2="645" y1="290" y2="290"/>
  <line opacity="1" stroke="#7EB4D4" stroke-width="2.6" x1="845" x2="845" y1="390" y2="390"/>
  <path d="M 245 90 C 245 140 345 140 345 190" fill="none" opacity="1" stroke="#E8948C" stroke-linecap="round" stroke-width="2.6"/>
  <path d="M 445 190 C 445 240 545 240 545 290" fill="none" opacity="1" stroke="#7EB89C" stroke-linecap="round" stroke-width="2.6"/>
  <path d="M 745 190 C 745 290 845 290 845 390" fill="none" opacity="1" stroke="#7EB4D4" stroke-linecap="round" stroke-width="2.6"/>
  <path d="M 645 290 C 645 240 745 240 745 190" fill="none" opacity="1" stroke="#7EB89C" stroke-linecap="round" stroke-width="2.6"/>
  <path d="M 845 390 C 845 290 945 290 945 190" fill="none" opacity="1" stroke="#7EB4D4" stroke-linecap="round" stroke-width="2.6"/>
  <path d="M 945 190 C 945 140 1045 140 1045 90" fill="none" opacity="1" stroke="#E8948C" stroke-linecap="round" stroke-width="2.6"/>
  <circle cx="245" cy="90" fill="#8B7ED8" r="7" stroke="#8B7ED8" stroke-width="1.7"/>
  <circle cx="345" cy="190" fill="#E8948C" r="7" stroke="#E8948C" stroke-width="1.7"/>
  <circle cx="445" cy="190" fill="#E8948C" r="7" stroke="#E8948C" stroke-width="1.7"/>
  <circle cx="545" cy="290" fill="#7EB89C" r="7" stroke="#7EB89C" stroke-width="1.7"/>
  <circle cx="645" cy="290" fill="#7EB89C" r="7" stroke="#7EB89C" stroke-width="1.7"/>
  <circle cx="745" cy="190" fill="#FFF8F6" r="7" stroke="#E8948C" stroke-width="3.7"/>
  <circle cx="845" cy="390" fill="#7EB4D4" r="7" stroke="#7EB4D4" stroke-width="1.7"/>
  <circle cx="945" cy="190" fill="#FFF8F6" r="7" stroke="#E8948C" stroke-width="3.7"/>
  <circle cx="1045" cy="90" fill="#FFF8F6" r="7" stroke="#8B7ED8" stroke-width="3.7"/>
  <rect fill="#8B7ED8" height="16" rx="2" stroke="#8B7ED8" stroke-width="1.7" width="16" x="1137" y="82"/>
  <rect fill="#8B7ED8" height="23" rx="12" width="52" x="92" y="79"/>
  <text dominant-baseline="middle" fill="#ffffff" font-family="Nunito, Poppins, 'Segoe UI', system-ui, sans-serif" font-size="13" font-weight="700" text-anchor="middle" x="118" y="90">main</text>
  <rect fill="#E8948C" height="23" rx="12" width="70" x="83" y="179"/>
  <text dominant-baseline="middle" fill="#ffffff" font-family="Nunito, Poppins, 'Segoe UI', system-ui, sans-serif" font-size="13" font-weight="700" text-anchor="middle" x="118" y="190">develop</text>
  <rect fill="#7EB89C" height="23" rx="12" width="95" x="70" y="279"/>
  <text dominant-baseline="middle" fill="#ffffff" font-family="Nunito, Poppins, 'Segoe UI', system-ui, sans-serif" font-size="13" font-weight="700" text-anchor="middle" x="118" y="290">feature/auth</text>
  <rect fill="#7EB4D4" height="23" rx="12" width="127" x="54" y="379"/>
  <text dominant-baseline="middle" fill="#ffffff" font-family="Nunito, Poppins, 'Segoe UI', system-ui, sans-serif" font-size="13" font-weight="700" text-anchor="middle" x="118" y="390">feature/payments</text>
  <text dominant-baseline="alphabetic" fill="#7B6F8E" font-family="Nunito, Poppins, 'Segoe UI', system-ui, sans-serif" font-size="11" font-weight="500" text-anchor="middle" x="245" y="118">initial</text>
  <path d="M 242 58 L 233 58 Q 229 58 229 54 L 229 45 Q 229 41 233 41 L 258 41 Q 262 41 262 45 L 262 54 Q 262 58 258 58 L 248 58 L 245 64 Z" fill="#F0EBF8" stroke="#C8BCDC" stroke-width="1"/>
  <text dominant-baseline="middle" fill="#2D2540" font-family="Nunito, Poppins, 'Segoe UI', system-ui, sans-serif" font-size="9" font-weight="700" text-anchor="middle" x="245" y="50">v0.1</text>
  <text dominant-baseline="alphabetic" fill="#7B6F8E" font-family="Nunito, Poppins, 'Segoe UI', system-ui, sans-serif" font-size="11" font-weight="500" text-anchor="middle" x="345" y="218">setup-ci</text>
  <text dominant-baseline="alphabetic" fill="#7B6F8E" font-family="Nunito, Poppins, 'Segoe UI', system-ui, sans-serif" font-size="11" font-weight="500" text-anchor="middle" x="445" y="218">add-tests</text>
  <text dominant-baseline="alphabetic" fill="#7B6F8E" font-family="Nunito, Poppins, 'Segoe UI', system-ui, sans-serif" font-size="11" font-weight="500" text-anchor="middle" x="545" y="318">auth-model</text>
  <text dominant-baseline="alphabetic" fill="#7B6F8E" font-family="Nunito, Poppins, 'Segoe UI', system-ui, sans-serif" font-size="11" font-weight="500" text-anchor="middle" x="645" y="318">auth-api</text>
  <text dominant-baseline="alphabetic" fill="#7B6F8E" font-family="Nunito, Poppins, 'Segoe UI', system-ui, sans-serif" font-size="11" font-weight="500" text-anchor="middle" x="745" y="218">merge-auth</text>
  <text dominant-baseline="alphabetic" fill="#7B6F8E" font-family="Nunito, Poppins, 'Segoe UI', system-ui, sans-serif" font-size="11" font-weight="500" text-anchor="middle" x="845" y="418">payment-model</text>
  <text dominant-baseline="alphabetic" fill="#7B6F8E" font-family="Nunito, Poppins, 'Segoe UI', system-ui, sans-serif" font-size="11" font-weight="500" text-anchor="middle" x="945" y="218">merge-payments</text>
  <text dominant-baseline="alphabetic" fill="#7B6F8E" font-family="Nunito, Poppins, 'Segoe UI', system-ui, sans-serif" font-size="11" font-weight="500" text-anchor="middle" x="1045" y="118">release-1.0</text>
  <path d="M 1042 58 L 1033 58 Q 1029 58 1029 54 L 1029 45 Q 1029 41 1033 41 L 1058 41 Q 1062 41 1062 45 L 1062 54 Q 1062 58 1058 58 L 1048 58 L 1045 64 Z" fill="#F0EBF8" stroke="#C8BCDC" stroke-width="1"/>
  <text dominant-baseline="middle" fill="#2D2540" font-family="Nunito, Poppins, 'Segoe UI', system-ui, sans-serif" font-size="9" font-weight="700" text-anchor="middle" x="1045" y="50">v1.0</text>
  <text dominant-baseline="alphabetic" fill="#7B6F8E" font-family="Nunito, Poppins, 'Segoe UI', system-ui, sans-serif" font-size="11" font-weight="500" text-anchor="middle" x="1145" y="118">hotfix-typo</text>
</svg>