<?xml version="1.0" encoding="UTF-8"?>
<svg height="857" version="1.1" viewBox="0 0 1200 857" width="1200" xmlns="http://www.w3.org/2000/svg">
  <rect fill="#0d1117" height="857" width="1200" x="0" y="0"/>
  <rect fill="#0d1117" height="52" width="1200" x="0" y="0"/>
  <text dominant-baseline="central" fill="#e6edf3" font-family="Inter, sans-serif" font-size="22" font-weight="700" text-anchor="middle" x="600" y="26">RAG Architecture Deep Dive</text>
  <rect fill="#161b22" height="168" rx="12" stroke="#30363d" stroke-width="1" width="737" x="24" y="76"/>
  <rect fill="#161b22" height="28" rx="12" width="735" x="25" y="77"/>
  <text dominant-baseline="central" fill="#58a6ff" font-family="Inter, sans-serif" font-size="12" font-weight="600" text-anchor="start" x="45" y="91">Retrieval Pipeline</text>
  <rect fill="#111827" height="57.24" width="711" x="37" y="117"/>
  <path d="M113.16 142.07 C128.3 142.07 143.91 142.07 155.74 142.07" fill="none" stroke="#2dd4bf" stroke-width="0.71"/>
  <path d="M215.81 142.07 C230.01 142.07 243.72 142.07 254.6 142.07" fill="none" stroke="#2dd4bf" stroke-width="0.71"/>
  <path d="M322.72 142.07 C336.44 142.07 350.63 142.07 361.04 142.07" fill="none" stroke="#2dd4bf" stroke-width="0.71"/>
  <path d="M421.12 142.07 C435.78 142.07 449.98 142.07 461.33 142.07" fill="none" stroke="#2dd4bf" stroke-width="0.71"/>
  <path d="M526.61 142.07 C540.8 142.07 555.47 142.07 566.35 142.07" fill="none" stroke="#38bdf8" stroke-dasharray="3.78,2.37" stroke-dashoffset="0" stroke-width="0.71">
    <animate attributeName="stroke-dashoffset" dur="1.2s" from="6.15" repeatCount="indefinite" to="0"/>
  </path>
  <path d="M626.43 142.07 C641.56 142.07 657.17 142.07 669 142.07" fill="none" stroke="#38bdf8" stroke-dasharray="3.78,2.37" stroke-dashoffset="0" stroke-width="0.71">
    <animate attributeName="stroke-dashoffset" dur="1.2s" from="6.15" repeatCount="indefinite" to="0"/>
  </path>
  <rect fill="#0d9488" height="19.4" rx="9.93" stroke="#2dd4bf" stroke-width="0.71" width="56.77" x="56.4" y="132.14"/>
  <text dominant-baseline="central" fill="#ffffff" font-family="DejaVu Sans, sans-serif" font-size="5.68" font-weight="600" text-anchor="middle" x="84.78" y="142.07">User Query</text>
  <rect fill="#1e40af" height="19.4" rx="4.73" stroke="#2dd4bf" stroke-width="0.71" width="56.77" x="159.05" y="132.14"/>
  <text dominant-baseline="central" fill="#dbeafe" font-family="DejaVu Sans, sans-serif" font-size="5.68" font-weight="600" text-anchor="middle" x="187.43" y="142.07">Embed Query</text>
  <rect fill="#1e40af" height="19.4" rx="4.73" stroke="#2dd4bf" stroke-width="0.71" width="64.81" x="257.92" y="132.14"/>
  <path d="M268.5 140.72 A2.24 0.7 0 0 1 272.98 140.72 A2.24 0.7 0 0 1 268.5 140.72 L268.5 143.52 A2.24 0.7 0 0 0 272.98 143.52 L272.98 140.72 M268.5 142.12 A2.24 0.7 0 0 1 272.98 142.12" fill="none" opacity="0.85" stroke="#dbeafe" stroke-width="0.28"/>
  <text dominant-baseline="central" fill="#dbeafe" font-family="DejaVu Sans, sans-serif" font-size="5.68" font-weight="600" text-anchor="middle" x="295.29" y="142.07">Vector Search</text>
  <rect fill="#1e40af" height="19.4" rx="4.73" stroke="#2dd4bf" stroke-width="0.71" width="56.77" x="364.35" y="132.14"/>
  <text dominant-baseline="central" fill="#dbeafe" font-family="DejaVu Sans, sans-serif" font-size="5.68" font-weight="600" text-anchor="middle" x="392.74" y="142.07">Re-rank</text>
  <rect fill="#1e40af" height="19.4" rx="4.73" stroke="#2dd4bf" stroke-width="0.71" width="61.97" x="464.64" y="132.14"/>
  <text dominant-baseline="central" fill="#dbeafe" font-family="DejaVu Sans, sans-serif" font-size="5.68" font-weight="600" text-anchor="middle" x="495.39" y="142.07">Augment Prompt</text>
  <rect fill="#1e40af" height="19.4" rx="4.73" stroke="#2dd4bf" stroke-width="0.71" width="56.77" x="569.66" y="132.14"/>
  <text dominant-baseline="central" fill="#dbeafe" font-family="DejaVu Sans, sans-serif" font-size="5.68" font-weight="600" text-anchor="middle" x="598.04" y="142.07">LLM Generate</text>
  <rect fill="#064e3b" height="19.4" rx="9.93" stroke="#2dd4bf" stroke-width="0.71" width="56.77" x="672.31" y="132.14"/>
  <text dominant-baseline="central" fill="#6ee7b7" font-family="DejaVu Sans, sans-serif" font-size="5.68" font-weight="600" text-anchor="middle" x="700.69" y="142.07">Answer</text>
  <path d="M159.05 142.07 L155.74 140.18 L155.74 143.96 Z" fill="#2dd4bf" stroke="none" stroke-width="0"/>
  <path d="M257.92 142.07 L254.6 140.18 L254.6 143.96 Z" fill="#2dd4bf" stroke="none" stroke-width="0"/>
  <path d="M364.35 142.07 L361.04 140.18 L361.04 143.96 Z" fill="#2dd4bf" stroke="none" stroke-width="0"/>
  <path d="M464.64 142.07 L461.33 140.18 L461.33 143.96 Z" fill="#2dd4bf" stroke="none" stroke-width="0"/>
  <path d="M569.66 142.07 L566.35 140.18 L566.35 143.96 Z" fill="#38bdf8" stroke="none" stroke-width="0"/>
  <path d="M672.31 142.07 L669 140.18 L669 143.96 Z" fill="#38bdf8" stroke="none" stroke-width="0"/>
  <text dominant-baseline="auto" fill="#94a3b8" font-family="DejaVu Sans, sans-serif" font-size="4.73" font-weight="400" text-anchor="middle" x="343.54" y="138.29">top-k</text>
  <rect fill="#161b22" height="168" rx="12" stroke="#30363d" stroke-width="1" width="399" x="777" y="76"/>
  <rect fill="#161b22" height="28" rx="12" width="397" x="778" y="77"/>
  <text dominant-baseline="central" fill="#58a6ff" font-family="Inter, sans-serif" font-size="12" font-weight="600" text-anchor="start" x="798" y="91">Knowledge Base</text>
  <rect fill="#111827" height="114" width="310.98" x="821.01" y="117"/>
  <line stroke="#2dd4bf" stroke-width="0.58" x1="976.89" x2="879.56" y1="131.73" y2="158.88"/>
  <line stroke="#2dd4bf" stroke-width="0.58" x1="879.56" x2="855.91" y1="173.61" y2="200.76"/>
  <line stroke="#2dd4bf" stroke-width="0.58" x1="879.56" x2="903.21" y1="173.61" y2="200.76"/>
  <line stroke="#2dd4bf" stroke-width="0.58" x1="976.89" x2="977.66" y1="131.73" y2="158.88"/>
  <line stroke="#2dd4bf" stroke-width="0.58" x1="977.66" x2="952.46" y1="173.61" y2="200.76"/>
  <line stroke="#2dd4bf" stroke-width="0.58" x1="977.66" x2="1002.48" y1="173.61" y2="200.76"/>
  <line stroke="#2dd4bf" stroke-width="0.58" x1="976.89" x2="1073.83" y1="131.73" y2="158.88"/>
  <line stroke="#2dd4bf" stroke-width="0.58" x1="1073.83" x2="1050.56" y1="173.61" y2="200.76"/>
  <line stroke="#2dd4bf" stroke-width="0.58" x1="1073.83" x2="1097.09" y1="173.61" y2="200.76"/>
  <rect fill="#134e4a" height="14.73" rx="3.1" stroke="#2dd4bf" stroke-width="0.58" width="38.78" x="836.52" y="200.76"/>
  <text dominant-baseline="central" fill="#e2e8f0" font-family="DejaVu Sans, sans-serif" font-size="5.04" font-weight="600" text-anchor="middle" x="855.91" y="208.12">PDFs</text>
  <rect fill="#134e4a" height="14.73" rx="3.1" stroke="#2dd4bf" stroke-width="0.58" width="39.94" x="883.44" y="200.76"/>
  <text dominant-baseline="central" fill="#e2e8f0" font-family="DejaVu Sans, sans-serif" font-size="5.04" font-weight="600" text-anchor="middle" x="903.21" y="208.12">Web Pages</text>
  <rect fill="#0f766e" height="14.73" rx="3.1" stroke="#2dd4bf" stroke-width="0.58" width="39.94" x="859.79" y="158.88"/>
  <text dominant-baseline="central" fill="#f1f5f9" font-family="DejaVu Sans, sans-serif" font-size="5.04" font-weight="600" text-anchor="middle" x="879.56" y="166.24">Documents</text>
  <rect fill="#134e4a" height="14.73" rx="3.1" stroke="#2dd4bf" stroke-width="0.58" width="42.65" x="931.13" y="200.76"/>
  <text dominant-baseline="central" fill="#e2e8f0" font-family="DejaVu Sans, sans-serif" font-size="5.04" font-weight="600" text-anchor="middle" x="952.46" y="208.12">Text Chunks</text>
  <rect fill="#134e4a" height="14.73" rx="3.1" stroke="#2dd4bf" stroke-width="0.58" width="41.88" x="981.54" y="200.76"/>
  <text dominant-baseline="central" fill="#e2e8f0" font-family="DejaVu Sans, sans-serif" font-size="5.04" font-weight="600" text-anchor="middle" x="1002.48" y="208.12">Embeddings</text>
  <rect fill="#0f766e" height="14.73" rx="3.1" stroke="#2dd4bf" stroke-width="0.58" width="38.78" x="958.28" y="158.88"/>
  <text dominant-baseline="central" fill="#f1f5f9" font-family="DejaVu Sans, sans-serif" font-size="5.04" font-weight="600" text-anchor="middle" x="977.66" y="166.24">Chunks</text>
  <rect fill="#134e4a" height="14.73" rx="3.1" stroke="#2dd4bf" stroke-width="0.58" width="38.78" x="1031.17" y="200.76"/>
  <text dominant-baseline="central" fill="#e2e8f0" font-family="DejaVu Sans, sans-serif" font-size="5.04" font-weight="600" text-anchor="middle" x="1050.56" y="208.12">FAISS</text>
  <rect fill="#134e4a" height="14.73" rx="3.1" stroke="#2dd4bf" stroke-width="0.58" width="38.78" x="1077.7" y="200.76"/>
  <text dominant-baseline="central" fill="#e2e8f0" font-family="DejaVu Sans, sans-serif" font-size="5.04" font-weight="600" text-anchor="middle" x="1097.09" y="208.12">Metadata</text>
  <rect fill="#0f766e" height="14.73" rx="3.1" stroke="#2dd4bf" stroke-width="0.58" width="42.65" x="1052.5" y="158.88"/>
  <text dominant-baseline="central" fill="#f1f5f9" font-family="DejaVu Sans, sans-serif" font-size="5.04" font-weight="600" text-anchor="middle" x="1073.83" y="166.24">Vector Index</text>
  <rect fill="#0d9488" height="14.73" rx="3.1" stroke="#2dd4bf" stroke-width="0.58" width="51.96" x="950.91" y="117"/>
  <text dominant-baseline="central" fill="#ffffff" font-family="DejaVu Sans, sans-serif" font-size="5.04" font-weight="600" text-anchor="middle" x="976.89" y="124.37">Knowledge Base</text>
  <rect fill="#161b22" height="573" rx="12" stroke="#30363d" stroke-width="1" width="737" x="24" y="260"/>
  <rect fill="#161b22" height="28" rx="12" width="735" x="25" y="261"/>
  <text dominant-baseline="central" fill="#58a6ff" font-family="Inter, sans-serif" font-size="12" font-weight="600" text-anchor="start" x="45" y="275">Retrieval Sequence</text>
  <rect fill="#111827" height="519" width="703.05" x="40.97" y="301"/>
  <rect fill="#2563eb" height="64.67" rx="11.61" width="116.07" x="80.77" y="324.21"/>
  <path d="M128.29 343.33 A3.93 3.93 0 1 0 136.15 343.33 A3.93 3.93 0 1 0 128.29 343.33 M124.36 362.98 A7.86 7.86 0 0 1 140.08 362.98 M142.04 344.64 A3.28 3.28 0 1 0 148.6 344.64 A3.28 3.28 0 1 0 142.04 344.64 M141.39 362.98 A6.55 6.55 0 0 1 151.87 362.98" fill="none" stroke="#bfdbfe" stroke-width="1.24"/>
  <text dominant-baseline="alphabetic" fill="#ffffff" font-family="DejaVu Sans" font-size="10.78" font-weight="700" text-anchor="middle" x="138.8" y="375.62">Client</text>
  <rect fill="#7c3aed" height="64.67" rx="11.61" width="116.07" x="249.9" y="324.21"/>
  <path d="M302.66 349.88 A5.24 5.24 0 1 0 313.14 349.88 A5.24 5.24 0 1 0 302.66 349.88 M321 349.88 L318.38 349.88 M317.2 340.58 L315.37 342.41 M307.9 336.78 L307.9 339.4 M298.6 340.58 L300.43 342.41 M294.8 349.88 L297.42 349.88 M298.6 359.18 L300.43 357.35 M307.9 362.98 L307.9 360.36 M317.2 359.18 L315.37 357.35" fill="none" stroke="#ddd6fe" stroke-width="1.24"/>
  <text dominant-baseline="alphabetic" fill="#ffffff" font-family="DejaVu Sans" font-size="10.78" font-weight="700" text-anchor="middle" x="307.93" y="375.62">API Gateway</text>
  <rect fill="#7c3aed" height="64.67" rx="11.61" width="116.07" x="419.03" y="324.21"/>
  <path d="M471.79 349.88 A5.24 5.24 0 1 0 482.27 349.88 A5.24 5.24 0 1 0 471.79 349.88 M490.13 349.88 L487.51 349.88 M486.33 340.58 L484.5 342.41 M477.03 336.78 L477.03 339.4 M467.73 340.58 L469.56 342.41 M463.93 349.88 L466.55 349.88 M467.73 359.18 L469.56 357.35 M477.03 362.98 L477.03 360.36 M486.33 359.18 L484.5 357.35" fill="none" stroke="#ddd6fe" stroke-width="1.24"/>
  <text dominant-baseline="alphabetic" fill="#ffffff" font-family="DejaVu Sans" font-size="10.78" font-weight="700" text-anchor="middle" x="477.07" y="375.62">Retriever</text>
  <rect fill="#dc2626" height="64.67" rx="11.61" width="116.07" x="588.16" y="324.21"/>
  <path d="M635.68 343.33 A10.48 3.28 0 0 1 656.64 343.33 A10.48 3.28 0 0 1 635.68 343.33 L635.68 356.43 A10.48 3.28 0 0 0 656.64 356.43 L656.64 343.33 M635.68 349.88 A10.48 3.28 0 0 1 656.64 349.88" fill="none" stroke="#fca5a5" stroke-width="1.24"/>
  <text dominant-baseline="alphabetic" fill="#ffffff" font-family="DejaVu Sans" font-size="10.78" font-weight="700" text-anchor="middle" x="646.2" y="375.62">Vector DB</text>
  <line stroke="#94a3b8" stroke-width="1.24" x1="138.8" x2="301.3" y1="425.36" y2="425.36"/>
  <path d="M307.93 425.36 L301.3 422.04 L301.3 428.68 Z" fill="#94a3b8" stroke="none" stroke-width="0"/>
  <circle cx="208.45" cy="425.36" fill="#2563eb" r="9.12"/>
  <text dominant-baseline="middle" fill="#ffffff" font-family="DejaVu Sans" font-size="8.29" font-weight="700" text-anchor="middle" x="208.45" y="425.36">1</text>
  <text dominant-baseline="alphabetic" fill="#e2e8f0" font-family="DejaVu Sans" font-size="9.95" font-weight="400" text-anchor="middle" x="223.37" y="408.78">POST /query</text>
  <line stroke="#94a3b8" stroke-width="1.24" x1="307.93" x2="470.43" y1="478.42" y2="478.42"/>
  <path d="M470.43 475.11 L477.07 478.42 L470.43 481.74" fill="none" stroke="#94a3b8" stroke-linecap="round" stroke-width="1.24"/>
  <circle cx="377.58" cy="478.42" fill="#2563eb" r="9.12"/>
  <text dominant-baseline="middle" fill="#ffffff" font-family="DejaVu Sans" font-size="8.29" font-weight="700" text-anchor="middle" x="377.58" y="478.42">2</text>
  <text dominant-baseline="alphabetic" fill="#e2e8f0" font-family="DejaVu Sans" font-size="9.95" font-weight="400" text-anchor="middle" x="392.5" y="461.84">retrieve(query)</text>
  <line stroke="#94a3b8" stroke-width="1.24" x1="477.07" x2="639.56" y1="531.48" y2="531.48"/>
  <path d="M639.56 528.17 L646.2 531.48 L639.56 534.8" fill="none" stroke="#94a3b8" stroke-linecap="round" stroke-width="1.24"/>
  <circle cx="546.71" cy="531.48" fill="#2563eb" r="9.12"/>
  <text dominant-baseline="middle" fill="#ffffff" font-family="DejaVu Sans" font-size="8.29" font-weight="700" text-anchor="middle" x="546.71" y="531.48">3</text>
  <text dominant-baseline="alphabetic" fill="#e2e8f0" font-family="DejaVu Sans" font-size="9.95" font-weight="400" text-anchor="middle" x="561.63" y="514.9">search(embedding)</text>
  <line stroke="#94a3b8" stroke-dasharray="6.63,4.15" stroke-width="1.24" x1="646.2" x2="483.7" y1="584.54" y2="584.54"/>
  <path d="M483.7 581.23 L477.07 584.54 L483.7 587.86" fill="none" stroke="#94a3b8" stroke-linecap="round" stroke-width="1.24"/>
  <circle cx="576.55" cy="584.54" fill="#2563eb" r="9.12"/>
  <text dominant-baseline="middle" fill="#ffffff" font-family="DejaVu Sans" font-size="8.29" font-weight="700" text-anchor="middle" x="576.55" y="584.54">4</text>
  <text dominant-baseline="alphabetic" fill="#e2e8f0" font-family="DejaVu Sans" font-size="9.95" font-weight="400" text-anchor="middle" x="561.63" y="567.96">top-k results</text>
  <line stroke="#94a3b8" stroke-dasharray="6.63,4.15" stroke-width="1.24" x1="477.07" x2="314.57" y1="637.6" y2="637.6"/>
  <path d="M314.57 634.29 L307.93 637.6 L314.57 640.92" fill="none" stroke="#94a3b8" stroke-linecap="round" stroke-width="1.24"/>
  <circle cx="407.42" cy="637.6" fill="#2563eb" r="9.12"/>
  <text dominant-baseline="middle" fill="#ffffff" font-family="DejaVu Sans" font-size="8.29" font-weight="700" text-anchor="middle" x="407.42" y="637.6">5</text>
  <text dominant-baseline="alphabetic" fill="#e2e8f0" font-family="DejaVu Sans" font-size="9.95" font-weight="400" text-anchor="middle" x="392.5" y="621.02">ranked chunks</text>
  <line stroke="#94a3b8" stroke-dasharray="6.63,4.15" stroke-width="1.24" x1="307.93" x2="145.44" y1="690.66" y2="690.66"/>
  <path d="M145.44 687.35 L138.8 690.66 L145.44 693.98" fill="none" stroke="#94a3b8" stroke-linecap="round" stroke-width="1.24"/>
  <circle cx="238.29" cy="690.66" fill="#2563eb" r="9.12"/>
  <text dominant-baseline="middle" fill="#ffffff" font-family="DejaVu Sans" font-size="8.29" font-weight="700" text-anchor="middle" x="238.29" y="690.66">6</text>
  <text dominant-baseline="alphabetic" fill="#e2e8f0" font-family="DejaVu Sans" font-size="9.95" font-weight="400" text-anchor="middle" x="223.37" y="674.08">200 context</text>
  <rect fill="#161b22" height="573" rx="12" stroke="#30363d" stroke-width="1" width="399" x="777" y="260"/>
  <rect fill="#161b22" height="28" rx="12" width="397" x="778" y="261"/>
  <text dominant-baseline="central" fill="#58a6ff" font-family="Inter, sans-serif" font-size="12" font-weight="600" text-anchor="start" x="798" y="275">Accuracy</text>
  <text dominant-baseline="central" fill="#2dd4bf" font-family="Inter, sans-serif" font-size="48" font-weight="700" text-anchor="middle" x="976.5" y="342">98.7%</text>
  <text dominant-baseline="hanging" fill="#8b949e" font-family="Inter, sans-serif" font-size="13" font-weight="400" text-anchor="middle" x="976.5" y="408">retrieval accuracy on BEIR benchmark</text>
</svg>