<?xml version="1.0" encoding="UTF-8"?>
<svg height="1012" version="1.1" viewBox="0 0 1200 1012" width="1200" xmlns="http://www.w3.org/2000/svg">
  <rect fill="#FFFFFF" height="1012" width="1200" x="0" y="0"/>
  <rect fill="#1F497D" height="60" width="1200" x="0" y="0"/>
  <text dominant-baseline="central" fill="#FFFFFF" font-family="Georgia, serif" font-size="24" font-weight="700" text-anchor="middle" x="600" y="30">Excel Address Demo</text>
  <rect fill="#F8F9FB" height="383" rx="6" stroke="#1F497D" stroke-width="1" width="683" x="24" y="84"/>
  <rect fill="#FFFFFF" height="145" width="568" x="81.5" y="97"/>
  <path d="M241.5 154 L273.5 154 L273.5 154 L298.5 154" fill="none" stroke="#E2E8F0" stroke-width="1.5"/>
  <path d="M425.5 154 L457.5 154 L457.5 154 L482.5 154" fill="none" stroke="#E2E8F0" stroke-width="1.5"/>
  <rect fill="#F8F9FA" height="49" rx="0" stroke="#1F497D" stroke-width="1.5" width="120" x="121.5" y="129"/>
  <text dominant-baseline="central" fill="#1E293B" font-family="Georgia, 'Times New Roman', serif" font-size="12" font-weight="600" text-anchor="middle" x="181.5" y="154">Query</text>
  <rect fill="#F8F9FA" height="49" rx="0" stroke="#1F497D" stroke-width="1.5" width="120" x="305.5" y="129"/>
  <text dominant-baseline="central" fill="#1E293B" font-family="Georgia, 'Times New Roman', serif" font-size="12" font-weight="600" text-anchor="middle" x="365.5" y="154">Retriever</text>
  <rect fill="#F8F9FA" height="49" rx="0" stroke="#1F497D" stroke-width="1.5" width="120" x="489.5" y="129"/>
  <text dominant-baseline="central" fill="#1E293B" font-family="Georgia, 'Times New Roman', serif" font-size="12" font-weight="600" text-anchor="middle" x="549.5" y="154">Generator</text>
  <path d="M305.5 154 L298.5 150 L298.5 158 Z" fill="#64748B" stroke="none" stroke-width="0"/>
  <path d="M489.5 154 L482.5 150 L482.5 158 Z" fill="#64748B" stroke="none" stroke-width="0"/>
  <rect fill="#F8F9FB" height="383" rx="6" stroke="#1F497D" stroke-width="1" width="453" x="723" y="84"/>
  <rect fill="#FFFFFF" height="340.14" width="427" x="736" y="97"/>
  <rect fill="#F8F9FA" height="32.49" rx="2.65" stroke="#1F497D" stroke-width="0.99" width="92.83" x="767.83" y="118.22"/>
  <text dominant-baseline="middle" fill="#1E293B" font-family="Georgia, 'Times New Roman', serif" font-size="9.28" font-weight="700" text-anchor="middle" x="814.24" y="134.79">User</text>
  <line stroke="#E2E8F0" stroke-dasharray="3.98,2.65" stroke-width="0.66" x1="814.24" x2="814.24" y1="150.71" y2="405.32"/>
  <rect fill="#F8F9FA" height="32.49" rx="2.65" stroke="#1F497D" stroke-width="0.99" width="92.83" x="903.09" y="118.22"/>
  <text dominant-baseline="middle" fill="#1E293B" font-family="Georgia, 'Times New Roman', serif" font-size="9.28" font-weight="700" text-anchor="middle" x="949.5" y="134.79">API</text>
  <line stroke="#E2E8F0" stroke-dasharray="3.98,2.65" stroke-width="0.66" x1="949.5" x2="949.5" y1="150.71" y2="405.32"/>
  <rect fill="#F8F9FA" height="32.49" rx="2.65" stroke="#1F497D" stroke-width="0.99" width="92.83" x="1038.35" y="118.22"/>
  <text dominant-baseline="middle" fill="#1E293B" font-family="Georgia, 'Times New Roman', serif" font-size="9.28" font-weight="700" text-anchor="middle" x="1084.76" y="134.79">DB</text>
  <line stroke="#E2E8F0" stroke-dasharray="3.98,2.65" stroke-width="0.66" x1="1084.76" x2="1084.76" y1="150.71" y2="405.32"/>
  <line stroke="#1E293B" stroke-width="0.99" x1="814.24" x2="944.2" y1="182.53" y2="182.53"/>
  <path d="M949.5 182.53 L944.2 179.88 L944.2 185.18 Z" fill="#1E293B" stroke="none" stroke-width="0"/>
  <text dominant-baseline="alphabetic" fill="#1E293B" font-family="Georgia, 'Times New Roman', serif" font-size="7.96" font-weight="400" text-anchor="middle" x="881.87" y="178.55">request</text>
  <line stroke="#1E293B" stroke-width="0.99" x1="949.5" x2="1079.46" y1="230.27" y2="230.27"/>
  <path d="M1084.76 230.27 L1079.46 227.62 L1079.46 232.92 Z" fill="#1E293B" stroke="none" stroke-width="0"/>
  <text dominant-baseline="alphabetic" fill="#1E293B" font-family="Georgia, 'Times New Roman', serif" font-size="7.96" font-weight="400" text-anchor="middle" x="1017.13" y="226.29">lookup</text>
  <line stroke="#1E293B" stroke-dasharray="3.98,2.65" stroke-width="0.99" x1="1084.76" x2="954.8" y1="278.01" y2="278.01"/>
  <path d="M954.8 275.36 L949.5 278.01 L954.8 280.66" fill="none" stroke="#1E293B" stroke-linecap="round" stroke-width="0.99"/>
  <text dominant-baseline="alphabetic" fill="#1E293B" font-family="Georgia, 'Times New Roman', serif" font-size="7.96" font-weight="400" text-anchor="middle" x="1017.13" y="274.03">results</text>
  <line stroke="#1E293B" stroke-dasharray="3.98,2.65" stroke-width="0.99" x1="949.5" x2="819.54" y1="325.75" y2="325.75"/>
  <path d="M819.54 323.1 L814.24 325.75 L819.54 328.4" fill="none" stroke="#1E293B" stroke-linecap="round" stroke-width="0.99"/>
  <text dominant-baseline="alphabetic" fill="#1E293B" font-family="Georgia, 'Times New Roman', serif" font-size="7.96" font-weight="400" text-anchor="middle" x="881.87" y="321.77">response</text>
  <rect fill="#F8F9FB" height="505" rx="6" stroke="#1F497D" stroke-width="1" width="683" x="24" y="483"/>
  <rect fill="#FFFFFF" height="469.29" width="657" x="37" y="496"/>
  <path d="M365.5 730.64 C365.5 758.8 365.5 793.06 365.5 810.42" fill="none" stroke="#1F497D" stroke-linecap="round" stroke-width="1.41"/>
  <path d="M365.5 810.42 C365.5 871.43 421.81 786.96 464.99 830.13" fill="none" stroke="#1F497D" stroke-linecap="round" stroke-width="0.94"/>
  <path d="M365.5 810.42 C365.5 871.43 309.19 786.96 266.01 830.13" fill="none" stroke="#1F497D" stroke-linecap="round" stroke-width="0.94"/>
  <path d="M365.5 730.64 C365.5 702.96 365.5 668.23 365.5 650.86" fill="none" stroke="#2E86AB" stroke-linecap="round" stroke-width="1.41"/>
  <path d="M365.5 650.86 C365.5 589.86 309.19 674.33 266.01 631.15" fill="none" stroke="#2E86AB" stroke-linecap="round" stroke-width="0.94"/>
  <path d="M365.5 650.86 C365.5 589.86 421.81 674.33 464.99 631.15" fill="none" stroke="#2E86AB" stroke-linecap="round" stroke-width="0.94"/>
  <rect fill="#d7dee8" height="15.96" rx="3.75" stroke="#1F497D" stroke-width="0.47" width="31.91" x="449.03" y="822.15"/>
  <text dominant-baseline="central" fill="#142f51" font-family="Georgia, 'Times New Roman', serif" font-size="6.1" font-weight="600" text-anchor="middle" x="464.99" y="830.13">Dense</text>
  <rect fill="#d7dee8" height="15.96" rx="3.75" stroke="#1F497D" stroke-width="0.47" width="31.91" x="250.06" y="822.15"/>
  <text dominant-baseline="central" fill="#142f51" font-family="Georgia, 'Times New Roman', serif" font-size="6.1" font-weight="600" text-anchor="middle" x="266.01" y="830.13">Sparse</text>
  <rect fill="#d7dee8" height="17.36" rx="4.69" stroke="#1F497D" stroke-width="0.47" width="41.3" x="344.85" y="801.97"/>
  <text dominant-baseline="central" fill="#142f51" font-family="Georgia, 'Times New Roman', serif" font-size="6.57" font-weight="700" text-anchor="middle" x="365.5" y="810.42">Retriever</text>
  <rect fill="#d9e9f0" height="15.96" rx="3.75" stroke="#2E86AB" stroke-width="0.47" width="31.91" x="250.06" y="623.18"/>
  <text dominant-baseline="central" fill="#1e576f" font-family="Georgia, 'Times New Roman', serif" font-size="6.1" font-weight="600" text-anchor="middle" x="266.01" y="631.15">LLM</text>
  <rect fill="#d9e9f0" height="15.96" rx="3.75" stroke="#2E86AB" stroke-width="0.47" width="32.85" x="448.56" y="623.18"/>
  <text dominant-baseline="central" fill="#1e576f" font-family="Georgia, 'Times New Roman', serif" font-size="6.1" font-weight="600" text-anchor="middle" x="464.99" y="631.15">Context</text>
  <rect fill="#d9e9f0" height="17.36" rx="4.69" stroke="#2E86AB" stroke-width="0.47" width="44.11" x="343.44" y="642.42"/>
  <text dominant-baseline="central" fill="#1e576f" font-family="Georgia, 'Times New Roman', serif" font-size="6.57" font-weight="700" text-anchor="middle" x="365.5" y="650.86">Generator</text>
  <circle cx="365.5" cy="730.64" fill="#1F497D" r="20.65"/>
  <text dominant-baseline="central" fill="#F8FAFC" font-family="Georgia, 'Times New Roman', serif" font-size="6.1" font-weight="700" text-anchor="middle" x="365.5" y="730.64">RAG</text>
  <rect fill="#F8F9FB" height="505" rx="6" stroke="#1F497D" stroke-width="1" width="453" x="723" y="483"/>
  <rect fill="#FFFFFF" height="278.48" width="427" x="736" y="496"/>
  <text dominant-baseline="alphabetic" fill="#1E293B" font-family="Georgia, 'Times New Roman', serif" font-size="9.28" font-weight="700" text-anchor="middle" x="949.5" y="520.13">Retrieval Accuracy</text>
  <line opacity="0.9" stroke="#E2E8F0" stroke-dasharray="1.86,1.86" stroke-width="0.46" x1="787.98" x2="1138.87" y1="726.21" y2="726.21"/>
  <line opacity="0.9" stroke="#E2E8F0" stroke-dasharray="1.86,1.86" stroke-width="0.46" x1="787.98" x2="1138.87" y1="688.15" y2="688.15"/>
  <line opacity="0.9" stroke="#E2E8F0" stroke-dasharray="1.86,1.86" stroke-width="0.46" x1="787.98" x2="1138.87" y1="650.09" y2="650.09"/>
  <line opacity="0.9" stroke="#E2E8F0" stroke-dasharray="1.86,1.86" stroke-width="0.46" x1="787.98" x2="1138.87" y1="612.03" y2="612.03"/>
  <line opacity="0.9" stroke="#E2E8F0" stroke-dasharray="1.86,1.86" stroke-width="0.46" x1="787.98" x2="1138.87" y1="573.97" y2="573.97"/>
  <line opacity="0.9" stroke="#E2E8F0" stroke-dasharray="1.86,1.86" stroke-width="0.46" x1="787.98" x2="1138.87" y1="535.92" y2="535.92"/>
  <rect fill="#1F497D" height="137.01" rx="1.39" stroke="#FFFFFF" stroke-width="0.46" width="71.93" x="795.88" y="589.2"/>
  <rect fill="#1F497D" height="154.14" rx="1.39" stroke="#FFFFFF" stroke-width="0.46" width="71.93" x="883.6" y="572.07"/>
  <rect fill="#1F497D" height="163.65" rx="1.39" stroke="#FFFFFF" stroke-width="0.46" width="71.93" x="971.32" y="562.56"/>
  <rect fill="#1F497D" height="173.17" rx="1.39" stroke="#FFFFFF" stroke-width="0.46" width="71.93" x="1059.04" y="553.04"/>
  <line stroke="#1E293B" stroke-width="0.7" x1="787.98" x2="1138.87" y1="726.21" y2="726.21"/>
  <line stroke="#1E293B" stroke-width="0.7" x1="831.84" x2="831.84" y1="726.21" y2="728.99"/>
  <text dominant-baseline="alphabetic" fill="#64748B" font-family="Georgia, 'Times New Roman', serif" font-size="4.64" font-weight="400" text-anchor="middle" x="831.84" y="735.49">k=1</text>
  <line stroke="#1E293B" stroke-width="0.7" x1="919.56" x2="919.56" y1="726.21" y2="728.99"/>
  <text dominant-baseline="alphabetic" fill="#64748B" font-family="Georgia, 'Times New Roman', serif" font-size="4.64" font-weight="400" text-anchor="middle" x="919.56" y="735.49">k=3</text>
  <line stroke="#1E293B" stroke-width="0.7" x1="1007.28" x2="1007.28" y1="726.21" y2="728.99"/>
  <text dominant-baseline="alphabetic" fill="#64748B" font-family="Georgia, 'Times New Roman', serif" font-size="4.64" font-weight="400" text-anchor="middle" x="1007.28" y="735.49">k=5</text>
  <line stroke="#1E293B" stroke-width="0.7" x1="1095" x2="1095" y1="726.21" y2="728.99"/>
  <text dominant-baseline="alphabetic" fill="#64748B" font-family="Georgia, 'Times New Roman', serif" font-size="4.64" font-weight="400" text-anchor="middle" x="1095" y="735.49">k=10</text>
  <line stroke="#1E293B" stroke-width="0.7" x1="787.98" x2="787.98" y1="535.92" y2="726.21"/>
  <line stroke="#1E293B" stroke-width="0.7" x1="785.2" x2="787.98" y1="726.21" y2="726.21"/>
  <text dominant-baseline="middle" fill="#64748B" font-family="Georgia, 'Times New Roman', serif" font-size="4.64" font-weight="400" text-anchor="end" x="782.41" y="726.21">0</text>
  <line stroke="#1E293B" stroke-width="0.7" x1="785.2" x2="787.98" y1="688.15" y2="688.15"/>
  <text dominant-baseline="middle" fill="#64748B" font-family="Georgia, 'Times New Roman', serif" font-size="4.64" font-weight="400" text-anchor="end" x="782.41" y="688.15">20</text>
  <line stroke="#1E293B" stroke-width="0.7" x1="785.2" x2="787.98" y1="650.09" y2="650.09"/>
  <text dominant-baseline="middle" fill="#64748B" font-family="Georgia, 'Times New Roman', serif" font-size="4.64" font-weight="400" text-anchor="end" x="782.41" y="650.09">40</text>
  <line stroke="#1E293B" stroke-width="0.7" x1="785.2" x2="787.98" y1="612.03" y2="612.03"/>
  <text dominant-baseline="middle" fill="#64748B" font-family="Georgia, 'Times New Roman', serif" font-size="4.64" font-weight="400" text-anchor="end" x="782.41" y="612.03">60</text>
  <line stroke="#1E293B" stroke-width="0.7" x1="785.2" x2="787.98" y1="573.97" y2="573.97"/>
  <text dominant-baseline="middle" fill="#64748B" font-family="Georgia, 'Times New Roman', serif" font-size="4.64" font-weight="400" text-anchor="end" x="782.41" y="573.97">80</text>
  <line stroke="#1E293B" stroke-width="0.7" x1="785.2" x2="787.98" y1="535.92" y2="535.92"/>
  <text dominant-baseline="middle" fill="#64748B" font-family="Georgia, 'Times New Roman', serif" font-size="4.64" font-weight="400" text-anchor="end" x="782.41" y="535.92">100</text>
  <text dominant-baseline="alphabetic" fill="#1E293B" font-family="Georgia, 'Times New Roman', serif" font-size="5.57" font-weight="600" text-anchor="start" x="787.98" y="531.27">Recall %</text>
</svg>