<?xml version="1.0" encoding="UTF-8"?>
<svg height="1008" version="1.1" viewBox="0 0 1200 1008" width="1200" xmlns="http://www.w3.org/2000/svg">
  <rect fill="#0A0E1A" height="1008" width="1200" x="0" y="0"/>
  <rect fill="#1E1B4B" height="56" width="1200" x="0" y="0"/>
  <text dominant-baseline="central" fill="#E0E7FF" font-family="Inter, sans-serif" font-size="22" font-weight="700" text-anchor="middle" x="600" y="28">RAG Architecture — Night Mode</text>
  <rect fill="#111827" height="383" rx="8" stroke="#6366F1" stroke-width="1" width="683" x="24" y="80"/>
  <rect fill="#0F1620" height="145" width="568" x="81.5" y="93"/>
  <path d="M241.5 150 C262.5 150 284.5 150 298.5 150" fill="none" stroke="#1E2D40" stroke-width="1.5"/>
  <path d="M425.5 150 C446.5 150 468.5 150 482.5 150" fill="none" stroke="#1E2D40" stroke-width="1.5"/>
  <rect fill="#1A2535" height="49" rx="0" stroke="#00D4FF" stroke-width="1.5" width="120" x="121.5" y="125"/>
  <text dominant-baseline="central" fill="#E2E8F0" font-family="Inter, system-ui, -apple-system, 'Segoe UI', sans-serif" font-size="12" font-weight="600" text-anchor="middle" x="181.5" y="150">Query</text>
  <rect fill="#1A2535" height="49" rx="0" stroke="#00D4FF" stroke-width="1.5" width="120" x="305.5" y="125"/>
  <text dominant-baseline="central" fill="#E2E8F0" font-family="Inter, system-ui, -apple-system, 'Segoe UI', sans-serif" font-size="12" font-weight="600" text-anchor="middle" x="365.5" y="150">Retriever</text>
  <rect fill="#1A2535" height="49" rx="0" stroke="#00D4FF" stroke-width="1.5" width="120" x="489.5" y="125"/>
  <text dominant-baseline="central" fill="#E2E8F0" font-family="Inter, system-ui, -apple-system, 'Segoe UI', sans-serif" font-size="12" font-weight="600" text-anchor="middle" x="549.5" y="150">Generator</text>
  <path d="M305.5 150 L298.5 146 L298.5 154 Z" fill="#64748B" stroke="none" stroke-width="0"/>
  <path d="M489.5 150 L482.5 146 L482.5 154 Z" fill="#64748B" stroke="none" stroke-width="0"/>
  <rect fill="#111827" height="383" rx="8" stroke="#6366F1" stroke-width="1" width="453" x="723" y="80"/>
  <rect fill="#0F1620" height="340.14" width="427" x="736" y="93"/>
  <rect fill="#1A2535" height="32.49" rx="3.98" stroke="#00D4FF" stroke-width="0.99" width="92.83" x="767.83" y="114.22"/>
  <text dominant-baseline="middle" fill="#E2E8F0" font-family="Inter, system-ui, -apple-system, 'Segoe UI', sans-serif" font-size="9.28" font-weight="700" text-anchor="middle" x="814.24" y="130.79">User</text>
  <line stroke="#1E2D40" stroke-dasharray="3.98,2.65" stroke-width="0.66" x1="814.24" x2="814.24" y1="146.71" y2="401.32"/>
  <rect fill="#1A2535" height="32.49" rx="3.98" stroke="#00D4FF" stroke-width="0.99" width="92.83" x="903.09" y="114.22"/>
  <text dominant-baseline="middle" fill="#E2E8F0" font-family="Inter, system-ui, -apple-system, 'Segoe UI', sans-serif" font-size="9.28" font-weight="700" text-anchor="middle" x="949.5" y="130.79">API</text>
  <line stroke="#1E2D40" stroke-dasharray="3.98,2.65" stroke-width="0.66" x1="949.5" x2="949.5" y1="146.71" y2="401.32"/>
  <rect fill="#1A2535" height="32.49" rx="3.98" stroke="#00D4FF" stroke-width="0.99" width="92.83" x="1038.35" y="114.22"/>
  <text dominant-baseline="middle" fill="#E2E8F0" font-family="Inter, system-ui, -apple-system, 'Segoe UI', sans-serif" font-size="9.28" font-weight="700" text-anchor="middle" x="1084.76" y="130.79">DB</text>
  <line stroke="#1E2D40" stroke-dasharray="3.98,2.65" stroke-width="0.66" x1="1084.76" x2="1084.76" y1="146.71" y2="401.32"/>
  <line stroke="#E2E8F0" stroke-width="0.99" x1="814.24" x2="944.2" y1="178.53" y2="178.53"/>
  <path d="M949.5 178.53 L944.2 175.88 L944.2 181.18 Z" fill="#E2E8F0" stroke="none" stroke-width="0"/>
  <text dominant-baseline="alphabetic" fill="#E2E8F0" font-family="Inter, system-ui, -apple-system, 'Segoe UI', sans-serif" font-size="7.96" font-weight="400" text-anchor="middle" x="881.87" y="174.55">request</text>
  <line stroke="#E2E8F0" stroke-width="0.99" x1="949.5" x2="1079.46" y1="226.27" y2="226.27"/>
  <path d="M1084.76 226.27 L1079.46 223.62 L1079.46 228.92 Z" fill="#E2E8F0" stroke="none" stroke-width="0"/>
  <text dominant-baseline="alphabetic" fill="#E2E8F0" font-family="Inter, system-ui, -apple-system, 'Segoe UI', sans-serif" font-size="7.96" font-weight="400" text-anchor="middle" x="1017.13" y="222.29">lookup</text>
  <line stroke="#E2E8F0" stroke-dasharray="3.98,2.65" stroke-width="0.99" x1="1084.76" x2="954.8" y1="274.01" y2="274.01"/>
  <path d="M954.8 271.36 L949.5 274.01 L954.8 276.66" fill="none" stroke="#E2E8F0" stroke-linecap="round" stroke-width="0.99"/>
  <text dominant-baseline="alphabetic" fill="#E2E8F0" font-family="Inter, system-ui, -apple-system, 'Segoe UI', sans-serif" font-size="7.96" font-weight="400" text-anchor="middle" x="1017.13" y="270.03">results</text>
  <line stroke="#E2E8F0" stroke-dasharray="3.98,2.65" stroke-width="0.99" x1="949.5" x2="819.54" y1="321.75" y2="321.75"/>
  <path d="M819.54 319.1 L814.24 321.75 L819.54 324.4" fill="none" stroke="#E2E8F0" stroke-linecap="round" stroke-width="0.99"/>
  <text dominant-baseline="alphabetic" fill="#E2E8F0" font-family="Inter, system-ui, -apple-system, 'Segoe UI', sans-serif" font-size="7.96" font-weight="400" text-anchor="middle" x="881.87" y="317.77">response</text>
  <rect fill="#111827" height="505" rx="8" stroke="#6366F1" stroke-width="1" width="683" x="24" y="479"/>
  <rect fill="#0F1620" height="469.29" width="657" x="37" y="492"/>
  <path d="M365.5 726.64 C365.5 754.8 365.5 789.06 365.5 806.42" fill="none" stroke="#00D4FF" stroke-linecap="round" stroke-width="1.41"/>
  <path d="M365.5 806.42 C365.5 867.43 421.81 782.96 464.99 826.13" fill="none" stroke="#00D4FF" stroke-linecap="round" stroke-width="0.94"/>
  <path d="M365.5 806.42 C365.5 867.43 309.19 782.96 266.01 826.13" fill="none" stroke="#00D4FF" stroke-linecap="round" stroke-width="0.94"/>
  <path d="M365.5 726.64 C365.5 698.96 365.5 664.23 365.5 646.86" fill="none" stroke="#F59E0B" stroke-linecap="round" stroke-width="1.41"/>
  <path d="M365.5 646.86 C365.5 585.86 309.19 670.33 266.01 627.15" fill="none" stroke="#F59E0B" stroke-linecap="round" stroke-width="0.94"/>
  <path d="M365.5 646.86 C365.5 585.86 421.81 670.33 464.99 627.15" fill="none" stroke="#F59E0B" stroke-linecap="round" stroke-width="0.94"/>
  <rect fill="#d1f7ff" height="15.96" rx="3.75" stroke="#00D4FF" stroke-width="0.47" width="31.91" x="449.03" y="818.15"/>
  <text dominant-baseline="central" fill="#008aa6" font-family="Inter, system-ui, -apple-system, 'Segoe UI', sans-serif" font-size="6.1" font-weight="600" text-anchor="middle" x="464.99" y="826.13">Dense</text>
  <rect fill="#d1f7ff" height="15.96" rx="3.75" stroke="#00D4FF" stroke-width="0.47" width="31.91" x="250.06" y="818.15"/>
  <text dominant-baseline="central" fill="#008aa6" font-family="Inter, system-ui, -apple-system, 'Segoe UI', sans-serif" font-size="6.1" font-weight="600" text-anchor="middle" x="266.01" y="826.13">Sparse</text>
  <rect fill="#d1f7ff" height="17.36" rx="4.69" stroke="#00D4FF" stroke-width="0.47" width="41.3" x="344.85" y="797.97"/>
  <text dominant-baseline="central" fill="#008aa6" font-family="Inter, system-ui, -apple-system, 'Segoe UI', sans-serif" font-size="6.57" font-weight="700" text-anchor="middle" x="365.5" y="806.42">Retriever</text>
  <rect fill="#fdeed3" height="15.96" rx="3.75" stroke="#F59E0B" stroke-width="0.47" width="31.91" x="250.06" y="619.18"/>
  <text dominant-baseline="central" fill="#9f6707" font-family="Inter, system-ui, -apple-system, 'Segoe UI', sans-serif" font-size="6.1" font-weight="600" text-anchor="middle" x="266.01" y="627.15">LLM</text>
  <rect fill="#fdeed3" height="15.96" rx="3.75" stroke="#F59E0B" stroke-width="0.47" width="32.85" x="448.56" y="619.18"/>
  <text dominant-baseline="central" fill="#9f6707" font-family="Inter, system-ui, -apple-system, 'Segoe UI', sans-serif" font-size="6.1" font-weight="600" text-anchor="middle" x="464.99" y="627.15">Context</text>
  <rect fill="#fdeed3" height="17.36" rx="4.69" stroke="#F59E0B" stroke-width="0.47" width="44.11" x="343.44" y="638.42"/>
  <text dominant-baseline="central" fill="#9f6707" font-family="Inter, system-ui, -apple-system, 'Segoe UI', sans-serif" font-size="6.57" font-weight="700" text-anchor="middle" x="365.5" y="646.86">Generator</text>
  <circle cx="365.5" cy="726.64" fill="#00D4FF" r="20.65"/>
  <text dominant-baseline="central" fill="#0F1620" font-family="Inter, system-ui, -apple-system, 'Segoe UI', sans-serif" font-size="6.1" font-weight="700" text-anchor="middle" x="365.5" y="726.64">RAG</text>
  <rect fill="#111827" height="505" rx="8" stroke="#6366F1" stroke-width="1" width="453" x="723" y="479"/>
  <rect fill="#0F1620" height="278.48" width="427" x="736" y="492"/>
  <text dominant-baseline="alphabetic" fill="#E2E8F0" font-family="Inter, system-ui, -apple-system, 'Segoe UI', sans-serif" font-size="9.28" font-weight="700" text-anchor="middle" x="949.5" y="516.13">Retrieval Accuracy</text>
  <line opacity="0.9" stroke="#1E2D40" stroke-dasharray="1.86,1.86" stroke-width="0.46" x1="787.98" x2="1138.87" y1="722.21" y2="722.21"/>
  <line opacity="0.9" stroke="#1E2D40" stroke-dasharray="1.86,1.86" stroke-width="0.46" x1="787.98" x2="1138.87" y1="684.15" y2="684.15"/>
  <line opacity="0.9" stroke="#1E2D40" stroke-dasharray="1.86,1.86" stroke-width="0.46" x1="787.98" x2="1138.87" y1="646.09" y2="646.09"/>
  <line opacity="0.9" stroke="#1E2D40" stroke-dasharray="1.86,1.86" stroke-width="0.46" x1="787.98" x2="1138.87" y1="608.03" y2="608.03"/>
  <line opacity="0.9" stroke="#1E2D40" stroke-dasharray="1.86,1.86" stroke-width="0.46" x1="787.98" x2="1138.87" y1="569.97" y2="569.97"/>
  <line opacity="0.9" stroke="#1E2D40" stroke-dasharray="1.86,1.86" stroke-width="0.46" x1="787.98" x2="1138.87" y1="531.92" y2="531.92"/>
  <rect fill="#00D4FF" height="137.01" rx="1.39" stroke="#0F1620" stroke-width="0.46" width="71.93" x="795.88" y="585.2"/>
  <rect fill="#00D4FF" height="154.14" rx="1.39" stroke="#0F1620" stroke-width="0.46" width="71.93" x="883.6" y="568.07"/>
  <rect fill="#00D4FF" height="163.65" rx="1.39" stroke="#0F1620" stroke-width="0.46" width="71.93" x="971.32" y="558.56"/>
  <rect fill="#00D4FF" height="173.17" rx="1.39" stroke="#0F1620" stroke-width="0.46" width="71.93" x="1059.04" y="549.04"/>
  <line stroke="#E2E8F0" stroke-width="0.7" x1="787.98" x2="1138.87" y1="722.21" y2="722.21"/>
  <line stroke="#E2E8F0" stroke-width="0.7" x1="831.84" x2="831.84" y1="722.21" y2="724.99"/>
  <text dominant-baseline="alphabetic" fill="#64748B" font-family="Inter, system-ui, -apple-system, 'Segoe UI', sans-serif" font-size="4.64" font-weight="400" text-anchor="middle" x="831.84" y="731.49">k=1</text>
  <line stroke="#E2E8F0" stroke-width="0.7" x1="919.56" x2="919.56" y1="722.21" y2="724.99"/>
  <text dominant-baseline="alphabetic" fill="#64748B" font-family="Inter, system-ui, -apple-system, 'Segoe UI', sans-serif" font-size="4.64" font-weight="400" text-anchor="middle" x="919.56" y="731.49">k=3</text>
  <line stroke="#E2E8F0" stroke-width="0.7" x1="1007.28" x2="1007.28" y1="722.21" y2="724.99"/>
  <text dominant-baseline="alphabetic" fill="#64748B" font-family="Inter, system-ui, -apple-system, 'Segoe UI', sans-serif" font-size="4.64" font-weight="400" text-anchor="middle" x="1007.28" y="731.49">k=5</text>
  <line stroke="#E2E8F0" stroke-width="0.7" x1="1095" x2="1095" y1="722.21" y2="724.99"/>
  <text dominant-baseline="alphabetic" fill="#64748B" font-family="Inter, system-ui, -apple-system, 'Segoe UI', sans-serif" font-size="4.64" font-weight="400" text-anchor="middle" x="1095" y="731.49">k=10</text>
  <line stroke="#E2E8F0" stroke-width="0.7" x1="787.98" x2="787.98" y1="531.92" y2="722.21"/>
  <line stroke="#E2E8F0" stroke-width="0.7" x1="785.2" x2="787.98" y1="722.21" y2="722.21"/>
  <text dominant-baseline="middle" fill="#64748B" font-family="Inter, system-ui, -apple-system, 'Segoe UI', sans-serif" font-size="4.64" font-weight="400" text-anchor="end" x="782.41" y="722.21">0</text>
  <line stroke="#E2E8F0" stroke-width="0.7" x1="785.2" x2="787.98" y1="684.15" y2="684.15"/>
  <text dominant-baseline="middle" fill="#64748B" font-family="Inter, system-ui, -apple-system, 'Segoe UI', sans-serif" font-size="4.64" font-weight="400" text-anchor="end" x="782.41" y="684.15">20</text>
  <line stroke="#E2E8F0" stroke-width="0.7" x1="785.2" x2="787.98" y1="646.09" y2="646.09"/>
  <text dominant-baseline="middle" fill="#64748B" font-family="Inter, system-ui, -apple-system, 'Segoe UI', sans-serif" font-size="4.64" font-weight="400" text-anchor="end" x="782.41" y="646.09">40</text>
  <line stroke="#E2E8F0" stroke-width="0.7" x1="785.2" x2="787.98" y1="608.03" y2="608.03"/>
  <text dominant-baseline="middle" fill="#64748B" font-family="Inter, system-ui, -apple-system, 'Segoe UI', sans-serif" font-size="4.64" font-weight="400" text-anchor="end" x="782.41" y="608.03">60</text>
  <line stroke="#E2E8F0" stroke-width="0.7" x1="785.2" x2="787.98" y1="569.97" y2="569.97"/>
  <text dominant-baseline="middle" fill="#64748B" font-family="Inter, system-ui, -apple-system, 'Segoe UI', sans-serif" font-size="4.64" font-weight="400" text-anchor="end" x="782.41" y="569.97">80</text>
  <line stroke="#E2E8F0" stroke-width="0.7" x1="785.2" x2="787.98" y1="531.92" y2="531.92"/>
  <text dominant-baseline="middle" fill="#64748B" font-family="Inter, system-ui, -apple-system, 'Segoe UI', sans-serif" font-size="4.64" font-weight="400" text-anchor="end" x="782.41" y="531.92">100</text>
  <text dominant-baseline="alphabetic" fill="#E2E8F0" font-family="Inter, system-ui, -apple-system, 'Segoe UI', sans-serif" font-size="5.57" font-weight="600" text-anchor="start" x="787.98" y="527.27">Recall %</text>
</svg>