<?xml version="1.0" encoding="UTF-8"?>
<svg height="569" version="1.1" viewBox="0 0 1200 569" width="1200" xmlns="http://www.w3.org/2000/svg">
  <rect fill="#FFFFFF" height="519" width="1200" x="0" y="0"/>
  <rect fill="#1F497D" height="60" width="1200" x="0" y="0"/>
  <text dominant-baseline="central" fill="#FFFFFF" font-family="Georgia, serif" font-size="24" font-weight="700" text-anchor="middle" x="600" y="30">Authentication System — Requirements Traceability</text>
  <rect fill="#F8F9FB" height="411" rx="6" stroke="#1F497D" stroke-width="1" width="447" x="24" y="84"/>
  <rect fill="#FFFFFF" height="160.18" width="421" x="37" y="209.41"/>
  <path d="M207.81 278.87 L239.7 278.87 L239.7 249.81 L265.93 249.81" fill="none" stroke="#E2E8F0" stroke-width="1.06"/>
  <path d="M207.81 278.87 L240.41 278.87 L240.41 307.22 L268.05 307.22" fill="none" stroke="#E2E8F0" stroke-width="1.06"/>
  <rect fill="#F8F9FA" height="34.73" rx="0" stroke="#1F497D" stroke-width="1.06" width="124.74" x="83.07" y="261.15"/>
  <text dominant-baseline="central" fill="#1E293B" font-family="Georgia, 'Times New Roman', serif" font-size="8.51" font-weight="600" text-anchor="middle" x="145.44" y="278.87">Spec §4.2: Auth NFRs</text>
  <rect fill="#F8F9FA" height="34.73" rx="0" stroke="#1F497D" stroke-width="1.06" width="159.47" x="270.89" y="232.09"/>
  <text dominant-baseline="central" fill="#1E293B" font-family="Georgia, 'Times New Roman', serif" font-size="8.51" font-weight="600" text-anchor="middle" x="350.27" y="249.81">REQ-12: Authenticate &lt; 500ms</text>
  <rect fill="#F8F9FA" height="34.73" rx="0" stroke="#1F497D" stroke-width="1.06" width="154.51" x="273.02" y="289.5"/>
  <text dominant-baseline="central" fill="#1E293B" font-family="Georgia, 'Times New Roman', serif" font-size="8.51" font-weight="600" text-anchor="middle" x="350.27" y="307.22">REQ-13: Token expires in 24h</text>
  <path d="M270.89 249.81 L265.93 246.97 L265.93 252.64 Z" fill="#64748B" stroke="none" stroke-width="0"/>
  <path d="M273.02 307.22 L268.05 304.38 L268.05 310.05 Z" fill="#64748B" stroke="none" stroke-width="0"/>
  <rect fill="#F8F9FB" height="411" rx="6" stroke="#1F497D" stroke-width="1" width="343" x="833" y="84"/>
  <rect fill="#FFFFFF" height="159.2" width="317" x="846" y="209.9"/>
  <path d="M972.8 278.93 L1000.27 278.93 L1000.27 250.05 L1022.82 250.05" fill="none" stroke="#E2E8F0" stroke-width="1.06"/>
  <path d="M972.8 278.93 L1000.27 278.93 L1000.27 307.11 L1022.82 307.11" fill="none" stroke="#E2E8F0" stroke-width="1.06"/>
  <rect fill="#F8F9FA" height="34.52" rx="0" stroke="#1F497D" stroke-width="1.06" width="88.76" x="884.04" y="261.32"/>
  <text dominant-baseline="central" fill="#1E293B" font-family="Georgia, 'Times New Roman', serif" font-size="8.45" font-weight="600" text-anchor="middle" x="928.42" y="278.93">CI auth-suite</text>
  <rect fill="#F8F9FA" height="34.52" rx="0" stroke="#1F497D" stroke-width="1.06" width="107.78" x="1027.75" y="232.44"/>
  <text dominant-baseline="central" fill="#1E293B" font-family="Georgia, 'Times New Roman', serif" font-size="8.45" font-weight="600" text-anchor="middle" x="1081.28" y="250.05">auth_latency_test</text>
  <rect fill="#F8F9FA" height="34.52" rx="0" stroke="#1F497D" stroke-width="1.06" width="107.78" x="1027.75" y="289.5"/>
  <text dominant-baseline="central" fill="#1E293B" font-family="Georgia, 'Times New Roman', serif" font-size="8.45" font-weight="600" text-anchor="middle" x="1081.28" y="307.11">token_expiry_test</text>
  <path d="M1027.75 250.05 L1022.82 247.23 L1022.82 252.87 Z" fill="#64748B" stroke="none" stroke-width="0"/>
  <path d="M1027.75 307.11 L1022.82 304.29 L1022.82 309.93 Z" fill="#64748B" stroke="none" stroke-width="0"/>
  <rect fill="#F8F9FB" height="411" rx="6" stroke="#1F497D" stroke-width="1" width="218" x="543" y="84"/>
  <line stroke="#94A3B8" stroke-width="1.04" x1="652" x2="652" y1="218.54" y2="243.59"/>
  <line stroke="#94A3B8" stroke-width="1.04" x1="652" x2="652" y1="327.07" y2="352.11"/>
  <rect fill="#F8F9FA" height="75.13" rx="2.78" stroke="#E2E8F0" stroke-width="0.7" width="125.22" x="589.39" y="143.41"/>
  <rect fill="#F1F5F9" height="32" rx="2.78" stroke="#1F497D" stroke-width="1.04" width="125.22" x="589.39" y="143.41"/>
  <line stroke="#E2E8F0" stroke-width="0.7" x1="589.39" x2="714.61" y1="175.41" y2="175.41"/>
  <text dominant-baseline="alphabetic" fill="#0D2B4E" font-family="Georgia, 'Times New Roman', serif" font-size="9.74" font-weight="700" text-anchor="middle" x="652" y="160.8">AuthController</text>
  <text dominant-baseline="alphabetic" fill="#1E293B" font-family="Georgia, 'Times New Roman', serif" font-size="8.35" font-weight="500" text-anchor="start" x="601.91" y="190.72">+login(cred): : Token</text>
  <text dominant-baseline="alphabetic" fill="#1E293B" font-family="Georgia, 'Times New Roman', serif" font-size="8.35" font-weight="500" text-anchor="start" x="601.91" y="203.93">+validate(tok): : bool</text>
  <rect fill="#F8F9FA" height="75.13" rx="2.78" stroke="#E2E8F0" stroke-width="0.7" width="125.22" x="589.39" y="251.93"/>
  <rect fill="#F1F5F9" height="32" rx="2.78" stroke="#1F497D" stroke-width="1.04" width="125.22" x="589.39" y="251.93"/>
  <line stroke="#E2E8F0" stroke-width="0.7" x1="589.39" x2="714.61" y1="283.93" y2="283.93"/>
  <text dominant-baseline="alphabetic" fill="#0D2B4E" font-family="Georgia, 'Times New Roman', serif" font-size="9.74" font-weight="700" text-anchor="middle" x="652" y="269.33">TokenService</text>
  <text dominant-baseline="alphabetic" fill="#1E293B" font-family="Georgia, 'Times New Roman', serif" font-size="8.35" font-weight="500" text-anchor="start" x="601.91" y="299.24">+issue(uid): : Token</text>
  <text dominant-baseline="alphabetic" fill="#1E293B" font-family="Georgia, 'Times New Roman', serif" font-size="8.35" font-weight="500" text-anchor="start" x="601.91" y="312.46">+revoke(tok): : void</text>
  <rect fill="#F8F9FA" height="75.13" rx="2.78" stroke="#E2E8F0" stroke-width="0.7" width="125.22" x="589.39" y="360.46"/>
  <rect fill="#F1F5F9" height="32" rx="2.78" stroke="#1F497D" stroke-width="1.04" width="125.22" x="589.39" y="360.46"/>
  <line stroke="#E2E8F0" stroke-width="0.7" x1="589.39" x2="714.61" y1="392.46" y2="392.46"/>
  <text dominant-baseline="alphabetic" fill="#0D2B4E" font-family="Georgia, 'Times New Roman', serif" font-size="9.74" font-weight="700" text-anchor="middle" x="652" y="377.85">SessionCache</text>
  <text dominant-baseline="alphabetic" fill="#1E293B" font-family="Georgia, 'Times New Roman', serif" font-size="8.35" font-weight="500" text-anchor="start" x="601.91" y="407.76">+store(tok, ttl): : void</text>
  <text dominant-baseline="alphabetic" fill="#1E293B" font-family="Georgia, 'Times New Roman', serif" font-size="8.35" font-weight="500" text-anchor="start" x="601.91" y="420.98">+lookup(tok): : Session</text>
  <path d="M647.13 243.59 L652 251.93 L656.87 243.59" fill="none" stroke="#94A3B8" stroke-linecap="round" stroke-width="1.04"/>
  <path d="M647.13 352.11 L652 360.46 L656.87 352.11" fill="none" stroke="#94A3B8" stroke-linecap="round" stroke-width="1.04"/>
  <text dominant-baseline="middle" fill="#64748B" font-family="Georgia, 'Times New Roman', serif" font-size="6.96" font-weight="500" text-anchor="middle" x="658.96" y="235.24">issues</text>
  <text dominant-baseline="middle" fill="#64748B" font-family="Georgia, 'Times New Roman', serif" font-size="6.96" font-weight="500" text-anchor="middle" x="658.96" y="343.76">stores</text>
  <path d="M 430.36 249.46 L 589.39 180.98" fill="none" opacity="0.95" stroke="#1F497D" stroke-linecap="round" stroke-width="2"/>
  <path d="M 589.39 180.98 L 582.71 188.21 L 579.54 180.86 Z" fill="#1F497D" stroke="none" stroke-width="0"/>
  <path d="M 714.61 180.98 L 1027.75 249.70" fill="none" opacity="0.95" stroke="#1F497D" stroke-linecap="round" stroke-width="2"/>
  <path d="M 1027.75 249.70 L 1018.10 251.68 L 1019.81 243.86 Z" fill="#1F497D" stroke="none" stroke-width="0"/>
  <path d="M 427.52 306.86 L 589.39 289.50" fill="none" opacity="0.95" stroke="#2E86AB" stroke-linecap="round" stroke-width="2"/>
  <path d="M 589.39 289.50 L 580.87 294.44 L 580.02 286.48 Z" fill="#2E86AB" stroke="none" stroke-width="0"/>
  <path d="M 714.61 289.50 L 1027.75 306.76" fill="none" opacity="0.95" stroke="#2E86AB" stroke-linecap="round" stroke-width="2"/>
  <path d="M 1027.75 306.76 L 1018.54 310.26 L 1018.98 302.27 Z" fill="#2E86AB" stroke="none" stroke-width="0"/>
  <rect fill="#FFFFFF" height="50" rx="0" stroke="#1F497D" stroke-width="1" width="1200" x="0" y="519"/>
  <line opacity="0.5" stroke="#1F497D" stroke-width="1" x1="0" x2="1200" y1="519" y2="519"/>
  <text dominant-baseline="central" fill="#333333" font-family="Georgia, serif" font-size="12" font-weight="600" text-anchor="start" x="18" y="544">Traces:</text>
  <rect fill="#1F497D" height="12" rx="2" width="18" x="79.6" y="538"/>
  <text dominant-baseline="central" fill="#333333" font-family="Georgia, serif" font-size="12" font-weight="400" text-anchor="start" x="103.6" y="544">REQ-12</text>
  <rect fill="#9aadc5" height="20" rx="4" stroke="#1F497D" stroke-width="1" width="78" x="155.36" y="534"/>
  <text dominant-baseline="central" fill="#1F497D" font-family="Georgia, serif" font-size="10" font-weight="400" text-anchor="middle" x="194.36" y="544">«satisfies»</text>
  <rect fill="#2E86AB" height="12" rx="2" width="18" x="253.36" y="538"/>
  <text dominant-baseline="central" fill="#333333" font-family="Georgia, serif" font-size="12" font-weight="400" text-anchor="start" x="277.36" y="544">REQ-13</text>
  <rect fill="#a1c9d9" height="20" rx="4" stroke="#2E86AB" stroke-width="1" width="78" x="329.12" y="534"/>
  <text dominant-baseline="central" fill="#2E86AB" font-family="Georgia, serif" font-size="10" font-weight="400" text-anchor="middle" x="368.12" y="544">«satisfies»</text>
</svg>