<?xml version="1.0" encoding="UTF-8"?>
<svg height="366" version="1.1" viewBox="0 0 1200 366" width="1200" xmlns="http://www.w3.org/2000/svg">
  <rect fill="#FFFFFF" height="366" width="1200" x="0" y="0"/>
  <rect fill="#1F497D" height="60" width="1200" x="0" y="0"/>
  <text dominant-baseline="central" fill="#FFFFFF" font-family="Georgia, serif" font-size="24" font-weight="700" text-anchor="middle" x="600" y="30">Order Processing — Cross-Diagram Links Demo</text>
  <rect fill="#F8F9FB" height="258" rx="6" stroke="#1F497D" stroke-width="1" width="566" x="24" y="84"/>
  <rect fill="#FFFFFF" height="200.07" width="540" x="37" y="112.97"/>
  <path d="M191.03 199.72 L222.9 199.72 L222.9 199.72 L247.69 199.72" fill="none" stroke="#E2E8F0" stroke-width="1.33"/>
  <path d="M360.11 199.72 L394.64 199.72 L394.64 163.43 L422.97 163.43" fill="none" stroke="#E2E8F0" stroke-width="1.33"/>
  <path d="M360.11 199.72 L394.64 199.72 L394.64 235.13 L422.97 235.13" fill="none" stroke="#E2E8F0" stroke-width="1.33"/>
  <rect fill="#F8F9FA" height="43.38" rx="0" stroke="#1F497D" stroke-width="1.33" width="118.62" x="72.41" y="177.59"/>
  <text dominant-baseline="central" fill="#1E293B" font-family="Georgia, 'Times New Roman', serif" font-size="10.62" font-weight="600" text-anchor="middle" x="131.72" y="199.72">Receive Order</text>
  <rect fill="#F8F9FA" height="43.38" rx="0" stroke="#1F497D" stroke-width="1.33" width="106.23" x="253.89" y="177.59"/>
  <text dominant-baseline="central" fill="#1E293B" font-family="Georgia, 'Times New Roman', serif" font-size="10.62" font-weight="600" text-anchor="middle" x="307" y="199.72">Validate</text>
  <rect fill="#F8F9FA" height="43.38" rx="0" stroke="#1F497D" stroke-width="1.33" width="106.23" x="429.16" y="141.3"/>
  <text dominant-baseline="central" fill="#1E293B" font-family="Georgia, 'Times New Roman', serif" font-size="10.62" font-weight="600" text-anchor="middle" x="482.28" y="163.43">Payment</text>
  <rect fill="#F8F9FA" height="43.38" rx="0" stroke="#1F497D" stroke-width="1.33" width="106.23" x="429.16" y="213"/>
  <text dominant-baseline="central" fill="#1E293B" font-family="Georgia, 'Times New Roman', serif" font-size="10.62" font-weight="600" text-anchor="middle" x="482.28" y="235.13">Dispatch</text>
  <path d="M253.89 199.72 L247.69 196.18 L247.69 203.26 Z" fill="#64748B" stroke="none" stroke-width="0"/>
  <path d="M429.16 163.43 L422.97 159.89 L422.97 166.97 Z" fill="#64748B" stroke="none" stroke-width="0"/>
  <path d="M429.16 235.13 L422.97 231.59 L422.97 238.67 Z" fill="#64748B" stroke="none" stroke-width="0"/>
  <rect fill="#F8F9FB" height="258" rx="6" stroke="#1F497D" stroke-width="1" width="514" x="662" y="84"/>
  <line stroke="#94A3B8" stroke-width="1.33" x1="961.43" x2="887.17" y1="171.45" y2="171.45"/>
  <line stroke="#94A3B8" stroke-width="1.33" x1="961.43" x2="884.52" y1="171.45" y2="247.48"/>
  <rect fill="#F8F9FA" height="40.67" rx="3.54" stroke="#E2E8F0" stroke-width="0.88" width="159.13" x="717.43" y="151.12"/>
  <rect fill="#F1F5F9" height="40.67" rx="3.54" stroke="#1F497D" stroke-width="1.33" width="159.13" x="717.43" y="151.12"/>
  <text dominant-baseline="alphabetic" fill="#0D2B4E" font-family="Georgia, 'Times New Roman', serif" font-size="12.38" font-weight="700" text-anchor="middle" x="797" y="173.22">PaymentGateway</text>
  <rect fill="#F8F9FA" height="40.67" rx="3.54" stroke="#E2E8F0" stroke-width="0.88" width="159.13" x="717.43" y="234.22"/>
  <rect fill="#F1F5F9" height="40.67" rx="3.54" stroke="#1F497D" stroke-width="1.33" width="159.13" x="717.43" y="234.22"/>
  <text dominant-baseline="alphabetic" fill="#0D2B4E" font-family="Georgia, 'Times New Roman', serif" font-size="12.38" font-weight="700" text-anchor="middle" x="797" y="256.32">ShipmentHandler</text>
  <rect fill="#F8F9FA" height="40.67" rx="3.54" stroke="#E2E8F0" stroke-width="0.88" width="159.13" x="961.43" y="151.12"/>
  <rect fill="#F1F5F9" height="40.67" rx="3.54" stroke="#1F497D" stroke-width="1.33" width="159.13" x="961.43" y="151.12"/>
  <text dominant-baseline="alphabetic" fill="#0D2B4E" font-family="Georgia, 'Times New Roman', serif" font-size="12.38" font-weight="700" text-anchor="middle" x="1041" y="173.22">OrderService</text>
  <path d="M887.17 165.26 L876.57 171.45 L887.17 177.64" fill="none" stroke="#94A3B8" stroke-linecap="round" stroke-width="1.33"/>
  <path d="M880.1 242.17 L876.57 254.55 L888.94 251.9" fill="none" stroke="#94A3B8" stroke-linecap="round" stroke-width="1.33"/>
  <path d="M 535.39 162.98 L 616.00 162.98 L 616.00 171.45 L 717.43 171.45" fill="none" opacity="0.95" stroke="#E05B4B" stroke-linecap="round" stroke-width="2"/>
  <path d="M 717.43 171.45 L 708.43 175.45 L 708.43 167.45 Z" fill="#E05B4B" stroke="none" stroke-width="0"/>
  <rect fill="#FFFFFF" height="23.4" rx="3" stroke="#E05B4B" stroke-width="1" width="68.5" x="581.75" y="155.52"/>
  <text dominant-baseline="central" fill="#E05B4B" font-family="Georgia, serif" font-size="11" font-weight="400" text-anchor="middle" x="616" y="167.22">handled by</text>
  <path d="M 535.39 256.38 L 636.00 256.38 L 636.00 254.55 L 717.43 254.55" fill="none" opacity="0.95" stroke="#E05B4B" stroke-linecap="round" stroke-width="2"/>
  <path d="M 717.43 254.55 L 708.43 258.55 L 708.43 250.55 Z" fill="#E05B4B" stroke="none" stroke-width="0"/>
  <rect fill="#FFFFFF" height="23.4" rx="3" stroke="#E05B4B" stroke-width="1" width="80.6" x="595.7" y="243.76"/>
  <text dominant-baseline="central" fill="#E05B4B" font-family="Georgia, serif" font-size="11" font-weight="400" text-anchor="middle" x="636" y="255.46">fulfilled by</text>
</svg>