<?xml version="1.0" encoding="UTF-8"?>
<svg height="577.86" version="1.1" viewBox="0 0 1200 577.86" width="1200" xmlns="http://www.w3.org/2000/svg">
  <rect fill="#FFFFFF" height="577.86" width="1200" x="0" y="0"/>
  <text dominant-baseline="alphabetic" fill="#111111" font-family="DejaVu Sans, Arial, Helvetica, sans-serif" font-size="26.67" font-weight="700" text-anchor="middle" x="600" y="86.67">Project Phoenix — Program Timeline</text>
  <text dominant-baseline="alphabetic" fill="#111111" font-family="DejaVu Sans, Arial, Helvetica, sans-serif" font-size="17.33" font-weight="400" opacity="0.75" text-anchor="middle" x="600" y="118.33">Discovery through General Availability, FY 2026</text>
  <line opacity="0.35" stroke="#333333" stroke-width="0.5" x1="140" x2="1160" y1="130" y2="130"/>
  <line stroke="#333333" stroke-width="1" x1="140" x2="1160" y1="168" y2="168"/>
  <line stroke="#333333" stroke-width="1" x1="140" x2="140" y1="162" y2="168"/>
  <text dominant-baseline="alphabetic" fill="#555555" font-family="DejaVu Sans, Arial, Helvetica, sans-serif" font-size="13.33" font-weight="400" text-anchor="middle" x="140" y="154">2026</text>
  <line stroke="#333333" stroke-width="1" x1="227" x2="227" y1="162" y2="168"/>
  <text dominant-baseline="alphabetic" fill="#555555" font-family="DejaVu Sans, Arial, Helvetica, sans-serif" font-size="13.33" font-weight="400" text-anchor="middle" x="227" y="154">Feb</text>
  <line stroke="#333333" stroke-width="1" x1="305" x2="305" y1="162" y2="168"/>
  <text dominant-baseline="alphabetic" fill="#555555" font-family="DejaVu Sans, Arial, Helvetica, sans-serif" font-size="13.33" font-weight="400" text-anchor="middle" x="305" y="154">Mar</text>
  <line stroke="#333333" stroke-width="1" x1="392" x2="392" y1="162" y2="168"/>
  <text dominant-baseline="alphabetic" fill="#555555" font-family="DejaVu Sans, Arial, Helvetica, sans-serif" font-size="13.33" font-weight="400" text-anchor="middle" x="392" y="154">Apr</text>
  <line stroke="#333333" stroke-width="1" x1="476" x2="476" y1="162" y2="168"/>
  <text dominant-baseline="alphabetic" fill="#555555" font-family="DejaVu Sans, Arial, Helvetica, sans-serif" font-size="13.33" font-weight="400" text-anchor="middle" x="476" y="154">May</text>
  <line stroke="#333333" stroke-width="1" x1="563" x2="563" y1="162" y2="168"/>
  <text dominant-baseline="alphabetic" fill="#555555" font-family="DejaVu Sans, Arial, Helvetica, sans-serif" font-size="13.33" font-weight="400" text-anchor="middle" x="563" y="154">Jun</text>
  <line stroke="#333333" stroke-width="1" x1="647" x2="647" y1="162" y2="168"/>
  <text dominant-baseline="alphabetic" fill="#555555" font-family="DejaVu Sans, Arial, Helvetica, sans-serif" font-size="13.33" font-weight="400" text-anchor="middle" x="647" y="154">Jul</text>
  <line stroke="#333333" stroke-width="1" x1="734" x2="734" y1="162" y2="168"/>
  <text dominant-baseline="alphabetic" fill="#555555" font-family="DejaVu Sans, Arial, Helvetica, sans-serif" font-size="13.33" font-weight="400" text-anchor="middle" x="734" y="154">Aug</text>
  <line stroke="#333333" stroke-width="1" x1="821" x2="821" y1="162" y2="168"/>
  <text dominant-baseline="alphabetic" fill="#555555" font-family="DejaVu Sans, Arial, Helvetica, sans-serif" font-size="13.33" font-weight="400" text-anchor="middle" x="821" y="154">Sep</text>
  <line stroke="#333333" stroke-width="1" x1="905" x2="905" y1="162" y2="168"/>
  <text dominant-baseline="alphabetic" fill="#555555" font-family="DejaVu Sans, Arial, Helvetica, sans-serif" font-size="13.33" font-weight="400" text-anchor="middle" x="905" y="154">Oct</text>
  <line stroke="#333333" stroke-width="1" x1="992" x2="992" y1="162" y2="168"/>
  <text dominant-baseline="alphabetic" fill="#555555" font-family="DejaVu Sans, Arial, Helvetica, sans-serif" font-size="13.33" font-weight="400" text-anchor="middle" x="992" y="154">Nov</text>
  <line stroke="#333333" stroke-width="1" x1="1076" x2="1076" y1="162" y2="168"/>
  <text dominant-baseline="alphabetic" fill="#555555" font-family="DejaVu Sans, Arial, Helvetica, sans-serif" font-size="13.33" font-weight="400" text-anchor="middle" x="1076" y="154">Dec</text>
  <line opacity="0.3" stroke="#333333" stroke-width="1" x1="140" x2="1160" y1="304.93" y2="304.93"/>
  <text dominant-baseline="middle" fill="#111111" font-family="DejaVu Sans, Arial, Helvetica, sans-serif" font-size="14.67" font-weight="600" text-anchor="start" x="8" y="264.93">Discovery</text>
  <line opacity="0.3" stroke="#333333" stroke-width="1" x1="140" x2="1160" y1="400.93" y2="400.93"/>
  <text dominant-baseline="middle" fill="#111111" font-family="DejaVu Sans, Arial, Helvetica, sans-serif" font-size="14.67" font-weight="600" text-anchor="start" x="8" y="360.93">Development</text>
  <line opacity="0.3" stroke="#333333" stroke-width="1" x1="140" x2="1160" y1="496.93" y2="496.93"/>
  <text dominant-baseline="middle" fill="#111111" font-family="DejaVu Sans, Arial, Helvetica, sans-serif" font-size="14.67" font-weight="600" text-anchor="start" x="8" y="456.93">Quality &amp; Release</text>
  <rect fill="#888888" height="24" opacity="0.85" rx="0" stroke="#666666" stroke-width="0.5" width="73" x="151" y="236.93"/>
  <rect fill="#FFFFFF" height="4" opacity="0.45" rx="0" width="73" x="151" y="256.93"/>
  <text dominant-baseline="middle" fill="#111111" font-family="DejaVu Sans, Arial, Helvetica, sans-serif" font-size="13.33" font-weight="600" text-anchor="start" x="155" y="248.93">Stakehol…</text>
  <rect fill="#888888" height="24" opacity="0.85" rx="0" stroke="#666666" stroke-width="0.5" width="76" x="227" y="236.93"/>
  <rect fill="#FFFFFF" height="4" opacity="0.45" rx="0" width="76" x="227" y="256.93"/>
  <text dominant-baseline="middle" fill="#111111" font-family="DejaVu Sans, Arial, Helvetica, sans-serif" font-size="13.33" font-weight="600" text-anchor="start" x="231" y="248.93">Requirem…</text>
  <rect fill="#888888" height="24" opacity="0.85" rx="0" stroke="#666666" stroke-width="0.5" width="126" x="305" y="236.93"/>
  <rect fill="#FFFFFF" height="4" opacity="0.45" rx="0" width="126" x="305" y="256.93"/>
  <text dominant-baseline="middle" fill="#111111" font-family="DejaVu Sans, Arial, Helvetica, sans-serif" font-size="13.33" font-weight="600" text-anchor="start" x="309" y="248.93">Architecture Desi…</text>
  <rect fill="#888888" height="24" opacity="0.85" rx="0" stroke="#666666" stroke-width="0.5" width="126" x="305" y="332.93"/>
  <rect fill="#FFFFFF" height="4" opacity="0.45" rx="0" width="126" x="305" y="352.93"/>
  <text dominant-baseline="middle" fill="#111111" font-family="DejaVu Sans, Arial, Helvetica, sans-serif" font-size="13.33" font-weight="600" text-anchor="start" x="309" y="344.93">Sprint 1 — Founda…</text>
  <rect fill="#1F497D" height="24" opacity="1" rx="0" stroke="#163760" stroke-width="0.5" width="168" x="434" y="332.93"/>
  <rect fill="#FFFFFF" height="4" opacity="0.45" rx="0" width="109" x="434" y="352.93"/>
  <text dominant-baseline="middle" fill="#FFFFFF" font-family="DejaVu Sans, Arial, Helvetica, sans-serif" font-size="13.33" font-weight="600" text-anchor="start" x="438" y="344.93">Sprint 2 — Core Features</text>
  <rect fill="#DC2626" height="24" opacity="1" rx="0" stroke="#B91C1C" stroke-width="0.5" width="213" x="605" y="332.93"/>
  <text dominant-baseline="middle" fill="#FFFFFF" font-family="DejaVu Sans, Arial, Helvetica, sans-serif" font-size="13.33" font-weight="600" text-anchor="start" x="609" y="344.93">Sprint 3 — Integrations</text>
  <rect fill="#1F497D" height="24" opacity="1" rx="0" stroke="#163760" stroke-width="0.5" width="168" x="821" y="332.93"/>
  <text dominant-baseline="middle" fill="#FFFFFF" font-family="DejaVu Sans, Arial, Helvetica, sans-serif" font-size="13.33" font-weight="600" text-anchor="start" x="825" y="344.93">Sprint 4 — Polish</text>
  <rect fill="#1F497D" height="24" opacity="1" rx="0" stroke="#163760" stroke-width="0.5" width="168" x="476" y="428.93"/>
  <rect fill="#FFFFFF" height="4" opacity="0.45" rx="0" width="67" x="476" y="448.93"/>
  <text dominant-baseline="middle" fill="#FFFFFF" font-family="DejaVu Sans, Arial, Helvetica, sans-serif" font-size="13.33" font-weight="600" text-anchor="start" x="480" y="440.93">Regression Testing</text>
  <rect fill="#1F497D" height="24" opacity="1" rx="0" stroke="#163760" stroke-width="0.5" width="255" x="647" y="428.93"/>
  <text dominant-baseline="middle" fill="#FFFFFF" font-family="DejaVu Sans, Arial, Helvetica, sans-serif" font-size="13.33" font-weight="600" text-anchor="start" x="651" y="440.93">Beta Program</text>
  <rect fill="#1F497D" height="24" opacity="1" rx="0" stroke="#163760" stroke-width="0.5" width="168" x="905" y="428.93"/>
  <text dominant-baseline="middle" fill="#FFFFFF" font-family="DejaVu Sans, Arial, Helvetica, sans-serif" font-size="13.33" font-weight="600" text-anchor="start" x="909" y="440.93">Launch Preparation</text>
  <line opacity="0.45" stroke="#888888" stroke-width="0.75" x1="151" x2="151" y1="286.93" y2="294.93"/>
  <circle cx="151" cy="264.93" fill="#1F497D" r="22" stroke="#FFFFFF" stroke-width="2"/>
  <path d="M 12 3 L 14.4 8.8 L 20.6 9.2 L 15.8 13.2 L 17.3 19.3 L 12 16 L 6.7 19.3 L 8.2 13.2 L 3.4 9.2 L 9.6 8.8 Z" fill="#FFFFFF" transform="translate(151,264.93) scale(1.1917) translate(-12,-12)"/>
  <text dominant-baseline="alphabetic" fill="#111111" font-family="DejaVu Sans, Arial, Helvetica, sans-serif" font-size="13.33" font-weight="600" text-anchor="middle" x="151" y="309.66">Project Kick-off</text>
  <text dominant-baseline="alphabetic" fill="#555555" font-family="DejaVu Sans, Arial, Helvetica, sans-serif" font-size="12" font-weight="400" text-anchor="middle" x="151" y="326.46">January 2026</text>
  <line opacity="0.45" stroke="#888888" stroke-width="0.75" x1="431" x2="431" y1="218.93" y2="338.93"/>
  <circle cx="431" cy="360.93" fill="#1F497D" r="22" stroke="#FFFFFF" stroke-width="2"/>
  <path d="M 4 12 L 9.5 17.5 L 20 7" fill="none" stroke="#FFFFFF" stroke-linecap="round" stroke-width="2" transform="translate(431,360.93) scale(1.1917) translate(-12,-12)"/>
  <text dominant-baseline="alphabetic" fill="#111111" font-family="DejaVu Sans, Arial, Helvetica, sans-serif" font-size="13.33" font-weight="600" text-anchor="middle" x="431" y="196.73">Architecture Appro…</text>
  <text dominant-baseline="alphabetic" fill="#555555" font-family="DejaVu Sans, Arial, Helvetica, sans-serif" font-size="12" font-weight="400" text-anchor="middle" x="431" y="213.53">April 2026</text>
  <line opacity="0.45" stroke="#888888" stroke-width="0.75" x1="818" x2="818" y1="382.93" y2="390.93"/>
  <circle cx="818" cy="360.93" fill="#1F497D" r="22" stroke="#FFFFFF" stroke-width="2"/>
  <path d="M 12 2 L 22 12 L 12 22 L 2 12 Z" fill="#FFFFFF" transform="translate(818,360.93) scale(1.1917) translate(-12,-12)"/>
  <text dominant-baseline="alphabetic" fill="#111111" font-family="DejaVu Sans, Arial, Helvetica, sans-serif" font-size="13.33" font-weight="600" text-anchor="middle" x="818" y="405.66">Feature Freeze</text>
  <text dominant-baseline="alphabetic" fill="#555555" font-family="DejaVu Sans, Arial, Helvetica, sans-serif" font-size="12" font-weight="400" text-anchor="middle" x="818" y="422.46">August 2026</text>
  <line opacity="0.45" stroke="#888888" stroke-width="0.75" x1="1031" x2="1031" y1="218.93" y2="434.93"/>
  <circle cx="1031" cy="456.93" fill="#1F497D" r="22" stroke="#FFFFFF" stroke-width="2"/>
  <path d="M 12 2 L 16 11 L 15 11 L 15 18 L 9 18 L 9 11 L 8 11 Z M 9 18 L 6 22 L 9 16 Z M 15 18 L 18 22 L 15 16 Z" fill="#FFFFFF" transform="translate(1031,456.93) scale(1.1917) translate(-12,-12)"/>
  <text dominant-baseline="alphabetic" fill="#111111" font-family="DejaVu Sans, Arial, Helvetica, sans-serif" font-size="13.33" font-weight="600" text-anchor="middle" x="1031" y="196.73">Product Launch</text>
  <text dominant-baseline="alphabetic" fill="#555555" font-family="DejaVu Sans, Arial, Helvetica, sans-serif" font-size="12" font-weight="400" text-anchor="middle" x="1031" y="213.53">November 2026</text>
  <line opacity="0.45" stroke="#888888" stroke-width="0.75" x1="1076" x2="1076" y1="162" y2="172"/>
  <line opacity="0.25" stroke="#888888" stroke-dasharray="2,3" stroke-width="0.75" x1="1076" x2="1081" y1="168" y2="168"/>
  <line opacity="0.45" stroke="#888888" stroke-width="0.75" x1="1081" x2="1081" y1="478.93" y2="486.93"/>
  <circle cx="1081" cy="456.93" fill="#1F497D" r="22" stroke="#FFFFFF" stroke-width="2"/>
  <path d="M 4 2 L 4 21 L 6 21 L 6 17 L 18 11 L 6 5 Z" fill="#FFFFFF" transform="translate(1081,456.93) scale(1.1917) translate(-12,-12)"/>
  <text dominant-baseline="alphabetic" fill="#111111" font-family="DejaVu Sans, Arial, Helvetica, sans-serif" font-size="13.33" font-weight="600" text-anchor="middle" x="1081" y="501.66">General Availability</text>
  <text dominant-baseline="alphabetic" fill="#555555" font-family="DejaVu Sans, Arial, Helvetica, sans-serif" font-size="12" font-weight="400" text-anchor="middle" x="1081" y="518.46">December 2026</text>
  <rect fill="#FFFFFF" height="140.67" opacity="0.95" rx="4" stroke="#CCCCCC" stroke-width="1" width="160" x="984" y="373.19"/>
  <text dominant-baseline="alphabetic" fill="#111111" font-family="DejaVu Sans, Arial, Helvetica, sans-serif" font-size="13.33" font-weight="700" text-anchor="start" x="994" y="396.53">Legend</text>
  <rect fill="#888888" height="12" rx="0" width="12" x="994" y="409.06"/>
  <text dominant-baseline="middle" fill="#333333" font-family="DejaVu Sans, Arial, Helvetica, sans-serif" font-size="12" font-weight="400" text-anchor="start" x="1014" y="415.06">done</text>
  <rect fill="#1F497D" height="12" rx="0" width="12" x="994" y="429.46"/>
  <text dominant-baseline="middle" fill="#333333" font-family="DejaVu Sans, Arial, Helvetica, sans-serif" font-size="12" font-weight="400" text-anchor="start" x="1014" y="435.46">in-progress</text>
  <rect fill="#DC2626" height="12" rx="0" width="12" x="994" y="449.86"/>
  <text dominant-baseline="middle" fill="#333333" font-family="DejaVu Sans, Arial, Helvetica, sans-serif" font-size="12" font-weight="400" text-anchor="start" x="1014" y="455.86">blocked</text>
  <rect fill="#1F497D" height="12" rx="0" width="12" x="994" y="470.26"/>
  <text dominant-baseline="middle" fill="#333333" font-family="DejaVu Sans, Arial, Helvetica, sans-serif" font-size="12" font-weight="400" text-anchor="start" x="1014" y="476.26">planned</text>
  <rect fill="#1F497D" height="12" rx="0" width="12" x="994" y="490.66"/>
  <text dominant-baseline="middle" fill="#333333" font-family="DejaVu Sans, Arial, Helvetica, sans-serif" font-size="12" font-weight="400" text-anchor="start" x="1014" y="496.66">standard-node</text>
</svg>