<?xml version="1.0" encoding="UTF-8"?>
<svg height="380" version="1.1" viewBox="0 0 400 380" width="400" xmlns="http://www.w3.org/2000/svg">
  <rect fill="#ffffff" height="380" width="400" x="0" y="0"/>
  <rect fill="#eff1fb" height="140" rx="6" stroke="#7986cb" stroke-width="1.5" width="344" x="28" y="128"/>
  <rect fill="#5c6bc0" height="23" rx="6" width="24" x="28" y="128"/>
  <text dominant-baseline="middle" fill="#ffffff" font-family="DejaVu Sans" font-size="11" font-weight="700" text-anchor="middle" x="40" y="140">alt</text>
  <text dominant-baseline="middle" fill="#3949ab" font-family="DejaVu Sans" font-size="11" font-weight="400" text-anchor="start" x="60" y="140">[success]</text>
  <line stroke="#7986cb" stroke-dasharray="6,4" stroke-width="1.5" x1="28" x2="372" y1="191" y2="191"/>
  <text dominant-baseline="alphabetic" fill="#3949ab" font-family="DejaVu Sans" font-size="11" font-weight="400" text-anchor="start" x="34" y="204">[not found]</text>
  <line stroke="#7986cb" stroke-dasharray="6,4" stroke-width="1.5" x1="28" x2="372" y1="247" y2="247"/>
  <text dominant-baseline="alphabetic" fill="#3949ab" font-family="DejaVu Sans" font-size="11" font-weight="400" text-anchor="start" x="34" y="260">[else]</text>
  <rect fill="#e8f0fe" height="36" rx="4" stroke="#4a6cf7" stroke-width="1.5" width="120" x="40" y="20"/>
  <text dominant-baseline="middle" fill="#1a1a2e" font-family="DejaVu Sans" font-size="13" font-weight="700" text-anchor="middle" x="100" y="38">Client</text>
  <line stroke="#9aa3b2" stroke-dasharray="6,4" stroke-width="1" x1="100" x2="100" y1="56" y2="340"/>
  <rect fill="#e8f0fe" height="36" rx="4" stroke="#4a6cf7" stroke-width="1.5" width="120" x="240" y="20"/>
  <text dominant-baseline="middle" fill="#1a1a2e" font-family="DejaVu Sans" font-size="13" font-weight="700" text-anchor="middle" x="300" y="38">Server</text>
  <line stroke="#9aa3b2" stroke-dasharray="6,4" stroke-width="1" x1="300" x2="300" y1="56" y2="340"/>
  <line stroke="#2c3e50" stroke-width="1.5" x1="100" x2="292" y1="86" y2="86"/>
  <path d="M 300 86 L 292 82 L 292 90 Z" fill="#2c3e50" stroke="none" stroke-width="0"/>
  <text dominant-baseline="alphabetic" fill="#2c3e50" font-family="DejaVu Sans" font-size="12" font-weight="400" text-anchor="middle" x="200" y="80">GET /resource</text>
  <line stroke="#2c3e50" stroke-dasharray="6,4" stroke-width="1.5" x1="300" x2="108" y1="142" y2="142"/>
  <path d="M 108 138 L 100 142 L 108 146" fill="none" stroke="#2c3e50" stroke-linecap="round" stroke-width="1.5"/>
  <text dominant-baseline="alphabetic" fill="#2c3e50" font-family="DejaVu Sans" font-size="12" font-weight="400" text-anchor="middle" x="200" y="136">200 OK</text>
  <line stroke="#2c3e50" stroke-dasharray="6,4" stroke-width="1.5" x1="300" x2="108" y1="198" y2="198"/>
  <path d="M 108 194 L 100 198 L 108 202" fill="none" stroke="#2c3e50" stroke-linecap="round" stroke-width="1.5"/>
  <text dominant-baseline="alphabetic" fill="#2c3e50" font-family="DejaVu Sans" font-size="12" font-weight="400" text-anchor="middle" x="200" y="192">404 Not Found</text>
  <line stroke="#2c3e50" stroke-dasharray="6,4" stroke-width="1.5" x1="300" x2="108" y1="254" y2="254"/>
  <path d="M 108 250 L 100 254 L 108 258" fill="none" stroke="#2c3e50" stroke-linecap="round" stroke-width="1.5"/>
  <text dominant-baseline="alphabetic" fill="#2c3e50" font-family="DejaVu Sans" font-size="12" font-weight="400" text-anchor="middle" x="200" y="248">503 Error</text>
</svg>