<?xml version="1.0" encoding="UTF-8"?>
<svg height="416" version="1.1" viewBox="0 0 862 416" width="862" xmlns="http://www.w3.org/2000/svg">
<defs>
  <linearGradient gradientUnits="userSpaceOnUse" id="fg-190-35-340-147-33ff00-ffb800" x1="190" x2="340" y1="35" y2="147">
    <stop offset="0%" stop-color="#33FF00"/>
    <stop offset="100%" stop-color="#FFB800"/>
  </linearGradient>
  <linearGradient gradientUnits="userSpaceOnUse" id="fg-190-131-340-194-00ffff-ffb800" x1="190" x2="340" y1="131" y2="194">
    <stop offset="0%" stop-color="#00FFFF"/>
    <stop offset="100%" stop-color="#FFB800"/>
  </linearGradient>
  <linearGradient gradientUnits="userSpaceOnUse" id="fg-190-232-340-232-ff3333-ffb800" x1="190" x2="340" y1="232" y2="232">
    <stop offset="0%" stop-color="#FF3333"/>
    <stop offset="100%" stop-color="#FFB800"/>
  </linearGradient>
  <linearGradient gradientUnits="userSpaceOnUse" id="fg-190-286-340-274-ffffff-ffb800" x1="190" x2="340" y1="286" y2="274">
    <stop offset="0%" stop-color="#FFFFFF"/>
    <stop offset="100%" stop-color="#FFB800"/>
  </linearGradient>
  <linearGradient gradientUnits="userSpaceOnUse" id="fg-190-81-508-88-33ff00-1e9900" x1="190" x2="508" y1="81" y2="88">
    <stop offset="0%" stop-color="#33FF00"/>
    <stop offset="100%" stop-color="#1E9900"/>
  </linearGradient>
  <linearGradient gradientUnits="userSpaceOnUse" id="fg-190-165-508-120-00ffff-1e9900" x1="190" x2="508" y1="165" y2="120">
    <stop offset="0%" stop-color="#00FFFF"/>
    <stop offset="100%" stop-color="#1E9900"/>
  </linearGradient>
  <linearGradient gradientUnits="userSpaceOnUse" id="fg-190-368-508-232-cc9200-009999" x1="190" x2="508" y1="368" y2="232">
    <stop offset="0%" stop-color="#CC9200"/>
    <stop offset="100%" stop-color="#009999"/>
  </linearGradient>
  <linearGradient gradientUnits="userSpaceOnUse" id="fg-190-190-508-301-00ffff-1e9900" x1="190" x2="508" y1="190" y2="301">
    <stop offset="0%" stop-color="#00FFFF"/>
    <stop offset="100%" stop-color="#1E9900"/>
  </linearGradient>
  <linearGradient gradientUnits="userSpaceOnUse" id="fg-190-313-508-316-ffffff-1e9900" x1="190" x2="508" y1="313" y2="316">
    <stop offset="0%" stop-color="#FFFFFF"/>
    <stop offset="100%" stop-color="#1E9900"/>
  </linearGradient>
  <linearGradient gradientUnits="userSpaceOnUse" id="fg-358-143-508-156-ffb800-1e9900" x1="358" x2="508" y1="143" y2="156">
    <stop offset="0%" stop-color="#FFB800"/>
    <stop offset="100%" stop-color="#1E9900"/>
  </linearGradient>
  <linearGradient gradientUnits="userSpaceOnUse" id="fg-358-180-508-332-ffb800-1e9900" x1="358" x2="508" y1="180" y2="332">
    <stop offset="0%" stop-color="#FFB800"/>
    <stop offset="100%" stop-color="#1E9900"/>
  </linearGradient>
  <linearGradient gradientUnits="userSpaceOnUse" id="fg-358-196-508-275-ffb800-009999" x1="358" x2="508" y1="196" y2="275">
    <stop offset="0%" stop-color="#FFB800"/>
    <stop offset="100%" stop-color="#009999"/>
  </linearGradient>
  <linearGradient gradientUnits="userSpaceOnUse" id="fg-526-76-676-153-1e9900-33ff00" x1="526" x2="676" y1="76" y2="153">
    <stop offset="0%" stop-color="#1E9900"/>
    <stop offset="100%" stop-color="#33FF00"/>
  </linearGradient>
  <linearGradient gradientUnits="userSpaceOnUse" id="fg-526-292-676-163-1e9900-33ff00" x1="526" x2="676" y1="292" y2="163">
    <stop offset="0%" stop-color="#1E9900"/>
    <stop offset="100%" stop-color="#33FF00"/>
  </linearGradient>
  <linearGradient gradientUnits="userSpaceOnUse" id="fg-358-232-676-200-ffb800-33ff00" x1="358" x2="676" y1="232" y2="200">
    <stop offset="0%" stop-color="#FFB800"/>
    <stop offset="100%" stop-color="#33FF00"/>
  </linearGradient>
  <linearGradient gradientUnits="userSpaceOnUse" id="fg-526-209-676-252-009999-33ff00" x1="526" x2="676" y1="209" y2="252">
    <stop offset="0%" stop-color="#009999"/>
    <stop offset="100%" stop-color="#33FF00"/>
  </linearGradient>
</defs>

  <path d="M 190 8 C 240 8 290 120 340 120 L 340 174 C 290 174 240 62 190 62 Z" fill="url(#fg-190-35-340-147-33ff00-ffb800)" opacity="0.45" stroke="#33FF00" stroke-width="0.5"/>
  <path d="M 190 111 C 240 111 290 174 340 174 L 340 214 C 290 214 240 151 190 151 Z" fill="url(#fg-190-131-340-194-00ffff-ffb800)" opacity="0.45" stroke="#00FFFF" stroke-width="0.5"/>
  <path d="M 190 214 C 240 214 290 214 340 214 L 340 249 C 290 249 240 249 190 249 Z" fill="url(#fg-190-232-340-232-ff3333-ffb800)" opacity="0.45" stroke="#FF3333" stroke-width="0.5"/>
  <path d="M 190 261 C 240 261 290 249 340 249 L 340 298 C 290 298 240 310 190 310 Z" fill="url(#fg-190-286-340-274-ffffff-ffb800)" opacity="0.45" stroke="#FFFFFF" stroke-width="0.5"/>
  <path d="M 190 62 C 296 62 402 69 508 69 L 508 106 C 402 106 296 99 190 99 Z" fill="url(#fg-190-81-508-88-33ff00-1e9900)" opacity="0.45" stroke="#33FF00" stroke-width="0.5"/>
  <path d="M 190 151 C 296 151 402 106 508 106 L 508 133 C 402 133 296 178 190 178 Z" fill="url(#fg-190-165-508-120-00ffff-1e9900)" opacity="0.45" stroke="#00FFFF" stroke-width="0.5"/>
  <path d="M 190 327 C 296 327 402 191 508 191 L 508 273 C 402 273 296 409 190 409 Z" fill="url(#fg-190-368-508-232-cc9200-009999)" opacity="0.45" stroke="#CC9200" stroke-width="0.5"/>
  <path d="M 190 178 C 296 178 402 289 508 289 L 508 313 C 402 313 296 202 190 202 Z" fill="url(#fg-190-190-508-301-00ffff-1e9900)" opacity="0.45" stroke="#00FFFF" stroke-width="0.5"/>
  <path d="M 190 310 C 296 310 402 313 508 313 L 508 318 C 402 318 296 315 190 315 Z" fill="url(#fg-190-313-508-316-ffffff-1e9900)" opacity="0.45" stroke="#FFFFFF" stroke-width="0.5"/>
  <path d="M 358 120 C 408 120 458 133 508 133 L 508 179 C 458 179 408 166 358 166 Z" fill="url(#fg-358-143-508-156-ffb800-1e9900)" opacity="0.45" stroke="#FFB800" stroke-width="0.5"/>
  <path d="M 358 166 C 408 166 458 318 508 318 L 508 346 C 458 346 408 194 358 194 Z" fill="url(#fg-358-180-508-332-ffb800-1e9900)" opacity="0.45" stroke="#FFB800" stroke-width="0.5"/>
  <path d="M 358 194 C 408 194 458 273 508 273 L 508 277 C 458 277 408 198 358 198 Z" fill="url(#fg-358-196-508-275-ffb800-009999)" opacity="0.45" stroke="#FFB800" stroke-width="0.5"/>
  <path d="M 526 69 C 576 69 626 146 676 146 L 676 160 C 626 160 576 83 526 83 Z" fill="url(#fg-526-76-676-153-1e9900-33ff00)" opacity="0.45" stroke="#1E9900" stroke-width="0.5"/>
  <path d="M 526 289 C 576 289 626 160 676 160 L 676 166 C 626 166 576 295 526 295 Z" fill="url(#fg-526-292-676-163-1e9900-33ff00)" opacity="0.45" stroke="#1E9900" stroke-width="0.5"/>
  <path d="M 358 198 C 464 198 570 166 676 166 L 676 234 C 570 234 464 266 358 266 Z" fill="url(#fg-358-232-676-200-ffb800-33ff00)" opacity="0.45" stroke="#FFB800" stroke-width="0.5"/>
  <path d="M 526 191 C 576 191 626 234 676 234 L 676 270 C 626 270 576 227 526 227 Z" fill="url(#fg-526-209-676-252-009999-33ff00)" opacity="0.45" stroke="#009999" stroke-width="0.5"/>
  <rect fill="#33FF00" height="91" opacity="1" rx="3" width="18" x="172" y="8"/>
  <rect fill="#00FFFF" height="91" opacity="1" rx="3" width="18" x="172" y="111"/>
  <rect fill="#FF3333" height="35" opacity="1" rx="3" width="18" x="172" y="214"/>
  <rect fill="#FFFFFF" height="54" opacity="1" rx="3" width="18" x="172" y="261"/>
  <rect fill="#CC9200" height="82" opacity="1" rx="3" width="18" x="172" y="327"/>
  <rect fill="#FFB800" height="177" opacity="1" rx="3" width="18" x="340" y="120"/>
  <rect fill="#1E9900" height="110" opacity="1" rx="3" width="18" x="508" y="69"/>
  <rect fill="#009999" height="86" opacity="1" rx="3" width="18" x="508" y="191"/>
  <rect fill="#1E9900" height="58" opacity="1" rx="3" width="18" x="508" y="289"/>
  <rect fill="#33FF00" height="124" opacity="1" rx="3" width="18" x="676" y="146"/>
  <text dominant-baseline="middle" fill="#33FF00" font-family="Courier New, 'Courier', 'Lucida Console', monospace" font-size="12" font-weight="700" text-anchor="end" x="164" y="54">Coal 7100</text>
  <text dominant-baseline="middle" fill="#33FF00" font-family="Courier New, 'Courier', 'Lucida Console', monospace" font-size="12" font-weight="700" text-anchor="end" x="164" y="157">Natural Gas 7100</text>
  <text dominant-baseline="middle" fill="#33FF00" font-family="Courier New, 'Courier', 'Lucida Console', monospace" font-size="12" font-weight="700" text-anchor="end" x="164" y="232">Nuclear 2700</text>
  <text dominant-baseline="middle" fill="#33FF00" font-family="Courier New, 'Courier', 'Lucida Console', monospace" font-size="12" font-weight="700" text-anchor="end" x="164" y="288">Renewables 4220</text>
  <text dominant-baseline="middle" fill="#33FF00" font-family="Courier New, 'Courier', 'Lucida Console', monospace" font-size="12" font-weight="700" text-anchor="end" x="164" y="368">Oil 6400</text>
  <text dominant-baseline="middle" fill="#33FF00" font-family="Courier New, 'Courier', 'Lucida Console', monospace" font-size="12" font-weight="700" text-anchor="start" x="366" y="209">Electricity Generation 13800</text>
  <text dominant-baseline="middle" fill="#33FF00" font-family="Courier New, 'Courier', 'Lucida Console', monospace" font-size="12" font-weight="700" text-anchor="start" x="534" y="124">Industry 8600</text>
  <text dominant-baseline="middle" fill="#33FF00" font-family="Courier New, 'Courier', 'Lucida Console', monospace" font-size="12" font-weight="700" text-anchor="start" x="534" y="234">Transport 6710</text>
  <text dominant-baseline="middle" fill="#33FF00" font-family="Courier New, 'Courier', 'Lucida Console', monospace" font-size="12" font-weight="700" text-anchor="start" x="534" y="318">Buildings 4520</text>
  <text dominant-baseline="middle" fill="#33FF00" font-family="Courier New, 'Courier', 'Lucida Console', monospace" font-size="12" font-weight="700" text-anchor="start" x="702" y="208">Heat Losses 9680</text>
</svg>