<?xml version="1.0" encoding="UTF-8"?>
<svg height="323.59" version="1.1" viewBox="0 0 1200 323.59" width="1200" xmlns="http://www.w3.org/2000/svg">
  <rect fill="#FFFFFF" height="323.59" width="1200" x="0" y="0"/>
  <text dominant-baseline="alphabetic" fill="#111111" font-family="DejaVu Sans, Arial, Helvetica, sans-serif" font-size="24" font-weight="700" text-anchor="start" x="48" y="80">Timeline &amp; Goals</text>
  <text dominant-baseline="alphabetic" fill="#111111" font-family="DejaVu Sans, Arial, Helvetica, sans-serif" font-size="14.67" font-weight="400" opacity="0.7" text-anchor="start" x="48" y="108.67">Engineering Roadmap · 2025 – 2026</text>
  <rect fill="#6B7280" height="56" rx="8" width="255" x="48" y="200.99"/>
  <circle cx="74" cy="228.99" fill="#464a53" r="18"/>
  <path d="M 14.7 6.3 A 5 5 0 0 0 5.6 13.4 L 2 17 A 1.5 1.5 0 0 0 4 19 L 7.6 15.4 A 5 5 0 0 0 14.7 6.3 Z M 14.7 6.3 L 10 11" fill="none" stroke="#FFFFFF" stroke-linecap="round" stroke-width="2" transform="translate(74,228.99) scale(1.08) translate(-12,-12)"/>
  <text dominant-baseline="middle" fill="#FFFFFF" font-family="DejaVu Sans, Arial, Helvetica, sans-serif" font-size="13.33" font-weight="600" text-anchor="start" x="100" y="222.27">Functional Readiness</text>
  <text dominant-baseline="middle" fill="#FFFFFF" font-family="DejaVu Sans, Arial, Helvetica, sans-serif" font-size="10.93" font-weight="400" opacity="0.82" text-anchor="start" x="100" y="241.31">Tools installable and functional</text>
  <rect fill="#0F766E" height="56" rx="8" width="411" x="327" y="200.99"/>
  <circle cx="353" cy="228.99" fill="#0a4d48" r="18"/>
  <path d="M 14 2 L 6 13 L 12 13 L 10 22 L 18 11 L 12 11 Z" fill="#FFFFFF" transform="translate(353,228.99) scale(1.08) translate(-12,-12)"/>
  <text dominant-baseline="middle" fill="#FFFFFF" font-family="DejaVu Sans, Arial, Helvetica, sans-serif" font-size="13.33" font-weight="600" text-anchor="start" x="379" y="222.27">Evangelization</text>
  <text dominant-baseline="middle" fill="#FFFFFF" font-family="DejaVu Sans, Arial, Helvetica, sans-serif" font-size="10.93" font-weight="400" opacity="0.82" text-anchor="start" x="379" y="241.31">Increase adoption + track blockers</text>
  <rect fill="#1e3a5f" height="56" rx="8" width="309" x="741" y="200.99"/>
  <circle cx="767" cy="228.99" fill="#14263e" r="18"/>
  <path d="M 4 12 L 9.5 17.5 L 20 7" fill="none" stroke="#FFFFFF" stroke-linecap="round" stroke-width="2" transform="translate(767,228.99) scale(1.08) translate(-12,-12)"/>
  <text dominant-baseline="middle" fill="#FFFFFF" font-family="DejaVu Sans, Arial, Helvetica, sans-serif" font-size="13.33" font-weight="600" text-anchor="start" x="793" y="222.27">Physical SAW Reduction</text>
  <text dominant-baseline="middle" fill="#FFFFFF" font-family="DejaVu Sans, Arial, Helvetica, sans-serif" font-size="10.93" font-weight="400" opacity="0.82" text-anchor="start" x="793" y="241.31">Start removing Physical SAW dependency</text>
  <text dominant-baseline="alphabetic" fill="#111111" font-family="DejaVu Sans, Arial, Helvetica, sans-serif" font-size="10.67" font-weight="700" text-anchor="middle" x="103.02" y="157.33">Tools installable and</text>
  <text dominant-baseline="alphabetic" fill="#111111" font-family="DejaVu Sans, Arial, Helvetica, sans-serif" font-size="10.67" font-weight="700" text-anchor="middle" x="103.02" y="172.66">functional</text>
  <text dominant-baseline="alphabetic" fill="#6B7280" font-family="DejaVu Sans, Arial, Helvetica, sans-serif" font-size="10.67" font-weight="400" text-anchor="middle" x="103.02" y="186.73">(Nov 2025)</text>
  <line opacity="0.5" stroke="#374151" stroke-width="1" x1="103.02" x2="103.02" y1="194.99" y2="200.99"/>
  <circle cx="103.02" cy="200.99" fill="#4ADE80" r="4"/>
  <text dominant-baseline="alphabetic" fill="#111111" font-family="DejaVu Sans, Arial, Helvetica, sans-serif" font-size="10.67" font-weight="700" text-anchor="middle" x="552.99" y="157.33">MSI Installer / Install Path</text>
  <text dominant-baseline="alphabetic" fill="#6B7280" font-family="DejaVu Sans, Arial, Helvetica, sans-serif" font-size="10.67" font-weight="400" text-anchor="middle" x="552.99" y="171.4">(Jun 30)</text>
  <line opacity="0.5" stroke="#374151" stroke-width="1" x1="552.99" x2="552.99" y1="179.66" y2="200.99"/>
  <circle cx="552.99" cy="200.99" fill="#3B82F6" r="4"/>
  <text dominant-baseline="alphabetic" fill="#111111" font-family="DejaVu Sans, Arial, Helvetica, sans-serif" font-size="10.67" font-weight="700" text-anchor="middle" x="700.2" y="157.33">Adoption goal 40-80 WAU</text>
  <text dominant-baseline="alphabetic" fill="#6B7280" font-family="DejaVu Sans, Arial, Helvetica, sans-serif" font-size="10.67" font-weight="400" text-anchor="middle" x="700.2" y="171.4">(Jul 2026)</text>
  <line opacity="0.5" stroke="#374151" stroke-width="1" x1="700.2" x2="700.2" y1="179.66" y2="200.99"/>
  <circle cx="700.2" cy="200.99" fill="#3B82F6" r="4"/>
  <text dominant-baseline="alphabetic" fill="#111111" font-family="DejaVu Sans, Arial, Helvetica, sans-serif" font-size="10.67" font-weight="700" text-anchor="middle" x="840.29" y="157.33">80% adoption + queue</text>
  <text dominant-baseline="alphabetic" fill="#111111" font-family="DejaVu Sans, Arial, Helvetica, sans-serif" font-size="10.67" font-weight="700" text-anchor="middle" x="840.29" y="172.66">signoff</text>
  <text dominant-baseline="alphabetic" fill="#6B7280" font-family="DejaVu Sans, Arial, Helvetica, sans-serif" font-size="10.67" font-weight="400" text-anchor="middle" x="840.29" y="186.73">(Aug 2026)</text>
  <line opacity="0.5" stroke="#374151" stroke-width="1" x1="840.29" x2="840.29" y1="194.99" y2="200.99"/>
  <circle cx="840.29" cy="200.99" fill="#0F766E" r="4"/>
  <text dominant-baseline="alphabetic" fill="#111111" font-family="DejaVu Sans, Arial, Helvetica, sans-serif" font-size="10.67" font-weight="700" text-anchor="middle" x="971.12" y="157.33">Reduce Physical SAW</text>
  <text dominant-baseline="alphabetic" fill="#111111" font-family="DejaVu Sans, Arial, Helvetica, sans-serif" font-size="10.67" font-weight="700" text-anchor="middle" x="971.12" y="172.66">dependency</text>
  <text dominant-baseline="alphabetic" fill="#6B7280" font-family="DejaVu Sans, Arial, Helvetica, sans-serif" font-size="10.67" font-weight="400" text-anchor="middle" x="971.12" y="186.73">(Sep 2026)</text>
  <line opacity="0.5" stroke="#374151" stroke-width="1" x1="971.12" x2="971.12" y1="194.99" y2="200.99"/>
  <circle cx="971.12" cy="200.99" fill="#1e3a5f" r="4"/>
  <rect fill="none" height="61.99" opacity="0.9" rx="5" stroke="#374151" stroke-width="1.5" width="128.02" x="1032.98" y="136"/>
  <text dominant-baseline="alphabetic" fill="#111111" font-family="DejaVu Sans, Arial, Helvetica, sans-serif" font-size="10.67" font-weight="700" text-anchor="middle" x="1096.99" y="157.33">No Physical SAW for</text>
  <text dominant-baseline="alphabetic" fill="#111111" font-family="DejaVu Sans, Arial, Helvetica, sans-serif" font-size="10.67" font-weight="700" text-anchor="middle" x="1096.99" y="172.66">device refresh</text>
  <text dominant-baseline="alphabetic" fill="#6B7280" font-family="DejaVu Sans, Arial, Helvetica, sans-serif" font-size="10.67" font-weight="400" text-anchor="middle" x="1096.99" y="186.73">(Nov 2026)</text>
  <line opacity="0.5" stroke="#374151" stroke-width="1" x1="1096.99" x2="1096.99" y1="197.99" y2="200.99"/>
  <circle cx="1096.99" cy="200.99" fill="#1e3a5f" r="4"/>
  <line stroke="#374151" stroke-width="1" x1="48" x2="303" y1="260.99" y2="260.99"/>
  <line stroke="#374151" stroke-width="1.5" x1="310" x2="314" y1="267.99" y2="253.99"/>
  <line stroke="#374151" stroke-width="1.5" x1="316" x2="320" y1="267.99" y2="253.99"/>
  <line stroke="#374151" stroke-width="1" x1="327" x2="1152" y1="260.99" y2="260.99"/>
  <line stroke="#374151" stroke-width="1" x1="103.02" x2="103.02" y1="256.99" y2="260.99"/>
  <text dominant-baseline="alphabetic" fill="#6B7280" font-family="DejaVu Sans, Arial, Helvetica, sans-serif" font-size="12" font-weight="400" text-anchor="middle" x="103.02" y="275.99">Nov 2025</text>
  <line stroke="#374151" stroke-width="1" x1="552.99" x2="552.99" y1="256.99" y2="260.99"/>
  <text dominant-baseline="alphabetic" fill="#6B7280" font-family="DejaVu Sans, Arial, Helvetica, sans-serif" font-size="12" font-weight="400" text-anchor="middle" x="552.99" y="275.99">Jun 30</text>
  <line stroke="#374151" stroke-width="1" x1="700.2" x2="700.2" y1="256.99" y2="260.99"/>
  <text dominant-baseline="alphabetic" fill="#6B7280" font-family="DejaVu Sans, Arial, Helvetica, sans-serif" font-size="12" font-weight="400" text-anchor="middle" x="700.2" y="275.99">Jul 2026</text>
  <line stroke="#374151" stroke-width="1" x1="840.29" x2="840.29" y1="256.99" y2="260.99"/>
  <text dominant-baseline="alphabetic" fill="#6B7280" font-family="DejaVu Sans, Arial, Helvetica, sans-serif" font-size="12" font-weight="400" text-anchor="middle" x="840.29" y="275.99">Aug 2026</text>
  <line stroke="#374151" stroke-width="1" x1="971.12" x2="971.12" y1="256.99" y2="260.99"/>
  <text dominant-baseline="alphabetic" fill="#6B7280" font-family="DejaVu Sans, Arial, Helvetica, sans-serif" font-size="12" font-weight="400" text-anchor="middle" x="971.12" y="275.99">Sep 2026</text>
  <line stroke="#374151" stroke-width="1" x1="1096.99" x2="1096.99" y1="256.99" y2="260.99"/>
  <text dominant-baseline="alphabetic" fill="#6B7280" font-family="DejaVu Sans, Arial, Helvetica, sans-serif" font-size="12" font-weight="400" text-anchor="middle" x="1096.99" y="275.99">Nov 2026</text>
</svg>