<?xml version="1.0" encoding="UTF-8"?>
<svg height="294" version="1.1" viewBox="0 0 923 294" width="923" xmlns="http://www.w3.org/2000/svg">
  <rect fill="#111827" height="294" width="923" x="0" y="0"/>
  <line stroke="#2dd4bf" stroke-width="1.5" x1="493" x2="175" y1="38" y2="108"/>
  <line stroke="#2dd4bf" stroke-width="1.5" x1="175" x2="104" y1="146" y2="216"/>
  <line stroke="#2dd4bf" stroke-width="1.5" x1="175" x2="247" y1="146" y2="216"/>
  <line stroke="#2dd4bf" stroke-width="1.5" x1="493" x2="540" y1="38" y2="108"/>
  <line stroke="#2dd4bf" stroke-width="1.5" x1="540" x2="401" y1="146" y2="216"/>
  <line stroke="#2dd4bf" stroke-width="1.5" x1="540" x2="548" y1="146" y2="216"/>
  <line stroke="#2dd4bf" stroke-width="1.5" x1="540" x2="679" y1="146" y2="216"/>
  <line stroke="#2dd4bf" stroke-width="1.5" x1="493" x2="811" y1="38" y2="108"/>
  <line stroke="#2dd4bf" stroke-width="1.5" x1="811" x2="811" y1="146" y2="216"/>
  <rect fill="#134e4a" height="38" rx="8" stroke="#2dd4bf" stroke-width="1.5" width="127" x="40" y="216"/>
  <text dominant-baseline="central" fill="#e2e8f0" font-family="DejaVu Sans, sans-serif" font-size="13" font-weight="600" text-anchor="middle" x="104" y="235">1.1 Background</text>
  <rect fill="#134e4a" height="38" rx="8" stroke="#2dd4bf" stroke-width="1.5" width="119" x="187" y="216"/>
  <text dominant-baseline="central" fill="#e2e8f0" font-family="DejaVu Sans, sans-serif" font-size="13" font-weight="600" text-anchor="middle" x="247" y="235">1.2 Motivation</text>
  <rect fill="#0f766e" height="38" rx="8" stroke="#2dd4bf" stroke-width="1.5" width="171" x="90" y="108"/>
  <text dominant-baseline="central" fill="#f1f5f9" font-family="DejaVu Sans, sans-serif" font-size="13" font-weight="600" text-anchor="middle" x="175" y="127">Chapter 1: Introduction</text>
  <rect fill="#134e4a" height="38" rx="8" stroke="#2dd4bf" stroke-width="1.5" width="148" x="327" y="216"/>
  <text dominant-baseline="central" fill="#e2e8f0" font-family="DejaVu Sans, sans-serif" font-size="13" font-weight="600" text-anchor="middle" x="401" y="235">2.1 Data Collection</text>
  <rect fill="#134e4a" height="38" rx="8" stroke="#2dd4bf" stroke-width="1.5" width="106" x="495" y="216"/>
  <text dominant-baseline="central" fill="#e2e8f0" font-family="DejaVu Sans, sans-serif" font-size="13" font-weight="600" text-anchor="middle" x="548" y="235">2.2 Analysis</text>
  <rect fill="#134e4a" height="38" rx="8" stroke="#2dd4bf" stroke-width="1.5" width="116" x="621" y="216"/>
  <text dominant-baseline="central" fill="#e2e8f0" font-family="DejaVu Sans, sans-serif" font-size="13" font-weight="600" text-anchor="middle" x="679" y="235">2.3 Validation</text>
  <rect fill="#0f766e" height="38" rx="8" stroke="#2dd4bf" stroke-width="1.5" width="152" x="464" y="108"/>
  <text dominant-baseline="central" fill="#f1f5f9" font-family="DejaVu Sans, sans-serif" font-size="13" font-weight="600" text-anchor="middle" x="540" y="127">Chapter 2: Methods</text>
  <rect fill="#134e4a" height="38" rx="8" stroke="#2dd4bf" stroke-width="1.5" width="107" x="757" y="216"/>
  <text dominant-baseline="central" fill="#e2e8f0" font-family="DejaVu Sans, sans-serif" font-size="13" font-weight="600" text-anchor="middle" x="811" y="235">3.1 Findings</text>
  <rect fill="#0f766e" height="38" rx="8" stroke="#2dd4bf" stroke-width="1.5" width="145" x="738" y="108"/>
  <text dominant-baseline="central" fill="#f1f5f9" font-family="DejaVu Sans, sans-serif" font-size="13" font-weight="600" text-anchor="middle" x="811" y="127">Chapter 3: Results</text>
  <rect fill="#0d9488" height="38" rx="8" stroke="#2dd4bf" stroke-width="1.5" width="100" x="443" y="0"/>
  <text dominant-baseline="central" fill="#ffffff" font-family="DejaVu Sans, sans-serif" font-size="13" font-weight="600" text-anchor="middle" x="493" y="19">Document</text>
</svg>