<svg xmlns="http://www.w3.org/2000/svg" viewBox="0 0 628.2 236" width="628.2" height="236">
  <rect width="100%" height="100%" fill="#0A1628" />
  <text x="24" y="42" font-size="18" font-family="Inter, system-ui, -apple-system, sans-serif" fill="#E8EDF5" font-weight="bold">Product Roadmap 2025</text>
  <rect x="36" y="68" width="234.2" height="134" fill="#4D9AFF0A" stroke="#4D9AFF33" stroke-width="1" rx="4" />
  <text x="42" y="82" font-size="11" font-family="Inter, system-ui, -apple-system, sans-serif" fill="#4D9AFF" font-weight="bold">Planning</text>
  <rect x="278.2" y="68" width="204.00000000000006" height="134" fill="#4D9AFF0A" stroke="#4D9AFF33" stroke-width="1" rx="4" />
  <text x="284.2" y="82" font-size="11" font-family="Inter, system-ui, -apple-system, sans-serif" fill="#4D9AFF" font-weight="bold">Development</text>
  <rect x="490.20000000000005" y="68" width="98" height="134" fill="#4D9AFF0A" stroke="#4D9AFF33" stroke-width="1" rx="4" />
  <text x="496.20000000000005" y="82" font-size="11" font-family="Inter, system-ui, -apple-system, sans-serif" fill="#4D9AFF" font-weight="bold">Release</text>
  <path d="M 44 118 L 604.2 118" stroke="#1C3558" stroke-width="2" fill="none" />
  <rect x="44" y="136" width="68.8" height="32" fill="#132035" stroke="#1C3558" stroke-width="1" rx="4" />
  <text x="78.4" y="156.4" font-size="11" font-family="Inter, system-ui, -apple-system, sans-serif" fill="#E8EDF5" text-anchor="middle">Research</text>
  <rect x="120.8" y="136" width="141.39999999999998" height="32" fill="#132035" stroke="#1C3558" stroke-width="1" rx="4" />
  <text x="191.5" y="156.4" font-size="11" font-family="Inter, system-ui, -apple-system, sans-serif" fill="#E8EDF5" text-anchor="middle">Define requirements</text>
  <rect x="286.2" y="136" width="75.4" height="32" fill="#132035" stroke="#1C3558" stroke-width="1" rx="4" />
  <text x="323.9" y="156.4" font-size="11" font-family="Inter, system-ui, -apple-system, sans-serif" fill="#E8EDF5" text-anchor="middle">Build MVP</text>
  <rect x="385.6" y="136" width="88.6" height="32" fill="#132035" stroke="#1C3558" stroke-width="1" rx="4" />
  <text x="429.90000000000003" y="156.4" font-size="11" font-family="Inter, system-ui, -apple-system, sans-serif" fill="#E8EDF5" text-anchor="middle">Beta launch</text>
  <rect x="498.20000000000005" y="136" width="82" height="32" fill="#132035" stroke="#1C3558" stroke-width="1" rx="4" />
  <text x="539.2" y="156.4" font-size="11" font-family="Inter, system-ui, -apple-system, sans-serif" fill="#E8EDF5" text-anchor="middle">GA release</text>
</svg>