<svg xmlns="http://www.w3.org/2000/svg" viewBox="0 0 808 168" width="808" height="168">
  <defs>
    <marker id="triton-arrow" markerWidth="8" markerHeight="5.6" refX="7" refY="2.8" orient="auto"><polygon points="0 0, 8 2.8, 0 5.6" fill="#5B4FCF" /></marker>
  </defs>
  <rect width="100%" height="100%" fill="#F8F9FF" />
  <path d="M 144 84 L 184 84" stroke="#5B4FCF" stroke-width="1.5" fill="none" marker-end="url(#triton-arrow)" />
  <path d="M 304 84 L 324 84 L 324 44 L 344 44" stroke="#5B4FCF" stroke-width="1.5" fill="none" marker-end="url(#triton-arrow)" />
  <text x="324" y="60" font-size="12" font-family="Inter, system-ui, -apple-system, sans-serif" fill="#4A4A6A" text-anchor="middle">valid</text>
  <path d="M 304 84 L 324 84 L 324 124 L 344 124" stroke="#5B4FCF" stroke-width="1.5" fill="none" marker-end="url(#triton-arrow)" />
  <text x="324" y="100" font-size="12" font-family="Inter, system-ui, -apple-system, sans-serif" fill="#4A4A6A" text-anchor="middle">invalid</text>
  <path d="M 464 44 L 484 44 L 484 84 L 504 84" stroke="#5B4FCF" stroke-width="1.5" fill="none" marker-end="url(#triton-arrow)" />
  <path d="M 624 84 L 664 84" stroke="#5B4FCF" stroke-width="1.5" fill="none" marker-end="url(#triton-arrow)" />
  <g id="start">
    <rect x="24" y="64" width="120" height="40" fill="#FFFFFF" stroke="#C0C4DF" stroke-width="1.5" rx="2" />
    <text x="84" y="88.9" font-size="14" font-family="Inter, system-ui, -apple-system, sans-serif" fill="#1A1A2E" text-anchor="middle">Start</text>
  </g>
  <g id="validate">
    <path d="M 244 64 L 304 84 L 244 104 L 184 84 Z" stroke="#C0C4DF" stroke-width="1.5" fill="#FFFFFF" />
    <text x="244" y="88.9" font-size="14" font-family="Inter, system-ui, -apple-system, sans-serif" fill="#1A1A2E" text-anchor="middle">Validate</text>
  </g>
  <g id="process">
    <rect x="344" y="24" width="120" height="40" fill="#FFFFFF" stroke="#C0C4DF" stroke-width="1.5" rx="2" />
    <text x="404" y="48.9" font-size="14" font-family="Inter, system-ui, -apple-system, sans-serif" fill="#1A1A2E" text-anchor="middle">Process</text>
  </g>
  <g id="reject">
    <rect x="344" y="104" width="120" height="40" fill="#FFFFFF" stroke="#C0C4DF" stroke-width="1.5" rx="2" />
    <text x="404" y="128.9" font-size="14" font-family="Inter, system-ui, -apple-system, sans-serif" fill="#1A1A2E" text-anchor="middle">Reject</text>
  </g>
  <g id="notify">
    <rect x="504" y="64" width="120" height="40" fill="#FFFFFF" stroke="#C0C4DF" stroke-width="1.5" rx="20" />
    <text x="564" y="88.9" font-size="14" font-family="Inter, system-ui, -apple-system, sans-serif" fill="#1A1A2E" text-anchor="middle">Notify User</text>
  </g>
  <g id="done">
    <rect x="664" y="64" width="120" height="40" fill="#FFFFFF" stroke="#C0C4DF" stroke-width="1.5" rx="20" />
    <text x="724" y="88.9" font-size="14" font-family="Inter, system-ui, -apple-system, sans-serif" fill="#1A1A2E" text-anchor="middle">Done</text>
  </g>
</svg>